  0
SECTION
  2
BLOCKS
  0
ENDSEC
  0
SECTION
  2
ENTITIES
  0
LINE
  8
0
 10
235
 20
300
 11
40
 21
300
  0
LINE
  8
0
 10
40
 20
300
 11
0
 21
270
  0
LINE
  8
0
 10
0
 20
270
 11
0
 21
0
  0
LINE
  8
0
 10
0
 20
0
 11
235
 21
0
  0
LINE
  8
0
 10
235
 20
0
 11
235
 21
300
  0
LINE
  8
0
 10
61.8896
 20
290.253
 11
61.7794
 21
290.261
  0
LINE
  8
0
 10
61.7794
 20
290.261
 11
61.6698
 21
290.274
  0
LINE
  8
0
 10
61.6698
 20
290.274
 11
61.561
 21
290.293
  0
LINE
  8
0
 10
61.561
 20
290.293
 11
61.4533
 21
290.317
  0
LINE
  8
0
 10
61.4533
 20
290.317
 11
61.3468
 21
290.347
  0
LINE
  8
0
 10
61.3468
 20
290.347
 11
61.242
 21
290.382
  0
LINE
  8
0
 10
61.242
 20
290.382
 11
61.139
 21
290.421
  0
LINE
  8
0
 10
61.139
 20
290.421
 11
61.038
 21
290.466
  0
LINE
  8
0
 10
61.038
 20
290.466
 11
60.9393
 21
290.516
  0
LINE
  8
0
 10
60.9393
 20
290.516
 11
60.8433
 21
290.57
  0
LINE
  8
0
 10
60.8433
 20
290.57
 11
60.75
 21
290.629
  0
LINE
  8
0
 10
60.75
 20
290.629
 11
60.6597
 21
290.693
  0
LINE
  8
0
 10
60.6597
 20
290.693
 11
60.5726
 21
290.761
  0
LINE
  8
0
 10
60.5726
 20
290.761
 11
60.489
 21
290.833
  0
LINE
  8
0
 10
60.489
 20
290.833
 11
60.409
 21
290.909
  0
LINE
  8
0
 10
60.409
 20
290.909
 11
60.3329
 21
290.989
  0
LINE
  8
0
 10
60.3329
 20
290.989
 11
60.2607
 21
291.073
  0
LINE
  8
0
 10
60.2607
 20
291.073
 11
60.1928
 21
291.16
  0
LINE
  8
0
 10
60.1928
 20
291.16
 11
60.1292
 21
291.25
  0
LINE
  8
0
 10
60.1292
 20
291.25
 11
60.0701
 21
291.343
  0
LINE
  8
0
 10
60.0701
 20
291.343
 11
60.0157
 21
291.439
  0
LINE
  8
0
 10
60.0157
 20
291.439
 11
59.966
 21
291.538
  0
LINE
  8
0
 10
59.966
 20
291.538
 11
59.9213
 21
291.639
  0
LINE
  8
0
 10
59.9213
 20
291.639
 11
59.8815
 21
291.742
  0
LINE
  8
0
 10
59.8815
 20
291.742
 11
59.8469
 21
291.847
  0
LINE
  8
0
 10
59.8469
 20
291.847
 11
59.8174
 21
291.953
  0
LINE
  8
0
 10
59.8174
 20
291.953
 11
59.7932
 21
292.061
  0
LINE
  8
0
 10
59.7932
 20
292.061
 11
59.7743
 21
292.17
  0
LINE
  8
0
 10
59.7743
 20
292.17
 11
59.7608
 21
292.279
  0
LINE
  8
0
 10
59.7608
 20
292.279
 11
59.7527
 21
292.39
  0
LINE
  8
0
 10
59.7527
 20
292.39
 11
59.75
 21
292.5
  0
LINE
  8
0
 10
59.75
 20
292.5
 11
59.7527
 21
292.61
  0
LINE
  8
0
 10
59.7527
 20
292.61
 11
59.7608
 21
292.721
  0
LINE
  8
0
 10
59.7608
 20
292.721
 11
59.7743
 21
292.83
  0
LINE
  8
0
 10
59.7743
 20
292.83
 11
59.7932
 21
292.939
  0
LINE
  8
0
 10
59.7932
 20
292.939
 11
59.8174
 21
293.047
  0
LINE
  8
0
 10
59.8174
 20
293.047
 11
59.8469
 21
293.153
  0
LINE
  8
0
 10
59.8469
 20
293.153
 11
59.8815
 21
293.258
  0
LINE
  8
0
 10
59.8815
 20
293.258
 11
59.9213
 21
293.361
  0
LINE
  8
0
 10
59.9213
 20
293.361
 11
59.966
 21
293.462
  0
LINE
  8
0
 10
59.966
 20
293.462
 11
60.0157
 21
293.561
  0
LINE
  8
0
 10
60.0157
 20
293.561
 11
60.0701
 21
293.657
  0
LINE
  8
0
 10
60.0701
 20
293.657
 11
60.1292
 21
293.75
  0
LINE
  8
0
 10
60.1292
 20
293.75
 11
60.1928
 21
293.84
  0
LINE
  8
0
 10
60.1928
 20
293.84
 11
60.2607
 21
293.927
  0
LINE
  8
0
 10
60.2607
 20
293.927
 11
60.3329
 21
294.011
  0
LINE
  8
0
 10
60.3329
 20
294.011
 11
60.409
 21
294.091
  0
LINE
  8
0
 10
60.409
 20
294.091
 11
60.489
 21
294.167
  0
LINE
  8
0
 10
60.489
 20
294.167
 11
60.5726
 21
294.239
  0
LINE
  8
0
 10
60.5726
 20
294.239
 11
60.6597
 21
294.307
  0
LINE
  8
0
 10
60.6597
 20
294.307
 11
60.75
 21
294.371
  0
LINE
  8
0
 10
60.75
 20
294.371
 11
60.8433
 21
294.43
  0
LINE
  8
0
 10
60.8433
 20
294.43
 11
60.9393
 21
294.484
  0
LINE
  8
0
 10
60.9393
 20
294.484
 11
61.038
 21
294.534
  0
LINE
  8
0
 10
61.038
 20
294.534
 11
61.139
 21
294.579
  0
LINE
  8
0
 10
61.139
 20
294.579
 11
61.242
 21
294.618
  0
LINE
  8
0
 10
61.242
 20
294.618
 11
61.3468
 21
294.653
  0
LINE
  8
0
 10
61.3468
 20
294.653
 11
61.4533
 21
294.683
  0
LINE
  8
0
 10
61.4533
 20
294.683
 11
61.561
 21
294.707
  0
LINE
  8
0
 10
61.561
 20
294.707
 11
61.6698
 21
294.726
  0
LINE
  8
0
 10
61.6698
 20
294.726
 11
61.7794
 21
294.739
  0
LINE
  8
0
 10
61.7794
 20
294.739
 11
61.8896
 21
294.747
  0
LINE
  8
0
 10
61.8896
 20
294.747
 11
62
 21
294.75
  0
LINE
  8
0
 10
62
 20
294.75
 11
62.1104
 21
294.747
  0
LINE
  8
0
 10
62.1104
 20
294.747
 11
62.2205
 21
294.739
  0
LINE
  8
0
 10
62.2205
 20
294.739
 11
62.3301
 21
294.726
  0
LINE
  8
0
 10
62.3301
 20
294.726
 11
62.4389
 21
294.707
  0
LINE
  8
0
 10
62.4389
 20
294.707
 11
62.5467
 21
294.683
  0
LINE
  8
0
 10
62.5467
 20
294.683
 11
62.6531
 21
294.653
  0
LINE
  8
0
 10
62.6531
 20
294.653
 11
62.758
 21
294.618
  0
LINE
  8
0
 10
62.758
 20
294.618
 11
62.861
 21
294.579
  0
LINE
  8
0
 10
62.861
 20
294.579
 11
62.962
 21
294.534
  0
LINE
  8
0
 10
62.962
 20
294.534
 11
63.0606
 21
294.484
  0
LINE
  8
0
 10
63.0606
 20
294.484
 11
63.1567
 21
294.43
  0
LINE
  8
0
 10
63.1567
 20
294.43
 11
63.25
 21
294.371
  0
LINE
  8
0
 10
63.25
 20
294.371
 11
63.3403
 21
294.307
  0
LINE
  8
0
 10
63.3403
 20
294.307
 11
63.4274
 21
294.239
  0
LINE
  8
0
 10
63.4274
 20
294.239
 11
63.511
 21
294.167
  0
LINE
  8
0
 10
63.511
 20
294.167
 11
63.591
 21
294.091
  0
LINE
  8
0
 10
63.591
 20
294.091
 11
63.6671
 21
294.011
  0
LINE
  8
0
 10
63.6671
 20
294.011
 11
63.7393
 21
293.927
  0
LINE
  8
0
 10
63.7393
 20
293.927
 11
63.8072
 21
293.84
  0
LINE
  8
0
 10
63.8072
 20
293.84
 11
63.8708
 21
293.75
  0
LINE
  8
0
 10
63.8708
 20
293.75
 11
63.9299
 21
293.657
  0
LINE
  8
0
 10
63.9299
 20
293.657
 11
63.9843
 21
293.561
  0
LINE
  8
0
 10
63.9843
 20
293.561
 11
64.034
 21
293.462
  0
LINE
  8
0
 10
64.034
 20
293.462
 11
64.0787
 21
293.361
  0
LINE
  8
0
 10
64.0787
 20
293.361
 11
64.1185
 21
293.258
  0
LINE
  8
0
 10
64.1185
 20
293.258
 11
64.1531
 21
293.153
  0
LINE
  8
0
 10
64.1531
 20
293.153
 11
64.1826
 21
293.047
  0
LINE
  8
0
 10
64.1826
 20
293.047
 11
64.2068
 21
292.939
  0
LINE
  8
0
 10
64.2068
 20
292.939
 11
64.2256
 21
292.83
  0
LINE
  8
0
 10
64.2256
 20
292.83
 11
64.2392
 21
292.721
  0
LINE
  8
0
 10
64.2392
 20
292.721
 11
64.2473
 21
292.61
  0
LINE
  8
0
 10
64.2473
 20
292.61
 11
64.25
 21
292.5
  0
LINE
  8
0
 10
64.25
 20
292.5
 11
64.2473
 21
292.39
  0
LINE
  8
0
 10
64.2473
 20
292.39
 11
64.2392
 21
292.279
  0
LINE
  8
0
 10
64.2392
 20
292.279
 11
64.2256
 21
292.17
  0
LINE
  8
0
 10
64.2256
 20
292.17
 11
64.2068
 21
292.061
  0
LINE
  8
0
 10
64.2068
 20
292.061
 11
64.1826
 21
291.953
  0
LINE
  8
0
 10
64.1826
 20
291.953
 11
64.1531
 21
291.847
  0
LINE
  8
0
 10
64.1531
 20
291.847
 11
64.1185
 21
291.742
  0
LINE
  8
0
 10
64.1185
 20
291.742
 11
64.0787
 21
291.639
  0
LINE
  8
0
 10
64.0787
 20
291.639
 11
64.034
 21
291.538
  0
LINE
  8
0
 10
64.034
 20
291.538
 11
63.9843
 21
291.439
  0
LINE
  8
0
 10
63.9843
 20
291.439
 11
63.9299
 21
291.343
  0
LINE
  8
0
 10
63.9299
 20
291.343
 11
63.8708
 21
291.25
  0
LINE
  8
0
 10
63.8708
 20
291.25
 11
63.8072
 21
291.16
  0
LINE
  8
0
 10
63.8072
 20
291.16
 11
63.7393
 21
291.073
  0
LINE
  8
0
 10
63.7393
 20
291.073
 11
63.6671
 21
290.989
  0
LINE
  8
0
 10
63.6671
 20
290.989
 11
63.591
 21
290.909
  0
LINE
  8
0
 10
63.591
 20
290.909
 11
63.511
 21
290.833
  0
LINE
  8
0
 10
63.511
 20
290.833
 11
63.4274
 21
290.761
  0
LINE
  8
0
 10
63.4274
 20
290.761
 11
63.3403
 21
290.693
  0
LINE
  8
0
 10
63.3403
 20
290.693
 11
63.25
 21
290.629
  0
LINE
  8
0
 10
63.25
 20
290.629
 11
63.1567
 21
290.57
  0
LINE
  8
0
 10
63.1567
 20
290.57
 11
63.0606
 21
290.516
  0
LINE
  8
0
 10
63.0606
 20
290.516
 11
62.962
 21
290.466
  0
LINE
  8
0
 10
62.962
 20
290.466
 11
62.861
 21
290.421
  0
LINE
  8
0
 10
62.861
 20
290.421
 11
62.758
 21
290.382
  0
LINE
  8
0
 10
62.758
 20
290.382
 11
62.6531
 21
290.347
  0
LINE
  8
0
 10
62.6531
 20
290.347
 11
62.5467
 21
290.317
  0
LINE
  8
0
 10
62.5467
 20
290.317
 11
62.4389
 21
290.293
  0
LINE
  8
0
 10
62.4389
 20
290.293
 11
62.3301
 21
290.274
  0
LINE
  8
0
 10
62.3301
 20
290.274
 11
62.2205
 21
290.261
  0
LINE
  8
0
 10
62.2205
 20
290.261
 11
62.1104
 21
290.253
  0
LINE
  8
0
 10
62.1104
 20
290.253
 11
62
 21
290.25
  0
LINE
  8
0
 10
62
 20
290.25
 11
61.8896
 21
290.253
  0
LINE
  8
0
 10
49.3866
 20
207.515
 11
48.7748
 21
207.56
  0
LINE
  8
0
 10
48.7748
 20
207.56
 11
48.1659
 21
207.635
  0
LINE
  8
0
 10
48.1659
 20
207.635
 11
47.5614
 21
207.74
  0
LINE
  8
0
 10
47.5614
 20
207.74
 11
46.9627
 21
207.875
  0
LINE
  8
0
 10
46.9627
 20
207.875
 11
46.3714
 21
208.038
  0
LINE
  8
0
 10
46.3714
 20
208.038
 11
45.7889
 21
208.231
  0
LINE
  8
0
 10
45.7889
 20
208.231
 11
45.2164
 21
208.451
  0
LINE
  8
0
 10
45.2164
 20
208.451
 11
44.6555
 21
208.7
  0
LINE
  8
0
 10
44.6555
 20
208.7
 11
44.1075
 21
208.976
  0
LINE
  8
0
 10
44.1075
 20
208.976
 11
43.5737
 21
209.278
  0
LINE
  8
0
 10
43.5737
 20
209.278
 11
43.0554
 21
209.607
  0
LINE
  8
0
 10
43.0554
 20
209.607
 11
42.5538
 21
209.96
  0
LINE
  8
0
 10
42.5538
 20
209.96
 11
42.0701
 21
210.337
  0
LINE
  8
0
 10
42.0701
 20
210.337
 11
41.6055
 21
210.738
  0
LINE
  8
0
 10
41.6055
 20
210.738
 11
41.1612
 21
211.161
  0
LINE
  8
0
 10
41.1612
 20
211.161
 11
40.7381
 21
211.605
  0
LINE
  8
0
 10
40.7381
 20
211.605
 11
40.3374
 21
212.07
  0
LINE
  8
0
 10
40.3374
 20
212.07
 11
39.9599
 21
212.554
  0
LINE
  8
0
 10
39.9599
 20
212.554
 11
39.6066
 21
213.055
  0
LINE
  8
0
 10
39.6066
 20
213.055
 11
39.2784
 21
213.574
  0
LINE
  8
0
 10
39.2784
 20
213.574
 11
38.976
 21
214.108
  0
LINE
  8
0
 10
38.976
 20
214.108
 11
38.7001
 21
214.656
  0
LINE
  8
0
 10
38.7001
 20
214.656
 11
38.4515
 21
215.216
  0
LINE
  8
0
 10
38.4515
 20
215.216
 11
38.2307
 21
215.789
  0
LINE
  8
0
 10
38.2307
 20
215.789
 11
38.0382
 21
216.371
  0
LINE
  8
0
 10
38.0382
 20
216.371
 11
37.8746
 21
216.963
  0
LINE
  8
0
 10
37.8746
 20
216.963
 11
37.7402
 21
217.561
  0
LINE
  8
0
 10
37.7402
 20
217.561
 11
37.6353
 21
218.166
  0
LINE
  8
0
 10
37.6353
 20
218.166
 11
37.5602
 21
218.775
  0
LINE
  8
0
 10
37.5602
 20
218.775
 11
37.515
 21
219.387
  0
LINE
  8
0
 10
37.515
 20
219.387
 11
37.5
 21
220
  0
LINE
  8
0
 10
37.5
 20
220
 11
37.515
 21
220.613
  0
LINE
  8
0
 10
37.515
 20
220.613
 11
37.5602
 21
221.225
  0
LINE
  8
0
 10
37.5602
 20
221.225
 11
37.6353
 21
221.834
  0
LINE
  8
0
 10
37.6353
 20
221.834
 11
37.7402
 21
222.439
  0
LINE
  8
0
 10
37.7402
 20
222.439
 11
37.8746
 21
223.037
  0
LINE
  8
0
 10
37.8746
 20
223.037
 11
38.0382
 21
223.629
  0
LINE
  8
0
 10
38.0382
 20
223.629
 11
38.2307
 21
224.211
  0
LINE
  8
0
 10
38.2307
 20
224.211
 11
38.4515
 21
224.784
  0
LINE
  8
0
 10
38.4515
 20
224.784
 11
38.7001
 21
225.344
  0
LINE
  8
0
 10
38.7001
 20
225.344
 11
38.976
 21
225.892
  0
LINE
  8
0
 10
38.976
 20
225.892
 11
39.2784
 21
226.426
  0
LINE
  8
0
 10
39.2784
 20
226.426
 11
39.6066
 21
226.945
  0
LINE
  8
0
 10
39.6066
 20
226.945
 11
39.9599
 21
227.446
  0
LINE
  8
0
 10
39.9599
 20
227.446
 11
40.3374
 21
227.93
  0
LINE
  8
0
 10
40.3374
 20
227.93
 11
40.7381
 21
228.394
  0
LINE
  8
0
 10
40.7381
 20
228.394
 11
41.1612
 21
228.839
  0
LINE
  8
0
 10
41.1612
 20
228.839
 11
41.6055
 21
229.262
  0
LINE
  8
0
 10
41.6055
 20
229.262
 11
42.0701
 21
229.663
  0
LINE
  8
0
 10
42.0701
 20
229.663
 11
42.5538
 21
230.04
  0
LINE
  8
0
 10
42.5538
 20
230.04
 11
43.0554
 21
230.393
  0
LINE
  8
0
 10
43.0554
 20
230.393
 11
43.5737
 21
230.722
  0
LINE
  8
0
 10
43.5737
 20
230.722
 11
44.1075
 21
231.024
  0
LINE
  8
0
 10
44.1075
 20
231.024
 11
44.6555
 21
231.3
  0
LINE
  8
0
 10
44.6555
 20
231.3
 11
45.2164
 21
231.548
  0
LINE
  8
0
 10
45.2164
 20
231.548
 11
45.7889
 21
231.769
  0
LINE
  8
0
 10
45.7889
 20
231.769
 11
46.3714
 21
231.962
  0
LINE
  8
0
 10
46.3714
 20
231.962
 11
46.9627
 21
232.125
  0
LINE
  8
0
 10
46.9627
 20
232.125
 11
47.5614
 21
232.26
  0
LINE
  8
0
 10
47.5614
 20
232.26
 11
48.1659
 21
232.365
  0
LINE
  8
0
 10
48.1659
 20
232.365
 11
48.7748
 21
232.44
  0
LINE
  8
0
 10
48.7748
 20
232.44
 11
49.3866
 21
232.485
  0
LINE
  8
0
 10
49.3866
 20
232.485
 11
50
 21
232.5
  0
LINE
  8
0
 10
50
 20
232.5
 11
50.6133
 21
232.485
  0
LINE
  8
0
 10
50.6133
 20
232.485
 11
51.2252
 21
232.44
  0
LINE
  8
0
 10
51.2252
 20
232.44
 11
51.8341
 21
232.365
  0
LINE
  8
0
 10
51.8341
 20
232.365
 11
52.4386
 21
232.26
  0
LINE
  8
0
 10
52.4386
 20
232.26
 11
53.0372
 21
232.125
  0
LINE
  8
0
 10
53.0372
 20
232.125
 11
53.6286
 21
231.962
  0
LINE
  8
0
 10
53.6286
 20
231.962
 11
54.2111
 21
231.769
  0
LINE
  8
0
 10
54.2111
 20
231.769
 11
54.7835
 21
231.548
  0
LINE
  8
0
 10
54.7835
 20
231.548
 11
55.3444
 21
231.3
  0
LINE
  8
0
 10
55.3444
 20
231.3
 11
55.8925
 21
231.024
  0
LINE
  8
0
 10
55.8925
 20
231.024
 11
56.4263
 21
230.722
  0
LINE
  8
0
 10
56.4263
 20
230.722
 11
56.9446
 21
230.393
  0
LINE
  8
0
 10
56.9446
 20
230.393
 11
57.4462
 21
230.04
  0
LINE
  8
0
 10
57.4462
 20
230.04
 11
57.9299
 21
229.663
  0
LINE
  8
0
 10
57.9299
 20
229.663
 11
58.3945
 21
229.262
  0
LINE
  8
0
 10
58.3945
 20
229.262
 11
58.8388
 21
228.839
  0
LINE
  8
0
 10
58.8388
 20
228.839
 11
59.2619
 21
228.394
  0
LINE
  8
0
 10
59.2619
 20
228.394
 11
59.6626
 21
227.93
  0
LINE
  8
0
 10
59.6626
 20
227.93
 11
60.0401
 21
227.446
  0
LINE
  8
0
 10
60.0401
 20
227.446
 11
60.3934
 21
226.945
  0
LINE
  8
0
 10
60.3934
 20
226.945
 11
60.7216
 21
226.426
  0
LINE
  8
0
 10
60.7216
 20
226.426
 11
61.024
 21
225.892
  0
LINE
  8
0
 10
61.024
 20
225.892
 11
61.2999
 21
225.344
  0
LINE
  8
0
 10
61.2999
 20
225.344
 11
61.5485
 21
224.784
  0
LINE
  8
0
 10
61.5485
 20
224.784
 11
61.7693
 21
224.211
  0
LINE
  8
0
 10
61.7693
 20
224.211
 11
61.9617
 21
223.629
  0
LINE
  8
0
 10
61.9617
 20
223.629
 11
62.1254
 21
223.037
  0
LINE
  8
0
 10
62.1254
 20
223.037
 11
62.2598
 21
222.439
  0
LINE
  8
0
 10
62.2598
 20
222.439
 11
62.3647
 21
221.834
  0
LINE
  8
0
 10
62.3647
 20
221.834
 11
62.4398
 21
221.225
  0
LINE
  8
0
 10
62.4398
 20
221.225
 11
62.4849
 21
220.613
  0
LINE
  8
0
 10
62.4849
 20
220.613
 11
62.5
 21
220
  0
LINE
  8
0
 10
62.5
 20
220
 11
62.4849
 21
219.387
  0
LINE
  8
0
 10
62.4849
 20
219.387
 11
62.4398
 21
218.775
  0
LINE
  8
0
 10
62.4398
 20
218.775
 11
62.3647
 21
218.166
  0
LINE
  8
0
 10
62.3647
 20
218.166
 11
62.2598
 21
217.561
  0
LINE
  8
0
 10
62.2598
 20
217.561
 11
62.1254
 21
216.963
  0
LINE
  8
0
 10
62.1254
 20
216.963
 11
61.9617
 21
216.371
  0
LINE
  8
0
 10
61.9617
 20
216.371
 11
61.7693
 21
215.789
  0
LINE
  8
0
 10
61.7693
 20
215.789
 11
61.5485
 21
215.216
  0
LINE
  8
0
 10
61.5485
 20
215.216
 11
61.2999
 21
214.656
  0
LINE
  8
0
 10
61.2999
 20
214.656
 11
61.024
 21
214.108
  0
LINE
  8
0
 10
61.024
 20
214.108
 11
60.7216
 21
213.574
  0
LINE
  8
0
 10
60.7216
 20
213.574
 11
60.3934
 21
213.055
  0
LINE
  8
0
 10
60.3934
 20
213.055
 11
60.0401
 21
212.554
  0
LINE
  8
0
 10
60.0401
 20
212.554
 11
59.6626
 21
212.07
  0
LINE
  8
0
 10
59.6626
 20
212.07
 11
59.2619
 21
211.605
  0
LINE
  8
0
 10
59.2619
 20
211.605
 11
58.8388
 21
211.161
  0
LINE
  8
0
 10
58.8388
 20
211.161
 11
58.3945
 21
210.738
  0
LINE
  8
0
 10
58.3945
 20
210.738
 11
57.9299
 21
210.337
  0
LINE
  8
0
 10
57.9299
 20
210.337
 11
57.4462
 21
209.96
  0
LINE
  8
0
 10
57.4462
 20
209.96
 11
56.9446
 21
209.607
  0
LINE
  8
0
 10
56.9446
 20
209.607
 11
56.4263
 21
209.278
  0
LINE
  8
0
 10
56.4263
 20
209.278
 11
55.8925
 21
208.976
  0
LINE
  8
0
 10
55.8925
 20
208.976
 11
55.3444
 21
208.7
  0
LINE
  8
0
 10
55.3444
 20
208.7
 11
54.7835
 21
208.451
  0
LINE
  8
0
 10
54.7835
 20
208.451
 11
54.2111
 21
208.231
  0
LINE
  8
0
 10
54.2111
 20
208.231
 11
53.6286
 21
208.038
  0
LINE
  8
0
 10
53.6286
 20
208.038
 11
53.0372
 21
207.875
  0
LINE
  8
0
 10
53.0372
 20
207.875
 11
52.4386
 21
207.74
  0
LINE
  8
0
 10
52.4386
 20
207.74
 11
51.8341
 21
207.635
  0
LINE
  8
0
 10
51.8341
 20
207.635
 11
51.2252
 21
207.56
  0
LINE
  8
0
 10
51.2252
 20
207.56
 11
50.6133
 21
207.515
  0
LINE
  8
0
 10
50.6133
 20
207.515
 11
50
 21
207.5
  0
LINE
  8
0
 10
50
 20
207.5
 11
49.3866
 21
207.515
  0
LINE
  8
0
 10
189.387
 20
207.515
 11
188.775
 21
207.56
  0
LINE
  8
0
 10
188.775
 20
207.56
 11
188.166
 21
207.635
  0
LINE
  8
0
 10
188.166
 20
207.635
 11
187.561
 21
207.74
  0
LINE
  8
0
 10
187.561
 20
207.74
 11
186.963
 21
207.875
  0
LINE
  8
0
 10
186.963
 20
207.875
 11
186.371
 21
208.038
  0
LINE
  8
0
 10
186.371
 20
208.038
 11
185.789
 21
208.231
  0
LINE
  8
0
 10
185.789
 20
208.231
 11
185.216
 21
208.451
  0
LINE
  8
0
 10
185.216
 20
208.451
 11
184.656
 21
208.7
  0
LINE
  8
0
 10
184.656
 20
208.7
 11
184.108
 21
208.976
  0
LINE
  8
0
 10
184.108
 20
208.976
 11
183.574
 21
209.278
  0
LINE
  8
0
 10
183.574
 20
209.278
 11
183.055
 21
209.607
  0
LINE
  8
0
 10
183.055
 20
209.607
 11
182.554
 21
209.96
  0
LINE
  8
0
 10
182.554
 20
209.96
 11
182.07
 21
210.337
  0
LINE
  8
0
 10
182.07
 20
210.337
 11
181.605
 21
210.738
  0
LINE
  8
0
 10
181.605
 20
210.738
 11
181.161
 21
211.161
  0
LINE
  8
0
 10
181.161
 20
211.161
 11
180.738
 21
211.605
  0
LINE
  8
0
 10
180.738
 20
211.605
 11
180.337
 21
212.07
  0
LINE
  8
0
 10
180.337
 20
212.07
 11
179.96
 21
212.554
  0
LINE
  8
0
 10
179.96
 20
212.554
 11
179.607
 21
213.055
  0
LINE
  8
0
 10
179.607
 20
213.055
 11
179.278
 21
213.574
  0
LINE
  8
0
 10
179.278
 20
213.574
 11
178.976
 21
214.108
  0
LINE
  8
0
 10
178.976
 20
214.108
 11
178.7
 21
214.656
  0
LINE
  8
0
 10
178.7
 20
214.656
 11
178.451
 21
215.216
  0
LINE
  8
0
 10
178.451
 20
215.216
 11
178.231
 21
215.789
  0
LINE
  8
0
 10
178.231
 20
215.789
 11
178.038
 21
216.371
  0
LINE
  8
0
 10
178.038
 20
216.371
 11
177.875
 21
216.963
  0
LINE
  8
0
 10
177.875
 20
216.963
 11
177.74
 21
217.561
  0
LINE
  8
0
 10
177.74
 20
217.561
 11
177.635
 21
218.166
  0
LINE
  8
0
 10
177.635
 20
218.166
 11
177.56
 21
218.775
  0
LINE
  8
0
 10
177.56
 20
218.775
 11
177.515
 21
219.387
  0
LINE
  8
0
 10
177.515
 20
219.387
 11
177.5
 21
220
  0
LINE
  8
0
 10
177.5
 20
220
 11
177.515
 21
220.613
  0
LINE
  8
0
 10
177.515
 20
220.613
 11
177.56
 21
221.225
  0
LINE
  8
0
 10
177.56
 20
221.225
 11
177.635
 21
221.834
  0
LINE
  8
0
 10
177.635
 20
221.834
 11
177.74
 21
222.439
  0
LINE
  8
0
 10
177.74
 20
222.439
 11
177.875
 21
223.037
  0
LINE
  8
0
 10
177.875
 20
223.037
 11
178.038
 21
223.629
  0
LINE
  8
0
 10
178.038
 20
223.629
 11
178.231
 21
224.211
  0
LINE
  8
0
 10
178.231
 20
224.211
 11
178.451
 21
224.784
  0
LINE
  8
0
 10
178.451
 20
224.784
 11
178.7
 21
225.344
  0
LINE
  8
0
 10
178.7
 20
225.344
 11
178.976
 21
225.892
  0
LINE
  8
0
 10
178.976
 20
225.892
 11
179.278
 21
226.426
  0
LINE
  8
0
 10
179.278
 20
226.426
 11
179.607
 21
226.945
  0
LINE
  8
0
 10
179.607
 20
226.945
 11
179.96
 21
227.446
  0
LINE
  8
0
 10
179.96
 20
227.446
 11
180.337
 21
227.93
  0
LINE
  8
0
 10
180.337
 20
227.93
 11
180.738
 21
228.394
  0
LINE
  8
0
 10
180.738
 20
228.394
 11
181.161
 21
228.839
  0
LINE
  8
0
 10
181.161
 20
228.839
 11
181.605
 21
229.262
  0
LINE
  8
0
 10
181.605
 20
229.262
 11
182.07
 21
229.663
  0
LINE
  8
0
 10
182.07
 20
229.663
 11
182.554
 21
230.04
  0
LINE
  8
0
 10
182.554
 20
230.04
 11
183.055
 21
230.393
  0
LINE
  8
0
 10
183.055
 20
230.393
 11
183.574
 21
230.722
  0
LINE
  8
0
 10
183.574
 20
230.722
 11
184.108
 21
231.024
  0
LINE
  8
0
 10
184.108
 20
231.024
 11
184.656
 21
231.3
  0
LINE
  8
0
 10
184.656
 20
231.3
 11
185.216
 21
231.548
  0
LINE
  8
0
 10
185.216
 20
231.548
 11
185.789
 21
231.769
  0
LINE
  8
0
 10
185.789
 20
231.769
 11
186.371
 21
231.962
  0
LINE
  8
0
 10
186.371
 20
231.962
 11
186.963
 21
232.125
  0
LINE
  8
0
 10
186.963
 20
232.125
 11
187.561
 21
232.26
  0
LINE
  8
0
 10
187.561
 20
232.26
 11
188.166
 21
232.365
  0
LINE
  8
0
 10
188.166
 20
232.365
 11
188.775
 21
232.44
  0
LINE
  8
0
 10
188.775
 20
232.44
 11
189.387
 21
232.485
  0
LINE
  8
0
 10
189.387
 20
232.485
 11
190
 21
232.5
  0
LINE
  8
0
 10
190
 20
232.5
 11
190.613
 21
232.485
  0
LINE
  8
0
 10
190.613
 20
232.485
 11
191.225
 21
232.44
  0
LINE
  8
0
 10
191.225
 20
232.44
 11
191.834
 21
232.365
  0
LINE
  8
0
 10
191.834
 20
232.365
 11
192.439
 21
232.26
  0
LINE
  8
0
 10
192.439
 20
232.26
 11
193.037
 21
232.125
  0
LINE
  8
0
 10
193.037
 20
232.125
 11
193.629
 21
231.962
  0
LINE
  8
0
 10
193.629
 20
231.962
 11
194.211
 21
231.769
  0
LINE
  8
0
 10
194.211
 20
231.769
 11
194.784
 21
231.548
  0
LINE
  8
0
 10
194.784
 20
231.548
 11
195.344
 21
231.3
  0
LINE
  8
0
 10
195.344
 20
231.3
 11
195.892
 21
231.024
  0
LINE
  8
0
 10
195.892
 20
231.024
 11
196.426
 21
230.722
  0
LINE
  8
0
 10
196.426
 20
230.722
 11
196.945
 21
230.393
  0
LINE
  8
0
 10
196.945
 20
230.393
 11
197.446
 21
230.04
  0
LINE
  8
0
 10
197.446
 20
230.04
 11
197.93
 21
229.663
  0
LINE
  8
0
 10
197.93
 20
229.663
 11
198.394
 21
229.262
  0
LINE
  8
0
 10
198.394
 20
229.262
 11
198.839
 21
228.839
  0
LINE
  8
0
 10
198.839
 20
228.839
 11
199.262
 21
228.394
  0
LINE
  8
0
 10
199.262
 20
228.394
 11
199.663
 21
227.93
  0
LINE
  8
0
 10
199.663
 20
227.93
 11
200.04
 21
227.446
  0
LINE
  8
0
 10
200.04
 20
227.446
 11
200.393
 21
226.945
  0
LINE
  8
0
 10
200.393
 20
226.945
 11
200.722
 21
226.426
  0
LINE
  8
0
 10
200.722
 20
226.426
 11
201.024
 21
225.892
  0
LINE
  8
0
 10
201.024
 20
225.892
 11
201.3
 21
225.344
  0
LINE
  8
0
 10
201.3
 20
225.344
 11
201.548
 21
224.784
  0
LINE
  8
0
 10
201.548
 20
224.784
 11
201.769
 21
224.211
  0
LINE
  8
0
 10
201.769
 20
224.211
 11
201.962
 21
223.629
  0
LINE
  8
0
 10
201.962
 20
223.629
 11
202.125
 21
223.037
  0
LINE
  8
0
 10
202.125
 20
223.037
 11
202.26
 21
222.439
  0
LINE
  8
0
 10
202.26
 20
222.439
 11
202.365
 21
221.834
  0
LINE
  8
0
 10
202.365
 20
221.834
 11
202.44
 21
221.225
  0
LINE
  8
0
 10
202.44
 20
221.225
 11
202.485
 21
220.613
  0
LINE
  8
0
 10
202.485
 20
220.613
 11
202.5
 21
220
  0
LINE
  8
0
 10
202.5
 20
220
 11
202.485
 21
219.387
  0
LINE
  8
0
 10
202.485
 20
219.387
 11
202.44
 21
218.775
  0
LINE
  8
0
 10
202.44
 20
218.775
 11
202.365
 21
218.166
  0
LINE
  8
0
 10
202.365
 20
218.166
 11
202.26
 21
217.561
  0
LINE
  8
0
 10
202.26
 20
217.561
 11
202.125
 21
216.963
  0
LINE
  8
0
 10
202.125
 20
216.963
 11
201.962
 21
216.371
  0
LINE
  8
0
 10
201.962
 20
216.371
 11
201.769
 21
215.789
  0
LINE
  8
0
 10
201.769
 20
215.789
 11
201.548
 21
215.216
  0
LINE
  8
0
 10
201.548
 20
215.216
 11
201.3
 21
214.656
  0
LINE
  8
0
 10
201.3
 20
214.656
 11
201.024
 21
214.108
  0
LINE
  8
0
 10
201.024
 20
214.108
 11
200.722
 21
213.574
  0
LINE
  8
0
 10
200.722
 20
213.574
 11
200.393
 21
213.055
  0
LINE
  8
0
 10
200.393
 20
213.055
 11
200.04
 21
212.554
  0
LINE
  8
0
 10
200.04
 20
212.554
 11
199.663
 21
212.07
  0
LINE
  8
0
 10
199.663
 20
212.07
 11
199.262
 21
211.605
  0
LINE
  8
0
 10
199.262
 20
211.605
 11
198.839
 21
211.161
  0
LINE
  8
0
 10
198.839
 20
211.161
 11
198.394
 21
210.738
  0
LINE
  8
0
 10
198.394
 20
210.738
 11
197.93
 21
210.337
  0
LINE
  8
0
 10
197.93
 20
210.337
 11
197.446
 21
209.96
  0
LINE
  8
0
 10
197.446
 20
209.96
 11
196.945
 21
209.607
  0
LINE
  8
0
 10
196.945
 20
209.607
 11
196.426
 21
209.278
  0
LINE
  8
0
 10
196.426
 20
209.278
 11
195.892
 21
208.976
  0
LINE
  8
0
 10
195.892
 20
208.976
 11
195.344
 21
208.7
  0
LINE
  8
0
 10
195.344
 20
208.7
 11
194.784
 21
208.451
  0
LINE
  8
0
 10
194.784
 20
208.451
 11
194.211
 21
208.231
  0
LINE
  8
0
 10
194.211
 20
208.231
 11
193.629
 21
208.038
  0
LINE
  8
0
 10
193.629
 20
208.038
 11
193.037
 21
207.875
  0
LINE
  8
0
 10
193.037
 20
207.875
 11
192.439
 21
207.74
  0
LINE
  8
0
 10
192.439
 20
207.74
 11
191.834
 21
207.635
  0
LINE
  8
0
 10
191.834
 20
207.635
 11
191.225
 21
207.56
  0
LINE
  8
0
 10
191.225
 20
207.56
 11
190.613
 21
207.515
  0
LINE
  8
0
 10
190.613
 20
207.515
 11
190
 21
207.5
  0
LINE
  8
0
 10
190
 20
207.5
 11
189.387
 21
207.515
  0
LINE
  8
0
 10
189.387
 20
87.515
 11
188.775
 21
87.5602
  0
LINE
  8
0
 10
188.775
 20
87.5602
 11
188.166
 21
87.6353
  0
LINE
  8
0
 10
188.166
 20
87.6353
 11
187.561
 21
87.7402
  0
LINE
  8
0
 10
187.561
 20
87.7402
 11
186.963
 21
87.8746
  0
LINE
  8
0
 10
186.963
 20
87.8746
 11
186.371
 21
88.0382
  0
LINE
  8
0
 10
186.371
 20
88.0382
 11
185.789
 21
88.2307
  0
LINE
  8
0
 10
185.789
 20
88.2307
 11
185.216
 21
88.4515
  0
LINE
  8
0
 10
185.216
 20
88.4515
 11
184.656
 21
88.7001
  0
LINE
  8
0
 10
184.656
 20
88.7001
 11
184.108
 21
88.976
  0
LINE
  8
0
 10
184.108
 20
88.976
 11
183.574
 21
89.2784
  0
LINE
  8
0
 10
183.574
 20
89.2784
 11
183.055
 21
89.6066
  0
LINE
  8
0
 10
183.055
 20
89.6066
 11
182.554
 21
89.9599
  0
LINE
  8
0
 10
182.554
 20
89.9599
 11
182.07
 21
90.3374
  0
LINE
  8
0
 10
182.07
 20
90.3374
 11
181.605
 21
90.7381
  0
LINE
  8
0
 10
181.605
 20
90.7381
 11
181.161
 21
91.1612
  0
LINE
  8
0
 10
181.161
 20
91.1612
 11
180.738
 21
91.6055
  0
LINE
  8
0
 10
180.738
 20
91.6055
 11
180.337
 21
92.0701
  0
LINE
  8
0
 10
180.337
 20
92.0701
 11
179.96
 21
92.5538
  0
LINE
  8
0
 10
179.96
 20
92.5538
 11
179.607
 21
93.0554
  0
LINE
  8
0
 10
179.607
 20
93.0554
 11
179.278
 21
93.5737
  0
LINE
  8
0
 10
179.278
 20
93.5737
 11
178.976
 21
94.1075
  0
LINE
  8
0
 10
178.976
 20
94.1075
 11
178.7
 21
94.6555
  0
LINE
  8
0
 10
178.7
 20
94.6555
 11
178.451
 21
95.2164
  0
LINE
  8
0
 10
178.451
 20
95.2164
 11
178.231
 21
95.7889
  0
LINE
  8
0
 10
178.231
 20
95.7889
 11
178.038
 21
96.3714
  0
LINE
  8
0
 10
178.038
 20
96.3714
 11
177.875
 21
96.9627
  0
LINE
  8
0
 10
177.875
 20
96.9627
 11
177.74
 21
97.5614
  0
LINE
  8
0
 10
177.74
 20
97.5614
 11
177.635
 21
98.1659
  0
LINE
  8
0
 10
177.635
 20
98.1659
 11
177.56
 21
98.7748
  0
LINE
  8
0
 10
177.56
 20
98.7748
 11
177.515
 21
99.3866
  0
LINE
  8
0
 10
177.515
 20
99.3866
 11
177.5
 21
100
  0
LINE
  8
0
 10
177.5
 20
100
 11
177.515
 21
100.613
  0
LINE
  8
0
 10
177.515
 20
100.613
 11
177.56
 21
101.225
  0
LINE
  8
0
 10
177.56
 20
101.225
 11
177.635
 21
101.834
  0
LINE
  8
0
 10
177.635
 20
101.834
 11
177.74
 21
102.439
  0
LINE
  8
0
 10
177.74
 20
102.439
 11
177.875
 21
103.037
  0
LINE
  8
0
 10
177.875
 20
103.037
 11
178.038
 21
103.629
  0
LINE
  8
0
 10
178.038
 20
103.629
 11
178.231
 21
104.211
  0
LINE
  8
0
 10
178.231
 20
104.211
 11
178.451
 21
104.784
  0
LINE
  8
0
 10
178.451
 20
104.784
 11
178.7
 21
105.344
  0
LINE
  8
0
 10
178.7
 20
105.344
 11
178.976
 21
105.892
  0
LINE
  8
0
 10
178.976
 20
105.892
 11
179.278
 21
106.426
  0
LINE
  8
0
 10
179.278
 20
106.426
 11
179.607
 21
106.945
  0
LINE
  8
0
 10
179.607
 20
106.945
 11
179.96
 21
107.446
  0
LINE
  8
0
 10
179.96
 20
107.446
 11
180.337
 21
107.93
  0
LINE
  8
0
 10
180.337
 20
107.93
 11
180.738
 21
108.394
  0
LINE
  8
0
 10
180.738
 20
108.394
 11
181.161
 21
108.839
  0
LINE
  8
0
 10
181.161
 20
108.839
 11
181.605
 21
109.262
  0
LINE
  8
0
 10
181.605
 20
109.262
 11
182.07
 21
109.663
  0
LINE
  8
0
 10
182.07
 20
109.663
 11
182.554
 21
110.04
  0
LINE
  8
0
 10
182.554
 20
110.04
 11
183.055
 21
110.393
  0
LINE
  8
0
 10
183.055
 20
110.393
 11
183.574
 21
110.722
  0
LINE
  8
0
 10
183.574
 20
110.722
 11
184.108
 21
111.024
  0
LINE
  8
0
 10
184.108
 20
111.024
 11
184.656
 21
111.3
  0
LINE
  8
0
 10
184.656
 20
111.3
 11
185.216
 21
111.548
  0
LINE
  8
0
 10
185.216
 20
111.548
 11
185.789
 21
111.769
  0
LINE
  8
0
 10
185.789
 20
111.769
 11
186.371
 21
111.962
  0
LINE
  8
0
 10
186.371
 20
111.962
 11
186.963
 21
112.125
  0
LINE
  8
0
 10
186.963
 20
112.125
 11
187.561
 21
112.26
  0
LINE
  8
0
 10
187.561
 20
112.26
 11
188.166
 21
112.365
  0
LINE
  8
0
 10
188.166
 20
112.365
 11
188.775
 21
112.44
  0
LINE
  8
0
 10
188.775
 20
112.44
 11
189.387
 21
112.485
  0
LINE
  8
0
 10
189.387
 20
112.485
 11
190
 21
112.5
  0
LINE
  8
0
 10
190
 20
112.5
 11
190.613
 21
112.485
  0
LINE
  8
0
 10
190.613
 20
112.485
 11
191.225
 21
112.44
  0
LINE
  8
0
 10
191.225
 20
112.44
 11
191.834
 21
112.365
  0
LINE
  8
0
 10
191.834
 20
112.365
 11
192.439
 21
112.26
  0
LINE
  8
0
 10
192.439
 20
112.26
 11
193.037
 21
112.125
  0
LINE
  8
0
 10
193.037
 20
112.125
 11
193.629
 21
111.962
  0
LINE
  8
0
 10
193.629
 20
111.962
 11
194.211
 21
111.769
  0
LINE
  8
0
 10
194.211
 20
111.769
 11
194.784
 21
111.548
  0
LINE
  8
0
 10
194.784
 20
111.548
 11
195.344
 21
111.3
  0
LINE
  8
0
 10
195.344
 20
111.3
 11
195.892
 21
111.024
  0
LINE
  8
0
 10
195.892
 20
111.024
 11
196.426
 21
110.722
  0
LINE
  8
0
 10
196.426
 20
110.722
 11
196.945
 21
110.393
  0
LINE
  8
0
 10
196.945
 20
110.393
 11
197.446
 21
110.04
  0
LINE
  8
0
 10
197.446
 20
110.04
 11
197.93
 21
109.663
  0
LINE
  8
0
 10
197.93
 20
109.663
 11
198.394
 21
109.262
  0
LINE
  8
0
 10
198.394
 20
109.262
 11
198.839
 21
108.839
  0
LINE
  8
0
 10
198.839
 20
108.839
 11
199.262
 21
108.394
  0
LINE
  8
0
 10
199.262
 20
108.394
 11
199.663
 21
107.93
  0
LINE
  8
0
 10
199.663
 20
107.93
 11
200.04
 21
107.446
  0
LINE
  8
0
 10
200.04
 20
107.446
 11
200.393
 21
106.945
  0
LINE
  8
0
 10
200.393
 20
106.945
 11
200.722
 21
106.426
  0
LINE
  8
0
 10
200.722
 20
106.426
 11
201.024
 21
105.892
  0
LINE
  8
0
 10
201.024
 20
105.892
 11
201.3
 21
105.344
  0
LINE
  8
0
 10
201.3
 20
105.344
 11
201.548
 21
104.784
  0
LINE
  8
0
 10
201.548
 20
104.784
 11
201.769
 21
104.211
  0
LINE
  8
0
 10
201.769
 20
104.211
 11
201.962
 21
103.629
  0
LINE
  8
0
 10
201.962
 20
103.629
 11
202.125
 21
103.037
  0
LINE
  8
0
 10
202.125
 20
103.037
 11
202.26
 21
102.439
  0
LINE
  8
0
 10
202.26
 20
102.439
 11
202.365
 21
101.834
  0
LINE
  8
0
 10
202.365
 20
101.834
 11
202.44
 21
101.225
  0
LINE
  8
0
 10
202.44
 20
101.225
 11
202.485
 21
100.613
  0
LINE
  8
0
 10
202.485
 20
100.613
 11
202.5
 21
100
  0
LINE
  8
0
 10
202.5
 20
100
 11
202.485
 21
99.3866
  0
LINE
  8
0
 10
202.485
 20
99.3866
 11
202.44
 21
98.7748
  0
LINE
  8
0
 10
202.44
 20
98.7748
 11
202.365
 21
98.1659
  0
LINE
  8
0
 10
202.365
 20
98.1659
 11
202.26
 21
97.5614
  0
LINE
  8
0
 10
202.26
 20
97.5614
 11
202.125
 21
96.9627
  0
LINE
  8
0
 10
202.125
 20
96.9627
 11
201.962
 21
96.3714
  0
LINE
  8
0
 10
201.962
 20
96.3714
 11
201.769
 21
95.7889
  0
LINE
  8
0
 10
201.769
 20
95.7889
 11
201.548
 21
95.2164
  0
LINE
  8
0
 10
201.548
 20
95.2164
 11
201.3
 21
94.6555
  0
LINE
  8
0
 10
201.3
 20
94.6555
 11
201.024
 21
94.1075
  0
LINE
  8
0
 10
201.024
 20
94.1075
 11
200.722
 21
93.5737
  0
LINE
  8
0
 10
200.722
 20
93.5737
 11
200.393
 21
93.0554
  0
LINE
  8
0
 10
200.393
 20
93.0554
 11
200.04
 21
92.5538
  0
LINE
  8
0
 10
200.04
 20
92.5538
 11
199.663
 21
92.0701
  0
LINE
  8
0
 10
199.663
 20
92.0701
 11
199.262
 21
91.6055
  0
LINE
  8
0
 10
199.262
 20
91.6055
 11
198.839
 21
91.1612
  0
LINE
  8
0
 10
198.839
 20
91.1612
 11
198.394
 21
90.7381
  0
LINE
  8
0
 10
198.394
 20
90.7381
 11
197.93
 21
90.3374
  0
LINE
  8
0
 10
197.93
 20
90.3374
 11
197.446
 21
89.9599
  0
LINE
  8
0
 10
197.446
 20
89.9599
 11
196.945
 21
89.6066
  0
LINE
  8
0
 10
196.945
 20
89.6066
 11
196.426
 21
89.2784
  0
LINE
  8
0
 10
196.426
 20
89.2784
 11
195.892
 21
88.976
  0
LINE
  8
0
 10
195.892
 20
88.976
 11
195.344
 21
88.7001
  0
LINE
  8
0
 10
195.344
 20
88.7001
 11
194.784
 21
88.4515
  0
LINE
  8
0
 10
194.784
 20
88.4515
 11
194.211
 21
88.2307
  0
LINE
  8
0
 10
194.211
 20
88.2307
 11
193.629
 21
88.0382
  0
LINE
  8
0
 10
193.629
 20
88.0382
 11
193.037
 21
87.8746
  0
LINE
  8
0
 10
193.037
 20
87.8746
 11
192.439
 21
87.7402
  0
LINE
  8
0
 10
192.439
 20
87.7402
 11
191.834
 21
87.6353
  0
LINE
  8
0
 10
191.834
 20
87.6353
 11
191.225
 21
87.5602
  0
LINE
  8
0
 10
191.225
 20
87.5602
 11
190.613
 21
87.515
  0
LINE
  8
0
 10
190.613
 20
87.515
 11
190
 21
87.5
  0
LINE
  8
0
 10
190
 20
87.5
 11
189.387
 21
87.515
  0
LINE
  8
0
 10
49.3866
 20
87.515
 11
48.7748
 21
87.5602
  0
LINE
  8
0
 10
48.7748
 20
87.5602
 11
48.1659
 21
87.6353
  0
LINE
  8
0
 10
48.1659
 20
87.6353
 11
47.5614
 21
87.7402
  0
LINE
  8
0
 10
47.5614
 20
87.7402
 11
46.9627
 21
87.8746
  0
LINE
  8
0
 10
46.9627
 20
87.8746
 11
46.3714
 21
88.0382
  0
LINE
  8
0
 10
46.3714
 20
88.0382
 11
45.7889
 21
88.2307
  0
LINE
  8
0
 10
45.7889
 20
88.2307
 11
45.2164
 21
88.4515
  0
LINE
  8
0
 10
45.2164
 20
88.4515
 11
44.6555
 21
88.7001
  0
LINE
  8
0
 10
44.6555
 20
88.7001
 11
44.1075
 21
88.976
  0
LINE
  8
0
 10
44.1075
 20
88.976
 11
43.5737
 21
89.2784
  0
LINE
  8
0
 10
43.5737
 20
89.2784
 11
43.0554
 21
89.6066
  0
LINE
  8
0
 10
43.0554
 20
89.6066
 11
42.5538
 21
89.9599
  0
LINE
  8
0
 10
42.5538
 20
89.9599
 11
42.0701
 21
90.3374
  0
LINE
  8
0
 10
42.0701
 20
90.3374
 11
41.6055
 21
90.7381
  0
LINE
  8
0
 10
41.6055
 20
90.7381
 11
41.1612
 21
91.1612
  0
LINE
  8
0
 10
41.1612
 20
91.1612
 11
40.7381
 21
91.6055
  0
LINE
  8
0
 10
40.7381
 20
91.6055
 11
40.3374
 21
92.0701
  0
LINE
  8
0
 10
40.3374
 20
92.0701
 11
39.9599
 21
92.5538
  0
LINE
  8
0
 10
39.9599
 20
92.5538
 11
39.6066
 21
93.0554
  0
LINE
  8
0
 10
39.6066
 20
93.0554
 11
39.2784
 21
93.5737
  0
LINE
  8
0
 10
39.2784
 20
93.5737
 11
38.976
 21
94.1075
  0
LINE
  8
0
 10
38.976
 20
94.1075
 11
38.7001
 21
94.6555
  0
LINE
  8
0
 10
38.7001
 20
94.6555
 11
38.4515
 21
95.2164
  0
LINE
  8
0
 10
38.4515
 20
95.2164
 11
38.2307
 21
95.7889
  0
LINE
  8
0
 10
38.2307
 20
95.7889
 11
38.0382
 21
96.3714
  0
LINE
  8
0
 10
38.0382
 20
96.3714
 11
37.8746
 21
96.9627
  0
LINE
  8
0
 10
37.8746
 20
96.9627
 11
37.7402
 21
97.5614
  0
LINE
  8
0
 10
37.7402
 20
97.5614
 11
37.6353
 21
98.1659
  0
LINE
  8
0
 10
37.6353
 20
98.1659
 11
37.5602
 21
98.7748
  0
LINE
  8
0
 10
37.5602
 20
98.7748
 11
37.515
 21
99.3866
  0
LINE
  8
0
 10
37.515
 20
99.3866
 11
37.5
 21
100
  0
LINE
  8
0
 10
37.5
 20
100
 11
37.515
 21
100.613
  0
LINE
  8
0
 10
37.515
 20
100.613
 11
37.5602
 21
101.225
  0
LINE
  8
0
 10
37.5602
 20
101.225
 11
37.6353
 21
101.834
  0
LINE
  8
0
 10
37.6353
 20
101.834
 11
37.7402
 21
102.439
  0
LINE
  8
0
 10
37.7402
 20
102.439
 11
37.8746
 21
103.037
  0
LINE
  8
0
 10
37.8746
 20
103.037
 11
38.0382
 21
103.629
  0
LINE
  8
0
 10
38.0382
 20
103.629
 11
38.2307
 21
104.211
  0
LINE
  8
0
 10
38.2307
 20
104.211
 11
38.4515
 21
104.784
  0
LINE
  8
0
 10
38.4515
 20
104.784
 11
38.7001
 21
105.344
  0
LINE
  8
0
 10
38.7001
 20
105.344
 11
38.976
 21
105.892
  0
LINE
  8
0
 10
38.976
 20
105.892
 11
39.2784
 21
106.426
  0
LINE
  8
0
 10
39.2784
 20
106.426
 11
39.6066
 21
106.945
  0
LINE
  8
0
 10
39.6066
 20
106.945
 11
39.9599
 21
107.446
  0
LINE
  8
0
 10
39.9599
 20
107.446
 11
40.3374
 21
107.93
  0
LINE
  8
0
 10
40.3374
 20
107.93
 11
40.7381
 21
108.394
  0
LINE
  8
0
 10
40.7381
 20
108.394
 11
41.1612
 21
108.839
  0
LINE
  8
0
 10
41.1612
 20
108.839
 11
41.6055
 21
109.262
  0
LINE
  8
0
 10
41.6055
 20
109.262
 11
42.0701
 21
109.663
  0
LINE
  8
0
 10
42.0701
 20
109.663
 11
42.5538
 21
110.04
  0
LINE
  8
0
 10
42.5538
 20
110.04
 11
43.0554
 21
110.393
  0
LINE
  8
0
 10
43.0554
 20
110.393
 11
43.5737
 21
110.722
  0
LINE
  8
0
 10
43.5737
 20
110.722
 11
44.1075
 21
111.024
  0
LINE
  8
0
 10
44.1075
 20
111.024
 11
44.6555
 21
111.3
  0
LINE
  8
0
 10
44.6555
 20
111.3
 11
45.2164
 21
111.548
  0
LINE
  8
0
 10
45.2164
 20
111.548
 11
45.7889
 21
111.769
  0
LINE
  8
0
 10
45.7889
 20
111.769
 11
46.3714
 21
111.962
  0
LINE
  8
0
 10
46.3714
 20
111.962
 11
46.9627
 21
112.125
  0
LINE
  8
0
 10
46.9627
 20
112.125
 11
47.5614
 21
112.26
  0
LINE
  8
0
 10
47.5614
 20
112.26
 11
48.1659
 21
112.365
  0
LINE
  8
0
 10
48.1659
 20
112.365
 11
48.7748
 21
112.44
  0
LINE
  8
0
 10
48.7748
 20
112.44
 11
49.3866
 21
112.485
  0
LINE
  8
0
 10
49.3866
 20
112.485
 11
50
 21
112.5
  0
LINE
  8
0
 10
50
 20
112.5
 11
50.6133
 21
112.485
  0
LINE
  8
0
 10
50.6133
 20
112.485
 11
51.2252
 21
112.44
  0
LINE
  8
0
 10
51.2252
 20
112.44
 11
51.8341
 21
112.365
  0
LINE
  8
0
 10
51.8341
 20
112.365
 11
52.4386
 21
112.26
  0
LINE
  8
0
 10
52.4386
 20
112.26
 11
53.0372
 21
112.125
  0
LINE
  8
0
 10
53.0372
 20
112.125
 11
53.6286
 21
111.962
  0
LINE
  8
0
 10
53.6286
 20
111.962
 11
54.2111
 21
111.769
  0
LINE
  8
0
 10
54.2111
 20
111.769
 11
54.7835
 21
111.548
  0
LINE
  8
0
 10
54.7835
 20
111.548
 11
55.3444
 21
111.3
  0
LINE
  8
0
 10
55.3444
 20
111.3
 11
55.8925
 21
111.024
  0
LINE
  8
0
 10
55.8925
 20
111.024
 11
56.4263
 21
110.722
  0
LINE
  8
0
 10
56.4263
 20
110.722
 11
56.9446
 21
110.393
  0
LINE
  8
0
 10
56.9446
 20
110.393
 11
57.4462
 21
110.04
  0
LINE
  8
0
 10
57.4462
 20
110.04
 11
57.9299
 21
109.663
  0
LINE
  8
0
 10
57.9299
 20
109.663
 11
58.3945
 21
109.262
  0
LINE
  8
0
 10
58.3945
 20
109.262
 11
58.8388
 21
108.839
  0
LINE
  8
0
 10
58.8388
 20
108.839
 11
59.2619
 21
108.394
  0
LINE
  8
0
 10
59.2619
 20
108.394
 11
59.6626
 21
107.93
  0
LINE
  8
0
 10
59.6626
 20
107.93
 11
60.0401
 21
107.446
  0
LINE
  8
0
 10
60.0401
 20
107.446
 11
60.3934
 21
106.945
  0
LINE
  8
0
 10
60.3934
 20
106.945
 11
60.7216
 21
106.426
  0
LINE
  8
0
 10
60.7216
 20
106.426
 11
61.024
 21
105.892
  0
LINE
  8
0
 10
61.024
 20
105.892
 11
61.2999
 21
105.344
  0
LINE
  8
0
 10
61.2999
 20
105.344
 11
61.5485
 21
104.784
  0
LINE
  8
0
 10
61.5485
 20
104.784
 11
61.7693
 21
104.211
  0
LINE
  8
0
 10
61.7693
 20
104.211
 11
61.9617
 21
103.629
  0
LINE
  8
0
 10
61.9617
 20
103.629
 11
62.1254
 21
103.037
  0
LINE
  8
0
 10
62.1254
 20
103.037
 11
62.2598
 21
102.439
  0
LINE
  8
0
 10
62.2598
 20
102.439
 11
62.3647
 21
101.834
  0
LINE
  8
0
 10
62.3647
 20
101.834
 11
62.4398
 21
101.225
  0
LINE
  8
0
 10
62.4398
 20
101.225
 11
62.4849
 21
100.613
  0
LINE
  8
0
 10
62.4849
 20
100.613
 11
62.5
 21
100
  0
LINE
  8
0
 10
62.5
 20
100
 11
62.4849
 21
99.3866
  0
LINE
  8
0
 10
62.4849
 20
99.3866
 11
62.4398
 21
98.7748
  0
LINE
  8
0
 10
62.4398
 20
98.7748
 11
62.3647
 21
98.1659
  0
LINE
  8
0
 10
62.3647
 20
98.1659
 11
62.2598
 21
97.5614
  0
LINE
  8
0
 10
62.2598
 20
97.5614
 11
62.1254
 21
96.9627
  0
LINE
  8
0
 10
62.1254
 20
96.9627
 11
61.9617
 21
96.3714
  0
LINE
  8
0
 10
61.9617
 20
96.3714
 11
61.7693
 21
95.7889
  0
LINE
  8
0
 10
61.7693
 20
95.7889
 11
61.5485
 21
95.2164
  0
LINE
  8
0
 10
61.5485
 20
95.2164
 11
61.2999
 21
94.6555
  0
LINE
  8
0
 10
61.2999
 20
94.6555
 11
61.024
 21
94.1075
  0
LINE
  8
0
 10
61.024
 20
94.1075
 11
60.7216
 21
93.5737
  0
LINE
  8
0
 10
60.7216
 20
93.5737
 11
60.3934
 21
93.0554
  0
LINE
  8
0
 10
60.3934
 20
93.0554
 11
60.0401
 21
92.5538
  0
LINE
  8
0
 10
60.0401
 20
92.5538
 11
59.6626
 21
92.0701
  0
LINE
  8
0
 10
59.6626
 20
92.0701
 11
59.2619
 21
91.6055
  0
LINE
  8
0
 10
59.2619
 20
91.6055
 11
58.8388
 21
91.1612
  0
LINE
  8
0
 10
58.8388
 20
91.1612
 11
58.3945
 21
90.7381
  0
LINE
  8
0
 10
58.3945
 20
90.7381
 11
57.9299
 21
90.3374
  0
LINE
  8
0
 10
57.9299
 20
90.3374
 11
57.4462
 21
89.9599
  0
LINE
  8
0
 10
57.4462
 20
89.9599
 11
56.9446
 21
89.6066
  0
LINE
  8
0
 10
56.9446
 20
89.6066
 11
56.4263
 21
89.2784
  0
LINE
  8
0
 10
56.4263
 20
89.2784
 11
55.8925
 21
88.976
  0
LINE
  8
0
 10
55.8925
 20
88.976
 11
55.3444
 21
88.7001
  0
LINE
  8
0
 10
55.3444
 20
88.7001
 11
54.7835
 21
88.4515
  0
LINE
  8
0
 10
54.7835
 20
88.4515
 11
54.2111
 21
88.2307
  0
LINE
  8
0
 10
54.2111
 20
88.2307
 11
53.6286
 21
88.0382
  0
LINE
  8
0
 10
53.6286
 20
88.0382
 11
53.0372
 21
87.8746
  0
LINE
  8
0
 10
53.0372
 20
87.8746
 11
52.4386
 21
87.7402
  0
LINE
  8
0
 10
52.4386
 20
87.7402
 11
51.8341
 21
87.6353
  0
LINE
  8
0
 10
51.8341
 20
87.6353
 11
51.2252
 21
87.5602
  0
LINE
  8
0
 10
51.2252
 20
87.5602
 11
50.6133
 21
87.515
  0
LINE
  8
0
 10
50.6133
 20
87.515
 11
50
 21
87.5
  0
LINE
  8
0
 10
50
 20
87.5
 11
49.3866
 21
87.515
  0
LINE
  8
0
 10
200
 20
25
 11
199.426
 21
25.1142
  0
LINE
  8
0
 10
199.426
 20
25.1142
 11
198.939
 21
25.4393
  0
LINE
  8
0
 10
198.939
 20
25.4393
 11
198.614
 21
25.926
  0
LINE
  8
0
 10
198.614
 20
25.926
 11
198.5
 21
26.5
  0
LINE
  8
0
 10
198.5
 20
26.5
 11
198.5
 21
33.5
  0
LINE
  8
0
 10
198.5
 20
33.5
 11
198.614
 21
34.074
  0
LINE
  8
0
 10
198.614
 20
34.074
 11
198.939
 21
34.5607
  0
LINE
  8
0
 10
198.939
 20
34.5607
 11
199.426
 21
34.8858
  0
LINE
  8
0
 10
199.426
 20
34.8858
 11
200
 21
35
  0
LINE
  8
0
 10
200
 20
35
 11
210
 21
35
  0
LINE
  8
0
 10
210
 20
35
 11
210.574
 21
34.8858
  0
LINE
  8
0
 10
210.574
 20
34.8858
 11
211.061
 21
34.5607
  0
LINE
  8
0
 10
211.061
 20
34.5607
 11
211.386
 21
34.074
  0
LINE
  8
0
 10
211.386
 20
34.074
 11
211.5
 21
33.5
  0
LINE
  8
0
 10
211.5
 20
33.5
 11
211.5
 21
26.5
  0
LINE
  8
0
 10
211.5
 20
26.5
 11
211.386
 21
25.926
  0
LINE
  8
0
 10
211.386
 20
25.926
 11
211.061
 21
25.4393
  0
LINE
  8
0
 10
211.061
 20
25.4393
 11
210.574
 21
25.1142
  0
LINE
  8
0
 10
210.574
 20
25.1142
 11
210
 21
25
  0
LINE
  8
0
 10
210
 20
25
 11
200
 21
25
  0
LINE
  8
0
 10
19.8896
 20
5.2527
 11
19.7794
 21
5.26083
  0
LINE
  8
0
 10
19.7794
 20
5.26083
 11
19.6698
 21
5.27434
  0
LINE
  8
0
 10
19.6698
 20
5.27434
 11
19.561
 21
5.29323
  0
LINE
  8
0
 10
19.561
 20
5.29323
 11
19.4533
 21
5.31743
  0
LINE
  8
0
 10
19.4533
 20
5.31743
 11
19.3468
 21
5.34688
  0
LINE
  8
0
 10
19.3468
 20
5.34688
 11
19.242
 21
5.38152
  0
LINE
  8
0
 10
19.242
 20
5.38152
 11
19.139
 21
5.42126
  0
LINE
  8
0
 10
19.139
 20
5.42126
 11
19.038
 21
5.46602
  0
LINE
  8
0
 10
19.038
 20
5.46602
 11
18.9393
 21
5.51567
  0
LINE
  8
0
 10
18.9393
 20
5.51567
 11
18.8433
 21
5.5701
  0
LINE
  8
0
 10
18.8433
 20
5.5701
 11
18.75
 21
5.62918
  0
LINE
  8
0
 10
18.75
 20
5.62918
 11
18.6597
 21
5.69278
  0
LINE
  8
0
 10
18.6597
 20
5.69278
 11
18.5726
 21
5.76071
  0
LINE
  8
0
 10
18.5726
 20
5.76071
 11
18.489
 21
5.83286
  0
LINE
  8
0
 10
18.489
 20
5.83286
 11
18.409
 21
5.909
  0
LINE
  8
0
 10
18.409
 20
5.909
 11
18.3329
 21
5.98898
  0
LINE
  8
0
 10
18.3329
 20
5.98898
 11
18.2607
 21
6.0726
  0
LINE
  8
0
 10
18.2607
 20
6.0726
 11
18.1928
 21
6.15967
  0
LINE
  8
0
 10
18.1928
 20
6.15967
 11
18.1292
 21
6.24995
  0
LINE
  8
0
 10
18.1292
 20
6.24995
 11
18.0701
 21
6.34326
  0
LINE
  8
0
 10
18.0701
 20
6.34326
 11
18.0157
 21
6.43935
  0
LINE
  8
0
 10
18.0157
 20
6.43935
 11
17.966
 21
6.53799
  0
LINE
  8
0
 10
17.966
 20
6.53799
 11
17.9213
 21
6.63896
  0
LINE
  8
0
 10
17.9213
 20
6.63896
 11
17.8815
 21
6.74199
  0
LINE
  8
0
 10
17.8815
 20
6.74199
 11
17.8469
 21
6.84685
  0
LINE
  8
0
 10
17.8469
 20
6.84685
 11
17.8174
 21
6.95329
  0
LINE
  8
0
 10
17.8174
 20
6.95329
 11
17.7932
 21
7.06104
  0
LINE
  8
0
 10
17.7932
 20
7.06104
 11
17.7743
 21
7.16985
  0
LINE
  8
0
 10
17.7743
 20
7.16985
 11
17.7608
 21
7.27945
  0
LINE
  8
0
 10
17.7608
 20
7.27945
 11
17.7527
 21
7.38959
  0
LINE
  8
0
 10
17.7527
 20
7.38959
 11
17.75
 21
7.5
  0
LINE
  8
0
 10
17.75
 20
7.5
 11
17.7527
 21
7.6104
  0
LINE
  8
0
 10
17.7527
 20
7.6104
 11
17.7608
 21
7.72054
  0
LINE
  8
0
 10
17.7608
 20
7.72054
 11
17.7743
 21
7.83014
  0
LINE
  8
0
 10
17.7743
 20
7.83014
 11
17.7932
 21
7.93895
  0
LINE
  8
0
 10
17.7932
 20
7.93895
 11
17.8174
 21
8.04669
  0
LINE
  8
0
 10
17.8174
 20
8.04669
 11
17.8469
 21
8.15314
  0
LINE
  8
0
 10
17.8469
 20
8.15314
 11
17.8815
 21
8.258
  0
LINE
  8
0
 10
17.8815
 20
8.258
 11
17.9213
 21
8.36102
  0
LINE
  8
0
 10
17.9213
 20
8.36102
 11
17.966
 21
8.46199
  0
LINE
  8
0
 10
17.966
 20
8.46199
 11
18.0157
 21
8.56064
  0
LINE
  8
0
 10
18.0157
 20
8.56064
 11
18.0701
 21
8.65672
  0
LINE
  8
0
 10
18.0701
 20
8.65672
 11
18.1292
 21
8.75003
  0
LINE
  8
0
 10
18.1292
 20
8.75003
 11
18.1928
 21
8.84032
  0
LINE
  8
0
 10
18.1928
 20
8.84032
 11
18.2607
 21
8.92738
  0
LINE
  8
0
 10
18.2607
 20
8.92738
 11
18.3329
 21
9.011
  0
LINE
  8
0
 10
18.3329
 20
9.011
 11
18.409
 21
9.09099
  0
LINE
  8
0
 10
18.409
 20
9.09099
 11
18.489
 21
9.16713
  0
LINE
  8
0
 10
18.489
 20
9.16713
 11
18.5726
 21
9.23927
  0
LINE
  8
0
 10
18.5726
 20
9.23927
 11
18.6597
 21
9.30721
  0
LINE
  8
0
 10
18.6597
 20
9.30721
 11
18.75
 21
9.3708
  0
LINE
  8
0
 10
18.75
 20
9.3708
 11
18.8433
 21
9.42989
  0
LINE
  8
0
 10
18.8433
 20
9.42989
 11
18.9393
 21
9.48431
  0
LINE
  8
0
 10
18.9393
 20
9.48431
 11
19.038
 21
9.53397
  0
LINE
  8
0
 10
19.038
 20
9.53397
 11
19.139
 21
9.57872
  0
LINE
  8
0
 10
19.139
 20
9.57872
 11
19.242
 21
9.61847
  0
LINE
  8
0
 10
19.242
 20
9.61847
 11
19.3468
 21
9.65311
  0
LINE
  8
0
 10
19.3468
 20
9.65311
 11
19.4533
 21
9.68256
  0
LINE
  8
0
 10
19.4533
 20
9.68256
 11
19.561
 21
9.70676
  0
LINE
  8
0
 10
19.561
 20
9.70676
 11
19.6698
 21
9.72565
  0
LINE
  8
0
 10
19.6698
 20
9.72565
 11
19.7794
 21
9.73915
  0
LINE
  8
0
 10
19.7794
 20
9.73915
 11
19.8896
 21
9.74728
  0
LINE
  8
0
 10
19.8896
 20
9.74728
 11
20
 21
9.75
  0
LINE
  8
0
 10
20
 20
9.75
 11
20.1104
 21
9.74728
  0
LINE
  8
0
 10
20.1104
 20
9.74728
 11
20.2205
 21
9.73915
  0
LINE
  8
0
 10
20.2205
 20
9.73915
 11
20.3301
 21
9.72565
  0
LINE
  8
0
 10
20.3301
 20
9.72565
 11
20.4389
 21
9.70676
  0
LINE
  8
0
 10
20.4389
 20
9.70676
 11
20.5467
 21
9.68256
  0
LINE
  8
0
 10
20.5467
 20
9.68256
 11
20.6531
 21
9.65311
  0
LINE
  8
0
 10
20.6531
 20
9.65311
 11
20.758
 21
9.61847
  0
LINE
  8
0
 10
20.758
 20
9.61847
 11
20.861
 21
9.57872
  0
LINE
  8
0
 10
20.861
 20
9.57872
 11
20.962
 21
9.53397
  0
LINE
  8
0
 10
20.962
 20
9.53397
 11
21.0606
 21
9.48431
  0
LINE
  8
0
 10
21.0606
 20
9.48431
 11
21.1567
 21
9.42989
  0
LINE
  8
0
 10
21.1567
 20
9.42989
 11
21.25
 21
9.3708
  0
LINE
  8
0
 10
21.25
 20
9.3708
 11
21.3403
 21
9.30721
  0
LINE
  8
0
 10
21.3403
 20
9.30721
 11
21.4274
 21
9.23927
  0
LINE
  8
0
 10
21.4274
 20
9.23927
 11
21.511
 21
9.16713
  0
LINE
  8
0
 10
21.511
 20
9.16713
 11
21.591
 21
9.09099
  0
LINE
  8
0
 10
21.591
 20
9.09099
 11
21.6671
 21
9.011
  0
LINE
  8
0
 10
21.6671
 20
9.011
 11
21.7393
 21
8.92738
  0
LINE
  8
0
 10
21.7393
 20
8.92738
 11
21.8072
 21
8.84032
  0
LINE
  8
0
 10
21.8072
 20
8.84032
 11
21.8708
 21
8.75003
  0
LINE
  8
0
 10
21.8708
 20
8.75003
 11
21.9299
 21
8.65672
  0
LINE
  8
0
 10
21.9299
 20
8.65672
 11
21.9843
 21
8.56064
  0
LINE
  8
0
 10
21.9843
 20
8.56064
 11
22.034
 21
8.46199
  0
LINE
  8
0
 10
22.034
 20
8.46199
 11
22.0787
 21
8.36102
  0
LINE
  8
0
 10
22.0787
 20
8.36102
 11
22.1185
 21
8.258
  0
LINE
  8
0
 10
22.1185
 20
8.258
 11
22.1531
 21
8.15314
  0
LINE
  8
0
 10
22.1531
 20
8.15314
 11
22.1826
 21
8.04669
  0
LINE
  8
0
 10
22.1826
 20
8.04669
 11
22.2068
 21
7.93895
  0
LINE
  8
0
 10
22.2068
 20
7.93895
 11
22.2256
 21
7.83014
  0
LINE
  8
0
 10
22.2256
 20
7.83014
 11
22.2392
 21
7.72054
  0
LINE
  8
0
 10
22.2392
 20
7.72054
 11
22.2473
 21
7.6104
  0
LINE
  8
0
 10
22.2473
 20
7.6104
 11
22.25
 21
7.5
  0
LINE
  8
0
 10
22.25
 20
7.5
 11
22.2473
 21
7.38959
  0
LINE
  8
0
 10
22.2473
 20
7.38959
 11
22.2392
 21
7.27945
  0
LINE
  8
0
 10
22.2392
 20
7.27945
 11
22.2256
 21
7.16985
  0
LINE
  8
0
 10
22.2256
 20
7.16985
 11
22.2068
 21
7.06104
  0
LINE
  8
0
 10
22.2068
 20
7.06104
 11
22.1826
 21
6.95329
  0
LINE
  8
0
 10
22.1826
 20
6.95329
 11
22.1531
 21
6.84685
  0
LINE
  8
0
 10
22.1531
 20
6.84685
 11
22.1185
 21
6.74199
  0
LINE
  8
0
 10
22.1185
 20
6.74199
 11
22.0787
 21
6.63896
  0
LINE
  8
0
 10
22.0787
 20
6.63896
 11
22.034
 21
6.53799
  0
LINE
  8
0
 10
22.034
 20
6.53799
 11
21.9843
 21
6.43935
  0
LINE
  8
0
 10
21.9843
 20
6.43935
 11
21.9299
 21
6.34326
  0
LINE
  8
0
 10
21.9299
 20
6.34326
 11
21.8708
 21
6.24995
  0
LINE
  8
0
 10
21.8708
 20
6.24995
 11
21.8072
 21
6.15967
  0
LINE
  8
0
 10
21.8072
 20
6.15967
 11
21.7393
 21
6.0726
  0
LINE
  8
0
 10
21.7393
 20
6.0726
 11
21.6671
 21
5.98898
  0
LINE
  8
0
 10
21.6671
 20
5.98898
 11
21.591
 21
5.909
  0
LINE
  8
0
 10
21.591
 20
5.909
 11
21.511
 21
5.83286
  0
LINE
  8
0
 10
21.511
 20
5.83286
 11
21.4274
 21
5.76071
  0
LINE
  8
0
 10
21.4274
 20
5.76071
 11
21.3403
 21
5.69278
  0
LINE
  8
0
 10
21.3403
 20
5.69278
 11
21.25
 21
5.62918
  0
LINE
  8
0
 10
21.25
 20
5.62918
 11
21.1567
 21
5.5701
  0
LINE
  8
0
 10
21.1567
 20
5.5701
 11
21.0606
 21
5.51567
  0
LINE
  8
0
 10
21.0606
 20
5.51567
 11
20.962
 21
5.46602
  0
LINE
  8
0
 10
20.962
 20
5.46602
 11
20.861
 21
5.42126
  0
LINE
  8
0
 10
20.861
 20
5.42126
 11
20.758
 21
5.38152
  0
LINE
  8
0
 10
20.758
 20
5.38152
 11
20.6531
 21
5.34688
  0
LINE
  8
0
 10
20.6531
 20
5.34688
 11
20.5467
 21
5.31743
  0
LINE
  8
0
 10
20.5467
 20
5.31743
 11
20.4389
 21
5.29323
  0
LINE
  8
0
 10
20.4389
 20
5.29323
 11
20.3301
 21
5.27434
  0
LINE
  8
0
 10
20.3301
 20
5.27434
 11
20.2205
 21
5.26083
  0
LINE
  8
0
 10
20.2205
 20
5.26083
 11
20.1104
 21
5.2527
  0
LINE
  8
0
 10
20.1104
 20
5.2527
 11
20
 21
5.25
  0
LINE
  8
0
 10
20
 20
5.25
 11
19.8896
 21
5.2527
  0
LINE
  8
0
 10
473
 20
30
 11
473
 21
300
  0
LINE
  8
0
 10
473
 20
300
 11
238
 21
300
  0
LINE
  8
0
 10
238
 20
300
 11
238
 21
0
  0
LINE
  8
0
 10
238
 20
0
 11
433
 21
0
  0
LINE
  8
0
 10
433
 20
0
 11
473
 21
30
  0
LINE
  8
0
 10
452.89
 20
290.253
 11
452.779
 21
290.261
  0
LINE
  8
0
 10
452.779
 20
290.261
 11
452.67
 21
290.274
  0
LINE
  8
0
 10
452.67
 20
290.274
 11
452.561
 21
290.293
  0
LINE
  8
0
 10
452.561
 20
290.293
 11
452.453
 21
290.317
  0
LINE
  8
0
 10
452.453
 20
290.317
 11
452.347
 21
290.347
  0
LINE
  8
0
 10
452.347
 20
290.347
 11
452.242
 21
290.382
  0
LINE
  8
0
 10
452.242
 20
290.382
 11
452.139
 21
290.421
  0
LINE
  8
0
 10
452.139
 20
290.421
 11
452.038
 21
290.466
  0
LINE
  8
0
 10
452.038
 20
290.466
 11
451.939
 21
290.516
  0
LINE
  8
0
 10
451.939
 20
290.516
 11
451.843
 21
290.57
  0
LINE
  8
0
 10
451.843
 20
290.57
 11
451.75
 21
290.629
  0
LINE
  8
0
 10
451.75
 20
290.629
 11
451.66
 21
290.693
  0
LINE
  8
0
 10
451.66
 20
290.693
 11
451.573
 21
290.761
  0
LINE
  8
0
 10
451.573
 20
290.761
 11
451.489
 21
290.833
  0
LINE
  8
0
 10
451.489
 20
290.833
 11
451.409
 21
290.909
  0
LINE
  8
0
 10
451.409
 20
290.909
 11
451.333
 21
290.989
  0
LINE
  8
0
 10
451.333
 20
290.989
 11
451.261
 21
291.073
  0
LINE
  8
0
 10
451.261
 20
291.073
 11
451.193
 21
291.16
  0
LINE
  8
0
 10
451.193
 20
291.16
 11
451.129
 21
291.25
  0
LINE
  8
0
 10
451.129
 20
291.25
 11
451.07
 21
291.343
  0
LINE
  8
0
 10
451.07
 20
291.343
 11
451.016
 21
291.439
  0
LINE
  8
0
 10
451.016
 20
291.439
 11
450.966
 21
291.538
  0
LINE
  8
0
 10
450.966
 20
291.538
 11
450.921
 21
291.639
  0
LINE
  8
0
 10
450.921
 20
291.639
 11
450.882
 21
291.742
  0
LINE
  8
0
 10
450.882
 20
291.742
 11
450.847
 21
291.847
  0
LINE
  8
0
 10
450.847
 20
291.847
 11
450.817
 21
291.953
  0
LINE
  8
0
 10
450.817
 20
291.953
 11
450.793
 21
292.061
  0
LINE
  8
0
 10
450.793
 20
292.061
 11
450.774
 21
292.17
  0
LINE
  8
0
 10
450.774
 20
292.17
 11
450.761
 21
292.279
  0
LINE
  8
0
 10
450.761
 20
292.279
 11
450.753
 21
292.39
  0
LINE
  8
0
 10
450.753
 20
292.39
 11
450.75
 21
292.5
  0
LINE
  8
0
 10
450.75
 20
292.5
 11
450.753
 21
292.61
  0
LINE
  8
0
 10
450.753
 20
292.61
 11
450.761
 21
292.721
  0
LINE
  8
0
 10
450.761
 20
292.721
 11
450.774
 21
292.83
  0
LINE
  8
0
 10
450.774
 20
292.83
 11
450.793
 21
292.939
  0
LINE
  8
0
 10
450.793
 20
292.939
 11
450.817
 21
293.047
  0
LINE
  8
0
 10
450.817
 20
293.047
 11
450.847
 21
293.153
  0
LINE
  8
0
 10
450.847
 20
293.153
 11
450.882
 21
293.258
  0
LINE
  8
0
 10
450.882
 20
293.258
 11
450.921
 21
293.361
  0
LINE
  8
0
 10
450.921
 20
293.361
 11
450.966
 21
293.462
  0
LINE
  8
0
 10
450.966
 20
293.462
 11
451.016
 21
293.561
  0
LINE
  8
0
 10
451.016
 20
293.561
 11
451.07
 21
293.657
  0
LINE
  8
0
 10
451.07
 20
293.657
 11
451.129
 21
293.75
  0
LINE
  8
0
 10
451.129
 20
293.75
 11
451.193
 21
293.84
  0
LINE
  8
0
 10
451.193
 20
293.84
 11
451.261
 21
293.927
  0
LINE
  8
0
 10
451.261
 20
293.927
 11
451.333
 21
294.011
  0
LINE
  8
0
 10
451.333
 20
294.011
 11
451.409
 21
294.091
  0
LINE
  8
0
 10
451.409
 20
294.091
 11
451.489
 21
294.167
  0
LINE
  8
0
 10
451.489
 20
294.167
 11
451.573
 21
294.239
  0
LINE
  8
0
 10
451.573
 20
294.239
 11
451.66
 21
294.307
  0
LINE
  8
0
 10
451.66
 20
294.307
 11
451.75
 21
294.371
  0
LINE
  8
0
 10
451.75
 20
294.371
 11
451.843
 21
294.43
  0
LINE
  8
0
 10
451.843
 20
294.43
 11
451.939
 21
294.484
  0
LINE
  8
0
 10
451.939
 20
294.484
 11
452.038
 21
294.534
  0
LINE
  8
0
 10
452.038
 20
294.534
 11
452.139
 21
294.579
  0
LINE
  8
0
 10
452.139
 20
294.579
 11
452.242
 21
294.618
  0
LINE
  8
0
 10
452.242
 20
294.618
 11
452.347
 21
294.653
  0
LINE
  8
0
 10
452.347
 20
294.653
 11
452.453
 21
294.683
  0
LINE
  8
0
 10
452.453
 20
294.683
 11
452.561
 21
294.707
  0
LINE
  8
0
 10
452.561
 20
294.707
 11
452.67
 21
294.726
  0
LINE
  8
0
 10
452.67
 20
294.726
 11
452.779
 21
294.739
  0
LINE
  8
0
 10
452.779
 20
294.739
 11
452.89
 21
294.747
  0
LINE
  8
0
 10
452.89
 20
294.747
 11
453
 21
294.75
  0
LINE
  8
0
 10
453
 20
294.75
 11
453.11
 21
294.747
  0
LINE
  8
0
 10
453.11
 20
294.747
 11
453.221
 21
294.739
  0
LINE
  8
0
 10
453.221
 20
294.739
 11
453.33
 21
294.726
  0
LINE
  8
0
 10
453.33
 20
294.726
 11
453.439
 21
294.707
  0
LINE
  8
0
 10
453.439
 20
294.707
 11
453.547
 21
294.683
  0
LINE
  8
0
 10
453.547
 20
294.683
 11
453.653
 21
294.653
  0
LINE
  8
0
 10
453.653
 20
294.653
 11
453.758
 21
294.618
  0
LINE
  8
0
 10
453.758
 20
294.618
 11
453.861
 21
294.579
  0
LINE
  8
0
 10
453.861
 20
294.579
 11
453.962
 21
294.534
  0
LINE
  8
0
 10
453.962
 20
294.534
 11
454.061
 21
294.484
  0
LINE
  8
0
 10
454.061
 20
294.484
 11
454.157
 21
294.43
  0
LINE
  8
0
 10
454.157
 20
294.43
 11
454.25
 21
294.371
  0
LINE
  8
0
 10
454.25
 20
294.371
 11
454.34
 21
294.307
  0
LINE
  8
0
 10
454.34
 20
294.307
 11
454.427
 21
294.239
  0
LINE
  8
0
 10
454.427
 20
294.239
 11
454.511
 21
294.167
  0
LINE
  8
0
 10
454.511
 20
294.167
 11
454.591
 21
294.091
  0
LINE
  8
0
 10
454.591
 20
294.091
 11
454.667
 21
294.011
  0
LINE
  8
0
 10
454.667
 20
294.011
 11
454.739
 21
293.927
  0
LINE
  8
0
 10
454.739
 20
293.927
 11
454.807
 21
293.84
  0
LINE
  8
0
 10
454.807
 20
293.84
 11
454.871
 21
293.75
  0
LINE
  8
0
 10
454.871
 20
293.75
 11
454.93
 21
293.657
  0
LINE
  8
0
 10
454.93
 20
293.657
 11
454.984
 21
293.561
  0
LINE
  8
0
 10
454.984
 20
293.561
 11
455.034
 21
293.462
  0
LINE
  8
0
 10
455.034
 20
293.462
 11
455.079
 21
293.361
  0
LINE
  8
0
 10
455.079
 20
293.361
 11
455.118
 21
293.258
  0
LINE
  8
0
 10
455.118
 20
293.258
 11
455.153
 21
293.153
  0
LINE
  8
0
 10
455.153
 20
293.153
 11
455.183
 21
293.047
  0
LINE
  8
0
 10
455.183
 20
293.047
 11
455.207
 21
292.939
  0
LINE
  8
0
 10
455.207
 20
292.939
 11
455.226
 21
292.83
  0
LINE
  8
0
 10
455.226
 20
292.83
 11
455.239
 21
292.721
  0
LINE
  8
0
 10
455.239
 20
292.721
 11
455.247
 21
292.61
  0
LINE
  8
0
 10
455.247
 20
292.61
 11
455.25
 21
292.5
  0
LINE
  8
0
 10
455.25
 20
292.5
 11
455.247
 21
292.39
  0
LINE
  8
0
 10
455.247
 20
292.39
 11
455.239
 21
292.279
  0
LINE
  8
0
 10
455.239
 20
292.279
 11
455.226
 21
292.17
  0
LINE
  8
0
 10
455.226
 20
292.17
 11
455.207
 21
292.061
  0
LINE
  8
0
 10
455.207
 20
292.061
 11
455.183
 21
291.953
  0
LINE
  8
0
 10
455.183
 20
291.953
 11
455.153
 21
291.847
  0
LINE
  8
0
 10
455.153
 20
291.847
 11
455.118
 21
291.742
  0
LINE
  8
0
 10
455.118
 20
291.742
 11
455.079
 21
291.639
  0
LINE
  8
0
 10
455.079
 20
291.639
 11
455.034
 21
291.538
  0
LINE
  8
0
 10
455.034
 20
291.538
 11
454.984
 21
291.439
  0
LINE
  8
0
 10
454.984
 20
291.439
 11
454.93
 21
291.343
  0
LINE
  8
0
 10
454.93
 20
291.343
 11
454.871
 21
291.25
  0
LINE
  8
0
 10
454.871
 20
291.25
 11
454.807
 21
291.16
  0
LINE
  8
0
 10
454.807
 20
291.16
 11
454.739
 21
291.073
  0
LINE
  8
0
 10
454.739
 20
291.073
 11
454.667
 21
290.989
  0
LINE
  8
0
 10
454.667
 20
290.989
 11
454.591
 21
290.909
  0
LINE
  8
0
 10
454.591
 20
290.909
 11
454.511
 21
290.833
  0
LINE
  8
0
 10
454.511
 20
290.833
 11
454.427
 21
290.761
  0
LINE
  8
0
 10
454.427
 20
290.761
 11
454.34
 21
290.693
  0
LINE
  8
0
 10
454.34
 20
290.693
 11
454.25
 21
290.629
  0
LINE
  8
0
 10
454.25
 20
290.629
 11
454.157
 21
290.57
  0
LINE
  8
0
 10
454.157
 20
290.57
 11
454.061
 21
290.516
  0
LINE
  8
0
 10
454.061
 20
290.516
 11
453.962
 21
290.466
  0
LINE
  8
0
 10
453.962
 20
290.466
 11
453.861
 21
290.421
  0
LINE
  8
0
 10
453.861
 20
290.421
 11
453.758
 21
290.382
  0
LINE
  8
0
 10
453.758
 20
290.382
 11
453.653
 21
290.347
  0
LINE
  8
0
 10
453.653
 20
290.347
 11
453.547
 21
290.317
  0
LINE
  8
0
 10
453.547
 20
290.317
 11
453.439
 21
290.293
  0
LINE
  8
0
 10
453.439
 20
290.293
 11
453.33
 21
290.274
  0
LINE
  8
0
 10
453.33
 20
290.274
 11
453.221
 21
290.261
  0
LINE
  8
0
 10
453.221
 20
290.261
 11
453.11
 21
290.253
  0
LINE
  8
0
 10
453.11
 20
290.253
 11
453
 21
290.25
  0
LINE
  8
0
 10
453
 20
290.25
 11
452.89
 21
290.253
  0
LINE
  8
0
 10
272.426
 20
265.114
 11
271.939
 21
265.439
  0
LINE
  8
0
 10
271.939
 20
265.439
 11
271.614
 21
265.926
  0
LINE
  8
0
 10
271.614
 20
265.926
 11
271.5
 21
266.5
  0
LINE
  8
0
 10
271.5
 20
266.5
 11
271.5
 21
273.5
  0
LINE
  8
0
 10
271.5
 20
273.5
 11
271.614
 21
274.074
  0
LINE
  8
0
 10
271.614
 20
274.074
 11
271.939
 21
274.561
  0
LINE
  8
0
 10
271.939
 20
274.561
 11
272.426
 21
274.886
  0
LINE
  8
0
 10
272.426
 20
274.886
 11
273
 21
275
  0
LINE
  8
0
 10
273
 20
275
 11
273.574
 21
274.886
  0
LINE
  8
0
 10
273.574
 20
274.886
 11
274.061
 21
274.561
  0
LINE
  8
0
 10
274.061
 20
274.561
 11
274.386
 21
274.074
  0
LINE
  8
0
 10
274.386
 20
274.074
 11
274.5
 21
273.5
  0
LINE
  8
0
 10
274.5
 20
273.5
 11
274.5
 21
266.5
  0
LINE
  8
0
 10
274.5
 20
266.5
 11
274.386
 21
265.926
  0
LINE
  8
0
 10
274.386
 20
265.926
 11
274.061
 21
265.439
  0
LINE
  8
0
 10
274.061
 20
265.439
 11
273.574
 21
265.114
  0
LINE
  8
0
 10
273.574
 20
265.114
 11
273
 21
265
  0
LINE
  8
0
 10
273
 20
265
 11
272.426
 21
265.114
  0
LINE
  8
0
 10
262.426
 20
265.114
 11
261.939
 21
265.439
  0
LINE
  8
0
 10
261.939
 20
265.439
 11
261.614
 21
265.926
  0
LINE
  8
0
 10
261.614
 20
265.926
 11
261.5
 21
266.5
  0
LINE
  8
0
 10
261.5
 20
266.5
 11
261.5
 21
273.5
  0
LINE
  8
0
 10
261.5
 20
273.5
 11
261.614
 21
274.074
  0
LINE
  8
0
 10
261.614
 20
274.074
 11
261.939
 21
274.561
  0
LINE
  8
0
 10
261.939
 20
274.561
 11
262.426
 21
274.886
  0
LINE
  8
0
 10
262.426
 20
274.886
 11
263
 21
275
  0
LINE
  8
0
 10
263
 20
275
 11
263.574
 21
274.886
  0
LINE
  8
0
 10
263.574
 20
274.886
 11
264.061
 21
274.561
  0
LINE
  8
0
 10
264.061
 20
274.561
 11
264.386
 21
274.074
  0
LINE
  8
0
 10
264.386
 20
274.074
 11
264.5
 21
273.5
  0
LINE
  8
0
 10
264.5
 20
273.5
 11
264.5
 21
266.5
  0
LINE
  8
0
 10
264.5
 20
266.5
 11
264.386
 21
265.926
  0
LINE
  8
0
 10
264.386
 20
265.926
 11
264.061
 21
265.439
  0
LINE
  8
0
 10
264.061
 20
265.439
 11
263.574
 21
265.114
  0
LINE
  8
0
 10
263.574
 20
265.114
 11
263
 21
265
  0
LINE
  8
0
 10
263
 20
265
 11
262.426
 21
265.114
  0
LINE
  8
0
 10
282.897
 20
197.903
 11
282.794
 21
197.91
  0
LINE
  8
0
 10
282.794
 20
197.91
 11
282.692
 21
197.923
  0
LINE
  8
0
 10
282.692
 20
197.923
 11
282.59
 21
197.94
  0
LINE
  8
0
 10
282.59
 20
197.94
 11
282.49
 21
197.963
  0
LINE
  8
0
 10
282.49
 20
197.963
 11
282.39
 21
197.99
  0
LINE
  8
0
 10
282.39
 20
197.99
 11
282.293
 21
198.023
  0
LINE
  8
0
 10
282.293
 20
198.023
 11
282.196
 21
198.06
  0
LINE
  8
0
 10
282.196
 20
198.06
 11
282.102
 21
198.102
  0
LINE
  8
0
 10
282.102
 20
198.102
 11
282.01
 21
198.148
  0
LINE
  8
0
 10
282.01
 20
198.148
 11
281.92
 21
198.199
  0
LINE
  8
0
 10
281.92
 20
198.199
 11
281.833
 21
198.254
  0
LINE
  8
0
 10
281.833
 20
198.254
 11
281.749
 21
198.313
  0
LINE
  8
0
 10
281.749
 20
198.313
 11
281.668
 21
198.377
  0
LINE
  8
0
 10
281.668
 20
198.377
 11
281.59
 21
198.444
  0
LINE
  8
0
 10
281.59
 20
198.444
 11
281.515
 21
198.515
  0
LINE
  8
0
 10
281.515
 20
198.515
 11
281.444
 21
198.59
  0
LINE
  8
0
 10
281.444
 20
198.59
 11
281.377
 21
198.668
  0
LINE
  8
0
 10
281.377
 20
198.668
 11
281.313
 21
198.749
  0
LINE
  8
0
 10
281.313
 20
198.749
 11
281.254
 21
198.833
  0
LINE
  8
0
 10
281.254
 20
198.833
 11
281.199
 21
198.92
  0
LINE
  8
0
 10
281.199
 20
198.92
 11
281.148
 21
199.01
  0
LINE
  8
0
 10
281.148
 20
199.01
 11
281.102
 21
199.102
  0
LINE
  8
0
 10
281.102
 20
199.102
 11
281.06
 21
199.196
  0
LINE
  8
0
 10
281.06
 20
199.196
 11
281.023
 21
199.293
  0
LINE
  8
0
 10
281.023
 20
199.293
 11
280.99
 21
199.39
  0
LINE
  8
0
 10
280.99
 20
199.39
 11
280.963
 21
199.49
  0
LINE
  8
0
 10
280.963
 20
199.49
 11
280.94
 21
199.59
  0
LINE
  8
0
 10
280.94
 20
199.59
 11
280.923
 21
199.692
  0
LINE
  8
0
 10
280.923
 20
199.692
 11
280.91
 21
199.794
  0
LINE
  8
0
 10
280.91
 20
199.794
 11
280.903
 21
199.897
  0
LINE
  8
0
 10
280.903
 20
199.897
 11
280.9
 21
200
  0
LINE
  8
0
 10
280.9
 20
200
 11
280.903
 21
200.103
  0
LINE
  8
0
 10
280.903
 20
200.103
 11
280.91
 21
200.206
  0
LINE
  8
0
 10
280.91
 20
200.206
 11
280.923
 21
200.308
  0
LINE
  8
0
 10
280.923
 20
200.308
 11
280.94
 21
200.41
  0
LINE
  8
0
 10
280.94
 20
200.41
 11
280.963
 21
200.51
  0
LINE
  8
0
 10
280.963
 20
200.51
 11
280.99
 21
200.61
  0
LINE
  8
0
 10
280.99
 20
200.61
 11
281.023
 21
200.707
  0
LINE
  8
0
 10
281.023
 20
200.707
 11
281.06
 21
200.804
  0
LINE
  8
0
 10
281.06
 20
200.804
 11
281.102
 21
200.898
  0
LINE
  8
0
 10
281.102
 20
200.898
 11
281.148
 21
200.99
  0
LINE
  8
0
 10
281.148
 20
200.99
 11
281.199
 21
201.08
  0
LINE
  8
0
 10
281.199
 20
201.08
 11
281.254
 21
201.167
  0
LINE
  8
0
 10
281.254
 20
201.167
 11
281.313
 21
201.251
  0
LINE
  8
0
 10
281.313
 20
201.251
 11
281.377
 21
201.332
  0
LINE
  8
0
 10
281.377
 20
201.332
 11
281.444
 21
201.41
  0
LINE
  8
0
 10
281.444
 20
201.41
 11
281.515
 21
201.485
  0
LINE
  8
0
 10
281.515
 20
201.485
 11
281.59
 21
201.556
  0
LINE
  8
0
 10
281.59
 20
201.556
 11
281.668
 21
201.623
  0
LINE
  8
0
 10
281.668
 20
201.623
 11
281.749
 21
201.687
  0
LINE
  8
0
 10
281.749
 20
201.687
 11
281.833
 21
201.746
  0
LINE
  8
0
 10
281.833
 20
201.746
 11
281.92
 21
201.801
  0
LINE
  8
0
 10
281.92
 20
201.801
 11
282.01
 21
201.852
  0
LINE
  8
0
 10
282.01
 20
201.852
 11
282.102
 21
201.898
  0
LINE
  8
0
 10
282.102
 20
201.898
 11
282.196
 21
201.94
  0
LINE
  8
0
 10
282.196
 20
201.94
 11
282.293
 21
201.977
  0
LINE
  8
0
 10
282.293
 20
201.977
 11
282.39
 21
202.01
  0
LINE
  8
0
 10
282.39
 20
202.01
 11
282.49
 21
202.037
  0
LINE
  8
0
 10
282.49
 20
202.037
 11
282.59
 21
202.06
  0
LINE
  8
0
 10
282.59
 20
202.06
 11
282.692
 21
202.077
  0
LINE
  8
0
 10
282.692
 20
202.077
 11
282.794
 21
202.09
  0
LINE
  8
0
 10
282.794
 20
202.09
 11
282.897
 21
202.097
  0
LINE
  8
0
 10
282.897
 20
202.097
 11
283
 21
202.1
  0
LINE
  8
0
 10
283
 20
202.1
 11
283.103
 21
202.097
  0
LINE
  8
0
 10
283.103
 20
202.097
 11
283.206
 21
202.09
  0
LINE
  8
0
 10
283.206
 20
202.09
 11
283.308
 21
202.077
  0
LINE
  8
0
 10
283.308
 20
202.077
 11
283.41
 21
202.06
  0
LINE
  8
0
 10
283.41
 20
202.06
 11
283.51
 21
202.037
  0
LINE
  8
0
 10
283.51
 20
202.037
 11
283.61
 21
202.01
  0
LINE
  8
0
 10
283.61
 20
202.01
 11
283.707
 21
201.977
  0
LINE
  8
0
 10
283.707
 20
201.977
 11
283.804
 21
201.94
  0
LINE
  8
0
 10
283.804
 20
201.94
 11
283.898
 21
201.898
  0
LINE
  8
0
 10
283.898
 20
201.898
 11
283.99
 21
201.852
  0
LINE
  8
0
 10
283.99
 20
201.852
 11
284.08
 21
201.801
  0
LINE
  8
0
 10
284.08
 20
201.801
 11
284.167
 21
201.746
  0
LINE
  8
0
 10
284.167
 20
201.746
 11
284.251
 21
201.687
  0
LINE
  8
0
 10
284.251
 20
201.687
 11
284.332
 21
201.623
  0
LINE
  8
0
 10
284.332
 20
201.623
 11
284.41
 21
201.556
  0
LINE
  8
0
 10
284.41
 20
201.556
 11
284.485
 21
201.485
  0
LINE
  8
0
 10
284.485
 20
201.485
 11
284.556
 21
201.41
  0
LINE
  8
0
 10
284.556
 20
201.41
 11
284.623
 21
201.332
  0
LINE
  8
0
 10
284.623
 20
201.332
 11
284.687
 21
201.251
  0
LINE
  8
0
 10
284.687
 20
201.251
 11
284.746
 21
201.167
  0
LINE
  8
0
 10
284.746
 20
201.167
 11
284.801
 21
201.08
  0
LINE
  8
0
 10
284.801
 20
201.08
 11
284.852
 21
200.99
  0
LINE
  8
0
 10
284.852
 20
200.99
 11
284.898
 21
200.898
  0
LINE
  8
0
 10
284.898
 20
200.898
 11
284.94
 21
200.804
  0
LINE
  8
0
 10
284.94
 20
200.804
 11
284.977
 21
200.707
  0
LINE
  8
0
 10
284.977
 20
200.707
 11
285.01
 21
200.61
  0
LINE
  8
0
 10
285.01
 20
200.61
 11
285.037
 21
200.51
  0
LINE
  8
0
 10
285.037
 20
200.51
 11
285.06
 21
200.41
  0
LINE
  8
0
 10
285.06
 20
200.41
 11
285.077
 21
200.308
  0
LINE
  8
0
 10
285.077
 20
200.308
 11
285.09
 21
200.206
  0
LINE
  8
0
 10
285.09
 20
200.206
 11
285.097
 21
200.103
  0
LINE
  8
0
 10
285.097
 20
200.103
 11
285.1
 21
200
  0
LINE
  8
0
 10
285.1
 20
200
 11
285.097
 21
199.897
  0
LINE
  8
0
 10
285.097
 20
199.897
 11
285.09
 21
199.794
  0
LINE
  8
0
 10
285.09
 20
199.794
 11
285.077
 21
199.692
  0
LINE
  8
0
 10
285.077
 20
199.692
 11
285.06
 21
199.59
  0
LINE
  8
0
 10
285.06
 20
199.59
 11
285.037
 21
199.49
  0
LINE
  8
0
 10
285.037
 20
199.49
 11
285.01
 21
199.39
  0
LINE
  8
0
 10
285.01
 20
199.39
 11
284.977
 21
199.293
  0
LINE
  8
0
 10
284.977
 20
199.293
 11
284.94
 21
199.196
  0
LINE
  8
0
 10
284.94
 20
199.196
 11
284.898
 21
199.102
  0
LINE
  8
0
 10
284.898
 20
199.102
 11
284.852
 21
199.01
  0
LINE
  8
0
 10
284.852
 20
199.01
 11
284.801
 21
198.92
  0
LINE
  8
0
 10
284.801
 20
198.92
 11
284.746
 21
198.833
  0
LINE
  8
0
 10
284.746
 20
198.833
 11
284.687
 21
198.749
  0
LINE
  8
0
 10
284.687
 20
198.749
 11
284.623
 21
198.668
  0
LINE
  8
0
 10
284.623
 20
198.668
 11
284.556
 21
198.59
  0
LINE
  8
0
 10
284.556
 20
198.59
 11
284.485
 21
198.515
  0
LINE
  8
0
 10
284.485
 20
198.515
 11
284.41
 21
198.444
  0
LINE
  8
0
 10
284.41
 20
198.444
 11
284.332
 21
198.377
  0
LINE
  8
0
 10
284.332
 20
198.377
 11
284.251
 21
198.313
  0
LINE
  8
0
 10
284.251
 20
198.313
 11
284.167
 21
198.254
  0
LINE
  8
0
 10
284.167
 20
198.254
 11
284.08
 21
198.199
  0
LINE
  8
0
 10
284.08
 20
198.199
 11
283.99
 21
198.148
  0
LINE
  8
0
 10
283.99
 20
198.148
 11
283.898
 21
198.102
  0
LINE
  8
0
 10
283.898
 20
198.102
 11
283.804
 21
198.06
  0
LINE
  8
0
 10
283.804
 20
198.06
 11
283.707
 21
198.023
  0
LINE
  8
0
 10
283.707
 20
198.023
 11
283.61
 21
197.99
  0
LINE
  8
0
 10
283.61
 20
197.99
 11
283.51
 21
197.963
  0
LINE
  8
0
 10
283.51
 20
197.963
 11
283.41
 21
197.94
  0
LINE
  8
0
 10
283.41
 20
197.94
 11
283.308
 21
197.923
  0
LINE
  8
0
 10
283.308
 20
197.923
 11
283.206
 21
197.91
  0
LINE
  8
0
 10
283.206
 20
197.91
 11
283.103
 21
197.903
  0
LINE
  8
0
 10
283.103
 20
197.903
 11
283
 21
197.9
  0
LINE
  8
0
 10
283
 20
197.9
 11
282.897
 21
197.903
  0
LINE
  8
0
 10
422.897
 20
197.903
 11
422.794
 21
197.91
  0
LINE
  8
0
 10
422.794
 20
197.91
 11
422.692
 21
197.923
  0
LINE
  8
0
 10
422.692
 20
197.923
 11
422.59
 21
197.94
  0
LINE
  8
0
 10
422.59
 20
197.94
 11
422.49
 21
197.963
  0
LINE
  8
0
 10
422.49
 20
197.963
 11
422.39
 21
197.99
  0
LINE
  8
0
 10
422.39
 20
197.99
 11
422.293
 21
198.023
  0
LINE
  8
0
 10
422.293
 20
198.023
 11
422.196
 21
198.06
  0
LINE
  8
0
 10
422.196
 20
198.06
 11
422.102
 21
198.102
  0
LINE
  8
0
 10
422.102
 20
198.102
 11
422.01
 21
198.148
  0
LINE
  8
0
 10
422.01
 20
198.148
 11
421.92
 21
198.199
  0
LINE
  8
0
 10
421.92
 20
198.199
 11
421.833
 21
198.254
  0
LINE
  8
0
 10
421.833
 20
198.254
 11
421.749
 21
198.313
  0
LINE
  8
0
 10
421.749
 20
198.313
 11
421.668
 21
198.377
  0
LINE
  8
0
 10
421.668
 20
198.377
 11
421.59
 21
198.444
  0
LINE
  8
0
 10
421.59
 20
198.444
 11
421.515
 21
198.515
  0
LINE
  8
0
 10
421.515
 20
198.515
 11
421.444
 21
198.59
  0
LINE
  8
0
 10
421.444
 20
198.59
 11
421.377
 21
198.668
  0
LINE
  8
0
 10
421.377
 20
198.668
 11
421.313
 21
198.749
  0
LINE
  8
0
 10
421.313
 20
198.749
 11
421.254
 21
198.833
  0
LINE
  8
0
 10
421.254
 20
198.833
 11
421.199
 21
198.92
  0
LINE
  8
0
 10
421.199
 20
198.92
 11
421.148
 21
199.01
  0
LINE
  8
0
 10
421.148
 20
199.01
 11
421.102
 21
199.102
  0
LINE
  8
0
 10
421.102
 20
199.102
 11
421.06
 21
199.196
  0
LINE
  8
0
 10
421.06
 20
199.196
 11
421.023
 21
199.293
  0
LINE
  8
0
 10
421.023
 20
199.293
 11
420.99
 21
199.39
  0
LINE
  8
0
 10
420.99
 20
199.39
 11
420.963
 21
199.49
  0
LINE
  8
0
 10
420.963
 20
199.49
 11
420.94
 21
199.59
  0
LINE
  8
0
 10
420.94
 20
199.59
 11
420.923
 21
199.692
  0
LINE
  8
0
 10
420.923
 20
199.692
 11
420.91
 21
199.794
  0
LINE
  8
0
 10
420.91
 20
199.794
 11
420.903
 21
199.897
  0
LINE
  8
0
 10
420.903
 20
199.897
 11
420.9
 21
200
  0
LINE
  8
0
 10
420.9
 20
200
 11
420.903
 21
200.103
  0
LINE
  8
0
 10
420.903
 20
200.103
 11
420.91
 21
200.206
  0
LINE
  8
0
 10
420.91
 20
200.206
 11
420.923
 21
200.308
  0
LINE
  8
0
 10
420.923
 20
200.308
 11
420.94
 21
200.41
  0
LINE
  8
0
 10
420.94
 20
200.41
 11
420.963
 21
200.51
  0
LINE
  8
0
 10
420.963
 20
200.51
 11
420.99
 21
200.61
  0
LINE
  8
0
 10
420.99
 20
200.61
 11
421.023
 21
200.707
  0
LINE
  8
0
 10
421.023
 20
200.707
 11
421.06
 21
200.804
  0
LINE
  8
0
 10
421.06
 20
200.804
 11
421.102
 21
200.898
  0
LINE
  8
0
 10
421.102
 20
200.898
 11
421.148
 21
200.99
  0
LINE
  8
0
 10
421.148
 20
200.99
 11
421.199
 21
201.08
  0
LINE
  8
0
 10
421.199
 20
201.08
 11
421.254
 21
201.167
  0
LINE
  8
0
 10
421.254
 20
201.167
 11
421.313
 21
201.251
  0
LINE
  8
0
 10
421.313
 20
201.251
 11
421.377
 21
201.332
  0
LINE
  8
0
 10
421.377
 20
201.332
 11
421.444
 21
201.41
  0
LINE
  8
0
 10
421.444
 20
201.41
 11
421.515
 21
201.485
  0
LINE
  8
0
 10
421.515
 20
201.485
 11
421.59
 21
201.556
  0
LINE
  8
0
 10
421.59
 20
201.556
 11
421.668
 21
201.623
  0
LINE
  8
0
 10
421.668
 20
201.623
 11
421.749
 21
201.687
  0
LINE
  8
0
 10
421.749
 20
201.687
 11
421.833
 21
201.746
  0
LINE
  8
0
 10
421.833
 20
201.746
 11
421.92
 21
201.801
  0
LINE
  8
0
 10
421.92
 20
201.801
 11
422.01
 21
201.852
  0
LINE
  8
0
 10
422.01
 20
201.852
 11
422.102
 21
201.898
  0
LINE
  8
0
 10
422.102
 20
201.898
 11
422.196
 21
201.94
  0
LINE
  8
0
 10
422.196
 20
201.94
 11
422.293
 21
201.977
  0
LINE
  8
0
 10
422.293
 20
201.977
 11
422.39
 21
202.01
  0
LINE
  8
0
 10
422.39
 20
202.01
 11
422.49
 21
202.037
  0
LINE
  8
0
 10
422.49
 20
202.037
 11
422.59
 21
202.06
  0
LINE
  8
0
 10
422.59
 20
202.06
 11
422.692
 21
202.077
  0
LINE
  8
0
 10
422.692
 20
202.077
 11
422.794
 21
202.09
  0
LINE
  8
0
 10
422.794
 20
202.09
 11
422.897
 21
202.097
  0
LINE
  8
0
 10
422.897
 20
202.097
 11
423
 21
202.1
  0
LINE
  8
0
 10
423
 20
202.1
 11
423.103
 21
202.097
  0
LINE
  8
0
 10
423.103
 20
202.097
 11
423.206
 21
202.09
  0
LINE
  8
0
 10
423.206
 20
202.09
 11
423.308
 21
202.077
  0
LINE
  8
0
 10
423.308
 20
202.077
 11
423.41
 21
202.06
  0
LINE
  8
0
 10
423.41
 20
202.06
 11
423.51
 21
202.037
  0
LINE
  8
0
 10
423.51
 20
202.037
 11
423.61
 21
202.01
  0
LINE
  8
0
 10
423.61
 20
202.01
 11
423.707
 21
201.977
  0
LINE
  8
0
 10
423.707
 20
201.977
 11
423.804
 21
201.94
  0
LINE
  8
0
 10
423.804
 20
201.94
 11
423.898
 21
201.898
  0
LINE
  8
0
 10
423.898
 20
201.898
 11
423.99
 21
201.852
  0
LINE
  8
0
 10
423.99
 20
201.852
 11
424.08
 21
201.801
  0
LINE
  8
0
 10
424.08
 20
201.801
 11
424.167
 21
201.746
  0
LINE
  8
0
 10
424.167
 20
201.746
 11
424.251
 21
201.687
  0
LINE
  8
0
 10
424.251
 20
201.687
 11
424.332
 21
201.623
  0
LINE
  8
0
 10
424.332
 20
201.623
 11
424.41
 21
201.556
  0
LINE
  8
0
 10
424.41
 20
201.556
 11
424.485
 21
201.485
  0
LINE
  8
0
 10
424.485
 20
201.485
 11
424.556
 21
201.41
  0
LINE
  8
0
 10
424.556
 20
201.41
 11
424.623
 21
201.332
  0
LINE
  8
0
 10
424.623
 20
201.332
 11
424.687
 21
201.251
  0
LINE
  8
0
 10
424.687
 20
201.251
 11
424.746
 21
201.167
  0
LINE
  8
0
 10
424.746
 20
201.167
 11
424.801
 21
201.08
  0
LINE
  8
0
 10
424.801
 20
201.08
 11
424.852
 21
200.99
  0
LINE
  8
0
 10
424.852
 20
200.99
 11
424.898
 21
200.898
  0
LINE
  8
0
 10
424.898
 20
200.898
 11
424.94
 21
200.804
  0
LINE
  8
0
 10
424.94
 20
200.804
 11
424.977
 21
200.707
  0
LINE
  8
0
 10
424.977
 20
200.707
 11
425.01
 21
200.61
  0
LINE
  8
0
 10
425.01
 20
200.61
 11
425.037
 21
200.51
  0
LINE
  8
0
 10
425.037
 20
200.51
 11
425.06
 21
200.41
  0
LINE
  8
0
 10
425.06
 20
200.41
 11
425.077
 21
200.308
  0
LINE
  8
0
 10
425.077
 20
200.308
 11
425.09
 21
200.206
  0
LINE
  8
0
 10
425.09
 20
200.206
 11
425.097
 21
200.103
  0
LINE
  8
0
 10
425.097
 20
200.103
 11
425.1
 21
200
  0
LINE
  8
0
 10
425.1
 20
200
 11
425.097
 21
199.897
  0
LINE
  8
0
 10
425.097
 20
199.897
 11
425.09
 21
199.794
  0
LINE
  8
0
 10
425.09
 20
199.794
 11
425.077
 21
199.692
  0
LINE
  8
0
 10
425.077
 20
199.692
 11
425.06
 21
199.59
  0
LINE
  8
0
 10
425.06
 20
199.59
 11
425.037
 21
199.49
  0
LINE
  8
0
 10
425.037
 20
199.49
 11
425.01
 21
199.39
  0
LINE
  8
0
 10
425.01
 20
199.39
 11
424.977
 21
199.293
  0
LINE
  8
0
 10
424.977
 20
199.293
 11
424.94
 21
199.196
  0
LINE
  8
0
 10
424.94
 20
199.196
 11
424.898
 21
199.102
  0
LINE
  8
0
 10
424.898
 20
199.102
 11
424.852
 21
199.01
  0
LINE
  8
0
 10
424.852
 20
199.01
 11
424.801
 21
198.92
  0
LINE
  8
0
 10
424.801
 20
198.92
 11
424.746
 21
198.833
  0
LINE
  8
0
 10
424.746
 20
198.833
 11
424.687
 21
198.749
  0
LINE
  8
0
 10
424.687
 20
198.749
 11
424.623
 21
198.668
  0
LINE
  8
0
 10
424.623
 20
198.668
 11
424.556
 21
198.59
  0
LINE
  8
0
 10
424.556
 20
198.59
 11
424.485
 21
198.515
  0
LINE
  8
0
 10
424.485
 20
198.515
 11
424.41
 21
198.444
  0
LINE
  8
0
 10
424.41
 20
198.444
 11
424.332
 21
198.377
  0
LINE
  8
0
 10
424.332
 20
198.377
 11
424.251
 21
198.313
  0
LINE
  8
0
 10
424.251
 20
198.313
 11
424.167
 21
198.254
  0
LINE
  8
0
 10
424.167
 20
198.254
 11
424.08
 21
198.199
  0
LINE
  8
0
 10
424.08
 20
198.199
 11
423.99
 21
198.148
  0
LINE
  8
0
 10
423.99
 20
198.148
 11
423.898
 21
198.102
  0
LINE
  8
0
 10
423.898
 20
198.102
 11
423.804
 21
198.06
  0
LINE
  8
0
 10
423.804
 20
198.06
 11
423.707
 21
198.023
  0
LINE
  8
0
 10
423.707
 20
198.023
 11
423.61
 21
197.99
  0
LINE
  8
0
 10
423.61
 20
197.99
 11
423.51
 21
197.963
  0
LINE
  8
0
 10
423.51
 20
197.963
 11
423.41
 21
197.94
  0
LINE
  8
0
 10
423.41
 20
197.94
 11
423.308
 21
197.923
  0
LINE
  8
0
 10
423.308
 20
197.923
 11
423.206
 21
197.91
  0
LINE
  8
0
 10
423.206
 20
197.91
 11
423.103
 21
197.903
  0
LINE
  8
0
 10
423.103
 20
197.903
 11
423
 21
197.9
  0
LINE
  8
0
 10
423
 20
197.9
 11
422.897
 21
197.903
  0
LINE
  8
0
 10
282.897
 20
77.9025
 11
282.794
 21
77.9101
  0
LINE
  8
0
 10
282.794
 20
77.9101
 11
282.692
 21
77.9227
  0
LINE
  8
0
 10
282.692
 20
77.9227
 11
282.59
 21
77.9404
  0
LINE
  8
0
 10
282.59
 20
77.9404
 11
282.49
 21
77.9629
  0
LINE
  8
0
 10
282.49
 20
77.9629
 11
282.39
 21
77.9904
  0
LINE
  8
0
 10
282.39
 20
77.9904
 11
282.293
 21
78.0228
  0
LINE
  8
0
 10
282.293
 20
78.0228
 11
282.196
 21
78.0599
  0
LINE
  8
0
 10
282.196
 20
78.0599
 11
282.102
 21
78.1016
  0
LINE
  8
0
 10
282.102
 20
78.1016
 11
282.01
 21
78.148
  0
LINE
  8
0
 10
282.01
 20
78.148
 11
281.92
 21
78.1988
  0
LINE
  8
0
 10
281.92
 20
78.1988
 11
281.833
 21
78.2539
  0
LINE
  8
0
 10
281.833
 20
78.2539
 11
281.749
 21
78.3133
  0
LINE
  8
0
 10
281.749
 20
78.3133
 11
281.668
 21
78.3767
  0
LINE
  8
0
 10
281.668
 20
78.3767
 11
281.59
 21
78.444
  0
LINE
  8
0
 10
281.59
 20
78.444
 11
281.515
 21
78.5151
  0
LINE
  8
0
 10
281.515
 20
78.5151
 11
281.444
 21
78.5897
  0
LINE
  8
0
 10
281.444
 20
78.5897
 11
281.377
 21
78.6678
  0
LINE
  8
0
 10
281.377
 20
78.6678
 11
281.313
 21
78.749
  0
LINE
  8
0
 10
281.313
 20
78.749
 11
281.254
 21
78.8333
  0
LINE
  8
0
 10
281.254
 20
78.8333
 11
281.199
 21
78.9204
  0
LINE
  8
0
 10
281.199
 20
78.9204
 11
281.148
 21
79.0101
  0
LINE
  8
0
 10
281.148
 20
79.0101
 11
281.102
 21
79.1021
  0
LINE
  8
0
 10
281.102
 20
79.1021
 11
281.06
 21
79.1964
  0
LINE
  8
0
 10
281.06
 20
79.1964
 11
281.023
 21
79.2925
  0
LINE
  8
0
 10
281.023
 20
79.2925
 11
280.99
 21
79.3904
  0
LINE
  8
0
 10
280.99
 20
79.3904
 11
280.963
 21
79.4897
  0
LINE
  8
0
 10
280.963
 20
79.4897
 11
280.94
 21
79.5903
  0
LINE
  8
0
 10
280.94
 20
79.5903
 11
280.923
 21
79.6919
  0
LINE
  8
0
 10
280.923
 20
79.6919
 11
280.91
 21
79.7942
  0
LINE
  8
0
 10
280.91
 20
79.7942
 11
280.903
 21
79.897
  0
LINE
  8
0
 10
280.903
 20
79.897
 11
280.9
 21
80
  0
LINE
  8
0
 10
280.9
 20
80
 11
280.903
 21
80.103
  0
LINE
  8
0
 10
280.903
 20
80.103
 11
280.91
 21
80.2058
  0
LINE
  8
0
 10
280.91
 20
80.2058
 11
280.923
 21
80.3081
  0
LINE
  8
0
 10
280.923
 20
80.3081
 11
280.94
 21
80.4097
  0
LINE
  8
0
 10
280.94
 20
80.4097
 11
280.963
 21
80.5103
  0
LINE
  8
0
 10
280.963
 20
80.5103
 11
280.99
 21
80.6096
  0
LINE
  8
0
 10
280.99
 20
80.6096
 11
281.023
 21
80.7075
  0
LINE
  8
0
 10
281.023
 20
80.7075
 11
281.06
 21
80.8036
  0
LINE
  8
0
 10
281.06
 20
80.8036
 11
281.102
 21
80.8979
  0
LINE
  8
0
 10
281.102
 20
80.8979
 11
281.148
 21
80.9899
  0
LINE
  8
0
 10
281.148
 20
80.9899
 11
281.199
 21
81.0796
  0
LINE
  8
0
 10
281.199
 20
81.0796
 11
281.254
 21
81.1667
  0
LINE
  8
0
 10
281.254
 20
81.1667
 11
281.313
 21
81.251
  0
LINE
  8
0
 10
281.313
 20
81.251
 11
281.377
 21
81.3322
  0
LINE
  8
0
 10
281.377
 20
81.3322
 11
281.444
 21
81.4103
  0
LINE
  8
0
 10
281.444
 20
81.4103
 11
281.515
 21
81.4849
  0
LINE
  8
0
 10
281.515
 20
81.4849
 11
281.59
 21
81.556
  0
LINE
  8
0
 10
281.59
 20
81.556
 11
281.668
 21
81.6233
  0
LINE
  8
0
 10
281.668
 20
81.6233
 11
281.749
 21
81.6867
  0
LINE
  8
0
 10
281.749
 20
81.6867
 11
281.833
 21
81.7461
  0
LINE
  8
0
 10
281.833
 20
81.7461
 11
281.92
 21
81.8012
  0
LINE
  8
0
 10
281.92
 20
81.8012
 11
282.01
 21
81.852
  0
LINE
  8
0
 10
282.01
 20
81.852
 11
282.102
 21
81.8984
  0
LINE
  8
0
 10
282.102
 20
81.8984
 11
282.196
 21
81.9402
  0
LINE
  8
0
 10
282.196
 20
81.9402
 11
282.293
 21
81.9772
  0
LINE
  8
0
 10
282.293
 20
81.9772
 11
282.39
 21
82.0096
  0
LINE
  8
0
 10
282.39
 20
82.0096
 11
282.49
 21
82.0371
  0
LINE
  8
0
 10
282.49
 20
82.0371
 11
282.59
 21
82.0597
  0
LINE
  8
0
 10
282.59
 20
82.0597
 11
282.692
 21
82.0773
  0
LINE
  8
0
 10
282.692
 20
82.0773
 11
282.794
 21
82.0899
  0
LINE
  8
0
 10
282.794
 20
82.0899
 11
282.897
 21
82.0975
  0
LINE
  8
0
 10
282.897
 20
82.0975
 11
283
 21
82.1
  0
LINE
  8
0
 10
283
 20
82.1
 11
283.103
 21
82.0975
  0
LINE
  8
0
 10
283.103
 20
82.0975
 11
283.206
 21
82.0899
  0
LINE
  8
0
 10
283.206
 20
82.0899
 11
283.308
 21
82.0773
  0
LINE
  8
0
 10
283.308
 20
82.0773
 11
283.41
 21
82.0597
  0
LINE
  8
0
 10
283.41
 20
82.0597
 11
283.51
 21
82.0371
  0
LINE
  8
0
 10
283.51
 20
82.0371
 11
283.61
 21
82.0096
  0
LINE
  8
0
 10
283.61
 20
82.0096
 11
283.707
 21
81.9772
  0
LINE
  8
0
 10
283.707
 20
81.9772
 11
283.804
 21
81.9402
  0
LINE
  8
0
 10
283.804
 20
81.9402
 11
283.898
 21
81.8984
  0
LINE
  8
0
 10
283.898
 20
81.8984
 11
283.99
 21
81.852
  0
LINE
  8
0
 10
283.99
 20
81.852
 11
284.08
 21
81.8012
  0
LINE
  8
0
 10
284.08
 20
81.8012
 11
284.167
 21
81.7461
  0
LINE
  8
0
 10
284.167
 20
81.7461
 11
284.251
 21
81.6867
  0
LINE
  8
0
 10
284.251
 20
81.6867
 11
284.332
 21
81.6233
  0
LINE
  8
0
 10
284.332
 20
81.6233
 11
284.41
 21
81.556
  0
LINE
  8
0
 10
284.41
 20
81.556
 11
284.485
 21
81.4849
  0
LINE
  8
0
 10
284.485
 20
81.4849
 11
284.556
 21
81.4103
  0
LINE
  8
0
 10
284.556
 20
81.4103
 11
284.623
 21
81.3322
  0
LINE
  8
0
 10
284.623
 20
81.3322
 11
284.687
 21
81.251
  0
LINE
  8
0
 10
284.687
 20
81.251
 11
284.746
 21
81.1667
  0
LINE
  8
0
 10
284.746
 20
81.1667
 11
284.801
 21
81.0796
  0
LINE
  8
0
 10
284.801
 20
81.0796
 11
284.852
 21
80.9899
  0
LINE
  8
0
 10
284.852
 20
80.9899
 11
284.898
 21
80.8979
  0
LINE
  8
0
 10
284.898
 20
80.8979
 11
284.94
 21
80.8036
  0
LINE
  8
0
 10
284.94
 20
80.8036
 11
284.977
 21
80.7075
  0
LINE
  8
0
 10
284.977
 20
80.7075
 11
285.01
 21
80.6096
  0
LINE
  8
0
 10
285.01
 20
80.6096
 11
285.037
 21
80.5103
  0
LINE
  8
0
 10
285.037
 20
80.5103
 11
285.06
 21
80.4097
  0
LINE
  8
0
 10
285.06
 20
80.4097
 11
285.077
 21
80.3081
  0
LINE
  8
0
 10
285.077
 20
80.3081
 11
285.09
 21
80.2058
  0
LINE
  8
0
 10
285.09
 20
80.2058
 11
285.097
 21
80.103
  0
LINE
  8
0
 10
285.097
 20
80.103
 11
285.1
 21
80
  0
LINE
  8
0
 10
285.1
 20
80
 11
285.097
 21
79.897
  0
LINE
  8
0
 10
285.097
 20
79.897
 11
285.09
 21
79.7942
  0
LINE
  8
0
 10
285.09
 20
79.7942
 11
285.077
 21
79.6919
  0
LINE
  8
0
 10
285.077
 20
79.6919
 11
285.06
 21
79.5903
  0
LINE
  8
0
 10
285.06
 20
79.5903
 11
285.037
 21
79.4897
  0
LINE
  8
0
 10
285.037
 20
79.4897
 11
285.01
 21
79.3904
  0
LINE
  8
0
 10
285.01
 20
79.3904
 11
284.977
 21
79.2925
  0
LINE
  8
0
 10
284.977
 20
79.2925
 11
284.94
 21
79.1964
  0
LINE
  8
0
 10
284.94
 20
79.1964
 11
284.898
 21
79.1021
  0
LINE
  8
0
 10
284.898
 20
79.1021
 11
284.852
 21
79.0101
  0
LINE
  8
0
 10
284.852
 20
79.0101
 11
284.801
 21
78.9204
  0
LINE
  8
0
 10
284.801
 20
78.9204
 11
284.746
 21
78.8333
  0
LINE
  8
0
 10
284.746
 20
78.8333
 11
284.687
 21
78.749
  0
LINE
  8
0
 10
284.687
 20
78.749
 11
284.623
 21
78.6678
  0
LINE
  8
0
 10
284.623
 20
78.6678
 11
284.556
 21
78.5897
  0
LINE
  8
0
 10
284.556
 20
78.5897
 11
284.485
 21
78.5151
  0
LINE
  8
0
 10
284.485
 20
78.5151
 11
284.41
 21
78.444
  0
LINE
  8
0
 10
284.41
 20
78.444
 11
284.332
 21
78.3767
  0
LINE
  8
0
 10
284.332
 20
78.3767
 11
284.251
 21
78.3133
  0
LINE
  8
0
 10
284.251
 20
78.3133
 11
284.167
 21
78.2539
  0
LINE
  8
0
 10
284.167
 20
78.2539
 11
284.08
 21
78.1988
  0
LINE
  8
0
 10
284.08
 20
78.1988
 11
283.99
 21
78.148
  0
LINE
  8
0
 10
283.99
 20
78.148
 11
283.898
 21
78.1016
  0
LINE
  8
0
 10
283.898
 20
78.1016
 11
283.804
 21
78.0599
  0
LINE
  8
0
 10
283.804
 20
78.0599
 11
283.707
 21
78.0228
  0
LINE
  8
0
 10
283.707
 20
78.0228
 11
283.61
 21
77.9904
  0
LINE
  8
0
 10
283.61
 20
77.9904
 11
283.51
 21
77.9629
  0
LINE
  8
0
 10
283.51
 20
77.9629
 11
283.41
 21
77.9404
  0
LINE
  8
0
 10
283.41
 20
77.9404
 11
283.308
 21
77.9227
  0
LINE
  8
0
 10
283.308
 20
77.9227
 11
283.206
 21
77.9101
  0
LINE
  8
0
 10
283.206
 20
77.9101
 11
283.103
 21
77.9025
  0
LINE
  8
0
 10
283.103
 20
77.9025
 11
283
 21
77.9
  0
LINE
  8
0
 10
283
 20
77.9
 11
282.897
 21
77.9025
  0
LINE
  8
0
 10
422.897
 20
77.9025
 11
422.794
 21
77.9101
  0
LINE
  8
0
 10
422.794
 20
77.9101
 11
422.692
 21
77.9227
  0
LINE
  8
0
 10
422.692
 20
77.9227
 11
422.59
 21
77.9404
  0
LINE
  8
0
 10
422.59
 20
77.9404
 11
422.49
 21
77.9629
  0
LINE
  8
0
 10
422.49
 20
77.9629
 11
422.39
 21
77.9904
  0
LINE
  8
0
 10
422.39
 20
77.9904
 11
422.293
 21
78.0228
  0
LINE
  8
0
 10
422.293
 20
78.0228
 11
422.196
 21
78.0599
  0
LINE
  8
0
 10
422.196
 20
78.0599
 11
422.102
 21
78.1016
  0
LINE
  8
0
 10
422.102
 20
78.1016
 11
422.01
 21
78.148
  0
LINE
  8
0
 10
422.01
 20
78.148
 11
421.92
 21
78.1988
  0
LINE
  8
0
 10
421.92
 20
78.1988
 11
421.833
 21
78.2539
  0
LINE
  8
0
 10
421.833
 20
78.2539
 11
421.749
 21
78.3133
  0
LINE
  8
0
 10
421.749
 20
78.3133
 11
421.668
 21
78.3767
  0
LINE
  8
0
 10
421.668
 20
78.3767
 11
421.59
 21
78.444
  0
LINE
  8
0
 10
421.59
 20
78.444
 11
421.515
 21
78.5151
  0
LINE
  8
0
 10
421.515
 20
78.5151
 11
421.444
 21
78.5897
  0
LINE
  8
0
 10
421.444
 20
78.5897
 11
421.377
 21
78.6678
  0
LINE
  8
0
 10
421.377
 20
78.6678
 11
421.313
 21
78.749
  0
LINE
  8
0
 10
421.313
 20
78.749
 11
421.254
 21
78.8333
  0
LINE
  8
0
 10
421.254
 20
78.8333
 11
421.199
 21
78.9204
  0
LINE
  8
0
 10
421.199
 20
78.9204
 11
421.148
 21
79.0101
  0
LINE
  8
0
 10
421.148
 20
79.0101
 11
421.102
 21
79.1021
  0
LINE
  8
0
 10
421.102
 20
79.1021
 11
421.06
 21
79.1964
  0
LINE
  8
0
 10
421.06
 20
79.1964
 11
421.023
 21
79.2925
  0
LINE
  8
0
 10
421.023
 20
79.2925
 11
420.99
 21
79.3904
  0
LINE
  8
0
 10
420.99
 20
79.3904
 11
420.963
 21
79.4897
  0
LINE
  8
0
 10
420.963
 20
79.4897
 11
420.94
 21
79.5903
  0
LINE
  8
0
 10
420.94
 20
79.5903
 11
420.923
 21
79.6919
  0
LINE
  8
0
 10
420.923
 20
79.6919
 11
420.91
 21
79.7942
  0
LINE
  8
0
 10
420.91
 20
79.7942
 11
420.903
 21
79.897
  0
LINE
  8
0
 10
420.903
 20
79.897
 11
420.9
 21
80
  0
LINE
  8
0
 10
420.9
 20
80
 11
420.903
 21
80.103
  0
LINE
  8
0
 10
420.903
 20
80.103
 11
420.91
 21
80.2058
  0
LINE
  8
0
 10
420.91
 20
80.2058
 11
420.923
 21
80.3081
  0
LINE
  8
0
 10
420.923
 20
80.3081
 11
420.94
 21
80.4097
  0
LINE
  8
0
 10
420.94
 20
80.4097
 11
420.963
 21
80.5103
  0
LINE
  8
0
 10
420.963
 20
80.5103
 11
420.99
 21
80.6096
  0
LINE
  8
0
 10
420.99
 20
80.6096
 11
421.023
 21
80.7075
  0
LINE
  8
0
 10
421.023
 20
80.7075
 11
421.06
 21
80.8036
  0
LINE
  8
0
 10
421.06
 20
80.8036
 11
421.102
 21
80.8979
  0
LINE
  8
0
 10
421.102
 20
80.8979
 11
421.148
 21
80.9899
  0
LINE
  8
0
 10
421.148
 20
80.9899
 11
421.199
 21
81.0796
  0
LINE
  8
0
 10
421.199
 20
81.0796
 11
421.254
 21
81.1667
  0
LINE
  8
0
 10
421.254
 20
81.1667
 11
421.313
 21
81.251
  0
LINE
  8
0
 10
421.313
 20
81.251
 11
421.377
 21
81.3322
  0
LINE
  8
0
 10
421.377
 20
81.3322
 11
421.444
 21
81.4103
  0
LINE
  8
0
 10
421.444
 20
81.4103
 11
421.515
 21
81.4849
  0
LINE
  8
0
 10
421.515
 20
81.4849
 11
421.59
 21
81.556
  0
LINE
  8
0
 10
421.59
 20
81.556
 11
421.668
 21
81.6233
  0
LINE
  8
0
 10
421.668
 20
81.6233
 11
421.749
 21
81.6867
  0
LINE
  8
0
 10
421.749
 20
81.6867
 11
421.833
 21
81.7461
  0
LINE
  8
0
 10
421.833
 20
81.7461
 11
421.92
 21
81.8012
  0
LINE
  8
0
 10
421.92
 20
81.8012
 11
422.01
 21
81.852
  0
LINE
  8
0
 10
422.01
 20
81.852
 11
422.102
 21
81.8984
  0
LINE
  8
0
 10
422.102
 20
81.8984
 11
422.196
 21
81.9402
  0
LINE
  8
0
 10
422.196
 20
81.9402
 11
422.293
 21
81.9772
  0
LINE
  8
0
 10
422.293
 20
81.9772
 11
422.39
 21
82.0096
  0
LINE
  8
0
 10
422.39
 20
82.0096
 11
422.49
 21
82.0371
  0
LINE
  8
0
 10
422.49
 20
82.0371
 11
422.59
 21
82.0597
  0
LINE
  8
0
 10
422.59
 20
82.0597
 11
422.692
 21
82.0773
  0
LINE
  8
0
 10
422.692
 20
82.0773
 11
422.794
 21
82.0899
  0
LINE
  8
0
 10
422.794
 20
82.0899
 11
422.897
 21
82.0975
  0
LINE
  8
0
 10
422.897
 20
82.0975
 11
423
 21
82.1
  0
LINE
  8
0
 10
423
 20
82.1
 11
423.103
 21
82.0975
  0
LINE
  8
0
 10
423.103
 20
82.0975
 11
423.206
 21
82.0899
  0
LINE
  8
0
 10
423.206
 20
82.0899
 11
423.308
 21
82.0773
  0
LINE
  8
0
 10
423.308
 20
82.0773
 11
423.41
 21
82.0597
  0
LINE
  8
0
 10
423.41
 20
82.0597
 11
423.51
 21
82.0371
  0
LINE
  8
0
 10
423.51
 20
82.0371
 11
423.61
 21
82.0096
  0
LINE
  8
0
 10
423.61
 20
82.0096
 11
423.707
 21
81.9772
  0
LINE
  8
0
 10
423.707
 20
81.9772
 11
423.804
 21
81.9402
  0
LINE
  8
0
 10
423.804
 20
81.9402
 11
423.898
 21
81.8984
  0
LINE
  8
0
 10
423.898
 20
81.8984
 11
423.99
 21
81.852
  0
LINE
  8
0
 10
423.99
 20
81.852
 11
424.08
 21
81.8012
  0
LINE
  8
0
 10
424.08
 20
81.8012
 11
424.167
 21
81.7461
  0
LINE
  8
0
 10
424.167
 20
81.7461
 11
424.251
 21
81.6867
  0
LINE
  8
0
 10
424.251
 20
81.6867
 11
424.332
 21
81.6233
  0
LINE
  8
0
 10
424.332
 20
81.6233
 11
424.41
 21
81.556
  0
LINE
  8
0
 10
424.41
 20
81.556
 11
424.485
 21
81.4849
  0
LINE
  8
0
 10
424.485
 20
81.4849
 11
424.556
 21
81.4103
  0
LINE
  8
0
 10
424.556
 20
81.4103
 11
424.623
 21
81.3322
  0
LINE
  8
0
 10
424.623
 20
81.3322
 11
424.687
 21
81.251
  0
LINE
  8
0
 10
424.687
 20
81.251
 11
424.746
 21
81.1667
  0
LINE
  8
0
 10
424.746
 20
81.1667
 11
424.801
 21
81.0796
  0
LINE
  8
0
 10
424.801
 20
81.0796
 11
424.852
 21
80.9899
  0
LINE
  8
0
 10
424.852
 20
80.9899
 11
424.898
 21
80.8979
  0
LINE
  8
0
 10
424.898
 20
80.8979
 11
424.94
 21
80.8036
  0
LINE
  8
0
 10
424.94
 20
80.8036
 11
424.977
 21
80.7075
  0
LINE
  8
0
 10
424.977
 20
80.7075
 11
425.01
 21
80.6096
  0
LINE
  8
0
 10
425.01
 20
80.6096
 11
425.037
 21
80.5103
  0
LINE
  8
0
 10
425.037
 20
80.5103
 11
425.06
 21
80.4097
  0
LINE
  8
0
 10
425.06
 20
80.4097
 11
425.077
 21
80.3081
  0
LINE
  8
0
 10
425.077
 20
80.3081
 11
425.09
 21
80.2058
  0
LINE
  8
0
 10
425.09
 20
80.2058
 11
425.097
 21
80.103
  0
LINE
  8
0
 10
425.097
 20
80.103
 11
425.1
 21
80
  0
LINE
  8
0
 10
425.1
 20
80
 11
425.097
 21
79.897
  0
LINE
  8
0
 10
425.097
 20
79.897
 11
425.09
 21
79.7942
  0
LINE
  8
0
 10
425.09
 20
79.7942
 11
425.077
 21
79.6919
  0
LINE
  8
0
 10
425.077
 20
79.6919
 11
425.06
 21
79.5903
  0
LINE
  8
0
 10
425.06
 20
79.5903
 11
425.037
 21
79.4897
  0
LINE
  8
0
 10
425.037
 20
79.4897
 11
425.01
 21
79.3904
  0
LINE
  8
0
 10
425.01
 20
79.3904
 11
424.977
 21
79.2925
  0
LINE
  8
0
 10
424.977
 20
79.2925
 11
424.94
 21
79.1964
  0
LINE
  8
0
 10
424.94
 20
79.1964
 11
424.898
 21
79.1021
  0
LINE
  8
0
 10
424.898
 20
79.1021
 11
424.852
 21
79.0101
  0
LINE
  8
0
 10
424.852
 20
79.0101
 11
424.801
 21
78.9204
  0
LINE
  8
0
 10
424.801
 20
78.9204
 11
424.746
 21
78.8333
  0
LINE
  8
0
 10
424.746
 20
78.8333
 11
424.687
 21
78.749
  0
LINE
  8
0
 10
424.687
 20
78.749
 11
424.623
 21
78.6678
  0
LINE
  8
0
 10
424.623
 20
78.6678
 11
424.556
 21
78.5897
  0
LINE
  8
0
 10
424.556
 20
78.5897
 11
424.485
 21
78.5151
  0
LINE
  8
0
 10
424.485
 20
78.5151
 11
424.41
 21
78.444
  0
LINE
  8
0
 10
424.41
 20
78.444
 11
424.332
 21
78.3767
  0
LINE
  8
0
 10
424.332
 20
78.3767
 11
424.251
 21
78.3133
  0
LINE
  8
0
 10
424.251
 20
78.3133
 11
424.167
 21
78.2539
  0
LINE
  8
0
 10
424.167
 20
78.2539
 11
424.08
 21
78.1988
  0
LINE
  8
0
 10
424.08
 20
78.1988
 11
423.99
 21
78.148
  0
LINE
  8
0
 10
423.99
 20
78.148
 11
423.898
 21
78.1016
  0
LINE
  8
0
 10
423.898
 20
78.1016
 11
423.804
 21
78.0599
  0
LINE
  8
0
 10
423.804
 20
78.0599
 11
423.707
 21
78.0228
  0
LINE
  8
0
 10
423.707
 20
78.0228
 11
423.61
 21
77.9904
  0
LINE
  8
0
 10
423.61
 20
77.9904
 11
423.51
 21
77.9629
  0
LINE
  8
0
 10
423.51
 20
77.9629
 11
423.41
 21
77.9404
  0
LINE
  8
0
 10
423.41
 20
77.9404
 11
423.308
 21
77.9227
  0
LINE
  8
0
 10
423.308
 20
77.9227
 11
423.206
 21
77.9101
  0
LINE
  8
0
 10
423.206
 20
77.9101
 11
423.103
 21
77.9025
  0
LINE
  8
0
 10
423.103
 20
77.9025
 11
423
 21
77.9
  0
LINE
  8
0
 10
423
 20
77.9
 11
422.897
 21
77.9025
  0
LINE
  8
0
 10
410.89
 20
5.25272
 11
410.779
 21
5.26085
  0
LINE
  8
0
 10
410.779
 20
5.26085
 11
410.67
 21
5.27435
  0
LINE
  8
0
 10
410.67
 20
5.27435
 11
410.561
 21
5.29324
  0
LINE
  8
0
 10
410.561
 20
5.29324
 11
410.453
 21
5.31744
  0
LINE
  8
0
 10
410.453
 20
5.31744
 11
410.347
 21
5.34689
  0
LINE
  8
0
 10
410.347
 20
5.34689
 11
410.242
 21
5.38153
  0
LINE
  8
0
 10
410.242
 20
5.38153
 11
410.139
 21
5.42128
  0
LINE
  8
0
 10
410.139
 20
5.42128
 11
410.038
 21
5.46603
  0
LINE
  8
0
 10
410.038
 20
5.46603
 11
409.939
 21
5.51569
  0
LINE
  8
0
 10
409.939
 20
5.51569
 11
409.843
 21
5.57011
  0
LINE
  8
0
 10
409.843
 20
5.57011
 11
409.75
 21
5.6292
  0
LINE
  8
0
 10
409.75
 20
5.6292
 11
409.66
 21
5.69279
  0
LINE
  8
0
 10
409.66
 20
5.69279
 11
409.573
 21
5.76073
  0
LINE
  8
0
 10
409.573
 20
5.76073
 11
409.489
 21
5.83287
  0
LINE
  8
0
 10
409.489
 20
5.83287
 11
409.409
 21
5.90901
  0
LINE
  8
0
 10
409.409
 20
5.90901
 11
409.333
 21
5.989
  0
LINE
  8
0
 10
409.333
 20
5.989
 11
409.261
 21
6.07262
  0
LINE
  8
0
 10
409.261
 20
6.07262
 11
409.193
 21
6.15968
  0
LINE
  8
0
 10
409.193
 20
6.15968
 11
409.129
 21
6.24997
  0
LINE
  8
0
 10
409.129
 20
6.24997
 11
409.07
 21
6.34328
  0
LINE
  8
0
 10
409.07
 20
6.34328
 11
409.016
 21
6.43936
  0
LINE
  8
0
 10
409.016
 20
6.43936
 11
408.966
 21
6.53801
  0
LINE
  8
0
 10
408.966
 20
6.53801
 11
408.921
 21
6.63898
  0
LINE
  8
0
 10
408.921
 20
6.63898
 11
408.882
 21
6.742
  0
LINE
  8
0
 10
408.882
 20
6.742
 11
408.847
 21
6.84686
  0
LINE
  8
0
 10
408.847
 20
6.84686
 11
408.817
 21
6.95331
  0
LINE
  8
0
 10
408.817
 20
6.95331
 11
408.793
 21
7.06105
  0
LINE
  8
0
 10
408.793
 20
7.06105
 11
408.774
 21
7.16986
  0
LINE
  8
0
 10
408.774
 20
7.16986
 11
408.761
 21
7.27946
  0
LINE
  8
0
 10
408.761
 20
7.27946
 11
408.753
 21
7.3896
  0
LINE
  8
0
 10
408.753
 20
7.3896
 11
408.75
 21
7.5
  0
LINE
  8
0
 10
408.75
 20
7.5
 11
408.753
 21
7.61041
  0
LINE
  8
0
 10
408.753
 20
7.61041
 11
408.761
 21
7.72055
  0
LINE
  8
0
 10
408.761
 20
7.72055
 11
408.774
 21
7.83015
  0
LINE
  8
0
 10
408.774
 20
7.83015
 11
408.793
 21
7.93896
  0
LINE
  8
0
 10
408.793
 20
7.93896
 11
408.817
 21
8.04671
  0
LINE
  8
0
 10
408.817
 20
8.04671
 11
408.847
 21
8.15315
  0
LINE
  8
0
 10
408.847
 20
8.15315
 11
408.882
 21
8.25801
  0
LINE
  8
0
 10
408.882
 20
8.25801
 11
408.921
 21
8.36104
  0
LINE
  8
0
 10
408.921
 20
8.36104
 11
408.966
 21
8.46201
  0
LINE
  8
0
 10
408.966
 20
8.46201
 11
409.016
 21
8.56065
  0
LINE
  8
0
 10
409.016
 20
8.56065
 11
409.07
 21
8.65674
  0
LINE
  8
0
 10
409.07
 20
8.65674
 11
409.129
 21
8.75005
  0
LINE
  8
0
 10
409.129
 20
8.75005
 11
409.193
 21
8.84033
  0
LINE
  8
0
 10
409.193
 20
8.84033
 11
409.261
 21
8.9274
  0
LINE
  8
0
 10
409.261
 20
8.9274
 11
409.333
 21
9.01102
  0
LINE
  8
0
 10
409.333
 20
9.01102
 11
409.409
 21
9.091
  0
LINE
  8
0
 10
409.409
 20
9.091
 11
409.489
 21
9.16714
  0
LINE
  8
0
 10
409.489
 20
9.16714
 11
409.573
 21
9.23929
  0
LINE
  8
0
 10
409.573
 20
9.23929
 11
409.66
 21
9.30722
  0
LINE
  8
0
 10
409.66
 20
9.30722
 11
409.75
 21
9.37082
  0
LINE
  8
0
 10
409.75
 20
9.37082
 11
409.843
 21
9.4299
  0
LINE
  8
0
 10
409.843
 20
9.4299
 11
409.939
 21
9.48433
  0
LINE
  8
0
 10
409.939
 20
9.48433
 11
410.038
 21
9.53398
  0
LINE
  8
0
 10
410.038
 20
9.53398
 11
410.139
 21
9.57874
  0
LINE
  8
0
 10
410.139
 20
9.57874
 11
410.242
 21
9.61848
  0
LINE
  8
0
 10
410.242
 20
9.61848
 11
410.347
 21
9.65312
  0
LINE
  8
0
 10
410.347
 20
9.65312
 11
410.453
 21
9.68257
  0
LINE
  8
0
 10
410.453
 20
9.68257
 11
410.561
 21
9.70677
  0
LINE
  8
0
 10
410.561
 20
9.70677
 11
410.67
 21
9.72566
  0
LINE
  8
0
 10
410.67
 20
9.72566
 11
410.779
 21
9.73917
  0
LINE
  8
0
 10
410.779
 20
9.73917
 11
410.89
 21
9.7473
  0
LINE
  8
0
 10
410.89
 20
9.7473
 11
411
 21
9.75
  0
LINE
  8
0
 10
411
 20
9.75
 11
411.11
 21
9.7473
  0
LINE
  8
0
 10
411.11
 20
9.7473
 11
411.221
 21
9.73917
  0
LINE
  8
0
 10
411.221
 20
9.73917
 11
411.33
 21
9.72566
  0
LINE
  8
0
 10
411.33
 20
9.72566
 11
411.439
 21
9.70677
  0
LINE
  8
0
 10
411.439
 20
9.70677
 11
411.547
 21
9.68257
  0
LINE
  8
0
 10
411.547
 20
9.68257
 11
411.653
 21
9.65312
  0
LINE
  8
0
 10
411.653
 20
9.65312
 11
411.758
 21
9.61848
  0
LINE
  8
0
 10
411.758
 20
9.61848
 11
411.861
 21
9.57874
  0
LINE
  8
0
 10
411.861
 20
9.57874
 11
411.962
 21
9.53398
  0
LINE
  8
0
 10
411.962
 20
9.53398
 11
412.061
 21
9.48433
  0
LINE
  8
0
 10
412.061
 20
9.48433
 11
412.157
 21
9.4299
  0
LINE
  8
0
 10
412.157
 20
9.4299
 11
412.25
 21
9.37082
  0
LINE
  8
0
 10
412.25
 20
9.37082
 11
412.34
 21
9.30722
  0
LINE
  8
0
 10
412.34
 20
9.30722
 11
412.427
 21
9.23929
  0
LINE
  8
0
 10
412.427
 20
9.23929
 11
412.511
 21
9.16714
  0
LINE
  8
0
 10
412.511
 20
9.16714
 11
412.591
 21
9.091
  0
LINE
  8
0
 10
412.591
 20
9.091
 11
412.667
 21
9.01102
  0
LINE
  8
0
 10
412.667
 20
9.01102
 11
412.739
 21
8.9274
  0
LINE
  8
0
 10
412.739
 20
8.9274
 11
412.807
 21
8.84033
  0
LINE
  8
0
 10
412.807
 20
8.84033
 11
412.871
 21
8.75005
  0
LINE
  8
0
 10
412.871
 20
8.75005
 11
412.93
 21
8.65674
  0
LINE
  8
0
 10
412.93
 20
8.65674
 11
412.984
 21
8.56065
  0
LINE
  8
0
 10
412.984
 20
8.56065
 11
413.034
 21
8.46201
  0
LINE
  8
0
 10
413.034
 20
8.46201
 11
413.079
 21
8.36104
  0
LINE
  8
0
 10
413.079
 20
8.36104
 11
413.118
 21
8.25801
  0
LINE
  8
0
 10
413.118
 20
8.25801
 11
413.153
 21
8.15315
  0
LINE
  8
0
 10
413.153
 20
8.15315
 11
413.183
 21
8.04671
  0
LINE
  8
0
 10
413.183
 20
8.04671
 11
413.207
 21
7.93896
  0
LINE
  8
0
 10
413.207
 20
7.93896
 11
413.226
 21
7.83015
  0
LINE
  8
0
 10
413.226
 20
7.83015
 11
413.239
 21
7.72055
  0
LINE
  8
0
 10
413.239
 20
7.72055
 11
413.247
 21
7.61041
  0
LINE
  8
0
 10
413.247
 20
7.61041
 11
413.25
 21
7.5
  0
LINE
  8
0
 10
413.25
 20
7.5
 11
413.247
 21
7.3896
  0
LINE
  8
0
 10
413.247
 20
7.3896
 11
413.239
 21
7.27946
  0
LINE
  8
0
 10
413.239
 20
7.27946
 11
413.226
 21
7.16986
  0
LINE
  8
0
 10
413.226
 20
7.16986
 11
413.207
 21
7.06105
  0
LINE
  8
0
 10
413.207
 20
7.06105
 11
413.183
 21
6.95331
  0
LINE
  8
0
 10
413.183
 20
6.95331
 11
413.153
 21
6.84686
  0
LINE
  8
0
 10
413.153
 20
6.84686
 11
413.118
 21
6.742
  0
LINE
  8
0
 10
413.118
 20
6.742
 11
413.079
 21
6.63898
  0
LINE
  8
0
 10
413.079
 20
6.63898
 11
413.034
 21
6.53801
  0
LINE
  8
0
 10
413.034
 20
6.53801
 11
412.984
 21
6.43936
  0
LINE
  8
0
 10
412.984
 20
6.43936
 11
412.93
 21
6.34328
  0
LINE
  8
0
 10
412.93
 20
6.34328
 11
412.871
 21
6.24997
  0
LINE
  8
0
 10
412.871
 20
6.24997
 11
412.807
 21
6.15968
  0
LINE
  8
0
 10
412.807
 20
6.15968
 11
412.739
 21
6.07262
  0
LINE
  8
0
 10
412.739
 20
6.07262
 11
412.667
 21
5.989
  0
LINE
  8
0
 10
412.667
 20
5.989
 11
412.591
 21
5.90901
  0
LINE
  8
0
 10
412.591
 20
5.90901
 11
412.511
 21
5.83287
  0
LINE
  8
0
 10
412.511
 20
5.83287
 11
412.427
 21
5.76073
  0
LINE
  8
0
 10
412.427
 20
5.76073
 11
412.34
 21
5.69279
  0
LINE
  8
0
 10
412.34
 20
5.69279
 11
412.25
 21
5.6292
  0
LINE
  8
0
 10
412.25
 20
5.6292
 11
412.157
 21
5.57011
  0
LINE
  8
0
 10
412.157
 20
5.57011
 11
412.061
 21
5.51569
  0
LINE
  8
0
 10
412.061
 20
5.51569
 11
411.962
 21
5.46603
  0
LINE
  8
0
 10
411.962
 20
5.46603
 11
411.861
 21
5.42128
  0
LINE
  8
0
 10
411.861
 20
5.42128
 11
411.758
 21
5.38153
  0
LINE
  8
0
 10
411.758
 20
5.38153
 11
411.653
 21
5.34689
  0
LINE
  8
0
 10
411.653
 20
5.34689
 11
411.547
 21
5.31744
  0
LINE
  8
0
 10
411.547
 20
5.31744
 11
411.439
 21
5.29324
  0
LINE
  8
0
 10
411.439
 20
5.29324
 11
411.33
 21
5.27435
  0
LINE
  8
0
 10
411.33
 20
5.27435
 11
411.221
 21
5.26085
  0
LINE
  8
0
 10
411.221
 20
5.26085
 11
411.11
 21
5.25272
  0
LINE
  8
0
 10
411.11
 20
5.25272
 11
411
 21
5.25
  0
LINE
  8
0
 10
411
 20
5.25
 11
410.89
 21
5.25272
  0
ENDSEC
  0
SECTION
  2
OBJECTS
  0
DICTIONARY
  0
ENDSEC
  0
EOF
