<?xml version="1.0" standalone="no"?>
<!DOCTYPE svg PUBLIC "-//W3C//DTD SVG 1.1//EN" "http://www.w3.org/Graphics/SVG/1.1/DTD/svg11.dtd">
<svg width="235mm" height="325mm" viewBox="0 -325 235 325" xmlns="http://www.w3.org/2000/svg" version="1.1">
<title>OpenSCAD Model</title>
<path d="
M 235,-325 L 40,-325 L 0,-295 L 0,-0 L 235,-0 z
M 61.8896,-302.753 L 61.7794,-302.761 L 61.6698,-302.774 L 61.561,-302.793 L 61.4533,-302.817 L 61.3468,-302.847
 L 61.242,-302.882 L 61.139,-302.921 L 61.038,-302.966 L 60.9393,-303.016 L 60.8433,-303.07 L 60.75,-303.129
 L 60.6597,-303.193 L 60.5726,-303.261 L 60.489,-303.333 L 60.409,-303.409 L 60.3329,-303.489 L 60.2607,-303.573
 L 60.1928,-303.66 L 60.1292,-303.75 L 60.0701,-303.843 L 60.0157,-303.939 L 59.966,-304.038 L 59.9213,-304.139
 L 59.8815,-304.242 L 59.8469,-304.347 L 59.8174,-304.453 L 59.7932,-304.561 L 59.7743,-304.67 L 59.7608,-304.779
 L 59.7527,-304.89 L 59.75,-305 L 59.7527,-305.11 L 59.7608,-305.221 L 59.7743,-305.33 L 59.7932,-305.439
 L 59.8174,-305.547 L 59.8469,-305.653 L 59.8815,-305.758 L 59.9213,-305.861 L 59.966,-305.962 L 60.0157,-306.061
 L 60.0701,-306.157 L 60.1292,-306.25 L 60.1928,-306.34 L 60.2607,-306.427 L 60.3329,-306.511 L 60.409,-306.591
 L 60.489,-306.667 L 60.5726,-306.739 L 60.6597,-306.807 L 60.75,-306.871 L 60.8433,-306.93 L 60.9393,-306.984
 L 61.038,-307.034 L 61.139,-307.079 L 61.242,-307.118 L 61.3468,-307.153 L 61.4533,-307.183 L 61.561,-307.207
 L 61.6698,-307.226 L 61.7794,-307.239 L 61.8896,-307.247 L 62,-307.25 L 62.1104,-307.247 L 62.2205,-307.239
 L 62.3301,-307.226 L 62.4389,-307.207 L 62.5467,-307.183 L 62.6531,-307.153 L 62.758,-307.118 L 62.861,-307.079
 L 62.962,-307.034 L 63.0606,-306.984 L 63.1567,-306.93 L 63.25,-306.871 L 63.3403,-306.807 L 63.4274,-306.739
 L 63.511,-306.667 L 63.591,-306.591 L 63.6671,-306.511 L 63.7393,-306.427 L 63.8072,-306.34 L 63.8708,-306.25
 L 63.9299,-306.157 L 63.9843,-306.061 L 64.034,-305.962 L 64.0787,-305.861 L 64.1185,-305.758 L 64.1531,-305.653
 L 64.1826,-305.547 L 64.2068,-305.439 L 64.2256,-305.33 L 64.2392,-305.221 L 64.2473,-305.11 L 64.25,-305
 L 64.2473,-304.89 L 64.2392,-304.779 L 64.2256,-304.67 L 64.2068,-304.561 L 64.1826,-304.453 L 64.1531,-304.347
 L 64.1185,-304.242 L 64.0787,-304.139 L 64.034,-304.038 L 63.9843,-303.939 L 63.9299,-303.843 L 63.8708,-303.75
 L 63.8072,-303.66 L 63.7393,-303.573 L 63.6671,-303.489 L 63.591,-303.409 L 63.511,-303.333 L 63.4274,-303.261
 L 63.3403,-303.193 L 63.25,-303.129 L 63.1567,-303.07 L 63.0606,-303.016 L 62.962,-302.966 L 62.861,-302.921
 L 62.758,-302.882 L 62.6531,-302.847 L 62.5467,-302.817 L 62.4389,-302.793 L 62.3301,-302.774 L 62.2205,-302.761
 L 62.1104,-302.753 L 62,-302.75 z
M 189.897,-217.903 L 189.794,-217.91 L 189.692,-217.923 L 189.59,-217.94 L 189.49,-217.963 L 189.39,-217.99
 L 189.293,-218.023 L 189.196,-218.06 L 189.102,-218.102 L 189.01,-218.148 L 188.92,-218.199 L 188.833,-218.254
 L 188.749,-218.313 L 188.668,-218.377 L 188.59,-218.444 L 188.515,-218.515 L 188.444,-218.59 L 188.377,-218.668
 L 188.313,-218.749 L 188.254,-218.833 L 188.199,-218.92 L 188.148,-219.01 L 188.102,-219.102 L 188.06,-219.196
 L 188.023,-219.293 L 187.99,-219.39 L 187.963,-219.49 L 187.94,-219.59 L 187.923,-219.692 L 187.91,-219.794
 L 187.903,-219.897 L 187.9,-220 L 187.903,-220.103 L 187.91,-220.206 L 187.923,-220.308 L 187.94,-220.41
 L 187.963,-220.51 L 187.99,-220.61 L 188.023,-220.707 L 188.06,-220.804 L 188.102,-220.898 L 188.148,-220.99
 L 188.199,-221.08 L 188.254,-221.167 L 188.313,-221.251 L 188.377,-221.332 L 188.444,-221.41 L 188.515,-221.485
 L 188.59,-221.556 L 188.668,-221.623 L 188.749,-221.687 L 188.833,-221.746 L 188.92,-221.801 L 189.01,-221.852
 L 189.102,-221.898 L 189.196,-221.94 L 189.293,-221.977 L 189.39,-222.01 L 189.49,-222.037 L 189.59,-222.06
 L 189.692,-222.077 L 189.794,-222.09 L 189.897,-222.097 L 190,-222.1 L 190.103,-222.097 L 190.206,-222.09
 L 190.308,-222.077 L 190.41,-222.06 L 190.51,-222.037 L 190.61,-222.01 L 190.707,-221.977 L 190.804,-221.94
 L 190.898,-221.898 L 190.99,-221.852 L 191.08,-221.801 L 191.167,-221.746 L 191.251,-221.687 L 191.332,-221.623
 L 191.41,-221.556 L 191.485,-221.485 L 191.556,-221.41 L 191.623,-221.332 L 191.687,-221.251 L 191.746,-221.167
 L 191.801,-221.08 L 191.852,-220.99 L 191.898,-220.898 L 191.94,-220.804 L 191.977,-220.707 L 192.01,-220.61
 L 192.037,-220.51 L 192.06,-220.41 L 192.077,-220.308 L 192.09,-220.206 L 192.097,-220.103 L 192.1,-220
 L 192.097,-219.897 L 192.09,-219.794 L 192.077,-219.692 L 192.06,-219.59 L 192.037,-219.49 L 192.01,-219.39
 L 191.977,-219.293 L 191.94,-219.196 L 191.898,-219.102 L 191.852,-219.01 L 191.801,-218.92 L 191.746,-218.833
 L 191.687,-218.749 L 191.623,-218.668 L 191.556,-218.59 L 191.485,-218.515 L 191.41,-218.444 L 191.332,-218.377
 L 191.251,-218.313 L 191.167,-218.254 L 191.08,-218.199 L 190.99,-218.148 L 190.898,-218.102 L 190.804,-218.06
 L 190.707,-218.023 L 190.61,-217.99 L 190.51,-217.963 L 190.41,-217.94 L 190.308,-217.923 L 190.206,-217.91
 L 190.103,-217.903 L 190,-217.9 z
M 49.897,-217.903 L 49.7942,-217.91 L 49.6919,-217.923 L 49.5903,-217.94 L 49.4897,-217.963 L 49.3904,-217.99
 L 49.2925,-218.023 L 49.1964,-218.06 L 49.1021,-218.102 L 49.0101,-218.148 L 48.9204,-218.199 L 48.8333,-218.254
 L 48.749,-218.313 L 48.6678,-218.377 L 48.5897,-218.444 L 48.5151,-218.515 L 48.444,-218.59 L 48.3767,-218.668
 L 48.3133,-218.749 L 48.2539,-218.833 L 48.1988,-218.92 L 48.148,-219.01 L 48.1016,-219.102 L 48.0598,-219.196
 L 48.0228,-219.293 L 47.9904,-219.39 L 47.9629,-219.49 L 47.9403,-219.59 L 47.9227,-219.692 L 47.9101,-219.794
 L 47.9025,-219.897 L 47.9,-220 L 47.9025,-220.103 L 47.9101,-220.206 L 47.9227,-220.308 L 47.9403,-220.41
 L 47.9629,-220.51 L 47.9904,-220.61 L 48.0228,-220.707 L 48.0598,-220.804 L 48.1016,-220.898 L 48.148,-220.99
 L 48.1988,-221.08 L 48.2539,-221.167 L 48.3133,-221.251 L 48.3767,-221.332 L 48.444,-221.41 L 48.5151,-221.485
 L 48.5897,-221.556 L 48.6678,-221.623 L 48.749,-221.687 L 48.8333,-221.746 L 48.9204,-221.801 L 49.0101,-221.852
 L 49.1021,-221.898 L 49.1964,-221.94 L 49.2925,-221.977 L 49.3904,-222.01 L 49.4897,-222.037 L 49.5903,-222.06
 L 49.6919,-222.077 L 49.7942,-222.09 L 49.897,-222.097 L 50,-222.1 L 50.103,-222.097 L 50.2058,-222.09
 L 50.3081,-222.077 L 50.4097,-222.06 L 50.5103,-222.037 L 50.6096,-222.01 L 50.7075,-221.977 L 50.8036,-221.94
 L 50.8979,-221.898 L 50.9899,-221.852 L 51.0796,-221.801 L 51.1667,-221.746 L 51.251,-221.687 L 51.3322,-221.623
 L 51.4103,-221.556 L 51.4849,-221.485 L 51.556,-221.41 L 51.6233,-221.332 L 51.6867,-221.251 L 51.7461,-221.167
 L 51.8012,-221.08 L 51.852,-220.99 L 51.8984,-220.898 L 51.9401,-220.804 L 51.9772,-220.707 L 52.0096,-220.61
 L 52.0371,-220.51 L 52.0596,-220.41 L 52.0773,-220.308 L 52.0899,-220.206 L 52.0975,-220.103 L 52.1,-220
 L 52.0975,-219.897 L 52.0899,-219.794 L 52.0773,-219.692 L 52.0596,-219.59 L 52.0371,-219.49 L 52.0096,-219.39
 L 51.9772,-219.293 L 51.9401,-219.196 L 51.8984,-219.102 L 51.852,-219.01 L 51.8012,-218.92 L 51.7461,-218.833
 L 51.6867,-218.749 L 51.6233,-218.668 L 51.556,-218.59 L 51.4849,-218.515 L 51.4103,-218.444 L 51.3322,-218.377
 L 51.251,-218.313 L 51.1667,-218.254 L 51.0796,-218.199 L 50.9899,-218.148 L 50.8979,-218.102 L 50.8036,-218.06
 L 50.7075,-218.023 L 50.6096,-217.99 L 50.5103,-217.963 L 50.4097,-217.94 L 50.3081,-217.923 L 50.2058,-217.91
 L 50.103,-217.903 L 50,-217.9 z
M 189.897,-97.9025 L 189.794,-97.9101 L 189.692,-97.9227 L 189.59,-97.9403 L 189.49,-97.9629 L 189.39,-97.9904
 L 189.293,-98.0228 L 189.196,-98.0598 L 189.102,-98.1016 L 189.01,-98.148 L 188.92,-98.1988 L 188.833,-98.2539
 L 188.749,-98.3133 L 188.668,-98.3767 L 188.59,-98.444 L 188.515,-98.5151 L 188.444,-98.5897 L 188.377,-98.6678
 L 188.313,-98.749 L 188.254,-98.8333 L 188.199,-98.9204 L 188.148,-99.0101 L 188.102,-99.1021 L 188.06,-99.1964
 L 188.023,-99.2925 L 187.99,-99.3904 L 187.963,-99.4897 L 187.94,-99.5903 L 187.923,-99.6919 L 187.91,-99.7942
 L 187.903,-99.897 L 187.9,-100 L 187.903,-100.103 L 187.91,-100.206 L 187.923,-100.308 L 187.94,-100.41
 L 187.963,-100.51 L 187.99,-100.61 L 188.023,-100.707 L 188.06,-100.804 L 188.102,-100.898 L 188.148,-100.99
 L 188.199,-101.08 L 188.254,-101.167 L 188.313,-101.251 L 188.377,-101.332 L 188.444,-101.41 L 188.515,-101.485
 L 188.59,-101.556 L 188.668,-101.623 L 188.749,-101.687 L 188.833,-101.746 L 188.92,-101.801 L 189.01,-101.852
 L 189.102,-101.898 L 189.196,-101.94 L 189.293,-101.977 L 189.39,-102.01 L 189.49,-102.037 L 189.59,-102.06
 L 189.692,-102.077 L 189.794,-102.09 L 189.897,-102.097 L 190,-102.1 L 190.103,-102.097 L 190.206,-102.09
 L 190.308,-102.077 L 190.41,-102.06 L 190.51,-102.037 L 190.61,-102.01 L 190.707,-101.977 L 190.804,-101.94
 L 190.898,-101.898 L 190.99,-101.852 L 191.08,-101.801 L 191.167,-101.746 L 191.251,-101.687 L 191.332,-101.623
 L 191.41,-101.556 L 191.485,-101.485 L 191.556,-101.41 L 191.623,-101.332 L 191.687,-101.251 L 191.746,-101.167
 L 191.801,-101.08 L 191.852,-100.99 L 191.898,-100.898 L 191.94,-100.804 L 191.977,-100.707 L 192.01,-100.61
 L 192.037,-100.51 L 192.06,-100.41 L 192.077,-100.308 L 192.09,-100.206 L 192.097,-100.103 L 192.1,-100
 L 192.097,-99.897 L 192.09,-99.7942 L 192.077,-99.6919 L 192.06,-99.5903 L 192.037,-99.4897 L 192.01,-99.3904
 L 191.977,-99.2925 L 191.94,-99.1964 L 191.898,-99.1021 L 191.852,-99.0101 L 191.801,-98.9204 L 191.746,-98.8333
 L 191.687,-98.749 L 191.623,-98.6678 L 191.556,-98.5897 L 191.485,-98.5151 L 191.41,-98.444 L 191.332,-98.3767
 L 191.251,-98.3133 L 191.167,-98.2539 L 191.08,-98.1988 L 190.99,-98.148 L 190.898,-98.1016 L 190.804,-98.0598
 L 190.707,-98.0228 L 190.61,-97.9904 L 190.51,-97.9629 L 190.41,-97.9403 L 190.308,-97.9227 L 190.206,-97.9101
 L 190.103,-97.9025 L 190,-97.9 z
M 49.897,-97.9025 L 49.7942,-97.9101 L 49.6919,-97.9227 L 49.5903,-97.9403 L 49.4897,-97.9629 L 49.3904,-97.9904
 L 49.2925,-98.0228 L 49.1964,-98.0598 L 49.1021,-98.1016 L 49.0101,-98.148 L 48.9204,-98.1988 L 48.8333,-98.2539
 L 48.749,-98.3133 L 48.6678,-98.3767 L 48.5897,-98.444 L 48.5151,-98.5151 L 48.444,-98.5897 L 48.3767,-98.6678
 L 48.3133,-98.749 L 48.2539,-98.8333 L 48.1988,-98.9204 L 48.148,-99.0101 L 48.1016,-99.1021 L 48.0598,-99.1964
 L 48.0228,-99.2925 L 47.9904,-99.3904 L 47.9629,-99.4897 L 47.9403,-99.5903 L 47.9227,-99.6919 L 47.9101,-99.7942
 L 47.9025,-99.897 L 47.9,-100 L 47.9025,-100.103 L 47.9101,-100.206 L 47.9227,-100.308 L 47.9403,-100.41
 L 47.9629,-100.51 L 47.9904,-100.61 L 48.0228,-100.707 L 48.0598,-100.804 L 48.1016,-100.898 L 48.148,-100.99
 L 48.1988,-101.08 L 48.2539,-101.167 L 48.3133,-101.251 L 48.3767,-101.332 L 48.444,-101.41 L 48.5151,-101.485
 L 48.5897,-101.556 L 48.6678,-101.623 L 48.749,-101.687 L 48.8333,-101.746 L 48.9204,-101.801 L 49.0101,-101.852
 L 49.1021,-101.898 L 49.1964,-101.94 L 49.2925,-101.977 L 49.3904,-102.01 L 49.4897,-102.037 L 49.5903,-102.06
 L 49.6919,-102.077 L 49.7942,-102.09 L 49.897,-102.097 L 50,-102.1 L 50.103,-102.097 L 50.2058,-102.09
 L 50.3081,-102.077 L 50.4097,-102.06 L 50.5103,-102.037 L 50.6096,-102.01 L 50.7075,-101.977 L 50.8036,-101.94
 L 50.8979,-101.898 L 50.9899,-101.852 L 51.0796,-101.801 L 51.1667,-101.746 L 51.251,-101.687 L 51.3322,-101.623
 L 51.4103,-101.556 L 51.4849,-101.485 L 51.556,-101.41 L 51.6233,-101.332 L 51.6867,-101.251 L 51.7461,-101.167
 L 51.8012,-101.08 L 51.852,-100.99 L 51.8984,-100.898 L 51.9401,-100.804 L 51.9772,-100.707 L 52.0096,-100.61
 L 52.0371,-100.51 L 52.0596,-100.41 L 52.0773,-100.308 L 52.0899,-100.206 L 52.0975,-100.103 L 52.1,-100
 L 52.0975,-99.897 L 52.0899,-99.7942 L 52.0773,-99.6919 L 52.0596,-99.5903 L 52.0371,-99.4897 L 52.0096,-99.3904
 L 51.9772,-99.2925 L 51.9401,-99.1964 L 51.8984,-99.1021 L 51.852,-99.0101 L 51.8012,-98.9204 L 51.7461,-98.8333
 L 51.6867,-98.749 L 51.6233,-98.6678 L 51.556,-98.5897 L 51.4849,-98.5151 L 51.4103,-98.444 L 51.3322,-98.3767
 L 51.251,-98.3133 L 51.1667,-98.2539 L 51.0796,-98.1988 L 50.9899,-98.148 L 50.8979,-98.1016 L 50.8036,-98.0598
 L 50.7075,-98.0228 L 50.6096,-97.9904 L 50.5103,-97.9629 L 50.4097,-97.9403 L 50.3081,-97.9227 L 50.2058,-97.9101
 L 50.103,-97.9025 L 50,-97.9 z
M 198.5,-26.75 L 198.5,-33.25 L 201.5,-33.25 L 201.5,-26.75 z
M 208.5,-26.75 L 208.5,-33.25 L 211.5,-33.25 L 211.5,-26.75 z
M 19.8896,-17.7527 L 19.7794,-17.7608 L 19.6698,-17.7743 L 19.561,-17.7932 L 19.4533,-17.8174 L 19.3468,-17.8469
 L 19.242,-17.8815 L 19.139,-17.9213 L 19.038,-17.966 L 18.9393,-18.0157 L 18.8433,-18.0701 L 18.75,-18.1292
 L 18.6597,-18.1928 L 18.5726,-18.2607 L 18.489,-18.3329 L 18.409,-18.409 L 18.3329,-18.489 L 18.2607,-18.5726
 L 18.1928,-18.6597 L 18.1292,-18.75 L 18.0701,-18.8433 L 18.0157,-18.9393 L 17.966,-19.038 L 17.9213,-19.139
 L 17.8815,-19.242 L 17.8469,-19.3468 L 17.8174,-19.4533 L 17.7932,-19.561 L 17.7743,-19.6698 L 17.7608,-19.7794
 L 17.7527,-19.8896 L 17.75,-20 L 17.7527,-20.1104 L 17.7608,-20.2205 L 17.7743,-20.3301 L 17.7932,-20.4389
 L 17.8174,-20.5467 L 17.8469,-20.6531 L 17.8815,-20.758 L 17.9213,-20.861 L 17.966,-20.962 L 18.0157,-21.0606
 L 18.0701,-21.1567 L 18.1292,-21.25 L 18.1928,-21.3403 L 18.2607,-21.4274 L 18.3329,-21.511 L 18.409,-21.591
 L 18.489,-21.6671 L 18.5726,-21.7393 L 18.6597,-21.8072 L 18.75,-21.8708 L 18.8433,-21.9299 L 18.9393,-21.9843
 L 19.038,-22.034 L 19.139,-22.0787 L 19.242,-22.1185 L 19.3468,-22.1531 L 19.4533,-22.1826 L 19.561,-22.2068
 L 19.6698,-22.2256 L 19.7794,-22.2392 L 19.8896,-22.2473 L 20,-22.25 L 20.1104,-22.2473 L 20.2205,-22.2392
 L 20.3301,-22.2256 L 20.4389,-22.2068 L 20.5467,-22.1826 L 20.6531,-22.1531 L 20.758,-22.1185 L 20.861,-22.0787
 L 20.962,-22.034 L 21.0606,-21.9843 L 21.1567,-21.9299 L 21.25,-21.8708 L 21.3403,-21.8072 L 21.4274,-21.7393
 L 21.511,-21.6671 L 21.591,-21.591 L 21.6671,-21.511 L 21.7393,-21.4274 L 21.8072,-21.3403 L 21.8708,-21.25
 L 21.9299,-21.1567 L 21.9843,-21.0606 L 22.034,-20.962 L 22.0787,-20.861 L 22.1185,-20.758 L 22.1531,-20.6531
 L 22.1826,-20.5467 L 22.2068,-20.4389 L 22.2256,-20.3301 L 22.2392,-20.2205 L 22.2473,-20.1104 L 22.25,-20
 L 22.2473,-19.8896 L 22.2392,-19.7794 L 22.2256,-19.6698 L 22.2068,-19.561 L 22.1826,-19.4533 L 22.1531,-19.3468
 L 22.1185,-19.242 L 22.0787,-19.139 L 22.034,-19.038 L 21.9843,-18.9393 L 21.9299,-18.8433 L 21.8708,-18.75
 L 21.8072,-18.6597 L 21.7393,-18.5726 L 21.6671,-18.489 L 21.591,-18.409 L 21.511,-18.3329 L 21.4274,-18.2607
 L 21.3403,-18.1928 L 21.25,-18.1292 L 21.1567,-18.0701 L 21.0606,-18.0157 L 20.962,-17.966 L 20.861,-17.9213
 L 20.758,-17.8815 L 20.6531,-17.8469 L 20.5467,-17.8174 L 20.4389,-17.7932 L 20.3301,-17.7743 L 20.2205,-17.7608
 L 20.1104,-17.7527 L 20,-17.75 z
" stroke="black" fill="lightgray" stroke-width="0.5"/></svg>
