<?xml version="1.0" standalone="no"?>
<!DOCTYPE svg PUBLIC "-//W3C//DTD SVG 1.1//EN" "http://www.w3.org/Graphics/SVG/1.1/DTD/svg11.dtd">
<svg width="235mm" height="300mm" viewBox="0 -300 235 300" xmlns="http://www.w3.org/2000/svg" version="1.1">
<title>OpenSCAD Model</title>
<path d="
M 235,-300 L 40,-300 L 0,-270 L 0,-0 L 235,-0 z
M 61.8896,-290.253 L 61.7794,-290.261 L 61.6698,-290.274 L 61.561,-290.293 L 61.4533,-290.317 L 61.3468,-290.347
 L 61.242,-290.382 L 61.139,-290.421 L 61.038,-290.466 L 60.9393,-290.516 L 60.8433,-290.57 L 60.75,-290.629
 L 60.6597,-290.693 L 60.5726,-290.761 L 60.489,-290.833 L 60.409,-290.909 L 60.3329,-290.989 L 60.2607,-291.073
 L 60.1928,-291.16 L 60.1292,-291.25 L 60.0701,-291.343 L 60.0157,-291.439 L 59.966,-291.538 L 59.9213,-291.639
 L 59.8815,-291.742 L 59.8469,-291.847 L 59.8174,-291.953 L 59.7932,-292.061 L 59.7743,-292.17 L 59.7608,-292.279
 L 59.7527,-292.39 L 59.75,-292.5 L 59.7527,-292.61 L 59.7608,-292.721 L 59.7743,-292.83 L 59.7932,-292.939
 L 59.8174,-293.047 L 59.8469,-293.153 L 59.8815,-293.258 L 59.9213,-293.361 L 59.966,-293.462 L 60.0157,-293.561
 L 60.0701,-293.657 L 60.1292,-293.75 L 60.1928,-293.84 L 60.2607,-293.927 L 60.3329,-294.011 L 60.409,-294.091
 L 60.489,-294.167 L 60.5726,-294.239 L 60.6597,-294.307 L 60.75,-294.371 L 60.8433,-294.43 L 60.9393,-294.484
 L 61.038,-294.534 L 61.139,-294.579 L 61.242,-294.618 L 61.3468,-294.653 L 61.4533,-294.683 L 61.561,-294.707
 L 61.6698,-294.726 L 61.7794,-294.739 L 61.8896,-294.747 L 62,-294.75 L 62.1104,-294.747 L 62.2205,-294.739
 L 62.3301,-294.726 L 62.4389,-294.707 L 62.5467,-294.683 L 62.6531,-294.653 L 62.758,-294.618 L 62.861,-294.579
 L 62.962,-294.534 L 63.0606,-294.484 L 63.1567,-294.43 L 63.25,-294.371 L 63.3403,-294.307 L 63.4274,-294.239
 L 63.511,-294.167 L 63.591,-294.091 L 63.6671,-294.011 L 63.7393,-293.927 L 63.8072,-293.84 L 63.8708,-293.75
 L 63.9299,-293.657 L 63.9843,-293.561 L 64.034,-293.462 L 64.0787,-293.361 L 64.1185,-293.258 L 64.1531,-293.153
 L 64.1826,-293.047 L 64.2068,-292.939 L 64.2256,-292.83 L 64.2392,-292.721 L 64.2473,-292.61 L 64.25,-292.5
 L 64.2473,-292.39 L 64.2392,-292.279 L 64.2256,-292.17 L 64.2068,-292.061 L 64.1826,-291.953 L 64.1531,-291.847
 L 64.1185,-291.742 L 64.0787,-291.639 L 64.034,-291.538 L 63.9843,-291.439 L 63.9299,-291.343 L 63.8708,-291.25
 L 63.8072,-291.16 L 63.7393,-291.073 L 63.6671,-290.989 L 63.591,-290.909 L 63.511,-290.833 L 63.4274,-290.761
 L 63.3403,-290.693 L 63.25,-290.629 L 63.1567,-290.57 L 63.0606,-290.516 L 62.962,-290.466 L 62.861,-290.421
 L 62.758,-290.382 L 62.6531,-290.347 L 62.5467,-290.317 L 62.4389,-290.293 L 62.3301,-290.274 L 62.2205,-290.261
 L 62.1104,-290.253 L 62,-290.25 z
M 189.897,-217.903 L 189.794,-217.91 L 189.692,-217.923 L 189.59,-217.94 L 189.49,-217.963 L 189.39,-217.99
 L 189.293,-218.023 L 189.196,-218.06 L 189.102,-218.102 L 189.01,-218.148 L 188.92,-218.199 L 188.833,-218.254
 L 188.749,-218.313 L 188.668,-218.377 L 188.59,-218.444 L 188.515,-218.515 L 188.444,-218.59 L 188.377,-218.668
 L 188.313,-218.749 L 188.254,-218.833 L 188.199,-218.92 L 188.148,-219.01 L 188.102,-219.102 L 188.06,-219.196
 L 188.023,-219.293 L 187.99,-219.39 L 187.963,-219.49 L 187.94,-219.59 L 187.923,-219.692 L 187.91,-219.794
 L 187.903,-219.897 L 187.9,-220 L 187.903,-220.103 L 187.91,-220.206 L 187.923,-220.308 L 187.94,-220.41
 L 187.963,-220.51 L 187.99,-220.61 L 188.023,-220.707 L 188.06,-220.804 L 188.102,-220.898 L 188.148,-220.99
 L 188.199,-221.08 L 188.254,-221.167 L 188.313,-221.251 L 188.377,-221.332 L 188.444,-221.41 L 188.515,-221.485
 L 188.59,-221.556 L 188.668,-221.623 L 188.749,-221.687 L 188.833,-221.746 L 188.92,-221.801 L 189.01,-221.852
 L 189.102,-221.898 L 189.196,-221.94 L 189.293,-221.977 L 189.39,-222.01 L 189.49,-222.037 L 189.59,-222.06
 L 189.692,-222.077 L 189.794,-222.09 L 189.897,-222.097 L 190,-222.1 L 190.103,-222.097 L 190.206,-222.09
 L 190.308,-222.077 L 190.41,-222.06 L 190.51,-222.037 L 190.61,-222.01 L 190.707,-221.977 L 190.804,-221.94
 L 190.898,-221.898 L 190.99,-221.852 L 191.08,-221.801 L 191.167,-221.746 L 191.251,-221.687 L 191.332,-221.623
 L 191.41,-221.556 L 191.485,-221.485 L 191.556,-221.41 L 191.623,-221.332 L 191.687,-221.251 L 191.746,-221.167
 L 191.801,-221.08 L 191.852,-220.99 L 191.898,-220.898 L 191.94,-220.804 L 191.977,-220.707 L 192.01,-220.61
 L 192.037,-220.51 L 192.06,-220.41 L 192.077,-220.308 L 192.09,-220.206 L 192.097,-220.103 L 192.1,-220
 L 192.097,-219.897 L 192.09,-219.794 L 192.077,-219.692 L 192.06,-219.59 L 192.037,-219.49 L 192.01,-219.39
 L 191.977,-219.293 L 191.94,-219.196 L 191.898,-219.102 L 191.852,-219.01 L 191.801,-218.92 L 191.746,-218.833
 L 191.687,-218.749 L 191.623,-218.668 L 191.556,-218.59 L 191.485,-218.515 L 191.41,-218.444 L 191.332,-218.377
 L 191.251,-218.313 L 191.167,-218.254 L 191.08,-218.199 L 190.99,-218.148 L 190.898,-218.102 L 190.804,-218.06
 L 190.707,-218.023 L 190.61,-217.99 L 190.51,-217.963 L 190.41,-217.94 L 190.308,-217.923 L 190.206,-217.91
 L 190.103,-217.903 L 190,-217.9 z
M 49.897,-217.903 L 49.7942,-217.91 L 49.6919,-217.923 L 49.5903,-217.94 L 49.4897,-217.963 L 49.3904,-217.99
 L 49.2925,-218.023 L 49.1964,-218.06 L 49.1021,-218.102 L 49.0101,-218.148 L 48.9204,-218.199 L 48.8333,-218.254
 L 48.749,-218.313 L 48.6678,-218.377 L 48.5897,-218.444 L 48.5151,-218.515 L 48.444,-218.59 L 48.3767,-218.668
 L 48.3133,-218.749 L 48.2539,-218.833 L 48.1988,-218.92 L 48.148,-219.01 L 48.1016,-219.102 L 48.0598,-219.196
 L 48.0228,-219.293 L 47.9904,-219.39 L 47.9629,-219.49 L 47.9403,-219.59 L 47.9227,-219.692 L 47.9101,-219.794
 L 47.9025,-219.897 L 47.9,-220 L 47.9025,-220.103 L 47.9101,-220.206 L 47.9227,-220.308 L 47.9403,-220.41
 L 47.9629,-220.51 L 47.9904,-220.61 L 48.0228,-220.707 L 48.0598,-220.804 L 48.1016,-220.898 L 48.148,-220.99
 L 48.1988,-221.08 L 48.2539,-221.167 L 48.3133,-221.251 L 48.3767,-221.332 L 48.444,-221.41 L 48.5151,-221.485
 L 48.5897,-221.556 L 48.6678,-221.623 L 48.749,-221.687 L 48.8333,-221.746 L 48.9204,-221.801 L 49.0101,-221.852
 L 49.1021,-221.898 L 49.1964,-221.94 L 49.2925,-221.977 L 49.3904,-222.01 L 49.4897,-222.037 L 49.5903,-222.06
 L 49.6919,-222.077 L 49.7942,-222.09 L 49.897,-222.097 L 50,-222.1 L 50.103,-222.097 L 50.2058,-222.09
 L 50.3081,-222.077 L 50.4097,-222.06 L 50.5103,-222.037 L 50.6096,-222.01 L 50.7075,-221.977 L 50.8036,-221.94
 L 50.8979,-221.898 L 50.9899,-221.852 L 51.0796,-221.801 L 51.1667,-221.746 L 51.251,-221.687 L 51.3322,-221.623
 L 51.4103,-221.556 L 51.4849,-221.485 L 51.556,-221.41 L 51.6233,-221.332 L 51.6867,-221.251 L 51.7461,-221.167
 L 51.8012,-221.08 L 51.852,-220.99 L 51.8984,-220.898 L 51.9401,-220.804 L 51.9772,-220.707 L 52.0096,-220.61
 L 52.0371,-220.51 L 52.0596,-220.41 L 52.0773,-220.308 L 52.0899,-220.206 L 52.0975,-220.103 L 52.1,-220
 L 52.0975,-219.897 L 52.0899,-219.794 L 52.0773,-219.692 L 52.0596,-219.59 L 52.0371,-219.49 L 52.0096,-219.39
 L 51.9772,-219.293 L 51.9401,-219.196 L 51.8984,-219.102 L 51.852,-219.01 L 51.8012,-218.92 L 51.7461,-218.833
 L 51.6867,-218.749 L 51.6233,-218.668 L 51.556,-218.59 L 51.4849,-218.515 L 51.4103,-218.444 L 51.3322,-218.377
 L 51.251,-218.313 L 51.1667,-218.254 L 51.0796,-218.199 L 50.9899,-218.148 L 50.8979,-218.102 L 50.8036,-218.06
 L 50.7075,-218.023 L 50.6096,-217.99 L 50.5103,-217.963 L 50.4097,-217.94 L 50.3081,-217.923 L 50.2058,-217.91
 L 50.103,-217.903 L 50,-217.9 z
M 189.897,-97.9025 L 189.794,-97.9101 L 189.692,-97.9227 L 189.59,-97.9403 L 189.49,-97.9629 L 189.39,-97.9904
 L 189.293,-98.0228 L 189.196,-98.0598 L 189.102,-98.1016 L 189.01,-98.148 L 188.92,-98.1988 L 188.833,-98.2539
 L 188.749,-98.3133 L 188.668,-98.3767 L 188.59,-98.444 L 188.515,-98.5151 L 188.444,-98.5897 L 188.377,-98.6678
 L 188.313,-98.749 L 188.254,-98.8333 L 188.199,-98.9204 L 188.148,-99.0101 L 188.102,-99.1021 L 188.06,-99.1964
 L 188.023,-99.2925 L 187.99,-99.3904 L 187.963,-99.4897 L 187.94,-99.5903 L 187.923,-99.6919 L 187.91,-99.7942
 L 187.903,-99.897 L 187.9,-100 L 187.903,-100.103 L 187.91,-100.206 L 187.923,-100.308 L 187.94,-100.41
 L 187.963,-100.51 L 187.99,-100.61 L 188.023,-100.707 L 188.06,-100.804 L 188.102,-100.898 L 188.148,-100.99
 L 188.199,-101.08 L 188.254,-101.167 L 188.313,-101.251 L 188.377,-101.332 L 188.444,-101.41 L 188.515,-101.485
 L 188.59,-101.556 L 188.668,-101.623 L 188.749,-101.687 L 188.833,-101.746 L 188.92,-101.801 L 189.01,-101.852
 L 189.102,-101.898 L 189.196,-101.94 L 189.293,-101.977 L 189.39,-102.01 L 189.49,-102.037 L 189.59,-102.06
 L 189.692,-102.077 L 189.794,-102.09 L 189.897,-102.097 L 190,-102.1 L 190.103,-102.097 L 190.206,-102.09
 L 190.308,-102.077 L 190.41,-102.06 L 190.51,-102.037 L 190.61,-102.01 L 190.707,-101.977 L 190.804,-101.94
 L 190.898,-101.898 L 190.99,-101.852 L 191.08,-101.801 L 191.167,-101.746 L 191.251,-101.687 L 191.332,-101.623
 L 191.41,-101.556 L 191.485,-101.485 L 191.556,-101.41 L 191.623,-101.332 L 191.687,-101.251 L 191.746,-101.167
 L 191.801,-101.08 L 191.852,-100.99 L 191.898,-100.898 L 191.94,-100.804 L 191.977,-100.707 L 192.01,-100.61
 L 192.037,-100.51 L 192.06,-100.41 L 192.077,-100.308 L 192.09,-100.206 L 192.097,-100.103 L 192.1,-100
 L 192.097,-99.897 L 192.09,-99.7942 L 192.077,-99.6919 L 192.06,-99.5903 L 192.037,-99.4897 L 192.01,-99.3904
 L 191.977,-99.2925 L 191.94,-99.1964 L 191.898,-99.1021 L 191.852,-99.0101 L 191.801,-98.9204 L 191.746,-98.8333
 L 191.687,-98.749 L 191.623,-98.6678 L 191.556,-98.5897 L 191.485,-98.5151 L 191.41,-98.444 L 191.332,-98.3767
 L 191.251,-98.3133 L 191.167,-98.2539 L 191.08,-98.1988 L 190.99,-98.148 L 190.898,-98.1016 L 190.804,-98.0598
 L 190.707,-98.0228 L 190.61,-97.9904 L 190.51,-97.9629 L 190.41,-97.9403 L 190.308,-97.9227 L 190.206,-97.9101
 L 190.103,-97.9025 L 190,-97.9 z
M 49.897,-97.9025 L 49.7942,-97.9101 L 49.6919,-97.9227 L 49.5903,-97.9403 L 49.4897,-97.9629 L 49.3904,-97.9904
 L 49.2925,-98.0228 L 49.1964,-98.0598 L 49.1021,-98.1016 L 49.0101,-98.148 L 48.9204,-98.1988 L 48.8333,-98.2539
 L 48.749,-98.3133 L 48.6678,-98.3767 L 48.5897,-98.444 L 48.5151,-98.5151 L 48.444,-98.5897 L 48.3767,-98.6678
 L 48.3133,-98.749 L 48.2539,-98.8333 L 48.1988,-98.9204 L 48.148,-99.0101 L 48.1016,-99.1021 L 48.0598,-99.1964
 L 48.0228,-99.2925 L 47.9904,-99.3904 L 47.9629,-99.4897 L 47.9403,-99.5903 L 47.9227,-99.6919 L 47.9101,-99.7942
 L 47.9025,-99.897 L 47.9,-100 L 47.9025,-100.103 L 47.9101,-100.206 L 47.9227,-100.308 L 47.9403,-100.41
 L 47.9629,-100.51 L 47.9904,-100.61 L 48.0228,-100.707 L 48.0598,-100.804 L 48.1016,-100.898 L 48.148,-100.99
 L 48.1988,-101.08 L 48.2539,-101.167 L 48.3133,-101.251 L 48.3767,-101.332 L 48.444,-101.41 L 48.5151,-101.485
 L 48.5897,-101.556 L 48.6678,-101.623 L 48.749,-101.687 L 48.8333,-101.746 L 48.9204,-101.801 L 49.0101,-101.852
 L 49.1021,-101.898 L 49.1964,-101.94 L 49.2925,-101.977 L 49.3904,-102.01 L 49.4897,-102.037 L 49.5903,-102.06
 L 49.6919,-102.077 L 49.7942,-102.09 L 49.897,-102.097 L 50,-102.1 L 50.103,-102.097 L 50.2058,-102.09
 L 50.3081,-102.077 L 50.4097,-102.06 L 50.5103,-102.037 L 50.6096,-102.01 L 50.7075,-101.977 L 50.8036,-101.94
 L 50.8979,-101.898 L 50.9899,-101.852 L 51.0796,-101.801 L 51.1667,-101.746 L 51.251,-101.687 L 51.3322,-101.623
 L 51.4103,-101.556 L 51.4849,-101.485 L 51.556,-101.41 L 51.6233,-101.332 L 51.6867,-101.251 L 51.7461,-101.167
 L 51.8012,-101.08 L 51.852,-100.99 L 51.8984,-100.898 L 51.9401,-100.804 L 51.9772,-100.707 L 52.0096,-100.61
 L 52.0371,-100.51 L 52.0596,-100.41 L 52.0773,-100.308 L 52.0899,-100.206 L 52.0975,-100.103 L 52.1,-100
 L 52.0975,-99.897 L 52.0899,-99.7942 L 52.0773,-99.6919 L 52.0596,-99.5903 L 52.0371,-99.4897 L 52.0096,-99.3904
 L 51.9772,-99.2925 L 51.9401,-99.1964 L 51.8984,-99.1021 L 51.852,-99.0101 L 51.8012,-98.9204 L 51.7461,-98.8333
 L 51.6867,-98.749 L 51.6233,-98.6678 L 51.556,-98.5897 L 51.4849,-98.5151 L 51.4103,-98.444 L 51.3322,-98.3767
 L 51.251,-98.3133 L 51.1667,-98.2539 L 51.0796,-98.1988 L 50.9899,-98.148 L 50.8979,-98.1016 L 50.8036,-98.0598
 L 50.7075,-98.0228 L 50.6096,-97.9904 L 50.5103,-97.9629 L 50.4097,-97.9403 L 50.3081,-97.9227 L 50.2058,-97.9101
 L 50.103,-97.9025 L 50,-97.9 z
M 199.426,-25.1142 L 198.939,-25.4393 L 198.614,-25.926 L 198.5,-26.5 L 198.5,-33.5 L 198.614,-34.074
 L 198.939,-34.5607 L 199.426,-34.8858 L 200,-35 L 200.574,-34.8858 L 201.061,-34.5607 L 201.386,-34.074
 L 201.5,-33.5 L 201.5,-26.5 L 201.386,-25.926 L 201.061,-25.4393 L 200.574,-25.1142 L 200,-25
 z
M 209.426,-25.1142 L 208.939,-25.4393 L 208.614,-25.926 L 208.5,-26.5 L 208.5,-33.5 L 208.614,-34.074
 L 208.939,-34.5607 L 209.426,-34.8858 L 210,-35 L 210.574,-34.8858 L 211.061,-34.5607 L 211.386,-34.074
 L 211.5,-33.5 L 211.5,-26.5 L 211.386,-25.926 L 211.061,-25.4393 L 210.574,-25.1142 L 210,-25
 z
M 19.8896,-5.2527 L 19.7794,-5.26083 L 19.6698,-5.27434 L 19.561,-5.29323 L 19.4533,-5.31743 L 19.3468,-5.34688
 L 19.242,-5.38152 L 19.139,-5.42126 L 19.038,-5.46602 L 18.9393,-5.51567 L 18.8433,-5.5701 L 18.75,-5.62918
 L 18.6597,-5.69278 L 18.5726,-5.76071 L 18.489,-5.83286 L 18.409,-5.909 L 18.3329,-5.98898 L 18.2607,-6.0726
 L 18.1928,-6.15967 L 18.1292,-6.24995 L 18.0701,-6.34326 L 18.0157,-6.43935 L 17.966,-6.53799 L 17.9213,-6.63896
 L 17.8815,-6.74199 L 17.8469,-6.84685 L 17.8174,-6.95329 L 17.7932,-7.06104 L 17.7743,-7.16985 L 17.7608,-7.27945
 L 17.7527,-7.38959 L 17.75,-7.5 L 17.7527,-7.6104 L 17.7608,-7.72054 L 17.7743,-7.83014 L 17.7932,-7.93895
 L 17.8174,-8.04669 L 17.8469,-8.15314 L 17.8815,-8.258 L 17.9213,-8.36102 L 17.966,-8.46199 L 18.0157,-8.56064
 L 18.0701,-8.65672 L 18.1292,-8.75003 L 18.1928,-8.84032 L 18.2607,-8.92738 L 18.3329,-9.011 L 18.409,-9.09099
 L 18.489,-9.16713 L 18.5726,-9.23927 L 18.6597,-9.30721 L 18.75,-9.3708 L 18.8433,-9.42989 L 18.9393,-9.48431
 L 19.038,-9.53397 L 19.139,-9.57872 L 19.242,-9.61847 L 19.3468,-9.65311 L 19.4533,-9.68256 L 19.561,-9.70676
 L 19.6698,-9.72565 L 19.7794,-9.73915 L 19.8896,-9.74728 L 20,-9.75 L 20.1104,-9.74728 L 20.2205,-9.73915
 L 20.3301,-9.72565 L 20.4389,-9.70676 L 20.5467,-9.68256 L 20.6531,-9.65311 L 20.758,-9.61847 L 20.861,-9.57872
 L 20.962,-9.53397 L 21.0606,-9.48431 L 21.1567,-9.42989 L 21.25,-9.3708 L 21.3403,-9.30721 L 21.4274,-9.23927
 L 21.511,-9.16713 L 21.591,-9.09099 L 21.6671,-9.011 L 21.7393,-8.92738 L 21.8072,-8.84032 L 21.8708,-8.75003
 L 21.9299,-8.65672 L 21.9843,-8.56064 L 22.034,-8.46199 L 22.0787,-8.36102 L 22.1185,-8.258 L 22.1531,-8.15314
 L 22.1826,-8.04669 L 22.2068,-7.93895 L 22.2256,-7.83014 L 22.2392,-7.72054 L 22.2473,-7.6104 L 22.25,-7.5
 L 22.2473,-7.38959 L 22.2392,-7.27945 L 22.2256,-7.16985 L 22.2068,-7.06104 L 22.1826,-6.95329 L 22.1531,-6.84685
 L 22.1185,-6.74199 L 22.0787,-6.63896 L 22.034,-6.53799 L 21.9843,-6.43935 L 21.9299,-6.34326 L 21.8708,-6.24995
 L 21.8072,-6.15967 L 21.7393,-6.0726 L 21.6671,-5.98898 L 21.591,-5.909 L 21.511,-5.83286 L 21.4274,-5.76071
 L 21.3403,-5.69278 L 21.25,-5.62918 L 21.1567,-5.5701 L 21.0606,-5.51567 L 20.962,-5.46602 L 20.861,-5.42126
 L 20.758,-5.38152 L 20.6531,-5.34688 L 20.5467,-5.31743 L 20.4389,-5.29323 L 20.3301,-5.27434 L 20.2205,-5.26083
 L 20.1104,-5.2527 L 20,-5.25 z
" stroke="black" fill="lightgray" stroke-width="0.5"/></svg>
