<?xml version="1.0" standalone="no"?>
<!DOCTYPE svg PUBLIC "-//W3C//DTD SVG 1.1//EN" "http://www.w3.org/Graphics/SVG/1.1/DTD/svg11.dtd">
<svg width="192mm" height="188mm" viewBox="-96 -94 192 188" xmlns="http://www.w3.org/2000/svg" version="1.1">
<title>OpenSCAD Model</title>
<path d="
M 96,-94 L -96,-94 L -96,94 L 96,94 z
M -53.3411,-25.2306 L -55.5922,-25.9135 L -57.6668,-27.0224 L -59.4853,-28.5147 L -60.9776,-30.3332 L -62.0865,-32.4078
 L -62.7694,-34.6589 L -63,-37 L -62.7694,-39.3411 L -62.0865,-41.5922 L -60.9776,-43.6668 L -59.4853,-45.4853
 L -57.6668,-46.9776 L -55.5922,-48.0865 L -53.3411,-48.7694 L -51,-49 L -48.6589,-48.7694 L -46.4078,-48.0865
 L -44.3332,-46.9776 L -42.5147,-45.4853 L -41.0224,-43.6668 L -39.9135,-41.5922 L -39.2306,-39.3411 L -39,-37
 L -39.2306,-34.6589 L -39.9135,-32.4078 L -41.0224,-30.3332 L -42.5147,-28.5147 L -44.3332,-27.0224 L -46.4078,-25.9135
 L -48.6589,-25.2306 L -51,-25 z
M -50.5,-36.5 L -42.6,-36.5 L -42.6,-37.5 L -50.5,-37.5 L -50.5,-45.4 L -51.5,-45.4
 L -51.5,-37.5 L -59.4,-37.5 L -59.4,-36.5 L -51.5,-36.5 L -51.5,-28.6 L -50.5,-28.6
 z
M -90.5331,0.0565948 L -90.7486,0.0343933 L -90.9526,-0.00259399 L -91.1451,-0.0543976 L -91.326,-0.120987 L -91.4955,-0.200836
 L -91.6535,-0.292358 L -91.8001,-0.395554 L -91.9353,-0.510437 L -92.059,-0.636993 L -92.1707,-0.774719 L -92.2707,-0.922272
 L -92.3589,-1.07967 L -92.4353,-1.24692 L -92.5,-1.424 L -92.5526,-1.60976 L -92.5934,-1.80223 L -92.6227,-2.00143
 L -92.6402,-2.20735 L -92.646,-2.42 L -92.6398,-2.64003 L -92.6212,-2.85135 L -92.5902,-3.05396 L -92.5468,-3.24783
 L -92.491,-3.433 L -92.4233,-3.60843 L -92.3441,-3.77315 L -92.2535,-3.92715 L -92.1515,-4.07043 L -92.038,-4.20299
 L -91.9133,-4.32431 L -91.7775,-4.43387 L -91.6307,-4.53168 L -91.4729,-4.61771 L -91.304,-4.69199 L -91.1247,-4.75391
 L -90.9355,-4.80208 L -90.7365,-4.83647 L -90.5277,-4.85712 L -90.309,-4.864 L -90.0127,-4.85187 L -89.7365,-4.81551
 L -89.4805,-4.75491 L -89.2447,-4.67007 L -89.029,-4.56099 L -88.8339,-4.42812 L -88.6607,-4.27187 L -88.5093,-4.09227
 L -88.3797,-3.88931 L -88.272,-3.66299 L -88.889,-3.45599 L -88.9181,-3.52615 L -88.9511,-3.59503 L -88.9879,-3.66263
 L -89.0285,-3.72896 L -89.073,-3.79399 L -89.1214,-3.85692 L -89.1745,-3.91687 L -89.2323,-3.97388 L -89.2948,-4.02791
 L -89.362,-4.07899 L -89.434,-4.12659 L -89.5107,-4.1702 L -89.592,-4.20979 L -89.6782,-4.24539 L -89.769,-4.27699
 L -89.8649,-4.30399 L -89.9661,-4.325 L -90.0727,-4.34 L -90.1847,-4.349 L -90.302,-4.35199 L -90.4619,-4.34647
 L -90.6142,-4.32991 L -90.759,-4.30231 L -90.8962,-4.26367 L -91.026,-4.21399 L -91.1479,-4.15451 L -91.2617,-4.08568
 L -91.3673,-4.00748 L -91.4647,-3.91991 L -91.554,-3.823 L -91.635,-3.71727 L -91.7078,-3.60332 L -91.7722,-3.48111
 L -91.8282,-3.35068 L -91.876,-3.21199 L -91.9153,-3.06602 L -91.9458,-2.91376 L -91.9676,-2.75516 L -91.9807,-2.59023
 L -91.985,-2.41899 L -91.9803,-2.24751 L -91.9663,-2.08188 L -91.9429,-1.92207 L -91.9101,-1.76811 L -91.868,-1.62
 L -91.8168,-1.47923 L -91.7574,-1.34656 L -91.69,-1.22195 L -91.6146,-1.10544 L -91.531,-0.996994 L -91.4391,-0.897278
 L -91.3393,-0.806915 L -91.2317,-0.725906 L -91.1163,-0.654266 L -90.993,-0.591995 L -90.8622,-0.540146 L -90.725,-0.499832
 L -90.5814,-0.471039 L -90.4314,-0.453751 L -90.275,-0.447998 L -90.1654,-0.450989 L -90.0596,-0.459991 L -89.9579,-0.474991
 L -89.86,-0.495987 L -89.766,-0.522995 L -89.6758,-0.555435 L -89.5892,-0.592758 L -89.5062,-0.634949 L -89.4268,-0.682037
 L -89.351,-0.733994 L -89.2782,-0.790787 L -89.2086,-0.851593 L -89.1422,-0.916397 L -89.079,-0.985199 L -89.019,-1.058
 L -88.9616,-1.1344 L -88.9068,-1.21399 L -88.8548,-1.2968 L -88.8056,-1.3828 L -88.759,-1.47198 L -88.228,-1.20599
 L -88.2821,-1.09952 L -88.3411,-0.996078 L -88.4051,-0.895676 L -88.4741,-0.798309 L -88.548,-0.703995 L -88.627,-0.613632
 L -88.7114,-0.528152 L -88.801,-0.447556 L -88.8958,-0.371826 L -88.996,-0.300995 L -89.1016,-0.23587 L -89.2126,-0.176514
 L -89.3293,-0.12291 L -89.4514,-0.0750732 L -89.579,-0.0329895 L -89.7121,0.00190735 L -89.8513,0.029068 L -89.9967,0.0484772
 L -90.1483,0.0601196 L -90.306,0.0639954 z
M 88.6745,-0 L 88.6745,-4.79999 L 90.2616,-4.79999 L 90.4804,-4.79448 L 90.6923,-4.77791 L 90.8971,-4.75031
 L 91.0948,-4.71167 L 91.2856,-4.66199 L 91.4675,-4.6008 L 91.639,-4.52759 L 91.8,-4.4424 L 91.9505,-4.3452
 L 92.0905,-4.23599 L 92.2198,-4.11459 L 92.3371,-3.98079 L 92.4425,-3.83459 L 92.536,-3.67599 L 92.6176,-3.50499
 L 92.6856,-3.32132 L 92.7385,-3.12387 L 92.7763,-2.91267 L 92.799,-2.68771 L 92.8065,-2.44899 L 92.7993,-2.215
 L 92.7776,-1.99219 L 92.7414,-1.78059 L 92.6907,-1.58018 L 92.6255,-1.39099 L 92.5482,-1.21379 L 92.4601,-1.0486
 L 92.3613,-0.895386 L 92.2518,-0.754196 L 92.1315,-0.625 L 92.0017,-0.507751 L 91.8627,-0.402435 L 91.7146,-0.309036
 L 91.5571,-0.227554 L 91.3905,-0.15799 L 91.2171,-0.10112 L 91.0382,-0.0568695 L 90.854,-0.0252686 L 90.6645,-0.00631714
 L 90.4695,-0 z
M 90.5438,-0.516907 L 90.6885,-0.531677 L 90.8285,-0.556274 L 90.9638,-0.590714 L 91.0945,-0.634995 L 91.2199,-0.688995
 L 91.3382,-0.752594 L 91.4496,-0.82579 L 91.5541,-0.9086 L 91.6516,-1.00099 L 91.7415,-1.10332 L 91.8232,-1.21507
 L 91.8968,-1.33627 L 91.9623,-1.46692 L 92.0195,-1.60699 L 92.0674,-1.75687 L 92.1047,-1.91611 L 92.1313,-2.08472
 L 92.1472,-2.26266 L 92.1525,-2.45 L 92.1469,-2.63991 L 92.1301,-2.81847 L 92.1021,-2.98567 L 92.0629,-3.14151
 L 92.0125,-3.286 L 91.9524,-3.42015 L 91.8833,-3.54424 L 91.8051,-3.65823 L 91.7178,-3.76215 L 91.6216,-3.85599
 L 91.5168,-3.94043 L 91.4041,-4.01535 L 91.2835,-4.08075 L 91.155,-4.13663 L 91.0185,-4.183 L 90.8754,-4.22079
 L 90.7269,-4.2502 L 90.5729,-4.27119 L 90.4134,-4.2838 L 90.2486,-4.28799 L 89.3255,-4.28799 L 89.3255,-0.511993
 L 90.3945,-0.511993 z
M -53.3411,48.7694 L -55.5922,48.0865 L -57.6668,46.9776 L -59.4853,45.4853 L -60.9776,43.6668 L -62.0865,41.5922
 L -62.7694,39.3411 L -63,37 L -62.7694,34.6589 L -62.0865,32.4078 L -60.9776,30.3332 L -59.4853,28.5147
 L -57.6668,27.0224 L -55.5922,25.9135 L -53.3411,25.2306 L -51,25 L -48.6589,25.2306 L -46.4078,25.9135
 L -44.3332,27.0224 L -42.5147,28.5147 L -41.0224,30.3332 L -39.9135,32.4078 L -39.2306,34.6589 L -39,37
 L -39.2306,39.3411 L -39.9135,41.5922 L -41.0224,43.6668 L -42.5147,45.4853 L -44.3332,46.9776 L -46.4078,48.0865
 L -48.6589,48.7694 L -51,49 z
M -50.5,37.5 L -42.6,37.5 L -42.6,36.5 L -50.5,36.5 L -50.5,28.6 L -51.5,28.6
 L -51.5,36.5 L -59.4,36.5 L -59.4,37.5 L -51.5,37.5 L -51.5,45.4 L -50.5,45.4
 z
" stroke="black" fill="lightgray" stroke-width="0.5"/></svg>
