<?xml version="1.0" standalone="no"?>
<!DOCTYPE svg PUBLIC "-//W3C//DTD SVG 1.1//EN" "http://www.w3.org/Graphics/SVG/1.1/DTD/svg11.dtd">
<svg width="220mm" height="188mm" viewBox="-50 -94 220 188" xmlns="http://www.w3.org/2000/svg" version="1.1">
<title>OpenSCAD Model</title>
<path d="
M 50,-94 L -50,-94 L -50,94 L 50,94 z
M 29.5,93 L 29.5,-93 L 30.5,-93 L 30.5,93 z
M -1.65826,-51.6633 L -3.25281,-52.147 L -4.72234,-52.9325 L -6.01041,-53.9896 L -7.06749,-55.2777 L -7.85297,-56.7472
 L -8.33667,-58.3417 L -8.5,-60 L -8.33667,-61.6583 L -7.85297,-63.2528 L -7.06749,-64.7223 L -6.01041,-66.0104
 L -4.72234,-67.0675 L -3.25281,-67.853 L -1.65826,-68.3367 L 0,-68.5 L 1.65826,-68.3367 L 3.25281,-67.853
 L 4.72234,-67.0675 L 6.01041,-66.0104 L 7.06749,-64.7223 L 7.85297,-63.2528 L 8.33667,-61.6583 L 8.5,-60
 L 8.33667,-58.3417 L 7.85297,-56.7472 L 7.06749,-55.2777 L 6.01041,-53.9896 L 4.72234,-52.9325 L 3.25281,-52.147
 L 1.65826,-51.6633 L 0,-51.5 z
M 0.5,-59.5 L 5.95,-59.5 L 5.95,-60.5 L 0.5,-60.5 L 0.5,-65.95 L -0.5,-65.95
 L -0.5,-60.5 L -5.95,-60.5 L -5.95,-59.5 L -0.5,-59.5 L -0.5,-54.05 L 0.5,-54.05
 z
M 44.5143,0.0519562 L 44.2477,0.0158386 L 43.9967,-0.0443573 L 43.7614,-0.128632 L 43.5415,-0.237 L 43.3396,-0.367706
 L 43.1579,-0.519073 L 42.9963,-0.691071 L 42.8548,-0.883713 L 42.7336,-1.09698 L 42.6338,-1.3288 L 42.5563,-1.577
 L 42.5009,-1.8416 L 42.4676,-2.12259 L 42.4565,-2.42 L 42.4814,-2.85851 L 42.5557,-3.25728 L 42.6797,-3.61627
 L 42.8533,-3.93552 L 43.0766,-4.215 L 43.3436,-4.44864 L 43.6489,-4.63036 L 43.9923,-4.76015 L 44.3738,-4.83803
 L 44.7935,-4.864 L 45.0899,-4.85187 L 45.366,-4.81551 L 45.622,-4.75491 L 45.8579,-4.67007 L 46.0735,-4.56099
 L 46.2686,-4.42812 L 46.4419,-4.27187 L 46.5933,-4.09227 L 46.7228,-3.88931 L 46.8306,-3.66299 L 46.2135,-3.45599
 L 46.1386,-3.61835 L 46.0475,-3.76463 L 45.9401,-3.89484 L 45.8164,-4.00896 L 45.6765,-4.10699 L 45.5234,-4.18835
 L 45.3593,-4.25163 L 45.1841,-4.29683 L 44.9978,-4.32396 L 44.8006,-4.33299 L 44.4959,-4.31255 L 44.2196,-4.25124
 L 43.9716,-4.14903 L 43.7519,-4.00595 L 43.5605,-3.82199 L 43.4011,-3.60243 L 43.277,-3.35255 L 43.1884,-3.07236
 L 43.1353,-2.76183 L 43.1176,-2.42099 L 43.136,-2.08279 L 43.1913,-1.77219 L 43.2835,-1.4892 L 43.4126,-1.2338
 L 43.5786,-1.006 L 43.7764,-0.813385 L 44.0002,-0.663589 L 44.25,-0.556595 L 44.5257,-0.492386 L 44.8275,-0.470993
 L 45.2107,-0.511032 L 45.5539,-0.631149 L 45.8571,-0.83136 L 46.1203,-1.11163 L 46.3436,-1.47198 L 46.8745,-1.20599
 L 46.7465,-0.969437 L 46.5992,-0.756546 L 46.4326,-0.567352 L 46.2467,-0.401825 L 46.0415,-0.259995 L 45.8202,-0.143356
 L 45.5851,-0.0526276 L 45.3361,0.012146 L 45.0732,0.0510254 L 44.7965,0.0639954 z
M -7.34157,-0 L -7.34157,-4.79999 L -3.93156,-4.79999 L -3.93156,-4.269 L -6.69057,-4.269 L -6.69057,-2.49599
 L -4.01357,-2.49599 L -4.01357,-1.95799 L -6.69057,-1.95799 L -6.69057,-0 z
M -46.428,-0 L -46.428,-4.79999 L -44.684,-4.79999 L -44.0756,-4.75323 L -43.6024,-4.61295 L -43.2644,-4.37915
 L -43.0616,-4.05183 L -42.994,-3.631 L -43.0036,-3.46564 L -43.0322,-3.31116 L -43.08,-3.16756 L -43.147,-3.03484
 L -43.233,-2.91299 L -43.3361,-2.80463 L -43.4551,-2.71155 L -43.5899,-2.63376 L -43.7405,-2.57123 L -43.907,-2.52399
 L -43.6887,-2.48695 L -43.4913,-2.43024 L -43.3149,-2.35384 L -43.1595,-2.25775 L -43.025,-2.142 L -42.9134,-2.0098
 L -42.8266,-1.8644 L -42.7646,-1.7058 L -42.7274,-1.534 L -42.715,-1.349 L -42.7337,-1.10475 L -42.7897,-0.88324
 L -42.8831,-0.684433 L -43.0139,-0.508347 L -43.182,-0.354996 L -43.383,-0.227188 L -43.6134,-0.127792 L -43.873,-0.0567932
 L -44.1618,-0.0141907 L -44.48,-0 z
M -44.4858,-2.75987 L -44.3088,-2.78351 L -44.153,-2.82291 L -44.0184,-2.87807 L -43.905,-2.94899 L -43.8125,-3.03619
 L -43.7405,-3.1402 L -43.6891,-3.26099 L -43.6583,-3.39859 L -43.648,-3.55299 L -43.6586,-3.70012 L -43.6906,-3.82947
 L -43.7438,-3.94107 L -43.8183,-4.03491 L -43.914,-4.11099 L -44.0296,-4.17148 L -44.1644,-4.21851 L -44.3184,-4.25211
 L -44.4916,-4.27228 L -44.684,-4.27899 L -45.777,-4.27899 L -45.777,-2.752 L -44.684,-2.752 z
M -44.2876,-0.529785 L -44.088,-0.556198 L -43.9144,-0.600189 L -43.7668,-0.661789 L -43.645,-0.740997 L -43.5467,-0.838028
 L -43.4703,-0.952347 L -43.4157,-1.08395 L -43.3829,-1.23283 L -43.372,-1.39899 L -43.4197,-1.70319 L -43.5627,-1.93979
 L -43.8011,-2.1088 L -44.1349,-2.21019 L -44.564,-2.24399 L -45.777,-2.24399 L -45.777,-0.520996 L -44.513,-0.520996
 z
M 7.03181,0.0302277 L 6.82574,-0.0710297 L 6.67854,-0.239838 L 6.59021,-0.476151 L 6.56078,-0.779999 L 6.56078,-3.26599
 L 6.13577,-3.26599 L 6.13577,-3.71199 L 6.58478,-3.71199 L 6.76578,-4.54399 L 7.17477,-4.54399 L 7.17477,-3.71199
 L 7.85577,-3.71199 L 7.85577,-3.26599 L 7.17477,-3.26599 L 7.17477,-0.908997 L 7.17825,-0.807785 L 7.18869,-0.719391
 L 7.2061,-0.643799 L 7.23045,-0.580994 L 7.26178,-0.530991 L 7.30165,-0.492111 L 7.3517,-0.461868 L 7.4119,-0.440277
 L 7.48225,-0.427307 L 7.56277,-0.422989 L 7.6163,-0.424866 L 7.67845,-0.430511 L 7.74925,-0.439911 L 7.8287,-0.453079
 L 7.91678,-0.469986 L 7.91678,-0.0179901 L 7.79501,0.0115051 L 7.67213,0.0344696 L 7.54814,0.0508728 L 7.42302,0.0607147
 L 7.29678,0.0639954 z
M 2.74229,-0 L 2.74229,-2.92 L 2.73894,-3.35776 L 2.73473,-3.51616 L 2.72885,-3.63423 L 2.7213,-3.71199
 L 3.3013,-3.71199 L 3.32829,-3.07399 L 3.33829,-3.07399 L 3.42537,-3.2186 L 3.51781,-3.3452 L 3.61562,-3.4538
 L 3.71878,-3.54439 L 3.82729,-3.61699 L 3.94385,-3.67422 L 4.07114,-3.71875 L 4.20914,-3.75055 L 4.35785,-3.76964
 L 4.51729,-3.77599 L 4.74669,-3.76387 L 4.95009,-3.72751 L 5.12749,-3.66692 L 5.2789,-3.58208 L 5.4043,-3.47299
 L 5.50545,-3.33595 L 5.58414,-3.16724 L 5.64034,-2.96683 L 5.67406,-2.73476 L 5.68529,-2.47099 L 5.68529,-0
 L 5.0683,-0 L 5.0683,-2.353 L 5.06541,-2.49319 L 5.05678,-2.62019 L 5.04237,-2.73399 L 5.02222,-2.83459
 L 4.99629,-2.922 L 4.96445,-2.99863 L 4.92574,-3.06615 L 4.88013,-3.12456 L 4.82765,-3.17383 L 4.7683,-3.21399
 L 4.70001,-3.24603 L 4.61998,-3.27095 L 4.52817,-3.28876 L 4.42461,-3.29944 L 4.3093,-3.30299 L 4.13957,-3.29076
 L 3.98482,-3.25403 L 3.84502,-3.19283 L 3.72017,-3.10715 L 3.61029,-2.99699 L 3.51849,-2.86555 L 3.4471,-2.71523
 L 3.39609,-2.54604 L 3.36549,-2.35796 L 3.35529,-2.15099 L 3.35529,-0 z
M 0.104446,0.0442352 L -0.171219,-0.0150299 L -0.415222,-0.113831 L -0.627533,-0.252151 L -0.808182,-0.429993 L -0.956497,-0.645554
 L -1.07185,-0.896225 L -1.15425,-1.18204 L -1.20369,-1.50294 L -1.22017,-1.85899 L -1.1541,-2.54912 L -0.955856,-3.08588
 L -0.625458,-3.46927 L -0.162903,-3.69931 L 0.431808,-3.77599 L 0.751923,-3.75731 L 1.03629,-3.70128 L 1.28488,-3.60788
 L 1.49773,-3.47711 L 1.6748,-3.30899 L 1.81845,-3.10155 L 1.93018,-2.85283 L 2.00996,-2.56284 L 2.05785,-2.23155
 L 2.07381,-1.85899 L 2.05676,-1.49004 L 2.00565,-1.16075 L 1.92046,-0.871155 L 1.80116,-0.621231 L 1.64781,-0.410995
 L 1.46205,-0.23999 L 1.24557,-0.106995 L 0.998367,-0.0119934 L 0.720444,0.0449982 L 0.411804,0.0639954 z
M 0.612976,-0.403229 L 0.795853,-0.445953 L 0.953445,-0.517151 L 1.08577,-0.616837 L 1.19281,-0.744995 L 1.27812,-0.903793
 L 1.34448,-1.09459 L 1.39189,-1.3174 L 1.42033,-1.57219 L 1.42981,-1.85899 L 1.42073,-2.1494 L 1.39349,-2.40619
 L 1.34808,-2.62939 L 1.28453,-2.81898 L 1.2028,-2.97499 L 1.10005,-3.10027 L 0.972565,-3.19771 L 0.820374,-3.26732
 L 0.643448,-3.30907 L 0.441803,-3.323 L 0.238525,-3.30879 L 0.059082,-3.26619 L -0.0964966,-3.19519 L -0.228256,-3.09579
 L -0.336182,-2.96799 L -0.422577,-2.81003 L -0.489777,-2.62015 L -0.537781,-2.39835 L -0.566574,-2.14464 L -0.576172,-1.85899
 L -0.566742,-1.58035 L -0.538422,-1.33083 L -0.491211,-1.11043 L -0.42514,-0.919159 L -0.340179,-0.756989 L -0.234543,-0.624512
 L -0.107224,-0.521469 L 0.0417633,-0.447876 L 0.212448,-0.403717 L 0.404816,-0.388992 z
M -3.28699,-0 L -3.28783,-3.00703 L -3.29456,-3.34656 L -3.30798,-3.71199 L -2.72798,-3.71199 L -2.71071,-3.28847
 L -2.70099,-2.95499 L -2.68698,-2.95499 L -2.62683,-3.13255 L -2.56314,-3.28603 L -2.49594,-3.41544 L -2.42523,-3.52075
 L -2.35098,-3.60199 L -2.26834,-3.66463 L -2.17323,-3.71335 L -2.06563,-3.74815 L -1.94554,-3.76903 L -1.81299,-3.77599
 L -1.76367,-3.77463 L -1.71411,-3.77055 L -1.66431,-3.76375 L -1.61427,-3.75423 L -1.564,-3.74199 L -1.564,-3.17999
 L -1.61642,-3.19223 L -1.67535,-3.20175 L -1.74075,-3.20856 L -1.81262,-3.21263 L -1.89099,-3.21399 L -2.03619,-3.20076
 L -2.16699,-3.16103 L -2.28339,-3.09483 L -2.38539,-3.00215 L -2.47299,-2.883 L -2.54535,-2.73915 L -2.60162,-2.57243
 L -2.64183,-2.38283 L -2.66595,-2.17035 L -2.674,-1.935 L -2.674,-0 z
M 170,-94 L 70,-94 L 70,94 L 170,94 z
M 89.5,93 L 89.5,-93 L 90.5,-93 L 90.5,-60.8965 L 90.6741,-61.2223 L 91.1716,-61.8284
 L 91.7777,-62.3259 L 92.4693,-62.6955 L 93.2197,-62.9231 L 94,-63 L 94.7803,-62.9231 L 95.5307,-62.6955
 L 96.2223,-62.3259 L 96.8284,-61.8284 L 97.3259,-61.2223 L 97.6955,-60.5307 L 97.9231,-59.7803 L 98,-59
 L 97.9231,-58.2197 L 97.6955,-57.4693 L 97.3259,-56.7777 L 96.8284,-56.1716 L 96.2223,-55.6741 L 95.5307,-55.3045
 L 94.7803,-55.0769 L 94,-55 L 93.2197,-55.0769 L 92.4693,-55.3045 L 91.7777,-55.6741 L 91.1716,-56.1716
 L 90.6741,-56.7777 L 90.5,-57.1035 L 90.5,93 z
M 94.5,-58.5 L 96.8,-58.5 L 96.8,-59.5 L 94.5,-59.5 L 94.5,-61.8 L 93.5,-61.8
 L 93.5,-59.5 L 91.2,-59.5 L 91.2,-58.5 L 93.5,-58.5 L 93.5,-56.2 L 94.5,-56.2
 z
M 134.22,-55.0769 L 133.469,-55.3045 L 132.778,-55.6741 L 132.172,-56.1716 L 131.674,-56.7777 L 131.304,-57.4693
 L 131.077,-58.2197 L 131,-59 L 131.077,-59.7803 L 131.304,-60.5307 L 131.674,-61.2223 L 132.172,-61.8284
 L 132.778,-62.3259 L 133.469,-62.6955 L 134.22,-62.9231 L 135,-63 L 135.78,-62.9231 L 136.531,-62.6955
 L 137.222,-62.3259 L 137.828,-61.8284 L 138.326,-61.2223 L 138.696,-60.5307 L 138.923,-59.7803 L 139,-59
 L 138.923,-58.2197 L 138.696,-57.4693 L 138.326,-56.7777 L 137.828,-56.1716 L 137.222,-55.6741 L 136.531,-55.3045
 L 135.78,-55.0769 L 135,-55 z
M 135.5,-58.5 L 137.8,-58.5 L 137.8,-59.5 L 135.5,-59.5 L 135.5,-61.8 L 134.5,-61.8
 L 134.5,-59.5 L 132.2,-59.5 L 132.2,-58.5 L 134.5,-58.5 L 134.5,-56.2 L 135.5,-56.2
 z
M 119.22,-55.0769 L 118.469,-55.3045 L 117.778,-55.6741 L 117.172,-56.1716 L 116.674,-56.7777 L 116.304,-57.4693
 L 116.077,-58.2197 L 116,-59 L 116.077,-59.7803 L 116.304,-60.5307 L 116.674,-61.2223 L 117.172,-61.8284
 L 117.778,-62.3259 L 118.469,-62.6955 L 119.22,-62.9231 L 120,-63 L 120.78,-62.9231 L 121.531,-62.6955
 L 122.222,-62.3259 L 122.828,-61.8284 L 123.326,-61.2223 L 123.696,-60.5307 L 123.923,-59.7803 L 124,-59
 L 123.923,-58.2197 L 123.696,-57.4693 L 123.326,-56.7777 L 122.828,-56.1716 L 122.222,-55.6741 L 121.531,-55.3045
 L 120.78,-55.0769 L 120,-55 z
M 120.5,-58.5 L 122.8,-58.5 L 122.8,-59.5 L 120.5,-59.5 L 120.5,-61.8 L 119.5,-61.8
 L 119.5,-59.5 L 117.2,-59.5 L 117.2,-58.5 L 119.5,-58.5 L 119.5,-56.2 L 120.5,-56.2
 z
M 124.617,-0 L 124.617,-5.056 L 125.23,-5.056 L 125.23,-1.911 L 126.848,-3.71199 L 127.567,-3.71199
 L 126.072,-2.11699 L 127.645,-0 L 126.927,-0 L 125.68,-1.69499 L 125.23,-1.321 L 125.23,-0
 z
M 113.034,-0 L 113.034,-4.79999 L 114.778,-4.79999 L 115.386,-4.75323 L 115.86,-4.61295 L 116.198,-4.37915
 L 116.4,-4.05183 L 116.468,-3.631 L 116.458,-3.46564 L 116.43,-3.31116 L 116.382,-3.16756 L 116.315,-3.03484
 L 116.229,-2.91299 L 116.126,-2.80463 L 116.007,-2.71155 L 115.872,-2.63376 L 115.721,-2.57123 L 115.555,-2.52399
 L 115.773,-2.48695 L 115.971,-2.43024 L 116.147,-2.35384 L 116.302,-2.25775 L 116.437,-2.142 L 116.549,-2.0098
 L 116.635,-1.8644 L 116.697,-1.7058 L 116.735,-1.534 L 116.747,-1.349 L 116.728,-1.10475 L 116.672,-0.88324
 L 116.579,-0.684433 L 116.448,-0.508347 L 116.28,-0.354996 L 116.079,-0.227188 L 115.849,-0.127792 L 115.589,-0.0567932
 L 115.3,-0.0141907 L 114.982,-0 z
M 114.976,-2.75987 L 115.153,-2.78351 L 115.309,-2.82291 L 115.444,-2.87807 L 115.557,-2.94899 L 115.649,-3.03619
 L 115.721,-3.1402 L 115.773,-3.26099 L 115.804,-3.39859 L 115.814,-3.55299 L 115.803,-3.70012 L 115.771,-3.82947
 L 115.718,-3.94107 L 115.644,-4.03491 L 115.548,-4.11099 L 115.432,-4.17148 L 115.298,-4.21851 L 115.144,-4.25211
 L 114.97,-4.27228 L 114.778,-4.27899 L 113.685,-4.27899 L 113.685,-2.752 L 114.778,-2.752 z
M 115.174,-0.529785 L 115.374,-0.556198 L 115.547,-0.600189 L 115.695,-0.661789 L 115.817,-0.740997 L 115.915,-0.838028
 L 115.992,-0.952347 L 116.046,-1.08395 L 116.079,-1.23283 L 116.09,-1.39899 L 116.042,-1.70319 L 115.899,-1.93979
 L 115.661,-2.1088 L 115.327,-2.21019 L 114.898,-2.24399 L 113.685,-2.24399 L 113.685,-0.520996 L 114.949,-0.520996
 z
M 73.572,-0 L 73.572,-4.79999 L 75.159,-4.79999 L 75.6247,-4.77551 L 76.0457,-4.70207 L 76.4221,-4.57967
 L 76.7539,-4.40831 L 77.041,-4.18799 L 77.2797,-3.92291 L 77.4653,-3.61647 L 77.5979,-3.26868 L 77.6775,-2.87952
 L 77.704,-2.44899 L 77.6924,-2.15959 L 77.6576,-1.88499 L 77.5996,-1.6252 L 77.5184,-1.38019 L 77.414,-1.14999
 L 77.2887,-0.937592 L 77.1439,-0.745987 L 76.9797,-0.575195 L 76.7961,-0.425186 L 76.593,-0.29599 L 76.374,-0.189438
 L 76.142,-0.106552 L 75.8968,-0.047348 L 75.6384,-0.0118256 L 75.367,-0 z
M 75.4981,-0.530228 L 75.6939,-0.557953 L 75.8795,-0.604156 L 76.0549,-0.668839 L 76.22,-0.751999 L 76.3729,-0.852951
 L 76.5109,-0.97023 L 76.6339,-1.10384 L 76.7419,-1.25375 L 76.835,-1.42 L 76.9124,-1.601 L 76.9726,-1.79439
 L 77.0156,-2.0002 L 77.0414,-2.2184 L 77.05,-2.44899 L 77.0304,-2.7892 L 76.9718,-3.0954 L 76.8739,-3.3676
 L 76.737,-3.60579 L 76.561,-3.81 L 76.3479,-3.97884 L 76.0999,-4.11015 L 75.8169,-4.20395 L 75.4989,-4.26024
 L 75.146,-4.27899 L 74.223,-4.27899 L 74.223,-0.520996 L 75.292,-0.520996 z
M 162.491,-0 L 164.449,-4.79999 L 165.188,-4.79999 L 167.116,-0 L 166.452,-0 L 165.904,-1.41199
 L 163.717,-1.41199 L 163.165,-0 z
M 165.016,-3.69595 L 164.94,-3.91243 L 164.81,-4.31 L 164.741,-4.09583 L 164.697,-3.96396 L 164.647,-3.81935
 L 164.527,-3.49199 L 163.914,-1.92 L 165.71,-1.92 z
M 120.263,0.0564728 L 120.149,0.033905 L 120.05,-0.00367737 L 119.965,-0.0563049 L 119.895,-0.123993 L 119.839,-0.207718
 L 119.793,-0.308472 L 119.758,-0.42627 L 119.734,-0.561111 L 119.72,-0.712997 L 119.7,-0.712997 L 119.603,-0.553268
 L 119.5,-0.413315 L 119.391,-0.293106 L 119.275,-0.192673 L 119.153,-0.112 L 119.023,-0.0486298 L 118.882,0.00062561
 L 118.731,0.0358276 L 118.568,0.0569458 L 118.395,0.0639954 L 118.184,0.0523529 L 117.995,0.0174255 L 117.828,-0.0407562
 L 117.683,-0.122238 L 117.56,-0.22699 L 117.46,-0.352432 L 117.382,-0.495148 L 117.326,-0.655151 L 117.293,-0.832428
 L 117.281,-1.02699 L 117.296,-1.24403 L 117.342,-1.43996 L 117.417,-1.61475 L 117.522,-1.76843 L 117.657,-1.90099
 L 117.827,-2.0116 L 118.033,-2.0994 L 118.276,-2.1644 L 118.556,-2.20659 L 118.872,-2.226 L 119.7,-2.23999
 L 119.7,-2.44699 L 119.693,-2.62131 L 119.67,-2.77467 L 119.632,-2.90707 L 119.578,-3.01851 L 119.509,-3.10899
 L 119.424,-3.181 L 119.322,-3.237 L 119.202,-3.27699 L 119.065,-3.30099 L 118.91,-3.30899 L 118.754,-3.30367
 L 118.616,-3.28772 L 118.496,-3.26111 L 118.394,-3.22388 L 118.309,-3.17599 L 118.241,-3.11647 L 118.184,-3.04431
 L 118.139,-2.95952 L 118.106,-2.86208 L 118.085,-2.752 L 117.445,-2.808 L 117.555,-3.15648 L 117.757,-3.42751
 L 118.053,-3.62111 L 118.442,-3.73727 L 118.923,-3.77599 L 119.188,-3.76303 L 119.424,-3.72415 L 119.634,-3.65935
 L 119.815,-3.56863 L 119.969,-3.452 L 120.096,-3.31123 L 120.194,-3.14735 L 120.264,-2.96036 L 120.306,-2.75023
 L 120.32,-2.517 L 120.32,-0.904999 L 120.323,-0.799667 L 120.332,-0.705307 L 120.346,-0.621918 L 120.366,-0.549469
 L 120.391,-0.487991 L 120.425,-0.437592 L 120.47,-0.398392 L 120.524,-0.370392 L 120.589,-0.353592 L 120.664,-0.347992
 L 120.701,-0.348953 L 120.779,-0.356628 L 120.865,-0.371994 L 120.865,0.00999451 L 120.772,0.0294342 L 120.678,0.0445557
 L 120.583,0.0553589 L 120.488,0.0618286 L 120.391,0.0639954 z
M 118.667,-0.402069 L 118.793,-0.420319 L 118.913,-0.450714 L 119.027,-0.493271 L 119.134,-0.547989 L 119.235,-0.613312
 L 119.327,-0.687668 L 119.41,-0.771072 L 119.483,-0.86351 L 119.548,-0.964996 L 119.603,-1.07159 L 119.646,-1.1794
 L 119.676,-1.28839 L 119.694,-1.39859 L 119.7,-1.50999 L 119.7,-1.81099 L 119.029,-1.797 L 118.865,-1.7916
 L 118.717,-1.7802 L 118.586,-1.76279 L 118.471,-1.7394 L 118.373,-1.70999 L 118.288,-1.67407 L 118.212,-1.63112
 L 118.143,-1.58112 L 118.083,-1.52408 L 118.031,-1.45999 L 117.989,-1.3882 L 117.955,-1.308 L 117.931,-1.21939
 L 117.917,-1.12239 L 117.912,-1.017 L 117.919,-0.903595 L 117.938,-0.800995 L 117.971,-0.709198 L 118.016,-0.628189
 L 118.074,-0.557999 L 118.145,-0.49968 L 118.226,-0.454315 L 118.318,-0.421906 L 118.421,-0.402466 L 118.535,-0.395996
 z
M 122.345,0.0443573 L 122.08,-0.0145569 L 121.844,-0.112747 L 121.637,-0.250229 L 121.46,-0.426987 L 121.313,-0.641388
 L 121.199,-0.8918 L 121.118,-1.17819 L 121.069,-1.5006 L 121.053,-1.85899 L 121.069,-2.21523 L 121.118,-2.53595
 L 121.2,-2.82115 L 121.315,-3.07083 L 121.462,-3.28499 L 121.64,-3.46175 L 121.846,-3.59923 L 122.08,-3.69743
 L 122.343,-3.75635 L 122.634,-3.77599 L 122.852,-3.76424 L 123.055,-3.72896 L 123.243,-3.67015 L 123.415,-3.58783
 L 123.572,-3.48199 L 123.71,-3.35551 L 123.826,-3.21127 L 123.92,-3.04927 L 123.992,-2.86951 L 124.041,-2.672
 L 123.41,-2.62399 L 123.385,-2.74248 L 123.348,-2.85071 L 123.3,-2.94872 L 123.24,-3.03647 L 123.168,-3.114
 L 123.084,-3.17952 L 122.987,-3.23047 L 122.876,-3.26688 L 122.753,-3.28871 L 122.617,-3.29599 L 122.433,-3.28296
 L 122.27,-3.24384 L 122.129,-3.17863 L 122.01,-3.08736 L 121.912,-2.96999 L 121.833,-2.82211 L 121.772,-2.63847
 L 121.729,-2.41907 L 121.703,-2.16391 L 121.694,-1.87299 L 121.703,-1.59232 L 121.731,-1.34227 L 121.777,-1.12288
 L 121.842,-0.934113 L 121.925,-0.775986 L 122.027,-0.647827 L 122.148,-0.548157 L 122.288,-0.476959 L 122.446,-0.434235
 L 122.624,-0.419998 L 122.75,-0.427155 L 122.868,-0.448639 L 122.977,-0.484436 L 123.078,-0.534546 L 123.17,-0.598999
 L 123.251,-0.678711 L 123.319,-0.773865 L 123.373,-0.884476 L 123.414,-1.01051 L 123.441,-1.15199 L 124.061,-1.11099
 L 124.02,-0.905228 L 123.954,-0.716751 L 123.863,-0.545547 L 123.747,-0.391632 L 123.607,-0.25499 L 123.446,-0.140152
 L 123.269,-0.050827 L 123.076,0.0129547 L 122.866,0.051239 L 122.64,0.0639954 z
" stroke="black" fill="lightgray" stroke-width="0.5"/></svg>
