<?xml version="1.0" standalone="no"?>
<!DOCTYPE svg PUBLIC "-//W3C//DTD SVG 1.1//EN" "http://www.w3.org/Graphics/SVG/1.1/DTD/svg11.dtd">
<svg width="473mm" height="300mm" viewBox="0 -300 473 300" xmlns="http://www.w3.org/2000/svg" version="1.1">
<title>OpenSCAD Model</title>
<path d="
M 235,-300 L 40,-300 L 0,-270 L 0,-0 L 235,-0 z
M 61.8896,-290.253 L 61.7794,-290.261 L 61.6698,-290.274 L 61.561,-290.293 L 61.4533,-290.317 L 61.3468,-290.347
 L 61.242,-290.382 L 61.139,-290.421 L 61.038,-290.466 L 60.9393,-290.516 L 60.8433,-290.57 L 60.75,-290.629
 L 60.6597,-290.693 L 60.5726,-290.761 L 60.489,-290.833 L 60.409,-290.909 L 60.3329,-290.989 L 60.2607,-291.073
 L 60.1928,-291.16 L 60.1292,-291.25 L 60.0701,-291.343 L 60.0157,-291.439 L 59.966,-291.538 L 59.9213,-291.639
 L 59.8815,-291.742 L 59.8469,-291.847 L 59.8174,-291.953 L 59.7932,-292.061 L 59.7743,-292.17 L 59.7608,-292.279
 L 59.7527,-292.39 L 59.75,-292.5 L 59.7527,-292.61 L 59.7608,-292.721 L 59.7743,-292.83 L 59.7932,-292.939
 L 59.8174,-293.047 L 59.8469,-293.153 L 59.8815,-293.258 L 59.9213,-293.361 L 59.966,-293.462 L 60.0157,-293.561
 L 60.0701,-293.657 L 60.1292,-293.75 L 60.1928,-293.84 L 60.2607,-293.927 L 60.3329,-294.011 L 60.409,-294.091
 L 60.489,-294.167 L 60.5726,-294.239 L 60.6597,-294.307 L 60.75,-294.371 L 60.8433,-294.43 L 60.9393,-294.484
 L 61.038,-294.534 L 61.139,-294.579 L 61.242,-294.618 L 61.3468,-294.653 L 61.4533,-294.683 L 61.561,-294.707
 L 61.6698,-294.726 L 61.7794,-294.739 L 61.8896,-294.747 L 62,-294.75 L 62.1104,-294.747 L 62.2205,-294.739
 L 62.3301,-294.726 L 62.4389,-294.707 L 62.5467,-294.683 L 62.6531,-294.653 L 62.758,-294.618 L 62.861,-294.579
 L 62.962,-294.534 L 63.0606,-294.484 L 63.1567,-294.43 L 63.25,-294.371 L 63.3403,-294.307 L 63.4274,-294.239
 L 63.511,-294.167 L 63.591,-294.091 L 63.6671,-294.011 L 63.7393,-293.927 L 63.8072,-293.84 L 63.8708,-293.75
 L 63.9299,-293.657 L 63.9843,-293.561 L 64.034,-293.462 L 64.0787,-293.361 L 64.1185,-293.258 L 64.1531,-293.153
 L 64.1826,-293.047 L 64.2068,-292.939 L 64.2256,-292.83 L 64.2392,-292.721 L 64.2473,-292.61 L 64.25,-292.5
 L 64.2473,-292.39 L 64.2392,-292.279 L 64.2256,-292.17 L 64.2068,-292.061 L 64.1826,-291.953 L 64.1531,-291.847
 L 64.1185,-291.742 L 64.0787,-291.639 L 64.034,-291.538 L 63.9843,-291.439 L 63.9299,-291.343 L 63.8708,-291.25
 L 63.8072,-291.16 L 63.7393,-291.073 L 63.6671,-290.989 L 63.591,-290.909 L 63.511,-290.833 L 63.4274,-290.761
 L 63.3403,-290.693 L 63.25,-290.629 L 63.1567,-290.57 L 63.0606,-290.516 L 62.962,-290.466 L 62.861,-290.421
 L 62.758,-290.382 L 62.6531,-290.347 L 62.5467,-290.317 L 62.4389,-290.293 L 62.3301,-290.274 L 62.2205,-290.261
 L 62.1104,-290.253 L 62,-290.25 z
M 49.3866,-207.515 L 48.7748,-207.56 L 48.1659,-207.635 L 47.5614,-207.74 L 46.9627,-207.875 L 46.3714,-208.038
 L 45.7889,-208.231 L 45.2164,-208.451 L 44.6555,-208.7 L 44.1075,-208.976 L 43.5737,-209.278 L 43.0554,-209.607
 L 42.5538,-209.96 L 42.0701,-210.337 L 41.6055,-210.738 L 41.1612,-211.161 L 40.7381,-211.605 L 40.3374,-212.07
 L 39.9599,-212.554 L 39.6066,-213.055 L 39.2784,-213.574 L 38.976,-214.108 L 38.7001,-214.656 L 38.4515,-215.216
 L 38.2307,-215.789 L 38.0382,-216.371 L 37.8746,-216.963 L 37.7402,-217.561 L 37.6353,-218.166 L 37.5602,-218.775
 L 37.515,-219.387 L 37.5,-220 L 37.515,-220.613 L 37.5602,-221.225 L 37.6353,-221.834 L 37.7402,-222.439
 L 37.8746,-223.037 L 38.0382,-223.629 L 38.2307,-224.211 L 38.4515,-224.784 L 38.7001,-225.344 L 38.976,-225.892
 L 39.2784,-226.426 L 39.6066,-226.945 L 39.9599,-227.446 L 40.3374,-227.93 L 40.7381,-228.394 L 41.1612,-228.839
 L 41.6055,-229.262 L 42.0701,-229.663 L 42.5538,-230.04 L 43.0554,-230.393 L 43.5737,-230.722 L 44.1075,-231.024
 L 44.6555,-231.3 L 45.2164,-231.548 L 45.7889,-231.769 L 46.3714,-231.962 L 46.9627,-232.125 L 47.5614,-232.26
 L 48.1659,-232.365 L 48.7748,-232.44 L 49.3866,-232.485 L 50,-232.5 L 50.6133,-232.485 L 51.2252,-232.44
 L 51.8341,-232.365 L 52.4386,-232.26 L 53.0372,-232.125 L 53.6286,-231.962 L 54.2111,-231.769 L 54.7835,-231.548
 L 55.3444,-231.3 L 55.8925,-231.024 L 56.4263,-230.722 L 56.9446,-230.393 L 57.4462,-230.04 L 57.9299,-229.663
 L 58.3945,-229.262 L 58.8388,-228.839 L 59.2619,-228.394 L 59.6626,-227.93 L 60.0401,-227.446 L 60.3934,-226.945
 L 60.7216,-226.426 L 61.024,-225.892 L 61.2999,-225.344 L 61.5485,-224.784 L 61.7693,-224.211 L 61.9617,-223.629
 L 62.1254,-223.037 L 62.2598,-222.439 L 62.3647,-221.834 L 62.4398,-221.225 L 62.4849,-220.613 L 62.5,-220
 L 62.4849,-219.387 L 62.4398,-218.775 L 62.3647,-218.166 L 62.2598,-217.561 L 62.1254,-216.963 L 61.9617,-216.371
 L 61.7693,-215.789 L 61.5485,-215.216 L 61.2999,-214.656 L 61.024,-214.108 L 60.7216,-213.574 L 60.3934,-213.055
 L 60.0401,-212.554 L 59.6626,-212.07 L 59.2619,-211.605 L 58.8388,-211.161 L 58.3945,-210.738 L 57.9299,-210.337
 L 57.4462,-209.96 L 56.9446,-209.607 L 56.4263,-209.278 L 55.8925,-208.976 L 55.3444,-208.7 L 54.7835,-208.451
 L 54.2111,-208.231 L 53.6286,-208.038 L 53.0372,-207.875 L 52.4386,-207.74 L 51.8341,-207.635 L 51.2252,-207.56
 L 50.6133,-207.515 L 50,-207.5 z
M 189.387,-207.515 L 188.775,-207.56 L 188.166,-207.635 L 187.561,-207.74 L 186.963,-207.875 L 186.371,-208.038
 L 185.789,-208.231 L 185.216,-208.451 L 184.656,-208.7 L 184.108,-208.976 L 183.574,-209.278 L 183.055,-209.607
 L 182.554,-209.96 L 182.07,-210.337 L 181.605,-210.738 L 181.161,-211.161 L 180.738,-211.605 L 180.337,-212.07
 L 179.96,-212.554 L 179.607,-213.055 L 179.278,-213.574 L 178.976,-214.108 L 178.7,-214.656 L 178.451,-215.216
 L 178.231,-215.789 L 178.038,-216.371 L 177.875,-216.963 L 177.74,-217.561 L 177.635,-218.166 L 177.56,-218.775
 L 177.515,-219.387 L 177.5,-220 L 177.515,-220.613 L 177.56,-221.225 L 177.635,-221.834 L 177.74,-222.439
 L 177.875,-223.037 L 178.038,-223.629 L 178.231,-224.211 L 178.451,-224.784 L 178.7,-225.344 L 178.976,-225.892
 L 179.278,-226.426 L 179.607,-226.945 L 179.96,-227.446 L 180.337,-227.93 L 180.738,-228.394 L 181.161,-228.839
 L 181.605,-229.262 L 182.07,-229.663 L 182.554,-230.04 L 183.055,-230.393 L 183.574,-230.722 L 184.108,-231.024
 L 184.656,-231.3 L 185.216,-231.548 L 185.789,-231.769 L 186.371,-231.962 L 186.963,-232.125 L 187.561,-232.26
 L 188.166,-232.365 L 188.775,-232.44 L 189.387,-232.485 L 190,-232.5 L 190.613,-232.485 L 191.225,-232.44
 L 191.834,-232.365 L 192.439,-232.26 L 193.037,-232.125 L 193.629,-231.962 L 194.211,-231.769 L 194.784,-231.548
 L 195.344,-231.3 L 195.892,-231.024 L 196.426,-230.722 L 196.945,-230.393 L 197.446,-230.04 L 197.93,-229.663
 L 198.394,-229.262 L 198.839,-228.839 L 199.262,-228.394 L 199.663,-227.93 L 200.04,-227.446 L 200.393,-226.945
 L 200.722,-226.426 L 201.024,-225.892 L 201.3,-225.344 L 201.548,-224.784 L 201.769,-224.211 L 201.962,-223.629
 L 202.125,-223.037 L 202.26,-222.439 L 202.365,-221.834 L 202.44,-221.225 L 202.485,-220.613 L 202.5,-220
 L 202.485,-219.387 L 202.44,-218.775 L 202.365,-218.166 L 202.26,-217.561 L 202.125,-216.963 L 201.962,-216.371
 L 201.769,-215.789 L 201.548,-215.216 L 201.3,-214.656 L 201.024,-214.108 L 200.722,-213.574 L 200.393,-213.055
 L 200.04,-212.554 L 199.663,-212.07 L 199.262,-211.605 L 198.839,-211.161 L 198.394,-210.738 L 197.93,-210.337
 L 197.446,-209.96 L 196.945,-209.607 L 196.426,-209.278 L 195.892,-208.976 L 195.344,-208.7 L 194.784,-208.451
 L 194.211,-208.231 L 193.629,-208.038 L 193.037,-207.875 L 192.439,-207.74 L 191.834,-207.635 L 191.225,-207.56
 L 190.613,-207.515 L 190,-207.5 z
M 189.387,-87.515 L 188.775,-87.5602 L 188.166,-87.6353 L 187.561,-87.7402 L 186.963,-87.8746 L 186.371,-88.0382
 L 185.789,-88.2307 L 185.216,-88.4515 L 184.656,-88.7001 L 184.108,-88.976 L 183.574,-89.2784 L 183.055,-89.6066
 L 182.554,-89.9599 L 182.07,-90.3374 L 181.605,-90.7381 L 181.161,-91.1612 L 180.738,-91.6055 L 180.337,-92.0701
 L 179.96,-92.5538 L 179.607,-93.0554 L 179.278,-93.5737 L 178.976,-94.1075 L 178.7,-94.6555 L 178.451,-95.2164
 L 178.231,-95.7889 L 178.038,-96.3714 L 177.875,-96.9627 L 177.74,-97.5614 L 177.635,-98.1659 L 177.56,-98.7748
 L 177.515,-99.3866 L 177.5,-100 L 177.515,-100.613 L 177.56,-101.225 L 177.635,-101.834 L 177.74,-102.439
 L 177.875,-103.037 L 178.038,-103.629 L 178.231,-104.211 L 178.451,-104.784 L 178.7,-105.344 L 178.976,-105.892
 L 179.278,-106.426 L 179.607,-106.945 L 179.96,-107.446 L 180.337,-107.93 L 180.738,-108.394 L 181.161,-108.839
 L 181.605,-109.262 L 182.07,-109.663 L 182.554,-110.04 L 183.055,-110.393 L 183.574,-110.722 L 184.108,-111.024
 L 184.656,-111.3 L 185.216,-111.548 L 185.789,-111.769 L 186.371,-111.962 L 186.963,-112.125 L 187.561,-112.26
 L 188.166,-112.365 L 188.775,-112.44 L 189.387,-112.485 L 190,-112.5 L 190.613,-112.485 L 191.225,-112.44
 L 191.834,-112.365 L 192.439,-112.26 L 193.037,-112.125 L 193.629,-111.962 L 194.211,-111.769 L 194.784,-111.548
 L 195.344,-111.3 L 195.892,-111.024 L 196.426,-110.722 L 196.945,-110.393 L 197.446,-110.04 L 197.93,-109.663
 L 198.394,-109.262 L 198.839,-108.839 L 199.262,-108.394 L 199.663,-107.93 L 200.04,-107.446 L 200.393,-106.945
 L 200.722,-106.426 L 201.024,-105.892 L 201.3,-105.344 L 201.548,-104.784 L 201.769,-104.211 L 201.962,-103.629
 L 202.125,-103.037 L 202.26,-102.439 L 202.365,-101.834 L 202.44,-101.225 L 202.485,-100.613 L 202.5,-100
 L 202.485,-99.3866 L 202.44,-98.7748 L 202.365,-98.1659 L 202.26,-97.5614 L 202.125,-96.9627 L 201.962,-96.3714
 L 201.769,-95.7889 L 201.548,-95.2164 L 201.3,-94.6555 L 201.024,-94.1075 L 200.722,-93.5737 L 200.393,-93.0554
 L 200.04,-92.5538 L 199.663,-92.0701 L 199.262,-91.6055 L 198.839,-91.1612 L 198.394,-90.7381 L 197.93,-90.3374
 L 197.446,-89.9599 L 196.945,-89.6066 L 196.426,-89.2784 L 195.892,-88.976 L 195.344,-88.7001 L 194.784,-88.4515
 L 194.211,-88.2307 L 193.629,-88.0382 L 193.037,-87.8746 L 192.439,-87.7402 L 191.834,-87.6353 L 191.225,-87.5602
 L 190.613,-87.515 L 190,-87.5 z
M 49.3866,-87.515 L 48.7748,-87.5602 L 48.1659,-87.6353 L 47.5614,-87.7402 L 46.9627,-87.8746 L 46.3714,-88.0382
 L 45.7889,-88.2307 L 45.2164,-88.4515 L 44.6555,-88.7001 L 44.1075,-88.976 L 43.5737,-89.2784 L 43.0554,-89.6066
 L 42.5538,-89.9599 L 42.0701,-90.3374 L 41.6055,-90.7381 L 41.1612,-91.1612 L 40.7381,-91.6055 L 40.3374,-92.0701
 L 39.9599,-92.5538 L 39.6066,-93.0554 L 39.2784,-93.5737 L 38.976,-94.1075 L 38.7001,-94.6555 L 38.4515,-95.2164
 L 38.2307,-95.7889 L 38.0382,-96.3714 L 37.8746,-96.9627 L 37.7402,-97.5614 L 37.6353,-98.1659 L 37.5602,-98.7748
 L 37.515,-99.3866 L 37.5,-100 L 37.515,-100.613 L 37.5602,-101.225 L 37.6353,-101.834 L 37.7402,-102.439
 L 37.8746,-103.037 L 38.0382,-103.629 L 38.2307,-104.211 L 38.4515,-104.784 L 38.7001,-105.344 L 38.976,-105.892
 L 39.2784,-106.426 L 39.6066,-106.945 L 39.9599,-107.446 L 40.3374,-107.93 L 40.7381,-108.394 L 41.1612,-108.839
 L 41.6055,-109.262 L 42.0701,-109.663 L 42.5538,-110.04 L 43.0554,-110.393 L 43.5737,-110.722 L 44.1075,-111.024
 L 44.6555,-111.3 L 45.2164,-111.548 L 45.7889,-111.769 L 46.3714,-111.962 L 46.9627,-112.125 L 47.5614,-112.26
 L 48.1659,-112.365 L 48.7748,-112.44 L 49.3866,-112.485 L 50,-112.5 L 50.6133,-112.485 L 51.2252,-112.44
 L 51.8341,-112.365 L 52.4386,-112.26 L 53.0372,-112.125 L 53.6286,-111.962 L 54.2111,-111.769 L 54.7835,-111.548
 L 55.3444,-111.3 L 55.8925,-111.024 L 56.4263,-110.722 L 56.9446,-110.393 L 57.4462,-110.04 L 57.9299,-109.663
 L 58.3945,-109.262 L 58.8388,-108.839 L 59.2619,-108.394 L 59.6626,-107.93 L 60.0401,-107.446 L 60.3934,-106.945
 L 60.7216,-106.426 L 61.024,-105.892 L 61.2999,-105.344 L 61.5485,-104.784 L 61.7693,-104.211 L 61.9617,-103.629
 L 62.1254,-103.037 L 62.2598,-102.439 L 62.3647,-101.834 L 62.4398,-101.225 L 62.4849,-100.613 L 62.5,-100
 L 62.4849,-99.3866 L 62.4398,-98.7748 L 62.3647,-98.1659 L 62.2598,-97.5614 L 62.1254,-96.9627 L 61.9617,-96.3714
 L 61.7693,-95.7889 L 61.5485,-95.2164 L 61.2999,-94.6555 L 61.024,-94.1075 L 60.7216,-93.5737 L 60.3934,-93.0554
 L 60.0401,-92.5538 L 59.6626,-92.0701 L 59.2619,-91.6055 L 58.8388,-91.1612 L 58.3945,-90.7381 L 57.9299,-90.3374
 L 57.4462,-89.9599 L 56.9446,-89.6066 L 56.4263,-89.2784 L 55.8925,-88.976 L 55.3444,-88.7001 L 54.7835,-88.4515
 L 54.2111,-88.2307 L 53.6286,-88.0382 L 53.0372,-87.8746 L 52.4386,-87.7402 L 51.8341,-87.6353 L 51.2252,-87.5602
 L 50.6133,-87.515 L 50,-87.5 z
M 200,-25 L 199.426,-25.1142 L 198.939,-25.4393 L 198.614,-25.926 L 198.5,-26.5 L 198.5,-33.5
 L 198.614,-34.074 L 198.939,-34.5607 L 199.426,-34.8858 L 200,-35 L 210,-35 L 210.574,-34.8858
 L 211.061,-34.5607 L 211.386,-34.074 L 211.5,-33.5 L 211.5,-26.5 L 211.386,-25.926 L 211.061,-25.4393
 L 210.574,-25.1142 L 210,-25 z
M 19.8896,-5.2527 L 19.7794,-5.26083 L 19.6698,-5.27434 L 19.561,-5.29323 L 19.4533,-5.31743 L 19.3468,-5.34688
 L 19.242,-5.38152 L 19.139,-5.42126 L 19.038,-5.46602 L 18.9393,-5.51567 L 18.8433,-5.5701 L 18.75,-5.62918
 L 18.6597,-5.69278 L 18.5726,-5.76071 L 18.489,-5.83286 L 18.409,-5.909 L 18.3329,-5.98898 L 18.2607,-6.0726
 L 18.1928,-6.15967 L 18.1292,-6.24995 L 18.0701,-6.34326 L 18.0157,-6.43935 L 17.966,-6.53799 L 17.9213,-6.63896
 L 17.8815,-6.74199 L 17.8469,-6.84685 L 17.8174,-6.95329 L 17.7932,-7.06104 L 17.7743,-7.16985 L 17.7608,-7.27945
 L 17.7527,-7.38959 L 17.75,-7.5 L 17.7527,-7.6104 L 17.7608,-7.72054 L 17.7743,-7.83014 L 17.7932,-7.93895
 L 17.8174,-8.04669 L 17.8469,-8.15314 L 17.8815,-8.258 L 17.9213,-8.36102 L 17.966,-8.46199 L 18.0157,-8.56064
 L 18.0701,-8.65672 L 18.1292,-8.75003 L 18.1928,-8.84032 L 18.2607,-8.92738 L 18.3329,-9.011 L 18.409,-9.09099
 L 18.489,-9.16713 L 18.5726,-9.23927 L 18.6597,-9.30721 L 18.75,-9.3708 L 18.8433,-9.42989 L 18.9393,-9.48431
 L 19.038,-9.53397 L 19.139,-9.57872 L 19.242,-9.61847 L 19.3468,-9.65311 L 19.4533,-9.68256 L 19.561,-9.70676
 L 19.6698,-9.72565 L 19.7794,-9.73915 L 19.8896,-9.74728 L 20,-9.75 L 20.1104,-9.74728 L 20.2205,-9.73915
 L 20.3301,-9.72565 L 20.4389,-9.70676 L 20.5467,-9.68256 L 20.6531,-9.65311 L 20.758,-9.61847 L 20.861,-9.57872
 L 20.962,-9.53397 L 21.0606,-9.48431 L 21.1567,-9.42989 L 21.25,-9.3708 L 21.3403,-9.30721 L 21.4274,-9.23927
 L 21.511,-9.16713 L 21.591,-9.09099 L 21.6671,-9.011 L 21.7393,-8.92738 L 21.8072,-8.84032 L 21.8708,-8.75003
 L 21.9299,-8.65672 L 21.9843,-8.56064 L 22.034,-8.46199 L 22.0787,-8.36102 L 22.1185,-8.258 L 22.1531,-8.15314
 L 22.1826,-8.04669 L 22.2068,-7.93895 L 22.2256,-7.83014 L 22.2392,-7.72054 L 22.2473,-7.6104 L 22.25,-7.5
 L 22.2473,-7.38959 L 22.2392,-7.27945 L 22.2256,-7.16985 L 22.2068,-7.06104 L 22.1826,-6.95329 L 22.1531,-6.84685
 L 22.1185,-6.74199 L 22.0787,-6.63896 L 22.034,-6.53799 L 21.9843,-6.43935 L 21.9299,-6.34326 L 21.8708,-6.24995
 L 21.8072,-6.15967 L 21.7393,-6.0726 L 21.6671,-5.98898 L 21.591,-5.909 L 21.511,-5.83286 L 21.4274,-5.76071
 L 21.3403,-5.69278 L 21.25,-5.62918 L 21.1567,-5.5701 L 21.0606,-5.51567 L 20.962,-5.46602 L 20.861,-5.42126
 L 20.758,-5.38152 L 20.6531,-5.34688 L 20.5467,-5.31743 L 20.4389,-5.29323 L 20.3301,-5.27434 L 20.2205,-5.26083
 L 20.1104,-5.2527 L 20,-5.25 z
M 473,-30 L 473,-300 L 238,-300 L 238,-0 L 433,-0 z
M 452.89,-290.253 L 452.779,-290.261 L 452.67,-290.274 L 452.561,-290.293 L 452.453,-290.317 L 452.347,-290.347
 L 452.242,-290.382 L 452.139,-290.421 L 452.038,-290.466 L 451.939,-290.516 L 451.843,-290.57 L 451.75,-290.629
 L 451.66,-290.693 L 451.573,-290.761 L 451.489,-290.833 L 451.409,-290.909 L 451.333,-290.989 L 451.261,-291.073
 L 451.193,-291.16 L 451.129,-291.25 L 451.07,-291.343 L 451.016,-291.439 L 450.966,-291.538 L 450.921,-291.639
 L 450.882,-291.742 L 450.847,-291.847 L 450.817,-291.953 L 450.793,-292.061 L 450.774,-292.17 L 450.761,-292.279
 L 450.753,-292.39 L 450.75,-292.5 L 450.753,-292.61 L 450.761,-292.721 L 450.774,-292.83 L 450.793,-292.939
 L 450.817,-293.047 L 450.847,-293.153 L 450.882,-293.258 L 450.921,-293.361 L 450.966,-293.462 L 451.016,-293.561
 L 451.07,-293.657 L 451.129,-293.75 L 451.193,-293.84 L 451.261,-293.927 L 451.333,-294.011 L 451.409,-294.091
 L 451.489,-294.167 L 451.573,-294.239 L 451.66,-294.307 L 451.75,-294.371 L 451.843,-294.43 L 451.939,-294.484
 L 452.038,-294.534 L 452.139,-294.579 L 452.242,-294.618 L 452.347,-294.653 L 452.453,-294.683 L 452.561,-294.707
 L 452.67,-294.726 L 452.779,-294.739 L 452.89,-294.747 L 453,-294.75 L 453.11,-294.747 L 453.221,-294.739
 L 453.33,-294.726 L 453.439,-294.707 L 453.547,-294.683 L 453.653,-294.653 L 453.758,-294.618 L 453.861,-294.579
 L 453.962,-294.534 L 454.061,-294.484 L 454.157,-294.43 L 454.25,-294.371 L 454.34,-294.307 L 454.427,-294.239
 L 454.511,-294.167 L 454.591,-294.091 L 454.667,-294.011 L 454.739,-293.927 L 454.807,-293.84 L 454.871,-293.75
 L 454.93,-293.657 L 454.984,-293.561 L 455.034,-293.462 L 455.079,-293.361 L 455.118,-293.258 L 455.153,-293.153
 L 455.183,-293.047 L 455.207,-292.939 L 455.226,-292.83 L 455.239,-292.721 L 455.247,-292.61 L 455.25,-292.5
 L 455.247,-292.39 L 455.239,-292.279 L 455.226,-292.17 L 455.207,-292.061 L 455.183,-291.953 L 455.153,-291.847
 L 455.118,-291.742 L 455.079,-291.639 L 455.034,-291.538 L 454.984,-291.439 L 454.93,-291.343 L 454.871,-291.25
 L 454.807,-291.16 L 454.739,-291.073 L 454.667,-290.989 L 454.591,-290.909 L 454.511,-290.833 L 454.427,-290.761
 L 454.34,-290.693 L 454.25,-290.629 L 454.157,-290.57 L 454.061,-290.516 L 453.962,-290.466 L 453.861,-290.421
 L 453.758,-290.382 L 453.653,-290.347 L 453.547,-290.317 L 453.439,-290.293 L 453.33,-290.274 L 453.221,-290.261
 L 453.11,-290.253 L 453,-290.25 z
M 272.426,-265.114 L 271.939,-265.439 L 271.614,-265.926 L 271.5,-266.5 L 271.5,-273.5 L 271.614,-274.074
 L 271.939,-274.561 L 272.426,-274.886 L 273,-275 L 273.574,-274.886 L 274.061,-274.561 L 274.386,-274.074
 L 274.5,-273.5 L 274.5,-266.5 L 274.386,-265.926 L 274.061,-265.439 L 273.574,-265.114 L 273,-265
 z
M 262.426,-265.114 L 261.939,-265.439 L 261.614,-265.926 L 261.5,-266.5 L 261.5,-273.5 L 261.614,-274.074
 L 261.939,-274.561 L 262.426,-274.886 L 263,-275 L 263.574,-274.886 L 264.061,-274.561 L 264.386,-274.074
 L 264.5,-273.5 L 264.5,-266.5 L 264.386,-265.926 L 264.061,-265.439 L 263.574,-265.114 L 263,-265
 z
M 282.897,-197.903 L 282.794,-197.91 L 282.692,-197.923 L 282.59,-197.94 L 282.49,-197.963 L 282.39,-197.99
 L 282.293,-198.023 L 282.196,-198.06 L 282.102,-198.102 L 282.01,-198.148 L 281.92,-198.199 L 281.833,-198.254
 L 281.749,-198.313 L 281.668,-198.377 L 281.59,-198.444 L 281.515,-198.515 L 281.444,-198.59 L 281.377,-198.668
 L 281.313,-198.749 L 281.254,-198.833 L 281.199,-198.92 L 281.148,-199.01 L 281.102,-199.102 L 281.06,-199.196
 L 281.023,-199.293 L 280.99,-199.39 L 280.963,-199.49 L 280.94,-199.59 L 280.923,-199.692 L 280.91,-199.794
 L 280.903,-199.897 L 280.9,-200 L 280.903,-200.103 L 280.91,-200.206 L 280.923,-200.308 L 280.94,-200.41
 L 280.963,-200.51 L 280.99,-200.61 L 281.023,-200.707 L 281.06,-200.804 L 281.102,-200.898 L 281.148,-200.99
 L 281.199,-201.08 L 281.254,-201.167 L 281.313,-201.251 L 281.377,-201.332 L 281.444,-201.41 L 281.515,-201.485
 L 281.59,-201.556 L 281.668,-201.623 L 281.749,-201.687 L 281.833,-201.746 L 281.92,-201.801 L 282.01,-201.852
 L 282.102,-201.898 L 282.196,-201.94 L 282.293,-201.977 L 282.39,-202.01 L 282.49,-202.037 L 282.59,-202.06
 L 282.692,-202.077 L 282.794,-202.09 L 282.897,-202.097 L 283,-202.1 L 283.103,-202.097 L 283.206,-202.09
 L 283.308,-202.077 L 283.41,-202.06 L 283.51,-202.037 L 283.61,-202.01 L 283.707,-201.977 L 283.804,-201.94
 L 283.898,-201.898 L 283.99,-201.852 L 284.08,-201.801 L 284.167,-201.746 L 284.251,-201.687 L 284.332,-201.623
 L 284.41,-201.556 L 284.485,-201.485 L 284.556,-201.41 L 284.623,-201.332 L 284.687,-201.251 L 284.746,-201.167
 L 284.801,-201.08 L 284.852,-200.99 L 284.898,-200.898 L 284.94,-200.804 L 284.977,-200.707 L 285.01,-200.61
 L 285.037,-200.51 L 285.06,-200.41 L 285.077,-200.308 L 285.09,-200.206 L 285.097,-200.103 L 285.1,-200
 L 285.097,-199.897 L 285.09,-199.794 L 285.077,-199.692 L 285.06,-199.59 L 285.037,-199.49 L 285.01,-199.39
 L 284.977,-199.293 L 284.94,-199.196 L 284.898,-199.102 L 284.852,-199.01 L 284.801,-198.92 L 284.746,-198.833
 L 284.687,-198.749 L 284.623,-198.668 L 284.556,-198.59 L 284.485,-198.515 L 284.41,-198.444 L 284.332,-198.377
 L 284.251,-198.313 L 284.167,-198.254 L 284.08,-198.199 L 283.99,-198.148 L 283.898,-198.102 L 283.804,-198.06
 L 283.707,-198.023 L 283.61,-197.99 L 283.51,-197.963 L 283.41,-197.94 L 283.308,-197.923 L 283.206,-197.91
 L 283.103,-197.903 L 283,-197.9 z
M 422.897,-197.903 L 422.794,-197.91 L 422.692,-197.923 L 422.59,-197.94 L 422.49,-197.963 L 422.39,-197.99
 L 422.293,-198.023 L 422.196,-198.06 L 422.102,-198.102 L 422.01,-198.148 L 421.92,-198.199 L 421.833,-198.254
 L 421.749,-198.313 L 421.668,-198.377 L 421.59,-198.444 L 421.515,-198.515 L 421.444,-198.59 L 421.377,-198.668
 L 421.313,-198.749 L 421.254,-198.833 L 421.199,-198.92 L 421.148,-199.01 L 421.102,-199.102 L 421.06,-199.196
 L 421.023,-199.293 L 420.99,-199.39 L 420.963,-199.49 L 420.94,-199.59 L 420.923,-199.692 L 420.91,-199.794
 L 420.903,-199.897 L 420.9,-200 L 420.903,-200.103 L 420.91,-200.206 L 420.923,-200.308 L 420.94,-200.41
 L 420.963,-200.51 L 420.99,-200.61 L 421.023,-200.707 L 421.06,-200.804 L 421.102,-200.898 L 421.148,-200.99
 L 421.199,-201.08 L 421.254,-201.167 L 421.313,-201.251 L 421.377,-201.332 L 421.444,-201.41 L 421.515,-201.485
 L 421.59,-201.556 L 421.668,-201.623 L 421.749,-201.687 L 421.833,-201.746 L 421.92,-201.801 L 422.01,-201.852
 L 422.102,-201.898 L 422.196,-201.94 L 422.293,-201.977 L 422.39,-202.01 L 422.49,-202.037 L 422.59,-202.06
 L 422.692,-202.077 L 422.794,-202.09 L 422.897,-202.097 L 423,-202.1 L 423.103,-202.097 L 423.206,-202.09
 L 423.308,-202.077 L 423.41,-202.06 L 423.51,-202.037 L 423.61,-202.01 L 423.707,-201.977 L 423.804,-201.94
 L 423.898,-201.898 L 423.99,-201.852 L 424.08,-201.801 L 424.167,-201.746 L 424.251,-201.687 L 424.332,-201.623
 L 424.41,-201.556 L 424.485,-201.485 L 424.556,-201.41 L 424.623,-201.332 L 424.687,-201.251 L 424.746,-201.167
 L 424.801,-201.08 L 424.852,-200.99 L 424.898,-200.898 L 424.94,-200.804 L 424.977,-200.707 L 425.01,-200.61
 L 425.037,-200.51 L 425.06,-200.41 L 425.077,-200.308 L 425.09,-200.206 L 425.097,-200.103 L 425.1,-200
 L 425.097,-199.897 L 425.09,-199.794 L 425.077,-199.692 L 425.06,-199.59 L 425.037,-199.49 L 425.01,-199.39
 L 424.977,-199.293 L 424.94,-199.196 L 424.898,-199.102 L 424.852,-199.01 L 424.801,-198.92 L 424.746,-198.833
 L 424.687,-198.749 L 424.623,-198.668 L 424.556,-198.59 L 424.485,-198.515 L 424.41,-198.444 L 424.332,-198.377
 L 424.251,-198.313 L 424.167,-198.254 L 424.08,-198.199 L 423.99,-198.148 L 423.898,-198.102 L 423.804,-198.06
 L 423.707,-198.023 L 423.61,-197.99 L 423.51,-197.963 L 423.41,-197.94 L 423.308,-197.923 L 423.206,-197.91
 L 423.103,-197.903 L 423,-197.9 z
M 282.897,-77.9025 L 282.794,-77.9101 L 282.692,-77.9227 L 282.59,-77.9404 L 282.49,-77.9629 L 282.39,-77.9904
 L 282.293,-78.0228 L 282.196,-78.0599 L 282.102,-78.1016 L 282.01,-78.148 L 281.92,-78.1988 L 281.833,-78.2539
 L 281.749,-78.3133 L 281.668,-78.3767 L 281.59,-78.444 L 281.515,-78.5151 L 281.444,-78.5897 L 281.377,-78.6678
 L 281.313,-78.749 L 281.254,-78.8333 L 281.199,-78.9204 L 281.148,-79.0101 L 281.102,-79.1021 L 281.06,-79.1964
 L 281.023,-79.2925 L 280.99,-79.3904 L 280.963,-79.4897 L 280.94,-79.5903 L 280.923,-79.6919 L 280.91,-79.7942
 L 280.903,-79.897 L 280.9,-80 L 280.903,-80.103 L 280.91,-80.2058 L 280.923,-80.3081 L 280.94,-80.4097
 L 280.963,-80.5103 L 280.99,-80.6096 L 281.023,-80.7075 L 281.06,-80.8036 L 281.102,-80.8979 L 281.148,-80.9899
 L 281.199,-81.0796 L 281.254,-81.1667 L 281.313,-81.251 L 281.377,-81.3322 L 281.444,-81.4103 L 281.515,-81.4849
 L 281.59,-81.556 L 281.668,-81.6233 L 281.749,-81.6867 L 281.833,-81.7461 L 281.92,-81.8012 L 282.01,-81.852
 L 282.102,-81.8984 L 282.196,-81.9402 L 282.293,-81.9772 L 282.39,-82.0096 L 282.49,-82.0371 L 282.59,-82.0597
 L 282.692,-82.0773 L 282.794,-82.0899 L 282.897,-82.0975 L 283,-82.1 L 283.103,-82.0975 L 283.206,-82.0899
 L 283.308,-82.0773 L 283.41,-82.0597 L 283.51,-82.0371 L 283.61,-82.0096 L 283.707,-81.9772 L 283.804,-81.9402
 L 283.898,-81.8984 L 283.99,-81.852 L 284.08,-81.8012 L 284.167,-81.7461 L 284.251,-81.6867 L 284.332,-81.6233
 L 284.41,-81.556 L 284.485,-81.4849 L 284.556,-81.4103 L 284.623,-81.3322 L 284.687,-81.251 L 284.746,-81.1667
 L 284.801,-81.0796 L 284.852,-80.9899 L 284.898,-80.8979 L 284.94,-80.8036 L 284.977,-80.7075 L 285.01,-80.6096
 L 285.037,-80.5103 L 285.06,-80.4097 L 285.077,-80.3081 L 285.09,-80.2058 L 285.097,-80.103 L 285.1,-80
 L 285.097,-79.897 L 285.09,-79.7942 L 285.077,-79.6919 L 285.06,-79.5903 L 285.037,-79.4897 L 285.01,-79.3904
 L 284.977,-79.2925 L 284.94,-79.1964 L 284.898,-79.1021 L 284.852,-79.0101 L 284.801,-78.9204 L 284.746,-78.8333
 L 284.687,-78.749 L 284.623,-78.6678 L 284.556,-78.5897 L 284.485,-78.5151 L 284.41,-78.444 L 284.332,-78.3767
 L 284.251,-78.3133 L 284.167,-78.2539 L 284.08,-78.1988 L 283.99,-78.148 L 283.898,-78.1016 L 283.804,-78.0599
 L 283.707,-78.0228 L 283.61,-77.9904 L 283.51,-77.9629 L 283.41,-77.9404 L 283.308,-77.9227 L 283.206,-77.9101
 L 283.103,-77.9025 L 283,-77.9 z
M 422.897,-77.9025 L 422.794,-77.9101 L 422.692,-77.9227 L 422.59,-77.9404 L 422.49,-77.9629 L 422.39,-77.9904
 L 422.293,-78.0228 L 422.196,-78.0599 L 422.102,-78.1016 L 422.01,-78.148 L 421.92,-78.1988 L 421.833,-78.2539
 L 421.749,-78.3133 L 421.668,-78.3767 L 421.59,-78.444 L 421.515,-78.5151 L 421.444,-78.5897 L 421.377,-78.6678
 L 421.313,-78.749 L 421.254,-78.8333 L 421.199,-78.9204 L 421.148,-79.0101 L 421.102,-79.1021 L 421.06,-79.1964
 L 421.023,-79.2925 L 420.99,-79.3904 L 420.963,-79.4897 L 420.94,-79.5903 L 420.923,-79.6919 L 420.91,-79.7942
 L 420.903,-79.897 L 420.9,-80 L 420.903,-80.103 L 420.91,-80.2058 L 420.923,-80.3081 L 420.94,-80.4097
 L 420.963,-80.5103 L 420.99,-80.6096 L 421.023,-80.7075 L 421.06,-80.8036 L 421.102,-80.8979 L 421.148,-80.9899
 L 421.199,-81.0796 L 421.254,-81.1667 L 421.313,-81.251 L 421.377,-81.3322 L 421.444,-81.4103 L 421.515,-81.4849
 L 421.59,-81.556 L 421.668,-81.6233 L 421.749,-81.6867 L 421.833,-81.7461 L 421.92,-81.8012 L 422.01,-81.852
 L 422.102,-81.8984 L 422.196,-81.9402 L 422.293,-81.9772 L 422.39,-82.0096 L 422.49,-82.0371 L 422.59,-82.0597
 L 422.692,-82.0773 L 422.794,-82.0899 L 422.897,-82.0975 L 423,-82.1 L 423.103,-82.0975 L 423.206,-82.0899
 L 423.308,-82.0773 L 423.41,-82.0597 L 423.51,-82.0371 L 423.61,-82.0096 L 423.707,-81.9772 L 423.804,-81.9402
 L 423.898,-81.8984 L 423.99,-81.852 L 424.08,-81.8012 L 424.167,-81.7461 L 424.251,-81.6867 L 424.332,-81.6233
 L 424.41,-81.556 L 424.485,-81.4849 L 424.556,-81.4103 L 424.623,-81.3322 L 424.687,-81.251 L 424.746,-81.1667
 L 424.801,-81.0796 L 424.852,-80.9899 L 424.898,-80.8979 L 424.94,-80.8036 L 424.977,-80.7075 L 425.01,-80.6096
 L 425.037,-80.5103 L 425.06,-80.4097 L 425.077,-80.3081 L 425.09,-80.2058 L 425.097,-80.103 L 425.1,-80
 L 425.097,-79.897 L 425.09,-79.7942 L 425.077,-79.6919 L 425.06,-79.5903 L 425.037,-79.4897 L 425.01,-79.3904
 L 424.977,-79.2925 L 424.94,-79.1964 L 424.898,-79.1021 L 424.852,-79.0101 L 424.801,-78.9204 L 424.746,-78.8333
 L 424.687,-78.749 L 424.623,-78.6678 L 424.556,-78.5897 L 424.485,-78.5151 L 424.41,-78.444 L 424.332,-78.3767
 L 424.251,-78.3133 L 424.167,-78.2539 L 424.08,-78.1988 L 423.99,-78.148 L 423.898,-78.1016 L 423.804,-78.0599
 L 423.707,-78.0228 L 423.61,-77.9904 L 423.51,-77.9629 L 423.41,-77.9404 L 423.308,-77.9227 L 423.206,-77.9101
 L 423.103,-77.9025 L 423,-77.9 z
M 410.89,-5.25272 L 410.779,-5.26085 L 410.67,-5.27435 L 410.561,-5.29324 L 410.453,-5.31744 L 410.347,-5.34689
 L 410.242,-5.38153 L 410.139,-5.42128 L 410.038,-5.46603 L 409.939,-5.51569 L 409.843,-5.57011 L 409.75,-5.6292
 L 409.66,-5.69279 L 409.573,-5.76073 L 409.489,-5.83287 L 409.409,-5.90901 L 409.333,-5.989 L 409.261,-6.07262
 L 409.193,-6.15968 L 409.129,-6.24997 L 409.07,-6.34328 L 409.016,-6.43936 L 408.966,-6.53801 L 408.921,-6.63898
 L 408.882,-6.742 L 408.847,-6.84686 L 408.817,-6.95331 L 408.793,-7.06105 L 408.774,-7.16986 L 408.761,-7.27946
 L 408.753,-7.3896 L 408.75,-7.5 L 408.753,-7.61041 L 408.761,-7.72055 L 408.774,-7.83015 L 408.793,-7.93896
 L 408.817,-8.04671 L 408.847,-8.15315 L 408.882,-8.25801 L 408.921,-8.36104 L 408.966,-8.46201 L 409.016,-8.56065
 L 409.07,-8.65674 L 409.129,-8.75005 L 409.193,-8.84033 L 409.261,-8.9274 L 409.333,-9.01102 L 409.409,-9.091
 L 409.489,-9.16714 L 409.573,-9.23929 L 409.66,-9.30722 L 409.75,-9.37082 L 409.843,-9.4299 L 409.939,-9.48433
 L 410.038,-9.53398 L 410.139,-9.57874 L 410.242,-9.61848 L 410.347,-9.65312 L 410.453,-9.68257 L 410.561,-9.70677
 L 410.67,-9.72566 L 410.779,-9.73917 L 410.89,-9.7473 L 411,-9.75 L 411.11,-9.7473 L 411.221,-9.73917
 L 411.33,-9.72566 L 411.439,-9.70677 L 411.547,-9.68257 L 411.653,-9.65312 L 411.758,-9.61848 L 411.861,-9.57874
 L 411.962,-9.53398 L 412.061,-9.48433 L 412.157,-9.4299 L 412.25,-9.37082 L 412.34,-9.30722 L 412.427,-9.23929
 L 412.511,-9.16714 L 412.591,-9.091 L 412.667,-9.01102 L 412.739,-8.9274 L 412.807,-8.84033 L 412.871,-8.75005
 L 412.93,-8.65674 L 412.984,-8.56065 L 413.034,-8.46201 L 413.079,-8.36104 L 413.118,-8.25801 L 413.153,-8.15315
 L 413.183,-8.04671 L 413.207,-7.93896 L 413.226,-7.83015 L 413.239,-7.72055 L 413.247,-7.61041 L 413.25,-7.5
 L 413.247,-7.3896 L 413.239,-7.27946 L 413.226,-7.16986 L 413.207,-7.06105 L 413.183,-6.95331 L 413.153,-6.84686
 L 413.118,-6.742 L 413.079,-6.63898 L 413.034,-6.53801 L 412.984,-6.43936 L 412.93,-6.34328 L 412.871,-6.24997
 L 412.807,-6.15968 L 412.739,-6.07262 L 412.667,-5.989 L 412.591,-5.90901 L 412.511,-5.83287 L 412.427,-5.76073
 L 412.34,-5.69279 L 412.25,-5.6292 L 412.157,-5.57011 L 412.061,-5.51569 L 411.962,-5.46603 L 411.861,-5.42128
 L 411.758,-5.38153 L 411.653,-5.34689 L 411.547,-5.31744 L 411.439,-5.29324 L 411.33,-5.27435 L 411.221,-5.26085
 L 411.11,-5.25272 L 411,-5.25 z
" stroke="black" fill="lightgray" stroke-width="0.5"/></svg>
