<?xml version="1.0" standalone="no"?>
<!DOCTYPE svg PUBLIC "-//W3C//DTD SVG 1.1//EN" "http://www.w3.org/Graphics/SVG/1.1/DTD/svg11.dtd">
<svg width="220mm" height="188mm" viewBox="-50 -94 220 188" xmlns="http://www.w3.org/2000/svg" version="1.1">
<title>OpenSCAD Model</title>
<path d="
M 50,-94 L -50,-94 L -50,94 L 50,94 z
M 29.5,93 L 29.5,-93 L 30.5,-93 L 30.5,93 z
M -1.65826,-51.6633 L -3.25281,-52.147 L -4.72234,-52.9325 L -6.01041,-53.9896 L -7.06749,-55.2777 L -7.85297,-56.7472
 L -8.33667,-58.3417 L -8.5,-60 L -8.33667,-61.6583 L -7.85297,-63.2528 L -7.06749,-64.7223 L -6.01041,-66.0104
 L -4.72234,-67.0675 L -3.25281,-67.853 L -1.65826,-68.3367 L 0,-68.5 L 1.65826,-68.3367 L 3.25281,-67.853
 L 4.72234,-67.0675 L 6.01041,-66.0104 L 7.06749,-64.7223 L 7.85297,-63.2528 L 8.33667,-61.6583 L 8.5,-60
 L 8.33667,-58.3417 L 7.85297,-56.7472 L 7.06749,-55.2777 L 6.01041,-53.9896 L 4.72234,-52.9325 L 3.25281,-52.147
 L 1.65826,-51.6633 L 0,-51.5 z
M 0.5,-59.5 L 5.95,-59.5 L 5.95,-60.5 L 0.5,-60.5 L 0.5,-65.95 L -0.5,-65.95
 L -0.5,-60.5 L -5.95,-60.5 L -5.95,-59.5 L -0.5,-59.5 L -0.5,-54.05 L 0.5,-54.05
 z
M -7.34157,-0 L -7.34157,-4.79999 L -3.93156,-4.79999 L -3.93156,-4.28799 L -6.69057,-4.28799 L -6.69057,-2.49599
 L -4.01357,-2.49599 L -4.01357,-1.98399 L -6.69057,-1.98399 L -6.69057,-0 z
M 7.03181,0.0302734 L 6.82574,-0.0708771 L 6.67854,-0.239471 L 6.59021,-0.47551 L 6.56078,-0.778992 L 6.56078,-3.26399
 L 6.13577,-3.26399 L 6.13577,-3.71199 L 6.58478,-3.71199 L 6.76578,-4.54399 L 7.17477,-4.54399 L 7.17477,-3.71199
 L 7.85577,-3.71199 L 7.85577,-3.26399 L 7.17477,-3.26399 L 7.17477,-0.876999 L 7.17825,-0.774307 L 7.18869,-0.684677
 L 7.2061,-0.608078 L 7.23045,-0.54451 L 7.26178,-0.493988 L 7.30165,-0.454391 L 7.3517,-0.423599 L 7.4119,-0.401596
 L 7.48225,-0.388397 L 7.56277,-0.383987 L 7.59814,-0.384506 L 7.66742,-0.388672 L 7.73477,-0.396988 L 7.91678,-0.431
 L 7.91678,-0.0109863 L 7.80397,0.0139465 L 7.68958,0.0344391 L 7.5723,0.0505524 L 7.44206,0.0606384 L 7.29678,0.0639954
 z
M 2.74229,-0 L 2.74158,-3.06351 L 2.7213,-3.71199 L 3.3013,-3.71199 L 3.32829,-3.103 L 3.33829,-3.103
 L 3.37453,-3.16344 L 3.41205,-3.22156 L 3.45085,-3.27736 L 3.49094,-3.33083 L 3.53229,-3.38199 L 3.57602,-3.43047
 L 3.62238,-3.47591 L 3.67137,-3.51831 L 3.72301,-3.55768 L 3.7773,-3.59399 L 3.8349,-3.6272 L 3.89569,-3.6572
 L 3.95969,-3.68399 L 4.02689,-3.7076 L 4.09729,-3.728 L 4.17201,-3.74527 L 4.25137,-3.75871 L 4.33537,-3.76831
 L 4.42401,-3.77408 L 4.51729,-3.77599 L 4.63629,-3.77295 L 4.74849,-3.76384 L 4.8539,-3.74863 L 4.9525,-3.72736
 L 5.0443,-3.7 L 5.12993,-3.66667 L 5.20926,-3.62671 L 5.28226,-3.58011 L 5.34894,-3.52687 L 5.40929,-3.467
 L 5.46341,-3.40051 L 5.51137,-3.32668 L 5.55318,-3.24547 L 5.58881,-3.15691 L 5.61829,-3.06099 L 5.64241,-2.95804
 L 5.66118,-2.84755 L 5.67458,-2.72955 L 5.68262,-2.60403 L 5.68529,-2.47099 L 5.68529,-0 L 5.0683,-0
 L 5.0683,-2.37099 L 5.06673,-2.47659 L 5.06206,-2.575 L 5.05426,-2.6662 L 5.04333,-2.7502 L 5.0293,-2.827
 L 5.01169,-2.89735 L 4.9901,-2.96204 L 4.96449,-3.02103 L 4.93489,-3.07436 L 4.90129,-3.12199 L 4.86382,-3.16451
 L 4.82178,-3.20168 L 4.77518,-3.23347 L 4.72401,-3.25992 L 4.66829,-3.28099 L 4.60753,-3.29791 L 4.54126,-3.31107
 L 4.46945,-3.32047 L 4.39214,-3.32611 L 4.3093,-3.32799 L 4.22377,-3.32487 L 4.14162,-3.31551 L 4.06282,-3.29991
 L 3.98737,-3.27808 L 3.9153,-3.25 L 3.84729,-3.21603 L 3.78329,-3.17656 L 3.7233,-3.13155 L 3.6673,-3.08104
 L 3.6153,-3.02499 L 3.56793,-2.96379 L 3.52505,-2.89699 L 3.48665,-2.82458 L 3.45273,-2.7466 L 3.42329,-2.66299
 L 3.39882,-2.57404 L 3.37978,-2.47995 L 3.36618,-2.38075 L 3.35802,-2.27643 L 3.35529,-2.16699 L 3.35529,-0
 z
M 0.261047,0.0593567 L 0.116776,0.0454254 L -0.0210114,0.0222321 L -0.152328,-0.0102386 L -0.277176,-0.0519867 L -0.394653,-0.103668
 L -0.5047,-0.165115 L -0.6073,-0.236313 L -0.702454,-0.317276 L -0.790176,-0.40799 L -0.869858,-0.508835 L -0.941696,-0.619354
 L -1.00569,-0.739548 L -1.06186,-0.869431 L -1.11017,-1.00899 L -1.14978,-1.15851 L -1.18057,-1.31827 L -1.20258,-1.48827
 L -1.21577,-1.66852 L -1.22017,-1.85899 L -1.1541,-2.54912 L -0.955856,-3.08588 L -0.625458,-3.46927 L -0.162903,-3.69931
 L 0.431808,-3.77599 L 0.598724,-3.77119 L 0.756287,-3.75679 L 0.904495,-3.73279 L 1.04333,-3.69919 L 1.17281,-3.65599
 L 1.29309,-3.6032 L 1.40433,-3.54079 L 1.50653,-3.4688 L 1.59969,-3.38719 L 1.68381,-3.29599 L 1.75925,-3.19559
 L 1.82637,-3.08559 L 1.88516,-2.96599 L 1.93565,-2.83679 L 1.97781,-2.698 L 2.01237,-2.54955 L 2.03925,-2.39143
 L 2.05844,-2.22363 L 2.06996,-2.04616 L 2.07381,-1.85899 L 2.05676,-1.49004 L 2.00565,-1.16075 L 1.92046,-0.871155
 L 1.80116,-0.621231 L 1.64781,-0.410995 L 1.46205,-0.23999 L 1.24557,-0.106995 L 0.998367,-0.0119934 L 0.720444,0.0449982
 L 0.411804,0.0639954 z
M 0.497009,-0.386673 L 0.585602,-0.394714 L 0.670609,-0.408112 L 0.752014,-0.42688 L 0.829803,-0.450989 L 0.903885,-0.481827
 L 0.973328,-0.520752 L 1.03813,-0.567749 L 1.09828,-0.622833 L 1.15381,-0.685989 L 1.20453,-0.75824 L 1.25029,-0.839752
 L 1.29109,-0.930557 L 1.32693,-1.03064 L 1.3578,-1.14 L 1.38373,-1.26027 L 1.40388,-1.39232 L 1.41829,-1.53612
 L 1.42693,-1.69167 L 1.42981,-1.85899 L 1.42712,-2.02652 L 1.41908,-2.18187 L 1.40569,-2.32507 L 1.38693,-2.45612
 L 1.36281,-2.575 L 1.33392,-2.68323 L 1.30009,-2.78235 L 1.26129,-2.87234 L 1.21753,-2.95323 L 1.16881,-3.02499
 L 1.11572,-3.08852 L 1.05809,-3.14388 L 0.995895,-3.19107 L 0.929123,-3.23012 L 0.857803,-3.26099 L 0.782288,-3.28511
 L 0.702927,-3.30388 L 0.619736,-3.31728 L 0.532684,-3.32532 L 0.441803,-3.32799 L 0.349655,-3.32515 L 0.261169,-3.31664
 L 0.176376,-3.30243 L 0.0952454,-3.28255 L 0.017807,-3.25699 L -0.055542,-3.22499 L -0.12442,-3.185 L -0.188812,-3.13699
 L -0.248734,-3.08099 L -0.304169,-3.017 L -0.354492,-2.94447 L -0.399857,-2.86292 L -0.440262,-2.77231 L -0.475693,-2.67267
 L -0.50618,-2.564 L -0.531372,-2.44556 L -0.55098,-2.31583 L -0.564972,-2.17484 L -0.57338,-2.02255 L -0.576172,-1.85899
 L -0.573181,-1.69176 L -0.564178,-1.53644 L -0.549179,-1.39304 L -0.528183,-1.26155 L -0.501175,-1.142 L -0.468933,-1.03336
 L -0.43222,-0.933838 L -0.391022,-0.84343 L -0.345337,-0.762146 L -0.295181,-0.689987 L -0.24086,-0.626755 L -0.182693,-0.571426
 L -0.120697,-0.524033 L -0.0548553,-0.484558 L 0.0148163,-0.452988 L 0.0876923,-0.428146 L 0.163132,-0.408829 L 0.241135,-0.395035
 L 0.321686,-0.386749 L 0.404816,-0.383987 z
M -3.28699,-0 L -3.28706,-2.894 L -3.30798,-3.71199 L -2.72798,-3.71199 L -2.70779,-3.28291 L -2.70099,-2.95499
 L -2.68698,-2.95499 L -2.66103,-3.03716 L -2.63435,-3.11484 L -2.60695,-3.18803 L -2.57883,-3.25676 L -2.54999,-3.321
 L -2.51942,-3.3808 L -2.48695,-3.43619 L -2.45255,-3.4872 L -2.41623,-3.5338 L -2.37799,-3.57599 L -2.33691,-3.61432
 L -2.29286,-3.64847 L -2.24586,-3.67847 L -2.19591,-3.70432 L -2.14299,-3.726 L -2.08627,-3.74399 L -2.0249,-3.758
 L -1.95891,-3.76799 L -1.88828,-3.77399 L -1.81299,-3.77599 L -1.72551,-3.77167 L -1.66998,-3.76399 L -1.564,-3.741
 L -1.564,-3.16599 L -1.58923,-3.17244 L -1.67503,-3.18744 L -1.77579,-3.19675 L -1.89099,-3.2 L -1.97287,-3.19615
 L -2.04971,-3.18463 L -2.12151,-3.16544 L -2.18826,-3.13855 L -2.24998,-3.10399 L -2.30702,-3.06303 L -2.35974,-3.01616
 L -2.40814,-2.96335 L -2.45222,-2.90463 L -2.49199,-2.84 L -2.52727,-2.76979 L -2.55872,-2.6944 L -2.5863,-2.61378
 L -2.61006,-2.528 L -2.62999,-2.437 L -2.64583,-2.34167 L -2.65814,-2.24292 L -2.66695,-2.14072 L -2.67223,-2.03508
 L -2.674,-1.92599 L -2.674,-0 z
M 170,-94 L 70,-94 L 70,94 L 170,94 z
M 89.5,93 L 89.5,-93 L 90.5,-93 L 90.5,-60.8965 L 90.6741,-61.2223 L 91.1716,-61.8284
 L 91.7777,-62.3259 L 92.4693,-62.6955 L 93.2197,-62.9231 L 94,-63 L 94.7803,-62.9231 L 95.5307,-62.6955
 L 96.2223,-62.3259 L 96.8284,-61.8284 L 97.3259,-61.2223 L 97.6955,-60.5307 L 97.9231,-59.7803 L 98,-59
 L 97.9231,-58.2197 L 97.6955,-57.4693 L 97.3259,-56.7777 L 96.8284,-56.1716 L 96.2223,-55.6741 L 95.5307,-55.3045
 L 94.7803,-55.0769 L 94,-55 L 93.2197,-55.0769 L 92.4693,-55.3045 L 91.7777,-55.6741 L 91.1716,-56.1716
 L 90.6741,-56.7777 L 90.5,-57.1035 L 90.5,93 z
M 94.5,-58.5 L 96.8,-58.5 L 96.8,-59.5 L 94.5,-59.5 L 94.5,-61.8 L 93.5,-61.8
 L 93.5,-59.5 L 91.2,-59.5 L 91.2,-58.5 L 93.5,-58.5 L 93.5,-56.2 L 94.5,-56.2
 z
M 134.22,-55.0769 L 133.469,-55.3045 L 132.778,-55.6741 L 132.172,-56.1716 L 131.674,-56.7777 L 131.304,-57.4693
 L 131.077,-58.2197 L 131,-59 L 131.077,-59.7803 L 131.304,-60.5307 L 131.674,-61.2223 L 132.172,-61.8284
 L 132.778,-62.3259 L 133.469,-62.6955 L 134.22,-62.9231 L 135,-63 L 135.78,-62.9231 L 136.531,-62.6955
 L 137.222,-62.3259 L 137.828,-61.8284 L 138.326,-61.2223 L 138.696,-60.5307 L 138.923,-59.7803 L 139,-59
 L 138.923,-58.2197 L 138.696,-57.4693 L 138.326,-56.7777 L 137.828,-56.1716 L 137.222,-55.6741 L 136.531,-55.3045
 L 135.78,-55.0769 L 135,-55 z
M 135.5,-58.5 L 137.8,-58.5 L 137.8,-59.5 L 135.5,-59.5 L 135.5,-61.8 L 134.5,-61.8
 L 134.5,-59.5 L 132.2,-59.5 L 132.2,-58.5 L 134.5,-58.5 L 134.5,-56.2 L 135.5,-56.2
 z
M 119.22,-55.0769 L 118.469,-55.3045 L 117.778,-55.6741 L 117.172,-56.1716 L 116.674,-56.7777 L 116.304,-57.4693
 L 116.077,-58.2197 L 116,-59 L 116.077,-59.7803 L 116.304,-60.5307 L 116.674,-61.2223 L 117.172,-61.8284
 L 117.778,-62.3259 L 118.469,-62.6955 L 119.22,-62.9231 L 120,-63 L 120.78,-62.9231 L 121.531,-62.6955
 L 122.222,-62.3259 L 122.828,-61.8284 L 123.326,-61.2223 L 123.696,-60.5307 L 123.923,-59.7803 L 124,-59
 L 123.923,-58.2197 L 123.696,-57.4693 L 123.326,-56.7777 L 122.828,-56.1716 L 122.222,-55.6741 L 121.531,-55.3045
 L 120.78,-55.0769 L 120,-55 z
M 120.5,-58.5 L 122.8,-58.5 L 122.8,-59.5 L 120.5,-59.5 L 120.5,-61.8 L 119.5,-61.8
 L 119.5,-59.5 L 117.2,-59.5 L 117.2,-58.5 L 119.5,-58.5 L 119.5,-56.2 L 120.5,-56.2
 z
M 124.617,-0 L 124.617,-5.056 L 125.23,-5.056 L 125.23,-1.911 L 126.848,-3.71199 L 127.567,-3.71199
 L 126.072,-2.11699 L 127.645,-0 L 126.927,-0 L 125.68,-1.69499 L 125.23,-1.321 L 125.23,-0
 z
M 113.034,-0 L 113.034,-4.79999 L 114.778,-4.79999 L 114.934,-4.79732 L 115.083,-4.78928 L 115.226,-4.77588
 L 115.361,-4.75711 L 115.49,-4.73299 L 115.612,-4.70348 L 115.726,-4.66771 L 115.832,-4.62572 L 115.931,-4.57747
 L 116.022,-4.52299 L 116.105,-4.46231 L 116.18,-4.39548 L 116.246,-4.32248 L 116.304,-4.24332 L 116.354,-4.15799
 L 116.395,-4.06647 L 116.427,-3.96791 L 116.45,-3.86232 L 116.463,-3.74968 L 116.468,-3.62999 L 116.466,-3.55016
 L 116.459,-3.47223 L 116.448,-3.39622 L 116.432,-3.32216 L 116.412,-3.25 L 116.387,-3.18044 L 116.358,-3.11336
 L 116.323,-3.04875 L 116.285,-2.98663 L 116.241,-2.92699 L 116.193,-2.87059 L 116.14,-2.8174 L 116.083,-2.7674
 L 116.021,-2.7206 L 115.955,-2.67699 L 115.884,-2.63751 L 115.808,-2.60228 L 115.728,-2.57127 L 115.644,-2.54451
 L 115.555,-2.52199 L 115.668,-2.5058 L 115.776,-2.48439 L 115.878,-2.45779 L 115.975,-2.42599 L 116.067,-2.38899
 L 116.154,-2.3476 L 116.234,-2.30179 L 116.309,-2.25159 L 116.377,-2.19699 L 116.44,-2.13799 L 116.497,-2.0752
 L 116.548,-2.00839 L 116.594,-1.93759 L 116.634,-1.86279 L 116.668,-1.784 L 116.696,-1.70192 L 116.718,-1.61728
 L 116.734,-1.53008 L 116.744,-1.44031 L 116.747,-1.34799 L 116.741,-1.20671 L 116.724,-1.07407 L 116.695,-0.950073
 L 116.655,-0.834717 L 116.604,-0.727997 L 116.543,-0.629349 L 116.474,-0.538239 L 116.397,-0.454636 L 116.312,-0.378555
 L 116.219,-0.309998 L 116.119,-0.249039 L 116.013,-0.194946 L 115.9,-0.147751 L 115.782,-0.107437 L 115.657,-0.0739899
 L 115.528,-0.047348 L 115.395,-0.0266266 L 115.26,-0.0118256 L 115.123,-0.00294495 L 114.982,-0 z
M 114.889,-2.75427 L 114.993,-2.76111 L 115.09,-2.77251 L 115.18,-2.78847 L 115.262,-2.80899 L 115.338,-2.83371
 L 115.408,-2.86227 L 115.472,-2.89467 L 115.53,-2.93091 L 115.582,-2.97099 L 115.628,-3.01471 L 115.669,-3.06187
 L 115.705,-3.11247 L 115.735,-3.16652 L 115.759,-3.224 L 115.779,-3.28471 L 115.794,-3.34846 L 115.805,-3.41527
 L 115.812,-3.48511 L 115.814,-3.558 L 115.803,-3.70587 L 115.771,-3.83591 L 115.718,-3.9481 L 115.644,-4.04247
 L 115.548,-4.11899 L 115.432,-4.17982 L 115.298,-4.22716 L 115.144,-4.26096 L 114.97,-4.28123 L 114.778,-4.28799
 L 113.685,-4.28799 L 113.685,-2.752 L 114.778,-2.752 z
M 115.047,-0.513626 L 115.141,-0.518555 L 115.232,-0.526749 L 115.321,-0.538239 L 115.406,-0.552994 L 115.488,-0.571838
 L 115.565,-0.595551 L 115.637,-0.624146 L 115.705,-0.657639 L 115.768,-0.695999 L 115.826,-0.739517 L 115.879,-0.788467
 L 115.926,-0.842865 L 115.968,-0.90271 L 116.005,-0.967987 L 116.036,-1.0394 L 116.059,-1.1176 L 116.076,-1.20259
 L 116.087,-1.29439 L 116.09,-1.39299 L 116.087,-1.48148 L 116.076,-1.56451 L 116.06,-1.64211 L 116.036,-1.71428
 L 116.006,-1.78099 L 115.97,-1.84267 L 115.928,-1.89972 L 115.88,-1.95212 L 115.826,-1.99988 L 115.766,-2.043
 L 115.701,-2.08159 L 115.631,-2.1158 L 115.556,-2.1456 L 115.475,-2.17099 L 115.39,-2.19199 L 115.3,-2.20927
 L 115.206,-2.22272 L 115.107,-2.23232 L 115.005,-2.23807 L 114.898,-2.23999 L 113.685,-2.23999 L 113.685,-0.511993
 L 114.949,-0.511993 z
M 122.472,0.0581055 L 122.315,0.0404663 L 122.168,0.0110779 L 122.031,-0.0300751 L 121.904,-0.0829926 L 121.787,-0.146225
 L 121.68,-0.218353 L 121.581,-0.299347 L 121.492,-0.389236 L 121.412,-0.487991 L 121.34,-0.595276 L 121.277,-0.709915
 L 121.222,-0.831909 L 121.176,-0.961273 L 121.138,-1.09799 L 121.107,-1.24075 L 121.083,-1.38823 L 121.066,-1.54044
 L 121.056,-1.69736 L 121.053,-1.85899 L 121.055,-2.00471 L 121.063,-2.14348 L 121.075,-2.27527 L 121.092,-2.40012
 L 121.114,-2.51799 L 121.141,-2.62952 L 121.171,-2.73528 L 121.206,-2.83527 L 121.244,-2.92952 L 121.286,-3.01799
 L 121.332,-3.10083 L 121.381,-3.17815 L 121.433,-3.24995 L 121.488,-3.31624 L 121.547,-3.377 L 121.608,-3.43303
 L 121.671,-3.48436 L 121.736,-3.53094 L 121.803,-3.57283 L 121.872,-3.60999 L 121.943,-3.64287 L 122.016,-3.67191
 L 122.09,-3.69711 L 122.165,-3.71848 L 122.242,-3.73599 L 122.32,-3.7504 L 122.398,-3.7616 L 122.476,-3.76959
 L 122.555,-3.7744 L 122.634,-3.77599 L 122.755,-3.77255 L 122.871,-3.76224 L 122.981,-3.74503 L 123.086,-3.72095
 L 123.186,-3.68999 L 123.28,-3.65343 L 123.369,-3.61176 L 123.452,-3.56496 L 123.53,-3.51303 L 123.603,-3.45599
 L 123.671,-3.39464 L 123.733,-3.32895 L 123.79,-3.25896 L 123.842,-3.18463 L 123.888,-3.10599 L 123.929,-3.02399
 L 123.965,-2.93959 L 123.995,-2.8528 L 124.021,-2.7636 L 124.041,-2.672 L 123.41,-2.62399 L 123.385,-2.74788
 L 123.348,-2.86111 L 123.3,-2.96371 L 123.24,-3.05568 L 123.168,-3.13699 L 123.084,-3.20575 L 122.987,-3.25923
 L 122.876,-3.29744 L 122.753,-3.32036 L 122.617,-3.32799 L 122.515,-3.32439 L 122.421,-3.3136 L 122.333,-3.29559
 L 122.253,-3.27039 L 122.179,-3.23799 L 122.111,-3.19872 L 122.049,-3.15207 L 121.993,-3.09807 L 121.941,-3.03671
 L 121.895,-2.96799 L 121.854,-2.89223 L 121.818,-2.80896 L 121.787,-2.71815 L 121.761,-2.61983 L 121.74,-2.51399
 L 121.723,-2.40063 L 121.71,-2.27975 L 121.701,-2.15135 L 121.696,-2.01543 L 121.694,-1.87199 L 121.696,-1.74332
 L 121.701,-1.61887 L 121.71,-1.49867 L 121.723,-1.38271 L 121.74,-1.271 L 121.761,-1.16479 L 121.787,-1.06459
 L 121.818,-0.970398 L 121.854,-0.882187 L 121.895,-0.799988 L 121.941,-0.72435 L 121.993,-0.655838 L 122.05,-0.594437
 L 122.113,-0.540146 L 122.182,-0.492996 L 122.257,-0.453751 L 122.338,-0.423233 L 122.427,-0.401428 L 122.522,-0.388351
 L 122.624,-0.383987 L 122.75,-0.39151 L 122.868,-0.414078 L 122.977,-0.451675 L 123.078,-0.504318 L 123.17,-0.571991
 L 123.251,-0.65567 L 123.319,-0.755508 L 123.373,-0.871506 L 123.414,-1.00368 L 123.441,-1.15199 L 124.061,-1.11099
 L 124.046,-1.01967 L 124.025,-0.929718 L 123.998,-0.84111 L 123.966,-0.753876 L 123.928,-0.667999 L 123.884,-0.584839
 L 123.834,-0.505753 L 123.779,-0.430756 L 123.717,-0.359833 L 123.65,-0.292999 L 123.577,-0.23111 L 123.498,-0.174271
 L 123.412,-0.122467 L 123.321,-0.0757141 L 123.223,-0.0339966 L 123.119,0.00126648 L 123.009,0.028717 L 122.892,0.0483093
 L 122.769,0.0600739 L 122.64,0.0639954 z
M 120.325,0.0620728 L 120.261,0.0563049 L 120.201,0.0467072 L 120.145,0.0332794 L 120.093,0.0159912 L 120.046,-0.00474548
 L 120.001,-0.0294342 L 119.961,-0.0580292 L 119.924,-0.0905457 L 119.89,-0.126999 L 119.861,-0.167587 L 119.834,-0.211792
 L 119.81,-0.259598 L 119.789,-0.310989 L 119.771,-0.365997 L 119.757,-0.424667 L 119.744,-0.487106 L 119.734,-0.553314
 L 119.726,-0.623276 L 119.72,-0.696991 L 119.7,-0.696991 L 119.66,-0.628708 L 119.618,-0.56308 L 119.575,-0.500076
 L 119.53,-0.439713 L 119.483,-0.381989 L 119.435,-0.327271 L 119.383,-0.275909 L 119.329,-0.227905 L 119.271,-0.183273
 L 119.209,-0.141998 L 119.145,-0.104233 L 119.078,-0.0701599 L 119.006,-0.0397491 L 118.932,-0.013031 L 118.853,0.00999451
 L 118.771,0.0294342 L 118.685,0.0445557 L 118.593,0.0553589 L 118.497,0.0618286 L 118.395,0.0639954 L 118.184,0.0523529
 L 117.995,0.0174255 L 117.828,-0.0407562 L 117.683,-0.122238 L 117.56,-0.22699 L 117.46,-0.352432 L 117.382,-0.495148
 L 117.326,-0.655151 L 117.293,-0.832428 L 117.281,-1.02699 L 117.287,-1.16695 L 117.303,-1.29643 L 117.331,-1.41544
 L 117.37,-1.52396 L 117.419,-1.62199 L 117.478,-1.71078 L 117.543,-1.7916 L 117.616,-1.8644 L 117.695,-1.9292
 L 117.78,-1.98599 L 117.872,-2.03555 L 117.969,-2.07863 L 118.071,-2.11523 L 118.177,-2.14536 L 118.289,-2.16899
 L 118.405,-2.18759 L 118.52,-2.20259 L 118.637,-2.21399 L 118.754,-2.22179 L 118.872,-2.226 L 119.7,-2.23999
 L 119.7,-2.45 L 119.698,-2.54276 L 119.693,-2.62984 L 119.683,-2.71123 L 119.67,-2.78696 L 119.652,-2.85699
 L 119.631,-2.92159 L 119.606,-2.98099 L 119.577,-3.03519 L 119.544,-3.0842 L 119.506,-3.12799 L 119.465,-3.16736
 L 119.419,-3.20224 L 119.37,-3.23264 L 119.317,-3.25854 L 119.259,-3.28 L 119.198,-3.29727 L 119.132,-3.31071
 L 119.063,-3.32031 L 118.989,-3.32607 L 118.91,-3.32799 L 118.841,-3.327 L 118.774,-3.32399 L 118.709,-3.31898
 L 118.648,-3.312 L 118.589,-3.30299 L 118.534,-3.29135 L 118.481,-3.27643 L 118.431,-3.25824 L 118.384,-3.23676
 L 118.34,-3.21199 L 118.3,-3.18411 L 118.263,-3.15247 L 118.229,-3.11707 L 118.198,-3.07791 L 118.17,-3.03499
 L 118.146,-2.98784 L 118.126,-2.93596 L 118.109,-2.87935 L 118.095,-2.81804 L 118.085,-2.752 L 117.445,-2.808
 L 117.461,-2.89139 L 117.482,-2.97198 L 117.508,-3.04979 L 117.539,-3.12479 L 117.574,-3.19699 L 117.616,-3.26624
 L 117.664,-3.33156 L 117.718,-3.39296 L 117.779,-3.45044 L 117.845,-3.504 L 117.919,-3.55363 L 118,-3.59856
 L 118.088,-3.63875 L 118.183,-3.67422 L 118.285,-3.70499 L 118.395,-3.73055 L 118.514,-3.75043 L 118.642,-3.76463
 L 118.778,-3.77315 L 118.923,-3.77599 L 119.188,-3.7632 L 119.424,-3.72479 L 119.634,-3.6608 L 119.815,-3.5712
 L 119.969,-3.45599 L 120.096,-3.31656 L 120.194,-3.15424 L 120.264,-2.96904 L 120.306,-2.76096 L 120.32,-2.53
 L 120.32,-0.934998 L 120.323,-0.830795 L 120.332,-0.737396 L 120.346,-0.654785 L 120.366,-0.582993 L 120.391,-0.521988
 L 120.425,-0.472305 L 120.47,-0.43367 L 120.524,-0.406067 L 120.589,-0.389511 L 120.664,-0.383987 L 120.746,-0.388474
 L 120.865,-0.40799 L 120.865,0.00498962 L 120.773,0.0259552 L 120.681,0.0424347 L 120.589,0.0543976 L 120.493,0.0615997
 L 120.392,0.0639954 z
M 118.65,-0.388229 L 118.758,-0.400955 L 118.86,-0.42215 L 118.957,-0.451828 L 119.047,-0.48999 L 119.132,-0.534714
 L 119.211,-0.584076 L 119.284,-0.638077 L 119.351,-0.696716 L 119.412,-0.759995 L 119.467,-0.827194 L 119.517,-0.89679
 L 119.56,-0.968796 L 119.597,-1.0432 L 119.628,-1.12 L 119.654,-1.19731 L 119.674,-1.27327 L 119.689,-1.34787
 L 119.697,-1.42111 L 119.7,-1.493 L 119.7,-1.79199 L 118.94,-1.7764 L 118.853,-1.77179 L 118.767,-1.7652
 L 118.683,-1.75659 L 118.601,-1.74599 L 118.523,-1.73256 L 118.448,-1.71463 L 118.377,-1.69223 L 118.31,-1.66536
 L 118.246,-1.63399 L 118.188,-1.59772 L 118.134,-1.55608 L 118.085,-1.50908 L 118.041,-1.45671 L 118.002,-1.39899
 L 117.97,-1.33479 L 117.945,-1.26299 L 117.927,-1.18359 L 117.916,-1.09659 L 117.912,-1.002 L 117.919,-0.889313
 L 117.938,-0.787277 L 117.971,-0.695877 L 118.016,-0.615112 L 118.074,-0.544998 L 118.145,-0.48703 L 118.226,-0.441956
 L 118.318,-0.40976 L 118.421,-0.390427 L 118.535,-0.383987 z
" stroke="black" fill="lightgray" stroke-width="0.5"/></svg>
