<?xml version="1.0" standalone="no"?>
<!DOCTYPE svg PUBLIC "-//W3C//DTD SVG 1.1//EN" "http://www.w3.org/Graphics/SVG/1.1/DTD/svg11.dtd">
<svg width="192mm" height="188mm" viewBox="-96 -94 192 188" xmlns="http://www.w3.org/2000/svg" version="1.1">
<title>OpenSCAD Model</title>
<path d="
M 96,-94 L -96,-94 L -96,94 L 96,94 z
M 0.167404,-60 L 0.167404,-60.432 L 0.240036,-60.5874 L 0.318756,-60.7354 L 0.403564,-60.8757 L 0.494446,-61.0086
 L 0.5914,-61.134 L 0.692444,-61.2536 L 0.795563,-61.3685 L 0.900757,-61.4788 L 1.00804,-61.5842 L 1.1174,-61.685
 L 1.3374,-61.8768 L 1.5558,-62.0572 L 1.77068,-62.2274 L 1.87271,-62.3118 L 1.97052,-62.3962 L 2.06407,-62.4806
 L 2.1534,-62.565 L 2.23724,-62.6502 L 2.31436,-62.737 L 2.38477,-62.8254 L 2.44844,-62.9154 L 2.5054,-63.007
 L 2.554,-63.1019 L 2.5918,-63.2017 L 2.6188,-63.3065 L 2.63499,-63.4163 L 2.6404,-63.531 L 2.63112,-63.6815
 L 2.60327,-63.8179 L 2.55688,-63.9401 L 2.49191,-64.0481 L 2.4084,-64.142 L 2.30876,-64.2205 L 2.19464,-64.2815
 L 2.06604,-64.3251 L 1.92296,-64.3513 L 1.7654,-64.36 L 1.61412,-64.3515 L 1.47388,-64.3259 L 1.34468,-64.2833
 L 1.22652,-64.2237 L 1.1194,-64.147 L 1.0262,-64.0549 L 0.949799,-63.9491 L 0.890198,-63.8295 L 0.847397,-63.6961
 L 0.821396,-63.549 L 0.194397,-63.607 L 0.235718,-63.828 L 0.305283,-64.03 L 0.403076,-64.2132 L 0.529114,-64.3775
 L 0.683395,-64.523 L 0.861359,-64.6458 L 1.05844,-64.7412 L 1.27464,-64.8094 L 1.50996,-64.8504 L 1.7644,-64.864
 L 2.04135,-64.8503 L 2.29144,-64.8093 L 2.51463,-64.7409 L 2.71095,-64.6451 L 2.8804,-64.522 L 3.0208,-64.3737
 L 3.13,-64.2025 L 3.20799,-64.0083 L 3.25479,-63.7911 L 3.2704,-63.551 L 3.26527,-63.4395 L 3.24992,-63.3283
 L 3.22432,-63.2173 L 3.18848,-63.1065 L 3.1424,-62.996 L 3.08624,-62.886 L 3.02016,-62.7758 L 2.94415,-62.6656
 L 2.85825,-62.5554 L 2.76241,-62.445 L 2.6432,-62.3229 L 2.4872,-62.1765 L 2.2944,-62.0059 L 2.0648,-61.8111
 L 1.64836,-61.4669 L 1.51103,-61.3467 L 1.38644,-61.2315 L 1.27455,-61.1213 L 1.1754,-61.016 L 1.0878,-60.914
 L 1.0106,-60.8134 L 0.943802,-60.7144 L 0.887405,-60.617 L 0.8414,-60.521 L 3.3454,-60.521 L 3.3454,-60
 z
M -3.41685,-60 L -3.41685,-61.116 L -5.67886,-61.116 L -5.67886,-61.589 L -3.48186,-64.8 L -2.83786,-64.8
 L -2.83786,-61.6 L -2.16386,-61.6 L -2.16386,-61.116 L -2.83786,-61.116 L -2.83786,-60 z
M -3.41685,-64.109 L -3.42294,-64.0954 L -3.5463,-63.8706 L -3.6255,-63.7374 L -4.87486,-61.917 L -5.05885,-61.667
 L -5.11285,-61.6 L -3.41685,-61.6 z
M -12.4628,-60 L -12.4628,-61.116 L -14.7248,-61.116 L -14.7248,-61.589 L -12.5278,-64.8 L -11.8838,-64.8
 L -11.8838,-61.6 L -11.2098,-61.6 L -11.2098,-61.116 L -11.8838,-61.116 L -11.8838,-60 z
M -12.4628,-64.109 L -12.4688,-64.0954 L -12.5922,-63.8706 L -12.6714,-63.7374 L -13.9208,-61.917 L -14.1048,-61.667
 L -14.1588,-61.6 L -12.4628,-61.6 z
M 9.72032,-60 L 9.72032,-62.92 L 9.71696,-63.3578 L 9.71275,-63.5162 L 9.70688,-63.6342 L 9.69933,-63.712
 L 10.2793,-63.712 L 10.3063,-63.074 L 10.3163,-63.074 L 10.3978,-63.222 L 10.4838,-63.3508 L 10.5744,-63.4604
 L 10.6696,-63.5508 L 10.7693,-63.622 L 10.8762,-63.6774 L 10.9919,-63.7206 L 11.1165,-63.7514 L 11.25,-63.7698
 L 11.3923,-63.776 L 11.5529,-63.7693 L 11.6995,-63.7491 L 11.8321,-63.7155 L 11.9507,-63.6685 L 12.0553,-63.608
 L 12.147,-63.5329 L 12.2267,-63.4419 L 12.2945,-63.3351 L 12.3504,-63.2125 L 12.3943,-63.074 L 12.4043,-63.074
 L 12.4839,-63.2148 L 12.5698,-63.339 L 12.662,-63.4464 L 12.7605,-63.537 L 12.8653,-63.611 L 12.9783,-63.6704
 L 13.1004,-63.7166 L 13.2316,-63.7496 L 13.3719,-63.7694 L 13.5213,-63.776 L 13.7327,-63.7638 L 13.9196,-63.7272
 L 14.082,-63.6662 L 14.2199,-63.5808 L 14.3333,-63.471 L 14.4248,-63.3334 L 14.4959,-63.1646 L 14.5467,-62.9646
 L 14.5772,-62.7334 L 14.5873,-62.471 L 14.5873,-60 L 13.9813,-60 L 13.9813,-62.353 L 13.9754,-62.5549
 L 13.9578,-62.7303 L 13.9284,-62.8791 L 13.8872,-63.0013 L 13.8343,-63.097 L 13.7665,-63.1712 L 13.6798,-63.2288
 L 13.5742,-63.27 L 13.4497,-63.2948 L 13.3063,-63.303 L 13.1527,-63.291 L 13.0134,-63.255 L 12.8884,-63.195
 L 12.7777,-63.111 L 12.6813,-63.003 L 12.601,-62.8729 L 12.5386,-62.7227 L 12.494,-62.5523 L 12.4672,-62.3617
 L 12.4583,-62.151 L 12.4583,-60 L 11.8523,-60 L 11.8523,-62.353 L 11.8464,-62.5549 L 11.8288,-62.7303
 L 11.7994,-62.8791 L 11.7582,-63.0013 L 11.7053,-63.097 L 11.6375,-63.1712 L 11.5508,-63.2288 L 11.4452,-63.27
 L 11.3207,-63.2948 L 11.1773,-63.303 L 11.0274,-63.2909 L 10.8904,-63.2547 L 10.7664,-63.1943 L 10.6554,-63.1097
 L 10.5573,-63.001 L 10.4752,-62.8703 L 10.4114,-62.72 L 10.3658,-62.55 L 10.3384,-62.3604 L 10.3293,-62.151
 L 10.3293,-60 z
M 4.07188,-60 L 4.07188,-62.92 L 4.06853,-63.3578 L 4.06432,-63.5162 L 4.05844,-63.6342 L 4.05089,-63.712
 L 4.63089,-63.712 L 4.65788,-63.074 L 4.66788,-63.074 L 4.74936,-63.222 L 4.8354,-63.3508 L 4.92601,-63.4604
 L 5.02116,-63.5508 L 5.12088,-63.622 L 5.22772,-63.6774 L 5.34344,-63.7206 L 5.46805,-63.7514 L 5.60152,-63.7698
 L 5.74388,-63.776 L 5.90448,-63.7693 L 6.05109,-63.7491 L 6.18369,-63.7155 L 6.30228,-63.6685 L 6.40688,-63.608
 L 6.49852,-63.5329 L 6.57825,-63.4419 L 6.64604,-63.3351 L 6.70192,-63.2125 L 6.74588,-63.074 L 6.75589,-63.074
 L 6.83545,-63.2148 L 6.92133,-63.339 L 7.01352,-63.4464 L 7.11205,-63.537 L 7.21689,-63.611 L 7.32985,-63.6704
 L 7.45192,-63.7166 L 7.58313,-63.7496 L 7.72345,-63.7694 L 7.87288,-63.776 L 8.08424,-63.7638 L 8.27112,-63.7272
 L 8.43352,-63.6662 L 8.57144,-63.5808 L 8.68488,-63.471 L 8.77632,-63.3334 L 8.84744,-63.1646 L 8.89824,-62.9646
 L 8.92873,-62.7334 L 8.93889,-62.471 L 8.93889,-60 L 8.33289,-60 L 8.33289,-62.353 L 8.327,-62.5549
 L 8.30936,-62.7303 L 8.27997,-62.8791 L 8.2388,-63.0013 L 8.18588,-63.097 L 8.11804,-63.1712 L 8.03133,-63.2288
 L 7.92572,-63.27 L 7.80124,-63.2948 L 7.65788,-63.303 L 7.50424,-63.291 L 7.36493,-63.255 L 7.23993,-63.195
 L 7.12924,-63.111 L 7.03288,-63.003 L 6.95261,-62.8729 L 6.89017,-62.7227 L 6.84557,-62.5523 L 6.8188,-62.3617
 L 6.80988,-62.151 L 6.80988,-60 L 6.20389,-60 L 6.20389,-62.353 L 6.198,-62.5549 L 6.18036,-62.7303
 L 6.15097,-62.8791 L 6.1098,-63.0013 L 6.05688,-63.097 L 5.98904,-63.1712 L 5.90233,-63.2288 L 5.79672,-63.27
 L 5.67224,-63.2948 L 5.52888,-63.303 L 5.37897,-63.2909 L 5.242,-63.2547 L 5.118,-63.1943 L 5.00696,-63.1097
 L 4.90889,-63.001 L 4.8268,-62.8703 L 4.76297,-62.72 L 4.71736,-62.55 L 4.69,-62.3604 L 4.68088,-62.151
 L 4.68088,-60 z
M -11.0353,-60 L -9.72327,-61.907 L -10.9733,-63.712 L -10.2953,-63.712 L -9.37627,-62.268 L -8.46327,-63.712
 L -7.77827,-63.712 L -9.02827,-61.914 L -7.70027,-60 L -8.38527,-60 L -9.37627,-61.523 L -10.3743,-60
 z
M 69.7074,-58.5288 L 69.426,-58.6142 L 69.1666,-58.7528 L 68.9393,-58.9393 L 68.7528,-59.1666 L 68.6142,-59.426
 L 68.5288,-59.7074 L 68.5,-60 L 68.5288,-60.2926 L 68.6142,-60.574 L 68.7528,-60.8333 L 68.9393,-61.0607
 L 69.1666,-61.2472 L 69.426,-61.3858 L 69.7074,-61.4712 L 70,-61.5 L 70.2926,-61.4712 L 70.574,-61.3858
 L 70.8333,-61.2472 L 71.0607,-61.0607 L 71.2472,-60.8333 L 71.3858,-60.574 L 71.4712,-60.2926 L 71.5,-60
 L 71.4712,-59.7074 L 71.3858,-59.426 L 71.2472,-59.1666 L 71.0607,-58.9393 L 70.8333,-58.7528 L 70.574,-58.6142
 L 70.2926,-58.5288 L 70,-58.5 z
M -70.2926,-58.5288 L -70.574,-58.6142 L -70.8333,-58.7528 L -71.0607,-58.9393 L -71.2472,-59.1666 L -71.3858,-59.426
 L -71.4712,-59.7074 L -71.5,-60 L -71.4712,-60.2926 L -71.3858,-60.574 L -71.2472,-60.8333 L -71.0607,-61.0607
 L -70.8333,-61.2472 L -70.574,-61.3858 L -70.2926,-61.4712 L -70,-61.5 L -69.7074,-61.4712 L -69.426,-61.3858
 L -69.1666,-61.2472 L -68.9393,-61.0607 L -68.7528,-60.8333 L -68.6142,-60.574 L -68.5288,-60.2926 L -68.5,-60
 L -68.5288,-59.7074 L -68.6142,-59.426 L -68.7528,-59.1666 L -68.9393,-58.9393 L -69.1666,-58.7528 L -69.426,-58.6142
 L -69.7074,-58.5288 L -70,-58.5 z
M -1.43037,-60 L -1.43037,-60.768 L -0.766373,-60.768 L -0.766373,-60 z
M -59.7429,-40 L -59.7429,-45.056 L -59.1299,-45.056 L -59.1299,-41.911 L -57.5119,-43.712 L -56.7929,-43.712
 L -58.2879,-42.117 L -56.7149,-40 L -57.4329,-40 L -58.6799,-41.695 L -59.1299,-41.321 L -59.1299,-40
 z
M -71.3264,-40 L -71.3264,-44.8 L -69.5824,-44.8 L -68.974,-44.7532 L -68.5008,-44.6129 L -68.1628,-44.3792
 L -67.9601,-44.0518 L -67.8924,-43.631 L -67.902,-43.4656 L -67.9307,-43.3112 L -67.9785,-43.1676 L -68.0454,-43.0348
 L -68.1314,-42.913 L -68.2346,-42.8046 L -68.3535,-42.7115 L -68.4883,-42.6338 L -68.639,-42.5712 L -68.8055,-42.524
 L -68.5871,-42.487 L -68.3898,-42.4302 L -68.2134,-42.3538 L -68.0579,-42.2578 L -67.9234,-42.142 L -67.8118,-42.0098
 L -67.7251,-41.8644 L -67.663,-41.7058 L -67.6258,-41.534 L -67.6134,-41.349 L -67.6321,-41.1048 L -67.6882,-40.8832
 L -67.7816,-40.6844 L -67.9123,-40.5083 L -68.0804,-40.355 L -68.2815,-40.2272 L -68.5118,-40.1278 L -68.7714,-40.0568
 L -69.0603,-40.0142 L -69.3784,-40 z
M -69.3842,-42.7599 L -69.2072,-42.7835 L -69.0515,-42.8229 L -68.9168,-42.8781 L -68.8035,-42.949 L -68.7109,-43.0362
 L -68.639,-43.1402 L -68.5876,-43.261 L -68.5567,-43.3986 L -68.5464,-43.553 L -68.5571,-43.7001 L -68.589,-43.8295
 L -68.6422,-43.9411 L -68.7167,-44.0349 L -68.8124,-44.111 L -68.928,-44.1715 L -69.0629,-44.2185 L -69.2168,-44.2521
 L -69.39,-44.2723 L -69.5824,-44.279 L -70.6754,-44.279 L -70.6754,-42.752 L -69.5824,-42.752 z
M -69.186,-40.5298 L -68.9865,-40.5562 L -68.8129,-40.6002 L -68.6652,-40.6618 L -68.5434,-40.741 L -68.4452,-40.838
 L -68.3687,-40.9523 L -68.3141,-41.084 L -68.2814,-41.2328 L -68.2704,-41.399 L -68.3181,-41.7032 L -68.4612,-41.9398
 L -68.6996,-42.1088 L -69.0333,-42.2102 L -69.4624,-42.244 L -70.6754,-42.244 L -70.6754,-40.521 L -69.4114,-40.521
 z
M 56.6433,-40 L 56.6433,-44.8 L 60.0533,-44.8 L 60.0533,-44.269 L 57.2943,-44.269 L 57.2943,-42.496
 L 59.9713,-42.496 L 59.9713,-41.958 L 57.2943,-41.958 L 57.2943,-40 z
M 71.0167,-39.9698 L 70.8106,-40.071 L 70.6634,-40.2398 L 70.5751,-40.4762 L 70.5457,-40.78 L 70.5457,-43.266
 L 70.1207,-43.266 L 70.1207,-43.712 L 70.5697,-43.712 L 70.7507,-44.544 L 71.1597,-44.544 L 71.1597,-43.712
 L 71.8407,-43.712 L 71.8407,-43.266 L 71.1597,-43.266 L 71.1597,-40.909 L 71.1631,-40.8078 L 71.1736,-40.7194
 L 71.191,-40.6438 L 71.2153,-40.581 L 71.2467,-40.531 L 71.2865,-40.4921 L 71.3366,-40.4619 L 71.3968,-40.4403
 L 71.4671,-40.4273 L 71.5477,-40.423 L 71.6012,-40.4249 L 71.6633,-40.4305 L 71.7341,-40.4399 L 71.8136,-40.4531
 L 71.9017,-40.47 L 71.9017,-40.018 L 71.7799,-39.9885 L 71.657,-39.9655 L 71.533,-39.9491 L 71.4079,-39.9393
 L 71.2817,-39.936 z
M -79.656,-41.921 L -79.656,-42.619 L -76.267,-44.032 L -76.267,-43.508 L -79.189,-42.272 L -76.267,-41.033
 L -76.267,-40.512 z
M 76.384,-41.033 L 79.3071,-42.272 L 76.384,-43.508 L 76.384,-44.032 L 79.773,-42.619 L 79.773,-41.921
 L 76.384,-40.512 z
M -62.0151,-39.9556 L -62.2804,-40.0146 L -62.5164,-40.1127 L -62.7231,-40.2502 L -62.9005,-40.427 L -63.047,-40.6414
 L -63.161,-40.8918 L -63.2424,-41.1782 L -63.2912,-41.5006 L -63.3075,-41.859 L -63.2912,-42.2152 L -63.2421,-42.5359
 L -63.1603,-42.8212 L -63.0458,-43.0708 L -62.8985,-43.285 L -62.7208,-43.4617 L -62.5147,-43.5992 L -62.2803,-43.6974
 L -62.0176,-43.7563 L -61.7265,-43.776 L -61.5082,-43.7642 L -61.3052,-43.729 L -61.1176,-43.6702 L -60.9454,-43.5878
 L -60.7885,-43.482 L -60.6501,-43.3555 L -60.534,-43.2113 L -60.4402,-43.0493 L -60.3687,-42.8695 L -60.3195,-42.672
 L -60.9505,-42.624 L -60.9756,-42.7425 L -61.0123,-42.8507 L -61.0607,-42.9487 L -61.1208,-43.0365 L -61.1925,-43.114
 L -61.2766,-43.1795 L -61.3738,-43.2305 L -61.484,-43.2669 L -61.6072,-43.2887 L -61.7435,-43.296 L -61.9276,-43.283
 L -62.0901,-43.2438 L -62.2311,-43.1786 L -62.3506,-43.0874 L -62.4485,-42.97 L -62.527,-42.8221 L -62.588,-42.6385
 L -62.6316,-42.4191 L -62.6578,-42.1639 L -62.6665,-41.873 L -62.6573,-41.5923 L -62.6296,-41.3423 L -62.5834,-41.1229
 L -62.5187,-40.9341 L -62.4355,-40.776 L -62.3333,-40.6478 L -62.2123,-40.5482 L -62.0725,-40.477 L -61.9139,-40.4342
 L -61.7365,-40.42 L -61.61,-40.4272 L -61.4922,-40.4486 L -61.383,-40.4844 L -61.2824,-40.5345 L -61.1905,-40.599
 L -61.1093,-40.6787 L -61.0416,-40.7739 L -60.9874,-40.8845 L -60.9467,-41.0105 L -60.9195,-41.152 L -60.2995,-41.111
 L -60.3407,-40.9052 L -60.4067,-40.7168 L -60.4975,-40.5455 L -60.6131,-40.3916 L -60.7535,-40.255 L -60.9141,-40.1402
 L -61.0911,-40.0508 L -61.2845,-39.987 L -61.4943,-39.9488 L -61.7205,-39.936 z
M -64.0976,-39.9435 L -64.2116,-39.9661 L -64.3108,-40.0037 L -64.3952,-40.0563 L -64.465,-40.124 L -64.5216,-40.2077
 L -64.5674,-40.3085 L -64.6024,-40.4263 L -64.6266,-40.5611 L -64.64,-40.713 L -64.66,-40.713 L -64.7571,-40.5533
 L -64.8603,-40.4133 L -64.9697,-40.2931 L -65.0853,-40.1927 L -65.207,-40.112 L -65.3372,-40.0486 L -65.478,-39.9994
 L -65.6297,-39.9642 L -65.792,-39.9431 L -65.965,-39.936 L -66.176,-39.9476 L -66.365,-39.9826 L -66.532,-40.0408
 L -66.677,-40.1222 L -66.8,-40.227 L -66.9005,-40.3524 L -66.9786,-40.4951 L -67.0344,-40.6552 L -67.0678,-40.8324
 L -67.079,-41.027 L -67.064,-41.244 L -67.0188,-41.44 L -66.9436,-41.6147 L -66.8384,-41.7684 L -66.703,-41.901
 L -66.5338,-42.0116 L -66.3277,-42.0994 L -66.0846,-42.1644 L -65.8048,-42.2066 L -65.488,-42.226 L -64.66,-42.24
 L -64.66,-42.447 L -64.6676,-42.6213 L -64.6906,-42.7747 L -64.7288,-42.9071 L -64.7822,-43.0185 L -64.851,-43.109
 L -64.9361,-43.181 L -65.0385,-43.237 L -65.1583,-43.277 L -65.2955,-43.301 L -65.45,-43.309 L -65.6062,-43.3037
 L -65.7444,-43.2877 L -65.8646,-43.2611 L -65.9668,-43.2239 L -66.051,-43.176 L -66.1198,-43.1165 L -66.1766,-43.0443
 L -66.2214,-42.9595 L -66.2542,-42.8621 L -66.275,-42.752 L -66.915,-42.808 L -66.8056,-43.1565 L -66.6032,-43.4275
 L -66.3076,-43.6211 L -65.9189,-43.7373 L -65.437,-43.776 L -65.1728,-43.763 L -64.9361,-43.7242 L -64.7269,-43.6593
 L -64.5452,-43.5686 L -64.391,-43.452 L -64.2646,-43.3112 L -64.1664,-43.1474 L -64.0962,-42.9604 L -64.054,-42.7502
 L -64.04,-42.517 L -64.04,-40.905 L -64.0372,-40.7997 L -64.0286,-40.7053 L -64.0145,-40.6219 L -63.9946,-40.5495
 L -63.969,-40.488 L -63.935,-40.4376 L -63.8908,-40.3984 L -63.8362,-40.3704 L -63.7712,-40.3536 L -63.696,-40.348
 L -63.6595,-40.349 L -63.5809,-40.3566 L -63.495,-40.372 L -63.495,-39.99 L -63.5882,-39.9706 L -63.6822,-39.9554
 L -63.777,-39.9446 L -63.8726,-39.9382 L -63.969,-39.936 z
M -65.6932,-40.4021 L -65.5674,-40.4203 L -65.4476,-40.4507 L -65.3338,-40.4933 L -65.226,-40.548 L -65.1253,-40.6133
 L -65.0335,-40.6877 L -64.9507,-40.7711 L -64.8769,-40.8635 L -64.812,-40.965 L -64.7573,-41.0716 L -64.7147,-41.1794
 L -64.6843,-41.2884 L -64.6661,-41.3986 L -64.66,-41.51 L -64.66,-41.811 L -65.331,-41.797 L -65.4955,-41.7916
 L -65.6433,-41.7802 L -65.7745,-41.7628 L -65.8891,-41.7394 L -65.987,-41.71 L -66.0721,-41.6741 L -66.1488,-41.6311
 L -66.2172,-41.5811 L -66.2773,-41.5241 L -66.329,-41.46 L -66.3718,-41.3882 L -66.4052,-41.308 L -66.429,-41.2194
 L -66.4433,-41.1224 L -66.448,-41.017 L -66.4415,-40.9036 L -66.4221,-40.801 L -66.3897,-40.7092 L -66.3443,-40.6282
 L -66.286,-40.558 L -66.2157,-40.4997 L -66.1345,-40.4543 L -66.0423,-40.4219 L -65.9391,-40.4025 L -65.825,-40.396
 z
M 60.6979,-40 L 60.697,-43.007 L 60.6903,-43.3466 L 60.6769,-43.712 L 61.2569,-43.712 L 61.2742,-43.2885
 L 61.2839,-42.955 L 61.2979,-42.955 L 61.358,-43.1326 L 61.4217,-43.286 L 61.4889,-43.4154 L 61.5596,-43.5208
 L 61.6339,-43.602 L 61.7165,-43.6646 L 61.8116,-43.7133 L 61.9192,-43.7482 L 62.0393,-43.769 L 62.1719,-43.776
 L 62.2212,-43.7746 L 62.2708,-43.7706 L 62.3206,-43.7637 L 62.3706,-43.7542 L 62.4209,-43.742 L 62.4209,-43.18
 L 62.3684,-43.1922 L 62.3095,-43.2018 L 62.2441,-43.2086 L 62.1722,-43.2126 L 62.0939,-43.214 L 61.9487,-43.2008
 L 61.8179,-43.161 L 61.7015,-43.0948 L 61.5995,-43.0022 L 61.5119,-42.883 L 61.4395,-42.7392 L 61.3832,-42.5724
 L 61.343,-42.3828 L 61.3189,-42.1703 L 61.3109,-41.935 L 61.3109,-40 z
M 64.0893,-39.9558 L 63.8136,-40.015 L 63.5696,-40.1138 L 63.3573,-40.2522 L 63.1767,-40.43 L 63.0284,-40.6456
 L 62.913,-40.8962 L 62.8306,-41.182 L 62.7812,-41.5029 L 62.7647,-41.859 L 62.8308,-42.5491 L 63.029,-43.0859
 L 63.3594,-43.4693 L 63.822,-43.6993 L 64.4167,-43.776 L 64.7368,-43.7573 L 65.0212,-43.7013 L 65.2698,-43.6079
 L 65.4826,-43.4771 L 65.6597,-43.309 L 65.8033,-43.1015 L 65.9151,-42.8528 L 65.9948,-42.5628 L 66.0427,-42.2316
 L 66.0587,-41.859 L 66.0416,-41.49 L 65.9905,-41.1608 L 65.9053,-40.8712 L 65.786,-40.6212 L 65.6327,-40.411
 L 65.4469,-40.24 L 65.2305,-40.107 L 64.9832,-40.012 L 64.7053,-39.955 L 64.3967,-39.936 z
M 64.5979,-40.4032 L 64.7807,-40.446 L 64.9383,-40.5172 L 65.0706,-40.6168 L 65.1777,-40.745 L 65.263,-40.9038
 L 65.3294,-41.0946 L 65.3768,-41.3174 L 65.4052,-41.5722 L 65.4147,-41.859 L 65.4056,-42.1494 L 65.3784,-42.4062
 L 65.333,-42.6294 L 65.2694,-42.819 L 65.1877,-42.975 L 65.0849,-43.1003 L 64.9574,-43.1977 L 64.8053,-43.2673
 L 64.6283,-43.3091 L 64.4267,-43.323 L 64.2234,-43.3088 L 64.044,-43.2662 L 63.8884,-43.1952 L 63.7566,-43.0958
 L 63.6487,-42.968 L 63.5623,-42.81 L 63.4951,-42.6201 L 63.4471,-42.3983 L 63.4183,-42.1446 L 63.4087,-41.859
 L 63.4181,-41.5804 L 63.4464,-41.3308 L 63.4937,-41.1104 L 63.5597,-40.9192 L 63.6447,-40.757 L 63.7503,-40.6245
 L 63.8776,-40.5215 L 64.0266,-40.4479 L 64.1973,-40.4037 L 64.3897,-40.389 z
M 66.7272,-40 L 66.7272,-42.92 L 66.7238,-43.3578 L 66.7196,-43.5162 L 66.7137,-43.6342 L 66.7062,-43.712
 L 67.2862,-43.712 L 67.3132,-43.074 L 67.3232,-43.074 L 67.4102,-43.2186 L 67.5027,-43.3452 L 67.6005,-43.4538
 L 67.7037,-43.5444 L 67.8122,-43.617 L 67.9287,-43.6742 L 68.056,-43.7188 L 68.194,-43.7505 L 68.3427,-43.7696
 L 68.5022,-43.776 L 68.7316,-43.7639 L 68.935,-43.7275 L 69.1124,-43.6669 L 69.2638,-43.5821 L 69.3892,-43.473
 L 69.4903,-43.336 L 69.569,-43.1672 L 69.6252,-42.9668 L 69.6589,-42.7348 L 69.6702,-42.471 L 69.6702,-40
 L 69.0532,-40 L 69.0532,-42.353 L 69.0503,-42.4932 L 69.0417,-42.6202 L 69.0273,-42.734 L 69.0071,-42.8346
 L 68.9812,-42.922 L 68.9493,-42.9986 L 68.9106,-43.0661 L 68.865,-43.1246 L 68.8125,-43.1738 L 68.7532,-43.214
 L 68.6849,-43.246 L 68.6049,-43.271 L 68.513,-43.2888 L 68.4095,-43.2994 L 68.2942,-43.303 L 68.1245,-43.2908
 L 67.9697,-43.254 L 67.8299,-43.1928 L 67.705,-43.1071 L 67.5952,-42.997 L 67.5034,-42.8656 L 67.432,-42.7152
 L 67.381,-42.546 L 67.3504,-42.358 L 67.3402,-42.151 L 67.3402,-40 z
M -75.73,-41.567 L -75.73,-42.112 L -74.0271,-42.112 L -74.0271,-41.567 z
M 74.0922,-41.567 L 74.0922,-42.112 L 75.7952,-42.112 L 75.7952,-41.567 z
M 35.5739,-9.88173 L 35.3333,-9.91089 L 35.1107,-9.95949 L 34.9061,-10.0275 L 34.7195,-10.115 L 34.5489,-10.2245
 L 34.3917,-10.3579 L 34.2477,-10.5151 L 34.1169,-10.6961 L 33.9995,-10.901 L 33.9885,-10.901 L 33.985,-10.7402
 L 33.9744,-10.5234 L 33.9449,-10.089 L 33.9345,-10 L 32.9885,-10 L 33,-10.1422 L 33.009,-10.3345
 L 33.0154,-10.577 L 33.0192,-10.8694 L 33.0205,-11.212 L 33.0205,-18.064 L 33.9995,-18.064 L 33.9986,-15.6346
 L 33.9916,-15.3141 L 33.9775,-14.954 L 33.9995,-14.954 L 34.1153,-15.1687 L 34.2453,-15.3575 L 34.3893,-15.5205
 L 34.5473,-15.6577 L 34.7195,-15.769 L 34.9077,-15.8579 L 35.1131,-15.9271 L 35.3357,-15.9765 L 35.5755,-16.0061
 L 35.8325,-16.016 L 36.2545,-15.9857 L 36.6295,-15.895 L 36.9573,-15.7438 L 37.2379,-15.5322 L 37.4715,-15.26
 L 37.6605,-14.9268 L 37.8075,-14.5314 L 37.9125,-14.0735 L 37.9755,-13.5534 L 37.9965,-12.971 L 37.9099,-11.8553
 L 37.6503,-10.9876 L 37.2175,-10.3678 L 36.6115,-9.99597 L 35.8325,-9.87201 z
M 35.8507,-10.617 L 36.0971,-10.6832 L 36.3107,-10.7934 L 36.4915,-10.9476 L 36.6395,-11.146 L 36.7579,-11.3943
 L 36.8501,-11.6977 L 36.9159,-12.0561 L 36.9553,-12.4695 L 36.9685,-12.938 L 36.9554,-13.4081 L 36.9162,-13.8215
 L 36.8508,-14.1783 L 36.7592,-14.4785 L 36.6415,-14.722 L 36.4948,-14.9157 L 36.3154,-15.0663 L 36.1034,-15.1739
 L 35.8588,-15.2385 L 35.5815,-15.26 L 35.269,-15.2372 L 34.9924,-15.1686 L 34.7516,-15.0544 L 34.5466,-14.8945
 L 34.3775,-14.689 L 34.2414,-14.4338 L 34.1356,-14.1252 L 34.06,-13.763 L 34.0146,-13.3472 L 33.9995,-12.878
 L 34.0143,-12.4349 L 34.0587,-12.0407 L 34.1327,-11.6955 L 34.2363,-11.3993 L 34.3695,-11.152 L 34.536,-10.9515
 L 34.7394,-10.7955 L 34.9798,-10.6841 L 35.2572,-10.6173 L 35.5715,-10.595 z
M 27.2252,-10 L 27.2252,-15.176 L 26.3992,-15.176 L 26.3992,-15.888 L 27.2252,-15.888 L 27.2252,-16.552
 L 27.2393,-16.8559 L 27.2817,-17.1237 L 27.3523,-17.3553 L 27.4511,-17.5507 L 27.5782,-17.71 L 27.7348,-17.8374
 L 27.9212,-17.9366 L 28.1376,-18.0074 L 28.384,-18.0498 L 28.6602,-18.064 L 28.8184,-18.0614 L 28.9666,-18.0536
 L 29.1048,-18.0406 L 29.233,-18.0224 L 29.3512,-17.999 L 29.3512,-17.253 L 29.2554,-17.2688 L 29.164,-17.2812
 L 29.077,-17.2899 L 28.9944,-17.2952 L 28.9162,-17.297 L 28.7744,-17.2894 L 28.6492,-17.2664 L 28.5404,-17.2282
 L 28.448,-17.1748 L 28.3722,-17.106 L 28.3117,-17.0176 L 28.2647,-16.9044 L 28.2311,-16.7664 L 28.2109,-16.6036
 L 28.2042,-16.416 L 28.2042,-15.888 L 29.3512,-15.888 L 29.3512,-15.176 L 28.2042,-15.176 L 28.2042,-10
 z
M -2.42413,-9.88173 L -2.66473,-9.91089 L -2.88733,-9.95949 L -3.09193,-10.0275 L -3.27853,-10.115 L -3.4491,-10.2245
 L -3.60637,-10.3579 L -3.75037,-10.5151 L -3.88109,-10.6961 L -3.99854,-10.901 L -4.00954,-10.901 L -4.01305,-10.7402
 L -4.02361,-10.5234 L -4.05313,-10.089 L -4.06354,-10 L -5.00954,-10 L -4.99802,-10.1422 L -4.98904,-10.3345
 L -4.98265,-10.577 L -4.97881,-10.8694 L -4.97754,-11.212 L -4.97754,-18.064 L -3.99854,-18.064 L -3.9994,-15.6346
 L -4.00645,-15.3141 L -4.02054,-14.954 L -3.99854,-14.954 L -3.88269,-15.1687 L -3.75278,-15.3575 L -3.60876,-15.5205
 L -3.4507,-15.6577 L -3.27853,-15.769 L -3.09033,-15.8579 L -2.88493,-15.9271 L -2.66234,-15.9765 L -2.42253,-16.0061
 L -2.16553,-16.016 L -1.74348,-15.9857 L -1.36858,-15.895 L -1.04077,-15.7438 L -0.760086,-15.5322 L -0.526535,-15.26
 L -0.337524,-14.9268 L -0.190536,-14.5314 L -0.0855255,-14.0735 L -0.0225372,-13.5534 L -0.00152588,-12.971 L -0.088089,-11.8553
 L -0.347778,-10.9876 L -0.780579,-10.3678 L -1.38649,-9.99597 L -2.16553,-9.87201 z
M -2.14734,-10.617 L -1.90092,-10.6832 L -1.68733,-10.7934 L -1.50653,-10.9476 L -1.35854,-11.146 L -1.2401,-11.3943
 L -1.14796,-11.6977 L -1.08217,-12.0561 L -1.04269,-12.4695 L -1.02953,-12.938 L -1.04262,-13.4081 L -1.08185,-13.8215
 L -1.14725,-14.1783 L -1.23882,-14.4785 L -1.35654,-14.722 L -1.50325,-14.9157 L -1.68262,-15.0663 L -1.89461,-15.1739
 L -2.13925,-15.2385 L -2.41653,-15.26 L -2.729,-15.2372 L -3.00565,-15.1686 L -3.24644,-15.0544 L -3.45142,-14.8945
 L -3.62053,-14.689 L -3.75661,-14.4338 L -3.86246,-14.1252 L -3.93805,-13.763 L -3.98341,-13.3472 L -3.99854,-12.878
 L -3.98373,-12.4349 L -3.93933,-12.0407 L -3.86533,-11.6955 L -3.76173,-11.3993 L -3.62852,-11.152 L -3.46205,-10.9515
 L -3.25861,-10.7955 L -3.01822,-10.6841 L -2.74084,-10.6173 L -2.42653,-10.595 z
M -50.6809,-7.69601 L -51.0702,-8.14532 L -51.4166,-8.60609 L -51.72,-9.07829 L -51.9804,-9.56192 L -52.1979,-10.057
 L -52.374,-10.5704 L -52.5109,-11.1084 L -52.6087,-11.6707 L -52.6674,-12.2576 L -52.6869,-12.869 L -52.6672,-13.5062
 L -52.6082,-14.0958 L -52.5098,-14.6598 L -52.372,-15.1982 L -52.1949,-15.711 L -51.9769,-16.2051 L -51.7165,-16.6875
 L -51.4137,-17.1581 L -51.0685,-17.6169 L -50.6809,-18.064 L -49.7349,-18.064 L -50.1201,-17.6063 L -50.462,-17.1373
 L -50.7606,-16.6569 L -51.0159,-16.1651 L -51.2279,-15.662 L -51.3989,-15.144 L -51.5319,-14.6068 L -51.6269,-14.0504
 L -51.6839,-13.4748 L -51.7029,-12.88 L -51.6841,-12.2876 L -51.6277,-11.7142 L -51.5337,-11.16 L -51.4021,-10.625
 L -51.2329,-10.109 L -51.0223,-9.60736 L -50.7672,-9.11525 L -50.4676,-8.63264 L -50.1235,-8.15956 L -49.7349,-7.69601
 z
M -42.9805,-10 L -42.9805,-18.064 L -42.0015,-18.064 L -42.0015,-10 z
M 12.5166,-10 L 12.5166,-18.064 L 13.4956,-18.064 L 13.4956,-13.031 L 16.0786,-15.888 L 17.2256,-15.888
 L 14.8386,-13.358 L 17.3506,-10 L 16.2036,-10 L 14.2136,-12.688 L 13.4956,-12.095 L 13.4956,-10
 z
M 49.8296,-7.69601 L 50.2168,-8.15729 L 50.56,-8.62833 L 50.8592,-9.10913 L 51.1144,-9.59969 L 51.3256,-10.1
 L 51.4959,-10.6157 L 51.6284,-11.1515 L 51.723,-11.7075 L 51.7797,-12.2837 L 51.7986,-12.88 L 51.7796,-13.4764
 L 51.7225,-14.0528 L 51.6273,-14.6092 L 51.494,-15.1456 L 51.3226,-15.662 L 51.1106,-16.1632 L 50.8553,-16.654
 L 50.5567,-17.1344 L 50.2148,-17.6044 L 49.8296,-18.064 L 50.7756,-18.064 L 51.1653,-17.6146 L 51.5118,-17.1537
 L 51.8152,-16.6814 L 52.0755,-16.1974 L 52.2926,-15.702 L 52.469,-15.1889 L 52.6062,-14.6513 L 52.7042,-14.0891
 L 52.763,-13.5023 L 52.7826,-12.891 L 52.763,-12.2538 L 52.7039,-11.6642 L 52.6055,-11.1002 L 52.4678,-10.5618
 L 52.2906,-10.049 L 52.0726,-9.55489 L 51.8121,-9.07253 L 51.5091,-8.60193 L 51.1636,-8.14308 L 50.7756,-7.69601
 z
M -27.2135,-9.90332 L -27.6608,-9.99728 L -28.0584,-10.1539 L -28.4063,-10.3731 L -28.7044,-10.655 L -28.9499,-10.9986
 L -29.1409,-11.4032 L -29.2773,-11.8685 L -29.3591,-12.3948 L -29.3864,-12.982 L -29.3591,-13.5418 L -29.2773,-14.0468
 L -29.1409,-14.497 L -28.9499,-14.8924 L -28.7044,-15.233 L -28.4078,-15.5149 L -28.0645,-15.7341 L -27.6745,-15.8907
 L -27.2378,-15.9847 L -26.7544,-16.016 L -25.8205,-15.8914 L -25.0942,-15.5174 L -24.5754,-14.8942 L -24.2641,-14.0218
 L -24.1604,-12.9 L -24.1604,-12.77 L -28.3584,-12.77 L -28.3416,-12.3741 L -28.2915,-12.0161 L -28.2079,-11.6959
 L -28.0909,-11.4135 L -27.9404,-11.169 L -27.7573,-10.9663 L -27.5434,-10.8087 L -27.2986,-10.6961 L -27.0229,-10.6285
 L -26.7164,-10.606 L -26.4721,-10.6165 L -26.248,-10.6481 L -26.0443,-10.7007 L -25.8607,-10.7743 L -25.6974,-10.869
 L -25.5537,-10.9801 L -25.4298,-11.1024 L -25.3259,-11.2358 L -25.2417,-11.3804 L -25.1774,-11.536 L -24.3184,-11.287
 L -24.5829,-10.7776 L -24.955,-10.3814 L -25.4346,-10.0984 L -26.0217,-9.9286 L -26.7164,-9.87201 z
M -25.2175,-13.8696 L -25.2874,-14.1792 L -25.382,-14.4488 L -25.5013,-14.6784 L -25.6454,-14.868 L -25.8155,-15.021
 L -26.013,-15.14 L -26.2381,-15.225 L -26.4905,-15.276 L -26.7704,-15.293 L -27.0437,-15.2741 L -27.2932,-15.2173
 L -27.519,-15.1227 L -27.7211,-14.9903 L -27.8994,-14.82 L -28.0501,-14.6166 L -28.1702,-14.3849 L -28.2598,-14.125
 L -28.3189,-13.8366 L -28.3474,-13.52 L -25.1724,-13.52 z
M 2.22084,-9.89076 L 1.91924,-9.94705 L 1.65283,-10.0408 L 1.42163,-10.1721 L 1.22563,-10.341 L 1.06508,-10.543
 L 0.940186,-10.7728 L 0.850998,-11.0306 L 0.79747,-11.3163 L 0.779633,-11.63 L 0.80368,-11.9798 L 0.875793,-12.2954
 L 0.995987,-12.577 L 1.16428,-12.8246 L 1.38063,-13.038 L 1.65051,-13.2161 L 1.97935,-13.3575 L 2.36716,-13.4623
 L 2.81392,-13.5305 L 3.31963,-13.562 L 4.64064,-13.584 L 4.64064,-13.91 L 4.62843,-14.1854 L 4.59183,-14.4276
 L 4.53084,-14.6366 L 4.44543,-14.8124 L 4.33563,-14.955 L 4.20007,-15.0688 L 4.03659,-15.1572 L 3.8452,-15.2204
 L 3.62587,-15.2583 L 3.37863,-15.271 L 3.12979,-15.2622 L 2.90967,-15.2359 L 2.71828,-15.1922 L 2.55559,-15.1308
 L 2.42163,-15.052 L 2.3116,-14.9539 L 2.22067,-14.8349 L 2.14888,-14.6949 L 2.09619,-14.5339 L 2.06264,-14.352
 L 1.04063,-14.444 L 1.21503,-15.0099 L 1.53824,-15.4501 L 2.01024,-15.7645 L 2.63103,-15.9531 L 3.40063,-16.016
 L 3.82227,-15.9955 L 4.2,-15.9341 L 4.5338,-15.8317 L 4.82367,-15.6883 L 5.06963,-15.504 L 5.27124,-15.2813
 L 5.42804,-15.0219 L 5.54004,-14.7259 L 5.60724,-14.3933 L 5.62964,-14.024 L 5.62964,-11.475 L 5.63419,-11.3084
 L 5.64787,-11.1591 L 5.67067,-11.0271 L 5.70259,-10.9124 L 5.74364,-10.815 L 5.79752,-10.7354 L 5.86795,-10.6736
 L 5.95496,-10.6293 L 6.05852,-10.6028 L 6.17863,-10.594 L 6.23691,-10.5955 L 6.29816,-10.6001 L 6.36235,-10.6077
 L 6.42952,-10.6183 L 6.49963,-10.632 L 6.49963,-10.023 L 6.351,-9.99168 L 6.20108,-9.96733 L 6.04987,-9.94992
 L 5.8974,-9.93948 L 5.74364,-9.936 L 5.53792,-9.9474 L 5.35596,-9.98161 L 5.19775,-10.0386 L 5.06331,-10.1184
 L 4.95264,-10.221 L 4.8624,-10.3479 L 4.78928,-10.5008 L 4.73328,-10.6796 L 4.6944,-10.8844 L 4.67264,-11.115
 L 4.63963,-11.115 L 4.48471,-10.8593 L 4.31995,-10.6353 L 4.14536,-10.4431 L 3.96091,-10.2827 L 3.76663,-10.154
 L 3.55923,-10.0525 L 3.33464,-9.97353 L 3.09283,-9.91713 L 2.83383,-9.88329 L 2.55763,-9.87201 z
M 2.99139,-10.6158 L 3.19247,-10.6454 L 3.38388,-10.6945 L 3.5656,-10.7634 L 3.73764,-10.852 L 3.89815,-10.9581
 L 4.04451,-11.0787 L 4.17671,-11.2139 L 4.29475,-11.3637 L 4.39864,-11.528 L 4.48575,-11.701 L 4.55351,-11.8758
 L 4.60191,-12.0526 L 4.63095,-12.2314 L 4.64064,-12.412 L 4.64064,-12.899 L 3.56963,-12.877 L 3.30664,-12.8678
 L 3.07043,-12.8488 L 2.86104,-12.8202 L 2.67844,-12.782 L 2.52263,-12.734 L 2.38683,-12.6759 L 2.26424,-12.6063
 L 2.15483,-12.5253 L 2.05864,-12.4329 L 1.97563,-12.329 L 1.90723,-12.213 L 1.85403,-12.0834 L 1.81604,-11.9402
 L 1.79323,-11.7834 L 1.78563,-11.613 L 1.79596,-11.429 L 1.82692,-11.2624 L 1.87851,-11.1134 L 1.95076,-10.9819
 L 2.04364,-10.868 L 2.15599,-10.7737 L 2.28587,-10.7003 L 2.43327,-10.6479 L 2.59819,-10.6165 L 2.78064,-10.606
 z
M -14.0044,-10 L -14.0044,-14.631 L -14.0056,-15.0102 L -14.0095,-15.3255 L -14.0159,-15.577 L -14.0248,-15.7644
 L -14.0364,-15.888 L -13.1124,-15.888 L -13.1104,-15.8736 L -13.0884,-15.473 L -13.0694,-14.897 L -13.0534,-14.897
 L -12.9143,-15.1271 L -12.7668,-15.3287 L -12.6108,-15.5017 L -12.4463,-15.6461 L -12.2734,-15.762 L -12.0872,-15.8534
 L -11.8839,-15.9245 L -11.6635,-15.9754 L -11.426,-16.0058 L -11.1714,-16.016 L -10.805,-15.9967 L -10.4802,-15.9387
 L -10.197,-15.8421 L -9.95535,-15.7069 L -9.75536,-15.533 L -9.59372,-15.3146 L -9.468,-15.0456 L -9.3782,-14.7262
 L -9.32433,-14.3564 L -9.30637,-13.936 L -9.30637,-10 L -10.2904,-10 L -10.2904,-13.747 L -10.2949,-13.9701
 L -10.3086,-14.1723 L -10.3314,-14.3535 L -10.3633,-14.5137 L -10.4044,-14.653 L -10.4554,-14.7749 L -10.5175,-14.8824
 L -10.5905,-14.9754 L -10.6744,-15.054 L -10.7694,-15.118 L -10.8787,-15.1691 L -11.0068,-15.2089 L -11.1536,-15.2373
 L -11.3191,-15.2543 L -11.5034,-15.26 L -11.7738,-15.2406 L -12.0205,-15.1822 L -12.2433,-15.085 L -12.4422,-14.949
 L -12.6174,-14.774 L -12.7642,-14.5645 L -12.8785,-14.3249 L -12.9601,-14.0551 L -13.009,-13.7551 L -13.0254,-13.425
 L -13.0254,-10 z
M -18.2279,-9.90364 L -18.6678,-9.99857 L -19.0572,-10.1568 L -19.3961,-10.3782 L -19.6845,-10.663 L -19.9214,-11.0079
 L -20.1057,-11.4089 L -20.2373,-11.8661 L -20.3162,-12.3795 L -20.3425,-12.949 L -20.2371,-14.0531 L -19.9206,-14.9119
 L -19.3932,-15.5253 L -18.6549,-15.8933 L -17.7055,-16.016 L -17.1945,-15.9861 L -16.7404,-15.8963 L -16.3434,-15.7467
 L -16.0035,-15.5373 L -15.7205,-15.268 L -15.4916,-14.9362 L -15.3135,-14.5384 L -15.1863,-14.0746 L -15.11,-13.5448
 L -15.0845,-12.949 L -15.1117,-12.3587 L -15.1933,-11.832 L -15.3293,-11.3688 L -15.5197,-10.9691 L -15.7645,-10.633
 L -16.0607,-10.359 L -16.4061,-10.146 L -16.8007,-9.99377 L -17.2445,-9.90245 L -17.7375,-9.87201 z
M -17.4173,-10.6178 L -17.1252,-10.6864 L -16.8734,-10.8006 L -16.6619,-10.9604 L -16.4905,-11.166 L -16.3545,-11.42
 L -16.2486,-11.7254 L -16.173,-12.082 L -16.1277,-12.4898 L -16.1125,-12.949 L -16.127,-13.4141 L -16.1705,-13.8253
 L -16.2429,-14.1827 L -16.3442,-14.4863 L -16.4745,-14.736 L -16.6387,-14.9365 L -16.8422,-15.0925 L -17.0852,-15.2039
 L -17.3677,-15.2707 L -17.6895,-15.293 L -18.0141,-15.2703 L -18.3007,-15.2021 L -18.5493,-15.0885 L -18.7599,-14.9295
 L -18.9325,-14.725 L -19.0704,-14.4722 L -19.1777,-14.1682 L -19.2543,-13.813 L -19.3002,-13.4066 L -19.3155,-12.949
 L -19.3004,-12.5027 L -19.2551,-12.1032 L -19.1795,-11.7504 L -19.0736,-11.4444 L -18.9375,-11.185 L -18.7691,-10.9726
 L -18.566,-10.8074 L -18.3284,-10.6894 L -18.0563,-10.6186 L -17.7495,-10.595 z
M -32.7487,-9.90344 L -33.1725,-9.99777 L -33.5495,-10.155 L -33.8797,-10.375 L -34.1631,-10.658 L -34.3968,-11.0012
 L -34.5785,-11.4018 L -34.7083,-11.86 L -34.7862,-12.3757 L -34.8121,-12.949 L -34.7861,-13.5186 L -34.7078,-14.0316
 L -34.5774,-14.4877 L -34.3949,-14.8872 L -34.1602,-15.23 L -33.8763,-15.513 L -33.5473,-15.733 L -33.1731,-15.8902
 L -32.7538,-15.9846 L -32.2892,-16.016 L -31.9403,-15.997 L -31.616,-15.9402 L -31.3164,-15.8454 L -31.0415,-15.7126
 L -30.7912,-15.542 L -30.5705,-15.3384 L -30.3854,-15.1062 L -30.2358,-14.8452 L -30.1217,-14.5554 L -30.0432,-14.237
 L -31.0491,-14.16 L -31.0889,-14.3517 L -31.1474,-14.527 L -31.2246,-14.6858 L -31.3205,-14.8282 L -31.4352,-14.954
 L -31.5696,-15.0602 L -31.7249,-15.1428 L -31.9011,-15.2018 L -32.0982,-15.2372 L -32.3161,-15.249 L -32.6102,-15.2281
 L -32.8698,-15.1655 L -33.095,-15.0611 L -33.2858,-14.9149 L -33.4422,-14.727 L -33.5674,-14.49 L -33.6649,-14.196
 L -33.7345,-13.8448 L -33.7762,-13.4364 L -33.7901,-12.971 L -33.7753,-12.5215 L -33.7309,-12.1212 L -33.657,-11.77
 L -33.5533,-11.468 L -33.4202,-11.215 L -33.2571,-11.0094 L -33.0641,-10.8495 L -32.8412,-10.7354 L -32.5882,-10.6668
 L -32.3051,-10.644 L -32.1032,-10.6552 L -31.9151,-10.6889 L -31.7407,-10.7451 L -31.58,-10.8238 L -31.4332,-10.925
 L -31.3035,-11.0499 L -31.1954,-11.1991 L -31.1088,-11.3725 L -31.0437,-11.5701 L -31.0002,-11.792 L -30.0112,-11.727
 L -30.0766,-11.4022 L -30.1815,-11.1048 L -30.3261,-10.8345 L -30.5103,-10.5916 L -30.7341,-10.376 L -30.9908,-10.1945
 L -31.2735,-10.0534 L -31.5823,-9.95265 L -31.9172,-9.89217 L -32.2782,-9.87201 z
M 40.8873,-9.90364 L 40.4474,-9.99857 L 40.058,-10.1568 L 39.7191,-10.3782 L 39.4307,-10.663 L 39.1938,-11.0079
 L 39.0096,-11.4089 L 38.878,-11.8661 L 38.799,-12.3795 L 38.7727,-12.949 L 38.8782,-14.0531 L 39.1946,-14.9119
 L 39.722,-15.5253 L 40.4604,-15.8933 L 41.4097,-16.016 L 41.9208,-15.9861 L 42.3748,-15.8963 L 42.7718,-15.7467
 L 43.1118,-15.5373 L 43.3947,-15.268 L 43.6236,-14.9362 L 43.8017,-14.5384 L 43.9289,-14.0746 L 44.0052,-13.5448
 L 44.0307,-12.949 L 44.0035,-12.3587 L 43.9219,-11.832 L 43.7859,-11.3688 L 43.5955,-10.9691 L 43.3507,-10.633
 L 43.0545,-10.359 L 42.7091,-10.146 L 42.3145,-9.99377 L 41.8707,-9.90245 L 41.3777,-9.87201 z
M 41.698,-10.6178 L 41.99,-10.6864 L 42.2418,-10.8006 L 42.4534,-10.9604 L 42.6247,-11.166 L 42.7608,-11.42
 L 42.8666,-11.7254 L 42.9422,-12.082 L 42.9876,-12.4898 L 43.0027,-12.949 L 42.9882,-13.4141 L 42.9448,-13.8253
 L 42.8724,-14.1827 L 42.771,-14.4863 L 42.6407,-14.736 L 42.4766,-14.9365 L 42.273,-15.0925 L 42.03,-15.2039
 L 41.7476,-15.2707 L 41.4257,-15.293 L 41.1011,-15.2703 L 40.8145,-15.2021 L 40.5659,-15.0885 L 40.3553,-14.9295
 L 40.1827,-14.725 L 40.0448,-14.4722 L 39.9376,-14.1682 L 39.861,-13.813 L 39.815,-13.4066 L 39.7997,-12.949
 L 39.8148,-12.5027 L 39.8602,-12.1032 L 39.9358,-11.7504 L 40.0416,-11.4444 L 40.1777,-11.185 L 40.3462,-10.9726
 L 40.5492,-10.8074 L 40.7868,-10.6894 L 41.059,-10.6186 L 41.3657,-10.595 z
M 8.87721,-9.90344 L 8.45341,-9.99777 L 8.07642,-10.155 L 7.74622,-10.375 L 7.46281,-10.658 L 7.22917,-11.0012
 L 7.04745,-11.4018 L 6.91765,-11.86 L 6.83977,-12.3757 L 6.81381,-12.949 L 6.83989,-13.5186 L 6.91814,-14.0316
 L 7.04854,-14.4877 L 7.23109,-14.8872 L 7.46582,-15.23 L 7.74962,-15.513 L 8.07861,-15.733 L 8.45282,-15.8902
 L 8.87221,-15.9846 L 9.33681,-16.016 L 9.6857,-15.997 L 10.0099,-15.9402 L 10.3095,-15.8454 L 10.5845,-15.7126
 L 10.8348,-15.542 L 11.0555,-15.3384 L 11.2406,-15.1062 L 11.3902,-14.8452 L 11.5043,-14.5554 L 11.5828,-14.237
 L 10.5768,-14.16 L 10.537,-14.3517 L 10.4786,-14.527 L 10.4014,-14.6858 L 10.3055,-14.8282 L 10.1908,-14.954
 L 10.0564,-15.0602 L 9.90105,-15.1428 L 9.72485,-15.2018 L 9.52777,-15.2372 L 9.30981,-15.249 L 9.01581,-15.2281
 L 8.75621,-15.1655 L 8.53101,-15.0611 L 8.34021,-14.9149 L 8.18381,-14.727 L 8.05853,-14.49 L 7.96109,-14.196
 L 7.89149,-13.8448 L 7.84973,-13.4364 L 7.83582,-12.971 L 7.85062,-12.5215 L 7.89502,-12.1212 L 7.96901,-11.77
 L 8.07262,-11.468 L 8.20581,-11.215 L 8.36882,-11.0094 L 8.56181,-10.8495 L 8.78481,-10.7354 L 9.03781,-10.6668
 L 9.32082,-10.644 L 9.52274,-10.6552 L 9.71089,-10.6889 L 9.8853,-10.7451 L 10.0459,-10.8238 L 10.1928,-10.925
 L 10.3224,-11.0499 L 10.4306,-11.1991 L 10.5172,-11.3725 L 10.5823,-11.5701 L 10.6258,-11.792 L 11.6148,-11.727
 L 11.5494,-11.4022 L 11.4444,-11.1048 L 11.2998,-10.8345 L 11.1156,-10.5916 L 10.8918,-10.376 L 10.6352,-10.1945
 L 10.3524,-10.0534 L 10.0437,-9.95265 L 9.70877,-9.89217 L 9.34781,-9.87201 z
M -49.0146,-7.69601 L -49.0146,-14.687 L -49.0159,-15.0253 L -49.0198,-15.3145 L -49.0262,-15.5547 L -49.0351,-15.7459
 L -49.0466,-15.888 L -48.1006,-15.888 L -48.0802,-15.6779 L -48.0517,-15.1416 L -48.0466,-14.958 L -48.0246,-14.958
 L -47.9135,-15.1655 L -47.789,-15.3495 L -47.651,-15.5101 L -47.4995,-15.6473 L -47.3346,-15.761 L -47.1518,-15.8528
 L -46.9471,-15.9242 L -46.7207,-15.9752 L -46.4726,-16.0058 L -46.2026,-16.016 L -45.7898,-15.9866 L -45.4209,-15.8984
 L -45.0959,-15.7514 L -44.8148,-15.5456 L -44.5776,-15.281 L -44.3836,-14.9538 L -44.2327,-14.5596 L -44.1249,-14.0982
 L -44.0602,-13.5696 L -44.0386,-12.974 L -44.1252,-11.8573 L -44.3849,-10.9887 L -44.8177,-10.3683 L -45.4236,-9.99609
 L -46.2026,-9.87201 L -46.711,-9.91321 L -47.1479,-10.0368 L -47.5135,-10.2428 L -47.8078,-10.5312 L -48.0306,-10.902
 L -48.0576,-10.902 L -48.0497,-10.8515 L -48.0436,-10.7343 L -48.0392,-10.5505 L -48.0365,-10.3001 L -48.0356,-7.69601
 z
M -46.1882,-10.6166 L -45.9443,-10.6815 L -45.7319,-10.7897 L -45.551,-10.9412 L -45.4016,-11.136 L -45.281,-11.3818
 L -45.1872,-11.6862 L -45.1202,-12.0494 L -45.08,-12.4714 L -45.0666,-12.952 L -45.0799,-13.4204 L -45.1198,-13.8322
 L -45.1862,-14.1871 L -45.2791,-14.4854 L -45.3986,-14.727 L -45.5468,-14.9189 L -45.7263,-15.0681 L -45.9373,-15.1747
 L -46.1798,-15.2387 L -46.4536,-15.26 L -46.676,-15.2501 L -46.8781,-15.2203 L -47.0601,-15.1707 L -47.222,-15.1013
 L -47.3636,-15.012 L -47.489,-14.9021 L -47.6017,-14.7699 L -47.7019,-14.6155 L -47.7896,-14.4389 L -47.8646,-14.24
 L -47.9262,-14.0177 L -47.9741,-13.7701 L -48.0083,-13.4971 L -48.0288,-13.1987 L -48.0356,-12.875 L -48.0208,-12.4316
 L -47.9764,-12.0374 L -47.9024,-11.6924 L -47.7988,-11.3966 L -47.6656,-11.15 L -47.4992,-10.9502 L -47.2957,-10.7948
 L -47.0553,-10.6838 L -46.778,-10.6172 L -46.4636,-10.595 z
M -39.4051,-9.89076 L -39.7067,-9.94705 L -39.9731,-10.0408 L -40.2043,-10.1721 L -40.4003,-10.341 L -40.5609,-10.543
 L -40.6858,-10.7728 L -40.775,-11.0306 L -40.8285,-11.3163 L -40.8463,-11.63 L -40.8223,-11.9798 L -40.7502,-12.2954
 L -40.63,-12.577 L -40.4617,-12.8246 L -40.2453,-13.038 L -39.9754,-13.2161 L -39.6466,-13.3575 L -39.2588,-13.4623
 L -38.812,-13.5305 L -38.3063,-13.562 L -36.9853,-13.584 L -36.9853,-13.91 L -36.9975,-14.1854 L -37.0341,-14.4276
 L -37.0951,-14.6366 L -37.1805,-14.8124 L -37.2903,-14.955 L -37.4259,-15.0688 L -37.5894,-15.1572 L -37.7808,-15.2204
 L -38.0001,-15.2583 L -38.2473,-15.271 L -38.4962,-15.2622 L -38.7163,-15.2359 L -38.9077,-15.1922 L -39.0704,-15.1308
 L -39.2043,-15.052 L -39.3144,-14.9539 L -39.4053,-14.8349 L -39.4771,-14.6949 L -39.5298,-14.5339 L -39.5633,-14.352
 L -40.5853,-14.444 L -40.4109,-15.0099 L -40.0877,-15.4501 L -39.6157,-15.7645 L -38.9949,-15.9531 L -38.2253,-16.016
 L -37.8037,-15.9955 L -37.426,-15.9341 L -37.0922,-15.8317 L -36.8023,-15.6883 L -36.5563,-15.504 L -36.3547,-15.2813
 L -36.1979,-15.0219 L -36.0859,-14.7259 L -36.0187,-14.3933 L -35.9963,-14.024 L -35.9963,-11.475 L -35.9918,-11.3084
 L -35.9781,-11.1591 L -35.9553,-11.0271 L -35.9234,-10.9124 L -35.8823,-10.815 L -35.8284,-10.7354 L -35.758,-10.6736
 L -35.671,-10.6293 L -35.5674,-10.6028 L -35.4473,-10.594 L -35.3891,-10.5955 L -35.3278,-10.6001 L -35.2636,-10.6077
 L -35.1964,-10.6183 L -35.1263,-10.632 L -35.1263,-10.023 L -35.275,-9.99168 L -35.4249,-9.96733 L -35.5761,-9.94992
 L -35.7286,-9.93948 L -35.8823,-9.936 L -36.088,-9.9474 L -36.27,-9.98161 L -36.4282,-10.0386 L -36.5627,-10.1184
 L -36.6733,-10.221 L -36.7636,-10.3479 L -36.8367,-10.5008 L -36.8927,-10.6796 L -36.9316,-10.8844 L -36.9533,-11.115
 L -36.9863,-11.115 L -37.1413,-10.8593 L -37.306,-10.6353 L -37.4806,-10.4431 L -37.6651,-10.2827 L -37.8593,-10.154
 L -38.0667,-10.0525 L -38.2913,-9.97353 L -38.5331,-9.91713 L -38.7921,-9.88329 L -39.0683,-9.87201 z
M -38.6346,-10.6158 L -38.4335,-10.6454 L -38.2421,-10.6945 L -38.0604,-10.7634 L -37.8883,-10.852 L -37.7278,-10.9581
 L -37.5815,-11.0787 L -37.4492,-11.2139 L -37.3312,-11.3637 L -37.2273,-11.528 L -37.1402,-11.701 L -37.0724,-11.8758
 L -37.024,-12.0526 L -36.995,-12.2314 L -36.9853,-12.412 L -36.9853,-12.899 L -38.0563,-12.877 L -38.3193,-12.8678
 L -38.5555,-12.8488 L -38.7649,-12.8202 L -38.9475,-12.782 L -39.1033,-12.734 L -39.2391,-12.6759 L -39.3617,-12.6063
 L -39.4711,-12.5253 L -39.5673,-12.4329 L -39.6503,-12.329 L -39.7187,-12.213 L -39.7719,-12.0834 L -39.8099,-11.9402
 L -39.8327,-11.7834 L -39.8403,-11.613 L -39.83,-11.429 L -39.799,-11.2624 L -39.7475,-11.1134 L -39.6752,-10.9819
 L -39.5823,-10.868 L -39.47,-10.7737 L -39.3401,-10.7003 L -39.1927,-10.6479 L -39.0278,-10.6165 L -38.8453,-10.606
 z
M 22.7897,-9.90364 L 22.3498,-9.99857 L 21.9604,-10.1568 L 21.6215,-10.3782 L 21.333,-10.663 L 21.0961,-11.0079
 L 20.9119,-11.4089 L 20.7803,-11.8661 L 20.7013,-12.3795 L 20.675,-12.949 L 20.7805,-14.0531 L 21.0969,-14.9119
 L 21.6243,-15.5253 L 22.3627,-15.8933 L 23.312,-16.016 L 23.8231,-15.9861 L 24.2771,-15.8963 L 24.6741,-15.7467
 L 25.0141,-15.5373 L 25.297,-15.268 L 25.526,-14.9362 L 25.7041,-14.5384 L 25.8313,-14.0746 L 25.9076,-13.5448
 L 25.933,-12.949 L 25.9058,-12.3587 L 25.8242,-11.832 L 25.6882,-11.3688 L 25.4978,-10.9691 L 25.253,-10.633
 L 24.9568,-10.359 L 24.6114,-10.146 L 24.2168,-9.99377 L 23.773,-9.90245 L 23.28,-9.87201 z
M 23.6003,-10.6178 L 23.8923,-10.6864 L 24.1441,-10.8006 L 24.3557,-10.9604 L 24.527,-11.166 L 24.6631,-11.42
 L 24.7689,-11.7254 L 24.8445,-12.082 L 24.8899,-12.4898 L 24.905,-12.949 L 24.8905,-13.4141 L 24.8471,-13.8253
 L 24.7747,-14.1827 L 24.6733,-14.4863 L 24.543,-14.736 L 24.3789,-14.9365 L 24.1753,-15.0925 L 23.9323,-15.2039
 L 23.6499,-15.2707 L 23.328,-15.293 L 23.0034,-15.2703 L 22.7168,-15.2021 L 22.4682,-15.0885 L 22.2576,-14.9295
 L 22.085,-14.725 L 21.9471,-14.4722 L 21.8399,-14.1682 L 21.7633,-13.813 L 21.7173,-13.4066 L 21.702,-12.949
 L 21.7171,-12.5027 L 21.7625,-12.1032 L 21.8381,-11.7504 L 21.9439,-11.4444 L 22.08,-11.185 L 22.2485,-10.9726
 L 22.4515,-10.8074 L 22.6891,-10.6894 L 22.9613,-10.6186 L 23.268,-10.595 z
M 44.4639,-10 L 46.5579,-13.026 L 44.5619,-15.888 L 45.6439,-15.888 L 47.1119,-13.597 L 48.5689,-15.888
 L 49.6619,-15.888 L 47.6669,-13.037 L 49.7869,-10 L 48.6939,-10 L 47.1119,-12.416 L 45.5189,-10
 z
M -89.986,-0 L -88.028,-4.79999 L -87.289,-4.79999 L -85.361,-0 L -86.025,-0 L -86.573,-1.41199
 L -88.76,-1.41199 L -89.312,-0 z
M -87.4606,-3.69595 L -87.537,-3.91243 L -87.667,-4.31 L -87.7353,-4.09583 L -87.7791,-3.96396 L -87.8295,-3.81935
 L -87.95,-3.49199 L -88.563,-1.92 L -86.767,-1.92 z
M 86.0486,-0 L 86.0486,-4.79999 L 87.7926,-4.79999 L 88.401,-4.75323 L 88.8742,-4.61295 L 89.2122,-4.37915
 L 89.415,-4.05183 L 89.4826,-3.631 L 89.473,-3.46564 L 89.4443,-3.31116 L 89.3965,-3.16756 L 89.3296,-3.03484
 L 89.2436,-2.91299 L 89.1405,-2.80463 L 89.0215,-2.71155 L 88.8867,-2.63376 L 88.7361,-2.57123 L 88.5696,-2.52399
 L 88.7879,-2.48695 L 88.9852,-2.43024 L 89.1617,-2.35384 L 89.3171,-2.25775 L 89.4516,-2.142 L 89.5632,-2.0098
 L 89.65,-1.8644 L 89.712,-1.7058 L 89.7492,-1.534 L 89.7616,-1.349 L 89.7429,-1.10475 L 89.6868,-0.88324
 L 89.5934,-0.684433 L 89.4627,-0.508347 L 89.2946,-0.354996 L 89.0935,-0.227188 L 88.8632,-0.127792 L 88.6036,-0.0567932
 L 88.3147,-0.0141907 L 87.9966,-0 z
M 87.9908,-2.75987 L 88.1678,-2.78351 L 88.3236,-2.82291 L 88.4582,-2.87807 L 88.5716,-2.94899 L 88.6641,-3.03619
 L 88.7361,-3.1402 L 88.7874,-3.26099 L 88.8183,-3.39859 L 88.8286,-3.55299 L 88.8179,-3.70012 L 88.786,-3.82947
 L 88.7328,-3.94107 L 88.6583,-4.03491 L 88.5626,-4.11099 L 88.447,-4.17148 L 88.3122,-4.21851 L 88.1582,-4.25211
 L 87.985,-4.27228 L 87.7926,-4.27899 L 86.6996,-4.27899 L 86.6996,-2.752 L 87.7926,-2.752 z
M 88.189,-0.529785 L 88.3885,-0.556198 L 88.5621,-0.600189 L 88.7098,-0.661789 L 88.8316,-0.740997 L 88.9299,-0.838028
 L 89.0063,-0.952347 L 89.0609,-1.08395 L 89.0936,-1.23283 L 89.1046,-1.39899 L 89.0569,-1.70319 L 88.9138,-1.93979
 L 88.6754,-2.1088 L 88.3417,-2.21019 L 87.9126,-2.24399 L 86.6996,-2.24399 L 86.6996,-0.520996 L 87.9636,-0.520996
 z
M 4.68214,10 L 4.68214,1.936 L 5.66115,1.936 L 5.66039,4.15149 L 5.65431,4.42172 L 5.64215,4.69901
 L 5.61714,5.10301 L 5.63416,5.10301 L 5.76527,4.88377 L 5.90663,4.68925 L 6.05823,4.51945 L 6.22006,4.37437
 L 6.39215,4.25401 L 6.57883,4.15681 L 6.78447,4.08121 L 7.00906,4.02721 L 7.25262,3.99481 L 7.51515,3.98401
 L 7.87782,4.00313 L 8.20027,4.06049 L 8.48247,4.15608 L 8.72443,4.28993 L 8.92615,4.46201 L 9.08958,4.67873
 L 9.21671,4.94728 L 9.30751,5.26768 L 9.36198,5.63992 L 9.38014,6.06401 L 9.38014,10 L 8.39615,10
 L 8.39615,6.25301 L 8.39159,6.0166 L 8.37791,5.8058 L 8.3551,5.62061 L 8.32318,5.46101 L 8.28215,5.32701
 L 8.23067,5.21225 L 8.16743,5.11037 L 8.09242,5.02136 L 8.00566,4.94525 L 7.90715,4.882 L 7.79466,4.83089
 L 7.66603,4.79112 L 7.52122,4.76273 L 7.36028,4.74568 L 7.18315,4.74001 L 6.91811,4.75925 L 6.67499,4.81697
 L 6.45378,4.91316 L 6.2545,5.04785 L 6.07715,5.22101 L 5.92738,5.42636 L 5.81091,5.65845 L 5.72771,5.91725
 L 5.6778,6.20277 L 5.66115,6.51501 L 5.66115,10 z
M 70.3238,12.304 L 70.711,11.8427 L 71.0542,11.3717 L 71.3534,10.8909 L 71.6086,10.4003 L 71.8198,9.90001
 L 71.9901,9.38432 L 72.1225,8.84848 L 72.2171,8.29248 L 72.2739,7.71632 L 72.2928,7.12001 L 72.2737,6.52361
 L 72.2166,5.9472 L 72.1214,5.39081 L 71.9881,4.8544 L 71.8168,4.33801 L 71.6047,3.83681 L 71.3494,3.34601
 L 71.0508,2.8656 L 70.7089,2.39561 L 70.3238,1.936 L 71.2698,1.936 L 71.6594,2.38536 L 72.0059,2.84625
 L 72.3093,3.31865 L 72.5696,3.80257 L 72.7868,4.298 L 72.9632,4.81108 L 73.1004,5.34872 L 73.1984,5.91093
 L 73.2572,6.49768 L 73.2768,7.10901 L 73.2571,7.7462 L 73.1981,8.3358 L 73.0997,8.89981 L 72.9619,9.4382
 L 72.7848,9.951 L 72.5667,10.4451 L 72.3062,10.9275 L 72.0032,11.3981 L 71.6577,11.8569 L 71.2698,12.304
 z
M 54.9742,10.0978 L 54.599,10.0072 L 54.271,9.8562 L 53.9902,9.64481 L 53.7566,9.373 L 53.568,9.03949
 L 53.4213,8.64372 L 53.3165,8.18573 L 53.2536,7.66548 L 53.2326,7.08301 L 53.3192,5.96736 L 53.5789,5.09966
 L 54.0117,4.47984 L 54.6176,4.10797 L 55.3966,3.98401 L 55.6553,3.99388 L 55.896,4.02353 L 56.1188,4.07292
 L 56.3237,4.14209 L 56.5106,4.231 L 56.6821,4.341 L 56.8396,4.47421 L 56.9832,4.63062 L 57.1129,4.81021
 L 57.2286,5.013 L 57.2396,5.013 L 57.2286,4.36 L 57.2286,1.936 L 58.2076,1.936 L 58.2076,8.78801
 L 58.209,9.13057 L 58.2129,9.42305 L 58.2195,9.66545 L 58.2288,9.85777 L 58.2406,10 L 57.3046,10
 L 57.2981,9.9566 L 57.2844,9.81581 L 57.2628,9.48169 L 57.2537,9.25993 L 57.2506,9.06601 L 57.2286,9.06601
 L 57.1128,9.28073 L 56.9827,9.46968 L 56.8385,9.63289 L 56.6802,9.77032 L 56.5076,9.882 L 56.3198,9.97057
 L 56.1148,10.0394 L 55.8926,10.0886 L 55.6532,10.1181 L 55.3966,10.128 z
M 55.9612,9.34872 L 56.2391,9.27888 L 56.4805,9.16249 L 56.6854,8.99953 L 56.8536,8.79001 L 56.9886,8.53157
 L 57.0936,8.22185 L 57.1686,7.86086 L 57.2136,7.44856 L 57.2286,6.985 L 57.2136,6.53825 L 57.1686,6.14197
 L 57.0936,5.79617 L 56.9886,5.50085 L 56.8536,5.25601 L 56.6858,5.05836 L 56.4821,4.90465 L 56.2427,4.79485
 L 55.9676,4.72897 L 55.6566,4.707 L 55.3774,4.72908 L 55.131,4.79533 L 54.9174,4.90573 L 54.7366,5.06029
 L 54.5886,5.259 L 54.4702,5.50697 L 54.3781,5.81004 L 54.3123,6.16824 L 54.2728,6.58157 L 54.2596,7.05
 L 54.2727,7.52008 L 54.3118,7.93353 L 54.377,8.29033 L 54.4683,8.59048 L 54.5856,8.83401 L 54.7327,9.02769
 L 54.9124,9.17833 L 55.1246,9.28593 L 55.3693,9.35049 L 55.6466,9.37201 z
M -54.4405,2.871 L -54.4405,1.936 L -53.4615,1.936 L -53.4615,2.871 z
M -48.8774,12.3016 L -49.0226,12.2944 L -49.1574,12.2824 L -49.2818,12.2656 L -49.3958,12.244 L -49.3958,11.51
 L -49.3112,11.5219 L -49.2233,11.5311 L -49.1319,11.5377 L -49.037,11.5417 L -48.9388,11.543 L -48.5884,11.4895
 L -48.2685,11.3291 L -47.9791,11.0617 L -47.7202,10.6873 L -47.4918,10.206 L -47.3998,9.97301 L -49.6644,4.28371
 L -49.6644,4.82401 L -50.8114,4.82401 L -50.8114,10 L -51.7904,10 L -51.7904,4.82401 L -52.6164,4.82401
 L -52.6164,4.11201 L -51.7904,4.11201 L -51.7904,3.44801 L -51.7763,3.14409 L -51.7339,2.87633 L -51.6633,2.64473
 L -51.5645,2.4493 L -51.4374,2.29001 L -51.2809,2.16257 L -51.0944,2.06345 L -50.878,1.99265 L -50.6317,1.95016
 L -50.3554,1.936 L -50.1972,1.93861 L -50.049,1.94641 L -49.9108,1.95941 L -49.7826,1.9776 L -49.6644,2.00101
 L -49.6644,2.74701 L -49.7602,2.73117 L -49.8516,2.71884 L -49.9386,2.71005 L -50.0212,2.70477 L -50.0994,2.703
 L -50.2412,2.71065 L -50.3664,2.73357 L -50.4753,2.77177 L -50.5676,2.82524 L -50.6434,2.89401 L -50.7039,2.98241
 L -50.7509,3.09561 L -50.7845,3.23361 L -50.8047,3.39641 L -50.8114,3.58401 L -50.8114,4.11201 L -48.6888,4.11201
 L -47.4488,7.367 L -47.0037,8.65692 L -46.9298,8.88429 L -46.9158,8.93401 L -46.5348,7.86201 L -45.2468,4.11201
 L -44.2138,4.11201 L -46.4758,10 L -46.6194,10.356 L -46.7593,10.6736 L -46.8953,10.9528 L -47.0274,11.1936
 L -47.1558,11.396 L -47.2845,11.5699 L -47.4188,11.7251 L -47.5586,11.8617 L -47.7039,11.9797 L -47.8548,12.079
 L -48.012,12.16 L -48.1773,12.223 L -48.3507,12.268 L -48.5322,12.295 L -48.7218,12.304 z
M 51.0985,2.871 L 51.0985,1.936 L 52.0775,1.936 L 52.0775,2.871 z
M -40.5743,2.871 L -40.5743,1.936 L -39.5953,1.936 L -39.5953,2.871 z
M 16.7285,10 L 16.7285,1.936 L 17.7075,1.936 L 17.7075,10 z
M -19.4669,2.871 L -19.4669,1.936 L -18.4879,1.936 L -18.4879,2.871 z
M -71.1751,12.304 L -71.5644,11.8547 L -71.9107,11.3939 L -72.2141,10.9217 L -72.4746,10.4381 L -72.6921,9.94301
 L -72.8681,9.42957 L -73.005,8.89165 L -73.1028,8.32925 L -73.1615,7.74237 L -73.1811,7.13101 L -73.1614,6.4938
 L -73.1023,5.90421 L -73.0039,5.34021 L -72.8662,4.8018 L -72.6891,4.289 L -72.4711,3.79489 L -72.2107,3.31253
 L -71.9079,2.84193 L -71.5627,2.38309 L -71.1751,1.936 L -70.2291,1.936 L -70.6142,2.39369 L -70.9561,2.86273
 L -71.2547,3.34312 L -71.51,3.83488 L -71.7221,4.33801 L -71.8931,4.856 L -72.0261,5.3932 L -72.1211,5.9496
 L -72.1781,6.52521 L -72.1971,7.12001 L -72.1783,7.71245 L -72.1219,8.28577 L -72.0279,8.83997 L -71.8963,9.37505
 L -71.7271,9.89101 L -71.5164,10.3926 L -71.2613,10.8848 L -70.9617,11.3674 L -70.6176,11.8404 L -70.2291,12.304
 z
M -2.54355,10.1093 L -2.92238,10.0533 L -3.26819,9.95988 L -3.58095,9.82913 L -3.86066,9.66101 L -4.10451,9.45705
 L -4.30963,9.21957 L -4.47603,8.94856 L -4.6037,8.64404 L -4.69266,8.30602 L -3.70267,8.192 L -3.53975,8.60133
 L -3.29898,8.91969 L -2.98038,9.14709 L -2.58394,9.28352 L -2.10966,9.32901 L -1.80815,9.31001 L -1.53398,9.25301
 L -1.28719,9.158 L -1.06775,9.02501 L -0.875671,8.854 L -0.715103,8.64977 L -0.590225,8.41705 L -0.501022,8.15585
 L -0.44751,7.86617 L -0.429657,7.548 L -0.447632,7.27029 L -0.501511,7.01472 L -0.591309,6.78133 L -0.717026,6.57008
 L -0.878662,6.38101 L -1.07039,6.22044 L -1.28714,6.09557 L -1.52895,6.00636 L -1.79579,5.95285 L -2.08766,5.93501
 L -2.24431,5.94 L -2.39662,5.955 L -2.54462,5.98001 L -2.68831,6.01501 L -2.82767,6.06001 L -2.96451,6.11697
 L -3.10143,6.18785 L -3.23842,6.27264 L -3.3755,6.37137 L -3.51266,6.48401 L -4.46967,6.48401 L -4.21466,2.32001
 L 0.141327,2.32001 L 0.141327,3.15201 L -3.32266,3.15201 L -3.46967,5.625 L -3.20282,5.44897 L -2.9111,5.31204
 L -2.5945,5.21425 L -2.25302,5.15556 L -1.88666,5.136 L -1.45267,5.16252 L -1.05547,5.24208 L -0.695068,5.37469
 L -0.37146,5.56033 L -0.084671,5.79901 L 0.157242,6.07993 L 0.345398,6.39308 L 0.479797,6.73849 L 0.56044,7.11613
 L 0.587326,7.526 L 0.558487,7.98981 L 0.471954,8.41241 L 0.327759,8.79381 L 0.125885,9.134 L -0.133667,9.43301
 L -0.443985,9.68321 L -0.79895,9.87781 L -1.19855,10.0168 L -1.64279,10.1002 L -2.13167,10.128 z
M 40.4978,10.0109 L 40.1691,9.85153 L 39.9343,9.58592 L 39.7934,9.21408 L 39.7464,8.73601 L 39.7464,4.82401
 L 39.0674,4.82401 L 39.0674,4.11201 L 39.7844,4.11201 L 40.0734,2.76801 L 40.7254,2.76801 L 40.7254,4.11201
 L 41.8134,4.11201 L 41.8134,4.82401 L 40.7254,4.82401 L 40.7254,8.522 L 40.731,8.68112 L 40.7475,8.82008
 L 40.7751,8.93889 L 40.8138,9.03752 L 40.8634,9.11601 L 40.9272,9.1772 L 41.0073,9.22481 L 41.1037,9.2588
 L 41.2164,9.27921 L 41.3454,9.28601 L 41.4304,9.28297 L 41.5294,9.27385 L 41.6424,9.25865 L 41.7694,9.23737
 L 41.9104,9.21001 L 41.9104,9.93301 L 41.7159,9.98016 L 41.5197,10.0168 L 41.3217,10.043 L 41.1219,10.0587
 L 40.9204,10.064 z
M -31.2747,10.0109 L -31.6034,9.85153 L -31.8382,9.58592 L -31.979,9.21408 L -32.026,8.73601 L -32.026,4.82401
 L -32.705,4.82401 L -32.705,4.11201 L -31.988,4.11201 L -31.699,2.76801 L -31.047,2.76801 L -31.047,4.11201
 L -29.959,4.11201 L -29.959,4.82401 L -31.047,4.82401 L -31.047,8.522 L -31.0415,8.68112 L -31.0249,8.82008
 L -30.9973,8.93889 L -30.9587,9.03752 L -30.909,9.11601 L -30.8453,9.1772 L -30.7652,9.22481 L -30.6688,9.2588
 L -30.5561,9.27921 L -30.427,9.28601 L -30.342,9.28297 L -30.243,9.27385 L -30.13,9.25865 L -30.003,9.23737
 L -29.862,9.21001 L -29.862,9.93301 L -30.0565,9.98016 L -30.2527,10.0168 L -30.4507,10.043 L -30.6505,10.0587
 L -30.852,10.064 z
M -62.1871,10.0967 L -62.6345,10.0027 L -63.0321,9.84613 L -63.3799,9.62689 L -63.678,9.345 L -63.9235,9.00137
 L -64.1145,8.59685 L -64.2509,8.13145 L -64.3327,7.60516 L -64.36,7.01801 L -64.3327,6.45821 L -64.2509,5.9532
 L -64.1145,5.50301 L -63.9235,5.1076 L -63.678,4.76701 L -63.3814,4.48512 L -63.0382,4.26588 L -62.6482,4.10928
 L -62.2114,4.01534 L -61.728,3.98401 L -60.7942,4.10864 L -60.0678,4.48257 L -59.549,5.10577 L -59.2378,5.97824
 L -59.134,7.10001 L -59.134,7.23001 L -63.332,7.23001 L -63.3153,7.62589 L -63.2651,7.98393 L -63.1815,8.30412
 L -63.0645,8.58649 L -62.914,8.83101 L -62.731,9.03369 L -62.517,9.19133 L -62.2722,9.30392 L -61.9966,9.37149
 L -61.69,9.39401 L -61.4457,9.38348 L -61.2217,9.35193 L -61.0179,9.29933 L -60.8343,9.22569 L -60.671,9.13101
 L -60.5273,9.01985 L -60.4035,8.89757 L -60.2995,8.76416 L -60.2153,8.61964 L -60.151,8.464 L -59.292,8.71301
 L -59.5566,9.22241 L -59.9286,9.61861 L -60.4082,9.90161 L -60.9954,10.0714 L -61.69,10.128 z
M -60.1912,6.1304 L -60.261,5.8208 L -60.3556,5.55121 L -60.475,5.32161 L -60.619,5.132 L -60.7891,4.979
 L -60.9867,4.86 L -61.2117,4.77501 L -61.4641,4.72401 L -61.744,4.707 L -62.0173,4.72592 L -62.2669,4.78268
 L -62.4927,4.87729 L -62.6947,5.00974 L -62.873,5.18001 L -63.0237,5.38336 L -63.1439,5.61505 L -63.2335,5.87505
 L -63.2925,6.16336 L -63.321,6.48001 L -60.146,6.48001 z
M 34.7785,10.1092 L 34.4769,10.0529 L 34.2104,9.95917 L 33.9792,9.82785 L 33.7832,9.65901 L 33.6227,9.45705
 L 33.4978,9.22717 L 33.4086,8.96936 L 33.3551,8.68365 L 33.3372,8.37001 L 33.3613,8.02025 L 33.4334,7.70457
 L 33.5536,7.42297 L 33.7219,7.17545 L 33.9382,6.96201 L 34.2081,6.78392 L 34.537,6.64249 L 34.9248,6.53769
 L 35.3715,6.46953 L 35.8772,6.438 L 37.1983,6.416 L 37.1983,6.09001 L 37.1861,5.81461 L 37.1494,5.5724
 L 37.0885,5.3634 L 37.0031,5.18761 L 36.8932,5.04501 L 36.7577,4.93124 L 36.5942,4.84277 L 36.4028,4.77957
 L 36.1835,4.74165 L 35.9362,4.729 L 35.6874,4.73776 L 35.4673,4.76405 L 35.2759,4.80785 L 35.1132,4.86917
 L 34.9792,4.94801 L 34.8692,5.04608 L 34.7783,5.16513 L 34.7065,5.30513 L 34.6538,5.46609 L 34.6203,5.64801
 L 33.5983,5.55602 L 33.7726,4.99008 L 34.0959,4.54993 L 34.5679,4.23553 L 35.1886,4.04689 L 35.9583,3.98401
 L 36.3799,4.00449 L 36.7576,4.06593 L 37.0914,4.16833 L 37.3813,4.31169 L 37.6272,4.496 L 37.8289,4.71873
 L 37.9857,4.97809 L 38.0977,5.27409 L 38.1649,5.60674 L 38.1873,5.97601 L 38.1873,8.52501 L 38.1918,8.69157
 L 38.2055,8.84085 L 38.2283,8.97285 L 38.2602,9.08757 L 38.3013,9.18501 L 38.3551,9.26457 L 38.4256,9.32645
 L 38.5126,9.37065 L 38.6161,9.39717 L 38.7363,9.40601 L 38.7945,9.4045 L 38.8558,9.39993 L 38.92,9.39233
 L 38.9871,9.38168 L 39.0573,9.36801 L 39.0573,9.97701 L 38.9086,10.0083 L 38.7587,10.0327 L 38.6075,10.0501
 L 38.455,10.0605 L 38.3013,10.064 L 38.0955,10.0526 L 37.9136,10.0184 L 37.7554,9.96141 L 37.6209,9.88161
 L 37.5103,9.77901 L 37.42,9.65205 L 37.3469,9.49916 L 37.2909,9.32037 L 37.252,9.11565 L 37.2303,8.88501
 L 37.1973,8.88501 L 37.0423,9.14073 L 36.8776,9.36469 L 36.703,9.55688 L 36.5185,9.71733 L 36.3242,9.84601
 L 36.1169,9.94753 L 35.8923,10.0265 L 35.6505,10.0829 L 35.3914,10.1167 L 35.1152,10.128 z
M 35.549,9.38417 L 35.7501,9.35464 L 35.9415,9.30545 L 36.1232,9.23657 L 36.2953,9.14801 L 36.4558,9.04193
 L 36.6021,8.9213 L 36.7343,8.78609 L 36.8524,8.63632 L 36.9563,8.472 L 37.0434,8.29904 L 37.1111,8.12416
 L 37.1595,7.94737 L 37.1886,7.76865 L 37.1983,7.58801 L 37.1983,7.10101 L 36.1272,7.123 L 35.8643,7.13225
 L 35.6281,7.15117 L 35.4187,7.17976 L 35.2361,7.21805 L 35.0802,7.26601 L 34.9444,7.32413 L 34.8219,7.39369
 L 34.7124,7.47469 L 34.6163,7.56712 L 34.5332,7.67101 L 34.4648,7.787 L 34.4117,7.91661 L 34.3737,8.05981
 L 34.3508,8.21661 L 34.3432,8.38701 L 34.3536,8.57104 L 34.3845,8.73756 L 34.4361,8.88657 L 34.5084,9.01805
 L 34.6013,9.132 L 34.7136,9.22633 L 34.8435,9.29968 L 34.9909,9.35208 L 35.1558,9.38353 L 35.3383,9.39401
 z
M -23.0532,10 L -23.0532,5.483 L -23.0545,5.22977 L -23.0583,4.96605 L -23.0647,4.69185 L -23.0737,4.40717
 L -23.0852,4.11201 L -22.1612,4.11201 L -22.1251,5.00984 L -22.1182,5.29401 L -22.0962,5.29401 L -21.9998,5.01077
 L -21.8978,4.76585 L -21.7902,4.55925 L -21.677,4.39096 L -21.5582,4.261 L -21.4262,4.16129 L -21.2742,4.08372
 L -21.1022,4.02832 L -20.9102,3.99509 L -20.6982,3.98401 L -20.6196,3.98616 L -20.5406,3.99265 L -20.4612,4.00345
 L -20.3814,4.01857 L -20.3012,4.03801 L -20.3012,4.93501 L -20.3848,4.91557 L -20.4788,4.90045 L -20.5832,4.88965
 L -20.698,4.88316 L -20.8232,4.88101 L -21.0553,4.90208 L -21.2643,4.96533 L -21.4503,5.07072 L -21.6133,5.21829
 L -21.7532,5.408 L -21.8687,5.63708 L -21.9586,5.90273 L -22.0228,6.20493 L -22.0613,6.54369 L -22.0742,6.91901
 L -22.0742,10 z
M 21.0355,10.0967 L 20.5882,10.0027 L 20.1906,9.84613 L 19.8427,9.62689 L 19.5446,9.345 L 19.2991,9.00137
 L 19.1082,8.59685 L 18.9718,8.13145 L 18.8899,7.60516 L 18.8626,7.01801 L 18.8899,6.45821 L 18.9718,5.9532
 L 19.1082,5.50301 L 19.2991,5.1076 L 19.5446,4.76701 L 19.8412,4.48512 L 20.1845,4.26588 L 20.5745,4.10928
 L 21.0112,4.01534 L 21.4946,3.98401 L 22.4285,4.10864 L 23.1548,4.48257 L 23.6736,5.10577 L 23.9849,5.97824
 L 24.0886,7.10001 L 24.0886,7.23001 L 19.8906,7.23001 L 19.9074,7.62589 L 19.9575,7.98393 L 20.0411,8.30412
 L 20.1582,8.58649 L 20.3086,8.83101 L 20.4917,9.03369 L 20.7056,9.19133 L 20.9504,9.30392 L 21.2261,9.37149
 L 21.5326,9.39401 L 21.7769,9.38348 L 22.001,9.35193 L 22.2048,9.29933 L 22.3883,9.22569 L 22.5516,9.13101
 L 22.6953,9.01985 L 22.8192,8.89757 L 22.9232,8.76416 L 23.0073,8.61964 L 23.0716,8.464 L 23.9306,8.71301
 L 23.6661,9.22241 L 23.294,9.61861 L 22.8144,9.90161 L 22.2273,10.0714 L 21.5326,10.128 z
M 23.0315,6.1304 L 22.9616,5.8208 L 22.867,5.55121 L 22.7477,5.32161 L 22.6036,5.132 L 22.4335,4.979
 L 22.236,4.86 L 22.011,4.77501 L 21.7585,4.72401 L 21.4786,4.707 L 21.2053,4.72592 L 20.9558,4.78268
 L 20.73,4.87729 L 20.5279,5.00974 L 20.3496,5.18001 L 20.1989,5.38336 L 20.0788,5.61505 L 19.9892,5.87505
 L 19.9301,6.16336 L 19.9016,6.48001 L 23.0766,6.48001 z
M -10.9946,10 L -10.9946,5.483 L -10.9959,5.22977 L -10.9997,4.96605 L -11.0061,4.69185 L -11.0151,4.40717
 L -11.0266,4.11201 L -10.1026,4.11201 L -10.0665,5.00984 L -10.0596,5.29401 L -10.0376,5.29401 L -9.94119,5.01077
 L -9.83919,4.76585 L -9.7316,4.55925 L -9.61839,4.39096 L -9.49959,4.261 L -9.3676,4.16129 L -9.21559,4.08372
 L -9.04359,4.02832 L -8.85159,3.99509 L -8.63959,3.98401 L -8.56099,3.98616 L -8.48199,3.99265 L -8.40259,4.00345
 L -8.3228,4.01857 L -8.2426,4.03801 L -8.2426,4.93501 L -8.32619,4.91557 L -8.4202,4.90045 L -8.5246,4.88965
 L -8.63939,4.88316 L -8.76459,4.88101 L -8.99667,4.90208 L -9.20572,4.96533 L -9.39171,5.07072 L -9.55467,5.21829
 L -9.6946,5.408 L -9.81015,5.63708 L -9.90004,5.90273 L -9.96423,6.20493 L -10.0027,6.54369 L -10.0156,6.91901
 L -10.0156,10 z
M -58.0268,10 L -58.0268,5.483 L -58.0281,5.22977 L -58.0319,4.96605 L -58.0383,4.69185 L -58.0473,4.40717
 L -58.0588,4.11201 L -57.1348,4.11201 L -57.0987,5.00984 L -57.0918,5.29401 L -57.0698,5.29401 L -56.9734,5.01077
 L -56.8714,4.76585 L -56.7638,4.55925 L -56.6506,4.39096 L -56.5318,4.261 L -56.3998,4.16129 L -56.2478,4.08372
 L -56.0758,4.02832 L -55.8838,3.99509 L -55.6718,3.98401 L -55.5932,3.98616 L -55.5142,3.99265 L -55.4348,4.00345
 L -55.355,4.01857 L -55.2748,4.03801 L -55.2748,4.93501 L -55.3584,4.91557 L -55.4524,4.90045 L -55.5568,4.88965
 L -55.6716,4.88316 L -55.7968,4.88101 L -56.0289,4.90208 L -56.2379,4.96533 L -56.4239,5.07072 L -56.5869,5.21829
 L -56.7268,5.408 L -56.8424,5.63708 L -56.9323,5.90273 L -56.9965,6.20493 L -57.035,6.54369 L -57.0478,6.91901
 L -57.0478,10 z
M -38.1362,10 L -38.1362,5.369 L -38.1375,4.98976 L -38.1413,4.67445 L -38.1477,4.42305 L -38.1567,4.23557
 L -38.1682,4.11201 L -37.2442,4.11201 L -37.2422,4.12645 L -37.2202,4.52701 L -37.2012,5.10301 L -37.1852,5.10301
 L -37.0462,4.87289 L -36.8986,4.67133 L -36.7426,4.49832 L -36.5782,4.35388 L -36.4052,4.23801 L -36.219,4.14656
 L -36.0158,4.07545 L -35.7953,4.02464 L -35.5578,3.99417 L -35.3032,3.98401 L -34.9368,4.00333 L -34.612,4.06129
 L -34.3288,4.15788 L -34.0872,4.29312 L -33.8872,4.46701 L -33.7256,4.68544 L -33.5998,4.95436 L -33.51,5.27377
 L -33.4562,5.64365 L -33.4382,6.06401 L -33.4382,10 L -34.4222,10 L -34.4222,6.25301 L -34.4268,6.02989
 L -34.4404,5.82773 L -34.4632,5.64653 L -34.4952,5.48628 L -34.5362,5.347 L -34.5873,5.22505 L -34.6493,5.11757
 L -34.7223,5.02457 L -34.8063,4.94604 L -34.9012,4.882 L -35.0106,4.83089 L -35.1386,4.79112 L -35.2854,4.76273
 L -35.451,4.74568 L -35.6352,4.74001 L -35.9057,4.75945 L -36.1523,4.81776 L -36.3751,4.91496 L -36.5741,5.05104
 L -36.7492,5.22601 L -36.8961,5.43549 L -37.0103,5.67513 L -37.0919,5.94493 L -37.1409,6.24489 L -37.1572,6.57501
 L -37.1572,10 z
M -15.2181,10.0964 L -15.658,10.0014 L -16.0474,9.84325 L -16.3863,9.62177 L -16.6748,9.33701 L -16.9117,8.99213
 L -17.0959,8.59109 L -17.2275,8.13388 L -17.3065,7.62053 L -17.3328,7.05101 L -17.2273,5.94688 L -16.9109,5.08813
 L -16.3835,4.47473 L -15.6451,4.10669 L -14.6958,3.98401 L -14.1847,4.01393 L -13.7307,4.10368 L -13.3336,4.25328
 L -12.9937,4.46272 L -12.7108,4.73201 L -12.4818,5.06381 L -12.3037,5.46161 L -12.1765,5.92542 L -12.1002,6.4552
 L -12.0748,7.05101 L -12.102,7.64125 L -12.1836,8.16797 L -12.3196,8.63116 L -12.51,9.03085 L -12.7548,9.367
 L -13.051,9.64096 L -13.3964,9.85405 L -13.791,10.0062 L -14.2348,10.0975 L -14.7278,10.128 z
M -14.4075,9.38217 L -14.1154,9.31364 L -13.8636,9.19945 L -13.6521,9.03957 L -13.4808,8.83401 L -13.3447,8.57997
 L -13.2389,8.27464 L -13.1633,7.91805 L -13.1179,7.51016 L -13.1028,7.05101 L -13.1172,6.58592 L -13.1607,6.17468
 L -13.2331,5.81729 L -13.3345,5.51373 L -13.4648,5.26401 L -13.6289,5.06349 L -13.8325,4.90753 L -14.0755,4.79613
 L -14.3579,4.72929 L -14.6798,4.707 L -15.0044,4.72972 L -15.291,4.79788 L -15.5396,4.91148 L -15.7502,5.07053
 L -15.9228,5.27501 L -16.0607,5.5278 L -16.1679,5.8318 L -16.2445,6.18701 L -16.2905,6.59341 L -16.3058,7.05101
 L -16.2906,7.49725 L -16.2453,7.89677 L -16.1697,8.24957 L -16.0639,8.55565 L -15.9278,8.815 L -15.7593,9.0274
 L -15.5563,9.19261 L -15.3186,9.31061 L -15.0465,9.38141 L -14.7398,9.40501 z
M -27.2135,10.0967 L -27.6608,10.0027 L -28.0584,9.84613 L -28.4063,9.62689 L -28.7044,9.345 L -28.9499,9.00137
 L -29.1409,8.59685 L -29.2773,8.13145 L -29.3591,7.60516 L -29.3864,7.01801 L -29.3591,6.45821 L -29.2773,5.9532
 L -29.1409,5.50301 L -28.9499,5.1076 L -28.7044,4.76701 L -28.4078,4.48512 L -28.0645,4.26588 L -27.6745,4.10928
 L -27.2378,4.01534 L -26.7544,3.98401 L -25.8205,4.10864 L -25.0942,4.48257 L -24.5754,5.10577 L -24.2641,5.97824
 L -24.1604,7.10001 L -24.1604,7.23001 L -28.3584,7.23001 L -28.3416,7.62589 L -28.2915,7.98393 L -28.2079,8.30412
 L -28.0909,8.58649 L -27.9404,8.83101 L -27.7573,9.03369 L -27.5434,9.19133 L -27.2986,9.30392 L -27.0229,9.37149
 L -26.7164,9.39401 L -26.4721,9.38348 L -26.248,9.35193 L -26.0443,9.29933 L -25.8607,9.22569 L -25.6974,9.13101
 L -25.5537,9.01985 L -25.4298,8.89757 L -25.3259,8.76416 L -25.2417,8.61964 L -25.1774,8.464 L -24.3184,8.71301
 L -24.5829,9.22241 L -24.955,9.61861 L -25.4346,9.90161 L -26.0217,10.0714 L -26.7164,10.128 z
M -25.2175,6.1304 L -25.2874,5.8208 L -25.382,5.55121 L -25.5013,5.32161 L -25.6454,5.132 L -25.8155,4.979
 L -26.013,4.86 L -26.2381,4.77501 L -26.4905,4.72401 L -26.7704,4.707 L -27.0437,4.72592 L -27.2932,4.78268
 L -27.519,4.87729 L -27.7211,5.00974 L -27.8994,5.18001 L -28.0501,5.38336 L -28.1702,5.61505 L -28.2598,5.87505
 L -28.3189,6.16336 L -28.3474,6.48001 L -25.1724,6.48001 z
M 12.527,10.0964 L 12.0871,10.0014 L 11.6977,9.84325 L 11.3588,9.62177 L 11.0703,9.33701 L 10.8335,8.99213
 L 10.6492,8.59109 L 10.5176,8.13388 L 10.4386,7.62053 L 10.4123,7.05101 L 10.5178,5.94688 L 10.8342,5.08813
 L 11.3616,4.47473 L 12.1,4.10669 L 13.0493,3.98401 L 13.5604,4.01393 L 14.0145,4.10368 L 14.4115,4.25328
 L 14.7514,4.46272 L 15.0343,4.73201 L 15.2633,5.06381 L 15.4414,5.46161 L 15.5686,5.92542 L 15.6449,6.4552
 L 15.6703,7.05101 L 15.6431,7.64125 L 15.5615,8.16797 L 15.4255,8.63116 L 15.2351,9.03085 L 14.9903,9.367
 L 14.6941,9.64096 L 14.3487,9.85405 L 13.9541,10.0062 L 13.5103,10.0975 L 13.0173,10.128 z
M 13.3376,9.38217 L 13.6297,9.31364 L 13.8815,9.19945 L 14.093,9.03957 L 14.2643,8.83401 L 14.4004,8.57997
 L 14.5062,8.27464 L 14.5818,7.91805 L 14.6272,7.51016 L 14.6423,7.05101 L 14.6279,6.58592 L 14.5844,6.17468
 L 14.512,5.81729 L 14.4106,5.51373 L 14.2803,5.26401 L 14.1162,5.06349 L 13.9126,4.90753 L 13.6696,4.79613
 L 13.3872,4.72929 L 13.0653,4.707 L 12.7407,4.72972 L 12.4541,4.79788 L 12.2055,4.91148 L 11.9949,5.07053
 L 11.8223,5.27501 L 11.6844,5.5278 L 11.5772,5.8318 L 11.5006,6.18701 L 11.4547,6.59341 L 11.4393,7.05101
 L 11.4545,7.49725 L 11.4998,7.89677 L 11.5754,8.24957 L 11.6812,8.55565 L 11.8173,8.815 L 11.9858,9.0274
 L 12.1888,9.19261 L 12.4265,9.31061 L 12.6986,9.38141 L 13.0053,9.40501 z
M 61.4447,10.0967 L 60.9973,10.0027 L 60.5997,9.84613 L 60.2519,9.62689 L 59.9538,9.345 L 59.7083,9.00137
 L 59.5173,8.59685 L 59.3809,8.13145 L 59.2991,7.60516 L 59.2718,7.01801 L 59.2991,6.45821 L 59.3809,5.9532
 L 59.5173,5.50301 L 59.7083,5.1076 L 59.9538,4.76701 L 60.2504,4.48512 L 60.5937,4.26588 L 60.9837,4.10928
 L 61.4204,4.01534 L 61.9038,3.98401 L 62.8377,4.10864 L 63.564,4.48257 L 64.0828,5.10577 L 64.3941,5.97824
 L 64.4978,7.10001 L 64.4978,7.23001 L 60.2998,7.23001 L 60.3165,7.62589 L 60.3667,7.98393 L 60.4503,8.30412
 L 60.5673,8.58649 L 60.7178,8.83101 L 60.9009,9.03369 L 61.1148,9.19133 L 61.3596,9.30392 L 61.6353,9.37149
 L 61.9418,9.39401 L 62.1861,9.38348 L 62.4101,9.35193 L 62.6139,9.29933 L 62.7975,9.22569 L 62.9608,9.13101
 L 63.1045,9.01985 L 63.2283,8.89757 L 63.3323,8.76416 L 63.4165,8.61964 L 63.4808,8.464 L 64.3398,8.71301
 L 64.0753,9.22241 L 63.7032,9.61861 L 63.2236,9.90161 L 62.6365,10.0714 L 61.9418,10.128 z
M 63.4407,6.1304 L 63.3708,5.8208 L 63.2762,5.55121 L 63.1569,5.32161 L 63.0128,5.132 L 62.8427,4.979
 L 62.6451,4.86 L 62.4201,4.77501 L 62.1677,4.72401 L 61.8878,4.707 L 61.6145,4.72592 L 61.3649,4.78268
 L 61.1391,4.87729 L 60.9371,5.00974 L 60.7588,5.18001 L 60.6081,5.38336 L 60.4879,5.61505 L 60.3983,5.87505
 L 60.3393,6.16336 L 60.3108,6.48001 L 63.4858,6.48001 z
M 67.1925,10.1136 L 66.8133,10.0702 L 66.4743,9.99805 L 66.1755,9.89697 L 65.917,9.76701 L 65.6956,9.606
 L 65.5076,9.41261 L 65.3528,9.18681 L 65.2312,8.9286 L 65.143,8.638 L 66.008,8.46901 L 66.0686,8.64813
 L 66.1506,8.80708 L 66.2538,8.94589 L 66.3782,9.06453 L 66.524,9.16301 L 66.693,9.2422 L 66.8862,9.3038
 L 67.1038,9.34781 L 67.3458,9.37421 L 67.612,9.38301 L 67.894,9.37389 L 68.144,9.34653 L 68.362,9.30093
 L 68.548,9.23709 L 68.702,9.15501 L 68.8262,9.05469 L 68.9228,8.93613 L 68.9918,8.79933 L 69.0332,8.64429
 L 69.047,8.47101 L 69.0374,8.33705 L 69.0088,8.21356 L 68.961,8.10057 L 68.894,7.99805 L 68.808,7.90601
 L 68.7006,7.8222 L 68.5698,7.7444 L 68.4154,7.67261 L 68.2374,7.60681 L 68.036,7.54701 L 67.334,7.36301
 L 67.0166,7.27617 L 66.738,7.19005 L 66.4982,7.10464 L 66.2972,7.01997 L 66.135,6.936 L 65.9988,6.8488
 L 65.875,6.75441 L 65.7636,6.6528 L 65.6646,6.54401 L 65.578,6.42801 L 65.5056,6.30296 L 65.4494,6.16705
 L 65.4092,6.02025 L 65.385,5.86256 L 65.377,5.694 L 65.3999,5.38773 L 65.4687,5.11209 L 65.5833,4.86708
 L 65.7437,4.65273 L 65.95,4.46901 L 66.2006,4.31744 L 66.493,4.19957 L 66.8274,4.11537 L 67.2038,4.06485
 L 67.622,4.048 L 67.9956,4.06172 L 68.337,4.10289 L 68.6464,4.17149 L 68.9238,4.26753 L 69.169,4.39101
 L 69.3817,4.54437 L 69.5607,4.73085 L 69.7059,4.95045 L 69.8173,5.20317 L 69.895,5.48901 L 69.014,5.59801
 L 68.9702,5.44888 L 68.9046,5.31433 L 68.817,5.19432 L 68.7074,5.08888 L 68.576,4.998 L 68.4239,4.92241
 L 68.2525,4.8636 L 68.0617,4.82161 L 67.8515,4.7964 L 67.622,4.78801 L 67.3707,4.79605 L 67.1471,4.82018
 L 66.9513,4.86037 L 66.7833,4.91664 L 66.643,4.98901 L 66.5296,5.07765 L 66.4414,5.18277 L 66.3784,5.30437
 L 66.3406,5.44244 L 66.328,5.597 L 66.3332,5.69353 L 66.3488,5.78308 L 66.3748,5.86569 L 66.4112,5.94133
 L 66.458,6.01001 L 66.5154,6.07324 L 66.5826,6.13257 L 66.6598,6.18797 L 66.747,6.23944 L 66.844,6.287
 L 66.969,6.33609 L 67.1392,6.39212 L 67.3546,6.45512 L 67.6152,6.52509 L 67.921,6.60201 L 68.2148,6.67921
 L 68.4736,6.75401 L 68.6976,6.8264 L 68.8868,6.89641 L 69.041,6.964 L 69.1724,7.03145 L 69.2922,7.10176
 L 69.4004,7.17497 L 69.497,7.25105 L 69.582,7.33 L 69.658,7.41293 L 69.7268,7.50089 L 69.7884,7.59389
 L 69.8428,7.69193 L 69.89,7.79501 L 69.9292,7.90317 L 69.9598,8.01724 L 69.9816,8.13725 L 69.9946,8.26317
 L 69.999,8.395 L 69.9739,8.7122 L 69.8985,8.99901 L 69.7729,9.2554 L 69.5971,9.48141 L 69.371,9.677
 L 69.0997,9.83937 L 68.7881,9.96565 L 68.4363,10.0558 L 68.0443,10.11 L 67.612,10.128 z
M 26.7833,10.1136 L 26.4041,10.0702 L 26.0651,9.99805 L 25.7663,9.89697 L 25.5078,9.76701 L 25.2865,9.606
 L 25.0984,9.41261 L 24.9436,9.18681 L 24.8221,8.9286 L 24.7338,8.638 L 25.5988,8.46901 L 25.6595,8.64813
 L 25.7414,8.80708 L 25.8446,8.94589 L 25.9691,9.06453 L 26.1148,9.16301 L 26.2838,9.2422 L 26.4771,9.3038
 L 26.6947,9.34781 L 26.9366,9.37421 L 27.2028,9.38301 L 27.4848,9.37389 L 27.7348,9.34653 L 27.9528,9.30093
 L 28.1388,9.23709 L 28.2928,9.15501 L 28.417,9.05469 L 28.5136,8.93613 L 28.5826,8.79933 L 28.624,8.64429
 L 28.6378,8.47101 L 28.6283,8.33705 L 28.5996,8.21356 L 28.5518,8.10057 L 28.4849,7.99805 L 28.3988,7.90601
 L 28.2915,7.8222 L 28.1606,7.7444 L 28.0062,7.67261 L 27.8283,7.60681 L 27.6268,7.54701 L 26.9248,7.36301
 L 26.6074,7.27617 L 26.3288,7.19005 L 26.089,7.10464 L 25.888,7.01997 L 25.7258,6.936 L 25.5896,6.8488
 L 25.4658,6.75441 L 25.3544,6.6528 L 25.2554,6.54401 L 25.1688,6.42801 L 25.0965,6.30296 L 25.0402,6.16705
 L 25,6.02025 L 24.9759,5.86256 L 24.9678,5.694 L 24.9907,5.38773 L 25.0595,5.11209 L 25.1741,4.86708
 L 25.3345,4.65273 L 25.5408,4.46901 L 25.7914,4.31744 L 26.0839,4.19957 L 26.4183,4.11537 L 26.7946,4.06485
 L 27.2128,4.048 L 27.5864,4.06172 L 27.9279,4.10289 L 28.2373,4.17149 L 28.5146,4.26753 L 28.7598,4.39101
 L 28.9725,4.54437 L 29.1515,4.73085 L 29.2967,4.95045 L 29.4081,5.20317 L 29.4858,5.48901 L 28.6048,5.59801
 L 28.5611,5.44888 L 28.4954,5.31433 L 28.4078,5.19432 L 28.2983,5.08888 L 28.1668,4.998 L 28.0147,4.92241
 L 27.8433,4.8636 L 27.6525,4.82161 L 27.4423,4.7964 L 27.2128,4.78801 L 26.9615,4.79605 L 26.7379,4.82018
 L 26.5421,4.86037 L 26.3741,4.91664 L 26.2338,4.98901 L 26.1204,5.07765 L 26.0322,5.18277 L 25.9692,5.30437
 L 25.9314,5.44244 L 25.9188,5.597 L 25.924,5.69353 L 25.9396,5.78308 L 25.9656,5.86569 L 26.002,5.94133
 L 26.0488,6.01001 L 26.1062,6.07324 L 26.1735,6.13257 L 26.2507,6.18797 L 26.3378,6.23944 L 26.4348,6.287
 L 26.5598,6.33609 L 26.73,6.39212 L 26.9454,6.45512 L 27.206,6.52509 L 27.5118,6.60201 L 27.8056,6.67921
 L 28.0645,6.75401 L 28.2885,6.8264 L 28.4776,6.89641 L 28.6318,6.964 L 28.7632,7.03145 L 28.883,7.10176
 L 28.9912,7.17497 L 29.0878,7.25105 L 29.1728,7.33 L 29.2488,7.41293 L 29.3176,7.50089 L 29.3792,7.59389
 L 29.4336,7.69193 L 29.4808,7.79501 L 29.5201,7.90317 L 29.5506,8.01724 L 29.5724,8.13725 L 29.5855,8.26317
 L 29.5898,8.395 L 29.5647,8.7122 L 29.4893,8.99901 L 29.3637,9.2554 L 29.1879,9.48141 L 28.9618,9.677
 L 28.6905,9.83937 L 28.3789,9.96565 L 28.0271,10.0558 L 27.6351,10.11 L 27.2028,10.128 z
M 47.2872,10.1136 L 46.908,10.0702 L 46.569,9.99805 L 46.2702,9.89697 L 46.0117,9.76701 L 45.7904,9.606
 L 45.6023,9.41261 L 45.4475,9.18681 L 45.326,8.9286 L 45.2377,8.638 L 46.1027,8.46901 L 46.1634,8.64813
 L 46.2453,8.80708 L 46.3485,8.94589 L 46.473,9.06453 L 46.6187,9.16301 L 46.7877,9.2422 L 46.981,9.3038
 L 47.1986,9.34781 L 47.4405,9.37421 L 47.7067,9.38301 L 47.9887,9.37389 L 48.2387,9.34653 L 48.4567,9.30093
 L 48.6427,9.23709 L 48.7967,9.15501 L 48.9209,9.05469 L 49.0175,8.93613 L 49.0865,8.79933 L 49.1279,8.64429
 L 49.1417,8.47101 L 49.1322,8.33705 L 49.1035,8.21356 L 49.0557,8.10057 L 48.9888,7.99805 L 48.9027,7.90601
 L 48.7954,7.8222 L 48.6645,7.7444 L 48.5101,7.67261 L 48.3322,7.60681 L 48.1307,7.54701 L 47.4287,7.36301
 L 47.1113,7.27617 L 46.8327,7.19005 L 46.5929,7.10464 L 46.3919,7.01997 L 46.2297,6.936 L 46.0935,6.8488
 L 45.9697,6.75441 L 45.8583,6.6528 L 45.7593,6.54401 L 45.6727,6.42801 L 45.6004,6.30296 L 45.5441,6.16705
 L 45.5039,6.02025 L 45.4798,5.86256 L 45.4717,5.694 L 45.4946,5.38773 L 45.5634,5.11209 L 45.678,4.86708
 L 45.8384,4.65273 L 46.0447,4.46901 L 46.2953,4.31744 L 46.5878,4.19957 L 46.9222,4.11537 L 47.2985,4.06485
 L 47.7167,4.048 L 48.0903,4.06172 L 48.4318,4.10289 L 48.7412,4.17149 L 49.0185,4.26753 L 49.2637,4.39101
 L 49.4764,4.54437 L 49.6554,4.73085 L 49.8006,4.95045 L 49.912,5.20317 L 49.9897,5.48901 L 49.1087,5.59801
 L 49.065,5.44888 L 48.9993,5.31433 L 48.9117,5.19432 L 48.8022,5.08888 L 48.6707,4.998 L 48.5186,4.92241
 L 48.3472,4.8636 L 48.1564,4.82161 L 47.9462,4.7964 L 47.7167,4.78801 L 47.4654,4.79605 L 47.2419,4.82018
 L 47.0461,4.86037 L 46.878,4.91664 L 46.7377,4.98901 L 46.6243,5.07765 L 46.5361,5.18277 L 46.4731,5.30437
 L 46.4353,5.44244 L 46.4227,5.597 L 46.4279,5.69353 L 46.4435,5.78308 L 46.4695,5.86569 L 46.5059,5.94133
 L 46.5527,6.01001 L 46.6101,6.07324 L 46.6774,6.13257 L 46.7546,6.18797 L 46.8417,6.23944 L 46.9387,6.287
 L 47.0637,6.33609 L 47.2339,6.39212 L 47.4493,6.45512 L 47.7099,6.52509 L 48.0157,6.60201 L 48.3095,6.67921
 L 48.5684,6.75401 L 48.7924,6.8264 L 48.9815,6.89641 L 49.1357,6.964 L 49.2671,7.03145 L 49.3869,7.10176
 L 49.4951,7.17497 L 49.5917,7.25105 L 49.6767,7.33 L 49.7527,7.41293 L 49.8215,7.50089 L 49.8831,7.59389
 L 49.9375,7.69193 L 49.9847,7.79501 L 50.024,7.90317 L 50.0545,8.01724 L 50.0763,8.13725 L 50.0894,8.26317
 L 50.0937,8.395 L 50.0686,8.7122 L 49.9932,8.99901 L 49.8676,9.2554 L 49.6918,9.48141 L 49.4657,9.677
 L 49.1944,9.83937 L 48.8828,9.96565 L 48.5311,10.0558 L 48.139,10.11 L 47.7067,10.128 z
M -68.0838,10 L -70.2208,4.11201 L -69.1768,4.11201 L -67.8828,7.94301 L -67.7887,8.25404 L -67.5078,9.233
 L -67.3178,8.59601 L -67.1058,7.95401 L -65.7678,4.11201 L -64.7288,4.11201 L -66.9258,10 z
M 51.0985,10 L 51.0985,4.11201 L 52.0775,4.11201 L 52.0775,10 z
M -19.4669,10 L -19.4669,4.11201 L -18.4879,4.11201 L -18.4879,10 z
M -54.4405,10 L -54.4405,4.11201 L -53.4615,4.11201 L -53.4615,10 z
M -40.5743,10 L -40.5743,4.11201 L -39.5953,4.11201 L -39.5953,10 z
M 69.7074,61.4712 L 69.426,61.3858 L 69.1666,61.2472 L 68.9393,61.0607 L 68.7528,60.8333 L 68.6142,60.574
 L 68.5288,60.2926 L 68.5,60 L 68.5288,59.7074 L 68.6142,59.426 L 68.7528,59.1666 L 68.9393,58.9393
 L 69.1666,58.7528 L 69.426,58.6142 L 69.7074,58.5288 L 70,58.5 L 70.2926,58.5288 L 70.574,58.6142
 L 70.8333,58.7528 L 71.0607,58.9393 L 71.2472,59.1666 L 71.3858,59.426 L 71.4712,59.7074 L 71.5,60
 L 71.4712,60.2926 L 71.3858,60.574 L 71.2472,60.8333 L 71.0607,61.0607 L 70.8333,61.2472 L 70.574,61.3858
 L 70.2926,61.4712 L 70,61.5 z
M -70.2926,61.4712 L -70.574,61.3858 L -70.8333,61.2472 L -71.0607,61.0607 L -71.2472,60.8333 L -71.3858,60.574
 L -71.4712,60.2926 L -71.5,60 L -71.4712,59.7074 L -71.3858,59.426 L -71.2472,59.1666 L -71.0607,58.9393
 L -70.8333,58.7528 L -70.574,58.6142 L -70.2926,58.5288 L -70,58.5 L -69.7074,58.5288 L -69.426,58.6142
 L -69.1666,58.7528 L -68.9393,58.9393 L -68.7528,59.1666 L -68.6142,59.426 L -68.5288,59.7074 L -68.5,60
 L -68.5288,60.2926 L -68.6142,60.574 L -68.7528,60.8333 L -68.9393,61.0607 L -69.1666,61.2472 L -69.426,61.3858
 L -69.7074,61.4712 L -70,61.5 z
" stroke="black" fill="lightgray" stroke-width="0.5"/></svg>
