<?xml version="1.0" standalone="no"?>
<!DOCTYPE svg PUBLIC "-//W3C//DTD SVG 1.1//EN" "http://www.w3.org/Graphics/SVG/1.1/DTD/svg11.dtd">
<svg width="192mm" height="188mm" viewBox="-96 -94 192 188" xmlns="http://www.w3.org/2000/svg" version="1.1">
<title>OpenSCAD Model</title>
<path d="
M 96,-94 L -96,-94 L -96,94 L 96,94 z
M -53.3411,-25.2306 L -55.5922,-25.9135 L -57.6668,-27.0224 L -59.4853,-28.5147 L -60.9776,-30.3332 L -62.0865,-32.4078
 L -62.7694,-34.6589 L -63,-37 L -62.7694,-39.3411 L -62.0865,-41.5922 L -60.9776,-43.6668 L -59.4853,-45.4853
 L -57.6668,-46.9776 L -55.5922,-48.0865 L -53.3411,-48.7694 L -51,-49 L -48.6589,-48.7694 L -46.4078,-48.0865
 L -44.3332,-46.9776 L -42.5147,-45.4853 L -41.0224,-43.6668 L -39.9135,-41.5922 L -39.2306,-39.3411 L -39,-37
 L -39.2306,-34.6589 L -39.9135,-32.4078 L -41.0224,-30.3332 L -42.5147,-28.5147 L -44.3332,-27.0224 L -46.4078,-25.9135
 L -48.6589,-25.2306 L -51,-25 z
M -50.5,-36.5 L -42.6,-36.5 L -42.6,-37.5 L -50.5,-37.5 L -50.5,-45.4 L -51.5,-45.4
 L -51.5,-37.5 L -59.4,-37.5 L -59.4,-36.5 L -51.5,-36.5 L -51.5,-28.6 L -50.5,-28.6
 z
M -53.3411,48.7694 L -55.5922,48.0865 L -57.6668,46.9776 L -59.4853,45.4853 L -60.9776,43.6668 L -62.0865,41.5922
 L -62.7694,39.3411 L -63,37 L -62.7694,34.6589 L -62.0865,32.4078 L -60.9776,30.3332 L -59.4853,28.5147
 L -57.6668,27.0224 L -55.5922,25.9135 L -53.3411,25.2306 L -51,25 L -48.6589,25.2306 L -46.4078,25.9135
 L -44.3332,27.0224 L -42.5147,28.5147 L -41.0224,30.3332 L -39.9135,32.4078 L -39.2306,34.6589 L -39,37
 L -39.2306,39.3411 L -39.9135,41.5922 L -41.0224,43.6668 L -42.5147,45.4853 L -44.3332,46.9776 L -46.4078,48.0865
 L -48.6589,48.7694 L -51,49 z
M -50.5,37.5 L -42.6,37.5 L -42.6,36.5 L -50.5,36.5 L -50.5,28.6 L -51.5,28.6
 L -51.5,36.5 L -59.4,36.5 L -59.4,37.5 L -51.5,37.5 L -51.5,45.4 L -50.5,45.4
 z
" stroke="black" fill="lightgray" stroke-width="0.5"/></svg>
