<?xml version="1.0" standalone="no"?>
<!DOCTYPE svg PUBLIC "-//W3C//DTD SVG 1.1//EN" "http://www.w3.org/Graphics/SVG/1.1/DTD/svg11.dtd">
<svg width="235mm" height="325mm" viewBox="0 -325 235 325" xmlns="http://www.w3.org/2000/svg" version="1.1">
<title>OpenSCAD Model</title>
<path d="
M 235,-325 L 40,-325 L 0,-295 L 0,-0 L 235,-0 z
M 61.8896,-302.753 L 61.7794,-302.761 L 61.6698,-302.774 L 61.561,-302.793 L 61.4533,-302.817 L 61.3468,-302.847
 L 61.242,-302.882 L 61.139,-302.921 L 61.038,-302.966 L 60.9393,-303.016 L 60.8433,-303.07 L 60.75,-303.129
 L 60.6597,-303.193 L 60.5726,-303.261 L 60.489,-303.333 L 60.409,-303.409 L 60.3329,-303.489 L 60.2607,-303.573
 L 60.1928,-303.66 L 60.1292,-303.75 L 60.0701,-303.843 L 60.0157,-303.939 L 59.966,-304.038 L 59.9213,-304.139
 L 59.8815,-304.242 L 59.8469,-304.347 L 59.8174,-304.453 L 59.7932,-304.561 L 59.7743,-304.67 L 59.7608,-304.779
 L 59.7527,-304.89 L 59.75,-305 L 59.7527,-305.11 L 59.7608,-305.221 L 59.7743,-305.33 L 59.7932,-305.439
 L 59.8174,-305.547 L 59.8469,-305.653 L 59.8815,-305.758 L 59.9213,-305.861 L 59.966,-305.962 L 60.0157,-306.061
 L 60.0701,-306.157 L 60.1292,-306.25 L 60.1928,-306.34 L 60.2607,-306.427 L 60.3329,-306.511 L 60.409,-306.591
 L 60.489,-306.667 L 60.5726,-306.739 L 60.6597,-306.807 L 60.75,-306.871 L 60.8433,-306.93 L 60.9393,-306.984
 L 61.038,-307.034 L 61.139,-307.079 L 61.242,-307.118 L 61.3468,-307.153 L 61.4533,-307.183 L 61.561,-307.207
 L 61.6698,-307.226 L 61.7794,-307.239 L 61.8896,-307.247 L 62,-307.25 L 62.1104,-307.247 L 62.2205,-307.239
 L 62.3301,-307.226 L 62.4389,-307.207 L 62.5467,-307.183 L 62.6531,-307.153 L 62.758,-307.118 L 62.861,-307.079
 L 62.962,-307.034 L 63.0606,-306.984 L 63.1567,-306.93 L 63.25,-306.871 L 63.3403,-306.807 L 63.4274,-306.739
 L 63.511,-306.667 L 63.591,-306.591 L 63.6671,-306.511 L 63.7393,-306.427 L 63.8072,-306.34 L 63.8708,-306.25
 L 63.9299,-306.157 L 63.9843,-306.061 L 64.034,-305.962 L 64.0787,-305.861 L 64.1185,-305.758 L 64.1531,-305.653
 L 64.1826,-305.547 L 64.2068,-305.439 L 64.2256,-305.33 L 64.2392,-305.221 L 64.2473,-305.11 L 64.25,-305
 L 64.2473,-304.89 L 64.2392,-304.779 L 64.2256,-304.67 L 64.2068,-304.561 L 64.1826,-304.453 L 64.1531,-304.347
 L 64.1185,-304.242 L 64.0787,-304.139 L 64.034,-304.038 L 63.9843,-303.939 L 63.9299,-303.843 L 63.8708,-303.75
 L 63.8072,-303.66 L 63.7393,-303.573 L 63.6671,-303.489 L 63.591,-303.409 L 63.511,-303.333 L 63.4274,-303.261
 L 63.3403,-303.193 L 63.25,-303.129 L 63.1567,-303.07 L 63.0606,-303.016 L 62.962,-302.966 L 62.861,-302.921
 L 62.758,-302.882 L 62.6531,-302.847 L 62.5467,-302.817 L 62.4389,-302.793 L 62.3301,-302.774 L 62.2205,-302.761
 L 62.1104,-302.753 L 62,-302.75 z
M 129.387,-281.515 L 128.775,-281.56 L 128.166,-281.635 L 127.561,-281.74 L 126.963,-281.875 L 126.371,-282.038
 L 125.789,-282.231 L 125.216,-282.451 L 124.656,-282.7 L 124.108,-282.976 L 123.574,-283.278 L 123.055,-283.607
 L 122.554,-283.96 L 122.07,-284.337 L 121.605,-284.738 L 121.161,-285.161 L 120.738,-285.605 L 120.337,-286.07
 L 119.96,-286.554 L 119.607,-287.055 L 119.278,-287.574 L 118.976,-288.108 L 118.7,-288.656 L 118.451,-289.216
 L 118.231,-289.789 L 118.038,-290.371 L 117.875,-290.963 L 117.74,-291.561 L 117.635,-292.166 L 117.56,-292.775
 L 117.515,-293.387 L 117.5,-294 L 117.515,-294.613 L 117.56,-295.225 L 117.635,-295.834 L 117.74,-296.439
 L 117.875,-297.037 L 118.038,-297.629 L 118.231,-298.211 L 118.451,-298.784 L 118.7,-299.344 L 118.976,-299.892
 L 119.278,-300.426 L 119.607,-300.945 L 119.96,-301.446 L 120.337,-301.93 L 120.738,-302.394 L 121.161,-302.839
 L 121.605,-303.262 L 122.07,-303.663 L 122.554,-304.04 L 123.055,-304.393 L 123.574,-304.722 L 124.108,-305.024
 L 124.656,-305.3 L 125.216,-305.548 L 125.789,-305.769 L 126.371,-305.962 L 126.963,-306.125 L 127.561,-306.26
 L 128.166,-306.365 L 128.775,-306.44 L 129.387,-306.485 L 130,-306.5 L 130.613,-306.485 L 131.225,-306.44
 L 131.834,-306.365 L 132.439,-306.26 L 133.037,-306.125 L 133.629,-305.962 L 134.211,-305.769 L 134.784,-305.548
 L 135.344,-305.3 L 135.892,-305.024 L 136.426,-304.722 L 136.945,-304.393 L 137.446,-304.04 L 137.93,-303.663
 L 138.394,-303.262 L 138.839,-302.839 L 139.262,-302.394 L 139.663,-301.93 L 140.04,-301.446 L 140.393,-300.945
 L 140.722,-300.426 L 141.024,-299.892 L 141.3,-299.344 L 141.548,-298.784 L 141.769,-298.211 L 141.962,-297.629
 L 142.125,-297.037 L 142.26,-296.439 L 142.365,-295.834 L 142.44,-295.225 L 142.485,-294.613 L 142.5,-294
 L 142.485,-293.387 L 142.44,-292.775 L 142.365,-292.166 L 142.26,-291.561 L 142.125,-290.963 L 141.962,-290.371
 L 141.769,-289.789 L 141.548,-289.216 L 141.3,-288.656 L 141.024,-288.108 L 140.722,-287.574 L 140.393,-287.055
 L 140.04,-286.554 L 139.663,-286.07 L 139.262,-285.605 L 138.839,-285.161 L 138.394,-284.738 L 137.93,-284.337
 L 137.446,-283.96 L 136.945,-283.607 L 136.426,-283.278 L 135.892,-282.976 L 135.344,-282.7 L 134.784,-282.451
 L 134.211,-282.231 L 133.629,-282.038 L 133.037,-281.875 L 132.439,-281.74 L 131.834,-281.635 L 131.225,-281.56
 L 130.613,-281.515 L 130,-281.5 z
M 216.387,-281.515 L 215.775,-281.56 L 215.166,-281.635 L 214.561,-281.74 L 213.963,-281.875 L 213.371,-282.038
 L 212.789,-282.231 L 212.216,-282.451 L 211.656,-282.7 L 211.108,-282.976 L 210.574,-283.278 L 210.055,-283.607
 L 209.554,-283.96 L 209.07,-284.337 L 208.605,-284.738 L 208.161,-285.161 L 207.738,-285.605 L 207.337,-286.07
 L 206.96,-286.554 L 206.607,-287.055 L 206.278,-287.574 L 205.976,-288.108 L 205.7,-288.656 L 205.451,-289.216
 L 205.231,-289.789 L 205.038,-290.371 L 204.875,-290.963 L 204.74,-291.561 L 204.635,-292.166 L 204.56,-292.775
 L 204.515,-293.387 L 204.5,-294 L 204.515,-294.613 L 204.56,-295.225 L 204.635,-295.834 L 204.74,-296.439
 L 204.875,-297.037 L 205.038,-297.629 L 205.231,-298.211 L 205.451,-298.784 L 205.7,-299.344 L 205.976,-299.892
 L 206.278,-300.426 L 206.607,-300.945 L 206.96,-301.446 L 207.337,-301.93 L 207.738,-302.394 L 208.161,-302.839
 L 208.605,-303.262 L 209.07,-303.663 L 209.554,-304.04 L 210.055,-304.393 L 210.574,-304.722 L 211.108,-305.024
 L 211.656,-305.3 L 212.216,-305.548 L 212.789,-305.769 L 213.371,-305.962 L 213.963,-306.125 L 214.561,-306.26
 L 215.166,-306.365 L 215.775,-306.44 L 216.387,-306.485 L 217,-306.5 L 217.613,-306.485 L 218.225,-306.44
 L 218.834,-306.365 L 219.439,-306.26 L 220.037,-306.125 L 220.629,-305.962 L 221.211,-305.769 L 221.784,-305.548
 L 222.344,-305.3 L 222.892,-305.024 L 223.426,-304.722 L 223.945,-304.393 L 224.446,-304.04 L 224.93,-303.663
 L 225.394,-303.262 L 225.839,-302.839 L 226.262,-302.394 L 226.663,-301.93 L 227.04,-301.446 L 227.393,-300.945
 L 227.722,-300.426 L 228.024,-299.892 L 228.3,-299.344 L 228.548,-298.784 L 228.769,-298.211 L 228.962,-297.629
 L 229.125,-297.037 L 229.26,-296.439 L 229.365,-295.834 L 229.44,-295.225 L 229.485,-294.613 L 229.5,-294
 L 229.485,-293.387 L 229.44,-292.775 L 229.365,-292.166 L 229.26,-291.561 L 229.125,-290.963 L 228.962,-290.371
 L 228.769,-289.789 L 228.548,-289.216 L 228.3,-288.656 L 228.024,-288.108 L 227.722,-287.574 L 227.393,-287.055
 L 227.04,-286.554 L 226.663,-286.07 L 226.262,-285.605 L 225.839,-285.161 L 225.394,-284.738 L 224.93,-284.337
 L 224.446,-283.96 L 223.945,-283.607 L 223.426,-283.278 L 222.892,-282.976 L 222.344,-282.7 L 221.784,-282.451
 L 221.211,-282.231 L 220.629,-282.038 L 220.037,-281.875 L 219.439,-281.74 L 218.834,-281.635 L 218.225,-281.56
 L 217.613,-281.515 L 217,-281.5 z
M 29.3866,-242.515 L 28.7748,-242.56 L 28.1659,-242.635 L 27.5614,-242.74 L 26.9627,-242.875 L 26.3714,-243.038
 L 25.7889,-243.231 L 25.2164,-243.451 L 24.6555,-243.7 L 24.1075,-243.976 L 23.5737,-244.278 L 23.0554,-244.607
 L 22.5538,-244.96 L 22.0701,-245.337 L 21.6055,-245.738 L 21.1612,-246.161 L 20.7381,-246.605 L 20.3374,-247.07
 L 19.9599,-247.554 L 19.6066,-248.055 L 19.2784,-248.574 L 18.976,-249.108 L 18.7001,-249.656 L 18.4515,-250.216
 L 18.2307,-250.789 L 18.0382,-251.371 L 17.8746,-251.963 L 17.7402,-252.561 L 17.6353,-253.166 L 17.5602,-253.775
 L 17.515,-254.387 L 17.5,-255 L 17.515,-255.613 L 17.5602,-256.225 L 17.6353,-256.834 L 17.7402,-257.439
 L 17.8746,-258.037 L 18.0382,-258.629 L 18.2307,-259.211 L 18.4515,-259.784 L 18.7001,-260.344 L 18.976,-260.892
 L 19.2784,-261.426 L 19.6066,-261.945 L 19.9599,-262.446 L 20.3374,-262.93 L 20.7381,-263.394 L 21.1612,-263.839
 L 21.6055,-264.262 L 22.0701,-264.663 L 22.5538,-265.04 L 23.0554,-265.393 L 23.5737,-265.722 L 24.1075,-266.024
 L 24.6555,-266.3 L 25.2164,-266.548 L 25.7889,-266.769 L 26.3714,-266.962 L 26.9627,-267.125 L 27.5614,-267.26
 L 28.1659,-267.365 L 28.7748,-267.44 L 29.3866,-267.485 L 30,-267.5 L 30.6133,-267.485 L 31.2252,-267.44
 L 31.8341,-267.365 L 32.4386,-267.26 L 33.0372,-267.125 L 33.6286,-266.962 L 34.2111,-266.769 L 34.7835,-266.548
 L 35.3444,-266.3 L 35.8925,-266.024 L 36.4263,-265.722 L 36.9446,-265.393 L 37.4462,-265.04 L 37.9299,-264.663
 L 38.3945,-264.262 L 38.8388,-263.839 L 39.2619,-263.394 L 39.6626,-262.93 L 40.0401,-262.446 L 40.3934,-261.945
 L 40.7216,-261.426 L 41.024,-260.892 L 41.2999,-260.344 L 41.5485,-259.784 L 41.7693,-259.211 L 41.9617,-258.629
 L 42.1254,-258.037 L 42.2598,-257.439 L 42.3647,-256.834 L 42.4398,-256.225 L 42.4849,-255.613 L 42.5,-255
 L 42.4849,-254.387 L 42.4398,-253.775 L 42.3647,-253.166 L 42.2598,-252.561 L 42.1254,-251.963 L 41.9617,-251.371
 L 41.7693,-250.789 L 41.5485,-250.216 L 41.2999,-249.656 L 41.024,-249.108 L 40.7216,-248.574 L 40.3934,-248.055
 L 40.0401,-247.554 L 39.6626,-247.07 L 39.2619,-246.605 L 38.8388,-246.161 L 38.3945,-245.738 L 37.9299,-245.337
 L 37.4462,-244.96 L 36.9446,-244.607 L 36.4263,-244.278 L 35.8925,-243.976 L 35.3444,-243.7 L 34.7835,-243.451
 L 34.2111,-243.231 L 33.6286,-243.038 L 33.0372,-242.875 L 32.4386,-242.74 L 31.8341,-242.635 L 31.2252,-242.56
 L 30.6133,-242.515 L 30,-242.5 z
M 79.3866,-242.515 L 78.7748,-242.56 L 78.1659,-242.635 L 77.5614,-242.74 L 76.9627,-242.875 L 76.3714,-243.038
 L 75.7889,-243.231 L 75.2164,-243.451 L 74.6555,-243.7 L 74.1075,-243.976 L 73.5737,-244.278 L 73.0554,-244.607
 L 72.5538,-244.96 L 72.0701,-245.337 L 71.6055,-245.738 L 71.1612,-246.161 L 70.7381,-246.605 L 70.3374,-247.07
 L 69.9599,-247.554 L 69.6066,-248.055 L 69.2784,-248.574 L 68.976,-249.108 L 68.7001,-249.656 L 68.4515,-250.216
 L 68.2307,-250.789 L 68.0382,-251.371 L 67.8746,-251.963 L 67.7402,-252.561 L 67.6353,-253.166 L 67.5602,-253.775
 L 67.515,-254.387 L 67.5,-255 L 67.515,-255.613 L 67.5602,-256.225 L 67.6353,-256.834 L 67.7402,-257.439
 L 67.8746,-258.037 L 68.0382,-258.629 L 68.2307,-259.211 L 68.4515,-259.784 L 68.7001,-260.344 L 68.976,-260.892
 L 69.2784,-261.426 L 69.6066,-261.945 L 69.9599,-262.446 L 70.3374,-262.93 L 70.7381,-263.394 L 71.1612,-263.839
 L 71.6055,-264.262 L 72.0701,-264.663 L 72.5538,-265.04 L 73.0554,-265.393 L 73.5737,-265.722 L 74.1075,-266.024
 L 74.6555,-266.3 L 75.2164,-266.548 L 75.7889,-266.769 L 76.3714,-266.962 L 76.9627,-267.125 L 77.5614,-267.26
 L 78.1659,-267.365 L 78.7748,-267.44 L 79.3866,-267.485 L 80,-267.5 L 80.6133,-267.485 L 81.2252,-267.44
 L 81.8341,-267.365 L 82.4386,-267.26 L 83.0372,-267.125 L 83.6286,-266.962 L 84.2111,-266.769 L 84.7835,-266.548
 L 85.3444,-266.3 L 85.8925,-266.024 L 86.4263,-265.722 L 86.9446,-265.393 L 87.4462,-265.04 L 87.9299,-264.663
 L 88.3945,-264.262 L 88.8388,-263.839 L 89.2619,-263.394 L 89.6626,-262.93 L 90.0401,-262.446 L 90.3934,-261.945
 L 90.7216,-261.426 L 91.024,-260.892 L 91.2999,-260.344 L 91.5485,-259.784 L 91.7693,-259.211 L 91.9617,-258.629
 L 92.1254,-258.037 L 92.2598,-257.439 L 92.3647,-256.834 L 92.4398,-256.225 L 92.4849,-255.613 L 92.5,-255
 L 92.4849,-254.387 L 92.4398,-253.775 L 92.3647,-253.166 L 92.2598,-252.561 L 92.1254,-251.963 L 91.9617,-251.371
 L 91.7693,-250.789 L 91.5485,-250.216 L 91.2999,-249.656 L 91.024,-249.108 L 90.7216,-248.574 L 90.3934,-248.055
 L 90.0401,-247.554 L 89.6626,-247.07 L 89.2619,-246.605 L 88.8388,-246.161 L 88.3945,-245.738 L 87.9299,-245.337
 L 87.4462,-244.96 L 86.9446,-244.607 L 86.4263,-244.278 L 85.8925,-243.976 L 85.3444,-243.7 L 84.7835,-243.451
 L 84.2111,-243.231 L 83.6286,-243.038 L 83.0372,-242.875 L 82.4386,-242.74 L 81.8341,-242.635 L 81.2252,-242.56
 L 80.6133,-242.515 L 80,-242.5 z
M 29.3866,-94.515 L 28.7748,-94.5602 L 28.1659,-94.6353 L 27.5614,-94.7402 L 26.9627,-94.8746 L 26.3714,-95.0382
 L 25.7889,-95.2307 L 25.2164,-95.4515 L 24.6555,-95.7001 L 24.1075,-95.976 L 23.5737,-96.2784 L 23.0554,-96.6066
 L 22.5538,-96.9599 L 22.0701,-97.3374 L 21.6055,-97.7381 L 21.1612,-98.1612 L 20.7381,-98.6055 L 20.3374,-99.0701
 L 19.9599,-99.5538 L 19.6066,-100.055 L 19.2784,-100.574 L 18.976,-101.108 L 18.7001,-101.656 L 18.4515,-102.216
 L 18.2307,-102.789 L 18.0382,-103.371 L 17.8746,-103.963 L 17.7402,-104.561 L 17.6353,-105.166 L 17.5602,-105.775
 L 17.515,-106.387 L 17.5,-107 L 17.515,-107.613 L 17.5602,-108.225 L 17.6353,-108.834 L 17.7402,-109.439
 L 17.8746,-110.037 L 18.0382,-110.629 L 18.2307,-111.211 L 18.4515,-111.784 L 18.7001,-112.344 L 18.976,-112.892
 L 19.2784,-113.426 L 19.6066,-113.945 L 19.9599,-114.446 L 20.3374,-114.93 L 20.7381,-115.394 L 21.1612,-115.839
 L 21.6055,-116.262 L 22.0701,-116.663 L 22.5538,-117.04 L 23.0554,-117.393 L 23.5737,-117.722 L 24.1075,-118.024
 L 24.6555,-118.3 L 25.2164,-118.548 L 25.7889,-118.769 L 26.3714,-118.962 L 26.9627,-119.125 L 27.5614,-119.26
 L 28.1659,-119.365 L 28.7748,-119.44 L 29.3866,-119.485 L 30,-119.5 L 30.6133,-119.485 L 31.2252,-119.44
 L 31.8341,-119.365 L 32.4386,-119.26 L 33.0372,-119.125 L 33.6286,-118.962 L 34.2111,-118.769 L 34.7835,-118.548
 L 35.3444,-118.3 L 35.8925,-118.024 L 36.4263,-117.722 L 36.9446,-117.393 L 37.4462,-117.04 L 37.9299,-116.663
 L 38.3945,-116.262 L 38.8388,-115.839 L 39.2619,-115.394 L 39.6626,-114.93 L 40.0401,-114.446 L 40.3934,-113.945
 L 40.7216,-113.426 L 41.024,-112.892 L 41.2999,-112.344 L 41.5485,-111.784 L 41.7693,-111.211 L 41.9617,-110.629
 L 42.1254,-110.037 L 42.2598,-109.439 L 42.3647,-108.834 L 42.4398,-108.225 L 42.4849,-107.613 L 42.5,-107
 L 42.4849,-106.387 L 42.4398,-105.775 L 42.3647,-105.166 L 42.2598,-104.561 L 42.1254,-103.963 L 41.9617,-103.371
 L 41.7693,-102.789 L 41.5485,-102.216 L 41.2999,-101.656 L 41.024,-101.108 L 40.7216,-100.574 L 40.3934,-100.055
 L 40.0401,-99.5538 L 39.6626,-99.0701 L 39.2619,-98.6055 L 38.8388,-98.1612 L 38.3945,-97.7381 L 37.9299,-97.3374
 L 37.4462,-96.9599 L 36.9446,-96.6066 L 36.4263,-96.2784 L 35.8925,-95.976 L 35.3444,-95.7001 L 34.7835,-95.4515
 L 34.2111,-95.2307 L 33.6286,-95.0382 L 33.0372,-94.8746 L 32.4386,-94.7402 L 31.8341,-94.6353 L 31.2252,-94.5602
 L 30.6133,-94.515 L 30,-94.5 z
M 79.3866,-94.515 L 78.7748,-94.5602 L 78.1659,-94.6353 L 77.5614,-94.7402 L 76.9627,-94.8746 L 76.3714,-95.0382
 L 75.7889,-95.2307 L 75.2164,-95.4515 L 74.6555,-95.7001 L 74.1075,-95.976 L 73.5737,-96.2784 L 73.0554,-96.6066
 L 72.5538,-96.9599 L 72.0701,-97.3374 L 71.6055,-97.7381 L 71.1612,-98.1612 L 70.7381,-98.6055 L 70.3374,-99.0701
 L 69.9599,-99.5538 L 69.6066,-100.055 L 69.2784,-100.574 L 68.976,-101.108 L 68.7001,-101.656 L 68.4515,-102.216
 L 68.2307,-102.789 L 68.0382,-103.371 L 67.8746,-103.963 L 67.7402,-104.561 L 67.6353,-105.166 L 67.5602,-105.775
 L 67.515,-106.387 L 67.5,-107 L 67.515,-107.613 L 67.5602,-108.225 L 67.6353,-108.834 L 67.7402,-109.439
 L 67.8746,-110.037 L 68.0382,-110.629 L 68.2307,-111.211 L 68.4515,-111.784 L 68.7001,-112.344 L 68.976,-112.892
 L 69.2784,-113.426 L 69.6066,-113.945 L 69.9599,-114.446 L 70.3374,-114.93 L 70.7381,-115.394 L 71.1612,-115.839
 L 71.6055,-116.262 L 72.0701,-116.663 L 72.5538,-117.04 L 73.0554,-117.393 L 73.5737,-117.722 L 74.1075,-118.024
 L 74.6555,-118.3 L 75.2164,-118.548 L 75.7889,-118.769 L 76.3714,-118.962 L 76.9627,-119.125 L 77.5614,-119.26
 L 78.1659,-119.365 L 78.7748,-119.44 L 79.3866,-119.485 L 80,-119.5 L 80.6133,-119.485 L 81.2252,-119.44
 L 81.8341,-119.365 L 82.4386,-119.26 L 83.0372,-119.125 L 83.6286,-118.962 L 84.2111,-118.769 L 84.7835,-118.548
 L 85.3444,-118.3 L 85.8925,-118.024 L 86.4263,-117.722 L 86.9446,-117.393 L 87.4462,-117.04 L 87.9299,-116.663
 L 88.3945,-116.262 L 88.8388,-115.839 L 89.2619,-115.394 L 89.6626,-114.93 L 90.0401,-114.446 L 90.3934,-113.945
 L 90.7216,-113.426 L 91.024,-112.892 L 91.2999,-112.344 L 91.5485,-111.784 L 91.7693,-111.211 L 91.9617,-110.629
 L 92.1254,-110.037 L 92.2598,-109.439 L 92.3647,-108.834 L 92.4398,-108.225 L 92.4849,-107.613 L 92.5,-107
 L 92.4849,-106.387 L 92.4398,-105.775 L 92.3647,-105.166 L 92.2598,-104.561 L 92.1254,-103.963 L 91.9617,-103.371
 L 91.7693,-102.789 L 91.5485,-102.216 L 91.2999,-101.656 L 91.024,-101.108 L 90.7216,-100.574 L 90.3934,-100.055
 L 90.0401,-99.5538 L 89.6626,-99.0701 L 89.2619,-98.6055 L 88.8388,-98.1612 L 88.3945,-97.7381 L 87.9299,-97.3374
 L 87.4462,-96.9599 L 86.9446,-96.6066 L 86.4263,-96.2784 L 85.8925,-95.976 L 85.3444,-95.7001 L 84.7835,-95.4515
 L 84.2111,-95.2307 L 83.6286,-95.0382 L 83.0372,-94.8746 L 82.4386,-94.7402 L 81.8341,-94.6353 L 81.2252,-94.5602
 L 80.6133,-94.515 L 80,-94.5 z
M 129.387,-94.515 L 128.775,-94.5602 L 128.166,-94.6353 L 127.561,-94.7402 L 126.963,-94.8746 L 126.371,-95.0382
 L 125.789,-95.2307 L 125.216,-95.4515 L 124.656,-95.7001 L 124.108,-95.976 L 123.574,-96.2784 L 123.055,-96.6066
 L 122.554,-96.9599 L 122.07,-97.3374 L 121.605,-97.7381 L 121.161,-98.1612 L 120.738,-98.6055 L 120.337,-99.0701
 L 119.96,-99.5538 L 119.607,-100.055 L 119.278,-100.574 L 118.976,-101.108 L 118.7,-101.656 L 118.451,-102.216
 L 118.231,-102.789 L 118.038,-103.371 L 117.875,-103.963 L 117.74,-104.561 L 117.635,-105.166 L 117.56,-105.775
 L 117.515,-106.387 L 117.5,-107 L 117.515,-107.613 L 117.56,-108.225 L 117.635,-108.834 L 117.74,-109.439
 L 117.875,-110.037 L 118.038,-110.629 L 118.231,-111.211 L 118.451,-111.784 L 118.7,-112.344 L 118.976,-112.892
 L 119.278,-113.426 L 119.607,-113.945 L 119.96,-114.446 L 120.337,-114.93 L 120.738,-115.394 L 121.161,-115.839
 L 121.605,-116.262 L 122.07,-116.663 L 122.554,-117.04 L 123.055,-117.393 L 123.574,-117.722 L 124.108,-118.024
 L 124.656,-118.3 L 125.216,-118.548 L 125.789,-118.769 L 126.371,-118.962 L 126.963,-119.125 L 127.561,-119.26
 L 128.166,-119.365 L 128.775,-119.44 L 129.387,-119.485 L 130,-119.5 L 130.613,-119.485 L 131.225,-119.44
 L 131.834,-119.365 L 132.439,-119.26 L 133.037,-119.125 L 133.629,-118.962 L 134.211,-118.769 L 134.784,-118.548
 L 135.344,-118.3 L 135.892,-118.024 L 136.426,-117.722 L 136.945,-117.393 L 137.446,-117.04 L 137.93,-116.663
 L 138.394,-116.262 L 138.839,-115.839 L 139.262,-115.394 L 139.663,-114.93 L 140.04,-114.446 L 140.393,-113.945
 L 140.722,-113.426 L 141.024,-112.892 L 141.3,-112.344 L 141.548,-111.784 L 141.769,-111.211 L 141.962,-110.629
 L 142.125,-110.037 L 142.26,-109.439 L 142.365,-108.834 L 142.44,-108.225 L 142.485,-107.613 L 142.5,-107
 L 142.485,-106.387 L 142.44,-105.775 L 142.365,-105.166 L 142.26,-104.561 L 142.125,-103.963 L 141.962,-103.371
 L 141.769,-102.789 L 141.548,-102.216 L 141.3,-101.656 L 141.024,-101.108 L 140.722,-100.574 L 140.393,-100.055
 L 140.04,-99.5538 L 139.663,-99.0701 L 139.262,-98.6055 L 138.839,-98.1612 L 138.394,-97.7381 L 137.93,-97.3374
 L 137.446,-96.9599 L 136.945,-96.6066 L 136.426,-96.2784 L 135.892,-95.976 L 135.344,-95.7001 L 134.784,-95.4515
 L 134.211,-95.2307 L 133.629,-95.0382 L 133.037,-94.8746 L 132.439,-94.7402 L 131.834,-94.6353 L 131.225,-94.5602
 L 130.613,-94.515 L 130,-94.5 z
M 216.387,-94.515 L 215.775,-94.5602 L 215.166,-94.6353 L 214.561,-94.7402 L 213.963,-94.8746 L 213.371,-95.0382
 L 212.789,-95.2307 L 212.216,-95.4515 L 211.656,-95.7001 L 211.108,-95.976 L 210.574,-96.2784 L 210.055,-96.6066
 L 209.554,-96.9599 L 209.07,-97.3374 L 208.605,-97.7381 L 208.161,-98.1612 L 207.738,-98.6055 L 207.337,-99.0701
 L 206.96,-99.5538 L 206.607,-100.055 L 206.278,-100.574 L 205.976,-101.108 L 205.7,-101.656 L 205.451,-102.216
 L 205.231,-102.789 L 205.038,-103.371 L 204.875,-103.963 L 204.74,-104.561 L 204.635,-105.166 L 204.56,-105.775
 L 204.515,-106.387 L 204.5,-107 L 204.515,-107.613 L 204.56,-108.225 L 204.635,-108.834 L 204.74,-109.439
 L 204.875,-110.037 L 205.038,-110.629 L 205.231,-111.211 L 205.451,-111.784 L 205.7,-112.344 L 205.976,-112.892
 L 206.278,-113.426 L 206.607,-113.945 L 206.96,-114.446 L 207.337,-114.93 L 207.738,-115.394 L 208.161,-115.839
 L 208.605,-116.262 L 209.07,-116.663 L 209.554,-117.04 L 210.055,-117.393 L 210.574,-117.722 L 211.108,-118.024
 L 211.656,-118.3 L 212.216,-118.548 L 212.789,-118.769 L 213.371,-118.962 L 213.963,-119.125 L 214.561,-119.26
 L 215.166,-119.365 L 215.775,-119.44 L 216.387,-119.485 L 217,-119.5 L 217.613,-119.485 L 218.225,-119.44
 L 218.834,-119.365 L 219.439,-119.26 L 220.037,-119.125 L 220.629,-118.962 L 221.211,-118.769 L 221.784,-118.548
 L 222.344,-118.3 L 222.892,-118.024 L 223.426,-117.722 L 223.945,-117.393 L 224.446,-117.04 L 224.93,-116.663
 L 225.394,-116.262 L 225.839,-115.839 L 226.262,-115.394 L 226.663,-114.93 L 227.04,-114.446 L 227.393,-113.945
 L 227.722,-113.426 L 228.024,-112.892 L 228.3,-112.344 L 228.548,-111.784 L 228.769,-111.211 L 228.962,-110.629
 L 229.125,-110.037 L 229.26,-109.439 L 229.365,-108.834 L 229.44,-108.225 L 229.485,-107.613 L 229.5,-107
 L 229.485,-106.387 L 229.44,-105.775 L 229.365,-105.166 L 229.26,-104.561 L 229.125,-103.963 L 228.962,-103.371
 L 228.769,-102.789 L 228.548,-102.216 L 228.3,-101.656 L 228.024,-101.108 L 227.722,-100.574 L 227.393,-100.055
 L 227.04,-99.5538 L 226.663,-99.0701 L 226.262,-98.6055 L 225.839,-98.1612 L 225.394,-97.7381 L 224.93,-97.3374
 L 224.446,-96.9599 L 223.945,-96.6066 L 223.426,-96.2784 L 222.892,-95.976 L 222.344,-95.7001 L 221.784,-95.4515
 L 221.211,-95.2307 L 220.629,-95.0382 L 220.037,-94.8746 L 219.439,-94.7402 L 218.834,-94.6353 L 218.225,-94.5602
 L 217.613,-94.515 L 217,-94.5 z
M 19.8896,-17.7527 L 19.7794,-17.7608 L 19.6698,-17.7743 L 19.561,-17.7932 L 19.4533,-17.8174 L 19.3468,-17.8469
 L 19.242,-17.8815 L 19.139,-17.9213 L 19.038,-17.966 L 18.9393,-18.0157 L 18.8433,-18.0701 L 18.75,-18.1292
 L 18.6597,-18.1928 L 18.5726,-18.2607 L 18.489,-18.3329 L 18.409,-18.409 L 18.3329,-18.489 L 18.2607,-18.5726
 L 18.1928,-18.6597 L 18.1292,-18.75 L 18.0701,-18.8433 L 18.0157,-18.9393 L 17.966,-19.038 L 17.9213,-19.139
 L 17.8815,-19.242 L 17.8469,-19.3468 L 17.8174,-19.4533 L 17.7932,-19.561 L 17.7743,-19.6698 L 17.7608,-19.7794
 L 17.7527,-19.8896 L 17.75,-20 L 17.7527,-20.1104 L 17.7608,-20.2205 L 17.7743,-20.3301 L 17.7932,-20.4389
 L 17.8174,-20.5467 L 17.8469,-20.6531 L 17.8815,-20.758 L 17.9213,-20.861 L 17.966,-20.962 L 18.0157,-21.0606
 L 18.0701,-21.1567 L 18.1292,-21.25 L 18.1928,-21.3403 L 18.2607,-21.4274 L 18.3329,-21.511 L 18.409,-21.591
 L 18.489,-21.6671 L 18.5726,-21.7393 L 18.6597,-21.8072 L 18.75,-21.8708 L 18.8433,-21.9299 L 18.9393,-21.9843
 L 19.038,-22.034 L 19.139,-22.0787 L 19.242,-22.1185 L 19.3468,-22.1531 L 19.4533,-22.1826 L 19.561,-22.2068
 L 19.6698,-22.2256 L 19.7794,-22.2392 L 19.8896,-22.2473 L 20,-22.25 L 20.1104,-22.2473 L 20.2205,-22.2392
 L 20.3301,-22.2256 L 20.4389,-22.2068 L 20.5467,-22.1826 L 20.6531,-22.1531 L 20.758,-22.1185 L 20.861,-22.0787
 L 20.962,-22.034 L 21.0606,-21.9843 L 21.1567,-21.9299 L 21.25,-21.8708 L 21.3403,-21.8072 L 21.4274,-21.7393
 L 21.511,-21.6671 L 21.591,-21.591 L 21.6671,-21.511 L 21.7393,-21.4274 L 21.8072,-21.3403 L 21.8708,-21.25
 L 21.9299,-21.1567 L 21.9843,-21.0606 L 22.034,-20.962 L 22.0787,-20.861 L 22.1185,-20.758 L 22.1531,-20.6531
 L 22.1826,-20.5467 L 22.2068,-20.4389 L 22.2256,-20.3301 L 22.2392,-20.2205 L 22.2473,-20.1104 L 22.25,-20
 L 22.2473,-19.8896 L 22.2392,-19.7794 L 22.2256,-19.6698 L 22.2068,-19.561 L 22.1826,-19.4533 L 22.1531,-19.3468
 L 22.1185,-19.242 L 22.0787,-19.139 L 22.034,-19.038 L 21.9843,-18.9393 L 21.9299,-18.8433 L 21.8708,-18.75
 L 21.8072,-18.6597 L 21.7393,-18.5726 L 21.6671,-18.489 L 21.591,-18.409 L 21.511,-18.3329 L 21.4274,-18.2607
 L 21.3403,-18.1928 L 21.25,-18.1292 L 21.1567,-18.0701 L 21.0606,-18.0157 L 20.962,-17.966 L 20.861,-17.9213
 L 20.758,-17.8815 L 20.6531,-17.8469 L 20.5467,-17.8174 L 20.4389,-17.7932 L 20.3301,-17.7743 L 20.2205,-17.7608
 L 20.1104,-17.7527 L 20,-17.75 z
" stroke="black" fill="lightgray" stroke-width="0.5"/></svg>
