<?xml version="1.0" standalone="no"?>
<!DOCTYPE svg PUBLIC "-//W3C//DTD SVG 1.1//EN" "http://www.w3.org/Graphics/SVG/1.1/DTD/svg11.dtd">
<svg width="235mm" height="325mm" viewBox="0 -325 235 325" xmlns="http://www.w3.org/2000/svg" version="1.1">
<title>OpenSCAD Model</title>
<path d="
M 235,-325 L 40,-325 L 0,-295 L 0,-0 L 235,-0 z
M 61.8896,-302.753 L 61.7794,-302.761 L 61.6698,-302.774 L 61.561,-302.793 L 61.4533,-302.817 L 61.3468,-302.847
 L 61.242,-302.882 L 61.139,-302.921 L 61.038,-302.966 L 60.9393,-303.016 L 60.8433,-303.07 L 60.75,-303.129
 L 60.6597,-303.193 L 60.5726,-303.261 L 60.489,-303.333 L 60.409,-303.409 L 60.3329,-303.489 L 60.2607,-303.573
 L 60.1928,-303.66 L 60.1292,-303.75 L 60.0701,-303.843 L 60.0157,-303.939 L 59.966,-304.038 L 59.9213,-304.139
 L 59.8815,-304.242 L 59.8469,-304.347 L 59.8174,-304.453 L 59.7932,-304.561 L 59.7743,-304.67 L 59.7608,-304.779
 L 59.7527,-304.89 L 59.75,-305 L 59.7527,-305.11 L 59.7608,-305.221 L 59.7743,-305.33 L 59.7932,-305.439
 L 59.8174,-305.547 L 59.8469,-305.653 L 59.8815,-305.758 L 59.9213,-305.861 L 59.966,-305.962 L 60.0157,-306.061
 L 60.0701,-306.157 L 60.1292,-306.25 L 60.1928,-306.34 L 60.2607,-306.427 L 60.3329,-306.511 L 60.409,-306.591
 L 60.489,-306.667 L 60.5726,-306.739 L 60.6597,-306.807 L 60.75,-306.871 L 60.8433,-306.93 L 60.9393,-306.984
 L 61.038,-307.034 L 61.139,-307.079 L 61.242,-307.118 L 61.3468,-307.153 L 61.4533,-307.183 L 61.561,-307.207
 L 61.6698,-307.226 L 61.7794,-307.239 L 61.8896,-307.247 L 62,-307.25 L 62.1104,-307.247 L 62.2205,-307.239
 L 62.3301,-307.226 L 62.4389,-307.207 L 62.5467,-307.183 L 62.6531,-307.153 L 62.758,-307.118 L 62.861,-307.079
 L 62.962,-307.034 L 63.0606,-306.984 L 63.1567,-306.93 L 63.25,-306.871 L 63.3403,-306.807 L 63.4274,-306.739
 L 63.511,-306.667 L 63.591,-306.591 L 63.6671,-306.511 L 63.7393,-306.427 L 63.8072,-306.34 L 63.8708,-306.25
 L 63.9299,-306.157 L 63.9843,-306.061 L 64.034,-305.962 L 64.0787,-305.861 L 64.1185,-305.758 L 64.1531,-305.653
 L 64.1826,-305.547 L 64.2068,-305.439 L 64.2256,-305.33 L 64.2392,-305.221 L 64.2473,-305.11 L 64.25,-305
 L 64.2473,-304.89 L 64.2392,-304.779 L 64.2256,-304.67 L 64.2068,-304.561 L 64.1826,-304.453 L 64.1531,-304.347
 L 64.1185,-304.242 L 64.0787,-304.139 L 64.034,-304.038 L 63.9843,-303.939 L 63.9299,-303.843 L 63.8708,-303.75
 L 63.8072,-303.66 L 63.7393,-303.573 L 63.6671,-303.489 L 63.591,-303.409 L 63.511,-303.333 L 63.4274,-303.261
 L 63.3403,-303.193 L 63.25,-303.129 L 63.1567,-303.07 L 63.0606,-303.016 L 62.962,-302.966 L 62.861,-302.921
 L 62.758,-302.882 L 62.6531,-302.847 L 62.5467,-302.817 L 62.4389,-302.793 L 62.3301,-302.774 L 62.2205,-302.761
 L 62.1104,-302.753 L 62,-302.75 z
M 129.897,-291.903 L 129.794,-291.91 L 129.692,-291.923 L 129.59,-291.94 L 129.49,-291.963 L 129.39,-291.99
 L 129.293,-292.023 L 129.196,-292.06 L 129.102,-292.102 L 129.01,-292.148 L 128.92,-292.199 L 128.833,-292.254
 L 128.749,-292.313 L 128.668,-292.377 L 128.59,-292.444 L 128.515,-292.515 L 128.444,-292.59 L 128.377,-292.668
 L 128.313,-292.749 L 128.254,-292.833 L 128.199,-292.92 L 128.148,-293.01 L 128.102,-293.102 L 128.06,-293.196
 L 128.023,-293.293 L 127.99,-293.39 L 127.963,-293.49 L 127.94,-293.59 L 127.923,-293.692 L 127.91,-293.794
 L 127.903,-293.897 L 127.9,-294 L 127.903,-294.103 L 127.91,-294.206 L 127.923,-294.308 L 127.94,-294.41
 L 127.963,-294.51 L 127.99,-294.61 L 128.023,-294.707 L 128.06,-294.804 L 128.102,-294.898 L 128.148,-294.99
 L 128.199,-295.08 L 128.254,-295.167 L 128.313,-295.251 L 128.377,-295.332 L 128.444,-295.41 L 128.515,-295.485
 L 128.59,-295.556 L 128.668,-295.623 L 128.749,-295.687 L 128.833,-295.746 L 128.92,-295.801 L 129.01,-295.852
 L 129.102,-295.898 L 129.196,-295.94 L 129.293,-295.977 L 129.39,-296.01 L 129.49,-296.037 L 129.59,-296.06
 L 129.692,-296.077 L 129.794,-296.09 L 129.897,-296.097 L 130,-296.1 L 130.103,-296.097 L 130.206,-296.09
 L 130.308,-296.077 L 130.41,-296.06 L 130.51,-296.037 L 130.61,-296.01 L 130.707,-295.977 L 130.804,-295.94
 L 130.898,-295.898 L 130.99,-295.852 L 131.08,-295.801 L 131.167,-295.746 L 131.251,-295.687 L 131.332,-295.623
 L 131.41,-295.556 L 131.485,-295.485 L 131.556,-295.41 L 131.623,-295.332 L 131.687,-295.251 L 131.746,-295.167
 L 131.801,-295.08 L 131.852,-294.99 L 131.898,-294.898 L 131.94,-294.804 L 131.977,-294.707 L 132.01,-294.61
 L 132.037,-294.51 L 132.06,-294.41 L 132.077,-294.308 L 132.09,-294.206 L 132.097,-294.103 L 132.1,-294
 L 132.097,-293.897 L 132.09,-293.794 L 132.077,-293.692 L 132.06,-293.59 L 132.037,-293.49 L 132.01,-293.39
 L 131.977,-293.293 L 131.94,-293.196 L 131.898,-293.102 L 131.852,-293.01 L 131.801,-292.92 L 131.746,-292.833
 L 131.687,-292.749 L 131.623,-292.668 L 131.556,-292.59 L 131.485,-292.515 L 131.41,-292.444 L 131.332,-292.377
 L 131.251,-292.313 L 131.167,-292.254 L 131.08,-292.199 L 130.99,-292.148 L 130.898,-292.102 L 130.804,-292.06
 L 130.707,-292.023 L 130.61,-291.99 L 130.51,-291.963 L 130.41,-291.94 L 130.308,-291.923 L 130.206,-291.91
 L 130.103,-291.903 L 130,-291.9 z
M 216.897,-291.903 L 216.794,-291.91 L 216.692,-291.923 L 216.59,-291.94 L 216.49,-291.963 L 216.39,-291.99
 L 216.293,-292.023 L 216.196,-292.06 L 216.102,-292.102 L 216.01,-292.148 L 215.92,-292.199 L 215.833,-292.254
 L 215.749,-292.313 L 215.668,-292.377 L 215.59,-292.444 L 215.515,-292.515 L 215.444,-292.59 L 215.377,-292.668
 L 215.313,-292.749 L 215.254,-292.833 L 215.199,-292.92 L 215.148,-293.01 L 215.102,-293.102 L 215.06,-293.196
 L 215.023,-293.293 L 214.99,-293.39 L 214.963,-293.49 L 214.94,-293.59 L 214.923,-293.692 L 214.91,-293.794
 L 214.903,-293.897 L 214.9,-294 L 214.903,-294.103 L 214.91,-294.206 L 214.923,-294.308 L 214.94,-294.41
 L 214.963,-294.51 L 214.99,-294.61 L 215.023,-294.707 L 215.06,-294.804 L 215.102,-294.898 L 215.148,-294.99
 L 215.199,-295.08 L 215.254,-295.167 L 215.313,-295.251 L 215.377,-295.332 L 215.444,-295.41 L 215.515,-295.485
 L 215.59,-295.556 L 215.668,-295.623 L 215.749,-295.687 L 215.833,-295.746 L 215.92,-295.801 L 216.01,-295.852
 L 216.102,-295.898 L 216.196,-295.94 L 216.293,-295.977 L 216.39,-296.01 L 216.49,-296.037 L 216.59,-296.06
 L 216.692,-296.077 L 216.794,-296.09 L 216.897,-296.097 L 217,-296.1 L 217.103,-296.097 L 217.206,-296.09
 L 217.308,-296.077 L 217.41,-296.06 L 217.51,-296.037 L 217.61,-296.01 L 217.707,-295.977 L 217.804,-295.94
 L 217.898,-295.898 L 217.99,-295.852 L 218.08,-295.801 L 218.167,-295.746 L 218.251,-295.687 L 218.332,-295.623
 L 218.41,-295.556 L 218.485,-295.485 L 218.556,-295.41 L 218.623,-295.332 L 218.687,-295.251 L 218.746,-295.167
 L 218.801,-295.08 L 218.852,-294.99 L 218.898,-294.898 L 218.94,-294.804 L 218.977,-294.707 L 219.01,-294.61
 L 219.037,-294.51 L 219.06,-294.41 L 219.077,-294.308 L 219.09,-294.206 L 219.097,-294.103 L 219.1,-294
 L 219.097,-293.897 L 219.09,-293.794 L 219.077,-293.692 L 219.06,-293.59 L 219.037,-293.49 L 219.01,-293.39
 L 218.977,-293.293 L 218.94,-293.196 L 218.898,-293.102 L 218.852,-293.01 L 218.801,-292.92 L 218.746,-292.833
 L 218.687,-292.749 L 218.623,-292.668 L 218.556,-292.59 L 218.485,-292.515 L 218.41,-292.444 L 218.332,-292.377
 L 218.251,-292.313 L 218.167,-292.254 L 218.08,-292.199 L 217.99,-292.148 L 217.898,-292.102 L 217.804,-292.06
 L 217.707,-292.023 L 217.61,-291.99 L 217.51,-291.963 L 217.41,-291.94 L 217.308,-291.923 L 217.206,-291.91
 L 217.103,-291.903 L 217,-291.9 z
M 29.897,-252.903 L 29.7942,-252.91 L 29.6919,-252.923 L 29.5903,-252.94 L 29.4897,-252.963 L 29.3904,-252.99
 L 29.2925,-253.023 L 29.1964,-253.06 L 29.1021,-253.102 L 29.0101,-253.148 L 28.9204,-253.199 L 28.8333,-253.254
 L 28.749,-253.313 L 28.6678,-253.377 L 28.5897,-253.444 L 28.5151,-253.515 L 28.444,-253.59 L 28.3767,-253.668
 L 28.3133,-253.749 L 28.2539,-253.833 L 28.1988,-253.92 L 28.148,-254.01 L 28.1016,-254.102 L 28.0598,-254.196
 L 28.0228,-254.293 L 27.9904,-254.39 L 27.9629,-254.49 L 27.9403,-254.59 L 27.9227,-254.692 L 27.9101,-254.794
 L 27.9025,-254.897 L 27.9,-255 L 27.9025,-255.103 L 27.9101,-255.206 L 27.9227,-255.308 L 27.9403,-255.41
 L 27.9629,-255.51 L 27.9904,-255.61 L 28.0228,-255.707 L 28.0598,-255.804 L 28.1016,-255.898 L 28.148,-255.99
 L 28.1988,-256.08 L 28.2539,-256.167 L 28.3133,-256.251 L 28.3767,-256.332 L 28.444,-256.41 L 28.5151,-256.485
 L 28.5897,-256.556 L 28.6678,-256.623 L 28.749,-256.687 L 28.8333,-256.746 L 28.9204,-256.801 L 29.0101,-256.852
 L 29.1021,-256.898 L 29.1964,-256.94 L 29.2925,-256.977 L 29.3904,-257.01 L 29.4897,-257.037 L 29.5903,-257.06
 L 29.6919,-257.077 L 29.7942,-257.09 L 29.897,-257.097 L 30,-257.1 L 30.103,-257.097 L 30.2058,-257.09
 L 30.3081,-257.077 L 30.4097,-257.06 L 30.5103,-257.037 L 30.6096,-257.01 L 30.7075,-256.977 L 30.8036,-256.94
 L 30.8979,-256.898 L 30.9899,-256.852 L 31.0796,-256.801 L 31.1667,-256.746 L 31.251,-256.687 L 31.3322,-256.623
 L 31.4103,-256.556 L 31.4849,-256.485 L 31.556,-256.41 L 31.6233,-256.332 L 31.6867,-256.251 L 31.7461,-256.167
 L 31.8012,-256.08 L 31.852,-255.99 L 31.8984,-255.898 L 31.9401,-255.804 L 31.9772,-255.707 L 32.0096,-255.61
 L 32.0371,-255.51 L 32.0596,-255.41 L 32.0773,-255.308 L 32.0899,-255.206 L 32.0975,-255.103 L 32.1,-255
 L 32.0975,-254.897 L 32.0899,-254.794 L 32.0773,-254.692 L 32.0596,-254.59 L 32.0371,-254.49 L 32.0096,-254.39
 L 31.9772,-254.293 L 31.9401,-254.196 L 31.8984,-254.102 L 31.852,-254.01 L 31.8012,-253.92 L 31.7461,-253.833
 L 31.6867,-253.749 L 31.6233,-253.668 L 31.556,-253.59 L 31.4849,-253.515 L 31.4103,-253.444 L 31.3322,-253.377
 L 31.251,-253.313 L 31.1667,-253.254 L 31.0796,-253.199 L 30.9899,-253.148 L 30.8979,-253.102 L 30.8036,-253.06
 L 30.7075,-253.023 L 30.6096,-252.99 L 30.5103,-252.963 L 30.4097,-252.94 L 30.3081,-252.923 L 30.2058,-252.91
 L 30.103,-252.903 L 30,-252.9 z
M 79.897,-252.903 L 79.7942,-252.91 L 79.6919,-252.923 L 79.5903,-252.94 L 79.4897,-252.963 L 79.3904,-252.99
 L 79.2925,-253.023 L 79.1964,-253.06 L 79.1021,-253.102 L 79.0101,-253.148 L 78.9204,-253.199 L 78.8333,-253.254
 L 78.749,-253.313 L 78.6678,-253.377 L 78.5897,-253.444 L 78.5151,-253.515 L 78.444,-253.59 L 78.3767,-253.668
 L 78.3133,-253.749 L 78.2539,-253.833 L 78.1988,-253.92 L 78.148,-254.01 L 78.1016,-254.102 L 78.0598,-254.196
 L 78.0228,-254.293 L 77.9904,-254.39 L 77.9629,-254.49 L 77.9403,-254.59 L 77.9227,-254.692 L 77.9101,-254.794
 L 77.9025,-254.897 L 77.9,-255 L 77.9025,-255.103 L 77.9101,-255.206 L 77.9227,-255.308 L 77.9403,-255.41
 L 77.9629,-255.51 L 77.9904,-255.61 L 78.0228,-255.707 L 78.0598,-255.804 L 78.1016,-255.898 L 78.148,-255.99
 L 78.1988,-256.08 L 78.2539,-256.167 L 78.3133,-256.251 L 78.3767,-256.332 L 78.444,-256.41 L 78.5151,-256.485
 L 78.5897,-256.556 L 78.6678,-256.623 L 78.749,-256.687 L 78.8333,-256.746 L 78.9204,-256.801 L 79.0101,-256.852
 L 79.1021,-256.898 L 79.1964,-256.94 L 79.2925,-256.977 L 79.3904,-257.01 L 79.4897,-257.037 L 79.5903,-257.06
 L 79.6919,-257.077 L 79.7942,-257.09 L 79.897,-257.097 L 80,-257.1 L 80.103,-257.097 L 80.2058,-257.09
 L 80.3081,-257.077 L 80.4097,-257.06 L 80.5103,-257.037 L 80.6096,-257.01 L 80.7075,-256.977 L 80.8036,-256.94
 L 80.8979,-256.898 L 80.9899,-256.852 L 81.0796,-256.801 L 81.1667,-256.746 L 81.251,-256.687 L 81.3322,-256.623
 L 81.4103,-256.556 L 81.4849,-256.485 L 81.556,-256.41 L 81.6233,-256.332 L 81.6867,-256.251 L 81.7461,-256.167
 L 81.8012,-256.08 L 81.852,-255.99 L 81.8984,-255.898 L 81.9401,-255.804 L 81.9772,-255.707 L 82.0096,-255.61
 L 82.0371,-255.51 L 82.0596,-255.41 L 82.0773,-255.308 L 82.0899,-255.206 L 82.0975,-255.103 L 82.1,-255
 L 82.0975,-254.897 L 82.0899,-254.794 L 82.0773,-254.692 L 82.0596,-254.59 L 82.0371,-254.49 L 82.0096,-254.39
 L 81.9772,-254.293 L 81.9401,-254.196 L 81.8984,-254.102 L 81.852,-254.01 L 81.8012,-253.92 L 81.7461,-253.833
 L 81.6867,-253.749 L 81.6233,-253.668 L 81.556,-253.59 L 81.4849,-253.515 L 81.4103,-253.444 L 81.3322,-253.377
 L 81.251,-253.313 L 81.1667,-253.254 L 81.0796,-253.199 L 80.9899,-253.148 L 80.8979,-253.102 L 80.8036,-253.06
 L 80.7075,-253.023 L 80.6096,-252.99 L 80.5103,-252.963 L 80.4097,-252.94 L 80.3081,-252.923 L 80.2058,-252.91
 L 80.103,-252.903 L 80,-252.9 z
M 29.897,-104.903 L 29.7942,-104.91 L 29.6919,-104.923 L 29.5903,-104.94 L 29.4897,-104.963 L 29.3904,-104.99
 L 29.2925,-105.023 L 29.1964,-105.06 L 29.1021,-105.102 L 29.0101,-105.148 L 28.9204,-105.199 L 28.8333,-105.254
 L 28.749,-105.313 L 28.6678,-105.377 L 28.5897,-105.444 L 28.5151,-105.515 L 28.444,-105.59 L 28.3767,-105.668
 L 28.3133,-105.749 L 28.2539,-105.833 L 28.1988,-105.92 L 28.148,-106.01 L 28.1016,-106.102 L 28.0598,-106.196
 L 28.0228,-106.293 L 27.9904,-106.39 L 27.9629,-106.49 L 27.9403,-106.59 L 27.9227,-106.692 L 27.9101,-106.794
 L 27.9025,-106.897 L 27.9,-107 L 27.9025,-107.103 L 27.9101,-107.206 L 27.9227,-107.308 L 27.9403,-107.41
 L 27.9629,-107.51 L 27.9904,-107.61 L 28.0228,-107.707 L 28.0598,-107.804 L 28.1016,-107.898 L 28.148,-107.99
 L 28.1988,-108.08 L 28.2539,-108.167 L 28.3133,-108.251 L 28.3767,-108.332 L 28.444,-108.41 L 28.5151,-108.485
 L 28.5897,-108.556 L 28.6678,-108.623 L 28.749,-108.687 L 28.8333,-108.746 L 28.9204,-108.801 L 29.0101,-108.852
 L 29.1021,-108.898 L 29.1964,-108.94 L 29.2925,-108.977 L 29.3904,-109.01 L 29.4897,-109.037 L 29.5903,-109.06
 L 29.6919,-109.077 L 29.7942,-109.09 L 29.897,-109.097 L 30,-109.1 L 30.103,-109.097 L 30.2058,-109.09
 L 30.3081,-109.077 L 30.4097,-109.06 L 30.5103,-109.037 L 30.6096,-109.01 L 30.7075,-108.977 L 30.8036,-108.94
 L 30.8979,-108.898 L 30.9899,-108.852 L 31.0796,-108.801 L 31.1667,-108.746 L 31.251,-108.687 L 31.3322,-108.623
 L 31.4103,-108.556 L 31.4849,-108.485 L 31.556,-108.41 L 31.6233,-108.332 L 31.6867,-108.251 L 31.7461,-108.167
 L 31.8012,-108.08 L 31.852,-107.99 L 31.8984,-107.898 L 31.9401,-107.804 L 31.9772,-107.707 L 32.0096,-107.61
 L 32.0371,-107.51 L 32.0596,-107.41 L 32.0773,-107.308 L 32.0899,-107.206 L 32.0975,-107.103 L 32.1,-107
 L 32.0975,-106.897 L 32.0899,-106.794 L 32.0773,-106.692 L 32.0596,-106.59 L 32.0371,-106.49 L 32.0096,-106.39
 L 31.9772,-106.293 L 31.9401,-106.196 L 31.8984,-106.102 L 31.852,-106.01 L 31.8012,-105.92 L 31.7461,-105.833
 L 31.6867,-105.749 L 31.6233,-105.668 L 31.556,-105.59 L 31.4849,-105.515 L 31.4103,-105.444 L 31.3322,-105.377
 L 31.251,-105.313 L 31.1667,-105.254 L 31.0796,-105.199 L 30.9899,-105.148 L 30.8979,-105.102 L 30.8036,-105.06
 L 30.7075,-105.023 L 30.6096,-104.99 L 30.5103,-104.963 L 30.4097,-104.94 L 30.3081,-104.923 L 30.2058,-104.91
 L 30.103,-104.903 L 30,-104.9 z
M 79.897,-104.903 L 79.7942,-104.91 L 79.6919,-104.923 L 79.5903,-104.94 L 79.4897,-104.963 L 79.3904,-104.99
 L 79.2925,-105.023 L 79.1964,-105.06 L 79.1021,-105.102 L 79.0101,-105.148 L 78.9204,-105.199 L 78.8333,-105.254
 L 78.749,-105.313 L 78.6678,-105.377 L 78.5897,-105.444 L 78.5151,-105.515 L 78.444,-105.59 L 78.3767,-105.668
 L 78.3133,-105.749 L 78.2539,-105.833 L 78.1988,-105.92 L 78.148,-106.01 L 78.1016,-106.102 L 78.0598,-106.196
 L 78.0228,-106.293 L 77.9904,-106.39 L 77.9629,-106.49 L 77.9403,-106.59 L 77.9227,-106.692 L 77.9101,-106.794
 L 77.9025,-106.897 L 77.9,-107 L 77.9025,-107.103 L 77.9101,-107.206 L 77.9227,-107.308 L 77.9403,-107.41
 L 77.9629,-107.51 L 77.9904,-107.61 L 78.0228,-107.707 L 78.0598,-107.804 L 78.1016,-107.898 L 78.148,-107.99
 L 78.1988,-108.08 L 78.2539,-108.167 L 78.3133,-108.251 L 78.3767,-108.332 L 78.444,-108.41 L 78.5151,-108.485
 L 78.5897,-108.556 L 78.6678,-108.623 L 78.749,-108.687 L 78.8333,-108.746 L 78.9204,-108.801 L 79.0101,-108.852
 L 79.1021,-108.898 L 79.1964,-108.94 L 79.2925,-108.977 L 79.3904,-109.01 L 79.4897,-109.037 L 79.5903,-109.06
 L 79.6919,-109.077 L 79.7942,-109.09 L 79.897,-109.097 L 80,-109.1 L 80.103,-109.097 L 80.2058,-109.09
 L 80.3081,-109.077 L 80.4097,-109.06 L 80.5103,-109.037 L 80.6096,-109.01 L 80.7075,-108.977 L 80.8036,-108.94
 L 80.8979,-108.898 L 80.9899,-108.852 L 81.0796,-108.801 L 81.1667,-108.746 L 81.251,-108.687 L 81.3322,-108.623
 L 81.4103,-108.556 L 81.4849,-108.485 L 81.556,-108.41 L 81.6233,-108.332 L 81.6867,-108.251 L 81.7461,-108.167
 L 81.8012,-108.08 L 81.852,-107.99 L 81.8984,-107.898 L 81.9401,-107.804 L 81.9772,-107.707 L 82.0096,-107.61
 L 82.0371,-107.51 L 82.0596,-107.41 L 82.0773,-107.308 L 82.0899,-107.206 L 82.0975,-107.103 L 82.1,-107
 L 82.0975,-106.897 L 82.0899,-106.794 L 82.0773,-106.692 L 82.0596,-106.59 L 82.0371,-106.49 L 82.0096,-106.39
 L 81.9772,-106.293 L 81.9401,-106.196 L 81.8984,-106.102 L 81.852,-106.01 L 81.8012,-105.92 L 81.7461,-105.833
 L 81.6867,-105.749 L 81.6233,-105.668 L 81.556,-105.59 L 81.4849,-105.515 L 81.4103,-105.444 L 81.3322,-105.377
 L 81.251,-105.313 L 81.1667,-105.254 L 81.0796,-105.199 L 80.9899,-105.148 L 80.8979,-105.102 L 80.8036,-105.06
 L 80.7075,-105.023 L 80.6096,-104.99 L 80.5103,-104.963 L 80.4097,-104.94 L 80.3081,-104.923 L 80.2058,-104.91
 L 80.103,-104.903 L 80,-104.9 z
M 129.897,-104.903 L 129.794,-104.91 L 129.692,-104.923 L 129.59,-104.94 L 129.49,-104.963 L 129.39,-104.99
 L 129.293,-105.023 L 129.196,-105.06 L 129.102,-105.102 L 129.01,-105.148 L 128.92,-105.199 L 128.833,-105.254
 L 128.749,-105.313 L 128.668,-105.377 L 128.59,-105.444 L 128.515,-105.515 L 128.444,-105.59 L 128.377,-105.668
 L 128.313,-105.749 L 128.254,-105.833 L 128.199,-105.92 L 128.148,-106.01 L 128.102,-106.102 L 128.06,-106.196
 L 128.023,-106.293 L 127.99,-106.39 L 127.963,-106.49 L 127.94,-106.59 L 127.923,-106.692 L 127.91,-106.794
 L 127.903,-106.897 L 127.9,-107 L 127.903,-107.103 L 127.91,-107.206 L 127.923,-107.308 L 127.94,-107.41
 L 127.963,-107.51 L 127.99,-107.61 L 128.023,-107.707 L 128.06,-107.804 L 128.102,-107.898 L 128.148,-107.99
 L 128.199,-108.08 L 128.254,-108.167 L 128.313,-108.251 L 128.377,-108.332 L 128.444,-108.41 L 128.515,-108.485
 L 128.59,-108.556 L 128.668,-108.623 L 128.749,-108.687 L 128.833,-108.746 L 128.92,-108.801 L 129.01,-108.852
 L 129.102,-108.898 L 129.196,-108.94 L 129.293,-108.977 L 129.39,-109.01 L 129.49,-109.037 L 129.59,-109.06
 L 129.692,-109.077 L 129.794,-109.09 L 129.897,-109.097 L 130,-109.1 L 130.103,-109.097 L 130.206,-109.09
 L 130.308,-109.077 L 130.41,-109.06 L 130.51,-109.037 L 130.61,-109.01 L 130.707,-108.977 L 130.804,-108.94
 L 130.898,-108.898 L 130.99,-108.852 L 131.08,-108.801 L 131.167,-108.746 L 131.251,-108.687 L 131.332,-108.623
 L 131.41,-108.556 L 131.485,-108.485 L 131.556,-108.41 L 131.623,-108.332 L 131.687,-108.251 L 131.746,-108.167
 L 131.801,-108.08 L 131.852,-107.99 L 131.898,-107.898 L 131.94,-107.804 L 131.977,-107.707 L 132.01,-107.61
 L 132.037,-107.51 L 132.06,-107.41 L 132.077,-107.308 L 132.09,-107.206 L 132.097,-107.103 L 132.1,-107
 L 132.097,-106.897 L 132.09,-106.794 L 132.077,-106.692 L 132.06,-106.59 L 132.037,-106.49 L 132.01,-106.39
 L 131.977,-106.293 L 131.94,-106.196 L 131.898,-106.102 L 131.852,-106.01 L 131.801,-105.92 L 131.746,-105.833
 L 131.687,-105.749 L 131.623,-105.668 L 131.556,-105.59 L 131.485,-105.515 L 131.41,-105.444 L 131.332,-105.377
 L 131.251,-105.313 L 131.167,-105.254 L 131.08,-105.199 L 130.99,-105.148 L 130.898,-105.102 L 130.804,-105.06
 L 130.707,-105.023 L 130.61,-104.99 L 130.51,-104.963 L 130.41,-104.94 L 130.308,-104.923 L 130.206,-104.91
 L 130.103,-104.903 L 130,-104.9 z
M 216.897,-104.903 L 216.794,-104.91 L 216.692,-104.923 L 216.59,-104.94 L 216.49,-104.963 L 216.39,-104.99
 L 216.293,-105.023 L 216.196,-105.06 L 216.102,-105.102 L 216.01,-105.148 L 215.92,-105.199 L 215.833,-105.254
 L 215.749,-105.313 L 215.668,-105.377 L 215.59,-105.444 L 215.515,-105.515 L 215.444,-105.59 L 215.377,-105.668
 L 215.313,-105.749 L 215.254,-105.833 L 215.199,-105.92 L 215.148,-106.01 L 215.102,-106.102 L 215.06,-106.196
 L 215.023,-106.293 L 214.99,-106.39 L 214.963,-106.49 L 214.94,-106.59 L 214.923,-106.692 L 214.91,-106.794
 L 214.903,-106.897 L 214.9,-107 L 214.903,-107.103 L 214.91,-107.206 L 214.923,-107.308 L 214.94,-107.41
 L 214.963,-107.51 L 214.99,-107.61 L 215.023,-107.707 L 215.06,-107.804 L 215.102,-107.898 L 215.148,-107.99
 L 215.199,-108.08 L 215.254,-108.167 L 215.313,-108.251 L 215.377,-108.332 L 215.444,-108.41 L 215.515,-108.485
 L 215.59,-108.556 L 215.668,-108.623 L 215.749,-108.687 L 215.833,-108.746 L 215.92,-108.801 L 216.01,-108.852
 L 216.102,-108.898 L 216.196,-108.94 L 216.293,-108.977 L 216.39,-109.01 L 216.49,-109.037 L 216.59,-109.06
 L 216.692,-109.077 L 216.794,-109.09 L 216.897,-109.097 L 217,-109.1 L 217.103,-109.097 L 217.206,-109.09
 L 217.308,-109.077 L 217.41,-109.06 L 217.51,-109.037 L 217.61,-109.01 L 217.707,-108.977 L 217.804,-108.94
 L 217.898,-108.898 L 217.99,-108.852 L 218.08,-108.801 L 218.167,-108.746 L 218.251,-108.687 L 218.332,-108.623
 L 218.41,-108.556 L 218.485,-108.485 L 218.556,-108.41 L 218.623,-108.332 L 218.687,-108.251 L 218.746,-108.167
 L 218.801,-108.08 L 218.852,-107.99 L 218.898,-107.898 L 218.94,-107.804 L 218.977,-107.707 L 219.01,-107.61
 L 219.037,-107.51 L 219.06,-107.41 L 219.077,-107.308 L 219.09,-107.206 L 219.097,-107.103 L 219.1,-107
 L 219.097,-106.897 L 219.09,-106.794 L 219.077,-106.692 L 219.06,-106.59 L 219.037,-106.49 L 219.01,-106.39
 L 218.977,-106.293 L 218.94,-106.196 L 218.898,-106.102 L 218.852,-106.01 L 218.801,-105.92 L 218.746,-105.833
 L 218.687,-105.749 L 218.623,-105.668 L 218.556,-105.59 L 218.485,-105.515 L 218.41,-105.444 L 218.332,-105.377
 L 218.251,-105.313 L 218.167,-105.254 L 218.08,-105.199 L 217.99,-105.148 L 217.898,-105.102 L 217.804,-105.06
 L 217.707,-105.023 L 217.61,-104.99 L 217.51,-104.963 L 217.41,-104.94 L 217.308,-104.923 L 217.206,-104.91
 L 217.103,-104.903 L 217,-104.9 z
M 19.8896,-17.7527 L 19.7794,-17.7608 L 19.6698,-17.7743 L 19.561,-17.7932 L 19.4533,-17.8174 L 19.3468,-17.8469
 L 19.242,-17.8815 L 19.139,-17.9213 L 19.038,-17.966 L 18.9393,-18.0157 L 18.8433,-18.0701 L 18.75,-18.1292
 L 18.6597,-18.1928 L 18.5726,-18.2607 L 18.489,-18.3329 L 18.409,-18.409 L 18.3329,-18.489 L 18.2607,-18.5726
 L 18.1928,-18.6597 L 18.1292,-18.75 L 18.0701,-18.8433 L 18.0157,-18.9393 L 17.966,-19.038 L 17.9213,-19.139
 L 17.8815,-19.242 L 17.8469,-19.3468 L 17.8174,-19.4533 L 17.7932,-19.561 L 17.7743,-19.6698 L 17.7608,-19.7794
 L 17.7527,-19.8896 L 17.75,-20 L 17.7527,-20.1104 L 17.7608,-20.2205 L 17.7743,-20.3301 L 17.7932,-20.4389
 L 17.8174,-20.5467 L 17.8469,-20.6531 L 17.8815,-20.758 L 17.9213,-20.861 L 17.966,-20.962 L 18.0157,-21.0606
 L 18.0701,-21.1567 L 18.1292,-21.25 L 18.1928,-21.3403 L 18.2607,-21.4274 L 18.3329,-21.511 L 18.409,-21.591
 L 18.489,-21.6671 L 18.5726,-21.7393 L 18.6597,-21.8072 L 18.75,-21.8708 L 18.8433,-21.9299 L 18.9393,-21.9843
 L 19.038,-22.034 L 19.139,-22.0787 L 19.242,-22.1185 L 19.3468,-22.1531 L 19.4533,-22.1826 L 19.561,-22.2068
 L 19.6698,-22.2256 L 19.7794,-22.2392 L 19.8896,-22.2473 L 20,-22.25 L 20.1104,-22.2473 L 20.2205,-22.2392
 L 20.3301,-22.2256 L 20.4389,-22.2068 L 20.5467,-22.1826 L 20.6531,-22.1531 L 20.758,-22.1185 L 20.861,-22.0787
 L 20.962,-22.034 L 21.0606,-21.9843 L 21.1567,-21.9299 L 21.25,-21.8708 L 21.3403,-21.8072 L 21.4274,-21.7393
 L 21.511,-21.6671 L 21.591,-21.591 L 21.6671,-21.511 L 21.7393,-21.4274 L 21.8072,-21.3403 L 21.8708,-21.25
 L 21.9299,-21.1567 L 21.9843,-21.0606 L 22.034,-20.962 L 22.0787,-20.861 L 22.1185,-20.758 L 22.1531,-20.6531
 L 22.1826,-20.5467 L 22.2068,-20.4389 L 22.2256,-20.3301 L 22.2392,-20.2205 L 22.2473,-20.1104 L 22.25,-20
 L 22.2473,-19.8896 L 22.2392,-19.7794 L 22.2256,-19.6698 L 22.2068,-19.561 L 22.1826,-19.4533 L 22.1531,-19.3468
 L 22.1185,-19.242 L 22.0787,-19.139 L 22.034,-19.038 L 21.9843,-18.9393 L 21.9299,-18.8433 L 21.8708,-18.75
 L 21.8072,-18.6597 L 21.7393,-18.5726 L 21.6671,-18.489 L 21.591,-18.409 L 21.511,-18.3329 L 21.4274,-18.2607
 L 21.3403,-18.1928 L 21.25,-18.1292 L 21.1567,-18.0701 L 21.0606,-18.0157 L 20.962,-17.966 L 20.861,-17.9213
 L 20.758,-17.8815 L 20.6531,-17.8469 L 20.5467,-17.8174 L 20.4389,-17.7932 L 20.3301,-17.7743 L 20.2205,-17.7608
 L 20.1104,-17.7527 L 20,-17.75 z
" stroke="black" fill="lightgray" stroke-width="0.5"/></svg>
