%TF.GenerationSoftware,KiCad,Pcbnew,5.1.5+dfsg1-2~bpo10+1*%
%TF.CreationDate,2020-10-30T12:10:53+01:00*%
%TF.ProjectId,ms_auth_breakout,6d735f61-7574-4685-9f62-7265616b6f75,1.1.0*%
%TF.SameCoordinates,Original*%
%TF.FileFunction,OtherDrawing,Comment*%
%FSLAX46Y46*%
G04 Gerber Fmt 4.6, Leading zero omitted, Abs format (unit mm)*
G04 Created by KiCad (PCBNEW 5.1.5+dfsg1-2~bpo10+1) date 2020-10-30 12:10:53 commit 8f6b4a8*
%MOMM*%
%LPD*%
G04 APERTURE LIST*
%ADD10C,0.050000*%
%ADD11C,0.050800*%
%ADD12C,0.127000*%
G04 APERTURE END LIST*
D10*
X119557800Y-133896100D02*
G75*
G02X115747800Y-130086100I0J3810000D01*
G01*
X119557800Y-133896100D02*
X177342800Y-133896100D01*
X181254400Y-130086100D02*
G75*
G02X177342800Y-133896100I-3860800J50800D01*
G01*
X181254400Y-130086100D02*
X181254400Y-79921100D01*
X177342800Y-76111100D02*
G75*
G02X181254400Y-79921100I50800J-3860800D01*
G01*
X177342800Y-76111100D02*
X140512800Y-76111100D01*
X137972800Y-78651100D02*
G75*
G02X140512800Y-76111100I2540000J0D01*
G01*
X137972800Y-78651100D02*
X137972800Y-100241100D01*
X135432800Y-102781100D02*
G75*
G03X137972800Y-100241100I0J2540000D01*
G01*
X135432800Y-102781100D02*
X118287800Y-102781100D01*
X115747800Y-105321100D02*
G75*
G02X118287800Y-102781100I2540000J0D01*
G01*
X115747800Y-105321100D02*
X115747800Y-130086100D01*
D11*
X170803550Y-121286850D02*
X172452050Y-121286850D01*
X170803550Y-124915350D02*
X170803550Y-121286850D01*
X172452050Y-124915350D02*
X170803550Y-124915350D01*
X172452050Y-121286850D02*
X172452050Y-124915350D01*
X168263550Y-77471850D02*
X169912050Y-77471850D01*
X168263550Y-81100350D02*
X168263550Y-77471850D01*
X169912050Y-81100350D02*
X168263550Y-81100350D01*
X169912050Y-77471850D02*
X169912050Y-81100350D01*
X151594800Y-83029100D02*
X153560800Y-83029100D01*
X153560800Y-78083100D02*
X151594800Y-78083100D01*
X153560800Y-83029100D02*
X153560800Y-78083100D01*
X151594800Y-78083100D02*
X151594800Y-83029100D01*
D12*
X165912800Y-104051100D02*
X176072800Y-104051100D01*
X165912800Y-93891100D02*
X165912800Y-104051100D01*
X176072800Y-93891100D02*
X165912800Y-93891100D01*
X176072800Y-104051100D02*
X176072800Y-93891100D01*
D11*
X134669550Y-121286850D02*
X133021050Y-121286850D01*
X134669550Y-124915350D02*
X134669550Y-121286850D01*
X133021050Y-124915350D02*
X134669550Y-124915350D01*
X133021050Y-121286850D02*
X133021050Y-124915350D01*
X137844550Y-121286850D02*
X136196050Y-121286850D01*
X137844550Y-124915350D02*
X137844550Y-121286850D01*
X136196050Y-124915350D02*
X137844550Y-124915350D01*
X136196050Y-121286850D02*
X136196050Y-124915350D01*
X144194550Y-121286850D02*
X142546050Y-121286850D01*
X144194550Y-124915350D02*
X144194550Y-121286850D01*
X142546050Y-124915350D02*
X144194550Y-124915350D01*
X142546050Y-121286850D02*
X142546050Y-124915350D01*
X141019550Y-121286850D02*
X139371050Y-121286850D01*
X141019550Y-124915350D02*
X141019550Y-121286850D01*
X139371050Y-124915350D02*
X141019550Y-124915350D01*
X139371050Y-121286850D02*
X139371050Y-124915350D01*
M02*
