%TF.GenerationSoftware,KiCad,Pcbnew,5.1.5+dfsg1-2~bpo10+1*%
%TF.CreationDate,2020-10-30T12:10:53+01:00*%
%TF.ProjectId,ms_auth_breakout,6d735f61-7574-4685-9f62-7265616b6f75,1.1.0*%
%TF.SameCoordinates,Original*%
%TF.FileFunction,Legend,Top*%
%TF.FilePolarity,Positive*%
%FSLAX46Y46*%
G04 Gerber Fmt 4.6, Leading zero omitted, Abs format (unit mm)*
G04 Created by KiCad (PCBNEW 5.1.5+dfsg1-2~bpo10+1) date 2020-10-30 12:10:53 commit 8f6b4a8*
%MOMM*%
%LPD*%
G04 APERTURE LIST*
%ADD10C,0.050000*%
%ADD11C,0.254000*%
%ADD12C,0.406400*%
%ADD13C,0.203200*%
%ADD14C,0.152400*%
%ADD15C,0.381000*%
%ADD16C,0.508000*%
%ADD17C,0.121920*%
%ADD18C,0.304800*%
%ADD19C,0.127000*%
%ADD20C,0.100000*%
%ADD21C,0.076200*%
%ADD22C,0.150000*%
%ADD23C,0.115824*%
%ADD24C,0.096520*%
%ADD25C,0.193040*%
%ADD26C,2.843200*%
%ADD27C,1.727200*%
%ADD28C,2.082800*%
%ADD29R,2.082800X2.082800*%
%ADD30R,2.003200X2.603200*%
%ADD31R,1.403200X1.403200*%
%ADD32R,1.703200X1.503200*%
%ADD33C,4.318000*%
%ADD34O,3.251200X1.727200*%
%ADD35C,1.854200*%
G04 APERTURE END LIST*
D10*
X119557800Y-133896100D02*
G75*
G02X115747800Y-130086100I0J3810000D01*
G01*
X119557800Y-133896100D02*
X177342800Y-133896100D01*
X181254400Y-130086100D02*
G75*
G02X177342800Y-133896100I-3860800J50800D01*
G01*
X181254400Y-130086100D02*
X181254400Y-79921100D01*
X177342800Y-76111100D02*
G75*
G02X181254400Y-79921100I50800J-3860800D01*
G01*
X177342800Y-76111100D02*
X140512800Y-76111100D01*
X137972800Y-78651100D02*
G75*
G02X140512800Y-76111100I2540000J0D01*
G01*
X137972800Y-78651100D02*
X137972800Y-100241100D01*
X135432800Y-102781100D02*
G75*
G03X137972800Y-100241100I0J2540000D01*
G01*
X135432800Y-102781100D02*
X118287800Y-102781100D01*
X115747800Y-105321100D02*
G75*
G02X118287800Y-102781100I2540000J0D01*
G01*
X115747800Y-105321100D02*
X115747800Y-130086100D01*
D11*
X167760347Y-87091761D02*
X167760347Y-87781190D01*
X167760347Y-87436476D02*
X166553847Y-87436476D01*
X166726204Y-87551380D01*
X166841109Y-87666285D01*
X166898561Y-87781190D01*
X166668752Y-86632142D02*
X166611300Y-86574690D01*
X166553847Y-86459785D01*
X166553847Y-86172523D01*
X166611300Y-86057619D01*
X166668752Y-86000166D01*
X166783657Y-85942714D01*
X166898561Y-85942714D01*
X167070919Y-86000166D01*
X167760347Y-86689595D01*
X167760347Y-85942714D01*
X166553847Y-85598000D02*
X167760347Y-85195833D01*
X166553847Y-84793666D01*
X159626300Y-87091761D02*
X159568847Y-87206666D01*
X159568847Y-87379023D01*
X159626300Y-87551380D01*
X159741204Y-87666285D01*
X159856109Y-87723738D01*
X160085919Y-87781190D01*
X160258276Y-87781190D01*
X160488085Y-87723738D01*
X160602990Y-87666285D01*
X160717895Y-87551380D01*
X160775347Y-87379023D01*
X160775347Y-87264119D01*
X160717895Y-87091761D01*
X160660442Y-87034309D01*
X160258276Y-87034309D01*
X160258276Y-87264119D01*
X160775347Y-86517238D02*
X159568847Y-86517238D01*
X160775347Y-85827809D01*
X159568847Y-85827809D01*
X160775347Y-85253285D02*
X159568847Y-85253285D01*
X159568847Y-84966023D01*
X159626300Y-84793666D01*
X159741204Y-84678761D01*
X159856109Y-84621309D01*
X160085919Y-84563857D01*
X160258276Y-84563857D01*
X160488085Y-84621309D01*
X160602990Y-84678761D01*
X160717895Y-84793666D01*
X160775347Y-84966023D01*
X160775347Y-85253285D01*
X176464685Y-120567147D02*
X175890161Y-120567147D01*
X175832709Y-121141671D01*
X175890161Y-121084219D01*
X176005066Y-121026766D01*
X176292328Y-121026766D01*
X176407233Y-121084219D01*
X176464685Y-121141671D01*
X176522138Y-121256576D01*
X176522138Y-121543838D01*
X176464685Y-121658742D01*
X176407233Y-121716195D01*
X176292328Y-121773647D01*
X176005066Y-121773647D01*
X175890161Y-121716195D01*
X175832709Y-121658742D01*
X176866852Y-120567147D02*
X177269019Y-121773647D01*
X177671185Y-120567147D01*
D12*
X132981579Y-121739176D02*
X132981579Y-119808776D01*
X133625045Y-121187633D01*
X134268512Y-119808776D01*
X134268512Y-121739176D01*
X136015064Y-121739176D02*
X136015064Y-120728014D01*
X135923140Y-120544166D01*
X135739293Y-120452242D01*
X135371598Y-120452242D01*
X135187750Y-120544166D01*
X136015064Y-121647252D02*
X135831217Y-121739176D01*
X135371598Y-121739176D01*
X135187750Y-121647252D01*
X135095826Y-121463404D01*
X135095826Y-121279557D01*
X135187750Y-121095709D01*
X135371598Y-121003785D01*
X135831217Y-121003785D01*
X136015064Y-120911861D01*
X136934302Y-121739176D02*
X136934302Y-119808776D01*
X137118150Y-121003785D02*
X137669693Y-121739176D01*
X137669693Y-120452242D02*
X136934302Y-121187633D01*
X139232398Y-121647252D02*
X139048550Y-121739176D01*
X138680855Y-121739176D01*
X138497007Y-121647252D01*
X138405083Y-121463404D01*
X138405083Y-120728014D01*
X138497007Y-120544166D01*
X138680855Y-120452242D01*
X139048550Y-120452242D01*
X139232398Y-120544166D01*
X139324321Y-120728014D01*
X139324321Y-120911861D01*
X138405083Y-121095709D01*
X140151636Y-121739176D02*
X140151636Y-120452242D01*
X140151636Y-120819938D02*
X140243560Y-120636090D01*
X140335483Y-120544166D01*
X140519331Y-120452242D01*
X140703179Y-120452242D01*
X141254721Y-121647252D02*
X141438569Y-121739176D01*
X141806264Y-121739176D01*
X141990112Y-121647252D01*
X142082036Y-121463404D01*
X142082036Y-121371480D01*
X141990112Y-121187633D01*
X141806264Y-121095709D01*
X141530493Y-121095709D01*
X141346645Y-121003785D01*
X141254721Y-120819938D01*
X141254721Y-120728014D01*
X141346645Y-120544166D01*
X141530493Y-120452242D01*
X141806264Y-120452242D01*
X141990112Y-120544166D01*
X142909350Y-120452242D02*
X142909350Y-122382642D01*
X142909350Y-120544166D02*
X143093198Y-120452242D01*
X143460893Y-120452242D01*
X143644740Y-120544166D01*
X143736664Y-120636090D01*
X143828588Y-120819938D01*
X143828588Y-121371480D01*
X143736664Y-121555328D01*
X143644740Y-121647252D01*
X143460893Y-121739176D01*
X143093198Y-121739176D01*
X142909350Y-121647252D01*
X145483217Y-121739176D02*
X145483217Y-120728014D01*
X145391293Y-120544166D01*
X145207445Y-120452242D01*
X144839750Y-120452242D01*
X144655902Y-120544166D01*
X145483217Y-121647252D02*
X145299369Y-121739176D01*
X144839750Y-121739176D01*
X144655902Y-121647252D01*
X144563979Y-121463404D01*
X144563979Y-121279557D01*
X144655902Y-121095709D01*
X144839750Y-121003785D01*
X145299369Y-121003785D01*
X145483217Y-120911861D01*
X147229769Y-121647252D02*
X147045921Y-121739176D01*
X146678226Y-121739176D01*
X146494379Y-121647252D01*
X146402455Y-121555328D01*
X146310531Y-121371480D01*
X146310531Y-120819938D01*
X146402455Y-120636090D01*
X146494379Y-120544166D01*
X146678226Y-120452242D01*
X147045921Y-120452242D01*
X147229769Y-120544166D01*
X148792474Y-121647252D02*
X148608626Y-121739176D01*
X148240931Y-121739176D01*
X148057083Y-121647252D01*
X147965160Y-121463404D01*
X147965160Y-120728014D01*
X148057083Y-120544166D01*
X148240931Y-120452242D01*
X148608626Y-120452242D01*
X148792474Y-120544166D01*
X148884398Y-120728014D01*
X148884398Y-120911861D01*
X147965160Y-121095709D01*
X151090569Y-121187633D02*
X152009807Y-121187633D01*
X150906721Y-121739176D02*
X151550188Y-119808776D01*
X152193655Y-121739176D01*
X153664436Y-120452242D02*
X153664436Y-121739176D01*
X152837121Y-120452242D02*
X152837121Y-121463404D01*
X152929045Y-121647252D01*
X153112893Y-121739176D01*
X153388664Y-121739176D01*
X153572512Y-121647252D01*
X153664436Y-121555328D01*
X154307902Y-120452242D02*
X155043293Y-120452242D01*
X154583674Y-119808776D02*
X154583674Y-121463404D01*
X154675598Y-121647252D01*
X154859445Y-121739176D01*
X155043293Y-121739176D01*
X155686760Y-121739176D02*
X155686760Y-119808776D01*
X156514074Y-121739176D02*
X156514074Y-120728014D01*
X156422150Y-120544166D01*
X156238302Y-120452242D01*
X155962531Y-120452242D01*
X155778683Y-120544166D01*
X155686760Y-120636090D01*
X159547560Y-120728014D02*
X159823331Y-120819938D01*
X159915255Y-120911861D01*
X160007179Y-121095709D01*
X160007179Y-121371480D01*
X159915255Y-121555328D01*
X159823331Y-121647252D01*
X159639483Y-121739176D01*
X158904093Y-121739176D01*
X158904093Y-119808776D01*
X159547560Y-119808776D01*
X159731407Y-119900700D01*
X159823331Y-119992623D01*
X159915255Y-120176471D01*
X159915255Y-120360319D01*
X159823331Y-120544166D01*
X159731407Y-120636090D01*
X159547560Y-120728014D01*
X158904093Y-120728014D01*
X161110264Y-121739176D02*
X160926417Y-121647252D01*
X160834493Y-121555328D01*
X160742569Y-121371480D01*
X160742569Y-120819938D01*
X160834493Y-120636090D01*
X160926417Y-120544166D01*
X161110264Y-120452242D01*
X161386036Y-120452242D01*
X161569883Y-120544166D01*
X161661807Y-120636090D01*
X161753731Y-120819938D01*
X161753731Y-121371480D01*
X161661807Y-121555328D01*
X161569883Y-121647252D01*
X161386036Y-121739176D01*
X161110264Y-121739176D01*
X163408360Y-121739176D02*
X163408360Y-120728014D01*
X163316436Y-120544166D01*
X163132588Y-120452242D01*
X162764893Y-120452242D01*
X162581045Y-120544166D01*
X163408360Y-121647252D02*
X163224512Y-121739176D01*
X162764893Y-121739176D01*
X162581045Y-121647252D01*
X162489121Y-121463404D01*
X162489121Y-121279557D01*
X162581045Y-121095709D01*
X162764893Y-121003785D01*
X163224512Y-121003785D01*
X163408360Y-120911861D01*
X164327598Y-121739176D02*
X164327598Y-120452242D01*
X164327598Y-120819938D02*
X164419521Y-120636090D01*
X164511445Y-120544166D01*
X164695293Y-120452242D01*
X164879140Y-120452242D01*
X166349921Y-121739176D02*
X166349921Y-119808776D01*
X166349921Y-121647252D02*
X166166074Y-121739176D01*
X165798379Y-121739176D01*
X165614531Y-121647252D01*
X165522607Y-121555328D01*
X165430683Y-121371480D01*
X165430683Y-120819938D01*
X165522607Y-120636090D01*
X165614531Y-120544166D01*
X165798379Y-120452242D01*
X166166074Y-120452242D01*
X166349921Y-120544166D01*
D11*
X154486126Y-125249516D02*
X154428673Y-125192064D01*
X154313769Y-125019707D01*
X154256316Y-124904802D01*
X154198864Y-124732445D01*
X154141411Y-124445183D01*
X154141411Y-124215373D01*
X154198864Y-123928111D01*
X154256316Y-123755754D01*
X154313769Y-123640850D01*
X154428673Y-123468492D01*
X154486126Y-123411040D01*
X155462816Y-124732445D02*
X155347911Y-124789897D01*
X155118102Y-124789897D01*
X155003197Y-124732445D01*
X154945745Y-124674992D01*
X154888292Y-124560088D01*
X154888292Y-124215373D01*
X154945745Y-124100469D01*
X155003197Y-124043016D01*
X155118102Y-123985564D01*
X155347911Y-123985564D01*
X155462816Y-124043016D01*
X155864983Y-125249516D02*
X155922435Y-125192064D01*
X156037340Y-125019707D01*
X156094792Y-124904802D01*
X156152245Y-124732445D01*
X156209697Y-124445183D01*
X156209697Y-124215373D01*
X156152245Y-123928111D01*
X156094792Y-123755754D01*
X156037340Y-123640850D01*
X155922435Y-123468492D01*
X155864983Y-123411040D01*
X158335435Y-123640850D02*
X158220530Y-123583397D01*
X158048173Y-123583397D01*
X157875816Y-123640850D01*
X157760911Y-123755754D01*
X157703459Y-123870659D01*
X157646007Y-124100469D01*
X157646007Y-124272826D01*
X157703459Y-124502635D01*
X157760911Y-124617540D01*
X157875816Y-124732445D01*
X158048173Y-124789897D01*
X158163078Y-124789897D01*
X158335435Y-124732445D01*
X158392888Y-124674992D01*
X158392888Y-124272826D01*
X158163078Y-124272826D01*
X159082316Y-124789897D02*
X158967411Y-124732445D01*
X158909959Y-124674992D01*
X158852507Y-124560088D01*
X158852507Y-124215373D01*
X158909959Y-124100469D01*
X158967411Y-124043016D01*
X159082316Y-123985564D01*
X159254673Y-123985564D01*
X159369578Y-124043016D01*
X159427030Y-124100469D01*
X159484483Y-124215373D01*
X159484483Y-124560088D01*
X159427030Y-124674992D01*
X159369578Y-124732445D01*
X159254673Y-124789897D01*
X159082316Y-124789897D01*
X160173911Y-124789897D02*
X160059007Y-124732445D01*
X160001554Y-124674992D01*
X159944102Y-124560088D01*
X159944102Y-124215373D01*
X160001554Y-124100469D01*
X160059007Y-124043016D01*
X160173911Y-123985564D01*
X160346269Y-123985564D01*
X160461173Y-124043016D01*
X160518626Y-124100469D01*
X160576078Y-124215373D01*
X160576078Y-124560088D01*
X160518626Y-124674992D01*
X160461173Y-124732445D01*
X160346269Y-124789897D01*
X160173911Y-124789897D01*
X161610221Y-123985564D02*
X161610221Y-124962254D01*
X161552769Y-125077159D01*
X161495316Y-125134611D01*
X161380411Y-125192064D01*
X161208054Y-125192064D01*
X161093150Y-125134611D01*
X161610221Y-124732445D02*
X161495316Y-124789897D01*
X161265507Y-124789897D01*
X161150602Y-124732445D01*
X161093150Y-124674992D01*
X161035697Y-124560088D01*
X161035697Y-124215373D01*
X161093150Y-124100469D01*
X161150602Y-124043016D01*
X161265507Y-123985564D01*
X161495316Y-123985564D01*
X161610221Y-124043016D01*
X162357102Y-124789897D02*
X162242197Y-124732445D01*
X162184745Y-124617540D01*
X162184745Y-123583397D01*
X163276340Y-124732445D02*
X163161435Y-124789897D01*
X162931626Y-124789897D01*
X162816721Y-124732445D01*
X162759269Y-124617540D01*
X162759269Y-124157921D01*
X162816721Y-124043016D01*
X162931626Y-123985564D01*
X163161435Y-123985564D01*
X163276340Y-124043016D01*
X163333792Y-124157921D01*
X163333792Y-124272826D01*
X162759269Y-124387730D01*
X165344626Y-124789897D02*
X164770102Y-124789897D01*
X164770102Y-123583397D01*
X166321316Y-124789897D02*
X165746792Y-124789897D01*
X165746792Y-123583397D01*
X167412911Y-124674992D02*
X167355459Y-124732445D01*
X167183102Y-124789897D01*
X167068197Y-124789897D01*
X166895840Y-124732445D01*
X166780935Y-124617540D01*
X166723483Y-124502635D01*
X166666030Y-124272826D01*
X166666030Y-124100469D01*
X166723483Y-123870659D01*
X166780935Y-123755754D01*
X166895840Y-123640850D01*
X167068197Y-123583397D01*
X167183102Y-123583397D01*
X167355459Y-123640850D01*
X167412911Y-123698302D01*
X124337233Y-132272314D02*
X124337233Y-133249004D01*
X124279780Y-133363909D01*
X124222328Y-133421361D01*
X124107423Y-133478814D01*
X123935066Y-133478814D01*
X123820161Y-133421361D01*
X124337233Y-133019195D02*
X124222328Y-133076647D01*
X123992519Y-133076647D01*
X123877614Y-133019195D01*
X123820161Y-132961742D01*
X123762709Y-132846838D01*
X123762709Y-132502123D01*
X123820161Y-132387219D01*
X123877614Y-132329766D01*
X123992519Y-132272314D01*
X124222328Y-132272314D01*
X124337233Y-132329766D01*
X124911757Y-133076647D02*
X124911757Y-132272314D01*
X124911757Y-131870147D02*
X124854304Y-131927600D01*
X124911757Y-131985052D01*
X124969209Y-131927600D01*
X124911757Y-131870147D01*
X124911757Y-131985052D01*
X125313923Y-132272314D02*
X125773542Y-132272314D01*
X125486280Y-131870147D02*
X125486280Y-132904290D01*
X125543733Y-133019195D01*
X125658638Y-133076647D01*
X125773542Y-133076647D01*
X126175709Y-133076647D02*
X126175709Y-131870147D01*
X126692780Y-133076647D02*
X126692780Y-132444671D01*
X126635328Y-132329766D01*
X126520423Y-132272314D01*
X126348066Y-132272314D01*
X126233161Y-132329766D01*
X126175709Y-132387219D01*
X127784376Y-132272314D02*
X127784376Y-133076647D01*
X127267304Y-132272314D02*
X127267304Y-132904290D01*
X127324757Y-133019195D01*
X127439661Y-133076647D01*
X127612019Y-133076647D01*
X127726923Y-133019195D01*
X127784376Y-132961742D01*
X128358900Y-133076647D02*
X128358900Y-131870147D01*
X128358900Y-132329766D02*
X128473804Y-132272314D01*
X128703614Y-132272314D01*
X128818519Y-132329766D01*
X128875971Y-132387219D01*
X128933423Y-132502123D01*
X128933423Y-132846838D01*
X128875971Y-132961742D01*
X128818519Y-133019195D01*
X128703614Y-133076647D01*
X128473804Y-133076647D01*
X128358900Y-133019195D01*
X129450495Y-132961742D02*
X129507947Y-133019195D01*
X129450495Y-133076647D01*
X129393042Y-133019195D01*
X129450495Y-132961742D01*
X129450495Y-133076647D01*
X130542090Y-133019195D02*
X130427185Y-133076647D01*
X130197376Y-133076647D01*
X130082471Y-133019195D01*
X130025019Y-132961742D01*
X129967566Y-132846838D01*
X129967566Y-132502123D01*
X130025019Y-132387219D01*
X130082471Y-132329766D01*
X130197376Y-132272314D01*
X130427185Y-132272314D01*
X130542090Y-132329766D01*
X131231519Y-133076647D02*
X131116614Y-133019195D01*
X131059161Y-132961742D01*
X131001709Y-132846838D01*
X131001709Y-132502123D01*
X131059161Y-132387219D01*
X131116614Y-132329766D01*
X131231519Y-132272314D01*
X131403876Y-132272314D01*
X131518780Y-132329766D01*
X131576233Y-132387219D01*
X131633685Y-132502123D01*
X131633685Y-132846838D01*
X131576233Y-132961742D01*
X131518780Y-133019195D01*
X131403876Y-133076647D01*
X131231519Y-133076647D01*
X132150757Y-133076647D02*
X132150757Y-132272314D01*
X132150757Y-132387219D02*
X132208209Y-132329766D01*
X132323114Y-132272314D01*
X132495471Y-132272314D01*
X132610376Y-132329766D01*
X132667828Y-132444671D01*
X132667828Y-133076647D01*
X132667828Y-132444671D02*
X132725280Y-132329766D01*
X132840185Y-132272314D01*
X133012542Y-132272314D01*
X133127447Y-132329766D01*
X133184900Y-132444671D01*
X133184900Y-133076647D01*
X134621209Y-131812695D02*
X133587066Y-133363909D01*
X135540447Y-132272314D02*
X135540447Y-133249004D01*
X135482995Y-133363909D01*
X135425542Y-133421361D01*
X135310638Y-133478814D01*
X135138280Y-133478814D01*
X135023376Y-133421361D01*
X135540447Y-133019195D02*
X135425542Y-133076647D01*
X135195733Y-133076647D01*
X135080828Y-133019195D01*
X135023376Y-132961742D01*
X134965923Y-132846838D01*
X134965923Y-132502123D01*
X135023376Y-132387219D01*
X135080828Y-132329766D01*
X135195733Y-132272314D01*
X135425542Y-132272314D01*
X135540447Y-132329766D01*
X136287328Y-133076647D02*
X136172423Y-133019195D01*
X136114971Y-132961742D01*
X136057519Y-132846838D01*
X136057519Y-132502123D01*
X136114971Y-132387219D01*
X136172423Y-132329766D01*
X136287328Y-132272314D01*
X136459685Y-132272314D01*
X136574590Y-132329766D01*
X136632042Y-132387219D01*
X136689495Y-132502123D01*
X136689495Y-132846838D01*
X136632042Y-132961742D01*
X136574590Y-133019195D01*
X136459685Y-133076647D01*
X136287328Y-133076647D01*
X137378923Y-133076647D02*
X137264019Y-133019195D01*
X137206566Y-132961742D01*
X137149114Y-132846838D01*
X137149114Y-132502123D01*
X137206566Y-132387219D01*
X137264019Y-132329766D01*
X137378923Y-132272314D01*
X137551280Y-132272314D01*
X137666185Y-132329766D01*
X137723638Y-132387219D01*
X137781090Y-132502123D01*
X137781090Y-132846838D01*
X137723638Y-132961742D01*
X137666185Y-133019195D01*
X137551280Y-133076647D01*
X137378923Y-133076647D01*
X138815233Y-132272314D02*
X138815233Y-133249004D01*
X138757780Y-133363909D01*
X138700328Y-133421361D01*
X138585423Y-133478814D01*
X138413066Y-133478814D01*
X138298161Y-133421361D01*
X138815233Y-133019195D02*
X138700328Y-133076647D01*
X138470519Y-133076647D01*
X138355614Y-133019195D01*
X138298161Y-132961742D01*
X138240709Y-132846838D01*
X138240709Y-132502123D01*
X138298161Y-132387219D01*
X138355614Y-132329766D01*
X138470519Y-132272314D01*
X138700328Y-132272314D01*
X138815233Y-132329766D01*
X139562114Y-133076647D02*
X139447209Y-133019195D01*
X139389757Y-132904290D01*
X139389757Y-131870147D01*
X140481352Y-133019195D02*
X140366447Y-133076647D01*
X140136638Y-133076647D01*
X140021733Y-133019195D01*
X139964280Y-132904290D01*
X139964280Y-132444671D01*
X140021733Y-132329766D01*
X140136638Y-132272314D01*
X140366447Y-132272314D01*
X140481352Y-132329766D01*
X140538804Y-132444671D01*
X140538804Y-132559576D01*
X139964280Y-132674480D01*
X141917661Y-131812695D02*
X140883519Y-133363909D01*
X142319828Y-133076647D02*
X142319828Y-132272314D01*
X142319828Y-132387219D02*
X142377280Y-132329766D01*
X142492185Y-132272314D01*
X142664542Y-132272314D01*
X142779447Y-132329766D01*
X142836900Y-132444671D01*
X142836900Y-133076647D01*
X142836900Y-132444671D02*
X142894352Y-132329766D01*
X143009257Y-132272314D01*
X143181614Y-132272314D01*
X143296519Y-132329766D01*
X143353971Y-132444671D01*
X143353971Y-133076647D01*
X144445566Y-133076647D02*
X144445566Y-132444671D01*
X144388114Y-132329766D01*
X144273209Y-132272314D01*
X144043400Y-132272314D01*
X143928495Y-132329766D01*
X144445566Y-133019195D02*
X144330661Y-133076647D01*
X144043400Y-133076647D01*
X143928495Y-133019195D01*
X143871042Y-132904290D01*
X143871042Y-132789385D01*
X143928495Y-132674480D01*
X144043400Y-132617028D01*
X144330661Y-132617028D01*
X144445566Y-132559576D01*
X145020090Y-133076647D02*
X145020090Y-131870147D01*
X145134995Y-132617028D02*
X145479709Y-133076647D01*
X145479709Y-132272314D02*
X145020090Y-132731933D01*
X146456400Y-133019195D02*
X146341495Y-133076647D01*
X146111685Y-133076647D01*
X145996780Y-133019195D01*
X145939328Y-132904290D01*
X145939328Y-132444671D01*
X145996780Y-132329766D01*
X146111685Y-132272314D01*
X146341495Y-132272314D01*
X146456400Y-132329766D01*
X146513852Y-132444671D01*
X146513852Y-132559576D01*
X145939328Y-132674480D01*
X147030923Y-133076647D02*
X147030923Y-132272314D01*
X147030923Y-132502123D02*
X147088376Y-132387219D01*
X147145828Y-132329766D01*
X147260733Y-132272314D01*
X147375638Y-132272314D01*
X147720352Y-133019195D02*
X147835257Y-133076647D01*
X148065066Y-133076647D01*
X148179971Y-133019195D01*
X148237423Y-132904290D01*
X148237423Y-132846838D01*
X148179971Y-132731933D01*
X148065066Y-132674480D01*
X147892709Y-132674480D01*
X147777804Y-132617028D01*
X147720352Y-132502123D01*
X147720352Y-132444671D01*
X147777804Y-132329766D01*
X147892709Y-132272314D01*
X148065066Y-132272314D01*
X148179971Y-132329766D01*
X148754495Y-132272314D02*
X148754495Y-133478814D01*
X148754495Y-132329766D02*
X148869400Y-132272314D01*
X149099209Y-132272314D01*
X149214114Y-132329766D01*
X149271566Y-132387219D01*
X149329019Y-132502123D01*
X149329019Y-132846838D01*
X149271566Y-132961742D01*
X149214114Y-133019195D01*
X149099209Y-133076647D01*
X148869400Y-133076647D01*
X148754495Y-133019195D01*
X150363161Y-133076647D02*
X150363161Y-132444671D01*
X150305709Y-132329766D01*
X150190804Y-132272314D01*
X149960995Y-132272314D01*
X149846090Y-132329766D01*
X150363161Y-133019195D02*
X150248257Y-133076647D01*
X149960995Y-133076647D01*
X149846090Y-133019195D01*
X149788638Y-132904290D01*
X149788638Y-132789385D01*
X149846090Y-132674480D01*
X149960995Y-132617028D01*
X150248257Y-132617028D01*
X150363161Y-132559576D01*
X151454757Y-133019195D02*
X151339852Y-133076647D01*
X151110042Y-133076647D01*
X150995138Y-133019195D01*
X150937685Y-132961742D01*
X150880233Y-132846838D01*
X150880233Y-132502123D01*
X150937685Y-132387219D01*
X150995138Y-132329766D01*
X151110042Y-132272314D01*
X151339852Y-132272314D01*
X151454757Y-132329766D01*
X152431447Y-133019195D02*
X152316542Y-133076647D01*
X152086733Y-133076647D01*
X151971828Y-133019195D01*
X151914376Y-132904290D01*
X151914376Y-132444671D01*
X151971828Y-132329766D01*
X152086733Y-132272314D01*
X152316542Y-132272314D01*
X152431447Y-132329766D01*
X152488900Y-132444671D01*
X152488900Y-132559576D01*
X151914376Y-132674480D01*
X153005971Y-132617028D02*
X153925209Y-132617028D01*
X155016804Y-133076647D02*
X155016804Y-132444671D01*
X154959352Y-132329766D01*
X154844447Y-132272314D01*
X154614638Y-132272314D01*
X154499733Y-132329766D01*
X155016804Y-133019195D02*
X154901900Y-133076647D01*
X154614638Y-133076647D01*
X154499733Y-133019195D01*
X154442280Y-132904290D01*
X154442280Y-132789385D01*
X154499733Y-132674480D01*
X154614638Y-132617028D01*
X154901900Y-132617028D01*
X155016804Y-132559576D01*
X156108400Y-132272314D02*
X156108400Y-133076647D01*
X155591328Y-132272314D02*
X155591328Y-132904290D01*
X155648780Y-133019195D01*
X155763685Y-133076647D01*
X155936042Y-133076647D01*
X156050947Y-133019195D01*
X156108400Y-132961742D01*
X156510566Y-132272314D02*
X156970185Y-132272314D01*
X156682923Y-131870147D02*
X156682923Y-132904290D01*
X156740376Y-133019195D01*
X156855280Y-133076647D01*
X156970185Y-133076647D01*
X157372352Y-133076647D02*
X157372352Y-131870147D01*
X157889423Y-133076647D02*
X157889423Y-132444671D01*
X157831971Y-132329766D01*
X157717066Y-132272314D01*
X157544709Y-132272314D01*
X157429804Y-132329766D01*
X157372352Y-132387219D01*
X159325733Y-131812695D02*
X158291590Y-133363909D01*
X166827804Y-132272314D02*
X167287423Y-132272314D01*
X167000161Y-131870147D02*
X167000161Y-132904290D01*
X167057614Y-133019195D01*
X167172519Y-133076647D01*
X167287423Y-133076647D01*
X168206661Y-133076647D02*
X168206661Y-132444671D01*
X168149209Y-132329766D01*
X168034304Y-132272314D01*
X167804495Y-132272314D01*
X167689590Y-132329766D01*
X168206661Y-133019195D02*
X168091757Y-133076647D01*
X167804495Y-133076647D01*
X167689590Y-133019195D01*
X167632138Y-132904290D01*
X167632138Y-132789385D01*
X167689590Y-132674480D01*
X167804495Y-132617028D01*
X168091757Y-132617028D01*
X168206661Y-132559576D01*
X169298257Y-132272314D02*
X169298257Y-133249004D01*
X169240804Y-133363909D01*
X169183352Y-133421361D01*
X169068447Y-133478814D01*
X168896090Y-133478814D01*
X168781185Y-133421361D01*
X169298257Y-133019195D02*
X169183352Y-133076647D01*
X168953542Y-133076647D01*
X168838638Y-133019195D01*
X168781185Y-132961742D01*
X168723733Y-132846838D01*
X168723733Y-132502123D01*
X168781185Y-132387219D01*
X168838638Y-132329766D01*
X168953542Y-132272314D01*
X169183352Y-132272314D01*
X169298257Y-132329766D01*
X169872780Y-132961742D02*
X169930233Y-133019195D01*
X169872780Y-133076647D01*
X169815328Y-133019195D01*
X169872780Y-132961742D01*
X169872780Y-133076647D01*
X169872780Y-132329766D02*
X169930233Y-132387219D01*
X169872780Y-132444671D01*
X169815328Y-132387219D01*
X169872780Y-132329766D01*
X169872780Y-132444671D01*
X170332400Y-132272314D02*
X170619661Y-133076647D01*
X170906923Y-132272314D01*
X171998519Y-133076647D02*
X171309090Y-133076647D01*
X171653804Y-133076647D02*
X171653804Y-131870147D01*
X171538900Y-132042504D01*
X171423995Y-132157409D01*
X171309090Y-132214861D01*
X172515590Y-132961742D02*
X172573042Y-133019195D01*
X172515590Y-133076647D01*
X172458138Y-133019195D01*
X172515590Y-132961742D01*
X172515590Y-133076647D01*
X173722090Y-133076647D02*
X173032661Y-133076647D01*
X173377376Y-133076647D02*
X173377376Y-131870147D01*
X173262471Y-132042504D01*
X173147566Y-132157409D01*
X173032661Y-132214861D01*
X180746400Y-128816100D02*
G75*
G03X180746400Y-128816100I-2997200J0D01*
G01*
X122758200Y-128816100D02*
G75*
G03X122758200Y-128816100I-2997200J0D01*
G01*
X180746400Y-79794100D02*
G75*
G03X180746400Y-79794100I-2997200J0D01*
G01*
D13*
X149133922Y-103880557D02*
X149271808Y-103926519D01*
X149317770Y-103972480D01*
X149363732Y-104064404D01*
X149363732Y-104202290D01*
X149317770Y-104294214D01*
X149271808Y-104340176D01*
X149179884Y-104386138D01*
X148812189Y-104386138D01*
X148812189Y-103420938D01*
X149133922Y-103420938D01*
X149225846Y-103466900D01*
X149271808Y-103512861D01*
X149317770Y-103604785D01*
X149317770Y-103696709D01*
X149271808Y-103788633D01*
X149225846Y-103834595D01*
X149133922Y-103880557D01*
X148812189Y-103880557D01*
X149777389Y-104294214D02*
X149823351Y-104340176D01*
X149777389Y-104386138D01*
X149731427Y-104340176D01*
X149777389Y-104294214D01*
X149777389Y-104386138D01*
X149777389Y-103788633D02*
X149823351Y-103834595D01*
X149777389Y-103880557D01*
X149731427Y-103834595D01*
X149777389Y-103788633D01*
X149777389Y-103880557D01*
X150742589Y-104386138D02*
X150191046Y-104386138D01*
X150466818Y-104386138D02*
X150466818Y-103420938D01*
X150374894Y-103558823D01*
X150282970Y-103650747D01*
X150191046Y-103696709D01*
X151064322Y-103420938D02*
X151661827Y-103420938D01*
X151340094Y-103788633D01*
X151477980Y-103788633D01*
X151569903Y-103834595D01*
X151615865Y-103880557D01*
X151661827Y-103972480D01*
X151661827Y-104202290D01*
X151615865Y-104294214D01*
X151569903Y-104340176D01*
X151477980Y-104386138D01*
X151202208Y-104386138D01*
X151110284Y-104340176D01*
X151064322Y-104294214D01*
X152121446Y-104340176D02*
X152121446Y-104386138D01*
X152075484Y-104478061D01*
X152029522Y-104524023D01*
X152443180Y-103420938D02*
X153086646Y-103420938D01*
X152672989Y-104386138D01*
X154649351Y-104386138D02*
X154189732Y-104386138D01*
X154189732Y-103420938D01*
X154971084Y-104294214D02*
X155017046Y-104340176D01*
X154971084Y-104386138D01*
X154925122Y-104340176D01*
X154971084Y-104294214D01*
X154971084Y-104386138D01*
X154971084Y-103788633D02*
X155017046Y-103834595D01*
X154971084Y-103880557D01*
X154925122Y-103834595D01*
X154971084Y-103788633D01*
X154971084Y-103880557D01*
X155338780Y-103420938D02*
X155936284Y-103420938D01*
X155614551Y-103788633D01*
X155752437Y-103788633D01*
X155844360Y-103834595D01*
X155890322Y-103880557D01*
X155936284Y-103972480D01*
X155936284Y-104202290D01*
X155890322Y-104294214D01*
X155844360Y-104340176D01*
X155752437Y-104386138D01*
X155476665Y-104386138D01*
X155384741Y-104340176D01*
X155338780Y-104294214D01*
X156258018Y-103420938D02*
X156855522Y-103420938D01*
X156533789Y-103788633D01*
X156671675Y-103788633D01*
X156763599Y-103834595D01*
X156809560Y-103880557D01*
X156855522Y-103972480D01*
X156855522Y-104202290D01*
X156809560Y-104294214D01*
X156763599Y-104340176D01*
X156671675Y-104386138D01*
X156395903Y-104386138D01*
X156303980Y-104340176D01*
X156258018Y-104294214D01*
X152626422Y-112262557D02*
X152764308Y-112308519D01*
X152810270Y-112354480D01*
X152856232Y-112446404D01*
X152856232Y-112584290D01*
X152810270Y-112676214D01*
X152764308Y-112722176D01*
X152672384Y-112768138D01*
X152304689Y-112768138D01*
X152304689Y-111802938D01*
X152626422Y-111802938D01*
X152718346Y-111848900D01*
X152764308Y-111894861D01*
X152810270Y-111986785D01*
X152810270Y-112078709D01*
X152764308Y-112170633D01*
X152718346Y-112216595D01*
X152626422Y-112262557D01*
X152304689Y-112262557D01*
X153269889Y-112676214D02*
X153315851Y-112722176D01*
X153269889Y-112768138D01*
X153223927Y-112722176D01*
X153269889Y-112676214D01*
X153269889Y-112768138D01*
X153269889Y-112170633D02*
X153315851Y-112216595D01*
X153269889Y-112262557D01*
X153223927Y-112216595D01*
X153269889Y-112170633D01*
X153269889Y-112262557D01*
X154235089Y-112768138D02*
X153683546Y-112768138D01*
X153959318Y-112768138D02*
X153959318Y-111802938D01*
X153867394Y-111940823D01*
X153775470Y-112032747D01*
X153683546Y-112078709D01*
X155062403Y-111802938D02*
X154878556Y-111802938D01*
X154786632Y-111848900D01*
X154740670Y-111894861D01*
X154648746Y-112032747D01*
X154602784Y-112216595D01*
X154602784Y-112584290D01*
X154648746Y-112676214D01*
X154694708Y-112722176D01*
X154786632Y-112768138D01*
X154970480Y-112768138D01*
X155062403Y-112722176D01*
X155108365Y-112676214D01*
X155154327Y-112584290D01*
X155154327Y-112354480D01*
X155108365Y-112262557D01*
X155062403Y-112216595D01*
X154970480Y-112170633D01*
X154786632Y-112170633D01*
X154694708Y-112216595D01*
X154648746Y-112262557D01*
X154602784Y-112354480D01*
X156762994Y-112768138D02*
X156303375Y-112768138D01*
X156303375Y-111802938D01*
X157084727Y-112676214D02*
X157130689Y-112722176D01*
X157084727Y-112768138D01*
X157038765Y-112722176D01*
X157084727Y-112676214D01*
X157084727Y-112768138D01*
X157084727Y-112170633D02*
X157130689Y-112216595D01*
X157084727Y-112262557D01*
X157038765Y-112216595D01*
X157084727Y-112170633D01*
X157084727Y-112262557D01*
X157452422Y-111802938D02*
X158049927Y-111802938D01*
X157728194Y-112170633D01*
X157866080Y-112170633D01*
X157958003Y-112216595D01*
X158003965Y-112262557D01*
X158049927Y-112354480D01*
X158049927Y-112584290D01*
X158003965Y-112676214D01*
X157958003Y-112722176D01*
X157866080Y-112768138D01*
X157590308Y-112768138D01*
X157498384Y-112722176D01*
X157452422Y-112676214D01*
X158371660Y-111802938D02*
X159015127Y-111802938D01*
X158601470Y-112768138D01*
X137386422Y-112262557D02*
X137524308Y-112308519D01*
X137570270Y-112354480D01*
X137616232Y-112446404D01*
X137616232Y-112584290D01*
X137570270Y-112676214D01*
X137524308Y-112722176D01*
X137432384Y-112768138D01*
X137064689Y-112768138D01*
X137064689Y-111802938D01*
X137386422Y-111802938D01*
X137478346Y-111848900D01*
X137524308Y-111894861D01*
X137570270Y-111986785D01*
X137570270Y-112078709D01*
X137524308Y-112170633D01*
X137478346Y-112216595D01*
X137386422Y-112262557D01*
X137064689Y-112262557D01*
X138029889Y-112676214D02*
X138075851Y-112722176D01*
X138029889Y-112768138D01*
X137983927Y-112722176D01*
X138029889Y-112676214D01*
X138029889Y-112768138D01*
X138029889Y-112170633D02*
X138075851Y-112216595D01*
X138029889Y-112262557D01*
X137983927Y-112216595D01*
X138029889Y-112170633D01*
X138029889Y-112262557D01*
X138397584Y-111802938D02*
X138995089Y-111802938D01*
X138673356Y-112170633D01*
X138811241Y-112170633D01*
X138903165Y-112216595D01*
X138949127Y-112262557D01*
X138995089Y-112354480D01*
X138995089Y-112584290D01*
X138949127Y-112676214D01*
X138903165Y-112722176D01*
X138811241Y-112768138D01*
X138535470Y-112768138D01*
X138443546Y-112722176D01*
X138397584Y-112676214D01*
X139362784Y-111894861D02*
X139408746Y-111848900D01*
X139500670Y-111802938D01*
X139730480Y-111802938D01*
X139822403Y-111848900D01*
X139868365Y-111894861D01*
X139914327Y-111986785D01*
X139914327Y-112078709D01*
X139868365Y-112216595D01*
X139316822Y-112768138D01*
X139914327Y-112768138D01*
X141522994Y-112768138D02*
X141063375Y-112768138D01*
X141063375Y-111802938D01*
X141844727Y-112676214D02*
X141890689Y-112722176D01*
X141844727Y-112768138D01*
X141798765Y-112722176D01*
X141844727Y-112676214D01*
X141844727Y-112768138D01*
X141844727Y-112170633D02*
X141890689Y-112216595D01*
X141844727Y-112262557D01*
X141798765Y-112216595D01*
X141844727Y-112170633D01*
X141844727Y-112262557D01*
X142212422Y-111802938D02*
X142809927Y-111802938D01*
X142488194Y-112170633D01*
X142626080Y-112170633D01*
X142718003Y-112216595D01*
X142763965Y-112262557D01*
X142809927Y-112354480D01*
X142809927Y-112584290D01*
X142763965Y-112676214D01*
X142718003Y-112722176D01*
X142626080Y-112768138D01*
X142350308Y-112768138D01*
X142258384Y-112722176D01*
X142212422Y-112676214D01*
X143637241Y-111802938D02*
X143453394Y-111802938D01*
X143361470Y-111848900D01*
X143315508Y-111894861D01*
X143223584Y-112032747D01*
X143177622Y-112216595D01*
X143177622Y-112584290D01*
X143223584Y-112676214D01*
X143269546Y-112722176D01*
X143361470Y-112768138D01*
X143545318Y-112768138D01*
X143637241Y-112722176D01*
X143683203Y-112676214D01*
X143729165Y-112584290D01*
X143729165Y-112354480D01*
X143683203Y-112262557D01*
X143637241Y-112216595D01*
X143545318Y-112170633D01*
X143361470Y-112170633D01*
X143269546Y-112216595D01*
X143223584Y-112262557D01*
X143177622Y-112354480D01*
X167866422Y-112262557D02*
X168004308Y-112308519D01*
X168050270Y-112354480D01*
X168096232Y-112446404D01*
X168096232Y-112584290D01*
X168050270Y-112676214D01*
X168004308Y-112722176D01*
X167912384Y-112768138D01*
X167544689Y-112768138D01*
X167544689Y-111802938D01*
X167866422Y-111802938D01*
X167958346Y-111848900D01*
X168004308Y-111894861D01*
X168050270Y-111986785D01*
X168050270Y-112078709D01*
X168004308Y-112170633D01*
X167958346Y-112216595D01*
X167866422Y-112262557D01*
X167544689Y-112262557D01*
X168509889Y-112676214D02*
X168555851Y-112722176D01*
X168509889Y-112768138D01*
X168463927Y-112722176D01*
X168509889Y-112676214D01*
X168509889Y-112768138D01*
X168509889Y-112170633D02*
X168555851Y-112216595D01*
X168509889Y-112262557D01*
X168463927Y-112216595D01*
X168509889Y-112170633D01*
X168509889Y-112262557D01*
X169475089Y-112768138D02*
X168923546Y-112768138D01*
X169199318Y-112768138D02*
X169199318Y-111802938D01*
X169107394Y-111940823D01*
X169015470Y-112032747D01*
X168923546Y-112078709D01*
X170394327Y-112768138D02*
X169842784Y-112768138D01*
X170118556Y-112768138D02*
X170118556Y-111802938D01*
X170026632Y-111940823D01*
X169934708Y-112032747D01*
X169842784Y-112078709D01*
X172002994Y-112768138D02*
X171543375Y-112768138D01*
X171543375Y-111802938D01*
X172324727Y-112676214D02*
X172370689Y-112722176D01*
X172324727Y-112768138D01*
X172278765Y-112722176D01*
X172324727Y-112676214D01*
X172324727Y-112768138D01*
X172324727Y-112170633D02*
X172370689Y-112216595D01*
X172324727Y-112262557D01*
X172278765Y-112216595D01*
X172324727Y-112170633D01*
X172324727Y-112262557D01*
X172692422Y-111802938D02*
X173289927Y-111802938D01*
X172968194Y-112170633D01*
X173106080Y-112170633D01*
X173198003Y-112216595D01*
X173243965Y-112262557D01*
X173289927Y-112354480D01*
X173289927Y-112584290D01*
X173243965Y-112676214D01*
X173198003Y-112722176D01*
X173106080Y-112768138D01*
X172830308Y-112768138D01*
X172738384Y-112722176D01*
X172692422Y-112676214D01*
X173841470Y-112216595D02*
X173749546Y-112170633D01*
X173703584Y-112124671D01*
X173657622Y-112032747D01*
X173657622Y-111986785D01*
X173703584Y-111894861D01*
X173749546Y-111848900D01*
X173841470Y-111802938D01*
X174025318Y-111802938D01*
X174117241Y-111848900D01*
X174163203Y-111894861D01*
X174209165Y-111986785D01*
X174209165Y-112032747D01*
X174163203Y-112124671D01*
X174117241Y-112170633D01*
X174025318Y-112216595D01*
X173841470Y-112216595D01*
X173749546Y-112262557D01*
X173703584Y-112308519D01*
X173657622Y-112400442D01*
X173657622Y-112584290D01*
X173703584Y-112676214D01*
X173749546Y-112722176D01*
X173841470Y-112768138D01*
X174025318Y-112768138D01*
X174117241Y-112722176D01*
X174163203Y-112676214D01*
X174209165Y-112584290D01*
X174209165Y-112400442D01*
X174163203Y-112308519D01*
X174117241Y-112262557D01*
X174025318Y-112216595D01*
D14*
X122813354Y-109189761D02*
X122215849Y-109189761D01*
X122537582Y-108822066D01*
X122399697Y-108822066D01*
X122307773Y-108776104D01*
X122261811Y-108730142D01*
X122215849Y-108638219D01*
X122215849Y-108408409D01*
X122261811Y-108316485D01*
X122307773Y-108270523D01*
X122399697Y-108224561D01*
X122675468Y-108224561D01*
X122767392Y-108270523D01*
X122813354Y-108316485D01*
X131105849Y-108224561D02*
X131657392Y-108224561D01*
X131381620Y-108224561D02*
X131381620Y-109189761D01*
X131473544Y-109051876D01*
X131565468Y-108959952D01*
X131657392Y-108913990D01*
D15*
X160578800Y-80302100D02*
G75*
G02X160578800Y-78270100I-1016000J1016000D01*
G01*
X159562800Y-79286100D02*
X162102800Y-79286100D01*
D16*
X159943800Y-79286100D02*
G75*
G03X159943800Y-79286100I-381000J0D01*
G01*
D11*
X163372800Y-78651100D02*
X163372800Y-79921100D01*
X162737800Y-79286100D02*
X164007800Y-79286100D01*
D15*
X164642800Y-79286100D02*
G75*
G03X164642800Y-79286100I-1270000J0D01*
G01*
X156070300Y-79286100D02*
G75*
G03X156070300Y-79286100I-1270000J0D01*
G01*
X157975300Y-79286100D02*
X156070300Y-79286100D01*
D11*
X154165300Y-79286100D02*
X155435300Y-79286100D01*
D13*
X158452820Y-82034138D02*
X157901277Y-82034138D01*
X158177048Y-82034138D02*
X158177048Y-81068938D01*
X158085124Y-81206823D01*
X157993200Y-81298747D01*
X157901277Y-81344709D01*
X158820515Y-81160861D02*
X158866477Y-81114900D01*
X158958400Y-81068938D01*
X159188210Y-81068938D01*
X159280134Y-81114900D01*
X159326096Y-81160861D01*
X159372058Y-81252785D01*
X159372058Y-81344709D01*
X159326096Y-81482595D01*
X158774553Y-82034138D01*
X159372058Y-82034138D01*
X159647829Y-81068938D02*
X159969562Y-82034138D01*
X160291296Y-81068938D01*
X152891429Y-82719938D02*
X152431810Y-82719938D01*
X152385848Y-83179557D01*
X152431810Y-83133595D01*
X152523734Y-83087633D01*
X152753543Y-83087633D01*
X152845467Y-83133595D01*
X152891429Y-83179557D01*
X152937391Y-83271480D01*
X152937391Y-83501290D01*
X152891429Y-83593214D01*
X152845467Y-83639176D01*
X152753543Y-83685138D01*
X152523734Y-83685138D01*
X152431810Y-83639176D01*
X152385848Y-83593214D01*
X153351048Y-83593214D02*
X153397010Y-83639176D01*
X153351048Y-83685138D01*
X153305086Y-83639176D01*
X153351048Y-83593214D01*
X153351048Y-83685138D01*
X154270286Y-82719938D02*
X153810667Y-82719938D01*
X153764705Y-83179557D01*
X153810667Y-83133595D01*
X153902591Y-83087633D01*
X154132400Y-83087633D01*
X154224324Y-83133595D01*
X154270286Y-83179557D01*
X154316248Y-83271480D01*
X154316248Y-83501290D01*
X154270286Y-83593214D01*
X154224324Y-83639176D01*
X154132400Y-83685138D01*
X153902591Y-83685138D01*
X153810667Y-83639176D01*
X153764705Y-83593214D01*
X155419334Y-82673976D02*
X154592020Y-83914947D01*
X155695105Y-82811861D02*
X155741067Y-82765900D01*
X155832991Y-82719938D01*
X156062800Y-82719938D01*
X156154724Y-82765900D01*
X156200686Y-82811861D01*
X156246648Y-82903785D01*
X156246648Y-82995709D01*
X156200686Y-83133595D01*
X155649143Y-83685138D01*
X156246648Y-83685138D01*
X156660305Y-83593214D02*
X156706267Y-83639176D01*
X156660305Y-83685138D01*
X156614343Y-83639176D01*
X156660305Y-83593214D01*
X156660305Y-83685138D01*
X157625505Y-83685138D02*
X157073962Y-83685138D01*
X157349734Y-83685138D02*
X157349734Y-82719938D01*
X157257810Y-82857823D01*
X157165886Y-82949747D01*
X157073962Y-82995709D01*
X158039162Y-83685138D02*
X158039162Y-83041671D01*
X158039162Y-83133595D02*
X158085124Y-83087633D01*
X158177048Y-83041671D01*
X158314934Y-83041671D01*
X158406858Y-83087633D01*
X158452820Y-83179557D01*
X158452820Y-83685138D01*
X158452820Y-83179557D02*
X158498781Y-83087633D01*
X158590705Y-83041671D01*
X158728591Y-83041671D01*
X158820515Y-83087633D01*
X158866477Y-83179557D01*
X158866477Y-83685138D01*
X159326096Y-83685138D02*
X159326096Y-83041671D01*
X159326096Y-83133595D02*
X159372058Y-83087633D01*
X159463981Y-83041671D01*
X159601867Y-83041671D01*
X159693791Y-83087633D01*
X159739753Y-83179557D01*
X159739753Y-83685138D01*
X159739753Y-83179557D02*
X159785715Y-83087633D01*
X159877639Y-83041671D01*
X160015524Y-83041671D01*
X160107448Y-83087633D01*
X160153410Y-83179557D01*
X160153410Y-83685138D01*
X139604689Y-83317442D02*
X140340080Y-83317442D01*
X139972384Y-83685138D02*
X139972384Y-82949747D01*
X141305280Y-83685138D02*
X140753737Y-83685138D01*
X141029508Y-83685138D02*
X141029508Y-82719938D01*
X140937584Y-82857823D01*
X140845660Y-82949747D01*
X140753737Y-82995709D01*
X141672975Y-82811861D02*
X141718937Y-82765900D01*
X141810860Y-82719938D01*
X142040670Y-82719938D01*
X142132594Y-82765900D01*
X142178556Y-82811861D01*
X142224518Y-82903785D01*
X142224518Y-82995709D01*
X142178556Y-83133595D01*
X141627013Y-83685138D01*
X142224518Y-83685138D01*
X167866422Y-103880557D02*
X168004308Y-103926519D01*
X168050270Y-103972480D01*
X168096232Y-104064404D01*
X168096232Y-104202290D01*
X168050270Y-104294214D01*
X168004308Y-104340176D01*
X167912384Y-104386138D01*
X167544689Y-104386138D01*
X167544689Y-103420938D01*
X167866422Y-103420938D01*
X167958346Y-103466900D01*
X168004308Y-103512861D01*
X168050270Y-103604785D01*
X168050270Y-103696709D01*
X168004308Y-103788633D01*
X167958346Y-103834595D01*
X167866422Y-103880557D01*
X167544689Y-103880557D01*
X168509889Y-104294214D02*
X168555851Y-104340176D01*
X168509889Y-104386138D01*
X168463927Y-104340176D01*
X168509889Y-104294214D01*
X168509889Y-104386138D01*
X168509889Y-103788633D02*
X168555851Y-103834595D01*
X168509889Y-103880557D01*
X168463927Y-103834595D01*
X168509889Y-103788633D01*
X168509889Y-103880557D01*
X169475089Y-104386138D02*
X168923546Y-104386138D01*
X169199318Y-104386138D02*
X169199318Y-103420938D01*
X169107394Y-103558823D01*
X169015470Y-103650747D01*
X168923546Y-103696709D01*
X169842784Y-103512861D02*
X169888746Y-103466900D01*
X169980670Y-103420938D01*
X170210480Y-103420938D01*
X170302403Y-103466900D01*
X170348365Y-103512861D01*
X170394327Y-103604785D01*
X170394327Y-103696709D01*
X170348365Y-103834595D01*
X169796822Y-104386138D01*
X170394327Y-104386138D01*
X172002994Y-104386138D02*
X171543375Y-104386138D01*
X171543375Y-103420938D01*
X172324727Y-104294214D02*
X172370689Y-104340176D01*
X172324727Y-104386138D01*
X172278765Y-104340176D01*
X172324727Y-104294214D01*
X172324727Y-104386138D01*
X172324727Y-103788633D02*
X172370689Y-103834595D01*
X172324727Y-103880557D01*
X172278765Y-103834595D01*
X172324727Y-103788633D01*
X172324727Y-103880557D01*
X172692422Y-103420938D02*
X173289927Y-103420938D01*
X172968194Y-103788633D01*
X173106080Y-103788633D01*
X173198003Y-103834595D01*
X173243965Y-103880557D01*
X173289927Y-103972480D01*
X173289927Y-104202290D01*
X173243965Y-104294214D01*
X173198003Y-104340176D01*
X173106080Y-104386138D01*
X172830308Y-104386138D01*
X172738384Y-104340176D01*
X172692422Y-104294214D01*
X174163203Y-103420938D02*
X173703584Y-103420938D01*
X173657622Y-103880557D01*
X173703584Y-103834595D01*
X173795508Y-103788633D01*
X174025318Y-103788633D01*
X174117241Y-103834595D01*
X174163203Y-103880557D01*
X174209165Y-103972480D01*
X174209165Y-104202290D01*
X174163203Y-104294214D01*
X174117241Y-104340176D01*
X174025318Y-104386138D01*
X173795508Y-104386138D01*
X173703584Y-104340176D01*
X173657622Y-104294214D01*
X144007960Y-84006871D02*
X143778151Y-84006871D01*
X143778151Y-82628014D01*
X144007960Y-82628014D01*
X144927199Y-83685138D02*
X144605465Y-83225519D01*
X144375656Y-83685138D02*
X144375656Y-82719938D01*
X144743351Y-82719938D01*
X144835275Y-82765900D01*
X144881237Y-82811861D01*
X144927199Y-82903785D01*
X144927199Y-83041671D01*
X144881237Y-83133595D01*
X144835275Y-83179557D01*
X144743351Y-83225519D01*
X144375656Y-83225519D01*
X146581827Y-82765900D02*
X146489903Y-82719938D01*
X146352018Y-82719938D01*
X146214132Y-82765900D01*
X146122208Y-82857823D01*
X146076246Y-82949747D01*
X146030284Y-83133595D01*
X146030284Y-83271480D01*
X146076246Y-83455328D01*
X146122208Y-83547252D01*
X146214132Y-83639176D01*
X146352018Y-83685138D01*
X146443941Y-83685138D01*
X146581827Y-83639176D01*
X146627789Y-83593214D01*
X146627789Y-83271480D01*
X146443941Y-83271480D01*
X148098570Y-83179557D02*
X148236456Y-83225519D01*
X148282418Y-83271480D01*
X148328380Y-83363404D01*
X148328380Y-83501290D01*
X148282418Y-83593214D01*
X148236456Y-83639176D01*
X148144532Y-83685138D01*
X147776837Y-83685138D01*
X147776837Y-82719938D01*
X148098570Y-82719938D01*
X148190494Y-82765900D01*
X148236456Y-82811861D01*
X148282418Y-82903785D01*
X148282418Y-82995709D01*
X148236456Y-83087633D01*
X148190494Y-83133595D01*
X148098570Y-83179557D01*
X147776837Y-83179557D01*
X148650113Y-84006871D02*
X148879922Y-84006871D01*
X148879922Y-82628014D01*
X148650113Y-82628014D01*
X142737960Y-85276871D02*
X142508151Y-85276871D01*
X142508151Y-83898014D01*
X142737960Y-83898014D01*
X143611237Y-84955138D02*
X143059694Y-84955138D01*
X143335465Y-84955138D02*
X143335465Y-83989938D01*
X143243541Y-84127823D01*
X143151618Y-84219747D01*
X143059694Y-84265709D01*
X144484513Y-83989938D02*
X144024894Y-83989938D01*
X143978932Y-84449557D01*
X144024894Y-84403595D01*
X144116818Y-84357633D01*
X144346627Y-84357633D01*
X144438551Y-84403595D01*
X144484513Y-84449557D01*
X144530475Y-84541480D01*
X144530475Y-84771290D01*
X144484513Y-84863214D01*
X144438551Y-84909176D01*
X144346627Y-84955138D01*
X144116818Y-84955138D01*
X144024894Y-84909176D01*
X143978932Y-84863214D01*
X145633560Y-84081861D02*
X145679522Y-84035900D01*
X145771446Y-83989938D01*
X146001256Y-83989938D01*
X146093180Y-84035900D01*
X146139141Y-84081861D01*
X146185103Y-84173785D01*
X146185103Y-84265709D01*
X146139141Y-84403595D01*
X145587599Y-84955138D01*
X146185103Y-84955138D01*
X146552799Y-84081861D02*
X146598760Y-84035900D01*
X146690684Y-83989938D01*
X146920494Y-83989938D01*
X147012418Y-84035900D01*
X147058380Y-84081861D01*
X147104341Y-84173785D01*
X147104341Y-84265709D01*
X147058380Y-84403595D01*
X146506837Y-84955138D01*
X147104341Y-84955138D01*
X148758970Y-84955138D02*
X148207427Y-84955138D01*
X148483199Y-84955138D02*
X148483199Y-83989938D01*
X148391275Y-84127823D01*
X148299351Y-84219747D01*
X148207427Y-84265709D01*
X149310513Y-84403595D02*
X149218589Y-84357633D01*
X149172627Y-84311671D01*
X149126665Y-84219747D01*
X149126665Y-84173785D01*
X149172627Y-84081861D01*
X149218589Y-84035900D01*
X149310513Y-83989938D01*
X149494360Y-83989938D01*
X149586284Y-84035900D01*
X149632246Y-84081861D01*
X149678208Y-84173785D01*
X149678208Y-84219747D01*
X149632246Y-84311671D01*
X149586284Y-84357633D01*
X149494360Y-84403595D01*
X149310513Y-84403595D01*
X149218589Y-84449557D01*
X149172627Y-84495519D01*
X149126665Y-84587442D01*
X149126665Y-84771290D01*
X149172627Y-84863214D01*
X149218589Y-84909176D01*
X149310513Y-84955138D01*
X149494360Y-84955138D01*
X149586284Y-84909176D01*
X149632246Y-84863214D01*
X149678208Y-84771290D01*
X149678208Y-84587442D01*
X149632246Y-84495519D01*
X149586284Y-84449557D01*
X149494360Y-84403595D01*
X149999941Y-85276871D02*
X150229751Y-85276871D01*
X150229751Y-83898014D01*
X149999941Y-83898014D01*
X128091232Y-104386138D02*
X127769499Y-103926519D01*
X127539689Y-104386138D02*
X127539689Y-103420938D01*
X127907384Y-103420938D01*
X127999308Y-103466900D01*
X128045270Y-103512861D01*
X128091232Y-103604785D01*
X128091232Y-103742671D01*
X128045270Y-103834595D01*
X127999308Y-103880557D01*
X127907384Y-103926519D01*
X127539689Y-103926519D01*
X128504889Y-104294214D02*
X128550851Y-104340176D01*
X128504889Y-104386138D01*
X128458927Y-104340176D01*
X128504889Y-104294214D01*
X128504889Y-104386138D01*
X128504889Y-103788633D02*
X128550851Y-103834595D01*
X128504889Y-103880557D01*
X128458927Y-103834595D01*
X128504889Y-103788633D01*
X128504889Y-103880557D01*
X129378165Y-103742671D02*
X129378165Y-104386138D01*
X129148356Y-103374976D02*
X128918546Y-104064404D01*
X129516051Y-104064404D01*
X130067594Y-103420938D02*
X130159518Y-103420938D01*
X130251441Y-103466900D01*
X130297403Y-103512861D01*
X130343365Y-103604785D01*
X130389327Y-103788633D01*
X130389327Y-104018442D01*
X130343365Y-104202290D01*
X130297403Y-104294214D01*
X130251441Y-104340176D01*
X130159518Y-104386138D01*
X130067594Y-104386138D01*
X129975670Y-104340176D01*
X129929708Y-104294214D01*
X129883746Y-104202290D01*
X129837784Y-104018442D01*
X129837784Y-103788633D01*
X129883746Y-103604785D01*
X129929708Y-103512861D01*
X129975670Y-103466900D01*
X130067594Y-103420938D01*
D17*
X178245128Y-103039938D02*
X178245128Y-103729366D01*
X178199167Y-103867252D01*
X178107243Y-103959176D01*
X177969357Y-104005138D01*
X177877433Y-104005138D01*
X179210328Y-104005138D02*
X178658786Y-104005138D01*
X178934557Y-104005138D02*
X178934557Y-103039938D01*
X178842633Y-103177823D01*
X178750709Y-103269747D01*
X178658786Y-103315709D01*
X180129567Y-104005138D02*
X179578024Y-104005138D01*
X179853795Y-104005138D02*
X179853795Y-103039938D01*
X179761871Y-103177823D01*
X179669948Y-103269747D01*
X179578024Y-103315709D01*
D13*
X143331232Y-100893638D02*
X143009499Y-100434019D01*
X142779689Y-100893638D02*
X142779689Y-99928438D01*
X143147384Y-99928438D01*
X143239308Y-99974400D01*
X143285270Y-100020361D01*
X143331232Y-100112285D01*
X143331232Y-100250171D01*
X143285270Y-100342095D01*
X143239308Y-100388057D01*
X143147384Y-100434019D01*
X142779689Y-100434019D01*
X143744889Y-100801714D02*
X143790851Y-100847676D01*
X143744889Y-100893638D01*
X143698927Y-100847676D01*
X143744889Y-100801714D01*
X143744889Y-100893638D01*
X143744889Y-100296133D02*
X143790851Y-100342095D01*
X143744889Y-100388057D01*
X143698927Y-100342095D01*
X143744889Y-100296133D01*
X143744889Y-100388057D01*
X144158546Y-100020361D02*
X144204508Y-99974400D01*
X144296432Y-99928438D01*
X144526241Y-99928438D01*
X144618165Y-99974400D01*
X144664127Y-100020361D01*
X144710089Y-100112285D01*
X144710089Y-100204209D01*
X144664127Y-100342095D01*
X144112584Y-100893638D01*
X144710089Y-100893638D01*
X145169708Y-100893638D02*
X145353556Y-100893638D01*
X145445480Y-100847676D01*
X145491441Y-100801714D01*
X145583365Y-100663828D01*
X145629327Y-100479980D01*
X145629327Y-100112285D01*
X145583365Y-100020361D01*
X145537403Y-99974400D01*
X145445480Y-99928438D01*
X145261632Y-99928438D01*
X145169708Y-99974400D01*
X145123746Y-100020361D01*
X145077784Y-100112285D01*
X145077784Y-100342095D01*
X145123746Y-100434019D01*
X145169708Y-100479980D01*
X145261632Y-100525942D01*
X145445480Y-100525942D01*
X145537403Y-100479980D01*
X145583365Y-100434019D01*
X145629327Y-100342095D01*
X143331232Y-93273638D02*
X143009499Y-92814019D01*
X142779689Y-93273638D02*
X142779689Y-92308438D01*
X143147384Y-92308438D01*
X143239308Y-92354400D01*
X143285270Y-92400361D01*
X143331232Y-92492285D01*
X143331232Y-92630171D01*
X143285270Y-92722095D01*
X143239308Y-92768057D01*
X143147384Y-92814019D01*
X142779689Y-92814019D01*
X143744889Y-93181714D02*
X143790851Y-93227676D01*
X143744889Y-93273638D01*
X143698927Y-93227676D01*
X143744889Y-93181714D01*
X143744889Y-93273638D01*
X143744889Y-92676133D02*
X143790851Y-92722095D01*
X143744889Y-92768057D01*
X143698927Y-92722095D01*
X143744889Y-92676133D01*
X143744889Y-92768057D01*
X144112584Y-92308438D02*
X144710089Y-92308438D01*
X144388356Y-92676133D01*
X144526241Y-92676133D01*
X144618165Y-92722095D01*
X144664127Y-92768057D01*
X144710089Y-92859980D01*
X144710089Y-93089790D01*
X144664127Y-93181714D01*
X144618165Y-93227676D01*
X144526241Y-93273638D01*
X144250470Y-93273638D01*
X144158546Y-93227676D01*
X144112584Y-93181714D01*
X145629327Y-93273638D02*
X145077784Y-93273638D01*
X145353556Y-93273638D02*
X145353556Y-92308438D01*
X145261632Y-92446323D01*
X145169708Y-92538247D01*
X145077784Y-92584209D01*
D12*
X137259664Y-108537828D02*
X137167740Y-108629752D01*
X136891969Y-108721676D01*
X136708121Y-108721676D01*
X136432350Y-108629752D01*
X136248502Y-108445904D01*
X136156579Y-108262057D01*
X136064655Y-107894361D01*
X136064655Y-107618590D01*
X136156579Y-107250895D01*
X136248502Y-107067047D01*
X136432350Y-106883200D01*
X136708121Y-106791276D01*
X136891969Y-106791276D01*
X137167740Y-106883200D01*
X137259664Y-106975123D01*
X139190064Y-108537828D02*
X139098140Y-108629752D01*
X138822369Y-108721676D01*
X138638521Y-108721676D01*
X138362750Y-108629752D01*
X138178902Y-108445904D01*
X138086979Y-108262057D01*
X137995055Y-107894361D01*
X137995055Y-107618590D01*
X138086979Y-107250895D01*
X138178902Y-107067047D01*
X138362750Y-106883200D01*
X138638521Y-106791276D01*
X138822369Y-106791276D01*
X139098140Y-106883200D01*
X139190064Y-106975123D01*
X140017379Y-107986285D02*
X141488160Y-107986285D01*
X143050864Y-107710514D02*
X143326636Y-107802438D01*
X143418560Y-107894361D01*
X143510483Y-108078209D01*
X143510483Y-108353980D01*
X143418560Y-108537828D01*
X143326636Y-108629752D01*
X143142788Y-108721676D01*
X142407398Y-108721676D01*
X142407398Y-106791276D01*
X143050864Y-106791276D01*
X143234712Y-106883200D01*
X143326636Y-106975123D01*
X143418560Y-107158971D01*
X143418560Y-107342819D01*
X143326636Y-107526666D01*
X143234712Y-107618590D01*
X143050864Y-107710514D01*
X142407398Y-107710514D01*
X144705493Y-107802438D02*
X144705493Y-108721676D01*
X144062026Y-106791276D02*
X144705493Y-107802438D01*
X145348960Y-106791276D01*
D18*
X158927800Y-104051100D02*
X158927800Y-110718600D01*
X161865952Y-100584449D02*
X162083887Y-100578494D01*
X162407813Y-100460595D01*
X162513803Y-100348650D01*
X162555008Y-100260285D01*
X162572634Y-100107135D01*
X162525474Y-99977565D01*
X162413529Y-99871575D01*
X162325164Y-99830370D01*
X162172014Y-99812744D01*
X161889294Y-99842279D01*
X161736144Y-99824653D01*
X161647779Y-99783448D01*
X161535834Y-99677458D01*
X161488675Y-99547887D01*
X161506300Y-99394737D01*
X161547505Y-99306372D01*
X161653496Y-99194428D01*
X161977421Y-99076528D01*
X162195356Y-99070574D01*
X163744720Y-99900633D02*
X163638729Y-100012578D01*
X163379589Y-100106898D01*
X163226439Y-100089272D01*
X163114494Y-99983282D01*
X162925856Y-99465001D01*
X162943481Y-99311851D01*
X163049471Y-99199906D01*
X163308612Y-99105587D01*
X163461762Y-99123212D01*
X163573706Y-99229203D01*
X163620866Y-99358773D01*
X163020175Y-99724141D01*
X163891677Y-98893368D02*
X164409958Y-98704729D01*
X163920974Y-98369133D02*
X164345411Y-99535265D01*
X164457356Y-99641255D01*
X164610506Y-99658880D01*
X164740076Y-99611721D01*
X165705660Y-98233133D02*
X166223941Y-98044494D01*
X165734956Y-97708897D02*
X166159394Y-98875029D01*
X166271338Y-98981019D01*
X166424489Y-98998645D01*
X166554059Y-98951485D01*
X167201910Y-98715687D02*
X167048760Y-98698061D01*
X166960395Y-98656856D01*
X166848450Y-98550866D01*
X166706971Y-98162155D01*
X166724596Y-98009005D01*
X166765801Y-97920640D01*
X166871792Y-97808695D01*
X167066147Y-97737956D01*
X167219297Y-97755581D01*
X167307662Y-97796786D01*
X167419607Y-97902777D01*
X167561086Y-98291487D01*
X167543461Y-98444637D01*
X167502255Y-98533002D01*
X167396265Y-98644947D01*
X167201910Y-98715687D01*
X169427707Y-96364846D02*
X168779856Y-96600645D01*
X168950869Y-97272075D01*
X168992075Y-97183710D01*
X169098065Y-97071766D01*
X169421990Y-96953866D01*
X169575140Y-96971492D01*
X169663505Y-97012697D01*
X169775450Y-97118687D01*
X169893349Y-97442613D01*
X169875724Y-97595763D01*
X169834519Y-97684128D01*
X169728528Y-97796073D01*
X169404603Y-97913972D01*
X169251453Y-97896346D01*
X169163088Y-97855141D01*
X169881202Y-96199787D02*
X170829875Y-97395215D01*
X170788194Y-95869669D01*
X171689707Y-96935527D02*
X171778071Y-96976732D01*
X171736866Y-97065097D01*
X171648501Y-97023892D01*
X171689707Y-96935527D01*
X171736866Y-97065097D01*
X171548227Y-96546817D02*
X171200484Y-95792975D01*
X171241689Y-95704610D01*
X171330054Y-95745816D01*
X171548227Y-96546817D01*
X171241689Y-95704610D01*
D14*
X123367800Y-130721100D02*
X123367800Y-126911100D01*
X125907800Y-126911100D02*
X125272800Y-126276100D01*
X124002800Y-126276100D02*
X125272800Y-126276100D01*
X123367800Y-126911100D02*
X124002800Y-126276100D01*
X124002800Y-131356100D02*
X123367800Y-130721100D01*
X124002800Y-131356100D02*
X125272800Y-131356100D01*
X125907800Y-130721100D02*
X125272800Y-131356100D01*
X125907800Y-130721100D02*
X125907800Y-126911100D01*
X128447800Y-130721100D02*
X128447800Y-126911100D01*
X130987800Y-130721100D02*
X130987800Y-126911100D01*
X133527800Y-130721100D02*
X133527800Y-126911100D01*
X136067800Y-130721100D02*
X136067800Y-126911100D01*
X138607800Y-130721100D02*
X138607800Y-126911100D01*
X141147800Y-130721100D02*
X141147800Y-126911100D01*
X143687800Y-130721100D02*
X143687800Y-126911100D01*
X146227800Y-130721100D02*
X146227800Y-126911100D01*
X148767800Y-130721100D02*
X148767800Y-126911100D01*
X151307800Y-130721100D02*
X151307800Y-126911100D01*
X153847800Y-130721100D02*
X153847800Y-126911100D01*
X156387800Y-130721100D02*
X156387800Y-126911100D01*
X158927800Y-130721100D02*
X158927800Y-126911100D01*
X161467800Y-130721100D02*
X161467800Y-126911100D01*
X164007800Y-130721100D02*
X164007800Y-126911100D01*
X166547800Y-130721100D02*
X166547800Y-126911100D01*
X169087800Y-130721100D02*
X169087800Y-126911100D01*
X171627800Y-130721100D02*
X171627800Y-126911100D01*
X158927800Y-126911100D02*
X158292800Y-126276100D01*
X157022800Y-126276100D02*
X158292800Y-126276100D01*
X156387800Y-126911100D02*
X157022800Y-126276100D01*
X156387800Y-126911100D02*
X155752800Y-126276100D01*
X154482800Y-126276100D02*
X155752800Y-126276100D01*
X153847800Y-126911100D02*
X154482800Y-126276100D01*
X153847800Y-126911100D02*
X153212800Y-126276100D01*
X151942800Y-126276100D02*
X153212800Y-126276100D01*
X151307800Y-126911100D02*
X151942800Y-126276100D01*
X151307800Y-126911100D02*
X150672800Y-126276100D01*
X149402800Y-126276100D02*
X150672800Y-126276100D01*
X148767800Y-126911100D02*
X149402800Y-126276100D01*
X148767800Y-126911100D02*
X148132800Y-126276100D01*
X146862800Y-126276100D02*
X148132800Y-126276100D01*
X146227800Y-126911100D02*
X146862800Y-126276100D01*
X146227800Y-126911100D02*
X145592800Y-126276100D01*
X144322800Y-126276100D02*
X145592800Y-126276100D01*
X143687800Y-126911100D02*
X144322800Y-126276100D01*
X143687800Y-126911100D02*
X143052800Y-126276100D01*
X141782800Y-126276100D02*
X143052800Y-126276100D01*
X141147800Y-126911100D02*
X141782800Y-126276100D01*
X141147800Y-126911100D02*
X140512800Y-126276100D01*
X139242800Y-126276100D02*
X140512800Y-126276100D01*
X138607800Y-126911100D02*
X139242800Y-126276100D01*
X137972800Y-126276100D02*
X138607800Y-126911100D01*
X137972800Y-126276100D02*
X136702800Y-126276100D01*
X136067800Y-126911100D02*
X136702800Y-126276100D01*
X135432800Y-126276100D02*
X136067800Y-126911100D01*
X135432800Y-126276100D02*
X134162800Y-126276100D01*
X133527800Y-126911100D02*
X134162800Y-126276100D01*
X133527800Y-126911100D02*
X132892800Y-126276100D01*
X131622800Y-126276100D02*
X132892800Y-126276100D01*
X130987800Y-126911100D02*
X131622800Y-126276100D01*
X130987800Y-126911100D02*
X130352800Y-126276100D01*
X129082800Y-126276100D02*
X130352800Y-126276100D01*
X128447800Y-126911100D02*
X129082800Y-126276100D01*
X128447800Y-126911100D02*
X127812800Y-126276100D01*
X126542800Y-126276100D02*
X127812800Y-126276100D01*
X125907800Y-126911100D02*
X126542800Y-126276100D01*
X126542800Y-131356100D02*
X125907800Y-130721100D01*
X126542800Y-131356100D02*
X127812800Y-131356100D01*
X128447800Y-130721100D02*
X127812800Y-131356100D01*
X129082800Y-131356100D02*
X128447800Y-130721100D01*
X129082800Y-131356100D02*
X130352800Y-131356100D01*
X130987800Y-130721100D02*
X130352800Y-131356100D01*
X131622800Y-131356100D02*
X130987800Y-130721100D01*
X131622800Y-131356100D02*
X132892800Y-131356100D01*
X133527800Y-130721100D02*
X132892800Y-131356100D01*
X134162800Y-131356100D02*
X133527800Y-130721100D01*
X134162800Y-131356100D02*
X135432800Y-131356100D01*
X136067800Y-130721100D02*
X135432800Y-131356100D01*
X136702800Y-131356100D02*
X136067800Y-130721100D01*
X136702800Y-131356100D02*
X137972800Y-131356100D01*
X138607800Y-130721100D02*
X137972800Y-131356100D01*
X139242800Y-131356100D02*
X138607800Y-130721100D01*
X139242800Y-131356100D02*
X140512800Y-131356100D01*
X141147800Y-130721100D02*
X140512800Y-131356100D01*
X141782800Y-131356100D02*
X141147800Y-130721100D01*
X141782800Y-131356100D02*
X143052800Y-131356100D01*
X143687800Y-130721100D02*
X143052800Y-131356100D01*
X143687800Y-130721100D02*
X144322800Y-131356100D01*
X145592800Y-131356100D02*
X144322800Y-131356100D01*
X146227800Y-130721100D02*
X145592800Y-131356100D01*
X146862800Y-131356100D02*
X146227800Y-130721100D01*
X148132800Y-131356100D02*
X146862800Y-131356100D01*
X148767800Y-130721100D02*
X148132800Y-131356100D01*
X149402800Y-131356100D02*
X148767800Y-130721100D01*
X150672800Y-131356100D02*
X149402800Y-131356100D01*
X151307800Y-130721100D02*
X150672800Y-131356100D01*
X151942800Y-131356100D02*
X151307800Y-130721100D01*
X153212800Y-131356100D02*
X151942800Y-131356100D01*
X153847800Y-130721100D02*
X153212800Y-131356100D01*
X154482800Y-131356100D02*
X153847800Y-130721100D01*
X155752800Y-131356100D02*
X154482800Y-131356100D01*
X156387800Y-130721100D02*
X155752800Y-131356100D01*
X157022800Y-131356100D02*
X156387800Y-130721100D01*
X158292800Y-131356100D02*
X157022800Y-131356100D01*
X158927800Y-130721100D02*
X158292800Y-131356100D01*
X159562800Y-131356100D02*
X158927800Y-130721100D01*
X160832800Y-131356100D02*
X159562800Y-131356100D01*
X161467800Y-130721100D02*
X160832800Y-131356100D01*
X162102800Y-131356100D02*
X161467800Y-130721100D01*
X163372800Y-131356100D02*
X162102800Y-131356100D01*
X164007800Y-130721100D02*
X163372800Y-131356100D01*
X164642800Y-131356100D02*
X164007800Y-130721100D01*
X165912800Y-131356100D02*
X164642800Y-131356100D01*
X166547800Y-130721100D02*
X165912800Y-131356100D01*
X167182800Y-131356100D02*
X166547800Y-130721100D01*
X168452800Y-131356100D02*
X167182800Y-131356100D01*
X169087800Y-130721100D02*
X168452800Y-131356100D01*
X169722800Y-131356100D02*
X169087800Y-130721100D01*
X170992800Y-131356100D02*
X169722800Y-131356100D01*
X171627800Y-130721100D02*
X170992800Y-131356100D01*
X172262800Y-131356100D02*
X171627800Y-130721100D01*
X173532800Y-131356100D02*
X172262800Y-131356100D01*
X174167800Y-130721100D02*
X173532800Y-131356100D01*
X174167800Y-126911100D02*
X174167800Y-130721100D01*
X159562800Y-126276100D02*
X158927800Y-126911100D01*
X160832800Y-126276100D02*
X159562800Y-126276100D01*
X161467800Y-126911100D02*
X160832800Y-126276100D01*
X162102800Y-126276100D02*
X161467800Y-126911100D01*
X163372800Y-126276100D02*
X162102800Y-126276100D01*
X164007800Y-126911100D02*
X163372800Y-126276100D01*
X164642800Y-126276100D02*
X164007800Y-126911100D01*
X165912800Y-126276100D02*
X164642800Y-126276100D01*
X166547800Y-126911100D02*
X165912800Y-126276100D01*
X167182800Y-126276100D02*
X166547800Y-126911100D01*
X168452800Y-126276100D02*
X167182800Y-126276100D01*
X169087800Y-126911100D02*
X168452800Y-126276100D01*
X169722800Y-126276100D02*
X169087800Y-126911100D01*
X170992800Y-126276100D02*
X169722800Y-126276100D01*
X171627800Y-126911100D02*
X170992800Y-126276100D01*
X172262800Y-126276100D02*
X171627800Y-126911100D01*
X173532800Y-126276100D02*
X172262800Y-126276100D01*
X174167800Y-126911100D02*
X173532800Y-126276100D01*
D19*
X164960300Y-86906100D02*
X164960300Y-88176100D01*
X162420300Y-86906100D02*
X164960300Y-86906100D01*
X162420300Y-88176100D02*
X162420300Y-86906100D01*
X162420300Y-88176100D02*
X161150300Y-88176100D01*
X164960300Y-88176100D02*
X162420300Y-88176100D01*
X166230300Y-88176100D02*
X164960300Y-88176100D01*
X166230300Y-82588100D02*
X161150300Y-82588100D01*
X166230300Y-82588100D02*
X166230300Y-88176100D01*
X161150300Y-82588100D02*
X161150300Y-88176100D01*
D20*
G36*
X164755300Y-88856100D02*
G01*
X164080300Y-88856100D01*
X164080300Y-91306100D01*
X164755300Y-91306100D01*
X164755300Y-88856100D01*
G37*
D13*
X162665300Y-88781100D02*
X164725300Y-88781100D01*
X164725300Y-91381100D02*
X162665300Y-91381100D01*
X171627800Y-79286100D02*
X171627800Y-78968600D01*
X171627800Y-79286100D02*
X172262800Y-79286100D01*
X170992800Y-79286100D02*
X171627800Y-79286100D01*
D19*
X170827700Y-78333600D02*
G75*
G03X170827700Y-78333600I-152400J0D01*
G01*
X172580300Y-81191100D02*
X172580300Y-79603600D01*
X170675300Y-81191100D02*
X172580300Y-81191100D01*
X170675300Y-79603600D02*
X170675300Y-81191100D01*
X172580300Y-77381100D02*
X172580300Y-78968600D01*
X170675300Y-77381100D02*
X172580300Y-77381100D01*
X170675300Y-78968600D02*
X170675300Y-77381100D01*
D13*
X174167800Y-123101100D02*
X174167800Y-122783600D01*
X174167800Y-123101100D02*
X174802800Y-123101100D01*
X173532800Y-123101100D02*
X174167800Y-123101100D01*
D19*
X173367700Y-122148600D02*
G75*
G03X173367700Y-122148600I-152400J0D01*
G01*
X175120300Y-125006100D02*
X175120300Y-123418600D01*
X173215300Y-125006100D02*
X175120300Y-125006100D01*
X173215300Y-123418600D02*
X173215300Y-125006100D01*
X175120300Y-121196100D02*
X175120300Y-122783600D01*
X173215300Y-121196100D02*
X175120300Y-121196100D01*
X173215300Y-122783600D02*
X173215300Y-121196100D01*
X172580300Y-122783600D02*
X172580300Y-121196100D01*
X172580300Y-125006100D02*
X172580300Y-123418600D01*
X170675300Y-123418600D02*
X170675300Y-125006100D01*
X170675300Y-121196100D02*
X170675300Y-122783600D01*
X170675300Y-125006100D02*
X172580300Y-125006100D01*
X172580300Y-121196100D02*
X170675300Y-121196100D01*
X170040300Y-78968600D02*
X170040300Y-77381100D01*
X170040300Y-81191100D02*
X170040300Y-79603600D01*
X168135300Y-79603600D02*
X168135300Y-81191100D01*
X168135300Y-77381100D02*
X168135300Y-78968600D01*
X168135300Y-81191100D02*
X170040300Y-81191100D01*
X170040300Y-77381100D02*
X168135300Y-77381100D01*
D13*
X164642800Y-114846100D02*
X165912800Y-114846100D01*
D19*
X175437800Y-117386100D02*
X175437800Y-118656100D01*
X165277800Y-117386100D02*
X175437800Y-117386100D01*
X165277800Y-118656100D02*
X165277800Y-117386100D01*
X165277800Y-118656100D02*
X164007800Y-118656100D01*
X175437800Y-118656100D02*
X165277800Y-118656100D01*
X176707800Y-118656100D02*
X175437800Y-118656100D01*
X176707800Y-113068100D02*
X164007800Y-113068100D01*
X176707800Y-113068100D02*
X176707800Y-118656100D01*
X164007800Y-113068100D02*
X164007800Y-118656100D01*
D13*
X149402800Y-114846100D02*
X150672800Y-114846100D01*
D19*
X160197800Y-117386100D02*
X160197800Y-118656100D01*
X150037800Y-117386100D02*
X160197800Y-117386100D01*
X150037800Y-118656100D02*
X150037800Y-117386100D01*
X150037800Y-118656100D02*
X148767800Y-118656100D01*
X160197800Y-118656100D02*
X150037800Y-118656100D01*
X161467800Y-118656100D02*
X160197800Y-118656100D01*
X161467800Y-113068100D02*
X148767800Y-113068100D01*
X161467800Y-113068100D02*
X161467800Y-118656100D01*
X148767800Y-113068100D02*
X148767800Y-118656100D01*
D13*
X134162800Y-114846100D02*
X135432800Y-114846100D01*
D19*
X144957800Y-117386100D02*
X144957800Y-118656100D01*
X134797800Y-117386100D02*
X144957800Y-117386100D01*
X134797800Y-118656100D02*
X134797800Y-117386100D01*
X134797800Y-118656100D02*
X133527800Y-118656100D01*
X144957800Y-118656100D02*
X134797800Y-118656100D01*
X146227800Y-118656100D02*
X144957800Y-118656100D01*
X146227800Y-113068100D02*
X133527800Y-113068100D01*
X146227800Y-113068100D02*
X146227800Y-118656100D01*
X133527800Y-113068100D02*
X133527800Y-118656100D01*
D13*
X176072800Y-108496100D02*
X174802800Y-108496100D01*
D19*
X165277800Y-105956100D02*
X165277800Y-104686100D01*
X175437800Y-105956100D02*
X165277800Y-105956100D01*
X175437800Y-104686100D02*
X175437800Y-105956100D01*
X175437800Y-104686100D02*
X176707800Y-104686100D01*
X165277800Y-104686100D02*
X175437800Y-104686100D01*
X164007800Y-104686100D02*
X165277800Y-104686100D01*
X164007800Y-110274100D02*
X176707800Y-110274100D01*
X164007800Y-110274100D02*
X164007800Y-104686100D01*
X176707800Y-110274100D02*
X176707800Y-104686100D01*
X124637800Y-105956100D02*
X124637800Y-104686100D01*
X129717800Y-105956100D02*
X124637800Y-105956100D01*
X129717800Y-104686100D02*
X129717800Y-105956100D01*
X129717800Y-104686100D02*
X130987800Y-104686100D01*
X124637800Y-104686100D02*
X129717800Y-104686100D01*
X123367800Y-104686100D02*
X124637800Y-104686100D01*
X123367800Y-110274100D02*
X130987800Y-110274100D01*
X123367800Y-110274100D02*
X123367800Y-104686100D01*
X130987800Y-110274100D02*
X130987800Y-104686100D01*
D13*
X181073800Y-91888700D02*
X181073800Y-83193500D01*
X170069000Y-91888700D02*
X170069000Y-89941100D01*
X181073800Y-91888700D02*
X170069000Y-91888700D01*
X170069000Y-83193500D02*
X171327800Y-83193500D01*
X181073800Y-83193500D02*
X176027800Y-83193500D01*
X170069000Y-83193500D02*
X170069000Y-85141100D01*
D20*
G36*
X125183900Y-115608100D02*
G01*
X125355599Y-115701364D01*
X125544627Y-115750829D01*
X125740001Y-115753618D01*
X125930365Y-115709570D01*
X126104656Y-115621245D01*
X126252745Y-115493776D01*
X126366025Y-115334571D01*
X126437914Y-115152883D01*
X126464232Y-114959270D01*
X126443451Y-114764985D01*
X126376779Y-114581318D01*
X126123700Y-114287300D01*
X126174500Y-114922300D01*
X125920500Y-115404900D01*
X125412500Y-115404900D01*
X125183900Y-115608100D01*
G37*
D21*
X130365500Y-117716300D02*
X130365500Y-112229900D01*
D20*
G36*
X121831100Y-111721900D02*
G01*
X122085100Y-111518700D01*
X121913032Y-111422396D01*
X121722918Y-111370069D01*
X121525805Y-111364761D01*
X121333150Y-111406778D01*
X121156148Y-111493680D01*
X121005086Y-111620416D01*
X120888744Y-111779621D01*
X120813883Y-111962042D01*
X120784853Y-112157078D01*
X120803343Y-112353394D01*
X120868276Y-112539580D01*
X120975879Y-112704816D01*
X121119900Y-112839500D01*
X121094500Y-112128300D01*
X121323100Y-111721900D01*
X121831100Y-111721900D01*
G37*
G36*
X126809500Y-114947700D02*
G01*
X129019300Y-113449100D01*
X129019300Y-117741700D01*
X129041803Y-117912624D01*
X129107777Y-118071900D01*
X129212727Y-118208673D01*
X129349500Y-118313623D01*
X129508776Y-118379597D01*
X129679700Y-118402100D01*
X129850624Y-118379597D01*
X130009900Y-118313623D01*
X130146673Y-118208673D01*
X130251623Y-118071900D01*
X130340100Y-117741700D01*
X129781300Y-117741700D01*
X129781300Y-117462300D01*
X130340100Y-117462300D01*
X130340100Y-117081300D01*
X129908300Y-117081300D01*
X129908300Y-116827300D01*
X130340100Y-116827300D01*
X130340100Y-116420900D01*
X129781300Y-116420900D01*
X129781300Y-116166900D01*
X130340100Y-116166900D01*
X130340100Y-115785900D01*
X129908300Y-115785900D01*
X129908300Y-115531900D01*
X130340100Y-115531900D01*
X130340100Y-115125500D01*
X129781300Y-115125500D01*
X129781300Y-114871500D01*
X130340100Y-114871500D01*
X130340100Y-114490500D01*
X129908300Y-114490500D01*
X129908300Y-114236500D01*
X130340100Y-114236500D01*
X130340100Y-113855500D01*
X129781300Y-113830100D01*
X129781300Y-113576100D01*
X130340100Y-113576100D01*
X130340100Y-113195100D01*
X129908300Y-113195100D01*
X129908300Y-112915700D01*
X130340100Y-112915700D01*
X130340100Y-112534700D01*
X129755900Y-112534700D01*
X129755900Y-112255300D01*
X130340100Y-112255300D01*
X130340100Y-112128300D01*
X130340100Y-112128301D01*
X130304570Y-111943380D01*
X130218714Y-111775790D01*
X130089391Y-111638919D01*
X129926934Y-111543705D01*
X129744324Y-111497755D01*
X129556151Y-111504741D01*
X129222500Y-111671100D01*
X126072900Y-113830100D01*
X126428500Y-114084100D01*
X126428499Y-114084099D01*
X126592946Y-114263210D01*
X126714728Y-114473667D01*
X126788071Y-114705494D01*
X126809500Y-114947700D01*
G37*
G36*
X121119900Y-112839500D02*
G01*
X125183900Y-115608100D01*
X125387100Y-115430300D01*
X125082300Y-114947700D01*
X125361700Y-114490500D01*
X125920500Y-114490500D01*
X126149100Y-114871500D01*
X126199900Y-114338100D01*
X122085100Y-111518700D01*
X121881900Y-111721900D01*
X122135900Y-112179100D01*
X121881900Y-112636300D01*
X121323100Y-112636300D01*
X121094500Y-112229900D01*
X121119900Y-112839500D01*
G37*
G36*
X120942100Y-113144300D02*
G01*
X120942100Y-117690900D01*
X120955174Y-117866409D01*
X121013228Y-118032554D01*
X121112306Y-118178013D01*
X121245654Y-118292872D01*
X121404187Y-118369304D01*
X121577100Y-118402100D01*
X121752609Y-118389026D01*
X121918754Y-118330972D01*
X122064213Y-118231894D01*
X122179072Y-118098546D01*
X122288300Y-117767100D01*
X122288300Y-114058700D01*
X120942100Y-113144300D01*
G37*
D11*
X180136800Y-95161100D02*
X173151800Y-95161100D01*
D19*
X180517800Y-102781100D02*
X180517800Y-92621100D01*
X160197800Y-102781100D02*
X180517800Y-102781100D01*
X160197800Y-92621100D02*
X160197800Y-102781100D01*
X180517800Y-92621100D02*
X160197800Y-92621100D01*
D20*
G36*
X140535600Y-105956600D02*
G01*
X140788600Y-105826200D01*
X141417000Y-106338600D01*
X141847800Y-105907800D01*
X141335400Y-105279400D01*
X141552500Y-104755200D01*
X142359200Y-104673300D01*
X142359200Y-104063900D01*
X141552500Y-103982000D01*
X141465730Y-103710880D01*
X141335400Y-103457800D01*
X141847800Y-102829400D01*
X141417000Y-102398600D01*
X140788600Y-102911000D01*
X140535520Y-102780670D01*
X140264400Y-102693900D01*
X140182500Y-101887200D01*
X139573100Y-101887200D01*
X139491200Y-102693900D01*
X139220080Y-102780670D01*
X138967000Y-102911000D01*
X138338600Y-102398600D01*
X137907800Y-102829400D01*
X138420200Y-103457800D01*
X138203100Y-103982000D01*
X137396400Y-104063900D01*
X137396400Y-104673300D01*
X138203100Y-104755200D01*
X138420200Y-105279400D01*
X137907800Y-105907800D01*
X138338600Y-106338600D01*
X138967000Y-105826200D01*
X139090796Y-105896646D01*
X139220000Y-105956600D01*
X139578800Y-105090400D01*
X139382136Y-104972540D01*
X139228159Y-104802661D01*
X139130132Y-104595396D01*
X139096500Y-104368600D01*
X139118890Y-104182901D01*
X139184775Y-104007846D01*
X139290380Y-103853467D01*
X139429653Y-103728613D01*
X139594609Y-103640439D01*
X139775796Y-103594000D01*
X139962829Y-103591957D01*
X140144987Y-103634427D01*
X140311830Y-103718976D01*
X140453796Y-103840758D01*
X140562749Y-103992793D01*
X140632443Y-104166367D01*
X140658884Y-104351533D01*
X140640556Y-104537676D01*
X140578510Y-104714129D01*
X140476303Y-104870778D01*
X140176800Y-105090400D01*
X140535600Y-105956600D01*
G37*
D11*
X145827800Y-85196100D02*
X145827800Y-87446100D01*
X148077800Y-85196100D02*
X145827800Y-85196100D01*
X146327800Y-93196100D02*
X146327800Y-85696100D01*
X158827800Y-93196100D02*
X146327800Y-93196100D01*
X158827800Y-85696100D02*
X158827800Y-93196100D01*
X146327800Y-85696100D02*
X158827800Y-85696100D01*
X145827800Y-94086100D02*
X145827800Y-96336100D01*
X148077800Y-94086100D02*
X145827800Y-94086100D01*
X146327800Y-102086100D02*
X146327800Y-94586100D01*
X158827800Y-102086100D02*
X146327800Y-102086100D01*
X158827800Y-94586100D02*
X158827800Y-102086100D01*
X146327800Y-94586100D02*
X158827800Y-94586100D01*
D19*
X143052800Y-95796100D02*
X144322800Y-95796100D01*
X143052800Y-98336100D02*
X143052800Y-95796100D01*
X144322800Y-98336100D02*
X143052800Y-98336100D01*
X144322800Y-98336100D02*
X144322800Y-99606100D01*
X144322800Y-95796100D02*
X144322800Y-98336100D01*
X144322800Y-94526100D02*
X144322800Y-95796100D01*
X138734800Y-94526100D02*
X138734800Y-99606100D01*
X138734800Y-94526100D02*
X144322800Y-94526100D01*
X138734800Y-99606100D02*
X144322800Y-99606100D01*
X143052800Y-88176100D02*
X144322800Y-88176100D01*
X143052800Y-90716100D02*
X143052800Y-88176100D01*
X144322800Y-90716100D02*
X143052800Y-90716100D01*
X144322800Y-90716100D02*
X144322800Y-91986100D01*
X144322800Y-88176100D02*
X144322800Y-90716100D01*
X144322800Y-86906100D02*
X144322800Y-88176100D01*
X138734800Y-86906100D02*
X138734800Y-91986100D01*
X138734800Y-86906100D02*
X144322800Y-86906100D01*
X138734800Y-91986100D02*
X144322800Y-91986100D01*
X148767800Y-81191100D02*
X148767800Y-82461100D01*
X141147800Y-81191100D02*
X148767800Y-81191100D01*
X141147800Y-82461100D02*
X141147800Y-81191100D01*
X141147800Y-82461100D02*
X139877800Y-82461100D01*
X148767800Y-82461100D02*
X141147800Y-82461100D01*
X150037800Y-82461100D02*
X148767800Y-82461100D01*
X150037800Y-76873100D02*
X139877800Y-76873100D01*
X150037800Y-76873100D02*
X150037800Y-82461100D01*
X139877800Y-76873100D02*
X139877800Y-82461100D01*
D13*
X160832800Y-108496100D02*
X159562800Y-108496100D01*
D19*
X147497800Y-105956100D02*
X147497800Y-104686100D01*
X160197800Y-105956100D02*
X147497800Y-105956100D01*
X160197800Y-104686100D02*
X160197800Y-105956100D01*
X160197800Y-104686100D02*
X161467800Y-104686100D01*
X147497800Y-104686100D02*
X160197800Y-104686100D01*
X146227800Y-104686100D02*
X147497800Y-104686100D01*
X146227800Y-110274100D02*
X161467800Y-110274100D01*
X146227800Y-110274100D02*
X146227800Y-104686100D01*
X161467800Y-110274100D02*
X161467800Y-104686100D01*
D20*
G36*
X128828800Y-119151400D02*
G01*
X129133600Y-119151400D01*
X129133600Y-119075200D01*
X128828800Y-119075200D01*
X128828800Y-119151400D01*
G37*
G36*
X128828800Y-119227600D02*
G01*
X129133600Y-119227600D01*
X129133600Y-119151400D01*
X128828800Y-119151400D01*
X128828800Y-119227600D01*
G37*
G36*
X128828800Y-119303800D02*
G01*
X129133600Y-119303800D01*
X129133600Y-119227600D01*
X128828800Y-119227600D01*
X128828800Y-119303800D01*
G37*
G36*
X128828800Y-119380000D02*
G01*
X129133600Y-119380000D01*
X129133600Y-119303800D01*
X128828800Y-119303800D01*
X128828800Y-119380000D01*
G37*
G36*
X128752600Y-119456200D02*
G01*
X129133600Y-119456200D01*
X129133600Y-119380000D01*
X128752600Y-119380000D01*
X128752600Y-119456200D01*
G37*
G36*
X128752600Y-119532400D02*
G01*
X129057400Y-119532400D01*
X129057400Y-119456200D01*
X128752600Y-119456200D01*
X128752600Y-119532400D01*
G37*
G36*
X129362200Y-119608600D02*
G01*
X129743200Y-119608600D01*
X129743200Y-119532400D01*
X129362200Y-119532400D01*
X129362200Y-119608600D01*
G37*
G36*
X128752600Y-119608600D02*
G01*
X129057400Y-119608600D01*
X129057400Y-119532400D01*
X128752600Y-119532400D01*
X128752600Y-119608600D01*
G37*
G36*
X121437400Y-119608600D02*
G01*
X128295400Y-119608600D01*
X128295400Y-119532400D01*
X121437400Y-119532400D01*
X121437400Y-119608600D01*
G37*
G36*
X129362200Y-119684800D02*
G01*
X129743200Y-119684800D01*
X129743200Y-119608600D01*
X129362200Y-119608600D01*
X129362200Y-119684800D01*
G37*
G36*
X128752600Y-119684800D02*
G01*
X129057400Y-119684800D01*
X129057400Y-119608600D01*
X128752600Y-119608600D01*
X128752600Y-119684800D01*
G37*
G36*
X121437400Y-119684800D02*
G01*
X128295400Y-119684800D01*
X128295400Y-119608600D01*
X121437400Y-119608600D01*
X121437400Y-119684800D01*
G37*
G36*
X129362200Y-119761000D02*
G01*
X129743200Y-119761000D01*
X129743200Y-119684800D01*
X129362200Y-119684800D01*
X129362200Y-119761000D01*
G37*
G36*
X128752600Y-119761000D02*
G01*
X129057400Y-119761000D01*
X129057400Y-119684800D01*
X128752600Y-119684800D01*
X128752600Y-119761000D01*
G37*
G36*
X121437400Y-119761000D02*
G01*
X128295400Y-119761000D01*
X128295400Y-119684800D01*
X121437400Y-119684800D01*
X121437400Y-119761000D01*
G37*
G36*
X129362200Y-119837200D02*
G01*
X129743200Y-119837200D01*
X129743200Y-119761000D01*
X129362200Y-119761000D01*
X129362200Y-119837200D01*
G37*
G36*
X128676400Y-119837200D02*
G01*
X129057400Y-119837200D01*
X129057400Y-119761000D01*
X128676400Y-119761000D01*
X128676400Y-119837200D01*
G37*
G36*
X121437400Y-119837200D02*
G01*
X128295400Y-119837200D01*
X128295400Y-119761000D01*
X121437400Y-119761000D01*
X121437400Y-119837200D01*
G37*
G36*
X129362200Y-119913400D02*
G01*
X129743200Y-119913400D01*
X129743200Y-119837200D01*
X129362200Y-119837200D01*
X129362200Y-119913400D01*
G37*
G36*
X128676400Y-119913400D02*
G01*
X128981200Y-119913400D01*
X128981200Y-119837200D01*
X128676400Y-119837200D01*
X128676400Y-119913400D01*
G37*
G36*
X121437400Y-119913400D02*
G01*
X128295400Y-119913400D01*
X128295400Y-119837200D01*
X121437400Y-119837200D01*
X121437400Y-119913400D01*
G37*
G36*
X129362200Y-119989600D02*
G01*
X129743200Y-119989600D01*
X129743200Y-119913400D01*
X129362200Y-119913400D01*
X129362200Y-119989600D01*
G37*
G36*
X128676400Y-119989600D02*
G01*
X128981200Y-119989600D01*
X128981200Y-119913400D01*
X128676400Y-119913400D01*
X128676400Y-119989600D01*
G37*
G36*
X121437400Y-119989600D02*
G01*
X121818400Y-119989600D01*
X121818400Y-119913400D01*
X121437400Y-119913400D01*
X121437400Y-119989600D01*
G37*
G36*
X129362200Y-120065800D02*
G01*
X129743200Y-120065800D01*
X129743200Y-119989600D01*
X129362200Y-119989600D01*
X129362200Y-120065800D01*
G37*
G36*
X128676400Y-120065800D02*
G01*
X128981200Y-120065800D01*
X128981200Y-119989600D01*
X128676400Y-119989600D01*
X128676400Y-120065800D01*
G37*
G36*
X121437400Y-120065800D02*
G01*
X121818400Y-120065800D01*
X121818400Y-119989600D01*
X121437400Y-119989600D01*
X121437400Y-120065800D01*
G37*
G36*
X129362200Y-120142000D02*
G01*
X129743200Y-120142000D01*
X129743200Y-120065800D01*
X129362200Y-120065800D01*
X129362200Y-120142000D01*
G37*
G36*
X128676400Y-120142000D02*
G01*
X128981200Y-120142000D01*
X128981200Y-120065800D01*
X128676400Y-120065800D01*
X128676400Y-120142000D01*
G37*
G36*
X121437400Y-120142000D02*
G01*
X121818400Y-120142000D01*
X121818400Y-120065800D01*
X121437400Y-120065800D01*
X121437400Y-120142000D01*
G37*
G36*
X129362200Y-120218200D02*
G01*
X129743200Y-120218200D01*
X129743200Y-120142000D01*
X129362200Y-120142000D01*
X129362200Y-120218200D01*
G37*
G36*
X128600200Y-120218200D02*
G01*
X128905000Y-120218200D01*
X128905000Y-120142000D01*
X128600200Y-120142000D01*
X128600200Y-120218200D01*
G37*
G36*
X121437400Y-120218200D02*
G01*
X121818400Y-120218200D01*
X121818400Y-120142000D01*
X121437400Y-120142000D01*
X121437400Y-120218200D01*
G37*
G36*
X129362200Y-120294400D02*
G01*
X129743200Y-120294400D01*
X129743200Y-120218200D01*
X129362200Y-120218200D01*
X129362200Y-120294400D01*
G37*
G36*
X128600200Y-120294400D02*
G01*
X128905000Y-120294400D01*
X128905000Y-120218200D01*
X128600200Y-120218200D01*
X128600200Y-120294400D01*
G37*
G36*
X121437400Y-120294400D02*
G01*
X121818400Y-120294400D01*
X121818400Y-120218200D01*
X121437400Y-120218200D01*
X121437400Y-120294400D01*
G37*
G36*
X129362200Y-120370600D02*
G01*
X129743200Y-120370600D01*
X129743200Y-120294400D01*
X129362200Y-120294400D01*
X129362200Y-120370600D01*
G37*
G36*
X128600200Y-120370600D02*
G01*
X128905000Y-120370600D01*
X128905000Y-120294400D01*
X128600200Y-120294400D01*
X128600200Y-120370600D01*
G37*
G36*
X121437400Y-120370600D02*
G01*
X121818400Y-120370600D01*
X121818400Y-120294400D01*
X121437400Y-120294400D01*
X121437400Y-120370600D01*
G37*
G36*
X129362200Y-120446800D02*
G01*
X129743200Y-120446800D01*
X129743200Y-120370600D01*
X129362200Y-120370600D01*
X129362200Y-120446800D01*
G37*
G36*
X128600200Y-120446800D02*
G01*
X128905000Y-120446800D01*
X128905000Y-120370600D01*
X128600200Y-120370600D01*
X128600200Y-120446800D01*
G37*
G36*
X121437400Y-120446800D02*
G01*
X121818400Y-120446800D01*
X121818400Y-120370600D01*
X121437400Y-120370600D01*
X121437400Y-120446800D01*
G37*
G36*
X129362200Y-120523000D02*
G01*
X129743200Y-120523000D01*
X129743200Y-120446800D01*
X129362200Y-120446800D01*
X129362200Y-120523000D01*
G37*
G36*
X128600200Y-120523000D02*
G01*
X128905000Y-120523000D01*
X128905000Y-120446800D01*
X128600200Y-120446800D01*
X128600200Y-120523000D01*
G37*
G36*
X124561600Y-120523000D02*
G01*
X124790200Y-120523000D01*
X124790200Y-120446800D01*
X124561600Y-120446800D01*
X124561600Y-120523000D01*
G37*
G36*
X122809000Y-120523000D02*
G01*
X123190000Y-120523000D01*
X123190000Y-120446800D01*
X122809000Y-120446800D01*
X122809000Y-120523000D01*
G37*
G36*
X121437400Y-120523000D02*
G01*
X121818400Y-120523000D01*
X121818400Y-120446800D01*
X121437400Y-120446800D01*
X121437400Y-120523000D01*
G37*
G36*
X129362200Y-120599200D02*
G01*
X129743200Y-120599200D01*
X129743200Y-120523000D01*
X129362200Y-120523000D01*
X129362200Y-120599200D01*
G37*
G36*
X128524000Y-120599200D02*
G01*
X128828800Y-120599200D01*
X128828800Y-120523000D01*
X128524000Y-120523000D01*
X128524000Y-120599200D01*
G37*
G36*
X127076200Y-120599200D02*
G01*
X127381000Y-120599200D01*
X127381000Y-120523000D01*
X127076200Y-120523000D01*
X127076200Y-120599200D01*
G37*
G36*
X126542800Y-120599200D02*
G01*
X126923800Y-120599200D01*
X126923800Y-120523000D01*
X126542800Y-120523000D01*
X126542800Y-120599200D01*
G37*
G36*
X125552200Y-120599200D02*
G01*
X125933200Y-120599200D01*
X125933200Y-120523000D01*
X125552200Y-120523000D01*
X125552200Y-120599200D01*
G37*
G36*
X124333000Y-120599200D02*
G01*
X125095000Y-120599200D01*
X125095000Y-120523000D01*
X124333000Y-120523000D01*
X124333000Y-120599200D01*
G37*
G36*
X122656600Y-120599200D02*
G01*
X123418600Y-120599200D01*
X123418600Y-120523000D01*
X122656600Y-120523000D01*
X122656600Y-120599200D01*
G37*
G36*
X121437400Y-120599200D02*
G01*
X121818400Y-120599200D01*
X121818400Y-120523000D01*
X121437400Y-120523000D01*
X121437400Y-120599200D01*
G37*
G36*
X129362200Y-120675400D02*
G01*
X129743200Y-120675400D01*
X129743200Y-120599200D01*
X129362200Y-120599200D01*
X129362200Y-120675400D01*
G37*
G36*
X128524000Y-120675400D02*
G01*
X128828800Y-120675400D01*
X128828800Y-120599200D01*
X128524000Y-120599200D01*
X128524000Y-120675400D01*
G37*
G36*
X127076200Y-120675400D02*
G01*
X127381000Y-120675400D01*
X127381000Y-120599200D01*
X127076200Y-120599200D01*
X127076200Y-120675400D01*
G37*
G36*
X126542800Y-120675400D02*
G01*
X126923800Y-120675400D01*
X126923800Y-120599200D01*
X126542800Y-120599200D01*
X126542800Y-120675400D01*
G37*
G36*
X125552200Y-120675400D02*
G01*
X125933200Y-120675400D01*
X125933200Y-120599200D01*
X125552200Y-120599200D01*
X125552200Y-120675400D01*
G37*
G36*
X124180600Y-120675400D02*
G01*
X125171200Y-120675400D01*
X125171200Y-120599200D01*
X124180600Y-120599200D01*
X124180600Y-120675400D01*
G37*
G36*
X122580400Y-120675400D02*
G01*
X123494800Y-120675400D01*
X123494800Y-120599200D01*
X122580400Y-120599200D01*
X122580400Y-120675400D01*
G37*
G36*
X121437400Y-120675400D02*
G01*
X121818400Y-120675400D01*
X121818400Y-120599200D01*
X121437400Y-120599200D01*
X121437400Y-120675400D01*
G37*
G36*
X129362200Y-120751600D02*
G01*
X129743200Y-120751600D01*
X129743200Y-120675400D01*
X129362200Y-120675400D01*
X129362200Y-120751600D01*
G37*
G36*
X128524000Y-120751600D02*
G01*
X128828800Y-120751600D01*
X128828800Y-120675400D01*
X128524000Y-120675400D01*
X128524000Y-120751600D01*
G37*
G36*
X127076200Y-120751600D02*
G01*
X127381000Y-120751600D01*
X127381000Y-120675400D01*
X127076200Y-120675400D01*
X127076200Y-120751600D01*
G37*
G36*
X126542800Y-120751600D02*
G01*
X126923800Y-120751600D01*
X126923800Y-120675400D01*
X126542800Y-120675400D01*
X126542800Y-120751600D01*
G37*
G36*
X125552200Y-120751600D02*
G01*
X125933200Y-120751600D01*
X125933200Y-120675400D01*
X125552200Y-120675400D01*
X125552200Y-120751600D01*
G37*
G36*
X124104400Y-120751600D02*
G01*
X125171200Y-120751600D01*
X125171200Y-120675400D01*
X124104400Y-120675400D01*
X124104400Y-120751600D01*
G37*
G36*
X122504200Y-120751600D02*
G01*
X123571000Y-120751600D01*
X123571000Y-120675400D01*
X122504200Y-120675400D01*
X122504200Y-120751600D01*
G37*
G36*
X121437400Y-120751600D02*
G01*
X121818400Y-120751600D01*
X121818400Y-120675400D01*
X121437400Y-120675400D01*
X121437400Y-120751600D01*
G37*
G36*
X129362200Y-120827800D02*
G01*
X129743200Y-120827800D01*
X129743200Y-120751600D01*
X129362200Y-120751600D01*
X129362200Y-120827800D01*
G37*
G36*
X128524000Y-120827800D02*
G01*
X128828800Y-120827800D01*
X128828800Y-120751600D01*
X128524000Y-120751600D01*
X128524000Y-120827800D01*
G37*
G36*
X127076200Y-120827800D02*
G01*
X127381000Y-120827800D01*
X127381000Y-120751600D01*
X127076200Y-120751600D01*
X127076200Y-120827800D01*
G37*
G36*
X126542800Y-120827800D02*
G01*
X126923800Y-120827800D01*
X126923800Y-120751600D01*
X126542800Y-120751600D01*
X126542800Y-120827800D01*
G37*
G36*
X125552200Y-120827800D02*
G01*
X125933200Y-120827800D01*
X125933200Y-120751600D01*
X125552200Y-120751600D01*
X125552200Y-120827800D01*
G37*
G36*
X124866400Y-120827800D02*
G01*
X125171200Y-120827800D01*
X125171200Y-120751600D01*
X124866400Y-120751600D01*
X124866400Y-120827800D01*
G37*
G36*
X124028200Y-120827800D02*
G01*
X124485400Y-120827800D01*
X124485400Y-120751600D01*
X124028200Y-120751600D01*
X124028200Y-120827800D01*
G37*
G36*
X122428000Y-120827800D02*
G01*
X123647200Y-120827800D01*
X123647200Y-120751600D01*
X122428000Y-120751600D01*
X122428000Y-120827800D01*
G37*
G36*
X121437400Y-120827800D02*
G01*
X121818400Y-120827800D01*
X121818400Y-120751600D01*
X121437400Y-120751600D01*
X121437400Y-120827800D01*
G37*
G36*
X129362200Y-120904000D02*
G01*
X129743200Y-120904000D01*
X129743200Y-120827800D01*
X129362200Y-120827800D01*
X129362200Y-120904000D01*
G37*
G36*
X128447800Y-120904000D02*
G01*
X128828800Y-120904000D01*
X128828800Y-120827800D01*
X128447800Y-120827800D01*
X128447800Y-120904000D01*
G37*
G36*
X127076200Y-120904000D02*
G01*
X127381000Y-120904000D01*
X127381000Y-120827800D01*
X127076200Y-120827800D01*
X127076200Y-120904000D01*
G37*
G36*
X126542800Y-120904000D02*
G01*
X126923800Y-120904000D01*
X126923800Y-120827800D01*
X126542800Y-120827800D01*
X126542800Y-120904000D01*
G37*
G36*
X125552200Y-120904000D02*
G01*
X125933200Y-120904000D01*
X125933200Y-120827800D01*
X125552200Y-120827800D01*
X125552200Y-120904000D01*
G37*
G36*
X125018800Y-120904000D02*
G01*
X125171200Y-120904000D01*
X125171200Y-120827800D01*
X125018800Y-120827800D01*
X125018800Y-120904000D01*
G37*
G36*
X124028200Y-120904000D02*
G01*
X124333000Y-120904000D01*
X124333000Y-120827800D01*
X124028200Y-120827800D01*
X124028200Y-120904000D01*
G37*
G36*
X123190000Y-120904000D02*
G01*
X123647200Y-120904000D01*
X123647200Y-120827800D01*
X123190000Y-120827800D01*
X123190000Y-120904000D01*
G37*
G36*
X122428000Y-120904000D02*
G01*
X122885200Y-120904000D01*
X122885200Y-120827800D01*
X122428000Y-120827800D01*
X122428000Y-120904000D01*
G37*
G36*
X121437400Y-120904000D02*
G01*
X121818400Y-120904000D01*
X121818400Y-120827800D01*
X121437400Y-120827800D01*
X121437400Y-120904000D01*
G37*
G36*
X129362200Y-120980200D02*
G01*
X129743200Y-120980200D01*
X129743200Y-120904000D01*
X129362200Y-120904000D01*
X129362200Y-120980200D01*
G37*
G36*
X128447800Y-120980200D02*
G01*
X128752600Y-120980200D01*
X128752600Y-120904000D01*
X128447800Y-120904000D01*
X128447800Y-120980200D01*
G37*
G36*
X127076200Y-120980200D02*
G01*
X127381000Y-120980200D01*
X127381000Y-120904000D01*
X127076200Y-120904000D01*
X127076200Y-120980200D01*
G37*
G36*
X126542800Y-120980200D02*
G01*
X126923800Y-120980200D01*
X126923800Y-120904000D01*
X126542800Y-120904000D01*
X126542800Y-120980200D01*
G37*
G36*
X125552200Y-120980200D02*
G01*
X125933200Y-120980200D01*
X125933200Y-120904000D01*
X125552200Y-120904000D01*
X125552200Y-120980200D01*
G37*
G36*
X123952000Y-120980200D02*
G01*
X124333000Y-120980200D01*
X124333000Y-120904000D01*
X123952000Y-120904000D01*
X123952000Y-120980200D01*
G37*
G36*
X123266200Y-120980200D02*
G01*
X123647200Y-120980200D01*
X123647200Y-120904000D01*
X123266200Y-120904000D01*
X123266200Y-120980200D01*
G37*
G36*
X122351800Y-120980200D02*
G01*
X122809000Y-120980200D01*
X122809000Y-120904000D01*
X122351800Y-120904000D01*
X122351800Y-120980200D01*
G37*
G36*
X121437400Y-120980200D02*
G01*
X121818400Y-120980200D01*
X121818400Y-120904000D01*
X121437400Y-120904000D01*
X121437400Y-120980200D01*
G37*
G36*
X129362200Y-121056400D02*
G01*
X129743200Y-121056400D01*
X129743200Y-120980200D01*
X129362200Y-120980200D01*
X129362200Y-121056400D01*
G37*
G36*
X128447800Y-121056400D02*
G01*
X128752600Y-121056400D01*
X128752600Y-120980200D01*
X128447800Y-120980200D01*
X128447800Y-121056400D01*
G37*
G36*
X127076200Y-121056400D02*
G01*
X127381000Y-121056400D01*
X127381000Y-120980200D01*
X127076200Y-120980200D01*
X127076200Y-121056400D01*
G37*
G36*
X126542800Y-121056400D02*
G01*
X126923800Y-121056400D01*
X126923800Y-120980200D01*
X126542800Y-120980200D01*
X126542800Y-121056400D01*
G37*
G36*
X125552200Y-121056400D02*
G01*
X125933200Y-121056400D01*
X125933200Y-120980200D01*
X125552200Y-120980200D01*
X125552200Y-121056400D01*
G37*
G36*
X123952000Y-121056400D02*
G01*
X124333000Y-121056400D01*
X124333000Y-120980200D01*
X123952000Y-120980200D01*
X123952000Y-121056400D01*
G37*
G36*
X123266200Y-121056400D02*
G01*
X123723400Y-121056400D01*
X123723400Y-120980200D01*
X123266200Y-120980200D01*
X123266200Y-121056400D01*
G37*
G36*
X122351800Y-121056400D02*
G01*
X122809000Y-121056400D01*
X122809000Y-120980200D01*
X122351800Y-120980200D01*
X122351800Y-121056400D01*
G37*
G36*
X121437400Y-121056400D02*
G01*
X121818400Y-121056400D01*
X121818400Y-120980200D01*
X121437400Y-120980200D01*
X121437400Y-121056400D01*
G37*
G36*
X129362200Y-121132600D02*
G01*
X129743200Y-121132600D01*
X129743200Y-121056400D01*
X129362200Y-121056400D01*
X129362200Y-121132600D01*
G37*
G36*
X128447800Y-121132600D02*
G01*
X128752600Y-121132600D01*
X128752600Y-121056400D01*
X128447800Y-121056400D01*
X128447800Y-121132600D01*
G37*
G36*
X127685800Y-121132600D02*
G01*
X128066800Y-121132600D01*
X128066800Y-121056400D01*
X127685800Y-121056400D01*
X127685800Y-121132600D01*
G37*
G36*
X127152400Y-121132600D02*
G01*
X127381000Y-121132600D01*
X127381000Y-121056400D01*
X127152400Y-121056400D01*
X127152400Y-121132600D01*
G37*
G36*
X126542800Y-121132600D02*
G01*
X126923800Y-121132600D01*
X126923800Y-121056400D01*
X126542800Y-121056400D01*
X126542800Y-121132600D01*
G37*
G36*
X125552200Y-121132600D02*
G01*
X125933200Y-121132600D01*
X125933200Y-121056400D01*
X125552200Y-121056400D01*
X125552200Y-121132600D01*
G37*
G36*
X123952000Y-121132600D02*
G01*
X124333000Y-121132600D01*
X124333000Y-121056400D01*
X123952000Y-121056400D01*
X123952000Y-121132600D01*
G37*
G36*
X123266200Y-121132600D02*
G01*
X123723400Y-121132600D01*
X123723400Y-121056400D01*
X123266200Y-121056400D01*
X123266200Y-121132600D01*
G37*
G36*
X122351800Y-121132600D02*
G01*
X122809000Y-121132600D01*
X122809000Y-121056400D01*
X122351800Y-121056400D01*
X122351800Y-121132600D01*
G37*
G36*
X121437400Y-121132600D02*
G01*
X121818400Y-121132600D01*
X121818400Y-121056400D01*
X121437400Y-121056400D01*
X121437400Y-121132600D01*
G37*
G36*
X129362200Y-121208800D02*
G01*
X129743200Y-121208800D01*
X129743200Y-121132600D01*
X129362200Y-121132600D01*
X129362200Y-121208800D01*
G37*
G36*
X128447800Y-121208800D02*
G01*
X128752600Y-121208800D01*
X128752600Y-121132600D01*
X128447800Y-121132600D01*
X128447800Y-121208800D01*
G37*
G36*
X127685800Y-121208800D02*
G01*
X128066800Y-121208800D01*
X128066800Y-121132600D01*
X127685800Y-121132600D01*
X127685800Y-121208800D01*
G37*
G36*
X127152400Y-121208800D02*
G01*
X127457200Y-121208800D01*
X127457200Y-121132600D01*
X127152400Y-121132600D01*
X127152400Y-121208800D01*
G37*
G36*
X126542800Y-121208800D02*
G01*
X126923800Y-121208800D01*
X126923800Y-121132600D01*
X126542800Y-121132600D01*
X126542800Y-121208800D01*
G37*
G36*
X125552200Y-121208800D02*
G01*
X125933200Y-121208800D01*
X125933200Y-121132600D01*
X125552200Y-121132600D01*
X125552200Y-121208800D01*
G37*
G36*
X123952000Y-121208800D02*
G01*
X124333000Y-121208800D01*
X124333000Y-121132600D01*
X123952000Y-121132600D01*
X123952000Y-121208800D01*
G37*
G36*
X123342400Y-121208800D02*
G01*
X123723400Y-121208800D01*
X123723400Y-121132600D01*
X123342400Y-121132600D01*
X123342400Y-121208800D01*
G37*
G36*
X122351800Y-121208800D02*
G01*
X122732800Y-121208800D01*
X122732800Y-121132600D01*
X122351800Y-121132600D01*
X122351800Y-121208800D01*
G37*
G36*
X121437400Y-121208800D02*
G01*
X121818400Y-121208800D01*
X121818400Y-121132600D01*
X121437400Y-121132600D01*
X121437400Y-121208800D01*
G37*
G36*
X129362200Y-121285000D02*
G01*
X129743200Y-121285000D01*
X129743200Y-121208800D01*
X129362200Y-121208800D01*
X129362200Y-121285000D01*
G37*
G36*
X128371600Y-121285000D02*
G01*
X128676400Y-121285000D01*
X128676400Y-121208800D01*
X128371600Y-121208800D01*
X128371600Y-121285000D01*
G37*
G36*
X127685800Y-121285000D02*
G01*
X128066800Y-121285000D01*
X128066800Y-121208800D01*
X127685800Y-121208800D01*
X127685800Y-121285000D01*
G37*
G36*
X127152400Y-121285000D02*
G01*
X127457200Y-121285000D01*
X127457200Y-121208800D01*
X127152400Y-121208800D01*
X127152400Y-121285000D01*
G37*
G36*
X126542800Y-121285000D02*
G01*
X126923800Y-121285000D01*
X126923800Y-121208800D01*
X126542800Y-121208800D01*
X126542800Y-121285000D01*
G37*
G36*
X125552200Y-121285000D02*
G01*
X125933200Y-121285000D01*
X125933200Y-121208800D01*
X125552200Y-121208800D01*
X125552200Y-121285000D01*
G37*
G36*
X123952000Y-121285000D02*
G01*
X124409200Y-121285000D01*
X124409200Y-121208800D01*
X123952000Y-121208800D01*
X123952000Y-121285000D01*
G37*
G36*
X123342400Y-121285000D02*
G01*
X123723400Y-121285000D01*
X123723400Y-121208800D01*
X123342400Y-121208800D01*
X123342400Y-121285000D01*
G37*
G36*
X122351800Y-121285000D02*
G01*
X122732800Y-121285000D01*
X122732800Y-121208800D01*
X122351800Y-121208800D01*
X122351800Y-121285000D01*
G37*
G36*
X121437400Y-121285000D02*
G01*
X121818400Y-121285000D01*
X121818400Y-121208800D01*
X121437400Y-121208800D01*
X121437400Y-121285000D01*
G37*
G36*
X129362200Y-121361200D02*
G01*
X129743200Y-121361200D01*
X129743200Y-121285000D01*
X129362200Y-121285000D01*
X129362200Y-121361200D01*
G37*
G36*
X128371600Y-121361200D02*
G01*
X128676400Y-121361200D01*
X128676400Y-121285000D01*
X128371600Y-121285000D01*
X128371600Y-121361200D01*
G37*
G36*
X127685800Y-121361200D02*
G01*
X128143000Y-121361200D01*
X128143000Y-121285000D01*
X127685800Y-121285000D01*
X127685800Y-121361200D01*
G37*
G36*
X127152400Y-121361200D02*
G01*
X127457200Y-121361200D01*
X127457200Y-121285000D01*
X127152400Y-121285000D01*
X127152400Y-121361200D01*
G37*
G36*
X125552200Y-121361200D02*
G01*
X126923800Y-121361200D01*
X126923800Y-121285000D01*
X125552200Y-121285000D01*
X125552200Y-121361200D01*
G37*
G36*
X124028200Y-121361200D02*
G01*
X124561600Y-121361200D01*
X124561600Y-121285000D01*
X124028200Y-121285000D01*
X124028200Y-121361200D01*
G37*
G36*
X123342400Y-121361200D02*
G01*
X123723400Y-121361200D01*
X123723400Y-121285000D01*
X123342400Y-121285000D01*
X123342400Y-121361200D01*
G37*
G36*
X122351800Y-121361200D02*
G01*
X122732800Y-121361200D01*
X122732800Y-121285000D01*
X122351800Y-121285000D01*
X122351800Y-121361200D01*
G37*
G36*
X121437400Y-121361200D02*
G01*
X121818400Y-121361200D01*
X121818400Y-121285000D01*
X121437400Y-121285000D01*
X121437400Y-121361200D01*
G37*
G36*
X129362200Y-121437400D02*
G01*
X129743200Y-121437400D01*
X129743200Y-121361200D01*
X129362200Y-121361200D01*
X129362200Y-121437400D01*
G37*
G36*
X128371600Y-121437400D02*
G01*
X128676400Y-121437400D01*
X128676400Y-121361200D01*
X128371600Y-121361200D01*
X128371600Y-121437400D01*
G37*
G36*
X127685800Y-121437400D02*
G01*
X128143000Y-121437400D01*
X128143000Y-121361200D01*
X127685800Y-121361200D01*
X127685800Y-121437400D01*
G37*
G36*
X127152400Y-121437400D02*
G01*
X127457200Y-121437400D01*
X127457200Y-121361200D01*
X127152400Y-121361200D01*
X127152400Y-121437400D01*
G37*
G36*
X125552200Y-121437400D02*
G01*
X126923800Y-121437400D01*
X126923800Y-121361200D01*
X125552200Y-121361200D01*
X125552200Y-121437400D01*
G37*
G36*
X124028200Y-121437400D02*
G01*
X124866400Y-121437400D01*
X124866400Y-121361200D01*
X124028200Y-121361200D01*
X124028200Y-121437400D01*
G37*
G36*
X123342400Y-121437400D02*
G01*
X123723400Y-121437400D01*
X123723400Y-121361200D01*
X123342400Y-121361200D01*
X123342400Y-121437400D01*
G37*
G36*
X122275600Y-121437400D02*
G01*
X122732800Y-121437400D01*
X122732800Y-121361200D01*
X122275600Y-121361200D01*
X122275600Y-121437400D01*
G37*
G36*
X121437400Y-121437400D02*
G01*
X121818400Y-121437400D01*
X121818400Y-121361200D01*
X121437400Y-121361200D01*
X121437400Y-121437400D01*
G37*
G36*
X129362200Y-121513600D02*
G01*
X129743200Y-121513600D01*
X129743200Y-121437400D01*
X129362200Y-121437400D01*
X129362200Y-121513600D01*
G37*
G36*
X128371600Y-121513600D02*
G01*
X128676400Y-121513600D01*
X128676400Y-121437400D01*
X128371600Y-121437400D01*
X128371600Y-121513600D01*
G37*
G36*
X127609600Y-121513600D02*
G01*
X128143000Y-121513600D01*
X128143000Y-121437400D01*
X127609600Y-121437400D01*
X127609600Y-121513600D01*
G37*
G36*
X127152400Y-121513600D02*
G01*
X127457200Y-121513600D01*
X127457200Y-121437400D01*
X127152400Y-121437400D01*
X127152400Y-121513600D01*
G37*
G36*
X125552200Y-121513600D02*
G01*
X126923800Y-121513600D01*
X126923800Y-121437400D01*
X125552200Y-121437400D01*
X125552200Y-121513600D01*
G37*
G36*
X124104400Y-121513600D02*
G01*
X125018800Y-121513600D01*
X125018800Y-121437400D01*
X124104400Y-121437400D01*
X124104400Y-121513600D01*
G37*
G36*
X123342400Y-121513600D02*
G01*
X123723400Y-121513600D01*
X123723400Y-121437400D01*
X123342400Y-121437400D01*
X123342400Y-121513600D01*
G37*
G36*
X122275600Y-121513600D02*
G01*
X122732800Y-121513600D01*
X122732800Y-121437400D01*
X122275600Y-121437400D01*
X122275600Y-121513600D01*
G37*
G36*
X121437400Y-121513600D02*
G01*
X121818400Y-121513600D01*
X121818400Y-121437400D01*
X121437400Y-121437400D01*
X121437400Y-121513600D01*
G37*
G36*
X129362200Y-121589800D02*
G01*
X129743200Y-121589800D01*
X129743200Y-121513600D01*
X129362200Y-121513600D01*
X129362200Y-121589800D01*
G37*
G36*
X128371600Y-121589800D02*
G01*
X128676400Y-121589800D01*
X128676400Y-121513600D01*
X128371600Y-121513600D01*
X128371600Y-121589800D01*
G37*
G36*
X127609600Y-121589800D02*
G01*
X128143000Y-121589800D01*
X128143000Y-121513600D01*
X127609600Y-121513600D01*
X127609600Y-121589800D01*
G37*
G36*
X127228600Y-121589800D02*
G01*
X127457200Y-121589800D01*
X127457200Y-121513600D01*
X127228600Y-121513600D01*
X127228600Y-121589800D01*
G37*
G36*
X125552200Y-121589800D02*
G01*
X126923800Y-121589800D01*
X126923800Y-121513600D01*
X125552200Y-121513600D01*
X125552200Y-121589800D01*
G37*
G36*
X124256800Y-121589800D02*
G01*
X125171200Y-121589800D01*
X125171200Y-121513600D01*
X124256800Y-121513600D01*
X124256800Y-121589800D01*
G37*
G36*
X123342400Y-121589800D02*
G01*
X123723400Y-121589800D01*
X123723400Y-121513600D01*
X123342400Y-121513600D01*
X123342400Y-121589800D01*
G37*
G36*
X122275600Y-121589800D02*
G01*
X122732800Y-121589800D01*
X122732800Y-121513600D01*
X122275600Y-121513600D01*
X122275600Y-121589800D01*
G37*
G36*
X121437400Y-121589800D02*
G01*
X121818400Y-121589800D01*
X121818400Y-121513600D01*
X121437400Y-121513600D01*
X121437400Y-121589800D01*
G37*
G36*
X129362200Y-121666000D02*
G01*
X129743200Y-121666000D01*
X129743200Y-121589800D01*
X129362200Y-121589800D01*
X129362200Y-121666000D01*
G37*
G36*
X128295400Y-121666000D02*
G01*
X128600200Y-121666000D01*
X128600200Y-121589800D01*
X128295400Y-121589800D01*
X128295400Y-121666000D01*
G37*
G36*
X127914400Y-121666000D02*
G01*
X128143000Y-121666000D01*
X128143000Y-121589800D01*
X127914400Y-121589800D01*
X127914400Y-121666000D01*
G37*
G36*
X127609600Y-121666000D02*
G01*
X127838200Y-121666000D01*
X127838200Y-121589800D01*
X127609600Y-121589800D01*
X127609600Y-121666000D01*
G37*
G36*
X127228600Y-121666000D02*
G01*
X127457200Y-121666000D01*
X127457200Y-121589800D01*
X127228600Y-121589800D01*
X127228600Y-121666000D01*
G37*
G36*
X126542800Y-121666000D02*
G01*
X126923800Y-121666000D01*
X126923800Y-121589800D01*
X126542800Y-121589800D01*
X126542800Y-121666000D01*
G37*
G36*
X125552200Y-121666000D02*
G01*
X125933200Y-121666000D01*
X125933200Y-121589800D01*
X125552200Y-121589800D01*
X125552200Y-121666000D01*
G37*
G36*
X124409200Y-121666000D02*
G01*
X125247400Y-121666000D01*
X125247400Y-121589800D01*
X124409200Y-121589800D01*
X124409200Y-121666000D01*
G37*
G36*
X123342400Y-121666000D02*
G01*
X123723400Y-121666000D01*
X123723400Y-121589800D01*
X123342400Y-121589800D01*
X123342400Y-121666000D01*
G37*
G36*
X122275600Y-121666000D02*
G01*
X122732800Y-121666000D01*
X122732800Y-121589800D01*
X122275600Y-121589800D01*
X122275600Y-121666000D01*
G37*
G36*
X121437400Y-121666000D02*
G01*
X121818400Y-121666000D01*
X121818400Y-121589800D01*
X121437400Y-121589800D01*
X121437400Y-121666000D01*
G37*
G36*
X129362200Y-121742200D02*
G01*
X129743200Y-121742200D01*
X129743200Y-121666000D01*
X129362200Y-121666000D01*
X129362200Y-121742200D01*
G37*
G36*
X128295400Y-121742200D02*
G01*
X128600200Y-121742200D01*
X128600200Y-121666000D01*
X128295400Y-121666000D01*
X128295400Y-121742200D01*
G37*
G36*
X127914400Y-121742200D02*
G01*
X128219200Y-121742200D01*
X128219200Y-121666000D01*
X127914400Y-121666000D01*
X127914400Y-121742200D01*
G37*
G36*
X127609600Y-121742200D02*
G01*
X127838200Y-121742200D01*
X127838200Y-121666000D01*
X127609600Y-121666000D01*
X127609600Y-121742200D01*
G37*
G36*
X127228600Y-121742200D02*
G01*
X127457200Y-121742200D01*
X127457200Y-121666000D01*
X127228600Y-121666000D01*
X127228600Y-121742200D01*
G37*
G36*
X126542800Y-121742200D02*
G01*
X126923800Y-121742200D01*
X126923800Y-121666000D01*
X126542800Y-121666000D01*
X126542800Y-121742200D01*
G37*
G36*
X125552200Y-121742200D02*
G01*
X125933200Y-121742200D01*
X125933200Y-121666000D01*
X125552200Y-121666000D01*
X125552200Y-121742200D01*
G37*
G36*
X124714000Y-121742200D02*
G01*
X125247400Y-121742200D01*
X125247400Y-121666000D01*
X124714000Y-121666000D01*
X124714000Y-121742200D01*
G37*
G36*
X123342400Y-121742200D02*
G01*
X123723400Y-121742200D01*
X123723400Y-121666000D01*
X123342400Y-121666000D01*
X123342400Y-121742200D01*
G37*
G36*
X122275600Y-121742200D02*
G01*
X122732800Y-121742200D01*
X122732800Y-121666000D01*
X122275600Y-121666000D01*
X122275600Y-121742200D01*
G37*
G36*
X121437400Y-121742200D02*
G01*
X121818400Y-121742200D01*
X121818400Y-121666000D01*
X121437400Y-121666000D01*
X121437400Y-121742200D01*
G37*
G36*
X129362200Y-121818400D02*
G01*
X129743200Y-121818400D01*
X129743200Y-121742200D01*
X129362200Y-121742200D01*
X129362200Y-121818400D01*
G37*
G36*
X128295400Y-121818400D02*
G01*
X128600200Y-121818400D01*
X128600200Y-121742200D01*
X128295400Y-121742200D01*
X128295400Y-121818400D01*
G37*
G36*
X127914400Y-121818400D02*
G01*
X128219200Y-121818400D01*
X128219200Y-121742200D01*
X127914400Y-121742200D01*
X127914400Y-121818400D01*
G37*
G36*
X127228600Y-121818400D02*
G01*
X127838200Y-121818400D01*
X127838200Y-121742200D01*
X127228600Y-121742200D01*
X127228600Y-121818400D01*
G37*
G36*
X126542800Y-121818400D02*
G01*
X126923800Y-121818400D01*
X126923800Y-121742200D01*
X126542800Y-121742200D01*
X126542800Y-121818400D01*
G37*
G36*
X125552200Y-121818400D02*
G01*
X125933200Y-121818400D01*
X125933200Y-121742200D01*
X125552200Y-121742200D01*
X125552200Y-121818400D01*
G37*
G36*
X124866400Y-121818400D02*
G01*
X125247400Y-121818400D01*
X125247400Y-121742200D01*
X124866400Y-121742200D01*
X124866400Y-121818400D01*
G37*
G36*
X123342400Y-121818400D02*
G01*
X123723400Y-121818400D01*
X123723400Y-121742200D01*
X123342400Y-121742200D01*
X123342400Y-121818400D01*
G37*
G36*
X122351800Y-121818400D02*
G01*
X122732800Y-121818400D01*
X122732800Y-121742200D01*
X122351800Y-121742200D01*
X122351800Y-121818400D01*
G37*
G36*
X121437400Y-121818400D02*
G01*
X121818400Y-121818400D01*
X121818400Y-121742200D01*
X121437400Y-121742200D01*
X121437400Y-121818400D01*
G37*
G36*
X129362200Y-121894600D02*
G01*
X129743200Y-121894600D01*
X129743200Y-121818400D01*
X129362200Y-121818400D01*
X129362200Y-121894600D01*
G37*
G36*
X128295400Y-121894600D02*
G01*
X128600200Y-121894600D01*
X128600200Y-121818400D01*
X128295400Y-121818400D01*
X128295400Y-121894600D01*
G37*
G36*
X127990600Y-121894600D02*
G01*
X128219200Y-121894600D01*
X128219200Y-121818400D01*
X127990600Y-121818400D01*
X127990600Y-121894600D01*
G37*
G36*
X127228600Y-121894600D02*
G01*
X127762000Y-121894600D01*
X127762000Y-121818400D01*
X127228600Y-121818400D01*
X127228600Y-121894600D01*
G37*
G36*
X126542800Y-121894600D02*
G01*
X126923800Y-121894600D01*
X126923800Y-121818400D01*
X126542800Y-121818400D01*
X126542800Y-121894600D01*
G37*
G36*
X125552200Y-121894600D02*
G01*
X125933200Y-121894600D01*
X125933200Y-121818400D01*
X125552200Y-121818400D01*
X125552200Y-121894600D01*
G37*
G36*
X124942600Y-121894600D02*
G01*
X125323600Y-121894600D01*
X125323600Y-121818400D01*
X124942600Y-121818400D01*
X124942600Y-121894600D01*
G37*
G36*
X123342400Y-121894600D02*
G01*
X123723400Y-121894600D01*
X123723400Y-121818400D01*
X123342400Y-121818400D01*
X123342400Y-121894600D01*
G37*
G36*
X122351800Y-121894600D02*
G01*
X122732800Y-121894600D01*
X122732800Y-121818400D01*
X122351800Y-121818400D01*
X122351800Y-121894600D01*
G37*
G36*
X121437400Y-121894600D02*
G01*
X121818400Y-121894600D01*
X121818400Y-121818400D01*
X121437400Y-121818400D01*
X121437400Y-121894600D01*
G37*
G36*
X129362200Y-121970800D02*
G01*
X129743200Y-121970800D01*
X129743200Y-121894600D01*
X129362200Y-121894600D01*
X129362200Y-121970800D01*
G37*
G36*
X128295400Y-121970800D02*
G01*
X128600200Y-121970800D01*
X128600200Y-121894600D01*
X128295400Y-121894600D01*
X128295400Y-121970800D01*
G37*
G36*
X127990600Y-121970800D02*
G01*
X128219200Y-121970800D01*
X128219200Y-121894600D01*
X127990600Y-121894600D01*
X127990600Y-121970800D01*
G37*
G36*
X127228600Y-121970800D02*
G01*
X127762000Y-121970800D01*
X127762000Y-121894600D01*
X127228600Y-121894600D01*
X127228600Y-121970800D01*
G37*
G36*
X126542800Y-121970800D02*
G01*
X126923800Y-121970800D01*
X126923800Y-121894600D01*
X126542800Y-121894600D01*
X126542800Y-121970800D01*
G37*
G36*
X125552200Y-121970800D02*
G01*
X125933200Y-121970800D01*
X125933200Y-121894600D01*
X125552200Y-121894600D01*
X125552200Y-121970800D01*
G37*
G36*
X124942600Y-121970800D02*
G01*
X125323600Y-121970800D01*
X125323600Y-121894600D01*
X124942600Y-121894600D01*
X124942600Y-121970800D01*
G37*
G36*
X123342400Y-121970800D02*
G01*
X123723400Y-121970800D01*
X123723400Y-121894600D01*
X123342400Y-121894600D01*
X123342400Y-121970800D01*
G37*
G36*
X122351800Y-121970800D02*
G01*
X122732800Y-121970800D01*
X122732800Y-121894600D01*
X122351800Y-121894600D01*
X122351800Y-121970800D01*
G37*
G36*
X121437400Y-121970800D02*
G01*
X121818400Y-121970800D01*
X121818400Y-121894600D01*
X121437400Y-121894600D01*
X121437400Y-121970800D01*
G37*
G36*
X129362200Y-122047000D02*
G01*
X129743200Y-122047000D01*
X129743200Y-121970800D01*
X129362200Y-121970800D01*
X129362200Y-122047000D01*
G37*
G36*
X127990600Y-122047000D02*
G01*
X128524000Y-122047000D01*
X128524000Y-121970800D01*
X127990600Y-121970800D01*
X127990600Y-122047000D01*
G37*
G36*
X127228600Y-122047000D02*
G01*
X127762000Y-122047000D01*
X127762000Y-121970800D01*
X127228600Y-121970800D01*
X127228600Y-122047000D01*
G37*
G36*
X126542800Y-122047000D02*
G01*
X126923800Y-122047000D01*
X126923800Y-121970800D01*
X126542800Y-121970800D01*
X126542800Y-122047000D01*
G37*
G36*
X125552200Y-122047000D02*
G01*
X125933200Y-122047000D01*
X125933200Y-121970800D01*
X125552200Y-121970800D01*
X125552200Y-122047000D01*
G37*
G36*
X124942600Y-122047000D02*
G01*
X125323600Y-122047000D01*
X125323600Y-121970800D01*
X124942600Y-121970800D01*
X124942600Y-122047000D01*
G37*
G36*
X123266200Y-122047000D02*
G01*
X123723400Y-122047000D01*
X123723400Y-121970800D01*
X123266200Y-121970800D01*
X123266200Y-122047000D01*
G37*
G36*
X122351800Y-122047000D02*
G01*
X122809000Y-122047000D01*
X122809000Y-121970800D01*
X122351800Y-121970800D01*
X122351800Y-122047000D01*
G37*
G36*
X121437400Y-122047000D02*
G01*
X121818400Y-122047000D01*
X121818400Y-121970800D01*
X121437400Y-121970800D01*
X121437400Y-122047000D01*
G37*
G36*
X129362200Y-122123200D02*
G01*
X129743200Y-122123200D01*
X129743200Y-122047000D01*
X129362200Y-122047000D01*
X129362200Y-122123200D01*
G37*
G36*
X127990600Y-122123200D02*
G01*
X128524000Y-122123200D01*
X128524000Y-122047000D01*
X127990600Y-122047000D01*
X127990600Y-122123200D01*
G37*
G36*
X127304800Y-122123200D02*
G01*
X127762000Y-122123200D01*
X127762000Y-122047000D01*
X127304800Y-122047000D01*
X127304800Y-122123200D01*
G37*
G36*
X126542800Y-122123200D02*
G01*
X126923800Y-122123200D01*
X126923800Y-122047000D01*
X126542800Y-122047000D01*
X126542800Y-122123200D01*
G37*
G36*
X125552200Y-122123200D02*
G01*
X125933200Y-122123200D01*
X125933200Y-122047000D01*
X125552200Y-122047000D01*
X125552200Y-122123200D01*
G37*
G36*
X124942600Y-122123200D02*
G01*
X125323600Y-122123200D01*
X125323600Y-122047000D01*
X124942600Y-122047000D01*
X124942600Y-122123200D01*
G37*
G36*
X123266200Y-122123200D02*
G01*
X123723400Y-122123200D01*
X123723400Y-122047000D01*
X123266200Y-122047000D01*
X123266200Y-122123200D01*
G37*
G36*
X122351800Y-122123200D02*
G01*
X122809000Y-122123200D01*
X122809000Y-122047000D01*
X122351800Y-122047000D01*
X122351800Y-122123200D01*
G37*
G36*
X121437400Y-122123200D02*
G01*
X121818400Y-122123200D01*
X121818400Y-122047000D01*
X121437400Y-122047000D01*
X121437400Y-122123200D01*
G37*
G36*
X129362200Y-122199400D02*
G01*
X129743200Y-122199400D01*
X129743200Y-122123200D01*
X129362200Y-122123200D01*
X129362200Y-122199400D01*
G37*
G36*
X128066800Y-122199400D02*
G01*
X128524000Y-122199400D01*
X128524000Y-122123200D01*
X128066800Y-122123200D01*
X128066800Y-122199400D01*
G37*
G36*
X127304800Y-122199400D02*
G01*
X127762000Y-122199400D01*
X127762000Y-122123200D01*
X127304800Y-122123200D01*
X127304800Y-122199400D01*
G37*
G36*
X126542800Y-122199400D02*
G01*
X126923800Y-122199400D01*
X126923800Y-122123200D01*
X126542800Y-122123200D01*
X126542800Y-122199400D01*
G37*
G36*
X125552200Y-122199400D02*
G01*
X125933200Y-122199400D01*
X125933200Y-122123200D01*
X125552200Y-122123200D01*
X125552200Y-122199400D01*
G37*
G36*
X124942600Y-122199400D02*
G01*
X125247400Y-122199400D01*
X125247400Y-122123200D01*
X124942600Y-122123200D01*
X124942600Y-122199400D01*
G37*
G36*
X123952000Y-122199400D02*
G01*
X124104400Y-122199400D01*
X124104400Y-122123200D01*
X123952000Y-122123200D01*
X123952000Y-122199400D01*
G37*
G36*
X123190000Y-122199400D02*
G01*
X123647200Y-122199400D01*
X123647200Y-122123200D01*
X123190000Y-122123200D01*
X123190000Y-122199400D01*
G37*
G36*
X122351800Y-122199400D02*
G01*
X122809000Y-122199400D01*
X122809000Y-122123200D01*
X122351800Y-122123200D01*
X122351800Y-122199400D01*
G37*
G36*
X121437400Y-122199400D02*
G01*
X121818400Y-122199400D01*
X121818400Y-122123200D01*
X121437400Y-122123200D01*
X121437400Y-122199400D01*
G37*
G36*
X129362200Y-122275600D02*
G01*
X129743200Y-122275600D01*
X129743200Y-122199400D01*
X129362200Y-122199400D01*
X129362200Y-122275600D01*
G37*
G36*
X128066800Y-122275600D02*
G01*
X128524000Y-122275600D01*
X128524000Y-122199400D01*
X128066800Y-122199400D01*
X128066800Y-122275600D01*
G37*
G36*
X127304800Y-122275600D02*
G01*
X127685800Y-122275600D01*
X127685800Y-122199400D01*
X127304800Y-122199400D01*
X127304800Y-122275600D01*
G37*
G36*
X126542800Y-122275600D02*
G01*
X126923800Y-122275600D01*
X126923800Y-122199400D01*
X126542800Y-122199400D01*
X126542800Y-122275600D01*
G37*
G36*
X125552200Y-122275600D02*
G01*
X125933200Y-122275600D01*
X125933200Y-122199400D01*
X125552200Y-122199400D01*
X125552200Y-122275600D01*
G37*
G36*
X124866400Y-122275600D02*
G01*
X125247400Y-122275600D01*
X125247400Y-122199400D01*
X124866400Y-122199400D01*
X124866400Y-122275600D01*
G37*
G36*
X123952000Y-122275600D02*
G01*
X124256800Y-122275600D01*
X124256800Y-122199400D01*
X123952000Y-122199400D01*
X123952000Y-122275600D01*
G37*
G36*
X123113800Y-122275600D02*
G01*
X123647200Y-122275600D01*
X123647200Y-122199400D01*
X123113800Y-122199400D01*
X123113800Y-122275600D01*
G37*
G36*
X122428000Y-122275600D02*
G01*
X122885200Y-122275600D01*
X122885200Y-122199400D01*
X122428000Y-122199400D01*
X122428000Y-122275600D01*
G37*
G36*
X121437400Y-122275600D02*
G01*
X121818400Y-122275600D01*
X121818400Y-122199400D01*
X121437400Y-122199400D01*
X121437400Y-122275600D01*
G37*
G36*
X129362200Y-122351800D02*
G01*
X129743200Y-122351800D01*
X129743200Y-122275600D01*
X129362200Y-122275600D01*
X129362200Y-122351800D01*
G37*
G36*
X128066800Y-122351800D02*
G01*
X128524000Y-122351800D01*
X128524000Y-122275600D01*
X128066800Y-122275600D01*
X128066800Y-122351800D01*
G37*
G36*
X127304800Y-122351800D02*
G01*
X127685800Y-122351800D01*
X127685800Y-122275600D01*
X127304800Y-122275600D01*
X127304800Y-122351800D01*
G37*
G36*
X126542800Y-122351800D02*
G01*
X126923800Y-122351800D01*
X126923800Y-122275600D01*
X126542800Y-122275600D01*
X126542800Y-122351800D01*
G37*
G36*
X125552200Y-122351800D02*
G01*
X125933200Y-122351800D01*
X125933200Y-122275600D01*
X125552200Y-122275600D01*
X125552200Y-122351800D01*
G37*
G36*
X124714000Y-122351800D02*
G01*
X125247400Y-122351800D01*
X125247400Y-122275600D01*
X124714000Y-122275600D01*
X124714000Y-122351800D01*
G37*
G36*
X123952000Y-122351800D02*
G01*
X124485400Y-122351800D01*
X124485400Y-122275600D01*
X123952000Y-122275600D01*
X123952000Y-122351800D01*
G37*
G36*
X122428000Y-122351800D02*
G01*
X123571000Y-122351800D01*
X123571000Y-122275600D01*
X122428000Y-122275600D01*
X122428000Y-122351800D01*
G37*
G36*
X121437400Y-122351800D02*
G01*
X121818400Y-122351800D01*
X121818400Y-122275600D01*
X121437400Y-122275600D01*
X121437400Y-122351800D01*
G37*
G36*
X129362200Y-122428000D02*
G01*
X129743200Y-122428000D01*
X129743200Y-122351800D01*
X129362200Y-122351800D01*
X129362200Y-122428000D01*
G37*
G36*
X128066800Y-122428000D02*
G01*
X128447800Y-122428000D01*
X128447800Y-122351800D01*
X128066800Y-122351800D01*
X128066800Y-122428000D01*
G37*
G36*
X127304800Y-122428000D02*
G01*
X127685800Y-122428000D01*
X127685800Y-122351800D01*
X127304800Y-122351800D01*
X127304800Y-122428000D01*
G37*
G36*
X126542800Y-122428000D02*
G01*
X126923800Y-122428000D01*
X126923800Y-122351800D01*
X126542800Y-122351800D01*
X126542800Y-122428000D01*
G37*
G36*
X125552200Y-122428000D02*
G01*
X125933200Y-122428000D01*
X125933200Y-122351800D01*
X125552200Y-122351800D01*
X125552200Y-122428000D01*
G37*
G36*
X123952000Y-122428000D02*
G01*
X125171200Y-122428000D01*
X125171200Y-122351800D01*
X123952000Y-122351800D01*
X123952000Y-122428000D01*
G37*
G36*
X122504200Y-122428000D02*
G01*
X123571000Y-122428000D01*
X123571000Y-122351800D01*
X122504200Y-122351800D01*
X122504200Y-122428000D01*
G37*
G36*
X121437400Y-122428000D02*
G01*
X121818400Y-122428000D01*
X121818400Y-122351800D01*
X121437400Y-122351800D01*
X121437400Y-122428000D01*
G37*
G36*
X129362200Y-122504200D02*
G01*
X129743200Y-122504200D01*
X129743200Y-122428000D01*
X129362200Y-122428000D01*
X129362200Y-122504200D01*
G37*
G36*
X128066800Y-122504200D02*
G01*
X128447800Y-122504200D01*
X128447800Y-122428000D01*
X128066800Y-122428000D01*
X128066800Y-122504200D01*
G37*
G36*
X127304800Y-122504200D02*
G01*
X127685800Y-122504200D01*
X127685800Y-122428000D01*
X127304800Y-122428000D01*
X127304800Y-122504200D01*
G37*
G36*
X126542800Y-122504200D02*
G01*
X126923800Y-122504200D01*
X126923800Y-122428000D01*
X126542800Y-122428000D01*
X126542800Y-122504200D01*
G37*
G36*
X125552200Y-122504200D02*
G01*
X125933200Y-122504200D01*
X125933200Y-122428000D01*
X125552200Y-122428000D01*
X125552200Y-122504200D01*
G37*
G36*
X124028200Y-122504200D02*
G01*
X125095000Y-122504200D01*
X125095000Y-122428000D01*
X124028200Y-122428000D01*
X124028200Y-122504200D01*
G37*
G36*
X122580400Y-122504200D02*
G01*
X123494800Y-122504200D01*
X123494800Y-122428000D01*
X122580400Y-122428000D01*
X122580400Y-122504200D01*
G37*
G36*
X121437400Y-122504200D02*
G01*
X121818400Y-122504200D01*
X121818400Y-122428000D01*
X121437400Y-122428000D01*
X121437400Y-122504200D01*
G37*
G36*
X129362200Y-122580400D02*
G01*
X129743200Y-122580400D01*
X129743200Y-122504200D01*
X129362200Y-122504200D01*
X129362200Y-122580400D01*
G37*
G36*
X126542800Y-122580400D02*
G01*
X126923800Y-122580400D01*
X126923800Y-122504200D01*
X126542800Y-122504200D01*
X126542800Y-122580400D01*
G37*
G36*
X125552200Y-122580400D02*
G01*
X125933200Y-122580400D01*
X125933200Y-122504200D01*
X125552200Y-122504200D01*
X125552200Y-122580400D01*
G37*
G36*
X124180600Y-122580400D02*
G01*
X124942600Y-122580400D01*
X124942600Y-122504200D01*
X124180600Y-122504200D01*
X124180600Y-122580400D01*
G37*
G36*
X122656600Y-122580400D02*
G01*
X123342400Y-122580400D01*
X123342400Y-122504200D01*
X122656600Y-122504200D01*
X122656600Y-122580400D01*
G37*
G36*
X121437400Y-122580400D02*
G01*
X121818400Y-122580400D01*
X121818400Y-122504200D01*
X121437400Y-122504200D01*
X121437400Y-122580400D01*
G37*
G36*
X129362200Y-122656600D02*
G01*
X129743200Y-122656600D01*
X129743200Y-122580400D01*
X129362200Y-122580400D01*
X129362200Y-122656600D01*
G37*
G36*
X121437400Y-122656600D02*
G01*
X121818400Y-122656600D01*
X121818400Y-122580400D01*
X121437400Y-122580400D01*
X121437400Y-122656600D01*
G37*
G36*
X129362200Y-122732800D02*
G01*
X129743200Y-122732800D01*
X129743200Y-122656600D01*
X129362200Y-122656600D01*
X129362200Y-122732800D01*
G37*
G36*
X121437400Y-122732800D02*
G01*
X121818400Y-122732800D01*
X121818400Y-122656600D01*
X121437400Y-122656600D01*
X121437400Y-122732800D01*
G37*
G36*
X129362200Y-122809000D02*
G01*
X129743200Y-122809000D01*
X129743200Y-122732800D01*
X129362200Y-122732800D01*
X129362200Y-122809000D01*
G37*
G36*
X121437400Y-122809000D02*
G01*
X121818400Y-122809000D01*
X121818400Y-122732800D01*
X121437400Y-122732800D01*
X121437400Y-122809000D01*
G37*
G36*
X129362200Y-122885200D02*
G01*
X129743200Y-122885200D01*
X129743200Y-122809000D01*
X129362200Y-122809000D01*
X129362200Y-122885200D01*
G37*
G36*
X121437400Y-122885200D02*
G01*
X121818400Y-122885200D01*
X121818400Y-122809000D01*
X121437400Y-122809000D01*
X121437400Y-122885200D01*
G37*
G36*
X129362200Y-122961400D02*
G01*
X129743200Y-122961400D01*
X129743200Y-122885200D01*
X129362200Y-122885200D01*
X129362200Y-122961400D01*
G37*
G36*
X121437400Y-122961400D02*
G01*
X121818400Y-122961400D01*
X121818400Y-122885200D01*
X121437400Y-122885200D01*
X121437400Y-122961400D01*
G37*
G36*
X129362200Y-123037600D02*
G01*
X129743200Y-123037600D01*
X129743200Y-122961400D01*
X129362200Y-122961400D01*
X129362200Y-123037600D01*
G37*
G36*
X121437400Y-123037600D02*
G01*
X121818400Y-123037600D01*
X121818400Y-122961400D01*
X121437400Y-122961400D01*
X121437400Y-123037600D01*
G37*
G36*
X121437400Y-123113800D02*
G01*
X129743200Y-123113800D01*
X129743200Y-123037600D01*
X121437400Y-123037600D01*
X121437400Y-123113800D01*
G37*
G36*
X121437400Y-123190000D02*
G01*
X129743200Y-123190000D01*
X129743200Y-123113800D01*
X121437400Y-123113800D01*
X121437400Y-123190000D01*
G37*
G36*
X121437400Y-123266200D02*
G01*
X129743200Y-123266200D01*
X129743200Y-123190000D01*
X121437400Y-123190000D01*
X121437400Y-123266200D01*
G37*
G36*
X121437400Y-123342400D02*
G01*
X129743200Y-123342400D01*
X129743200Y-123266200D01*
X121437400Y-123266200D01*
X121437400Y-123342400D01*
G37*
G36*
X121437400Y-123418600D02*
G01*
X129743200Y-123418600D01*
X129743200Y-123342400D01*
X121437400Y-123342400D01*
X121437400Y-123418600D01*
G37*
D22*
D23*
X148078666Y-124947438D02*
X148078666Y-125636866D01*
X148032704Y-125774752D01*
X147940780Y-125866676D01*
X147802895Y-125912638D01*
X147710971Y-125912638D01*
X149043866Y-125912638D02*
X148492323Y-125912638D01*
X148768095Y-125912638D02*
X148768095Y-124947438D01*
X148676171Y-125085323D01*
X148584247Y-125177247D01*
X148492323Y-125223209D01*
X149871180Y-125269171D02*
X149871180Y-125912638D01*
X149641371Y-124901476D02*
X149411561Y-125590904D01*
X150009066Y-125590904D01*
X167446166Y-82592938D02*
X167446166Y-83282366D01*
X167400204Y-83420252D01*
X167308280Y-83512176D01*
X167170395Y-83558138D01*
X167078471Y-83558138D01*
X168411366Y-83558138D02*
X167859823Y-83558138D01*
X168135595Y-83558138D02*
X168135595Y-82592938D01*
X168043671Y-82730823D01*
X167951747Y-82822747D01*
X167859823Y-82868709D01*
X169008871Y-82592938D02*
X169100795Y-82592938D01*
X169192718Y-82638900D01*
X169238680Y-82684861D01*
X169284642Y-82776785D01*
X169330604Y-82960633D01*
X169330604Y-83190442D01*
X169284642Y-83374290D01*
X169238680Y-83466214D01*
X169192718Y-83512176D01*
X169100795Y-83558138D01*
X169008871Y-83558138D01*
X168916947Y-83512176D01*
X168870985Y-83466214D01*
X168825023Y-83374290D01*
X168779061Y-83190442D01*
X168779061Y-82960633D01*
X168825023Y-82776785D01*
X168870985Y-82684861D01*
X168916947Y-82638900D01*
X169008871Y-82592938D01*
D24*
X167850299Y-91611147D02*
X167850299Y-90404647D01*
X168137561Y-90404647D01*
X168309918Y-90462100D01*
X168424823Y-90577004D01*
X168482276Y-90691909D01*
X168539728Y-90921719D01*
X168539728Y-91094076D01*
X168482276Y-91323885D01*
X168424823Y-91438790D01*
X168309918Y-91553695D01*
X168137561Y-91611147D01*
X167850299Y-91611147D01*
X169688776Y-91611147D02*
X168999347Y-91611147D01*
X169344061Y-91611147D02*
X169344061Y-90404647D01*
X169229157Y-90577004D01*
X169114252Y-90691909D01*
X168999347Y-90749361D01*
D23*
X174121838Y-80426385D02*
X174121838Y-80886004D01*
X173156638Y-80886004D01*
X173616257Y-80104652D02*
X173616257Y-79782919D01*
X174121838Y-79645033D02*
X174121838Y-80104652D01*
X173156638Y-80104652D01*
X173156638Y-79645033D01*
X174121838Y-79231376D02*
X173156638Y-79231376D01*
X173156638Y-79001566D01*
X173202600Y-78863681D01*
X173294523Y-78771757D01*
X173386447Y-78725795D01*
X173570295Y-78679833D01*
X173708180Y-78679833D01*
X173892028Y-78725795D01*
X173983952Y-78771757D01*
X174075876Y-78863681D01*
X174121838Y-79001566D01*
X174121838Y-79231376D01*
X174121838Y-77760595D02*
X174121838Y-78312138D01*
X174121838Y-78036366D02*
X173156638Y-78036366D01*
X173294523Y-78128290D01*
X173386447Y-78220214D01*
X173432409Y-78312138D01*
X176661838Y-124876385D02*
X176661838Y-125336004D01*
X175696638Y-125336004D01*
X176156257Y-124554652D02*
X176156257Y-124232919D01*
X176661838Y-124095033D02*
X176661838Y-124554652D01*
X175696638Y-124554652D01*
X175696638Y-124095033D01*
X176661838Y-123681376D02*
X175696638Y-123681376D01*
X175696638Y-123451566D01*
X175742600Y-123313681D01*
X175834523Y-123221757D01*
X175926447Y-123175795D01*
X176110295Y-123129833D01*
X176248180Y-123129833D01*
X176432028Y-123175795D01*
X176523952Y-123221757D01*
X176615876Y-123313681D01*
X176661838Y-123451566D01*
X176661838Y-123681376D01*
X175788561Y-122762138D02*
X175742600Y-122716176D01*
X175696638Y-122624252D01*
X175696638Y-122394442D01*
X175742600Y-122302519D01*
X175788561Y-122256557D01*
X175880485Y-122210595D01*
X175972409Y-122210595D01*
X176110295Y-122256557D01*
X176661838Y-122808100D01*
X176661838Y-122210595D01*
X170311838Y-123514462D02*
X169852219Y-123836195D01*
X170311838Y-124066004D02*
X169346638Y-124066004D01*
X169346638Y-123698309D01*
X169392600Y-123606385D01*
X169438561Y-123560423D01*
X169530485Y-123514462D01*
X169668371Y-123514462D01*
X169760295Y-123560423D01*
X169806257Y-123606385D01*
X169852219Y-123698309D01*
X169852219Y-124066004D01*
X169438561Y-123146766D02*
X169392600Y-123100804D01*
X169346638Y-123008881D01*
X169346638Y-122779071D01*
X169392600Y-122687147D01*
X169438561Y-122641185D01*
X169530485Y-122595223D01*
X169622409Y-122595223D01*
X169760295Y-122641185D01*
X170311838Y-123192728D01*
X170311838Y-122595223D01*
X167771838Y-79699462D02*
X167312219Y-80021195D01*
X167771838Y-80251004D02*
X166806638Y-80251004D01*
X166806638Y-79883309D01*
X166852600Y-79791385D01*
X166898561Y-79745423D01*
X166990485Y-79699462D01*
X167128371Y-79699462D01*
X167220295Y-79745423D01*
X167266257Y-79791385D01*
X167312219Y-79883309D01*
X167312219Y-80251004D01*
X167771838Y-78780223D02*
X167771838Y-79331766D01*
X167771838Y-79055995D02*
X166806638Y-79055995D01*
X166944523Y-79147919D01*
X167036447Y-79239842D01*
X167082409Y-79331766D01*
D25*
X164638856Y-111802938D02*
X164638856Y-112492366D01*
X164592895Y-112630252D01*
X164500971Y-112722176D01*
X164363085Y-112768138D01*
X164271161Y-112768138D01*
X165604056Y-112768138D02*
X165052514Y-112768138D01*
X165328285Y-112768138D02*
X165328285Y-111802938D01*
X165236361Y-111940823D01*
X165144437Y-112032747D01*
X165052514Y-112078709D01*
X149398856Y-111802938D02*
X149398856Y-112492366D01*
X149352895Y-112630252D01*
X149260971Y-112722176D01*
X149123085Y-112768138D01*
X149031161Y-112768138D01*
X149812514Y-111894861D02*
X149858476Y-111848900D01*
X149950399Y-111802938D01*
X150180209Y-111802938D01*
X150272133Y-111848900D01*
X150318095Y-111894861D01*
X150364056Y-111986785D01*
X150364056Y-112078709D01*
X150318095Y-112216595D01*
X149766552Y-112768138D01*
X150364056Y-112768138D01*
X134158856Y-111802938D02*
X134158856Y-112492366D01*
X134112895Y-112630252D01*
X134020971Y-112722176D01*
X133883085Y-112768138D01*
X133791161Y-112768138D01*
X134526552Y-111802938D02*
X135124056Y-111802938D01*
X134802323Y-112170633D01*
X134940209Y-112170633D01*
X135032133Y-112216595D01*
X135078095Y-112262557D01*
X135124056Y-112354480D01*
X135124056Y-112584290D01*
X135078095Y-112676214D01*
X135032133Y-112722176D01*
X134940209Y-112768138D01*
X134664437Y-112768138D01*
X134572514Y-112722176D01*
X134526552Y-112676214D01*
X164638856Y-103420938D02*
X164638856Y-104110366D01*
X164592895Y-104248252D01*
X164500971Y-104340176D01*
X164363085Y-104386138D01*
X164271161Y-104386138D01*
X165512133Y-103742671D02*
X165512133Y-104386138D01*
X165282323Y-103374976D02*
X165052514Y-104064404D01*
X165650018Y-104064404D01*
X124506856Y-103420938D02*
X124506856Y-104110366D01*
X124460895Y-104248252D01*
X124368971Y-104340176D01*
X124231085Y-104386138D01*
X124139161Y-104386138D01*
X124874552Y-103420938D02*
X125518018Y-103420938D01*
X125104361Y-104386138D01*
D23*
X173173866Y-89450938D02*
X173173866Y-90140366D01*
X173127904Y-90278252D01*
X173035980Y-90370176D01*
X172898095Y-90416138D01*
X172806171Y-90416138D01*
X173679447Y-90416138D02*
X173863295Y-90416138D01*
X173955218Y-90370176D01*
X174001180Y-90324214D01*
X174093104Y-90186328D01*
X174139066Y-90002480D01*
X174139066Y-89634785D01*
X174093104Y-89542861D01*
X174047142Y-89496900D01*
X173955218Y-89450938D01*
X173771371Y-89450938D01*
X173679447Y-89496900D01*
X173633485Y-89542861D01*
X173587523Y-89634785D01*
X173587523Y-89864595D01*
X173633485Y-89956519D01*
X173679447Y-90002480D01*
X173771371Y-90048442D01*
X173955218Y-90048442D01*
X174047142Y-90002480D01*
X174093104Y-89956519D01*
X174139066Y-89864595D01*
D14*
X177438836Y-93658266D02*
X177381383Y-93600814D01*
X177266479Y-93428457D01*
X177209026Y-93313552D01*
X177151574Y-93141195D01*
X177094121Y-92853933D01*
X177094121Y-92624123D01*
X177151574Y-92336861D01*
X177209026Y-92164504D01*
X177266479Y-92049600D01*
X177381383Y-91877242D01*
X177438836Y-91819790D01*
X177898455Y-92566671D02*
X178300621Y-92566671D01*
X178472979Y-93198647D02*
X177898455Y-93198647D01*
X177898455Y-91992147D01*
X178472979Y-91992147D01*
X178990050Y-93198647D02*
X178990050Y-91992147D01*
X179679479Y-93198647D01*
X179679479Y-91992147D01*
X180311455Y-93141195D02*
X180311455Y-93198647D01*
X180254002Y-93313552D01*
X180196550Y-93371004D01*
X181575407Y-92394314D02*
X182035026Y-92394314D01*
X181747764Y-93198647D02*
X181747764Y-92164504D01*
X181805217Y-92049600D01*
X181920121Y-91992147D01*
X182035026Y-91992147D01*
X182609550Y-93198647D02*
X182494645Y-93141195D01*
X182437193Y-93026290D01*
X182437193Y-91992147D01*
X183241526Y-93198647D02*
X183126621Y-93141195D01*
X183069169Y-93083742D01*
X183011717Y-92968838D01*
X183011717Y-92624123D01*
X183069169Y-92509219D01*
X183126621Y-92451766D01*
X183241526Y-92394314D01*
X183413883Y-92394314D01*
X183528788Y-92451766D01*
X183586240Y-92509219D01*
X183643693Y-92624123D01*
X183643693Y-92968838D01*
X183586240Y-93083742D01*
X183528788Y-93141195D01*
X183413883Y-93198647D01*
X183241526Y-93198647D01*
X184677836Y-93198647D02*
X184677836Y-92566671D01*
X184620383Y-92451766D01*
X184505479Y-92394314D01*
X184275669Y-92394314D01*
X184160764Y-92451766D01*
X184677836Y-93141195D02*
X184562931Y-93198647D01*
X184275669Y-93198647D01*
X184160764Y-93141195D01*
X184103312Y-93026290D01*
X184103312Y-92911385D01*
X184160764Y-92796480D01*
X184275669Y-92739028D01*
X184562931Y-92739028D01*
X184677836Y-92681576D01*
X185080002Y-92394314D02*
X185539621Y-92394314D01*
X185252360Y-91992147D02*
X185252360Y-93026290D01*
X185309812Y-93141195D01*
X185424717Y-93198647D01*
X185539621Y-93198647D01*
X185826883Y-93658266D02*
X185884336Y-93600814D01*
X185999240Y-93428457D01*
X186056693Y-93313552D01*
X186114145Y-93141195D01*
X186171598Y-92853933D01*
X186171598Y-92624123D01*
X186114145Y-92336861D01*
X186056693Y-92164504D01*
X185999240Y-92049600D01*
X185884336Y-91877242D01*
X185826883Y-91819790D01*
X177323931Y-99612147D02*
X177553740Y-99612147D01*
X177668645Y-99669600D01*
X177783550Y-99784504D01*
X177841002Y-100014314D01*
X177841002Y-100416480D01*
X177783550Y-100646290D01*
X177668645Y-100761195D01*
X177553740Y-100818647D01*
X177323931Y-100818647D01*
X177209026Y-100761195D01*
X177094121Y-100646290D01*
X177036669Y-100416480D01*
X177036669Y-100014314D01*
X177094121Y-99784504D01*
X177209026Y-99669600D01*
X177323931Y-99612147D01*
X178358074Y-99612147D02*
X178358074Y-100588838D01*
X178415526Y-100703742D01*
X178472979Y-100761195D01*
X178587883Y-100818647D01*
X178817693Y-100818647D01*
X178932598Y-100761195D01*
X178990050Y-100703742D01*
X179047502Y-100588838D01*
X179047502Y-99612147D01*
X179449669Y-99612147D02*
X180139098Y-99612147D01*
X179794383Y-100818647D02*
X179794383Y-99612147D01*
X177726098Y-97129600D02*
X177611193Y-97072147D01*
X177438836Y-97072147D01*
X177266479Y-97129600D01*
X177151574Y-97244504D01*
X177094121Y-97359409D01*
X177036669Y-97589219D01*
X177036669Y-97761576D01*
X177094121Y-97991385D01*
X177151574Y-98106290D01*
X177266479Y-98221195D01*
X177438836Y-98278647D01*
X177553740Y-98278647D01*
X177726098Y-98221195D01*
X177783550Y-98163742D01*
X177783550Y-97761576D01*
X177553740Y-97761576D01*
X178300621Y-98278647D02*
X178300621Y-97072147D01*
X178990050Y-98278647D01*
X178990050Y-97072147D01*
X179564574Y-98278647D02*
X179564574Y-97072147D01*
X179851836Y-97072147D01*
X180024193Y-97129600D01*
X180139098Y-97244504D01*
X180196550Y-97359409D01*
X180254002Y-97589219D01*
X180254002Y-97761576D01*
X180196550Y-97991385D01*
X180139098Y-98106290D01*
X180024193Y-98221195D01*
X179851836Y-98278647D01*
X179564574Y-98278647D01*
X177094121Y-95738647D02*
X177094121Y-94532147D01*
X177668645Y-95738647D02*
X177668645Y-94532147D01*
X178358074Y-95738647D01*
X178358074Y-94532147D01*
D23*
X152237614Y-90012157D02*
X151755014Y-89322728D01*
X151410299Y-90012157D02*
X151410299Y-88564357D01*
X151961842Y-88564357D01*
X152099728Y-88633300D01*
X152168671Y-88702242D01*
X152237614Y-88840128D01*
X152237614Y-89046957D01*
X152168671Y-89184842D01*
X152099728Y-89253785D01*
X151961842Y-89322728D01*
X151410299Y-89322728D01*
X153547528Y-90012157D02*
X152858099Y-90012157D01*
X152858099Y-88564357D01*
X154788499Y-90012157D02*
X153961185Y-90012157D01*
X154374842Y-90012157D02*
X154374842Y-88564357D01*
X154236957Y-88771185D01*
X154099071Y-88909071D01*
X153961185Y-88978014D01*
X152237614Y-98902157D02*
X151755014Y-98212728D01*
X151410299Y-98902157D02*
X151410299Y-97454357D01*
X151961842Y-97454357D01*
X152099728Y-97523300D01*
X152168671Y-97592242D01*
X152237614Y-97730128D01*
X152237614Y-97936957D01*
X152168671Y-98074842D01*
X152099728Y-98143785D01*
X151961842Y-98212728D01*
X151410299Y-98212728D01*
X153547528Y-98902157D02*
X152858099Y-98902157D01*
X152858099Y-97454357D01*
X153961185Y-97592242D02*
X154030128Y-97523300D01*
X154168014Y-97454357D01*
X154512728Y-97454357D01*
X154650614Y-97523300D01*
X154719557Y-97592242D01*
X154788499Y-97730128D01*
X154788499Y-97868014D01*
X154719557Y-98074842D01*
X153892242Y-98902157D01*
X154788499Y-98902157D01*
D25*
X139873856Y-99737938D02*
X139873856Y-100427366D01*
X139827895Y-100565252D01*
X139735971Y-100657176D01*
X139598085Y-100703138D01*
X139506161Y-100703138D01*
X140839056Y-100703138D02*
X140287514Y-100703138D01*
X140563285Y-100703138D02*
X140563285Y-99737938D01*
X140471361Y-99875823D01*
X140379437Y-99967747D01*
X140287514Y-100013709D01*
X141160790Y-99737938D02*
X141758295Y-99737938D01*
X141436561Y-100105633D01*
X141574447Y-100105633D01*
X141666371Y-100151595D01*
X141712333Y-100197557D01*
X141758295Y-100289480D01*
X141758295Y-100519290D01*
X141712333Y-100611214D01*
X141666371Y-100657176D01*
X141574447Y-100703138D01*
X141298676Y-100703138D01*
X141206752Y-100657176D01*
X141160790Y-100611214D01*
X139873856Y-92117938D02*
X139873856Y-92807366D01*
X139827895Y-92945252D01*
X139735971Y-93037176D01*
X139598085Y-93083138D01*
X139506161Y-93083138D01*
X140839056Y-93083138D02*
X140287514Y-93083138D01*
X140563285Y-93083138D02*
X140563285Y-92117938D01*
X140471361Y-92255823D01*
X140379437Y-92347747D01*
X140287514Y-92393709D01*
X141206752Y-92209861D02*
X141252714Y-92163900D01*
X141344637Y-92117938D01*
X141574447Y-92117938D01*
X141666371Y-92163900D01*
X141712333Y-92209861D01*
X141758295Y-92301785D01*
X141758295Y-92393709D01*
X141712333Y-92531595D01*
X141160790Y-93083138D01*
X141758295Y-93083138D01*
X151113356Y-76877938D02*
X151113356Y-77567366D01*
X151067395Y-77705252D01*
X150975471Y-77797176D01*
X150837585Y-77843138D01*
X150745661Y-77843138D01*
X151710861Y-77291595D02*
X151618937Y-77245633D01*
X151572976Y-77199671D01*
X151527014Y-77107747D01*
X151527014Y-77061785D01*
X151572976Y-76969861D01*
X151618937Y-76923900D01*
X151710861Y-76877938D01*
X151894709Y-76877938D01*
X151986633Y-76923900D01*
X152032595Y-76969861D01*
X152078556Y-77061785D01*
X152078556Y-77107747D01*
X152032595Y-77199671D01*
X151986633Y-77245633D01*
X151894709Y-77291595D01*
X151710861Y-77291595D01*
X151618937Y-77337557D01*
X151572976Y-77383519D01*
X151527014Y-77475442D01*
X151527014Y-77659290D01*
X151572976Y-77751214D01*
X151618937Y-77797176D01*
X151710861Y-77843138D01*
X151894709Y-77843138D01*
X151986633Y-77797176D01*
X152032595Y-77751214D01*
X152078556Y-77659290D01*
X152078556Y-77475442D01*
X152032595Y-77383519D01*
X151986633Y-77337557D01*
X151894709Y-77291595D01*
X146858856Y-103420938D02*
X146858856Y-104110366D01*
X146812895Y-104248252D01*
X146720971Y-104340176D01*
X146583085Y-104386138D01*
X146491161Y-104386138D01*
X147778095Y-103420938D02*
X147318476Y-103420938D01*
X147272514Y-103880557D01*
X147318476Y-103834595D01*
X147410399Y-103788633D01*
X147640209Y-103788633D01*
X147732133Y-103834595D01*
X147778095Y-103880557D01*
X147824056Y-103972480D01*
X147824056Y-104202290D01*
X147778095Y-104294214D01*
X147732133Y-104340176D01*
X147640209Y-104386138D01*
X147410399Y-104386138D01*
X147318476Y-104340176D01*
X147272514Y-104294214D01*
D14*
X122606678Y-123932647D02*
X122606678Y-124909338D01*
X122664131Y-125024242D01*
X122721583Y-125081695D01*
X122836488Y-125139147D01*
X123066297Y-125139147D01*
X123181202Y-125081695D01*
X123238655Y-125024242D01*
X123296107Y-124909338D01*
X123296107Y-123932647D01*
X123813178Y-125081695D02*
X123985536Y-125139147D01*
X124272797Y-125139147D01*
X124387702Y-125081695D01*
X124445155Y-125024242D01*
X124502607Y-124909338D01*
X124502607Y-124794433D01*
X124445155Y-124679528D01*
X124387702Y-124622076D01*
X124272797Y-124564623D01*
X124042988Y-124507171D01*
X123928083Y-124449719D01*
X123870631Y-124392266D01*
X123813178Y-124277361D01*
X123813178Y-124162457D01*
X123870631Y-124047552D01*
X123928083Y-123990100D01*
X124042988Y-123932647D01*
X124330250Y-123932647D01*
X124502607Y-123990100D01*
X125249488Y-123932647D02*
X125364393Y-123932647D01*
X125479297Y-123990100D01*
X125536750Y-124047552D01*
X125594202Y-124162457D01*
X125651655Y-124392266D01*
X125651655Y-124679528D01*
X125594202Y-124909338D01*
X125536750Y-125024242D01*
X125479297Y-125081695D01*
X125364393Y-125139147D01*
X125249488Y-125139147D01*
X125134583Y-125081695D01*
X125077131Y-125024242D01*
X125019678Y-124909338D01*
X124962226Y-124679528D01*
X124962226Y-124392266D01*
X125019678Y-124162457D01*
X125077131Y-124047552D01*
X125134583Y-123990100D01*
X125249488Y-123932647D01*
X126398536Y-123932647D02*
X126513440Y-123932647D01*
X126628345Y-123990100D01*
X126685797Y-124047552D01*
X126743250Y-124162457D01*
X126800702Y-124392266D01*
X126800702Y-124679528D01*
X126743250Y-124909338D01*
X126685797Y-125024242D01*
X126628345Y-125081695D01*
X126513440Y-125139147D01*
X126398536Y-125139147D01*
X126283631Y-125081695D01*
X126226178Y-125024242D01*
X126168726Y-124909338D01*
X126111274Y-124679528D01*
X126111274Y-124392266D01*
X126168726Y-124162457D01*
X126226178Y-124047552D01*
X126283631Y-123990100D01*
X126398536Y-123932647D01*
X127375226Y-125139147D02*
X127605036Y-125139147D01*
X127719940Y-125081695D01*
X127777393Y-125024242D01*
X127892297Y-124851885D01*
X127949750Y-124622076D01*
X127949750Y-124162457D01*
X127892297Y-124047552D01*
X127834845Y-123990100D01*
X127719940Y-123932647D01*
X127490131Y-123932647D01*
X127375226Y-123990100D01*
X127317774Y-124047552D01*
X127260321Y-124162457D01*
X127260321Y-124449719D01*
X127317774Y-124564623D01*
X127375226Y-124622076D01*
X127490131Y-124679528D01*
X127719940Y-124679528D01*
X127834845Y-124622076D01*
X127892297Y-124564623D01*
X127949750Y-124449719D01*
X128351917Y-123932647D02*
X129098797Y-123932647D01*
X128696631Y-124392266D01*
X128868988Y-124392266D01*
X128983893Y-124449719D01*
X129041345Y-124507171D01*
X129098797Y-124622076D01*
X129098797Y-124909338D01*
X129041345Y-125024242D01*
X128983893Y-125081695D01*
X128868988Y-125139147D01*
X128524274Y-125139147D01*
X128409369Y-125081695D01*
X128351917Y-125024242D01*
%LPC*%
D26*
X177749200Y-128816100D03*
X119761000Y-128816100D03*
X177749200Y-79794100D03*
D27*
X124637800Y-130086100D03*
X124637800Y-127546100D03*
X127177800Y-130086100D03*
X127177800Y-127546100D03*
X129717800Y-130086100D03*
X129717800Y-127546100D03*
X132257800Y-130086100D03*
X132257800Y-127546100D03*
X134797800Y-130086100D03*
X134797800Y-127546100D03*
X137337800Y-130086100D03*
X137337800Y-127546100D03*
X139877800Y-130086100D03*
X139877800Y-127546100D03*
X142417800Y-130086100D03*
X142417800Y-127546100D03*
X144957800Y-130086100D03*
X144957800Y-127546100D03*
X147497800Y-130086100D03*
X147497800Y-127546100D03*
X150037800Y-130086100D03*
X150037800Y-127546100D03*
X152577800Y-130086100D03*
X152577800Y-127546100D03*
X155117800Y-130086100D03*
X155117800Y-127546100D03*
X157657800Y-130086100D03*
X157657800Y-127546100D03*
X160197800Y-130086100D03*
X160197800Y-127546100D03*
X162737800Y-130086100D03*
X162737800Y-127546100D03*
X165277800Y-130086100D03*
X165277800Y-127546100D03*
X167817800Y-130086100D03*
X167817800Y-127546100D03*
X170357800Y-130086100D03*
X170357800Y-127546100D03*
X172897800Y-130086100D03*
X172897800Y-127546100D03*
D28*
X165087300Y-85636100D03*
D29*
X162293300Y-85636100D03*
D30*
X161665300Y-90081100D03*
X165715300Y-90081100D03*
D31*
X171627800Y-80336100D03*
X171627800Y-78236100D03*
X174167800Y-124151100D03*
X174167800Y-122051100D03*
D32*
X171627800Y-124051100D03*
X171627800Y-122151100D03*
X169087800Y-80236100D03*
X169087800Y-78336100D03*
D28*
X175437800Y-116116100D03*
X172897800Y-116370100D03*
X170357800Y-116116100D03*
X167817800Y-116370100D03*
X165277800Y-116116100D03*
X160197800Y-116116100D03*
X157657800Y-116370100D03*
X155117800Y-116116100D03*
X152577800Y-116370100D03*
X150037800Y-116116100D03*
X144957800Y-116116100D03*
X142417800Y-116370100D03*
X139877800Y-116116100D03*
X137337800Y-116370100D03*
X134797800Y-116116100D03*
X165277800Y-107226100D03*
X167817800Y-106972100D03*
X170357800Y-107226100D03*
X172897800Y-106972100D03*
X175437800Y-107226100D03*
X124637800Y-107353100D03*
X127177800Y-107099100D03*
D29*
X129717800Y-107353100D03*
D33*
X173627800Y-83779500D03*
X177770800Y-87515700D03*
X170450000Y-87541100D03*
D34*
X178612800Y-93891100D03*
X178612800Y-96431100D03*
X178612800Y-98971100D03*
X178612800Y-101511100D03*
D35*
X147497800Y-91986100D03*
X150037800Y-91986100D03*
X157657800Y-91986100D03*
X157657800Y-86906100D03*
X150037800Y-86906100D03*
X147497800Y-86906100D03*
X147497800Y-100876100D03*
X150037800Y-100876100D03*
X157657800Y-100876100D03*
X157657800Y-95796100D03*
X150037800Y-95796100D03*
X147497800Y-95796100D03*
D28*
X141782800Y-95669100D03*
D29*
X141782800Y-98463100D03*
D28*
X141782800Y-88049100D03*
D29*
X141782800Y-90843100D03*
D28*
X148767800Y-80048100D03*
X146227800Y-79794100D03*
X143687800Y-80048100D03*
D29*
X141147800Y-79794100D03*
D28*
X147497800Y-106972100D03*
X150037800Y-107226100D03*
X152577800Y-106972100D03*
X155117800Y-107226100D03*
X157657800Y-106972100D03*
X160197800Y-107226100D03*
M02*
