%TF.GenerationSoftware,KiCad,Pcbnew,5.1.5+dfsg1-2~bpo10+1*%
%TF.CreationDate,2020-10-30T12:10:53+01:00*%
%TF.ProjectId,ms_auth_breakout,6d735f61-7574-4685-9f62-7265616b6f75,1.1.0*%
%TF.SameCoordinates,Original*%
%TF.FileFunction,Plated,1,2,PTH,Drill*%
%TF.FilePolarity,Positive*%
%FSLAX46Y46*%
G04 Gerber Fmt 4.6, Leading zero omitted, Abs format (unit mm)*
G04 Created by KiCad (PCBNEW 5.1.5+dfsg1-2~bpo10+1) date 2020-10-30 12:10:53 commit 8f6b4a8*
%MOMM*%
%LPD*%
G04 APERTURE LIST*
%TA.AperFunction,ViaDrill*%
%ADD10C,0.600000*%
%TD*%
%TA.AperFunction,ComponentDrill*%
%ADD11C,0.900000*%
%TD*%
%TA.AperFunction,ComponentDrill*%
%ADD12C,1.016000*%
%TD*%
%TA.AperFunction,ComponentDrill*%
%ADD13C,2.997200*%
%TD*%
%TA.AperFunction,ComponentDrill*%
%ADD14C,3.200000*%
%TD*%
G04 APERTURE END LIST*
D10*
X117652800Y-113576100D03*
X119557800Y-104051100D03*
X122097800Y-110401100D03*
X123685300Y-115798600D03*
X124637800Y-110401100D03*
X125907800Y-109766100D03*
X127495300Y-115798600D03*
X134797800Y-105321100D03*
X135432800Y-119291100D03*
X140512800Y-94208600D03*
X141782800Y-119291100D03*
X143052800Y-105321100D03*
X144957800Y-113258600D03*
X149402800Y-105321100D03*
X152577800Y-84366100D03*
X160197800Y-95796100D03*
X160197800Y-112941100D03*
X160388300Y-124371100D03*
X163372800Y-101511100D03*
X163372800Y-104051100D03*
X164325300Y-93256100D03*
X169087800Y-81826100D03*
D11*
%TO.C,RL2*%
X147497800Y-95796100D03*
X147497800Y-100876100D03*
X150037800Y-95796100D03*
X150037800Y-100876100D03*
X157657800Y-95796100D03*
X157657800Y-100876100D03*
%TO.C,RL1*%
X147497800Y-86906100D03*
X147497800Y-91986100D03*
X150037800Y-86906100D03*
X150037800Y-91986100D03*
X157657800Y-86906100D03*
X157657800Y-91986100D03*
D12*
%TO.C,J3*%
X134797800Y-116116100D03*
X137337800Y-116370100D03*
X139877800Y-116116100D03*
X142417800Y-116370100D03*
X144957800Y-116116100D03*
%TO.C,J8*%
X141147800Y-79794100D03*
X143687800Y-80048100D03*
X146227800Y-79794100D03*
X148767800Y-80048100D03*
%TO.C,J2*%
X150037800Y-116116100D03*
X152577800Y-116370100D03*
X155117800Y-116116100D03*
X157657800Y-116370100D03*
X160197800Y-116116100D03*
%TO.C,J4*%
X165277800Y-107226100D03*
X167817800Y-106972100D03*
X170357800Y-107226100D03*
X172897800Y-106972100D03*
X175437800Y-107226100D03*
%TO.C,J10*%
X162293300Y-85636100D03*
X165087300Y-85636100D03*
%TO.C,J11*%
X178612800Y-93891100D03*
X178612800Y-96431100D03*
X178612800Y-98971100D03*
X178612800Y-101511100D03*
%TO.C,J7*%
X124637800Y-107353100D03*
X127177800Y-107099100D03*
X129717800Y-107353100D03*
%TO.C,J1*%
X165277800Y-116116100D03*
X167817800Y-116370100D03*
X170357800Y-116116100D03*
X172897800Y-116370100D03*
X175437800Y-116116100D03*
%TO.C,J13*%
X141782800Y-95669100D03*
X141782800Y-98463100D03*
%TO.C,J5*%
X147497800Y-106972100D03*
X150037800Y-107226100D03*
X152577800Y-106972100D03*
X155117800Y-107226100D03*
X157657800Y-106972100D03*
X160197800Y-107226100D03*
%TO.C,J12*%
X141782800Y-88049100D03*
X141782800Y-90843100D03*
%TO.C,J14*%
X124637800Y-127546100D03*
X124637800Y-130086100D03*
X127177800Y-127546100D03*
X127177800Y-130086100D03*
X129717800Y-127546100D03*
X129717800Y-130086100D03*
X132257800Y-127546100D03*
X132257800Y-130086100D03*
X134797800Y-127546100D03*
X134797800Y-130086100D03*
X137337800Y-127546100D03*
X137337800Y-130086100D03*
X139877800Y-127546100D03*
X139877800Y-130086100D03*
X142417800Y-127546100D03*
X142417800Y-130086100D03*
X144957800Y-127546100D03*
X144957800Y-130086100D03*
X147497800Y-127546100D03*
X147497800Y-130086100D03*
X150037800Y-127546100D03*
X150037800Y-130086100D03*
X152577800Y-127546100D03*
X152577800Y-130086100D03*
X155117800Y-127546100D03*
X155117800Y-130086100D03*
X157657800Y-127546100D03*
X157657800Y-130086100D03*
X160197800Y-127546100D03*
X160197800Y-130086100D03*
X162737800Y-127546100D03*
X162737800Y-130086100D03*
X165277800Y-127546100D03*
X165277800Y-130086100D03*
X167817800Y-127546100D03*
X167817800Y-130086100D03*
X170357800Y-127546100D03*
X170357800Y-130086100D03*
X172897800Y-127546100D03*
X172897800Y-130086100D03*
D13*
%TO.C,J9*%
X173627800Y-83779500D03*
X177770800Y-87515700D03*
D14*
X170450000Y-87541100D03*
M02*
