%TF.GenerationSoftware,KiCad,Pcbnew,5.1.5+dfsg1-2~bpo10+1*%
%TF.CreationDate,2020-10-30T12:10:53+01:00*%
%TF.ProjectId,ms_auth_breakout,6d735f61-7574-4685-9f62-7265616b6f75,1.1.0*%
%TF.SameCoordinates,Original*%
%TF.FileFunction,Paste,Bot*%
%TF.FilePolarity,Positive*%
%FSLAX46Y46*%
G04 Gerber Fmt 4.6, Leading zero omitted, Abs format (unit mm)*
G04 Created by KiCad (PCBNEW 5.1.5+dfsg1-2~bpo10+1) date 2020-10-30 12:10:53 commit 8f6b4a8*
%MOMM*%
%LPD*%
G04 APERTURE LIST*
%ADD10C,0.050000*%
%ADD11R,0.660400X2.032000*%
%ADD12R,1.800000X1.600000*%
%ADD13R,0.800000X0.900000*%
%ADD14R,0.900000X0.800000*%
%ADD15R,2.400000X1.800000*%
%ADD16R,1.500000X1.300000*%
G04 APERTURE END LIST*
D10*
X119557800Y-133896100D02*
G75*
G02X115747800Y-130086100I0J3810000D01*
G01*
X119557800Y-133896100D02*
X177342800Y-133896100D01*
X181254400Y-130086100D02*
G75*
G02X177342800Y-133896100I-3860800J50800D01*
G01*
X181254400Y-130086100D02*
X181254400Y-79921100D01*
X177342800Y-76111100D02*
G75*
G02X181254400Y-79921100I50800J-3860800D01*
G01*
X177342800Y-76111100D02*
X140512800Y-76111100D01*
X137972800Y-78651100D02*
G75*
G02X140512800Y-76111100I2540000J0D01*
G01*
X137972800Y-78651100D02*
X137972800Y-100241100D01*
X135432800Y-102781100D02*
G75*
G03X137972800Y-100241100I0J2540000D01*
G01*
X135432800Y-102781100D02*
X118287800Y-102781100D01*
X115747800Y-105321100D02*
G75*
G02X118287800Y-102781100I2540000J0D01*
G01*
X115747800Y-105321100D02*
X115747800Y-130086100D01*
D11*
X119557800Y-112407700D03*
X119557800Y-118554500D03*
X120827800Y-112407700D03*
X122097800Y-112407700D03*
X120827800Y-118554500D03*
X122097800Y-118554500D03*
X123367800Y-112407700D03*
X123367800Y-118554500D03*
X124637800Y-112407700D03*
X124637800Y-118554500D03*
X125907800Y-112407700D03*
X127177800Y-112407700D03*
X125907800Y-118554500D03*
X127177800Y-118554500D03*
X128447800Y-112407700D03*
X128447800Y-118554500D03*
D12*
X152577800Y-81956100D03*
X152577800Y-79156100D03*
D13*
X140512800Y-82631100D03*
X139562800Y-84731100D03*
X141462800Y-84731100D03*
X143687800Y-82631100D03*
X142737800Y-84731100D03*
X144637800Y-84731100D03*
X146862800Y-82631100D03*
X145912800Y-84731100D03*
X147812800Y-84731100D03*
D14*
X120997800Y-105321100D03*
X123097800Y-106271100D03*
X123097800Y-104371100D03*
X160367800Y-92621100D03*
X162467800Y-93571100D03*
X162467800Y-91671100D03*
X160367800Y-97701100D03*
X162467800Y-98651100D03*
X162467800Y-96751100D03*
D15*
X152577800Y-100361100D03*
X152577800Y-96311100D03*
X152577800Y-91471100D03*
X152577800Y-87421100D03*
X118287800Y-105836100D03*
X118287800Y-109886100D03*
D16*
X133845300Y-124051100D03*
X133845300Y-122151100D03*
X137020300Y-124051100D03*
X137020300Y-122151100D03*
X143370300Y-124051100D03*
X143370300Y-122151100D03*
X140195300Y-124051100D03*
X140195300Y-122151100D03*
M02*
