%TF.GenerationSoftware,KiCad,Pcbnew,5.1.5+dfsg1-2~bpo10+1*%
%TF.CreationDate,2020-10-30T12:10:53+01:00*%
%TF.ProjectId,ms_auth_breakout,6d735f61-7574-4685-9f62-7265616b6f75,1.1.0*%
%TF.SameCoordinates,Original*%
%TF.FileFunction,Other,Fab,Bot*%
%FSLAX46Y46*%
G04 Gerber Fmt 4.6, Leading zero omitted, Abs format (unit mm)*
G04 Created by KiCad (PCBNEW 5.1.5+dfsg1-2~bpo10+1) date 2020-10-30 12:10:53 commit 8f6b4a8*
%MOMM*%
%LPD*%
G04 APERTURE LIST*
%ADD10C,0.050000*%
%ADD11C,0.100000*%
%ADD12C,0.101600*%
%ADD13C,0.152400*%
%ADD14C,0.203200*%
%ADD15C,0.096520*%
%ADD16C,0.115824*%
%ADD17C,0.121920*%
G04 APERTURE END LIST*
D10*
X119557800Y-133896100D02*
G75*
G02X115747800Y-130086100I0J3810000D01*
G01*
X119557800Y-133896100D02*
X177342800Y-133896100D01*
X181254400Y-130086100D02*
G75*
G02X177342800Y-133896100I-3860800J50800D01*
G01*
X181254400Y-130086100D02*
X181254400Y-79921100D01*
X177342800Y-76111100D02*
G75*
G02X181254400Y-79921100I50800J-3860800D01*
G01*
X177342800Y-76111100D02*
X140512800Y-76111100D01*
X137972800Y-78651100D02*
G75*
G02X140512800Y-76111100I2540000J0D01*
G01*
X137972800Y-78651100D02*
X137972800Y-100241100D01*
X135432800Y-102781100D02*
G75*
G03X137972800Y-100241100I0J2540000D01*
G01*
X135432800Y-102781100D02*
X118287800Y-102781100D01*
X115747800Y-105321100D02*
G75*
G02X118287800Y-102781100I2540000J0D01*
G01*
X115747800Y-105321100D02*
X115747800Y-130086100D01*
D11*
G36*
X119811800Y-113525300D02*
G01*
X119303800Y-113525300D01*
X119303800Y-112382300D01*
X119811800Y-112382300D01*
X119811800Y-113525300D01*
G37*
G36*
X121081800Y-113525300D02*
G01*
X120573800Y-113525300D01*
X120573800Y-112382300D01*
X121081800Y-112382300D01*
X121081800Y-113525300D01*
G37*
G36*
X122351800Y-113525300D02*
G01*
X121843800Y-113525300D01*
X121843800Y-112382300D01*
X122351800Y-112382300D01*
X122351800Y-113525300D01*
G37*
G36*
X123621800Y-113525300D02*
G01*
X123113800Y-113525300D01*
X123113800Y-112382300D01*
X123621800Y-112382300D01*
X123621800Y-113525300D01*
G37*
G36*
X119811800Y-118579900D02*
G01*
X119303800Y-118579900D01*
X119303800Y-117436900D01*
X119811800Y-117436900D01*
X119811800Y-118579900D01*
G37*
G36*
X121081800Y-118579900D02*
G01*
X120573800Y-118579900D01*
X120573800Y-117436900D01*
X121081800Y-117436900D01*
X121081800Y-118579900D01*
G37*
G36*
X122351800Y-118579900D02*
G01*
X121843800Y-118579900D01*
X121843800Y-117436900D01*
X122351800Y-117436900D01*
X122351800Y-118579900D01*
G37*
G36*
X123621800Y-118579900D02*
G01*
X123113800Y-118579900D01*
X123113800Y-117436900D01*
X123621800Y-117436900D01*
X123621800Y-118579900D01*
G37*
G36*
X128701800Y-113525300D02*
G01*
X128193800Y-113525300D01*
X128193800Y-112382300D01*
X128701800Y-112382300D01*
X128701800Y-113525300D01*
G37*
G36*
X127431800Y-113525300D02*
G01*
X126923800Y-113525300D01*
X126923800Y-112382300D01*
X127431800Y-112382300D01*
X127431800Y-113525300D01*
G37*
G36*
X126161800Y-113525300D02*
G01*
X125653800Y-113525300D01*
X125653800Y-112382300D01*
X126161800Y-112382300D01*
X126161800Y-113525300D01*
G37*
G36*
X124891800Y-118579900D02*
G01*
X124383800Y-118579900D01*
X124383800Y-117436900D01*
X124891800Y-117436900D01*
X124891800Y-118579900D01*
G37*
G36*
X126161800Y-118554500D02*
G01*
X125653800Y-118554500D01*
X125653800Y-117411500D01*
X126161800Y-117411500D01*
X126161800Y-118554500D01*
G37*
G36*
X127431800Y-118579900D02*
G01*
X126923800Y-118579900D01*
X126923800Y-117436900D01*
X127431800Y-117436900D01*
X127431800Y-118579900D01*
G37*
G36*
X128701800Y-118579900D02*
G01*
X128193800Y-118579900D01*
X128193800Y-117436900D01*
X128701800Y-117436900D01*
X128701800Y-118579900D01*
G37*
G36*
X124891800Y-113525300D02*
G01*
X124383800Y-113525300D01*
X124383800Y-112382300D01*
X124891800Y-112382300D01*
X124891800Y-113525300D01*
G37*
G36*
X153426900Y-81507800D02*
G01*
X153426900Y-82257900D01*
X151726900Y-82257900D01*
X151726900Y-81507800D01*
X153426900Y-81507800D01*
G37*
G36*
X153428700Y-78854300D02*
G01*
X153428700Y-79604400D01*
X151728700Y-79604400D01*
X151728700Y-78854300D01*
X153428700Y-78854300D01*
G37*
D12*
X153364800Y-79591100D02*
X153364800Y-81521100D01*
X151790800Y-79591100D02*
X151790800Y-81521100D01*
D13*
X141935200Y-83070700D02*
X139090400Y-83070700D01*
X141935200Y-84391500D02*
X141935200Y-83070700D01*
X139090400Y-84391500D02*
X141935200Y-84391500D01*
X139090400Y-83070700D02*
X139090400Y-84391500D01*
X145110200Y-83070700D02*
X142265400Y-83070700D01*
X145110200Y-84391500D02*
X145110200Y-83070700D01*
X142265400Y-84391500D02*
X145110200Y-84391500D01*
X142265400Y-83070700D02*
X142265400Y-84391500D01*
X148285200Y-83070700D02*
X145440400Y-83070700D01*
X148285200Y-84391500D02*
X148285200Y-83070700D01*
X145440400Y-84391500D02*
X148285200Y-84391500D01*
X145440400Y-83070700D02*
X145440400Y-84391500D01*
X121437400Y-103898700D02*
X121437400Y-106743500D01*
X122758200Y-103898700D02*
X121437400Y-103898700D01*
X122758200Y-106743500D02*
X122758200Y-103898700D01*
X121437400Y-106743500D02*
X122758200Y-106743500D01*
X160807400Y-91198700D02*
X160807400Y-94043500D01*
X162128200Y-91198700D02*
X160807400Y-91198700D01*
X162128200Y-94043500D02*
X162128200Y-91198700D01*
X160807400Y-94043500D02*
X162128200Y-94043500D01*
X160807400Y-96278700D02*
X160807400Y-99123500D01*
X162128200Y-96278700D02*
X160807400Y-96278700D01*
X162128200Y-99123500D02*
X162128200Y-96278700D01*
X160807400Y-99123500D02*
X162128200Y-99123500D01*
D11*
G36*
X153802800Y-96586100D02*
G01*
X153802800Y-97261100D01*
X151352800Y-97261100D01*
X151352800Y-96586100D01*
X153802800Y-96586100D01*
G37*
G36*
X151477800Y-101161100D02*
G01*
X151477800Y-100511100D01*
X153677800Y-100511100D01*
X153677800Y-101161100D01*
X151477800Y-101161100D01*
G37*
G36*
X153677800Y-95511100D02*
G01*
X153677800Y-96161100D01*
X151477800Y-96161100D01*
X151477800Y-95511100D01*
X153677800Y-95511100D01*
G37*
D14*
X153877800Y-96186100D02*
X151277800Y-96186100D01*
X153877800Y-100486100D02*
X153877800Y-96186100D01*
X151277800Y-100486100D02*
X153877800Y-100486100D01*
X151277800Y-96186100D02*
X151277800Y-100486100D01*
D11*
G36*
X153802800Y-87696100D02*
G01*
X153802800Y-88371100D01*
X151352800Y-88371100D01*
X151352800Y-87696100D01*
X153802800Y-87696100D01*
G37*
G36*
X151477800Y-92271100D02*
G01*
X151477800Y-91621100D01*
X153677800Y-91621100D01*
X153677800Y-92271100D01*
X151477800Y-92271100D01*
G37*
G36*
X153677800Y-86621100D02*
G01*
X153677800Y-87271100D01*
X151477800Y-87271100D01*
X151477800Y-86621100D01*
X153677800Y-86621100D01*
G37*
D14*
X153877800Y-87296100D02*
X151277800Y-87296100D01*
X153877800Y-91596100D02*
X153877800Y-87296100D01*
X151277800Y-91596100D02*
X153877800Y-91596100D01*
X151277800Y-87296100D02*
X151277800Y-91596100D01*
D11*
G36*
X117062800Y-109611100D02*
G01*
X117062800Y-108936100D01*
X119512800Y-108936100D01*
X119512800Y-109611100D01*
X117062800Y-109611100D01*
G37*
G36*
X119387800Y-105036100D02*
G01*
X119387800Y-105686100D01*
X117187800Y-105686100D01*
X117187800Y-105036100D01*
X119387800Y-105036100D01*
G37*
G36*
X117187800Y-110686100D02*
G01*
X117187800Y-110036100D01*
X119387800Y-110036100D01*
X119387800Y-110686100D01*
X117187800Y-110686100D01*
G37*
D14*
X116987800Y-110011100D02*
X119587800Y-110011100D01*
X116987800Y-105711100D02*
X116987800Y-110011100D01*
X119587800Y-105711100D02*
X116987800Y-105711100D01*
X119587800Y-110011100D02*
X119587800Y-105711100D01*
D11*
G36*
X134543800Y-122034300D02*
G01*
X134543800Y-122684300D01*
X133143800Y-122684300D01*
X133143800Y-122034300D01*
X134543800Y-122034300D01*
G37*
G36*
X134543800Y-123507500D02*
G01*
X134543800Y-124157500D01*
X133143800Y-124157500D01*
X133143800Y-123507500D01*
X134543800Y-123507500D01*
G37*
D13*
X134480300Y-122691100D02*
X134480300Y-123511100D01*
X133210300Y-122691100D02*
X133210300Y-123511100D01*
D11*
G36*
X137718800Y-122034300D02*
G01*
X137718800Y-122684300D01*
X136318800Y-122684300D01*
X136318800Y-122034300D01*
X137718800Y-122034300D01*
G37*
G36*
X137718800Y-123507500D02*
G01*
X137718800Y-124157500D01*
X136318800Y-124157500D01*
X136318800Y-123507500D01*
X137718800Y-123507500D01*
G37*
D13*
X137655300Y-122691100D02*
X137655300Y-123511100D01*
X136385300Y-122691100D02*
X136385300Y-123511100D01*
D11*
G36*
X144068800Y-122034300D02*
G01*
X144068800Y-122684300D01*
X142668800Y-122684300D01*
X142668800Y-122034300D01*
X144068800Y-122034300D01*
G37*
G36*
X144068800Y-123507500D02*
G01*
X144068800Y-124157500D01*
X142668800Y-124157500D01*
X142668800Y-123507500D01*
X144068800Y-123507500D01*
G37*
D13*
X144005300Y-122691100D02*
X144005300Y-123511100D01*
X142735300Y-122691100D02*
X142735300Y-123511100D01*
D11*
G36*
X140893800Y-122034300D02*
G01*
X140893800Y-122684300D01*
X139493800Y-122684300D01*
X139493800Y-122034300D01*
X140893800Y-122034300D01*
G37*
G36*
X140893800Y-123507500D02*
G01*
X140893800Y-124157500D01*
X139493800Y-124157500D01*
X139493800Y-123507500D01*
X140893800Y-123507500D01*
G37*
D13*
X140830300Y-122691100D02*
X140830300Y-123511100D01*
X139560300Y-122691100D02*
X139560300Y-123511100D01*
D15*
X150446014Y-76320504D02*
X151250347Y-76320504D01*
X149986395Y-76033242D02*
X150848180Y-75745981D01*
X150848180Y-76492862D01*
X150043847Y-76837576D02*
X150043847Y-77641909D01*
X151250347Y-77124838D01*
X150446014Y-78618600D02*
X151250347Y-78618600D01*
X150446014Y-78101528D02*
X151077990Y-78101528D01*
X151192895Y-78158981D01*
X151250347Y-78273885D01*
X151250347Y-78446242D01*
X151192895Y-78561147D01*
X151135442Y-78618600D01*
D16*
X139413342Y-81607660D02*
X138834222Y-81607660D01*
X138834222Y-81745545D01*
X138861800Y-81828277D01*
X138916954Y-81883431D01*
X138972108Y-81911008D01*
X139082417Y-81938585D01*
X139165148Y-81938585D01*
X139275457Y-81911008D01*
X139330611Y-81883431D01*
X139385765Y-81828277D01*
X139413342Y-81745545D01*
X139413342Y-81607660D01*
X139413342Y-82186780D02*
X138834222Y-82186780D01*
X139247880Y-82379820D01*
X138834222Y-82572860D01*
X139413342Y-82572860D01*
X139413342Y-82848631D02*
X138834222Y-82848631D01*
X139413342Y-83179557D01*
X138834222Y-83179557D01*
X138834222Y-83400174D02*
X138834222Y-83758677D01*
X139054840Y-83565637D01*
X139054840Y-83648368D01*
X139082417Y-83703522D01*
X139109994Y-83731100D01*
X139165148Y-83758677D01*
X139303034Y-83758677D01*
X139358188Y-83731100D01*
X139385765Y-83703522D01*
X139413342Y-83648368D01*
X139413342Y-83482905D01*
X139385765Y-83427751D01*
X139358188Y-83400174D01*
X138834222Y-84117180D02*
X138834222Y-84172334D01*
X138861800Y-84227488D01*
X138889377Y-84255065D01*
X138944531Y-84282642D01*
X139054840Y-84310220D01*
X139192725Y-84310220D01*
X139303034Y-84282642D01*
X139358188Y-84255065D01*
X139385765Y-84227488D01*
X139413342Y-84172334D01*
X139413342Y-84117180D01*
X139385765Y-84062025D01*
X139358188Y-84034448D01*
X139303034Y-84006871D01*
X139192725Y-83979294D01*
X139054840Y-83979294D01*
X138944531Y-84006871D01*
X138889377Y-84034448D01*
X138861800Y-84062025D01*
X138834222Y-84117180D01*
X138889377Y-84530837D02*
X138861800Y-84558414D01*
X138834222Y-84613568D01*
X138834222Y-84751454D01*
X138861800Y-84806608D01*
X138889377Y-84834185D01*
X138944531Y-84861762D01*
X138999685Y-84861762D01*
X139082417Y-84834185D01*
X139413342Y-84503260D01*
X139413342Y-84861762D01*
X138834222Y-85054802D02*
X138834222Y-85413305D01*
X139054840Y-85220265D01*
X139054840Y-85302997D01*
X139082417Y-85358151D01*
X139109994Y-85385728D01*
X139165148Y-85413305D01*
X139303034Y-85413305D01*
X139358188Y-85385728D01*
X139385765Y-85358151D01*
X139413342Y-85302997D01*
X139413342Y-85137534D01*
X139385765Y-85082380D01*
X139358188Y-85054802D01*
X139413342Y-85937271D02*
X139413342Y-85661500D01*
X138834222Y-85661500D01*
X142588342Y-81607660D02*
X142009222Y-81607660D01*
X142009222Y-81745545D01*
X142036800Y-81828277D01*
X142091954Y-81883431D01*
X142147108Y-81911008D01*
X142257417Y-81938585D01*
X142340148Y-81938585D01*
X142450457Y-81911008D01*
X142505611Y-81883431D01*
X142560765Y-81828277D01*
X142588342Y-81745545D01*
X142588342Y-81607660D01*
X142588342Y-82186780D02*
X142009222Y-82186780D01*
X142422880Y-82379820D01*
X142009222Y-82572860D01*
X142588342Y-82572860D01*
X142588342Y-82848631D02*
X142009222Y-82848631D01*
X142588342Y-83179557D01*
X142009222Y-83179557D01*
X142009222Y-83400174D02*
X142009222Y-83758677D01*
X142229840Y-83565637D01*
X142229840Y-83648368D01*
X142257417Y-83703522D01*
X142284994Y-83731100D01*
X142340148Y-83758677D01*
X142478034Y-83758677D01*
X142533188Y-83731100D01*
X142560765Y-83703522D01*
X142588342Y-83648368D01*
X142588342Y-83482905D01*
X142560765Y-83427751D01*
X142533188Y-83400174D01*
X142009222Y-84117180D02*
X142009222Y-84172334D01*
X142036800Y-84227488D01*
X142064377Y-84255065D01*
X142119531Y-84282642D01*
X142229840Y-84310220D01*
X142367725Y-84310220D01*
X142478034Y-84282642D01*
X142533188Y-84255065D01*
X142560765Y-84227488D01*
X142588342Y-84172334D01*
X142588342Y-84117180D01*
X142560765Y-84062025D01*
X142533188Y-84034448D01*
X142478034Y-84006871D01*
X142367725Y-83979294D01*
X142229840Y-83979294D01*
X142119531Y-84006871D01*
X142064377Y-84034448D01*
X142036800Y-84062025D01*
X142009222Y-84117180D01*
X142064377Y-84530837D02*
X142036800Y-84558414D01*
X142009222Y-84613568D01*
X142009222Y-84751454D01*
X142036800Y-84806608D01*
X142064377Y-84834185D01*
X142119531Y-84861762D01*
X142174685Y-84861762D01*
X142257417Y-84834185D01*
X142588342Y-84503260D01*
X142588342Y-84861762D01*
X142009222Y-85054802D02*
X142009222Y-85413305D01*
X142229840Y-85220265D01*
X142229840Y-85302997D01*
X142257417Y-85358151D01*
X142284994Y-85385728D01*
X142340148Y-85413305D01*
X142478034Y-85413305D01*
X142533188Y-85385728D01*
X142560765Y-85358151D01*
X142588342Y-85302997D01*
X142588342Y-85137534D01*
X142560765Y-85082380D01*
X142533188Y-85054802D01*
X142588342Y-85937271D02*
X142588342Y-85661500D01*
X142009222Y-85661500D01*
X145763342Y-81607660D02*
X145184222Y-81607660D01*
X145184222Y-81745545D01*
X145211800Y-81828277D01*
X145266954Y-81883431D01*
X145322108Y-81911008D01*
X145432417Y-81938585D01*
X145515148Y-81938585D01*
X145625457Y-81911008D01*
X145680611Y-81883431D01*
X145735765Y-81828277D01*
X145763342Y-81745545D01*
X145763342Y-81607660D01*
X145763342Y-82186780D02*
X145184222Y-82186780D01*
X145597880Y-82379820D01*
X145184222Y-82572860D01*
X145763342Y-82572860D01*
X145763342Y-82848631D02*
X145184222Y-82848631D01*
X145763342Y-83179557D01*
X145184222Y-83179557D01*
X145184222Y-83400174D02*
X145184222Y-83758677D01*
X145404840Y-83565637D01*
X145404840Y-83648368D01*
X145432417Y-83703522D01*
X145459994Y-83731100D01*
X145515148Y-83758677D01*
X145653034Y-83758677D01*
X145708188Y-83731100D01*
X145735765Y-83703522D01*
X145763342Y-83648368D01*
X145763342Y-83482905D01*
X145735765Y-83427751D01*
X145708188Y-83400174D01*
X145184222Y-84117180D02*
X145184222Y-84172334D01*
X145211800Y-84227488D01*
X145239377Y-84255065D01*
X145294531Y-84282642D01*
X145404840Y-84310220D01*
X145542725Y-84310220D01*
X145653034Y-84282642D01*
X145708188Y-84255065D01*
X145735765Y-84227488D01*
X145763342Y-84172334D01*
X145763342Y-84117180D01*
X145735765Y-84062025D01*
X145708188Y-84034448D01*
X145653034Y-84006871D01*
X145542725Y-83979294D01*
X145404840Y-83979294D01*
X145294531Y-84006871D01*
X145239377Y-84034448D01*
X145211800Y-84062025D01*
X145184222Y-84117180D01*
X145239377Y-84530837D02*
X145211800Y-84558414D01*
X145184222Y-84613568D01*
X145184222Y-84751454D01*
X145211800Y-84806608D01*
X145239377Y-84834185D01*
X145294531Y-84861762D01*
X145349685Y-84861762D01*
X145432417Y-84834185D01*
X145763342Y-84503260D01*
X145763342Y-84861762D01*
X145184222Y-85054802D02*
X145184222Y-85413305D01*
X145404840Y-85220265D01*
X145404840Y-85302997D01*
X145432417Y-85358151D01*
X145459994Y-85385728D01*
X145515148Y-85413305D01*
X145653034Y-85413305D01*
X145708188Y-85385728D01*
X145735765Y-85358151D01*
X145763342Y-85302997D01*
X145763342Y-85137534D01*
X145735765Y-85082380D01*
X145708188Y-85054802D01*
X145763342Y-85937271D02*
X145763342Y-85661500D01*
X145184222Y-85661500D01*
X124221240Y-107523642D02*
X124221240Y-106944522D01*
X124083354Y-106944522D01*
X124000622Y-106972100D01*
X123945468Y-107027254D01*
X123917891Y-107082408D01*
X123890314Y-107192717D01*
X123890314Y-107275448D01*
X123917891Y-107385757D01*
X123945468Y-107440911D01*
X124000622Y-107496065D01*
X124083354Y-107523642D01*
X124221240Y-107523642D01*
X123642120Y-107523642D02*
X123642120Y-106944522D01*
X123449080Y-107358180D01*
X123256040Y-106944522D01*
X123256040Y-107523642D01*
X122980268Y-107523642D02*
X122980268Y-106944522D01*
X122649342Y-107523642D01*
X122649342Y-106944522D01*
X122428725Y-106944522D02*
X122070222Y-106944522D01*
X122263262Y-107165140D01*
X122180531Y-107165140D01*
X122125377Y-107192717D01*
X122097800Y-107220294D01*
X122070222Y-107275448D01*
X122070222Y-107413334D01*
X122097800Y-107468488D01*
X122125377Y-107496065D01*
X122180531Y-107523642D01*
X122345994Y-107523642D01*
X122401148Y-107496065D01*
X122428725Y-107468488D01*
X121711720Y-106944522D02*
X121656565Y-106944522D01*
X121601411Y-106972100D01*
X121573834Y-106999677D01*
X121546257Y-107054831D01*
X121518680Y-107165140D01*
X121518680Y-107303025D01*
X121546257Y-107413334D01*
X121573834Y-107468488D01*
X121601411Y-107496065D01*
X121656565Y-107523642D01*
X121711720Y-107523642D01*
X121766874Y-107496065D01*
X121794451Y-107468488D01*
X121822028Y-107413334D01*
X121849605Y-107303025D01*
X121849605Y-107165140D01*
X121822028Y-107054831D01*
X121794451Y-106999677D01*
X121766874Y-106972100D01*
X121711720Y-106944522D01*
X121298062Y-106999677D02*
X121270485Y-106972100D01*
X121215331Y-106944522D01*
X121077445Y-106944522D01*
X121022291Y-106972100D01*
X120994714Y-106999677D01*
X120967137Y-107054831D01*
X120967137Y-107109985D01*
X120994714Y-107192717D01*
X121325640Y-107523642D01*
X120967137Y-107523642D01*
X120774097Y-106944522D02*
X120415594Y-106944522D01*
X120608634Y-107165140D01*
X120525902Y-107165140D01*
X120470748Y-107192717D01*
X120443171Y-107220294D01*
X120415594Y-107275448D01*
X120415594Y-107413334D01*
X120443171Y-107468488D01*
X120470748Y-107496065D01*
X120525902Y-107523642D01*
X120691365Y-107523642D01*
X120746520Y-107496065D01*
X120774097Y-107468488D01*
X119891628Y-107523642D02*
X120167400Y-107523642D01*
X120167400Y-106944522D01*
D17*
X163591240Y-94823642D02*
X163591240Y-94244522D01*
X163453354Y-94244522D01*
X163370622Y-94272100D01*
X163315468Y-94327254D01*
X163287891Y-94382408D01*
X163260314Y-94492717D01*
X163260314Y-94575448D01*
X163287891Y-94685757D01*
X163315468Y-94740911D01*
X163370622Y-94796065D01*
X163453354Y-94823642D01*
X163591240Y-94823642D01*
X163012120Y-94823642D02*
X163012120Y-94244522D01*
X162819080Y-94658180D01*
X162626040Y-94244522D01*
X162626040Y-94823642D01*
X162350268Y-94823642D02*
X162350268Y-94244522D01*
X162019342Y-94823642D01*
X162019342Y-94244522D01*
X161798725Y-94244522D02*
X161440222Y-94244522D01*
X161633262Y-94465140D01*
X161550531Y-94465140D01*
X161495377Y-94492717D01*
X161467800Y-94520294D01*
X161440222Y-94575448D01*
X161440222Y-94713334D01*
X161467800Y-94768488D01*
X161495377Y-94796065D01*
X161550531Y-94823642D01*
X161715994Y-94823642D01*
X161771148Y-94796065D01*
X161798725Y-94768488D01*
X161081720Y-94244522D02*
X161026565Y-94244522D01*
X160971411Y-94272100D01*
X160943834Y-94299677D01*
X160916257Y-94354831D01*
X160888680Y-94465140D01*
X160888680Y-94603025D01*
X160916257Y-94713334D01*
X160943834Y-94768488D01*
X160971411Y-94796065D01*
X161026565Y-94823642D01*
X161081720Y-94823642D01*
X161136874Y-94796065D01*
X161164451Y-94768488D01*
X161192028Y-94713334D01*
X161219605Y-94603025D01*
X161219605Y-94465140D01*
X161192028Y-94354831D01*
X161164451Y-94299677D01*
X161136874Y-94272100D01*
X161081720Y-94244522D01*
X160668062Y-94299677D02*
X160640485Y-94272100D01*
X160585331Y-94244522D01*
X160447445Y-94244522D01*
X160392291Y-94272100D01*
X160364714Y-94299677D01*
X160337137Y-94354831D01*
X160337137Y-94409985D01*
X160364714Y-94492717D01*
X160695640Y-94823642D01*
X160337137Y-94823642D01*
X160144097Y-94244522D02*
X159785594Y-94244522D01*
X159978634Y-94465140D01*
X159895902Y-94465140D01*
X159840748Y-94492717D01*
X159813171Y-94520294D01*
X159785594Y-94575448D01*
X159785594Y-94713334D01*
X159813171Y-94768488D01*
X159840748Y-94796065D01*
X159895902Y-94823642D01*
X160061365Y-94823642D01*
X160116520Y-94796065D01*
X160144097Y-94768488D01*
X159261628Y-94823642D02*
X159537400Y-94823642D01*
X159537400Y-94244522D01*
X163591240Y-99903642D02*
X163591240Y-99324522D01*
X163453354Y-99324522D01*
X163370622Y-99352100D01*
X163315468Y-99407254D01*
X163287891Y-99462408D01*
X163260314Y-99572717D01*
X163260314Y-99655448D01*
X163287891Y-99765757D01*
X163315468Y-99820911D01*
X163370622Y-99876065D01*
X163453354Y-99903642D01*
X163591240Y-99903642D01*
X163012120Y-99903642D02*
X163012120Y-99324522D01*
X162819080Y-99738180D01*
X162626040Y-99324522D01*
X162626040Y-99903642D01*
X162350268Y-99903642D02*
X162350268Y-99324522D01*
X162019342Y-99903642D01*
X162019342Y-99324522D01*
X161798725Y-99324522D02*
X161440222Y-99324522D01*
X161633262Y-99545140D01*
X161550531Y-99545140D01*
X161495377Y-99572717D01*
X161467800Y-99600294D01*
X161440222Y-99655448D01*
X161440222Y-99793334D01*
X161467800Y-99848488D01*
X161495377Y-99876065D01*
X161550531Y-99903642D01*
X161715994Y-99903642D01*
X161771148Y-99876065D01*
X161798725Y-99848488D01*
X161081720Y-99324522D02*
X161026565Y-99324522D01*
X160971411Y-99352100D01*
X160943834Y-99379677D01*
X160916257Y-99434831D01*
X160888680Y-99545140D01*
X160888680Y-99683025D01*
X160916257Y-99793334D01*
X160943834Y-99848488D01*
X160971411Y-99876065D01*
X161026565Y-99903642D01*
X161081720Y-99903642D01*
X161136874Y-99876065D01*
X161164451Y-99848488D01*
X161192028Y-99793334D01*
X161219605Y-99683025D01*
X161219605Y-99545140D01*
X161192028Y-99434831D01*
X161164451Y-99379677D01*
X161136874Y-99352100D01*
X161081720Y-99324522D01*
X160668062Y-99379677D02*
X160640485Y-99352100D01*
X160585331Y-99324522D01*
X160447445Y-99324522D01*
X160392291Y-99352100D01*
X160364714Y-99379677D01*
X160337137Y-99434831D01*
X160337137Y-99489985D01*
X160364714Y-99572717D01*
X160695640Y-99903642D01*
X160337137Y-99903642D01*
X160144097Y-99324522D02*
X159785594Y-99324522D01*
X159978634Y-99545140D01*
X159895902Y-99545140D01*
X159840748Y-99572717D01*
X159813171Y-99600294D01*
X159785594Y-99655448D01*
X159785594Y-99793334D01*
X159813171Y-99848488D01*
X159840748Y-99876065D01*
X159895902Y-99903642D01*
X160061365Y-99903642D01*
X160116520Y-99876065D01*
X160144097Y-99848488D01*
X159261628Y-99903642D02*
X159537400Y-99903642D01*
X159537400Y-99324522D01*
D15*
X155695347Y-79531790D02*
X154488847Y-79531790D01*
X154488847Y-79819052D01*
X154546300Y-79991409D01*
X154661204Y-80106314D01*
X154776109Y-80163766D01*
X155005919Y-80221219D01*
X155178276Y-80221219D01*
X155408085Y-80163766D01*
X155522990Y-80106314D01*
X155637895Y-79991409D01*
X155695347Y-79819052D01*
X155695347Y-79531790D01*
X155695347Y-80738290D02*
X154488847Y-80738290D01*
X154488847Y-81542623D02*
X154488847Y-81772433D01*
X154546300Y-81887338D01*
X154661204Y-82002242D01*
X154891014Y-82059695D01*
X155293180Y-82059695D01*
X155522990Y-82002242D01*
X155637895Y-81887338D01*
X155695347Y-81772433D01*
X155695347Y-81542623D01*
X155637895Y-81427719D01*
X155522990Y-81312814D01*
X155293180Y-81255362D01*
X154891014Y-81255362D01*
X154661204Y-81312814D01*
X154546300Y-81427719D01*
X154488847Y-81542623D01*
X155695347Y-82576766D02*
X154488847Y-82576766D01*
X154488847Y-82864028D01*
X154546300Y-83036385D01*
X154661204Y-83151290D01*
X154776109Y-83208742D01*
X155005919Y-83266195D01*
X155178276Y-83266195D01*
X155408085Y-83208742D01*
X155522990Y-83151290D01*
X155637895Y-83036385D01*
X155695347Y-82864028D01*
X155695347Y-82576766D01*
X155063371Y-83783266D02*
X155063371Y-84185433D01*
X155695347Y-84357790D02*
X155695347Y-83783266D01*
X154488847Y-83783266D01*
X154488847Y-84357790D01*
X155235728Y-84874862D02*
X155235728Y-85794100D01*
X155695347Y-86368623D02*
X154488847Y-86368623D01*
X154488847Y-86655885D01*
X154546300Y-86828242D01*
X154661204Y-86943147D01*
X154776109Y-87000600D01*
X155005919Y-87058052D01*
X155178276Y-87058052D01*
X155408085Y-87000600D01*
X155522990Y-86943147D01*
X155637895Y-86828242D01*
X155695347Y-86655885D01*
X155695347Y-86368623D01*
X154488847Y-87804933D02*
X154488847Y-88034742D01*
X154546300Y-88149647D01*
X154661204Y-88264552D01*
X154891014Y-88322004D01*
X155293180Y-88322004D01*
X155522990Y-88264552D01*
X155637895Y-88149647D01*
X155695347Y-88034742D01*
X155695347Y-87804933D01*
X155637895Y-87690028D01*
X155522990Y-87575123D01*
X155293180Y-87517671D01*
X154891014Y-87517671D01*
X154661204Y-87575123D01*
X154546300Y-87690028D01*
X154488847Y-87804933D01*
X155235728Y-88839076D02*
X155235728Y-89758314D01*
X154603752Y-90275385D02*
X154546300Y-90332838D01*
X154488847Y-90447742D01*
X154488847Y-90735004D01*
X154546300Y-90849909D01*
X154603752Y-90907362D01*
X154718657Y-90964814D01*
X154833561Y-90964814D01*
X155005919Y-90907362D01*
X155695347Y-90217933D01*
X155695347Y-90964814D01*
X155695347Y-92113862D02*
X155695347Y-91424433D01*
X155695347Y-91769147D02*
X154488847Y-91769147D01*
X154661204Y-91654242D01*
X154776109Y-91539338D01*
X154833561Y-91424433D01*
X154891014Y-93148004D02*
X155695347Y-93148004D01*
X154431395Y-92860742D02*
X155293180Y-92573481D01*
X155293180Y-93320362D01*
X155350633Y-93722528D02*
X155350633Y-94297052D01*
X155695347Y-93607623D02*
X154488847Y-94009790D01*
X155695347Y-94411957D01*
X155580442Y-95503552D02*
X155637895Y-95446100D01*
X155695347Y-95273742D01*
X155695347Y-95158838D01*
X155637895Y-94986481D01*
X155522990Y-94871576D01*
X155408085Y-94814123D01*
X155178276Y-94756671D01*
X155005919Y-94756671D01*
X154776109Y-94814123D01*
X154661204Y-94871576D01*
X154546300Y-94986481D01*
X154488847Y-95158838D01*
X154488847Y-95273742D01*
X154546300Y-95446100D01*
X154603752Y-95503552D01*
X155695347Y-70641790D02*
X154488847Y-70641790D01*
X154488847Y-70929052D01*
X154546300Y-71101409D01*
X154661204Y-71216314D01*
X154776109Y-71273766D01*
X155005919Y-71331219D01*
X155178276Y-71331219D01*
X155408085Y-71273766D01*
X155522990Y-71216314D01*
X155637895Y-71101409D01*
X155695347Y-70929052D01*
X155695347Y-70641790D01*
X155695347Y-71848290D02*
X154488847Y-71848290D01*
X154488847Y-72652623D02*
X154488847Y-72882433D01*
X154546300Y-72997338D01*
X154661204Y-73112242D01*
X154891014Y-73169695D01*
X155293180Y-73169695D01*
X155522990Y-73112242D01*
X155637895Y-72997338D01*
X155695347Y-72882433D01*
X155695347Y-72652623D01*
X155637895Y-72537719D01*
X155522990Y-72422814D01*
X155293180Y-72365362D01*
X154891014Y-72365362D01*
X154661204Y-72422814D01*
X154546300Y-72537719D01*
X154488847Y-72652623D01*
X155695347Y-73686766D02*
X154488847Y-73686766D01*
X154488847Y-73974028D01*
X154546300Y-74146385D01*
X154661204Y-74261290D01*
X154776109Y-74318742D01*
X155005919Y-74376195D01*
X155178276Y-74376195D01*
X155408085Y-74318742D01*
X155522990Y-74261290D01*
X155637895Y-74146385D01*
X155695347Y-73974028D01*
X155695347Y-73686766D01*
X155063371Y-74893266D02*
X155063371Y-75295433D01*
X155695347Y-75467790D02*
X155695347Y-74893266D01*
X154488847Y-74893266D01*
X154488847Y-75467790D01*
X155235728Y-75984862D02*
X155235728Y-76904100D01*
X155695347Y-77478623D02*
X154488847Y-77478623D01*
X154488847Y-77765885D01*
X154546300Y-77938242D01*
X154661204Y-78053147D01*
X154776109Y-78110600D01*
X155005919Y-78168052D01*
X155178276Y-78168052D01*
X155408085Y-78110600D01*
X155522990Y-78053147D01*
X155637895Y-77938242D01*
X155695347Y-77765885D01*
X155695347Y-77478623D01*
X154488847Y-78914933D02*
X154488847Y-79144742D01*
X154546300Y-79259647D01*
X154661204Y-79374552D01*
X154891014Y-79432004D01*
X155293180Y-79432004D01*
X155522990Y-79374552D01*
X155637895Y-79259647D01*
X155695347Y-79144742D01*
X155695347Y-78914933D01*
X155637895Y-78800028D01*
X155522990Y-78685123D01*
X155293180Y-78627671D01*
X154891014Y-78627671D01*
X154661204Y-78685123D01*
X154546300Y-78800028D01*
X154488847Y-78914933D01*
X155235728Y-79949076D02*
X155235728Y-80868314D01*
X154603752Y-81385385D02*
X154546300Y-81442838D01*
X154488847Y-81557742D01*
X154488847Y-81845004D01*
X154546300Y-81959909D01*
X154603752Y-82017362D01*
X154718657Y-82074814D01*
X154833561Y-82074814D01*
X155005919Y-82017362D01*
X155695347Y-81327933D01*
X155695347Y-82074814D01*
X155695347Y-83223862D02*
X155695347Y-82534433D01*
X155695347Y-82879147D02*
X154488847Y-82879147D01*
X154661204Y-82764242D01*
X154776109Y-82649338D01*
X154833561Y-82534433D01*
X154891014Y-84258004D02*
X155695347Y-84258004D01*
X154431395Y-83970742D02*
X155293180Y-83683481D01*
X155293180Y-84430362D01*
X155350633Y-84832528D02*
X155350633Y-85407052D01*
X155695347Y-84717623D02*
X154488847Y-85119790D01*
X155695347Y-85521957D01*
X155580442Y-86613552D02*
X155637895Y-86556100D01*
X155695347Y-86383742D01*
X155695347Y-86268838D01*
X155637895Y-86096481D01*
X155522990Y-85981576D01*
X155408085Y-85924123D01*
X155178276Y-85866671D01*
X155005919Y-85866671D01*
X154776109Y-85924123D01*
X154661204Y-85981576D01*
X154546300Y-86096481D01*
X154488847Y-86268838D01*
X154488847Y-86383742D01*
X154546300Y-86556100D01*
X154603752Y-86613552D01*
D12*
X115055347Y-94133488D02*
X113848847Y-94133488D01*
X113848847Y-94420750D01*
X113906300Y-94593107D01*
X114021204Y-94708012D01*
X114136109Y-94765464D01*
X114365919Y-94822917D01*
X114538276Y-94822917D01*
X114768085Y-94765464D01*
X114882990Y-94708012D01*
X114997895Y-94593107D01*
X115055347Y-94420750D01*
X115055347Y-94133488D01*
X115055347Y-95339988D02*
X113848847Y-95339988D01*
X113848847Y-96144321D02*
X113848847Y-96374131D01*
X113906300Y-96489036D01*
X114021204Y-96603940D01*
X114251014Y-96661393D01*
X114653180Y-96661393D01*
X114882990Y-96603940D01*
X114997895Y-96489036D01*
X115055347Y-96374131D01*
X115055347Y-96144321D01*
X114997895Y-96029417D01*
X114882990Y-95914512D01*
X114653180Y-95857060D01*
X114251014Y-95857060D01*
X114021204Y-95914512D01*
X113906300Y-96029417D01*
X113848847Y-96144321D01*
X115055347Y-97178464D02*
X113848847Y-97178464D01*
X113848847Y-97465726D01*
X113906300Y-97638083D01*
X114021204Y-97752988D01*
X114136109Y-97810440D01*
X114365919Y-97867893D01*
X114538276Y-97867893D01*
X114768085Y-97810440D01*
X114882990Y-97752988D01*
X114997895Y-97638083D01*
X115055347Y-97465726D01*
X115055347Y-97178464D01*
X114423371Y-98384964D02*
X114423371Y-98787131D01*
X115055347Y-98959488D02*
X115055347Y-98384964D01*
X113848847Y-98384964D01*
X113848847Y-98959488D01*
X114595728Y-99476560D02*
X114595728Y-100395798D01*
X115055347Y-100970321D02*
X113848847Y-100970321D01*
X113848847Y-101257583D01*
X113906300Y-101429940D01*
X114021204Y-101544845D01*
X114136109Y-101602298D01*
X114365919Y-101659750D01*
X114538276Y-101659750D01*
X114768085Y-101602298D01*
X114882990Y-101544845D01*
X114997895Y-101429940D01*
X115055347Y-101257583D01*
X115055347Y-100970321D01*
X113848847Y-102406631D02*
X113848847Y-102636440D01*
X113906300Y-102751345D01*
X114021204Y-102866250D01*
X114251014Y-102923702D01*
X114653180Y-102923702D01*
X114882990Y-102866250D01*
X114997895Y-102751345D01*
X115055347Y-102636440D01*
X115055347Y-102406631D01*
X114997895Y-102291726D01*
X114882990Y-102176821D01*
X114653180Y-102119369D01*
X114251014Y-102119369D01*
X114021204Y-102176821D01*
X113906300Y-102291726D01*
X113848847Y-102406631D01*
X114595728Y-103440774D02*
X114595728Y-104360012D01*
X113963752Y-104877083D02*
X113906300Y-104934536D01*
X113848847Y-105049440D01*
X113848847Y-105336702D01*
X113906300Y-105451607D01*
X113963752Y-105509060D01*
X114078657Y-105566512D01*
X114193561Y-105566512D01*
X114365919Y-105509060D01*
X115055347Y-104819631D01*
X115055347Y-105566512D01*
X115055347Y-106715560D02*
X115055347Y-106026131D01*
X115055347Y-106370845D02*
X113848847Y-106370845D01*
X114021204Y-106255940D01*
X114136109Y-106141036D01*
X114193561Y-106026131D01*
X114251014Y-107749702D02*
X115055347Y-107749702D01*
X113791395Y-107462440D02*
X114653180Y-107175179D01*
X114653180Y-107922060D01*
X114710633Y-108324226D02*
X114710633Y-108898750D01*
X115055347Y-108209321D02*
X113848847Y-108611488D01*
X115055347Y-109013655D01*
X114940442Y-110105250D02*
X114997895Y-110047798D01*
X115055347Y-109875440D01*
X115055347Y-109760536D01*
X114997895Y-109588179D01*
X114882990Y-109473274D01*
X114768085Y-109415821D01*
X114538276Y-109358369D01*
X114365919Y-109358369D01*
X114136109Y-109415821D01*
X114021204Y-109473274D01*
X113906300Y-109588179D01*
X113848847Y-109760536D01*
X113848847Y-109875440D01*
X113906300Y-110047798D01*
X113963752Y-110105250D01*
D15*
X136327847Y-120047814D02*
X136327847Y-119358385D01*
X136327847Y-119703100D02*
X135121347Y-119703100D01*
X135293704Y-119588195D01*
X135408609Y-119473290D01*
X135466061Y-119358385D01*
X135121347Y-120794695D02*
X135121347Y-120909600D01*
X135178800Y-121024504D01*
X135236252Y-121081957D01*
X135351157Y-121139409D01*
X135580966Y-121196862D01*
X135868228Y-121196862D01*
X136098038Y-121139409D01*
X136212942Y-121081957D01*
X136270395Y-121024504D01*
X136327847Y-120909600D01*
X136327847Y-120794695D01*
X136270395Y-120679790D01*
X136212942Y-120622338D01*
X136098038Y-120564885D01*
X135868228Y-120507433D01*
X135580966Y-120507433D01*
X135351157Y-120564885D01*
X135236252Y-120622338D01*
X135178800Y-120679790D01*
X135121347Y-120794695D01*
X136327847Y-121713933D02*
X135121347Y-121713933D01*
X135868228Y-121828838D02*
X136327847Y-122173552D01*
X135523514Y-122173552D02*
X135983133Y-121713933D01*
X139502847Y-120047814D02*
X139502847Y-119358385D01*
X139502847Y-119703100D02*
X138296347Y-119703100D01*
X138468704Y-119588195D01*
X138583609Y-119473290D01*
X138641061Y-119358385D01*
X138296347Y-120794695D02*
X138296347Y-120909600D01*
X138353800Y-121024504D01*
X138411252Y-121081957D01*
X138526157Y-121139409D01*
X138755966Y-121196862D01*
X139043228Y-121196862D01*
X139273038Y-121139409D01*
X139387942Y-121081957D01*
X139445395Y-121024504D01*
X139502847Y-120909600D01*
X139502847Y-120794695D01*
X139445395Y-120679790D01*
X139387942Y-120622338D01*
X139273038Y-120564885D01*
X139043228Y-120507433D01*
X138755966Y-120507433D01*
X138526157Y-120564885D01*
X138411252Y-120622338D01*
X138353800Y-120679790D01*
X138296347Y-120794695D01*
X139502847Y-121713933D02*
X138296347Y-121713933D01*
X139043228Y-121828838D02*
X139502847Y-122173552D01*
X138698514Y-122173552D02*
X139158133Y-121713933D01*
X145852847Y-120047814D02*
X145852847Y-119358385D01*
X145852847Y-119703100D02*
X144646347Y-119703100D01*
X144818704Y-119588195D01*
X144933609Y-119473290D01*
X144991061Y-119358385D01*
X144646347Y-120794695D02*
X144646347Y-120909600D01*
X144703800Y-121024504D01*
X144761252Y-121081957D01*
X144876157Y-121139409D01*
X145105966Y-121196862D01*
X145393228Y-121196862D01*
X145623038Y-121139409D01*
X145737942Y-121081957D01*
X145795395Y-121024504D01*
X145852847Y-120909600D01*
X145852847Y-120794695D01*
X145795395Y-120679790D01*
X145737942Y-120622338D01*
X145623038Y-120564885D01*
X145393228Y-120507433D01*
X145105966Y-120507433D01*
X144876157Y-120564885D01*
X144761252Y-120622338D01*
X144703800Y-120679790D01*
X144646347Y-120794695D01*
X145852847Y-121713933D02*
X144646347Y-121713933D01*
X145393228Y-121828838D02*
X145852847Y-122173552D01*
X145048514Y-122173552D02*
X145508133Y-121713933D01*
X142677847Y-120047814D02*
X142677847Y-119358385D01*
X142677847Y-119703100D02*
X141471347Y-119703100D01*
X141643704Y-119588195D01*
X141758609Y-119473290D01*
X141816061Y-119358385D01*
X141471347Y-120794695D02*
X141471347Y-120909600D01*
X141528800Y-121024504D01*
X141586252Y-121081957D01*
X141701157Y-121139409D01*
X141930966Y-121196862D01*
X142218228Y-121196862D01*
X142448038Y-121139409D01*
X142562942Y-121081957D01*
X142620395Y-121024504D01*
X142677847Y-120909600D01*
X142677847Y-120794695D01*
X142620395Y-120679790D01*
X142562942Y-120622338D01*
X142448038Y-120564885D01*
X142218228Y-120507433D01*
X141930966Y-120507433D01*
X141701157Y-120564885D01*
X141586252Y-120622338D01*
X141528800Y-120679790D01*
X141471347Y-120794695D01*
X142677847Y-121713933D02*
X141471347Y-121713933D01*
X142218228Y-121828838D02*
X142677847Y-122173552D01*
X141873514Y-122173552D02*
X142333133Y-121713933D01*
M02*
