%TF.GenerationSoftware,KiCad,Pcbnew,5.1.5+dfsg1-2~bpo10+1*%
%TF.CreationDate,2020-10-30T12:10:53+01:00*%
%TF.ProjectId,ms_auth_breakout,6d735f61-7574-4685-9f62-7265616b6f75,1.1.0*%
%TF.SameCoordinates,Original*%
%TF.FileFunction,Other,Fab,Top*%
%FSLAX46Y46*%
G04 Gerber Fmt 4.6, Leading zero omitted, Abs format (unit mm)*
G04 Created by KiCad (PCBNEW 5.1.5+dfsg1-2~bpo10+1) date 2020-10-30 12:10:53 commit 8f6b4a8*
%MOMM*%
%LPD*%
G04 APERTURE LIST*
%ADD10C,0.050000*%
%ADD11C,0.254000*%
%ADD12C,0.142240*%
%ADD13C,0.100000*%
%ADD14C,0.203200*%
%ADD15C,0.101600*%
%ADD16C,0.152400*%
%ADD17C,0.096520*%
%ADD18C,0.115824*%
G04 APERTURE END LIST*
D10*
X119557800Y-133896100D02*
G75*
G02X115747800Y-130086100I0J3810000D01*
G01*
X119557800Y-133896100D02*
X177342800Y-133896100D01*
X181254400Y-130086100D02*
G75*
G02X177342800Y-133896100I-3860800J50800D01*
G01*
X181254400Y-130086100D02*
X181254400Y-79921100D01*
X177342800Y-76111100D02*
G75*
G02X181254400Y-79921100I50800J-3860800D01*
G01*
X177342800Y-76111100D02*
X140512800Y-76111100D01*
X137972800Y-78651100D02*
G75*
G02X140512800Y-76111100I2540000J0D01*
G01*
X137972800Y-78651100D02*
X137972800Y-100241100D01*
X135432800Y-102781100D02*
G75*
G03X137972800Y-100241100I0J2540000D01*
G01*
X135432800Y-102781100D02*
X118287800Y-102781100D01*
X115747800Y-105321100D02*
G75*
G02X118287800Y-102781100I2540000J0D01*
G01*
X115747800Y-105321100D02*
X115747800Y-130086100D01*
D11*
X157657800Y-72936100D02*
X157657800Y-90081100D01*
X157657800Y-90081100D02*
X136702800Y-90081100D01*
X136702800Y-90081100D02*
X136702800Y-72936100D01*
X136702800Y-72936100D02*
X157657800Y-72936100D01*
D12*
X144665022Y-76039133D02*
X144584589Y-75958700D01*
X144423722Y-75717400D01*
X144343289Y-75556533D01*
X144262856Y-75315233D01*
X144182422Y-74913066D01*
X144182422Y-74591333D01*
X144262856Y-74189166D01*
X144343289Y-73947866D01*
X144423722Y-73787000D01*
X144584589Y-73545700D01*
X144665022Y-73465266D01*
X145308489Y-75395666D02*
X145308489Y-73706566D01*
X145308489Y-74510900D02*
X146273689Y-74510900D01*
X146273689Y-75395666D02*
X146273689Y-73706566D01*
X147078022Y-75395666D02*
X147078022Y-73706566D01*
X147480189Y-73706566D01*
X147721489Y-73787000D01*
X147882356Y-73947866D01*
X147962789Y-74108733D01*
X148043222Y-74430466D01*
X148043222Y-74671766D01*
X147962789Y-74993500D01*
X147882356Y-75154366D01*
X147721489Y-75315233D01*
X147480189Y-75395666D01*
X147078022Y-75395666D01*
X148767122Y-75395666D02*
X148767122Y-73706566D01*
X149330156Y-74913066D01*
X149893189Y-73706566D01*
X149893189Y-75395666D01*
X150697522Y-75395666D02*
X150697522Y-73706566D01*
X151340989Y-76039133D02*
X151421422Y-75958700D01*
X151582289Y-75717400D01*
X151662722Y-75556533D01*
X151743156Y-75315233D01*
X151823589Y-74913066D01*
X151823589Y-74591333D01*
X151743156Y-74189166D01*
X151662722Y-73947866D01*
X151582289Y-73787000D01*
X151421422Y-73545700D01*
X151340989Y-73465266D01*
D11*
X134797800Y-76746100D02*
X134797800Y-101511100D01*
X134797800Y-101511100D02*
X129717800Y-101511100D01*
X129717800Y-101511100D02*
X129717800Y-76746100D01*
X129717800Y-76746100D02*
X134797800Y-76746100D01*
D12*
X133455833Y-94818877D02*
X133375400Y-94899310D01*
X133134100Y-95060177D01*
X132973233Y-95140610D01*
X132731933Y-95221044D01*
X132329766Y-95301477D01*
X132008033Y-95301477D01*
X131605866Y-95221044D01*
X131364566Y-95140610D01*
X131203700Y-95060177D01*
X130962400Y-94899310D01*
X130881966Y-94818877D01*
X132651500Y-93210210D02*
X132731933Y-93290644D01*
X132812366Y-93531944D01*
X132812366Y-93692810D01*
X132731933Y-93934110D01*
X132571066Y-94094977D01*
X132410200Y-94175410D01*
X132088466Y-94255844D01*
X131847166Y-94255844D01*
X131525433Y-94175410D01*
X131364566Y-94094977D01*
X131203700Y-93934110D01*
X131123266Y-93692810D01*
X131123266Y-93531944D01*
X131203700Y-93290644D01*
X131284133Y-93210210D01*
X132731933Y-92566744D02*
X132812366Y-92325444D01*
X132812366Y-91923277D01*
X132731933Y-91762410D01*
X132651500Y-91681977D01*
X132490633Y-91601544D01*
X132329766Y-91601544D01*
X132168900Y-91681977D01*
X132088466Y-91762410D01*
X132008033Y-91923277D01*
X131927600Y-92245010D01*
X131847166Y-92405877D01*
X131766733Y-92486310D01*
X131605866Y-92566744D01*
X131445000Y-92566744D01*
X131284133Y-92486310D01*
X131203700Y-92405877D01*
X131123266Y-92245010D01*
X131123266Y-91842844D01*
X131203700Y-91601544D01*
X132812366Y-90877644D02*
X131123266Y-90877644D01*
X132812366Y-88786377D02*
X131123266Y-88786377D01*
X131766733Y-88786377D02*
X131686300Y-88625510D01*
X131686300Y-88303777D01*
X131766733Y-88142910D01*
X131847166Y-88062477D01*
X132008033Y-87982044D01*
X132490633Y-87982044D01*
X132651500Y-88062477D01*
X132731933Y-88142910D01*
X132812366Y-88303777D01*
X132812366Y-88625510D01*
X132731933Y-88786377D01*
X131686300Y-86534244D02*
X132812366Y-86534244D01*
X131686300Y-87258144D02*
X132571066Y-87258144D01*
X132731933Y-87177710D01*
X132812366Y-87016844D01*
X132812366Y-86775544D01*
X132731933Y-86614677D01*
X132651500Y-86534244D01*
X132731933Y-85810344D02*
X132812366Y-85649477D01*
X132812366Y-85327744D01*
X132731933Y-85166877D01*
X132571066Y-85086444D01*
X132490633Y-85086444D01*
X132329766Y-85166877D01*
X132249333Y-85327744D01*
X132249333Y-85569044D01*
X132168900Y-85729910D01*
X132008033Y-85810344D01*
X131927600Y-85810344D01*
X131766733Y-85729910D01*
X131686300Y-85569044D01*
X131686300Y-85327744D01*
X131766733Y-85166877D01*
X133455833Y-84523410D02*
X133375400Y-84442977D01*
X133134100Y-84282110D01*
X132973233Y-84201677D01*
X132731933Y-84121244D01*
X132329766Y-84040810D01*
X132008033Y-84040810D01*
X131605866Y-84121244D01*
X131364566Y-84201677D01*
X131203700Y-84282110D01*
X130962400Y-84442977D01*
X130881966Y-84523410D01*
D11*
X141782800Y-76111100D02*
X115747800Y-76111100D01*
D13*
G36*
X124891800Y-127292100D02*
G01*
X124383800Y-127292100D01*
X124383800Y-127800100D01*
X124891800Y-127800100D01*
X124891800Y-127292100D01*
G37*
G36*
X124891800Y-129832100D02*
G01*
X124383800Y-129832100D01*
X124383800Y-130340100D01*
X124891800Y-130340100D01*
X124891800Y-129832100D01*
G37*
G36*
X127431800Y-127292100D02*
G01*
X126923800Y-127292100D01*
X126923800Y-127800100D01*
X127431800Y-127800100D01*
X127431800Y-127292100D01*
G37*
G36*
X127431800Y-129832100D02*
G01*
X126923800Y-129832100D01*
X126923800Y-130340100D01*
X127431800Y-130340100D01*
X127431800Y-129832100D01*
G37*
G36*
X129971800Y-127292100D02*
G01*
X129463800Y-127292100D01*
X129463800Y-127800100D01*
X129971800Y-127800100D01*
X129971800Y-127292100D01*
G37*
G36*
X129971800Y-129832100D02*
G01*
X129463800Y-129832100D01*
X129463800Y-130340100D01*
X129971800Y-130340100D01*
X129971800Y-129832100D01*
G37*
G36*
X132511800Y-127292100D02*
G01*
X132003800Y-127292100D01*
X132003800Y-127800100D01*
X132511800Y-127800100D01*
X132511800Y-127292100D01*
G37*
G36*
X132511800Y-129832100D02*
G01*
X132003800Y-129832100D01*
X132003800Y-130340100D01*
X132511800Y-130340100D01*
X132511800Y-129832100D01*
G37*
G36*
X135051800Y-127292100D02*
G01*
X134543800Y-127292100D01*
X134543800Y-127800100D01*
X135051800Y-127800100D01*
X135051800Y-127292100D01*
G37*
G36*
X135051800Y-129832100D02*
G01*
X134543800Y-129832100D01*
X134543800Y-130340100D01*
X135051800Y-130340100D01*
X135051800Y-129832100D01*
G37*
G36*
X137591800Y-127292100D02*
G01*
X137083800Y-127292100D01*
X137083800Y-127800100D01*
X137591800Y-127800100D01*
X137591800Y-127292100D01*
G37*
G36*
X137591800Y-129832100D02*
G01*
X137083800Y-129832100D01*
X137083800Y-130340100D01*
X137591800Y-130340100D01*
X137591800Y-129832100D01*
G37*
G36*
X140131800Y-127292100D02*
G01*
X139623800Y-127292100D01*
X139623800Y-127800100D01*
X140131800Y-127800100D01*
X140131800Y-127292100D01*
G37*
G36*
X140131800Y-129832100D02*
G01*
X139623800Y-129832100D01*
X139623800Y-130340100D01*
X140131800Y-130340100D01*
X140131800Y-129832100D01*
G37*
G36*
X142671800Y-127292100D02*
G01*
X142163800Y-127292100D01*
X142163800Y-127800100D01*
X142671800Y-127800100D01*
X142671800Y-127292100D01*
G37*
G36*
X142671800Y-129832100D02*
G01*
X142163800Y-129832100D01*
X142163800Y-130340100D01*
X142671800Y-130340100D01*
X142671800Y-129832100D01*
G37*
G36*
X145211800Y-127292100D02*
G01*
X144703800Y-127292100D01*
X144703800Y-127800100D01*
X145211800Y-127800100D01*
X145211800Y-127292100D01*
G37*
G36*
X145211800Y-129832100D02*
G01*
X144703800Y-129832100D01*
X144703800Y-130340100D01*
X145211800Y-130340100D01*
X145211800Y-129832100D01*
G37*
G36*
X147751800Y-127292100D02*
G01*
X147243800Y-127292100D01*
X147243800Y-127800100D01*
X147751800Y-127800100D01*
X147751800Y-127292100D01*
G37*
G36*
X147751800Y-129832100D02*
G01*
X147243800Y-129832100D01*
X147243800Y-130340100D01*
X147751800Y-130340100D01*
X147751800Y-129832100D01*
G37*
G36*
X150291800Y-127292100D02*
G01*
X149783800Y-127292100D01*
X149783800Y-127800100D01*
X150291800Y-127800100D01*
X150291800Y-127292100D01*
G37*
G36*
X150291800Y-129832100D02*
G01*
X149783800Y-129832100D01*
X149783800Y-130340100D01*
X150291800Y-130340100D01*
X150291800Y-129832100D01*
G37*
G36*
X152831800Y-127292100D02*
G01*
X152323800Y-127292100D01*
X152323800Y-127800100D01*
X152831800Y-127800100D01*
X152831800Y-127292100D01*
G37*
G36*
X152831800Y-129832100D02*
G01*
X152323800Y-129832100D01*
X152323800Y-130340100D01*
X152831800Y-130340100D01*
X152831800Y-129832100D01*
G37*
G36*
X155371800Y-127292100D02*
G01*
X154863800Y-127292100D01*
X154863800Y-127800100D01*
X155371800Y-127800100D01*
X155371800Y-127292100D01*
G37*
G36*
X155371800Y-129832100D02*
G01*
X154863800Y-129832100D01*
X154863800Y-130340100D01*
X155371800Y-130340100D01*
X155371800Y-129832100D01*
G37*
G36*
X157911800Y-127292100D02*
G01*
X157403800Y-127292100D01*
X157403800Y-127800100D01*
X157911800Y-127800100D01*
X157911800Y-127292100D01*
G37*
G36*
X157911800Y-129832100D02*
G01*
X157403800Y-129832100D01*
X157403800Y-130340100D01*
X157911800Y-130340100D01*
X157911800Y-129832100D01*
G37*
G36*
X160451800Y-127292100D02*
G01*
X159943800Y-127292100D01*
X159943800Y-127800100D01*
X160451800Y-127800100D01*
X160451800Y-127292100D01*
G37*
G36*
X162991800Y-127292100D02*
G01*
X162483800Y-127292100D01*
X162483800Y-127800100D01*
X162991800Y-127800100D01*
X162991800Y-127292100D01*
G37*
G36*
X165531800Y-127292100D02*
G01*
X165023800Y-127292100D01*
X165023800Y-127800100D01*
X165531800Y-127800100D01*
X165531800Y-127292100D01*
G37*
G36*
X160451800Y-129832100D02*
G01*
X159943800Y-129832100D01*
X159943800Y-130340100D01*
X160451800Y-130340100D01*
X160451800Y-129832100D01*
G37*
G36*
X162991800Y-129832100D02*
G01*
X162483800Y-129832100D01*
X162483800Y-130340100D01*
X162991800Y-130340100D01*
X162991800Y-129832100D01*
G37*
G36*
X165531800Y-129832100D02*
G01*
X165023800Y-129832100D01*
X165023800Y-130340100D01*
X165531800Y-130340100D01*
X165531800Y-129832100D01*
G37*
G36*
X168071800Y-127292100D02*
G01*
X167563800Y-127292100D01*
X167563800Y-127800100D01*
X168071800Y-127800100D01*
X168071800Y-127292100D01*
G37*
G36*
X168071800Y-129832100D02*
G01*
X167563800Y-129832100D01*
X167563800Y-130340100D01*
X168071800Y-130340100D01*
X168071800Y-129832100D01*
G37*
G36*
X170611800Y-127292100D02*
G01*
X170103800Y-127292100D01*
X170103800Y-127800100D01*
X170611800Y-127800100D01*
X170611800Y-127292100D01*
G37*
G36*
X170611800Y-129832100D02*
G01*
X170103800Y-129832100D01*
X170103800Y-130340100D01*
X170611800Y-130340100D01*
X170611800Y-129832100D01*
G37*
G36*
X173151800Y-129832100D02*
G01*
X172643800Y-129832100D01*
X172643800Y-130340100D01*
X173151800Y-130340100D01*
X173151800Y-129832100D01*
G37*
G36*
X173151800Y-127292100D02*
G01*
X172643800Y-127292100D01*
X172643800Y-127800100D01*
X173151800Y-127800100D01*
X173151800Y-127292100D01*
G37*
G36*
X164668200Y-85928200D02*
G01*
X165252400Y-85928200D01*
X165252400Y-85344000D01*
X164668200Y-85344000D01*
X164668200Y-85928200D01*
G37*
G36*
X162128200Y-85928200D02*
G01*
X162712400Y-85928200D01*
X162712400Y-85344000D01*
X162128200Y-85344000D01*
X162128200Y-85928200D01*
G37*
G36*
X165440300Y-88856100D02*
G01*
X164765300Y-88856100D01*
X164765300Y-91306100D01*
X165440300Y-91306100D01*
X165440300Y-88856100D01*
G37*
G36*
X160865300Y-91181100D02*
G01*
X161515300Y-91181100D01*
X161515300Y-88981100D01*
X160865300Y-88981100D01*
X160865300Y-91181100D01*
G37*
G36*
X166515300Y-88981100D02*
G01*
X165865300Y-88981100D01*
X165865300Y-91181100D01*
X166515300Y-91181100D01*
X166515300Y-88981100D01*
G37*
D14*
X165840300Y-88781100D02*
X165840300Y-91381100D01*
X161540300Y-88781100D02*
X165840300Y-88781100D01*
X161540300Y-91381100D02*
X161540300Y-88781100D01*
X165840300Y-91381100D02*
X161540300Y-91381100D01*
D13*
G36*
X171002800Y-78361100D02*
G01*
X171277800Y-78361100D01*
X171277800Y-78286100D01*
X171002800Y-78286100D01*
X171002800Y-78361100D01*
G37*
G36*
X171027800Y-78786100D02*
G01*
X171327800Y-78786100D01*
X171327800Y-78486100D01*
X171027800Y-78486100D01*
X171027800Y-78786100D01*
G37*
G36*
X171427800Y-79961100D02*
G01*
X171827800Y-79961100D01*
X171827800Y-79786100D01*
X171427800Y-79786100D01*
X171427800Y-79961100D01*
G37*
G36*
X171302800Y-80036100D02*
G01*
X171452800Y-80036100D01*
X171452800Y-79786100D01*
X171302800Y-79786100D01*
X171302800Y-80036100D01*
G37*
G36*
X171802800Y-80036100D02*
G01*
X171952800Y-80036100D01*
X171952800Y-79786100D01*
X171802800Y-79786100D01*
X171802800Y-80036100D01*
G37*
G36*
X171002800Y-80286100D02*
G01*
X171327800Y-80286100D01*
X171327800Y-79786100D01*
X171002800Y-79786100D01*
X171002800Y-80286100D01*
G37*
G36*
X171927800Y-80286100D02*
G01*
X172252800Y-80286100D01*
X172252800Y-79786100D01*
X171927800Y-79786100D01*
X171927800Y-80286100D01*
G37*
G36*
X171427800Y-78786100D02*
G01*
X171827800Y-78786100D01*
X171827800Y-78611100D01*
X171427800Y-78611100D01*
X171427800Y-78786100D01*
G37*
G36*
X171802800Y-78786100D02*
G01*
X171952800Y-78786100D01*
X171952800Y-78536100D01*
X171802800Y-78536100D01*
X171802800Y-78786100D01*
G37*
G36*
X171302800Y-78786100D02*
G01*
X171452800Y-78786100D01*
X171452800Y-78536100D01*
X171302800Y-78536100D01*
X171302800Y-78786100D01*
G37*
G36*
X171927800Y-78786100D02*
G01*
X172252800Y-78786100D01*
X172252800Y-78286100D01*
X171927800Y-78286100D01*
X171927800Y-78786100D01*
G37*
D15*
X171280800Y-78436100D02*
G75*
G03X171280800Y-78436100I-103000J0D01*
G01*
X171052800Y-79786100D02*
X171052800Y-78361100D01*
X172202800Y-78761100D02*
X172202800Y-79811100D01*
X171977800Y-80236098D02*
G75*
G03X171277800Y-80236100I-350000J-26001D01*
G01*
X171977800Y-78336102D02*
G75*
G02X171277800Y-78336100I-350000J26001D01*
G01*
D13*
G36*
X173542800Y-122176100D02*
G01*
X173817800Y-122176100D01*
X173817800Y-122101100D01*
X173542800Y-122101100D01*
X173542800Y-122176100D01*
G37*
G36*
X173567800Y-122601100D02*
G01*
X173867800Y-122601100D01*
X173867800Y-122301100D01*
X173567800Y-122301100D01*
X173567800Y-122601100D01*
G37*
G36*
X173967800Y-123776100D02*
G01*
X174367800Y-123776100D01*
X174367800Y-123601100D01*
X173967800Y-123601100D01*
X173967800Y-123776100D01*
G37*
G36*
X173842800Y-123851100D02*
G01*
X173992800Y-123851100D01*
X173992800Y-123601100D01*
X173842800Y-123601100D01*
X173842800Y-123851100D01*
G37*
G36*
X174342800Y-123851100D02*
G01*
X174492800Y-123851100D01*
X174492800Y-123601100D01*
X174342800Y-123601100D01*
X174342800Y-123851100D01*
G37*
G36*
X173542800Y-124101100D02*
G01*
X173867800Y-124101100D01*
X173867800Y-123601100D01*
X173542800Y-123601100D01*
X173542800Y-124101100D01*
G37*
G36*
X174467800Y-124101100D02*
G01*
X174792800Y-124101100D01*
X174792800Y-123601100D01*
X174467800Y-123601100D01*
X174467800Y-124101100D01*
G37*
G36*
X173967800Y-122601100D02*
G01*
X174367800Y-122601100D01*
X174367800Y-122426100D01*
X173967800Y-122426100D01*
X173967800Y-122601100D01*
G37*
G36*
X174342800Y-122601100D02*
G01*
X174492800Y-122601100D01*
X174492800Y-122351100D01*
X174342800Y-122351100D01*
X174342800Y-122601100D01*
G37*
G36*
X173842800Y-122601100D02*
G01*
X173992800Y-122601100D01*
X173992800Y-122351100D01*
X173842800Y-122351100D01*
X173842800Y-122601100D01*
G37*
G36*
X174467800Y-122601100D02*
G01*
X174792800Y-122601100D01*
X174792800Y-122101100D01*
X174467800Y-122101100D01*
X174467800Y-122601100D01*
G37*
D15*
X173820800Y-122251100D02*
G75*
G03X173820800Y-122251100I-103000J0D01*
G01*
X173592800Y-123601100D02*
X173592800Y-122176100D01*
X174742800Y-122576100D02*
X174742800Y-123626100D01*
X174517800Y-124051098D02*
G75*
G03X173817800Y-124051100I-350000J-26001D01*
G01*
X174517800Y-122151102D02*
G75*
G02X173817800Y-122151100I-350000J26001D01*
G01*
D13*
G36*
X170929300Y-122034300D02*
G01*
X170929300Y-122684300D01*
X172329300Y-122684300D01*
X172329300Y-122034300D01*
X170929300Y-122034300D01*
G37*
G36*
X170929300Y-123507500D02*
G01*
X170929300Y-124157500D01*
X172329300Y-124157500D01*
X172329300Y-123507500D01*
X170929300Y-123507500D01*
G37*
D16*
X170992800Y-122691100D02*
X170992800Y-123511100D01*
X172262800Y-122691100D02*
X172262800Y-123511100D01*
D13*
G36*
X168389300Y-78219300D02*
G01*
X168389300Y-78869300D01*
X169789300Y-78869300D01*
X169789300Y-78219300D01*
X168389300Y-78219300D01*
G37*
G36*
X168389300Y-79692500D02*
G01*
X168389300Y-80342500D01*
X169789300Y-80342500D01*
X169789300Y-79692500D01*
X168389300Y-79692500D01*
G37*
D16*
X168452800Y-78876100D02*
X168452800Y-79696100D01*
X169722800Y-78876100D02*
X169722800Y-79696100D01*
D13*
G36*
X175145700Y-116535200D02*
G01*
X175729900Y-116535200D01*
X175729900Y-115951000D01*
X175145700Y-115951000D01*
X175145700Y-116535200D01*
G37*
G36*
X172605700Y-116535200D02*
G01*
X173189900Y-116535200D01*
X173189900Y-115951000D01*
X172605700Y-115951000D01*
X172605700Y-116535200D01*
G37*
G36*
X170065700Y-116535200D02*
G01*
X170649900Y-116535200D01*
X170649900Y-115951000D01*
X170065700Y-115951000D01*
X170065700Y-116535200D01*
G37*
G36*
X167525700Y-116535200D02*
G01*
X168109900Y-116535200D01*
X168109900Y-115951000D01*
X167525700Y-115951000D01*
X167525700Y-116535200D01*
G37*
G36*
X164985700Y-116535200D02*
G01*
X165569900Y-116535200D01*
X165569900Y-115951000D01*
X164985700Y-115951000D01*
X164985700Y-116535200D01*
G37*
G36*
X159905700Y-116535200D02*
G01*
X160489900Y-116535200D01*
X160489900Y-115951000D01*
X159905700Y-115951000D01*
X159905700Y-116535200D01*
G37*
G36*
X157365700Y-116535200D02*
G01*
X157949900Y-116535200D01*
X157949900Y-115951000D01*
X157365700Y-115951000D01*
X157365700Y-116535200D01*
G37*
G36*
X154825700Y-116535200D02*
G01*
X155409900Y-116535200D01*
X155409900Y-115951000D01*
X154825700Y-115951000D01*
X154825700Y-116535200D01*
G37*
G36*
X152285700Y-116535200D02*
G01*
X152869900Y-116535200D01*
X152869900Y-115951000D01*
X152285700Y-115951000D01*
X152285700Y-116535200D01*
G37*
G36*
X149745700Y-116535200D02*
G01*
X150329900Y-116535200D01*
X150329900Y-115951000D01*
X149745700Y-115951000D01*
X149745700Y-116535200D01*
G37*
G36*
X144665700Y-116535200D02*
G01*
X145249900Y-116535200D01*
X145249900Y-115951000D01*
X144665700Y-115951000D01*
X144665700Y-116535200D01*
G37*
G36*
X142125700Y-116535200D02*
G01*
X142709900Y-116535200D01*
X142709900Y-115951000D01*
X142125700Y-115951000D01*
X142125700Y-116535200D01*
G37*
G36*
X139585700Y-116535200D02*
G01*
X140169900Y-116535200D01*
X140169900Y-115951000D01*
X139585700Y-115951000D01*
X139585700Y-116535200D01*
G37*
G36*
X137045700Y-116535200D02*
G01*
X137629900Y-116535200D01*
X137629900Y-115951000D01*
X137045700Y-115951000D01*
X137045700Y-116535200D01*
G37*
G36*
X134505700Y-116535200D02*
G01*
X135089900Y-116535200D01*
X135089900Y-115951000D01*
X134505700Y-115951000D01*
X134505700Y-116535200D01*
G37*
G36*
X165569900Y-106807000D02*
G01*
X164985700Y-106807000D01*
X164985700Y-107391200D01*
X165569900Y-107391200D01*
X165569900Y-106807000D01*
G37*
G36*
X168109900Y-106807000D02*
G01*
X167525700Y-106807000D01*
X167525700Y-107391200D01*
X168109900Y-107391200D01*
X168109900Y-106807000D01*
G37*
G36*
X170649900Y-106807000D02*
G01*
X170065700Y-106807000D01*
X170065700Y-107391200D01*
X170649900Y-107391200D01*
X170649900Y-106807000D01*
G37*
G36*
X173189900Y-106807000D02*
G01*
X172605700Y-106807000D01*
X172605700Y-107391200D01*
X173189900Y-107391200D01*
X173189900Y-106807000D01*
G37*
G36*
X175729900Y-106807000D02*
G01*
X175145700Y-106807000D01*
X175145700Y-107391200D01*
X175729900Y-107391200D01*
X175729900Y-106807000D01*
G37*
G36*
X124929900Y-106934000D02*
G01*
X124345700Y-106934000D01*
X124345700Y-107518200D01*
X124929900Y-107518200D01*
X124929900Y-106934000D01*
G37*
G36*
X127469900Y-106934000D02*
G01*
X126885700Y-106934000D01*
X126885700Y-107518200D01*
X127469900Y-107518200D01*
X127469900Y-106934000D01*
G37*
G36*
X130009900Y-106934000D02*
G01*
X129425700Y-106934000D01*
X129425700Y-107518200D01*
X130009900Y-107518200D01*
X130009900Y-106934000D01*
G37*
G36*
X172415200Y-82791300D02*
G01*
X172415200Y-83070700D01*
X174853600Y-83070700D01*
X174853600Y-82791300D01*
X172415200Y-82791300D01*
G37*
G36*
X176936400Y-86321900D02*
G01*
X176657000Y-86321900D01*
X176657000Y-88760300D01*
X176936400Y-88760300D01*
X176936400Y-86321900D01*
G37*
G36*
X170916600Y-86067900D02*
G01*
X170459400Y-86067900D01*
X170459400Y-88988900D01*
X170916600Y-88988900D01*
X170916600Y-86067900D01*
G37*
D14*
X184227800Y-83193500D02*
X184227800Y-91888700D01*
X184227800Y-83193500D02*
X181048400Y-83193500D01*
X181048400Y-91888700D02*
X184227800Y-91888700D01*
D13*
G36*
X142074900Y-96088200D02*
G01*
X142074900Y-95504000D01*
X141490700Y-95504000D01*
X141490700Y-96088200D01*
X142074900Y-96088200D01*
G37*
G36*
X142074900Y-98628200D02*
G01*
X142074900Y-98044000D01*
X141490700Y-98044000D01*
X141490700Y-98628200D01*
X142074900Y-98628200D01*
G37*
G36*
X142074900Y-88468200D02*
G01*
X142074900Y-87884000D01*
X141490700Y-87884000D01*
X141490700Y-88468200D01*
X142074900Y-88468200D01*
G37*
G36*
X142074900Y-91008200D02*
G01*
X142074900Y-90424000D01*
X141490700Y-90424000D01*
X141490700Y-91008200D01*
X142074900Y-91008200D01*
G37*
G36*
X147789900Y-106807000D02*
G01*
X147205700Y-106807000D01*
X147205700Y-107391200D01*
X147789900Y-107391200D01*
X147789900Y-106807000D01*
G37*
G36*
X150329900Y-106807000D02*
G01*
X149745700Y-106807000D01*
X149745700Y-107391200D01*
X150329900Y-107391200D01*
X150329900Y-106807000D01*
G37*
G36*
X152869900Y-106807000D02*
G01*
X152285700Y-106807000D01*
X152285700Y-107391200D01*
X152869900Y-107391200D01*
X152869900Y-106807000D01*
G37*
G36*
X155409900Y-106807000D02*
G01*
X154825700Y-106807000D01*
X154825700Y-107391200D01*
X155409900Y-107391200D01*
X155409900Y-106807000D01*
G37*
G36*
X157949900Y-106807000D02*
G01*
X157365700Y-106807000D01*
X157365700Y-107391200D01*
X157949900Y-107391200D01*
X157949900Y-106807000D01*
G37*
G36*
X160489900Y-106807000D02*
G01*
X159905700Y-106807000D01*
X159905700Y-107391200D01*
X160489900Y-107391200D01*
X160489900Y-106807000D01*
G37*
D17*
X174517799Y-124313647D02*
X174517799Y-123107147D01*
X174977418Y-123107147D01*
X175092323Y-123164600D01*
X175149776Y-123222052D01*
X175207228Y-123336957D01*
X175207228Y-123509314D01*
X175149776Y-123624219D01*
X175092323Y-123681671D01*
X174977418Y-123739123D01*
X174517799Y-123739123D01*
X175724299Y-124313647D02*
X175724299Y-123107147D01*
X176298823Y-124313647D02*
X176298823Y-123107147D01*
X176988252Y-124313647D01*
X176988252Y-123107147D01*
X177562776Y-124313647D02*
X177562776Y-123107147D01*
X177562776Y-123681671D02*
X178252204Y-123681671D01*
X178252204Y-124313647D02*
X178252204Y-123107147D01*
X178826728Y-124313647D02*
X178826728Y-123107147D01*
X179113990Y-123107147D01*
X179286347Y-123164600D01*
X179401252Y-123279504D01*
X179458704Y-123394409D01*
X179516157Y-123624219D01*
X179516157Y-123796576D01*
X179458704Y-124026385D01*
X179401252Y-124141290D01*
X179286347Y-124256195D01*
X179113990Y-124313647D01*
X178826728Y-124313647D01*
X180033228Y-123854028D02*
X180952466Y-123854028D01*
X181469538Y-123222052D02*
X181526990Y-123164600D01*
X181641895Y-123107147D01*
X181929157Y-123107147D01*
X182044061Y-123164600D01*
X182101514Y-123222052D01*
X182158966Y-123336957D01*
X182158966Y-123451861D01*
X182101514Y-123624219D01*
X181412085Y-124313647D01*
X182158966Y-124313647D01*
X182561133Y-123107147D02*
X183365466Y-124313647D01*
X183365466Y-123107147D02*
X182561133Y-124313647D01*
X183767633Y-123222052D02*
X183825085Y-123164600D01*
X183939990Y-123107147D01*
X184227252Y-123107147D01*
X184342157Y-123164600D01*
X184399609Y-123222052D01*
X184457061Y-123336957D01*
X184457061Y-123451861D01*
X184399609Y-123624219D01*
X183710180Y-124313647D01*
X184457061Y-124313647D01*
X185203942Y-123107147D02*
X185318847Y-123107147D01*
X185433752Y-123164600D01*
X185491204Y-123222052D01*
X185548657Y-123336957D01*
X185606109Y-123566766D01*
X185606109Y-123854028D01*
X185548657Y-124083838D01*
X185491204Y-124198742D01*
X185433752Y-124256195D01*
X185318847Y-124313647D01*
X185203942Y-124313647D01*
X185089038Y-124256195D01*
X185031585Y-124198742D01*
X184974133Y-124083838D01*
X184916680Y-123854028D01*
X184916680Y-123566766D01*
X184974133Y-123336957D01*
X185031585Y-123222052D01*
X185089038Y-123164600D01*
X185203942Y-123107147D01*
D18*
X161694397Y-88926488D02*
X161666819Y-88954065D01*
X161584088Y-88981642D01*
X161528934Y-88981642D01*
X161446202Y-88954065D01*
X161391048Y-88898911D01*
X161363471Y-88843757D01*
X161335894Y-88733448D01*
X161335894Y-88650717D01*
X161363471Y-88540408D01*
X161391048Y-88485254D01*
X161446202Y-88430100D01*
X161528934Y-88402522D01*
X161584088Y-88402522D01*
X161666819Y-88430100D01*
X161694397Y-88457677D01*
X162052899Y-88402522D02*
X162163208Y-88402522D01*
X162218362Y-88430100D01*
X162273517Y-88485254D01*
X162301094Y-88595562D01*
X162301094Y-88788602D01*
X162273517Y-88898911D01*
X162218362Y-88954065D01*
X162163208Y-88981642D01*
X162052899Y-88981642D01*
X161997745Y-88954065D01*
X161942591Y-88898911D01*
X161915014Y-88788602D01*
X161915014Y-88595562D01*
X161942591Y-88485254D01*
X161997745Y-88430100D01*
X162052899Y-88402522D01*
X162549288Y-88981642D02*
X162549288Y-88402522D01*
X162880214Y-88981642D01*
X162880214Y-88402522D01*
X163155985Y-88981642D02*
X163155985Y-88402522D01*
X163486911Y-88981642D01*
X163486911Y-88402522D01*
X163624797Y-89036797D02*
X164066031Y-89036797D01*
X164314225Y-88402522D02*
X164369379Y-88402522D01*
X164424534Y-88430100D01*
X164452111Y-88457677D01*
X164479688Y-88512831D01*
X164507265Y-88623140D01*
X164507265Y-88761025D01*
X164479688Y-88871334D01*
X164452111Y-88926488D01*
X164424534Y-88954065D01*
X164369379Y-88981642D01*
X164314225Y-88981642D01*
X164259071Y-88954065D01*
X164231494Y-88926488D01*
X164203917Y-88871334D01*
X164176339Y-88761025D01*
X164176339Y-88623140D01*
X164203917Y-88512831D01*
X164231494Y-88457677D01*
X164259071Y-88430100D01*
X164314225Y-88402522D01*
X164727882Y-88457677D02*
X164755459Y-88430100D01*
X164810614Y-88402522D01*
X164948499Y-88402522D01*
X165003654Y-88430100D01*
X165031231Y-88457677D01*
X165058808Y-88512831D01*
X165058808Y-88567985D01*
X165031231Y-88650717D01*
X164700305Y-88981642D01*
X165058808Y-88981642D01*
X165307002Y-88981642D02*
X165307002Y-88402522D01*
X165527619Y-88402522D01*
X165582774Y-88430100D01*
X165610351Y-88457677D01*
X165637928Y-88512831D01*
X165637928Y-88595562D01*
X165610351Y-88650717D01*
X165582774Y-88678294D01*
X165527619Y-88705871D01*
X165307002Y-88705871D01*
X165996431Y-88402522D02*
X166106739Y-88402522D01*
X166161894Y-88430100D01*
X166217048Y-88485254D01*
X166244625Y-88595562D01*
X166244625Y-88788602D01*
X166217048Y-88898911D01*
X166161894Y-88954065D01*
X166106739Y-88981642D01*
X165996431Y-88981642D01*
X165941277Y-88954065D01*
X165886122Y-88898911D01*
X165858545Y-88788602D01*
X165858545Y-88595562D01*
X165886122Y-88485254D01*
X165941277Y-88430100D01*
X165996431Y-88402522D01*
X166768591Y-88981642D02*
X166492819Y-88981642D01*
X166492819Y-88402522D01*
X166934054Y-88816180D02*
X167209825Y-88816180D01*
X166878899Y-88981642D02*
X167071939Y-88402522D01*
X167264979Y-88981642D01*
X167788945Y-88981642D02*
X167595905Y-88705871D01*
X167458019Y-88981642D02*
X167458019Y-88402522D01*
X167678637Y-88402522D01*
X167733791Y-88430100D01*
X167761368Y-88457677D01*
X167788945Y-88512831D01*
X167788945Y-88595562D01*
X167761368Y-88650717D01*
X167733791Y-88678294D01*
X167678637Y-88705871D01*
X167458019Y-88705871D01*
X167899254Y-89036797D02*
X168340488Y-89036797D01*
X168754145Y-88981642D02*
X168478374Y-88981642D01*
X168478374Y-88402522D01*
X169057494Y-88402522D02*
X169167802Y-88402522D01*
X169222957Y-88430100D01*
X169278111Y-88485254D01*
X169305688Y-88595562D01*
X169305688Y-88788602D01*
X169278111Y-88898911D01*
X169222957Y-88954065D01*
X169167802Y-88981642D01*
X169057494Y-88981642D01*
X169002339Y-88954065D01*
X168947185Y-88898911D01*
X168919608Y-88788602D01*
X168919608Y-88595562D01*
X168947185Y-88485254D01*
X169002339Y-88430100D01*
X169057494Y-88402522D01*
X169884808Y-88926488D02*
X169857231Y-88954065D01*
X169774499Y-88981642D01*
X169719345Y-88981642D01*
X169636614Y-88954065D01*
X169581459Y-88898911D01*
X169553882Y-88843757D01*
X169526305Y-88733448D01*
X169526305Y-88650717D01*
X169553882Y-88540408D01*
X169581459Y-88485254D01*
X169636614Y-88430100D01*
X169719345Y-88402522D01*
X169774499Y-88402522D01*
X169857231Y-88430100D01*
X169884808Y-88457677D01*
X170133002Y-88981642D02*
X170133002Y-88402522D01*
X170463928Y-88981642D02*
X170215734Y-88650717D01*
X170463928Y-88402522D02*
X170133002Y-88733448D01*
D17*
X166580299Y-86848647D02*
X166580299Y-85642147D01*
X166867561Y-85642147D01*
X167039918Y-85699600D01*
X167154823Y-85814504D01*
X167212276Y-85929409D01*
X167269728Y-86159219D01*
X167269728Y-86331576D01*
X167212276Y-86561385D01*
X167154823Y-86676290D01*
X167039918Y-86791195D01*
X166867561Y-86848647D01*
X166580299Y-86848647D01*
X167786799Y-86848647D02*
X167786799Y-85642147D01*
X168591133Y-85642147D02*
X168820942Y-85642147D01*
X168935847Y-85699600D01*
X169050752Y-85814504D01*
X169108204Y-86044314D01*
X169108204Y-86446480D01*
X169050752Y-86676290D01*
X168935847Y-86791195D01*
X168820942Y-86848647D01*
X168591133Y-86848647D01*
X168476228Y-86791195D01*
X168361323Y-86676290D01*
X168303871Y-86446480D01*
X168303871Y-86044314D01*
X168361323Y-85814504D01*
X168476228Y-85699600D01*
X168591133Y-85642147D01*
X169625276Y-86848647D02*
X169625276Y-85642147D01*
X169912538Y-85642147D01*
X170084895Y-85699600D01*
X170199799Y-85814504D01*
X170257252Y-85929409D01*
X170314704Y-86159219D01*
X170314704Y-86331576D01*
X170257252Y-86561385D01*
X170199799Y-86676290D01*
X170084895Y-86791195D01*
X169912538Y-86848647D01*
X169625276Y-86848647D01*
X170831776Y-86216671D02*
X171233942Y-86216671D01*
X171406299Y-86848647D02*
X170831776Y-86848647D01*
X170831776Y-85642147D01*
X171406299Y-85642147D01*
X171923371Y-86389028D02*
X172842609Y-86389028D01*
X173417133Y-86848647D02*
X173417133Y-85642147D01*
X173704395Y-85642147D01*
X173876752Y-85699600D01*
X173991657Y-85814504D01*
X174049109Y-85929409D01*
X174106561Y-86159219D01*
X174106561Y-86331576D01*
X174049109Y-86561385D01*
X173991657Y-86676290D01*
X173876752Y-86791195D01*
X173704395Y-86848647D01*
X173417133Y-86848647D01*
X174853442Y-85642147D02*
X175083252Y-85642147D01*
X175198157Y-85699600D01*
X175313061Y-85814504D01*
X175370514Y-86044314D01*
X175370514Y-86446480D01*
X175313061Y-86676290D01*
X175198157Y-86791195D01*
X175083252Y-86848647D01*
X174853442Y-86848647D01*
X174738538Y-86791195D01*
X174623633Y-86676290D01*
X174566180Y-86446480D01*
X174566180Y-86044314D01*
X174623633Y-85814504D01*
X174738538Y-85699600D01*
X174853442Y-85642147D01*
X175887585Y-86389028D02*
X176806823Y-86389028D01*
X177323895Y-85757052D02*
X177381347Y-85699600D01*
X177496252Y-85642147D01*
X177783514Y-85642147D01*
X177898418Y-85699600D01*
X177955871Y-85757052D01*
X178013323Y-85871957D01*
X178013323Y-85986861D01*
X177955871Y-86159219D01*
X177266442Y-86848647D01*
X178013323Y-86848647D01*
X179162371Y-86848647D02*
X178472942Y-86848647D01*
X178817657Y-86848647D02*
X178817657Y-85642147D01*
X178702752Y-85814504D01*
X178587847Y-85929409D01*
X178472942Y-85986861D01*
X180196514Y-86044314D02*
X180196514Y-86848647D01*
X179909252Y-85584695D02*
X179621990Y-86446480D01*
X180368871Y-86446480D01*
X180771038Y-86503933D02*
X181345561Y-86503933D01*
X180656133Y-86848647D02*
X181058299Y-85642147D01*
X181460466Y-86848647D01*
X182552061Y-86733742D02*
X182494609Y-86791195D01*
X182322252Y-86848647D01*
X182207347Y-86848647D01*
X182034990Y-86791195D01*
X181920085Y-86676290D01*
X181862633Y-86561385D01*
X181805180Y-86331576D01*
X181805180Y-86159219D01*
X181862633Y-85929409D01*
X181920085Y-85814504D01*
X182034990Y-85699600D01*
X182207347Y-85642147D01*
X182322252Y-85642147D01*
X182494609Y-85699600D01*
X182552061Y-85757052D01*
D18*
X168742897Y-119462368D02*
X168715319Y-119489945D01*
X168632588Y-119517522D01*
X168577434Y-119517522D01*
X168494702Y-119489945D01*
X168439548Y-119434791D01*
X168411971Y-119379637D01*
X168384394Y-119269328D01*
X168384394Y-119186597D01*
X168411971Y-119076288D01*
X168439548Y-119021134D01*
X168494702Y-118965980D01*
X168577434Y-118938402D01*
X168632588Y-118938402D01*
X168715319Y-118965980D01*
X168742897Y-118993557D01*
X169101399Y-118938402D02*
X169211708Y-118938402D01*
X169266862Y-118965980D01*
X169322017Y-119021134D01*
X169349594Y-119131442D01*
X169349594Y-119324482D01*
X169322017Y-119434791D01*
X169266862Y-119489945D01*
X169211708Y-119517522D01*
X169101399Y-119517522D01*
X169046245Y-119489945D01*
X168991091Y-119434791D01*
X168963514Y-119324482D01*
X168963514Y-119131442D01*
X168991091Y-119021134D01*
X169046245Y-118965980D01*
X169101399Y-118938402D01*
X169597788Y-119517522D02*
X169597788Y-118938402D01*
X169928714Y-119517522D01*
X169928714Y-118938402D01*
X170204485Y-119517522D02*
X170204485Y-118938402D01*
X170535411Y-119517522D01*
X170535411Y-118938402D01*
X170673297Y-119572677D02*
X171114531Y-119572677D01*
X171362725Y-118938402D02*
X171417879Y-118938402D01*
X171473034Y-118965980D01*
X171500611Y-118993557D01*
X171528188Y-119048711D01*
X171555765Y-119159020D01*
X171555765Y-119296905D01*
X171528188Y-119407214D01*
X171500611Y-119462368D01*
X171473034Y-119489945D01*
X171417879Y-119517522D01*
X171362725Y-119517522D01*
X171307571Y-119489945D01*
X171279994Y-119462368D01*
X171252417Y-119407214D01*
X171224839Y-119296905D01*
X171224839Y-119159020D01*
X171252417Y-119048711D01*
X171279994Y-118993557D01*
X171307571Y-118965980D01*
X171362725Y-118938402D01*
X172079731Y-118938402D02*
X171803959Y-118938402D01*
X171776382Y-119214174D01*
X171803959Y-119186597D01*
X171859114Y-119159020D01*
X171996999Y-119159020D01*
X172052154Y-119186597D01*
X172079731Y-119214174D01*
X172107308Y-119269328D01*
X172107308Y-119407214D01*
X172079731Y-119462368D01*
X172052154Y-119489945D01*
X171996999Y-119517522D01*
X171859114Y-119517522D01*
X171803959Y-119489945D01*
X171776382Y-119462368D01*
X172355502Y-119517522D02*
X172355502Y-118938402D01*
X172576119Y-118938402D01*
X172631274Y-118965980D01*
X172658851Y-118993557D01*
X172686428Y-119048711D01*
X172686428Y-119131442D01*
X172658851Y-119186597D01*
X172631274Y-119214174D01*
X172576119Y-119241751D01*
X172355502Y-119241751D01*
X173044931Y-118938402D02*
X173155239Y-118938402D01*
X173210394Y-118965980D01*
X173265548Y-119021134D01*
X173293125Y-119131442D01*
X173293125Y-119324482D01*
X173265548Y-119434791D01*
X173210394Y-119489945D01*
X173155239Y-119517522D01*
X173044931Y-119517522D01*
X172989777Y-119489945D01*
X172934622Y-119434791D01*
X172907045Y-119324482D01*
X172907045Y-119131442D01*
X172934622Y-119021134D01*
X172989777Y-118965980D01*
X173044931Y-118938402D01*
X173817091Y-119517522D02*
X173541319Y-119517522D01*
X173541319Y-118938402D01*
X173982554Y-119352060D02*
X174258325Y-119352060D01*
X173927399Y-119517522D02*
X174120439Y-118938402D01*
X174313479Y-119517522D01*
X174837445Y-119517522D02*
X174644405Y-119241751D01*
X174506519Y-119517522D02*
X174506519Y-118938402D01*
X174727137Y-118938402D01*
X174782291Y-118965980D01*
X174809868Y-118993557D01*
X174837445Y-119048711D01*
X174837445Y-119131442D01*
X174809868Y-119186597D01*
X174782291Y-119214174D01*
X174727137Y-119241751D01*
X174506519Y-119241751D01*
X174947754Y-119572677D02*
X175388988Y-119572677D01*
X175802645Y-119517522D02*
X175526874Y-119517522D01*
X175526874Y-118938402D01*
X176105994Y-118938402D02*
X176216302Y-118938402D01*
X176271457Y-118965980D01*
X176326611Y-119021134D01*
X176354188Y-119131442D01*
X176354188Y-119324482D01*
X176326611Y-119434791D01*
X176271457Y-119489945D01*
X176216302Y-119517522D01*
X176105994Y-119517522D01*
X176050839Y-119489945D01*
X175995685Y-119434791D01*
X175968108Y-119324482D01*
X175968108Y-119131442D01*
X175995685Y-119021134D01*
X176050839Y-118965980D01*
X176105994Y-118938402D01*
X176933308Y-119462368D02*
X176905731Y-119489945D01*
X176822999Y-119517522D01*
X176767845Y-119517522D01*
X176685114Y-119489945D01*
X176629959Y-119434791D01*
X176602382Y-119379637D01*
X176574805Y-119269328D01*
X176574805Y-119186597D01*
X176602382Y-119076288D01*
X176629959Y-119021134D01*
X176685114Y-118965980D01*
X176767845Y-118938402D01*
X176822999Y-118938402D01*
X176905731Y-118965980D01*
X176933308Y-118993557D01*
X177181502Y-119517522D02*
X177181502Y-118938402D01*
X177512428Y-119517522D02*
X177264234Y-119186597D01*
X177512428Y-118938402D02*
X177181502Y-119269328D01*
X153502897Y-119462368D02*
X153475319Y-119489945D01*
X153392588Y-119517522D01*
X153337434Y-119517522D01*
X153254702Y-119489945D01*
X153199548Y-119434791D01*
X153171971Y-119379637D01*
X153144394Y-119269328D01*
X153144394Y-119186597D01*
X153171971Y-119076288D01*
X153199548Y-119021134D01*
X153254702Y-118965980D01*
X153337434Y-118938402D01*
X153392588Y-118938402D01*
X153475319Y-118965980D01*
X153502897Y-118993557D01*
X153861399Y-118938402D02*
X153971708Y-118938402D01*
X154026862Y-118965980D01*
X154082017Y-119021134D01*
X154109594Y-119131442D01*
X154109594Y-119324482D01*
X154082017Y-119434791D01*
X154026862Y-119489945D01*
X153971708Y-119517522D01*
X153861399Y-119517522D01*
X153806245Y-119489945D01*
X153751091Y-119434791D01*
X153723514Y-119324482D01*
X153723514Y-119131442D01*
X153751091Y-119021134D01*
X153806245Y-118965980D01*
X153861399Y-118938402D01*
X154357788Y-119517522D02*
X154357788Y-118938402D01*
X154688714Y-119517522D01*
X154688714Y-118938402D01*
X154964485Y-119517522D02*
X154964485Y-118938402D01*
X155295411Y-119517522D01*
X155295411Y-118938402D01*
X155433297Y-119572677D02*
X155874531Y-119572677D01*
X156122725Y-118938402D02*
X156177879Y-118938402D01*
X156233034Y-118965980D01*
X156260611Y-118993557D01*
X156288188Y-119048711D01*
X156315765Y-119159020D01*
X156315765Y-119296905D01*
X156288188Y-119407214D01*
X156260611Y-119462368D01*
X156233034Y-119489945D01*
X156177879Y-119517522D01*
X156122725Y-119517522D01*
X156067571Y-119489945D01*
X156039994Y-119462368D01*
X156012417Y-119407214D01*
X155984839Y-119296905D01*
X155984839Y-119159020D01*
X156012417Y-119048711D01*
X156039994Y-118993557D01*
X156067571Y-118965980D01*
X156122725Y-118938402D01*
X156839731Y-118938402D02*
X156563959Y-118938402D01*
X156536382Y-119214174D01*
X156563959Y-119186597D01*
X156619114Y-119159020D01*
X156756999Y-119159020D01*
X156812154Y-119186597D01*
X156839731Y-119214174D01*
X156867308Y-119269328D01*
X156867308Y-119407214D01*
X156839731Y-119462368D01*
X156812154Y-119489945D01*
X156756999Y-119517522D01*
X156619114Y-119517522D01*
X156563959Y-119489945D01*
X156536382Y-119462368D01*
X157115502Y-119517522D02*
X157115502Y-118938402D01*
X157336119Y-118938402D01*
X157391274Y-118965980D01*
X157418851Y-118993557D01*
X157446428Y-119048711D01*
X157446428Y-119131442D01*
X157418851Y-119186597D01*
X157391274Y-119214174D01*
X157336119Y-119241751D01*
X157115502Y-119241751D01*
X157804931Y-118938402D02*
X157915239Y-118938402D01*
X157970394Y-118965980D01*
X158025548Y-119021134D01*
X158053125Y-119131442D01*
X158053125Y-119324482D01*
X158025548Y-119434791D01*
X157970394Y-119489945D01*
X157915239Y-119517522D01*
X157804931Y-119517522D01*
X157749777Y-119489945D01*
X157694622Y-119434791D01*
X157667045Y-119324482D01*
X157667045Y-119131442D01*
X157694622Y-119021134D01*
X157749777Y-118965980D01*
X157804931Y-118938402D01*
X158577091Y-119517522D02*
X158301319Y-119517522D01*
X158301319Y-118938402D01*
X158742554Y-119352060D02*
X159018325Y-119352060D01*
X158687399Y-119517522D02*
X158880439Y-118938402D01*
X159073479Y-119517522D01*
X159597445Y-119517522D02*
X159404405Y-119241751D01*
X159266519Y-119517522D02*
X159266519Y-118938402D01*
X159487137Y-118938402D01*
X159542291Y-118965980D01*
X159569868Y-118993557D01*
X159597445Y-119048711D01*
X159597445Y-119131442D01*
X159569868Y-119186597D01*
X159542291Y-119214174D01*
X159487137Y-119241751D01*
X159266519Y-119241751D01*
X159707754Y-119572677D02*
X160148988Y-119572677D01*
X160562645Y-119517522D02*
X160286874Y-119517522D01*
X160286874Y-118938402D01*
X160865994Y-118938402D02*
X160976302Y-118938402D01*
X161031457Y-118965980D01*
X161086611Y-119021134D01*
X161114188Y-119131442D01*
X161114188Y-119324482D01*
X161086611Y-119434791D01*
X161031457Y-119489945D01*
X160976302Y-119517522D01*
X160865994Y-119517522D01*
X160810839Y-119489945D01*
X160755685Y-119434791D01*
X160728108Y-119324482D01*
X160728108Y-119131442D01*
X160755685Y-119021134D01*
X160810839Y-118965980D01*
X160865994Y-118938402D01*
X161693308Y-119462368D02*
X161665731Y-119489945D01*
X161582999Y-119517522D01*
X161527845Y-119517522D01*
X161445114Y-119489945D01*
X161389959Y-119434791D01*
X161362382Y-119379637D01*
X161334805Y-119269328D01*
X161334805Y-119186597D01*
X161362382Y-119076288D01*
X161389959Y-119021134D01*
X161445114Y-118965980D01*
X161527845Y-118938402D01*
X161582999Y-118938402D01*
X161665731Y-118965980D01*
X161693308Y-118993557D01*
X161941502Y-119517522D02*
X161941502Y-118938402D01*
X162272428Y-119517522D02*
X162024234Y-119186597D01*
X162272428Y-118938402D02*
X161941502Y-119269328D01*
X138262897Y-119462368D02*
X138235319Y-119489945D01*
X138152588Y-119517522D01*
X138097434Y-119517522D01*
X138014702Y-119489945D01*
X137959548Y-119434791D01*
X137931971Y-119379637D01*
X137904394Y-119269328D01*
X137904394Y-119186597D01*
X137931971Y-119076288D01*
X137959548Y-119021134D01*
X138014702Y-118965980D01*
X138097434Y-118938402D01*
X138152588Y-118938402D01*
X138235319Y-118965980D01*
X138262897Y-118993557D01*
X138621399Y-118938402D02*
X138731708Y-118938402D01*
X138786862Y-118965980D01*
X138842017Y-119021134D01*
X138869594Y-119131442D01*
X138869594Y-119324482D01*
X138842017Y-119434791D01*
X138786862Y-119489945D01*
X138731708Y-119517522D01*
X138621399Y-119517522D01*
X138566245Y-119489945D01*
X138511091Y-119434791D01*
X138483514Y-119324482D01*
X138483514Y-119131442D01*
X138511091Y-119021134D01*
X138566245Y-118965980D01*
X138621399Y-118938402D01*
X139117788Y-119517522D02*
X139117788Y-118938402D01*
X139448714Y-119517522D01*
X139448714Y-118938402D01*
X139724485Y-119517522D02*
X139724485Y-118938402D01*
X140055411Y-119517522D01*
X140055411Y-118938402D01*
X140193297Y-119572677D02*
X140634531Y-119572677D01*
X140882725Y-118938402D02*
X140937879Y-118938402D01*
X140993034Y-118965980D01*
X141020611Y-118993557D01*
X141048188Y-119048711D01*
X141075765Y-119159020D01*
X141075765Y-119296905D01*
X141048188Y-119407214D01*
X141020611Y-119462368D01*
X140993034Y-119489945D01*
X140937879Y-119517522D01*
X140882725Y-119517522D01*
X140827571Y-119489945D01*
X140799994Y-119462368D01*
X140772417Y-119407214D01*
X140744839Y-119296905D01*
X140744839Y-119159020D01*
X140772417Y-119048711D01*
X140799994Y-118993557D01*
X140827571Y-118965980D01*
X140882725Y-118938402D01*
X141599731Y-118938402D02*
X141323959Y-118938402D01*
X141296382Y-119214174D01*
X141323959Y-119186597D01*
X141379114Y-119159020D01*
X141516999Y-119159020D01*
X141572154Y-119186597D01*
X141599731Y-119214174D01*
X141627308Y-119269328D01*
X141627308Y-119407214D01*
X141599731Y-119462368D01*
X141572154Y-119489945D01*
X141516999Y-119517522D01*
X141379114Y-119517522D01*
X141323959Y-119489945D01*
X141296382Y-119462368D01*
X141875502Y-119517522D02*
X141875502Y-118938402D01*
X142096119Y-118938402D01*
X142151274Y-118965980D01*
X142178851Y-118993557D01*
X142206428Y-119048711D01*
X142206428Y-119131442D01*
X142178851Y-119186597D01*
X142151274Y-119214174D01*
X142096119Y-119241751D01*
X141875502Y-119241751D01*
X142564931Y-118938402D02*
X142675239Y-118938402D01*
X142730394Y-118965980D01*
X142785548Y-119021134D01*
X142813125Y-119131442D01*
X142813125Y-119324482D01*
X142785548Y-119434791D01*
X142730394Y-119489945D01*
X142675239Y-119517522D01*
X142564931Y-119517522D01*
X142509777Y-119489945D01*
X142454622Y-119434791D01*
X142427045Y-119324482D01*
X142427045Y-119131442D01*
X142454622Y-119021134D01*
X142509777Y-118965980D01*
X142564931Y-118938402D01*
X143337091Y-119517522D02*
X143061319Y-119517522D01*
X143061319Y-118938402D01*
X143502554Y-119352060D02*
X143778325Y-119352060D01*
X143447399Y-119517522D02*
X143640439Y-118938402D01*
X143833479Y-119517522D01*
X144357445Y-119517522D02*
X144164405Y-119241751D01*
X144026519Y-119517522D02*
X144026519Y-118938402D01*
X144247137Y-118938402D01*
X144302291Y-118965980D01*
X144329868Y-118993557D01*
X144357445Y-119048711D01*
X144357445Y-119131442D01*
X144329868Y-119186597D01*
X144302291Y-119214174D01*
X144247137Y-119241751D01*
X144026519Y-119241751D01*
X144467754Y-119572677D02*
X144908988Y-119572677D01*
X145322645Y-119517522D02*
X145046874Y-119517522D01*
X145046874Y-118938402D01*
X145625994Y-118938402D02*
X145736302Y-118938402D01*
X145791457Y-118965980D01*
X145846611Y-119021134D01*
X145874188Y-119131442D01*
X145874188Y-119324482D01*
X145846611Y-119434791D01*
X145791457Y-119489945D01*
X145736302Y-119517522D01*
X145625994Y-119517522D01*
X145570839Y-119489945D01*
X145515685Y-119434791D01*
X145488108Y-119324482D01*
X145488108Y-119131442D01*
X145515685Y-119021134D01*
X145570839Y-118965980D01*
X145625994Y-118938402D01*
X146453308Y-119462368D02*
X146425731Y-119489945D01*
X146342999Y-119517522D01*
X146287845Y-119517522D01*
X146205114Y-119489945D01*
X146149959Y-119434791D01*
X146122382Y-119379637D01*
X146094805Y-119269328D01*
X146094805Y-119186597D01*
X146122382Y-119076288D01*
X146149959Y-119021134D01*
X146205114Y-118965980D01*
X146287845Y-118938402D01*
X146342999Y-118938402D01*
X146425731Y-118965980D01*
X146453308Y-118993557D01*
X146701502Y-119517522D02*
X146701502Y-118938402D01*
X147032428Y-119517522D02*
X146784234Y-119186597D01*
X147032428Y-118938402D02*
X146701502Y-119269328D01*
X173060897Y-103714368D02*
X173033319Y-103741945D01*
X172950588Y-103769522D01*
X172895434Y-103769522D01*
X172812702Y-103741945D01*
X172757548Y-103686791D01*
X172729971Y-103631637D01*
X172702394Y-103521328D01*
X172702394Y-103438597D01*
X172729971Y-103328288D01*
X172757548Y-103273134D01*
X172812702Y-103217980D01*
X172895434Y-103190402D01*
X172950588Y-103190402D01*
X173033319Y-103217980D01*
X173060897Y-103245557D01*
X173419399Y-103190402D02*
X173529708Y-103190402D01*
X173584862Y-103217980D01*
X173640017Y-103273134D01*
X173667594Y-103383442D01*
X173667594Y-103576482D01*
X173640017Y-103686791D01*
X173584862Y-103741945D01*
X173529708Y-103769522D01*
X173419399Y-103769522D01*
X173364245Y-103741945D01*
X173309091Y-103686791D01*
X173281514Y-103576482D01*
X173281514Y-103383442D01*
X173309091Y-103273134D01*
X173364245Y-103217980D01*
X173419399Y-103190402D01*
X173915788Y-103769522D02*
X173915788Y-103190402D01*
X174246714Y-103769522D01*
X174246714Y-103190402D01*
X174522485Y-103769522D02*
X174522485Y-103190402D01*
X174853411Y-103769522D01*
X174853411Y-103190402D01*
X174991297Y-103824677D02*
X175432531Y-103824677D01*
X175680725Y-103190402D02*
X175735879Y-103190402D01*
X175791034Y-103217980D01*
X175818611Y-103245557D01*
X175846188Y-103300711D01*
X175873765Y-103411020D01*
X175873765Y-103548905D01*
X175846188Y-103659214D01*
X175818611Y-103714368D01*
X175791034Y-103741945D01*
X175735879Y-103769522D01*
X175680725Y-103769522D01*
X175625571Y-103741945D01*
X175597994Y-103714368D01*
X175570417Y-103659214D01*
X175542839Y-103548905D01*
X175542839Y-103411020D01*
X175570417Y-103300711D01*
X175597994Y-103245557D01*
X175625571Y-103217980D01*
X175680725Y-103190402D01*
X176397731Y-103190402D02*
X176121959Y-103190402D01*
X176094382Y-103466174D01*
X176121959Y-103438597D01*
X176177114Y-103411020D01*
X176314999Y-103411020D01*
X176370154Y-103438597D01*
X176397731Y-103466174D01*
X176425308Y-103521328D01*
X176425308Y-103659214D01*
X176397731Y-103714368D01*
X176370154Y-103741945D01*
X176314999Y-103769522D01*
X176177114Y-103769522D01*
X176121959Y-103741945D01*
X176094382Y-103714368D01*
X176673502Y-103769522D02*
X176673502Y-103190402D01*
X176894119Y-103190402D01*
X176949274Y-103217980D01*
X176976851Y-103245557D01*
X177004428Y-103300711D01*
X177004428Y-103383442D01*
X176976851Y-103438597D01*
X176949274Y-103466174D01*
X176894119Y-103493751D01*
X176673502Y-103493751D01*
X177362931Y-103190402D02*
X177473239Y-103190402D01*
X177528394Y-103217980D01*
X177583548Y-103273134D01*
X177611125Y-103383442D01*
X177611125Y-103576482D01*
X177583548Y-103686791D01*
X177528394Y-103741945D01*
X177473239Y-103769522D01*
X177362931Y-103769522D01*
X177307777Y-103741945D01*
X177252622Y-103686791D01*
X177225045Y-103576482D01*
X177225045Y-103383442D01*
X177252622Y-103273134D01*
X177307777Y-103217980D01*
X177362931Y-103190402D01*
X178135091Y-103769522D02*
X177859319Y-103769522D01*
X177859319Y-103190402D01*
X178300554Y-103604060D02*
X178576325Y-103604060D01*
X178245399Y-103769522D02*
X178438439Y-103190402D01*
X178631479Y-103769522D01*
X179155445Y-103769522D02*
X178962405Y-103493751D01*
X178824519Y-103769522D02*
X178824519Y-103190402D01*
X179045137Y-103190402D01*
X179100291Y-103217980D01*
X179127868Y-103245557D01*
X179155445Y-103300711D01*
X179155445Y-103383442D01*
X179127868Y-103438597D01*
X179100291Y-103466174D01*
X179045137Y-103493751D01*
X178824519Y-103493751D01*
X179265754Y-103824677D02*
X179706988Y-103824677D01*
X180120645Y-103769522D02*
X179844874Y-103769522D01*
X179844874Y-103190402D01*
X180423994Y-103190402D02*
X180534302Y-103190402D01*
X180589457Y-103217980D01*
X180644611Y-103273134D01*
X180672188Y-103383442D01*
X180672188Y-103576482D01*
X180644611Y-103686791D01*
X180589457Y-103741945D01*
X180534302Y-103769522D01*
X180423994Y-103769522D01*
X180368839Y-103741945D01*
X180313685Y-103686791D01*
X180286108Y-103576482D01*
X180286108Y-103383442D01*
X180313685Y-103273134D01*
X180368839Y-103217980D01*
X180423994Y-103190402D01*
X181251308Y-103714368D02*
X181223731Y-103741945D01*
X181140999Y-103769522D01*
X181085845Y-103769522D01*
X181003114Y-103741945D01*
X180947959Y-103686791D01*
X180920382Y-103631637D01*
X180892805Y-103521328D01*
X180892805Y-103438597D01*
X180920382Y-103328288D01*
X180947959Y-103273134D01*
X181003114Y-103217980D01*
X181085845Y-103190402D01*
X181140999Y-103190402D01*
X181223731Y-103217980D01*
X181251308Y-103245557D01*
X181499502Y-103769522D02*
X181499502Y-103190402D01*
X181830428Y-103769522D02*
X181582234Y-103438597D01*
X181830428Y-103190402D02*
X181499502Y-103521328D01*
X129372897Y-104928488D02*
X129345319Y-104956065D01*
X129262588Y-104983642D01*
X129207434Y-104983642D01*
X129124702Y-104956065D01*
X129069548Y-104900911D01*
X129041971Y-104845757D01*
X129014394Y-104735448D01*
X129014394Y-104652717D01*
X129041971Y-104542408D01*
X129069548Y-104487254D01*
X129124702Y-104432100D01*
X129207434Y-104404522D01*
X129262588Y-104404522D01*
X129345319Y-104432100D01*
X129372897Y-104459677D01*
X129731399Y-104404522D02*
X129841708Y-104404522D01*
X129896862Y-104432100D01*
X129952017Y-104487254D01*
X129979594Y-104597562D01*
X129979594Y-104790602D01*
X129952017Y-104900911D01*
X129896862Y-104956065D01*
X129841708Y-104983642D01*
X129731399Y-104983642D01*
X129676245Y-104956065D01*
X129621091Y-104900911D01*
X129593514Y-104790602D01*
X129593514Y-104597562D01*
X129621091Y-104487254D01*
X129676245Y-104432100D01*
X129731399Y-104404522D01*
X130227788Y-104983642D02*
X130227788Y-104404522D01*
X130558714Y-104983642D01*
X130558714Y-104404522D01*
X130834485Y-104983642D02*
X130834485Y-104404522D01*
X131165411Y-104983642D01*
X131165411Y-104404522D01*
X131303297Y-105038797D02*
X131744531Y-105038797D01*
X131992725Y-104404522D02*
X132047879Y-104404522D01*
X132103034Y-104432100D01*
X132130611Y-104459677D01*
X132158188Y-104514831D01*
X132185765Y-104625140D01*
X132185765Y-104763025D01*
X132158188Y-104873334D01*
X132130611Y-104928488D01*
X132103034Y-104956065D01*
X132047879Y-104983642D01*
X131992725Y-104983642D01*
X131937571Y-104956065D01*
X131909994Y-104928488D01*
X131882417Y-104873334D01*
X131854839Y-104763025D01*
X131854839Y-104625140D01*
X131882417Y-104514831D01*
X131909994Y-104459677D01*
X131937571Y-104432100D01*
X131992725Y-104404522D01*
X132378805Y-104404522D02*
X132737308Y-104404522D01*
X132544268Y-104625140D01*
X132626999Y-104625140D01*
X132682154Y-104652717D01*
X132709731Y-104680294D01*
X132737308Y-104735448D01*
X132737308Y-104873334D01*
X132709731Y-104928488D01*
X132682154Y-104956065D01*
X132626999Y-104983642D01*
X132461537Y-104983642D01*
X132406382Y-104956065D01*
X132378805Y-104928488D01*
X132985502Y-104983642D02*
X132985502Y-104404522D01*
X133206119Y-104404522D01*
X133261274Y-104432100D01*
X133288851Y-104459677D01*
X133316428Y-104514831D01*
X133316428Y-104597562D01*
X133288851Y-104652717D01*
X133261274Y-104680294D01*
X133206119Y-104707871D01*
X132985502Y-104707871D01*
X133674931Y-104404522D02*
X133785239Y-104404522D01*
X133840394Y-104432100D01*
X133895548Y-104487254D01*
X133923125Y-104597562D01*
X133923125Y-104790602D01*
X133895548Y-104900911D01*
X133840394Y-104956065D01*
X133785239Y-104983642D01*
X133674931Y-104983642D01*
X133619777Y-104956065D01*
X133564622Y-104900911D01*
X133537045Y-104790602D01*
X133537045Y-104597562D01*
X133564622Y-104487254D01*
X133619777Y-104432100D01*
X133674931Y-104404522D01*
X134447091Y-104983642D02*
X134171319Y-104983642D01*
X134171319Y-104404522D01*
X134612554Y-104818180D02*
X134888325Y-104818180D01*
X134557399Y-104983642D02*
X134750439Y-104404522D01*
X134943479Y-104983642D01*
X135467445Y-104983642D02*
X135274405Y-104707871D01*
X135136519Y-104983642D02*
X135136519Y-104404522D01*
X135357137Y-104404522D01*
X135412291Y-104432100D01*
X135439868Y-104459677D01*
X135467445Y-104514831D01*
X135467445Y-104597562D01*
X135439868Y-104652717D01*
X135412291Y-104680294D01*
X135357137Y-104707871D01*
X135136519Y-104707871D01*
X135577754Y-105038797D02*
X136018988Y-105038797D01*
X136432645Y-104983642D02*
X136156874Y-104983642D01*
X136156874Y-104404522D01*
X136735994Y-104404522D02*
X136846302Y-104404522D01*
X136901457Y-104432100D01*
X136956611Y-104487254D01*
X136984188Y-104597562D01*
X136984188Y-104790602D01*
X136956611Y-104900911D01*
X136901457Y-104956065D01*
X136846302Y-104983642D01*
X136735994Y-104983642D01*
X136680839Y-104956065D01*
X136625685Y-104900911D01*
X136598108Y-104790602D01*
X136598108Y-104597562D01*
X136625685Y-104487254D01*
X136680839Y-104432100D01*
X136735994Y-104404522D01*
X137563308Y-104928488D02*
X137535731Y-104956065D01*
X137452999Y-104983642D01*
X137397845Y-104983642D01*
X137315114Y-104956065D01*
X137259959Y-104900911D01*
X137232382Y-104845757D01*
X137204805Y-104735448D01*
X137204805Y-104652717D01*
X137232382Y-104542408D01*
X137259959Y-104487254D01*
X137315114Y-104432100D01*
X137397845Y-104404522D01*
X137452999Y-104404522D01*
X137535731Y-104432100D01*
X137563308Y-104459677D01*
X137811502Y-104983642D02*
X137811502Y-104404522D01*
X138142428Y-104983642D02*
X137894234Y-104652717D01*
X138142428Y-104404522D02*
X137811502Y-104735448D01*
X145073188Y-99062002D02*
X145100765Y-99089580D01*
X145128342Y-99172311D01*
X145128342Y-99227465D01*
X145100765Y-99310197D01*
X145045611Y-99365351D01*
X144990457Y-99392928D01*
X144880148Y-99420505D01*
X144797417Y-99420505D01*
X144687108Y-99392928D01*
X144631954Y-99365351D01*
X144576800Y-99310197D01*
X144549222Y-99227465D01*
X144549222Y-99172311D01*
X144576800Y-99089580D01*
X144604377Y-99062002D01*
X144549222Y-98703500D02*
X144549222Y-98593191D01*
X144576800Y-98538037D01*
X144631954Y-98482882D01*
X144742262Y-98455305D01*
X144935302Y-98455305D01*
X145045611Y-98482882D01*
X145100765Y-98538037D01*
X145128342Y-98593191D01*
X145128342Y-98703500D01*
X145100765Y-98758654D01*
X145045611Y-98813808D01*
X144935302Y-98841385D01*
X144742262Y-98841385D01*
X144631954Y-98813808D01*
X144576800Y-98758654D01*
X144549222Y-98703500D01*
X145128342Y-98207111D02*
X144549222Y-98207111D01*
X145128342Y-97876185D01*
X144549222Y-97876185D01*
X145128342Y-97600414D02*
X144549222Y-97600414D01*
X145128342Y-97269488D01*
X144549222Y-97269488D01*
X145183497Y-97131602D02*
X145183497Y-96690368D01*
X144549222Y-96442174D02*
X144549222Y-96387020D01*
X144576800Y-96331865D01*
X144604377Y-96304288D01*
X144659531Y-96276711D01*
X144769840Y-96249134D01*
X144907725Y-96249134D01*
X145018034Y-96276711D01*
X145073188Y-96304288D01*
X145100765Y-96331865D01*
X145128342Y-96387020D01*
X145128342Y-96442174D01*
X145100765Y-96497328D01*
X145073188Y-96524905D01*
X145018034Y-96552482D01*
X144907725Y-96580060D01*
X144769840Y-96580060D01*
X144659531Y-96552482D01*
X144604377Y-96524905D01*
X144576800Y-96497328D01*
X144549222Y-96442174D01*
X144604377Y-96028517D02*
X144576800Y-96000940D01*
X144549222Y-95945785D01*
X144549222Y-95807900D01*
X144576800Y-95752745D01*
X144604377Y-95725168D01*
X144659531Y-95697591D01*
X144714685Y-95697591D01*
X144797417Y-95725168D01*
X145128342Y-96056094D01*
X145128342Y-95697591D01*
X145128342Y-95449397D02*
X144549222Y-95449397D01*
X144549222Y-95228780D01*
X144576800Y-95173625D01*
X144604377Y-95146048D01*
X144659531Y-95118471D01*
X144742262Y-95118471D01*
X144797417Y-95146048D01*
X144824994Y-95173625D01*
X144852571Y-95228780D01*
X144852571Y-95449397D01*
X144549222Y-94759968D02*
X144549222Y-94649660D01*
X144576800Y-94594505D01*
X144631954Y-94539351D01*
X144742262Y-94511774D01*
X144935302Y-94511774D01*
X145045611Y-94539351D01*
X145100765Y-94594505D01*
X145128342Y-94649660D01*
X145128342Y-94759968D01*
X145100765Y-94815122D01*
X145045611Y-94870277D01*
X144935302Y-94897854D01*
X144742262Y-94897854D01*
X144631954Y-94870277D01*
X144576800Y-94815122D01*
X144549222Y-94759968D01*
X145128342Y-93987808D02*
X145128342Y-94263580D01*
X144549222Y-94263580D01*
X144962880Y-93822345D02*
X144962880Y-93546574D01*
X145128342Y-93877500D02*
X144549222Y-93684460D01*
X145128342Y-93491420D01*
X145128342Y-92967454D02*
X144852571Y-93160494D01*
X145128342Y-93298380D02*
X144549222Y-93298380D01*
X144549222Y-93077762D01*
X144576800Y-93022608D01*
X144604377Y-92995031D01*
X144659531Y-92967454D01*
X144742262Y-92967454D01*
X144797417Y-92995031D01*
X144824994Y-93022608D01*
X144852571Y-93077762D01*
X144852571Y-93298380D01*
X145183497Y-92857145D02*
X145183497Y-92415911D01*
X145128342Y-92002254D02*
X145128342Y-92278025D01*
X144549222Y-92278025D01*
X144549222Y-91698905D02*
X144549222Y-91588597D01*
X144576800Y-91533442D01*
X144631954Y-91478288D01*
X144742262Y-91450711D01*
X144935302Y-91450711D01*
X145045611Y-91478288D01*
X145100765Y-91533442D01*
X145128342Y-91588597D01*
X145128342Y-91698905D01*
X145100765Y-91754060D01*
X145045611Y-91809214D01*
X144935302Y-91836791D01*
X144742262Y-91836791D01*
X144631954Y-91809214D01*
X144576800Y-91754060D01*
X144549222Y-91698905D01*
X145073188Y-90871591D02*
X145100765Y-90899168D01*
X145128342Y-90981900D01*
X145128342Y-91037054D01*
X145100765Y-91119785D01*
X145045611Y-91174940D01*
X144990457Y-91202517D01*
X144880148Y-91230094D01*
X144797417Y-91230094D01*
X144687108Y-91202517D01*
X144631954Y-91174940D01*
X144576800Y-91119785D01*
X144549222Y-91037054D01*
X144549222Y-90981900D01*
X144576800Y-90899168D01*
X144604377Y-90871591D01*
X145128342Y-90623397D02*
X144549222Y-90623397D01*
X145128342Y-90292471D02*
X144797417Y-90540665D01*
X144549222Y-90292471D02*
X144880148Y-90623397D01*
X145073188Y-91442002D02*
X145100765Y-91469580D01*
X145128342Y-91552311D01*
X145128342Y-91607465D01*
X145100765Y-91690197D01*
X145045611Y-91745351D01*
X144990457Y-91772928D01*
X144880148Y-91800505D01*
X144797417Y-91800505D01*
X144687108Y-91772928D01*
X144631954Y-91745351D01*
X144576800Y-91690197D01*
X144549222Y-91607465D01*
X144549222Y-91552311D01*
X144576800Y-91469580D01*
X144604377Y-91442002D01*
X144549222Y-91083500D02*
X144549222Y-90973191D01*
X144576800Y-90918037D01*
X144631954Y-90862882D01*
X144742262Y-90835305D01*
X144935302Y-90835305D01*
X145045611Y-90862882D01*
X145100765Y-90918037D01*
X145128342Y-90973191D01*
X145128342Y-91083500D01*
X145100765Y-91138654D01*
X145045611Y-91193808D01*
X144935302Y-91221385D01*
X144742262Y-91221385D01*
X144631954Y-91193808D01*
X144576800Y-91138654D01*
X144549222Y-91083500D01*
X145128342Y-90587111D02*
X144549222Y-90587111D01*
X145128342Y-90256185D01*
X144549222Y-90256185D01*
X145128342Y-89980414D02*
X144549222Y-89980414D01*
X145128342Y-89649488D01*
X144549222Y-89649488D01*
X145183497Y-89511602D02*
X145183497Y-89070368D01*
X144549222Y-88822174D02*
X144549222Y-88767020D01*
X144576800Y-88711865D01*
X144604377Y-88684288D01*
X144659531Y-88656711D01*
X144769840Y-88629134D01*
X144907725Y-88629134D01*
X145018034Y-88656711D01*
X145073188Y-88684288D01*
X145100765Y-88711865D01*
X145128342Y-88767020D01*
X145128342Y-88822174D01*
X145100765Y-88877328D01*
X145073188Y-88904905D01*
X145018034Y-88932482D01*
X144907725Y-88960060D01*
X144769840Y-88960060D01*
X144659531Y-88932482D01*
X144604377Y-88904905D01*
X144576800Y-88877328D01*
X144549222Y-88822174D01*
X144604377Y-88408517D02*
X144576800Y-88380940D01*
X144549222Y-88325785D01*
X144549222Y-88187900D01*
X144576800Y-88132745D01*
X144604377Y-88105168D01*
X144659531Y-88077591D01*
X144714685Y-88077591D01*
X144797417Y-88105168D01*
X145128342Y-88436094D01*
X145128342Y-88077591D01*
X145128342Y-87829397D02*
X144549222Y-87829397D01*
X144549222Y-87608780D01*
X144576800Y-87553625D01*
X144604377Y-87526048D01*
X144659531Y-87498471D01*
X144742262Y-87498471D01*
X144797417Y-87526048D01*
X144824994Y-87553625D01*
X144852571Y-87608780D01*
X144852571Y-87829397D01*
X144549222Y-87139968D02*
X144549222Y-87029660D01*
X144576800Y-86974505D01*
X144631954Y-86919351D01*
X144742262Y-86891774D01*
X144935302Y-86891774D01*
X145045611Y-86919351D01*
X145100765Y-86974505D01*
X145128342Y-87029660D01*
X145128342Y-87139968D01*
X145100765Y-87195122D01*
X145045611Y-87250277D01*
X144935302Y-87277854D01*
X144742262Y-87277854D01*
X144631954Y-87250277D01*
X144576800Y-87195122D01*
X144549222Y-87139968D01*
X145128342Y-86367808D02*
X145128342Y-86643580D01*
X144549222Y-86643580D01*
X144962880Y-86202345D02*
X144962880Y-85926574D01*
X145128342Y-86257500D02*
X144549222Y-86064460D01*
X145128342Y-85871420D01*
X145128342Y-85347454D02*
X144852571Y-85540494D01*
X145128342Y-85678380D02*
X144549222Y-85678380D01*
X144549222Y-85457762D01*
X144576800Y-85402608D01*
X144604377Y-85375031D01*
X144659531Y-85347454D01*
X144742262Y-85347454D01*
X144797417Y-85375031D01*
X144824994Y-85402608D01*
X144852571Y-85457762D01*
X144852571Y-85678380D01*
X145183497Y-85237145D02*
X145183497Y-84795911D01*
X145128342Y-84382254D02*
X145128342Y-84658025D01*
X144549222Y-84658025D01*
X144549222Y-84078905D02*
X144549222Y-83968597D01*
X144576800Y-83913442D01*
X144631954Y-83858288D01*
X144742262Y-83830711D01*
X144935302Y-83830711D01*
X145045611Y-83858288D01*
X145100765Y-83913442D01*
X145128342Y-83968597D01*
X145128342Y-84078905D01*
X145100765Y-84134060D01*
X145045611Y-84189214D01*
X144935302Y-84216791D01*
X144742262Y-84216791D01*
X144631954Y-84189214D01*
X144576800Y-84134060D01*
X144549222Y-84078905D01*
X145073188Y-83251591D02*
X145100765Y-83279168D01*
X145128342Y-83361900D01*
X145128342Y-83417054D01*
X145100765Y-83499785D01*
X145045611Y-83554940D01*
X144990457Y-83582517D01*
X144880148Y-83610094D01*
X144797417Y-83610094D01*
X144687108Y-83582517D01*
X144631954Y-83554940D01*
X144576800Y-83499785D01*
X144549222Y-83417054D01*
X144549222Y-83361900D01*
X144576800Y-83279168D01*
X144604377Y-83251591D01*
X145128342Y-83003397D02*
X144549222Y-83003397D01*
X145128342Y-82672471D02*
X144797417Y-82920665D01*
X144549222Y-82672471D02*
X144880148Y-83003397D01*
X143723897Y-83394368D02*
X143696319Y-83421945D01*
X143613588Y-83449522D01*
X143558434Y-83449522D01*
X143475702Y-83421945D01*
X143420548Y-83366791D01*
X143392971Y-83311637D01*
X143365394Y-83201328D01*
X143365394Y-83118597D01*
X143392971Y-83008288D01*
X143420548Y-82953134D01*
X143475702Y-82897980D01*
X143558434Y-82870402D01*
X143613588Y-82870402D01*
X143696319Y-82897980D01*
X143723897Y-82925557D01*
X144082399Y-82870402D02*
X144192708Y-82870402D01*
X144247862Y-82897980D01*
X144303017Y-82953134D01*
X144330594Y-83063442D01*
X144330594Y-83256482D01*
X144303017Y-83366791D01*
X144247862Y-83421945D01*
X144192708Y-83449522D01*
X144082399Y-83449522D01*
X144027245Y-83421945D01*
X143972091Y-83366791D01*
X143944514Y-83256482D01*
X143944514Y-83063442D01*
X143972091Y-82953134D01*
X144027245Y-82897980D01*
X144082399Y-82870402D01*
X144578788Y-83449522D02*
X144578788Y-82870402D01*
X144909714Y-83449522D01*
X144909714Y-82870402D01*
X145185485Y-83449522D02*
X145185485Y-82870402D01*
X145516411Y-83449522D01*
X145516411Y-82870402D01*
X145654297Y-83504677D02*
X146095531Y-83504677D01*
X146343725Y-82870402D02*
X146398879Y-82870402D01*
X146454034Y-82897980D01*
X146481611Y-82925557D01*
X146509188Y-82980711D01*
X146536765Y-83091020D01*
X146536765Y-83228905D01*
X146509188Y-83339214D01*
X146481611Y-83394368D01*
X146454034Y-83421945D01*
X146398879Y-83449522D01*
X146343725Y-83449522D01*
X146288571Y-83421945D01*
X146260994Y-83394368D01*
X146233417Y-83339214D01*
X146205839Y-83228905D01*
X146205839Y-83091020D01*
X146233417Y-82980711D01*
X146260994Y-82925557D01*
X146288571Y-82897980D01*
X146343725Y-82870402D01*
X147033154Y-83063442D02*
X147033154Y-83449522D01*
X146895268Y-82842825D02*
X146757382Y-83256482D01*
X147115885Y-83256482D01*
X147336502Y-83449522D02*
X147336502Y-82870402D01*
X147557119Y-82870402D01*
X147612274Y-82897980D01*
X147639851Y-82925557D01*
X147667428Y-82980711D01*
X147667428Y-83063442D01*
X147639851Y-83118597D01*
X147612274Y-83146174D01*
X147557119Y-83173751D01*
X147336502Y-83173751D01*
X148025931Y-82870402D02*
X148136239Y-82870402D01*
X148191394Y-82897980D01*
X148246548Y-82953134D01*
X148274125Y-83063442D01*
X148274125Y-83256482D01*
X148246548Y-83366791D01*
X148191394Y-83421945D01*
X148136239Y-83449522D01*
X148025931Y-83449522D01*
X147970777Y-83421945D01*
X147915622Y-83366791D01*
X147888045Y-83256482D01*
X147888045Y-83063442D01*
X147915622Y-82953134D01*
X147970777Y-82897980D01*
X148025931Y-82870402D01*
X148798091Y-83449522D02*
X148522319Y-83449522D01*
X148522319Y-82870402D01*
X148963554Y-83284060D02*
X149239325Y-83284060D01*
X148908399Y-83449522D02*
X149101439Y-82870402D01*
X149294479Y-83449522D01*
X149818445Y-83449522D02*
X149625405Y-83173751D01*
X149487519Y-83449522D02*
X149487519Y-82870402D01*
X149708137Y-82870402D01*
X149763291Y-82897980D01*
X149790868Y-82925557D01*
X149818445Y-82980711D01*
X149818445Y-83063442D01*
X149790868Y-83118597D01*
X149763291Y-83146174D01*
X149708137Y-83173751D01*
X149487519Y-83173751D01*
X149928754Y-83504677D02*
X150369988Y-83504677D01*
X150783645Y-83449522D02*
X150507874Y-83449522D01*
X150507874Y-82870402D01*
X151086994Y-82870402D02*
X151197302Y-82870402D01*
X151252457Y-82897980D01*
X151307611Y-82953134D01*
X151335188Y-83063442D01*
X151335188Y-83256482D01*
X151307611Y-83366791D01*
X151252457Y-83421945D01*
X151197302Y-83449522D01*
X151086994Y-83449522D01*
X151031839Y-83421945D01*
X150976685Y-83366791D01*
X150949108Y-83256482D01*
X150949108Y-83063442D01*
X150976685Y-82953134D01*
X151031839Y-82897980D01*
X151086994Y-82870402D01*
X151914308Y-83394368D02*
X151886731Y-83421945D01*
X151803999Y-83449522D01*
X151748845Y-83449522D01*
X151666114Y-83421945D01*
X151610959Y-83366791D01*
X151583382Y-83311637D01*
X151555805Y-83201328D01*
X151555805Y-83118597D01*
X151583382Y-83008288D01*
X151610959Y-82953134D01*
X151666114Y-82897980D01*
X151748845Y-82870402D01*
X151803999Y-82870402D01*
X151886731Y-82897980D01*
X151914308Y-82925557D01*
X152162502Y-83449522D02*
X152162502Y-82870402D01*
X152493428Y-83449522D02*
X152245234Y-83118597D01*
X152493428Y-82870402D02*
X152162502Y-83201328D01*
X156550897Y-103714368D02*
X156523319Y-103741945D01*
X156440588Y-103769522D01*
X156385434Y-103769522D01*
X156302702Y-103741945D01*
X156247548Y-103686791D01*
X156219971Y-103631637D01*
X156192394Y-103521328D01*
X156192394Y-103438597D01*
X156219971Y-103328288D01*
X156247548Y-103273134D01*
X156302702Y-103217980D01*
X156385434Y-103190402D01*
X156440588Y-103190402D01*
X156523319Y-103217980D01*
X156550897Y-103245557D01*
X156909399Y-103190402D02*
X157019708Y-103190402D01*
X157074862Y-103217980D01*
X157130017Y-103273134D01*
X157157594Y-103383442D01*
X157157594Y-103576482D01*
X157130017Y-103686791D01*
X157074862Y-103741945D01*
X157019708Y-103769522D01*
X156909399Y-103769522D01*
X156854245Y-103741945D01*
X156799091Y-103686791D01*
X156771514Y-103576482D01*
X156771514Y-103383442D01*
X156799091Y-103273134D01*
X156854245Y-103217980D01*
X156909399Y-103190402D01*
X157405788Y-103769522D02*
X157405788Y-103190402D01*
X157736714Y-103769522D01*
X157736714Y-103190402D01*
X158012485Y-103769522D02*
X158012485Y-103190402D01*
X158343411Y-103769522D01*
X158343411Y-103190402D01*
X158481297Y-103824677D02*
X158922531Y-103824677D01*
X159170725Y-103190402D02*
X159225879Y-103190402D01*
X159281034Y-103217980D01*
X159308611Y-103245557D01*
X159336188Y-103300711D01*
X159363765Y-103411020D01*
X159363765Y-103548905D01*
X159336188Y-103659214D01*
X159308611Y-103714368D01*
X159281034Y-103741945D01*
X159225879Y-103769522D01*
X159170725Y-103769522D01*
X159115571Y-103741945D01*
X159087994Y-103714368D01*
X159060417Y-103659214D01*
X159032839Y-103548905D01*
X159032839Y-103411020D01*
X159060417Y-103300711D01*
X159087994Y-103245557D01*
X159115571Y-103217980D01*
X159170725Y-103190402D01*
X159860154Y-103190402D02*
X159749845Y-103190402D01*
X159694691Y-103217980D01*
X159667114Y-103245557D01*
X159611959Y-103328288D01*
X159584382Y-103438597D01*
X159584382Y-103659214D01*
X159611959Y-103714368D01*
X159639537Y-103741945D01*
X159694691Y-103769522D01*
X159804999Y-103769522D01*
X159860154Y-103741945D01*
X159887731Y-103714368D01*
X159915308Y-103659214D01*
X159915308Y-103521328D01*
X159887731Y-103466174D01*
X159860154Y-103438597D01*
X159804999Y-103411020D01*
X159694691Y-103411020D01*
X159639537Y-103438597D01*
X159611959Y-103466174D01*
X159584382Y-103521328D01*
X160163502Y-103769522D02*
X160163502Y-103190402D01*
X160384119Y-103190402D01*
X160439274Y-103217980D01*
X160466851Y-103245557D01*
X160494428Y-103300711D01*
X160494428Y-103383442D01*
X160466851Y-103438597D01*
X160439274Y-103466174D01*
X160384119Y-103493751D01*
X160163502Y-103493751D01*
X160852931Y-103190402D02*
X160963239Y-103190402D01*
X161018394Y-103217980D01*
X161073548Y-103273134D01*
X161101125Y-103383442D01*
X161101125Y-103576482D01*
X161073548Y-103686791D01*
X161018394Y-103741945D01*
X160963239Y-103769522D01*
X160852931Y-103769522D01*
X160797777Y-103741945D01*
X160742622Y-103686791D01*
X160715045Y-103576482D01*
X160715045Y-103383442D01*
X160742622Y-103273134D01*
X160797777Y-103217980D01*
X160852931Y-103190402D01*
X161625091Y-103769522D02*
X161349319Y-103769522D01*
X161349319Y-103190402D01*
X161790554Y-103604060D02*
X162066325Y-103604060D01*
X161735399Y-103769522D02*
X161928439Y-103190402D01*
X162121479Y-103769522D01*
X162645445Y-103769522D02*
X162452405Y-103493751D01*
X162314519Y-103769522D02*
X162314519Y-103190402D01*
X162535137Y-103190402D01*
X162590291Y-103217980D01*
X162617868Y-103245557D01*
X162645445Y-103300711D01*
X162645445Y-103383442D01*
X162617868Y-103438597D01*
X162590291Y-103466174D01*
X162535137Y-103493751D01*
X162314519Y-103493751D01*
X162755754Y-103824677D02*
X163196988Y-103824677D01*
X163610645Y-103769522D02*
X163334874Y-103769522D01*
X163334874Y-103190402D01*
X163913994Y-103190402D02*
X164024302Y-103190402D01*
X164079457Y-103217980D01*
X164134611Y-103273134D01*
X164162188Y-103383442D01*
X164162188Y-103576482D01*
X164134611Y-103686791D01*
X164079457Y-103741945D01*
X164024302Y-103769522D01*
X163913994Y-103769522D01*
X163858839Y-103741945D01*
X163803685Y-103686791D01*
X163776108Y-103576482D01*
X163776108Y-103383442D01*
X163803685Y-103273134D01*
X163858839Y-103217980D01*
X163913994Y-103190402D01*
X164741308Y-103714368D02*
X164713731Y-103741945D01*
X164630999Y-103769522D01*
X164575845Y-103769522D01*
X164493114Y-103741945D01*
X164437959Y-103686791D01*
X164410382Y-103631637D01*
X164382805Y-103521328D01*
X164382805Y-103438597D01*
X164410382Y-103328288D01*
X164437959Y-103273134D01*
X164493114Y-103217980D01*
X164575845Y-103190402D01*
X164630999Y-103190402D01*
X164713731Y-103217980D01*
X164741308Y-103245557D01*
X164989502Y-103769522D02*
X164989502Y-103190402D01*
X165320428Y-103769522D02*
X165072234Y-103438597D01*
X165320428Y-103190402D02*
X164989502Y-103521328D01*
M02*
